<svg xmlns="http://www.w3.org/2000/svg" xmlns:xlink="http://www.w3.org/1999/xlink" height="50.45mm" version="1.2" viewBox="0 0 101.03 50.45" width="101.03mm">
      
    <desc>Generated by the Chemistry Development Kit (http://github.com/cdk)</desc>
      
    <g fill="#1FF01F" stroke="#000000" stroke-linecap="round" stroke-linejoin="round" stroke-width=".7">
            
        <rect fill="#FFFFFF" height="51.0" stroke="none" width="102.0" x=".0" y=".0"/>
            
        <g class="mol" id="mol1">
                  
            <line class="bond" id="mol1bnd1" x1="30.67" x2="42.36" y1=".97" y2="3.03"/>
                  
            <line class="bond" id="mol1bnd2" x1="47.05" x2="50.89" y1="7.38" y2="17.94"/>
                  
            <line class="bond" id="mol1bnd3" x1="50.89" x2="64.1" y1="17.94" y2="10.32"/>
                  
            <line class="bond" id="mol1bnd4" x1="64.1" x2="77.31" y1="10.32" y2="17.94"/>
                  
            <line class="bond" id="mol1bnd5" x1="77.31" x2="77.31" y1="17.94" y2="33.18"/>
                  
            <line class="bond" id="mol1bnd6" x1="77.31" x2="64.1" y1="33.18" y2="40.8"/>
                  
            <line class="bond" id="mol1bnd7" x1="64.1" x2="50.89" y1="40.8" y2="33.18"/>
                  
            <line class="bond" id="mol1bnd8" x1="50.89" x2="50.89" y1="17.94" y2="33.18"/>
                  
            <g class="bond" id="mol1bnd9">
                        
                <line x1="52.11" x2="41.58" y1="33.88" y2="39.96"/>
                        
                <line x1="50.89" x2="40.36" y1="31.77" y2="37.85"/>
                      
                <line class="hi" stroke="#FF0D0D" x1="41.58" x2="46.845" y1="39.96" y2="36.92"/>
                <line class="hi" stroke="#FF0D0D" x1="40.36" x2="45.625" y1="37.85" y2="34.81"/>
            </g>
                  
            <line class="bond" id="mol1bnd10" x1="50.89" x2="31.08" y1="17.94" y2="21.43"/>
                  
            <g class="bond" id="mol1bnd11">
                        
                <line x1="31.08" x2="21.32" y1="21.43" y2="9.83"/>
                        
                <line x1="28.3" x2="20.36" y1="21.92" y2="12.47"/>
                      
            </g>
                  
            <line class="bond" id="mol1bnd12" x1="21.32" x2="6.31" y1="9.83" y2="12.45"/>
                  
            <g class="bond" id="mol1bnd13">
                        
                <line x1="6.31" x2="1.05" y1="12.45" y2="26.67"/>
                        
                <line x1="8.11" x2="3.83" y1="14.61" y2="26.19"/>
                      
            </g>
                  
            <line class="bond" id="mol1bnd14" x1="1.05" x2="10.83" y1="26.67" y2="38.37"/>
                  
            <g class="bond" id="mol1bnd15">
                        
                <line x1="10.83" x2="25.84" y1="38.37" y2="35.75"/>
                        
                <line x1="11.8" x2="24.04" y1="35.73" y2="33.59"/>
                      
            </g>
                  
            <line class="bond" id="mol1bnd16" x1="31.08" x2="25.84" y1="21.43" y2="35.75"/>
                  
            <line class="bond" id="mol1bnd17" x1="25.84" x2="33.36" y1="35.75" y2="44.73"/>
                  
            <g class="atom" id="mol1atm2">
                        
                <path d="M47.62 6.06h-.72l-2.62 -4.07h-.03q.01 .24 .03 .6q.02 .36 .02 .73v2.74h-.57v-4.9h.71l2.61 4.05h.03q-.01 -.11 -.02 -.33q-.01 -.22 -.02 -.48q-.01 -.26 -.01 -.48v-2.77h.58v4.9z" fill="#3050F8" stroke="none"/>
                        
                <path d="M51.93 6.06h-.62v-2.29h-2.51v2.29h-.61v-4.9h.61v2.07h2.51v-2.07h.62v4.9z" fill="#3050F8" stroke="none"/>
                      
            </g>
                  
            <path class="atom" d="M39.95 40.8q.0 .76 -.26 1.33q-.26 .57 -.76 .88q-.5 .32 -1.24 .32q-.76 .0 -1.26 -.32q-.51 -.32 -.76 -.89q-.24 -.57 -.24 -1.33q.0 -.75 .24 -1.31q.25 -.57 .76 -.88q.51 -.32 1.27 -.32q.73 .0 1.23 .32q.5 .31 .76 .88q.26 .57 .26 1.33zM36.09 40.8q.0 .92 .39 1.46q.39 .53 1.22 .53q.84 .0 1.22 -.53q.39 -.54 .39 -1.46q.0 -.93 -.39 -1.45q-.38 -.52 -1.21 -.52q-.83 .0 -1.23 .52q-.39 .52 -.39 1.45z" fill="#FF0D0D" id="mol1atm9" stroke="none"/>
                  
            <path class="atom" d="M34.87 49.89h-.61v-4.9h2.73v.54h-2.12v1.74h1.99v.54h-1.99v2.08z" fill="#90E050" id="mol1atm16" stroke="none"/>
                  
            <g class="atom" id="mol1atm17">
                        
                <path d="M97.71 22.39q-.79 .0 -1.24 .53q-.45 .52 -.45 1.45q.0 .91 .42 1.45q.42 .53 1.27 .53q.32 .0 .61 -.05q.29 -.06 .57 -.14v.54q-.27 .1 -.57 .15q-.29 .05 -.7 .05q-.74 .0 -1.25 -.31q-.5 -.31 -.75 -.88q-.25 -.57 -.25 -1.34q.0 -.74 .27 -1.31q.27 -.57 .8 -.88q.53 -.32 1.28 -.32q.78 .0 1.35 .29l-.24 .52q-.23 -.1 -.51 -.18q-.27 -.08 -.61 -.08zM100.47 26.81h-.6v-5.21h.6v5.21z" stroke="none"/>
                        
                <path d="M94.8 26.81h-.62v-2.29h-2.51v2.29h-.61v-4.9h.61v2.07h2.51v-2.07h.62v4.9z" stroke="none"/>
                      
            </g>
                
            <line class="hi" id="mol1bnd1" stroke="#3050F8" x1="42.36" x2="36.515" y1="3.0299999999999994" y2="2.0"/>
            <line class="hi" id="mol1bnd2" stroke="#3050F8" x1="47.05" x2="48.97" y1="7.38" y2="12.66"/>
            <line class="hi" id="mol1bnd2" stroke="#3050F8" x1="47.19598540145985" x2="48.97" y1="7.781459854014599" y2="12.66"/>
            <line class="hi" id="mol1bnd17" stroke="#FF0D0D" x1="33.36" x2="29.6" y1="44.73" y2="40.239999999999995"/>
            <line class="hi" id="mol1bnd17" stroke="#90E050" x1="33.36" x2="29.6" y1="44.73" y2="40.239999999999995"/>
        </g>
          
    </g>
    
</svg>
