<svg xmlns="http://www.w3.org/2000/svg" xmlns:xlink="http://www.w3.org/1999/xlink" height="47.67mm" version="1.2" viewBox="0 0 67.98 47.67" width="67.98mm">
      
    <desc>Generated by the Chemistry Development Kit (http://github.com/cdk)</desc>
      
    <g fill="#3050F8" stroke="#000000" stroke-linecap="round" stroke-linejoin="round" stroke-width=".7">
            
        <rect fill="#FFFFFF" height="48.0" stroke="none" width="68.0" x=".0" y=".0"/>
            
        <g class="mol" id="mol1">
                  
            <line class="bond" id="mol1bnd1" x1="14.12" x2="14.14" y1=".91" y2="16.15"/>
                  
            <g class="bond" id="mol1bnd2">
                        
                <line x1="27.35" x2="14.14" y1="23.77" y2="16.15"/>
                        
                <line x1="24.91" x2="14.15" y1="25.18" y2="18.97"/>
                      
            </g>
                  
            <line class="bond" id="mol1bnd3" x1="27.35" x2="40.55" y1="23.77" y2="16.15"/>
                  
            <line class="bond" id="mol1bnd4" x1="40.55" x2="53.75" y1="16.15" y2="23.77"/>
                  
            <line class="bond" id="mol1bnd5" x1="53.75" x2="53.75" y1="23.77" y2="35.16"/>
                  
            <line class="bond" id="mol1bnd6" x1="53.75" x2="66.95" y1="23.77" y2="16.14"/>
                  
            <line class="bond" id="mol1bnd7" x1="27.35" x2="27.35" y1="23.77" y2="39.01"/>
                  
            <g class="bond" id="mol1bnd8">
                        
                <line x1="14.14" x2="27.35" y1="46.63" y2="39.01"/>
                        
                <line x1="14.15" x2="24.91" y1="43.81" y2="37.6"/>
                      
            </g>
                  
            <line class="bond" id="mol1bnd9" x1="14.14" x2="1.04" y1="46.63" y2="39.01"/>
                  
            <g class="bond" id="mol1bnd10">
                        
                <line x1="1.04" x2="1.04" y1="23.77" y2="39.01"/>
                        
                <line x1="3.48" x2="3.48" y1="25.17" y2="37.61"/>
                      
            </g>
                  
            <line class="bond" id="mol1bnd11" x1="14.14" x2="1.04" y1="16.15" y2="23.77"/>
                  
            <g class="atom" id="mol1atm6">
                        
                <path d="M55.69 41.46h-.72l-2.62 -4.07h-.03q.01 .24 .03 .6q.02 .36 .02 .73v2.74h-.57v-4.9h.71l2.61 4.05h.03q-.01 -.11 -.02 -.33q-.01 -.22 -.02 -.48q-.01 -.26 -.01 -.48v-2.77h.58v4.9z" stroke="none"/>
                        
                <path d="M60.0 41.46h-.62v-2.29h-2.51v2.29h-.61v-4.9h.61v2.07h2.51v-2.07h.62v4.9z" stroke="none"/>
                        
                <path d="M62.5 42.95h-1.94v-.3l.77 -.78q.22 -.22 .37 -.39q.15 -.18 .23 -.34q.08 -.17 .08 -.36q.0 -.24 -.15 -.37q-.14 -.13 -.37 -.13q-.21 .0 -.38 .08q-.16 .08 -.33 .21l-.19 -.24q.17 -.15 .39 -.25q.23 -.1 .51 -.1q.41 .0 .65 .21q.24 .21 .24 .58q.0 .23 -.1 .43q-.09 .2 -.26 .4q-.17 .2 -.39 .42l-.61 .6v.02h1.49v.33z" stroke="none"/>
                      
            </g>
                
            <line class="hi" id="mol1bnd5" stroke="#3050F8" x1="53.75" x2="53.75" y1="35.16" y2="29.464999999999996"/>
        </g>
          
    </g>
    
</svg>
