<svg xmlns="http://www.w3.org/2000/svg" xmlns:xlink="http://www.w3.org/1999/xlink" height="49.84mm" version="1.2" viewBox="0 0 81.18 49.84" width="81.18mm">
      
    <desc>Generated by the Chemistry Development Kit (http://github.com/cdk)</desc>
      
    <g fill="#3050F8" stroke="#000000" stroke-linecap="round" stroke-linejoin="round" stroke-width=".7">
            
        <rect fill="#FFFFFF" height="50.0" stroke="none" width="82.0" x=".0" y=".0"/>
            
        <g class="mol" id="mol1">
                  
            <line class="bond" id="mol1bnd1" x1="14.12" x2="14.14" y1="3.08" y2="18.32"/>
                  
            <g class="bond" id="mol1bnd2">
                        
                <line x1="14.14" x2="1.04" y1="18.32" y2="25.94"/>
                        
                <line x1="14.15" x2="3.48" y1="21.14" y2="27.35"/>
                      
            </g>
                  
            <line class="bond" id="mol1bnd3" x1="1.04" x2="1.04" y1="25.94" y2="41.18"/>
                  
            <g class="bond" id="mol1bnd4">
                        
                <line x1="1.04" x2="14.14" y1="41.18" y2="48.8"/>
                        
                <line x1="3.48" x2="14.15" y1="39.78" y2="45.99"/>
                      
            </g>
                  
            <line class="bond" id="mol1bnd5" x1="14.14" x2="27.35" y1="48.8" y2="41.18"/>
                  
            <g class="bond" id="mol1bnd6">
                        
                <line x1="27.35" x2="27.35" y1="41.18" y2="25.94"/>
                        
                <line x1="24.91" x2="24.91" y1="39.77" y2="27.35"/>
                      
            </g>
                  
            <line class="bond" id="mol1bnd7" x1="14.14" x2="27.35" y1="18.32" y2="25.94"/>
                  
            <line class="bond" id="mol1bnd8" x1="27.35" x2="40.55" y1="25.94" y2="18.32"/>
                  
            <g class="bond" id="mol1bnd9">
                        
                <line x1="39.33" x2="39.33" y1="19.03" y2="7.0"/>
                        
                <line x1="41.77" x2="41.77" y1="19.02" y2="7.0"/>
                      
                <line class="hi" stroke="#FF0D0D" x1="39.33" x2="39.33" y1="7.0" y2="13.015"/>
                <line class="hi" stroke="#FF0D0D" x1="41.77" x2="41.77" y1="7.0" y2="13.01"/>
            </g>
                  
            <line class="bond" id="mol1bnd10" x1="40.55" x2="53.75" y1="18.32" y2="25.94"/>
                  
            <line class="bond" id="mol1bnd11" x1="53.75" x2="53.75" y1="25.94" y2="41.18"/>
                  
            <line class="bond" id="mol1bnd12" x1="53.75" x2="63.79" y1="25.94" y2="20.14"/>
                  
            <line class="bond" id="mol1bnd13" x1="70.1" x2="80.15" y1="20.14" y2="25.93"/>
                  
            <path class="atom" d="M42.81 3.08q.0 .76 -.26 1.33q-.26 .57 -.76 .88q-.5 .32 -1.24 .32q-.76 .0 -1.26 -.32q-.51 -.32 -.76 -.89q-.24 -.57 -.24 -1.33q.0 -.75 .24 -1.31q.25 -.57 .76 -.88q.51 -.32 1.27 -.32q.73 .0 1.23 .32q.5 .31 .76 .88q.26 .57 .26 1.33zM38.94 3.08q.0 .92 .39 1.46q.39 .53 1.22 .53q.84 .0 1.22 -.53q.39 -.54 .39 -1.46q.0 -.93 -.39 -1.45q-.38 -.52 -1.21 -.52q-.83 .0 -1.23 .52q-.39 .52 -.39 1.45z" fill="#FF0D0D" id="mol1atm9" stroke="none"/>
                  
            <g class="atom" id="mol1atm12">
                        
                <path d="M68.89 20.77h-.72l-2.62 -4.07h-.03q.01 .24 .03 .6q.02 .36 .02 .73v2.74h-.57v-4.9h.71l2.61 4.05h.03q-.01 -.11 -.02 -.33q-.01 -.22 -.02 -.48q-.01 -.26 -.01 -.48v-2.77h.58v4.9z" stroke="none"/>
                        
                <path d="M68.75 15.31h-.62v-2.29h-2.51v2.29h-.61v-4.9h.61v2.07h2.51v-2.07h.62v4.9z" stroke="none"/>
                      
            </g>
                
            <line class="hi" id="mol1bnd12" stroke="#3050F8" x1="63.79" x2="58.769999999999996" y1="20.14" y2="23.04"/>
            <line class="hi" id="mol1bnd12" stroke="#3050F8" x1="63.79" x2="58.769999999999996" y1="20.14" y2="23.04"/>
            <line class="hi" id="mol1bnd13" stroke="#3050F8" x1="70.1" x2="75.125" y1="20.14" y2="23.035"/>
            <line class="hi" id="mol1bnd13" stroke="#3050F8" x1="70.1" x2="75.125" y1="20.14" y2="23.035"/>
        </g>
          
    </g>
    
</svg>
