<svg xmlns="http://www.w3.org/2000/svg" xmlns:xlink="http://www.w3.org/1999/xlink" height="47.68mm" version="1.2" viewBox="0 0 94.48 47.68" width="94.48mm">
      
    <desc>Generated by the Chemistry Development Kit (http://github.com/cdk)</desc>
      
    <g fill="#FF0D0D" stroke="#000000" stroke-linecap="round" stroke-linejoin="round" stroke-width=".7">
            
        <rect fill="#FFFFFF" height="48.0" stroke="none" width="95.0" x=".0" y=".0"/>
            
        <g class="mol" id="mol1">
                  
            <line class="bond" id="mol1bnd1" x1="1.04" x2="14.24" y1="1.04" y2="8.66"/>
                  
            <g class="bond" id="mol1bnd2">
                        
                <line x1="14.24" x2="14.24" y1="8.66" y2="23.9"/>
                        
                <line x1="16.67" x2="16.67" y1="10.07" y2="22.49"/>
                      
            </g>
                  
            <line class="bond" id="mol1bnd3" x1="14.24" x2="27.44" y1="23.9" y2="31.52"/>
                  
            <g class="bond" id="mol1bnd4">
                        
                <line x1="27.44" x2="40.65" y1="31.52" y2="23.9"/>
                        
                <line x1="27.44" x2="38.21" y1="28.71" y2="22.49"/>
                      
            </g>
                  
            <line class="bond" id="mol1bnd5" x1="40.65" x2="40.65" y1="23.9" y2="8.66"/>
                  
            <g class="bond" id="mol1bnd6">
                        
                <line x1="40.65" x2="27.44" y1="8.66" y2="1.04"/>
                        
                <line x1="38.21" x2="27.44" y1="10.07" y2="3.86"/>
                      
            </g>
                  
            <line class="bond" id="mol1bnd7" x1="14.24" x2="27.44" y1="8.66" y2="1.04"/>
                  
            <line class="bond" id="mol1bnd8" x1="40.65" x2="50.7" y1="23.9" y2="29.7"/>
                  
            <line class="bond" id="mol1bnd9" x1="53.85" x2="53.85" y1="35.37" y2="46.76"/>
                  
            <line class="bond" id="mol1bnd10" x1="57.0" x2="67.05" y1="29.7" y2="23.9"/>
                  
            <g class="bond" id="mol1bnd11">
                        
                <line x1="65.83" x2="65.83" y1="24.61" y2="12.59"/>
                        
                <line x1="68.27" x2="68.27" y1="24.61" y2="12.59"/>
                      
                <line class="hi" stroke="#FF0D0D" x1="65.83" x2="65.83" y1="12.59" y2="18.6"/>
                <line class="hi" stroke="#FF0D0D" x1="68.27" x2="68.27" y1="12.59" y2="18.6"/>
            </g>
                  
            <line class="bond" id="mol1bnd12" x1="67.05" x2="80.24" y1="23.9" y2="31.53"/>
                  
            <line class="bond" id="mol1bnd13" x1="80.24" x2="93.44" y1="31.53" y2="23.91"/>
                  
            <line class="bond" id="mol1bnd14" x1="80.24" x2="80.24" y1="31.53" y2="46.77"/>
                  
            <path class="atom" d="M55.79 33.97h-.72l-2.62 -4.07h-.03q.01 .24 .03 .6q.02 .36 .02 .73v2.74h-.57v-4.9h.71l2.61 4.05h.03q-.01 -.11 -.02 -.33q-.01 -.22 -.02 -.48q-.01 -.26 -.01 -.48v-2.77h.58v4.9z" fill="#3050F8" id="mol1atm8" stroke="none"/>
                  
            <path class="atom" d="M69.31 8.66q.0 .76 -.26 1.33q-.26 .57 -.76 .88q-.5 .32 -1.24 .32q-.76 .0 -1.26 -.32q-.51 -.32 -.76 -.89q-.24 -.57 -.24 -1.33q.0 -.75 .24 -1.31q.25 -.57 .76 -.88q.51 -.32 1.27 -.32q.73 .0 1.23 .32q.5 .31 .76 .88q.26 .57 .26 1.33zM65.45 8.66q.0 .92 .39 1.46q.39 .53 1.22 .53q.84 .0 1.22 -.53q.39 -.54 .39 -1.46q.0 -.93 -.39 -1.45q-.38 -.52 -1.21 -.52q-.83 .0 -1.23 .52q-.39 .52 -.39 1.45z" id="mol1atm11" stroke="none"/>
                
            <line class="hi" id="mol1bnd8" stroke="#3050F8" x1="50.7" x2="45.675" y1="29.7" y2="26.799999999999997"/>
            <line class="hi" id="mol1bnd9" stroke="#3050F8" x1="53.85" x2="53.85" y1="35.37" y2="41.065"/>
            <line class="hi" id="mol1bnd10" stroke="#3050F8" x1="57.0" x2="62.025" y1="29.7" y2="26.799999999999997"/>
        </g>
          
    </g>
    
</svg>
