<svg xmlns="http://www.w3.org/2000/svg" xmlns:xlink="http://www.w3.org/1999/xlink" height="78.3mm" version="1.2" viewBox="0 0 139.05 78.3" width="139.05mm">
      
    <desc>Generated by the Chemistry Development Kit (http://github.com/cdk)</desc>
      
    <g fill="#FF0D0D" stroke="#000000" stroke-linecap="round" stroke-linejoin="round" stroke-width=".7">
            
        <rect fill="#FFFFFF" height="79.0" stroke="none" width="140.0" x=".0" y=".0"/>
            
        <g class="mol" id="mol1">
                  
            <line class="bond" id="mol1bnd1" x1="45.61" x2="35.69" y1="77.26" y2="71.53"/>
                  
            <line class="bond" id="mol1bnd2" x1="32.41" x2="32.41" y1="65.72" y2="54.4"/>
                  
            <g class="bond" id="mol1bnd3">
                        
                <line x1="19.21" x2="32.41" y1="46.77" y2="54.4"/>
                        
                <line x1="21.65" x2="32.41" y1="45.36" y2="51.58"/>
                      
            </g>
                  
            <line class="bond" id="mol1bnd4" x1="19.21" x2="19.21" y1="46.77" y2="31.52"/>
                  
            <g class="bond" id="mol1bnd5">
                        
                <line x1="32.4" x2="19.21" y1="23.9" y2="31.52"/>
                        
                <line x1="32.4" x2="21.64" y1="26.72" y2="32.93"/>
                      
            </g>
                  
            <line class="bond" id="mol1bnd6" x1="32.4" x2="45.61" y1="23.9" y2="31.53"/>
                  
            <g class="bond" id="mol1bnd7">
                        
                <line x1="45.61" x2="45.61" y1="46.78" y2="31.53"/>
                        
                <line x1="43.17" x2="43.17" y1="45.37" y2="32.94"/>
                      
            </g>
                  
            <line class="bond" id="mol1bnd8" x1="32.41" x2="45.61" y1="54.4" y2="46.78"/>
                  
            <line class="bond" id="mol1bnd9" x1="45.61" x2="58.81" y1="46.78" y2="54.4"/>
                  
            <line class="bond" id="mol1bnd10" x1="58.81" x2="72.01" y1="54.4" y2="46.77"/>
                  
            <line class="bond" id="mol1bnd11" x1="72.01" x2="82.05" y1="46.77" y2="52.57"/>
                  
            <line class="bond" id="mol1bnd12" x1="88.36" x2="98.4" y1="52.57" y2="46.77"/>
                  
            <line class="bond" id="mol1bnd13" x1="98.4" x2="111.6" y1="46.77" y2="54.39"/>
                  
            <g class="bond" id="mol1bnd14">
                        
                <line x1="111.6" x2="111.61" y1="54.39" y2="69.64"/>
                        
                <line x1="114.04" x2="114.05" y1="55.79" y2="68.23"/>
                      
            </g>
                  
            <line class="bond" id="mol1bnd15" x1="111.61" x2="124.81" y1="69.64" y2="77.26"/>
                  
            <g class="bond" id="mol1bnd16">
                        
                <line x1="124.81" x2="138.01" y1="77.26" y2="69.64"/>
                        
                <line x1="124.81" x2="135.57" y1="74.45" y2="68.24"/>
                      
            </g>
                  
            <line class="bond" id="mol1bnd17" x1="138.01" x2="138.01" y1="69.64" y2="54.4"/>
                  
            <g class="bond" id="mol1bnd18">
                        
                <line x1="138.01" x2="124.8" y1="54.4" y2="46.77"/>
                        
                <line x1="135.57" x2="124.8" y1="55.8" y2="49.58"/>
                      
            </g>
                  
            <line class="bond" id="mol1bnd19" x1="111.6" x2="124.8" y1="54.39" y2="46.77"/>
                  
            <line class="bond" id="mol1bnd20" x1="124.8" x2="124.8" y1="46.77" y2="35.45"/>
                  
            <line class="bond" id="mol1bnd21" x1="32.4" x2="32.41" y1="23.9" y2="12.58"/>
                  
            <line class="bond" id="mol1bnd22" x1="29.12" x2="19.21" y1="6.76" y2="1.04"/>
                  
            <line class="bond" id="mol1bnd23" x1="19.21" x2="7.54" y1="31.52" y2="24.79"/>
                  
            <path class="atom" d="M34.67 69.63q.0 .76 -.26 1.33q-.26 .57 -.76 .88q-.5 .32 -1.24 .32q-.76 .0 -1.26 -.32q-.51 -.32 -.76 -.89q-.24 -.57 -.24 -1.33q.0 -.75 .24 -1.31q.25 -.57 .76 -.88q.51 -.32 1.27 -.32q.73 .0 1.23 .32q.5 .31 .76 .88q.26 .57 .26 1.33zM30.81 69.63q.0 .92 .39 1.46q.39 .53 1.22 .53q.84 .0 1.22 -.53q.39 -.54 .39 -1.46q.0 -.93 -.39 -1.45q-.38 -.52 -1.21 -.52q-.83 .0 -1.23 .52q-.39 .52 -.39 1.45z" id="mol1atm2" stroke="none"/>
                  
            <g class="atom" id="mol1atm11">
                        
                <path d="M87.15 56.84h-.72l-2.62 -4.07h-.03q.01 .24 .03 .6q.02 .36 .02 .73v2.74h-.57v-4.9h.71l2.61 4.05h.03q-.01 -.11 -.02 -.33q-.01 -.22 -.02 -.48q-.01 -.26 -.01 -.48v-2.77h.58v4.9z" fill="#3050F8" stroke="none"/>
                        
                <path d="M87.01 62.3h-.62v-2.29h-2.51v2.29h-.61v-4.9h.61v2.07h2.51v-2.07h.62v4.9z" fill="#3050F8" stroke="none"/>
                      
            </g>
                  
            <g class="atom" id="mol1atm19">
                        
                <path d="M127.06 31.52q.0 .76 -.26 1.33q-.26 .57 -.76 .88q-.5 .32 -1.24 .32q-.76 .0 -1.26 -.32q-.51 -.32 -.76 -.89q-.24 -.57 -.24 -1.33q.0 -.75 .24 -1.31q.25 -.57 .76 -.88q.51 -.32 1.27 -.32q.73 .0 1.23 .32q.5 .31 .76 .88q.26 .57 .26 1.33zM123.2 31.52q.0 .92 .39 1.46q.39 .53 1.22 .53q.84 .0 1.22 -.53q.39 -.54 .39 -1.46q.0 -.93 -.39 -1.45q-.38 -.52 -1.21 -.52q-.83 .0 -1.23 .52q-.39 .52 -.39 1.45z" stroke="none"/>
                        
                <path d="M131.37 33.98h-.62v-2.29h-2.51v2.29h-.61v-4.9h.61v2.07h2.51v-2.07h.62v4.9z" stroke="none"/>
                      
            </g>
                  
            <path class="atom" d="M34.67 8.66q.0 .76 -.26 1.33q-.26 .57 -.76 .88q-.5 .32 -1.24 .32q-.76 .0 -1.26 -.32q-.51 -.32 -.76 -.89q-.24 -.57 -.24 -1.33q.0 -.75 .24 -1.31q.25 -.57 .76 -.88q.51 -.32 1.27 -.32q.73 .0 1.23 .32q.5 .31 .76 .88q.26 .57 .26 1.33zM30.8 8.66q.0 .92 .39 1.46q.39 .53 1.22 .53q.84 .0 1.22 -.53q.39 -.54 .39 -1.46q.0 -.93 -.39 -1.45q-.38 -.52 -1.21 -.52q-.83 .0 -1.23 .52q-.39 .52 -.39 1.45z" id="mol1atm20" stroke="none"/>
                  
            <path class="atom" d="M1.96 20.88q.92 .0 1.39 .27q.47 .27 .47 .94q.0 .43 -.24 .72q-.24 .29 -.69 .36v.04q.31 .05 .56 .18q.25 .13 .39 .38q.15 .24 .15 .62q.0 .67 -.46 1.03q-.46 .36 -1.24 .36h-1.72v-4.9h1.4zM2.08 22.96q.63 .0 .86 -.2q.24 -.2 .24 -.6q.0 -.4 -.29 -.58q-.29 -.18 -.91 -.18h-.81v1.56h.9zM1.17 23.48v1.77h.99q.65 .0 .9 -.25q.26 -.26 .26 -.67q.0 -.38 -.27 -.62q-.26 -.24 -.94 -.24h-.94zM6.65 22.03q.1 .0 .22 .01q.13 .01 .21 .03l-.07 .55q-.09 -.02 -.2 -.03q-.11 -.02 -.2 -.02q-.28 .0 -.53 .15q-.24 .15 -.39 .43q-.15 .27 -.15 .65v1.96h-.6v-3.67h.49l.07 .67h.03q.18 -.3 .46 -.52q.28 -.22 .67 -.22z" fill="#A62929" id="mol1atm22" stroke="none"/>
                
            <line class="hi" id="mol1bnd1" stroke="#FF0D0D" x1="35.69" x2="40.65" y1="71.53" y2="74.39500000000001"/>
            <line class="hi" id="mol1bnd2" stroke="#FF0D0D" x1="32.41" x2="32.41" y1="65.72" y2="60.06"/>
            <line class="hi" id="mol1bnd11" stroke="#3050F8" x1="82.05" x2="77.03" y1="52.57" y2="49.67"/>
            <line class="hi" id="mol1bnd12" stroke="#3050F8" x1="88.36" x2="93.38" y1="52.57" y2="49.67"/>
            <line class="hi" id="mol1bnd20" stroke="#FF0D0D" x1="124.8" x2="124.8" y1="35.45" y2="41.11"/>
            <line class="hi" id="mol1bnd20" stroke="#FF0D0D" x1="124.8" x2="124.8" y1="35.45" y2="41.11"/>
            <line class="hi" id="mol1bnd21" stroke="#FF0D0D" x1="32.41" x2="32.405" y1="12.58" y2="18.24"/>
            <line class="hi" id="mol1bnd22" stroke="#FF0D0D" x1="29.12" x2="24.165" y1="6.76" y2="3.9"/>
            <line class="hi" id="mol1bnd23" stroke="#A62929" x1="7.539999999999999" x2="13.375" y1="24.79" y2="28.155"/>
        </g>
          
    </g>
    
</svg>
