<svg xmlns="http://www.w3.org/2000/svg" xmlns:xlink="http://www.w3.org/1999/xlink" height="78.3mm" version="1.2" viewBox="0 0 138.4 78.3" width="138.4mm">
      
    <desc>Generated by the Chemistry Development Kit (http://github.com/cdk)</desc>
      
    <g fill="#FF0D0D" stroke="#000000" stroke-linecap="round" stroke-linejoin="round" stroke-width=".7">
            
        <rect fill="#FFFFFF" height="79.0" stroke="none" width="139.0" x=".0" y=".0"/>
            
        <g class="mol" id="mol1">
                  
            <line class="bond" id="mol1bnd1" x1="44.96" x2="35.04" y1="77.26" y2="71.53"/>
                  
            <line class="bond" id="mol1bnd2" x1="31.77" x2="31.77" y1="65.72" y2="54.4"/>
                  
            <g class="bond" id="mol1bnd3">
                        
                <line x1="18.57" x2="31.77" y1="46.77" y2="54.4"/>
                        
                <line x1="21.0" x2="31.77" y1="45.36" y2="51.58"/>
                      
            </g>
                  
            <line class="bond" id="mol1bnd4" x1="18.57" x2="18.56" y1="46.77" y2="31.52"/>
                  
            <g class="bond" id="mol1bnd5">
                        
                <line x1="31.76" x2="18.56" y1="23.9" y2="31.52"/>
                        
                <line x1="31.76" x2="21.0" y1="26.72" y2="32.93"/>
                      
            </g>
                  
            <line class="bond" id="mol1bnd6" x1="31.76" x2="44.96" y1="23.9" y2="31.53"/>
                  
            <g class="bond" id="mol1bnd7">
                        
                <line x1="44.97" x2="44.96" y1="46.78" y2="31.53"/>
                        
                <line x1="42.53" x2="42.52" y1="45.37" y2="32.94"/>
                      
            </g>
                  
            <line class="bond" id="mol1bnd8" x1="31.77" x2="44.97" y1="54.4" y2="46.78"/>
                  
            <line class="bond" id="mol1bnd9" x1="44.97" x2="58.17" y1="46.78" y2="54.4"/>
                  
            <line class="bond" id="mol1bnd10" x1="58.17" x2="71.36" y1="54.4" y2="46.77"/>
                  
            <line class="bond" id="mol1bnd11" x1="71.36" x2="81.41" y1="46.77" y2="52.57"/>
                  
            <line class="bond" id="mol1bnd12" x1="87.72" x2="97.76" y1="52.57" y2="46.77"/>
                  
            <line class="bond" id="mol1bnd13" x1="97.76" x2="110.96" y1="46.77" y2="54.39"/>
                  
            <g class="bond" id="mol1bnd14">
                        
                <line x1="110.96" x2="110.96" y1="54.39" y2="69.64"/>
                        
                <line x1="113.4" x2="113.4" y1="55.79" y2="68.23"/>
                      
            </g>
                  
            <line class="bond" id="mol1bnd15" x1="110.96" x2="124.17" y1="69.64" y2="77.26"/>
                  
            <g class="bond" id="mol1bnd16">
                        
                <line x1="124.17" x2="137.37" y1="77.26" y2="69.64"/>
                        
                <line x1="124.17" x2="134.93" y1="74.45" y2="68.24"/>
                      
            </g>
                  
            <line class="bond" id="mol1bnd17" x1="137.37" x2="137.36" y1="69.64" y2="54.4"/>
                  
            <g class="bond" id="mol1bnd18">
                        
                <line x1="137.36" x2="124.16" y1="54.4" y2="46.77"/>
                        
                <line x1="134.92" x2="124.16" y1="55.8" y2="49.58"/>
                      
            </g>
                  
            <line class="bond" id="mol1bnd19" x1="110.96" x2="124.16" y1="54.39" y2="46.77"/>
                  
            <line class="bond" id="mol1bnd20" x1="124.16" x2="124.16" y1="46.77" y2="35.45"/>
                  
            <line class="bond" id="mol1bnd21" x1="31.76" x2="31.76" y1="23.9" y2="12.58"/>
                  
            <line class="bond" id="mol1bnd22" x1="28.48" x2="18.56" y1="6.76" y2="1.04"/>
                  
            <line class="bond" id="mol1bnd23" x1="18.56" x2="6.87" y1="31.52" y2="24.78"/>
                  
            <path class="atom" d="M34.03 69.63q.0 .76 -.26 1.33q-.26 .57 -.76 .88q-.5 .32 -1.24 .32q-.76 .0 -1.26 -.32q-.51 -.32 -.76 -.89q-.24 -.57 -.24 -1.33q.0 -.75 .24 -1.31q.25 -.57 .76 -.88q.51 -.32 1.27 -.32q.73 .0 1.23 .32q.5 .31 .76 .88q.26 .57 .26 1.33zM30.16 69.63q.0 .92 .39 1.46q.39 .53 1.22 .53q.84 .0 1.22 -.53q.39 -.54 .39 -1.46q.0 -.93 -.39 -1.45q-.38 -.52 -1.21 -.52q-.83 .0 -1.23 .52q-.39 .52 -.39 1.45z" id="mol1atm2" stroke="none"/>
                  
            <g class="atom" id="mol1atm11">
                        
                <path d="M86.5 56.84h-.72l-2.62 -4.07h-.03q.01 .24 .03 .6q.02 .36 .02 .73v2.74h-.57v-4.9h.71l2.61 4.05h.03q-.01 -.11 -.02 -.33q-.01 -.22 -.02 -.48q-.01 -.26 -.01 -.48v-2.77h.58v4.9z" fill="#3050F8" stroke="none"/>
                        
                <path d="M86.37 62.3h-.62v-2.29h-2.51v2.29h-.61v-4.9h.61v2.07h2.51v-2.07h.62v4.9z" fill="#3050F8" stroke="none"/>
                      
            </g>
                  
            <g class="atom" id="mol1atm19">
                        
                <path d="M126.42 31.52q.0 .76 -.26 1.33q-.26 .57 -.76 .88q-.5 .32 -1.24 .32q-.76 .0 -1.26 -.32q-.51 -.32 -.76 -.89q-.24 -.57 -.24 -1.33q.0 -.75 .24 -1.31q.25 -.57 .76 -.88q.51 -.32 1.27 -.32q.73 .0 1.23 .32q.5 .31 .76 .88q.26 .57 .26 1.33zM122.56 31.52q.0 .92 .39 1.46q.39 .53 1.22 .53q.84 .0 1.22 -.53q.39 -.54 .39 -1.46q.0 -.93 -.39 -1.45q-.38 -.52 -1.21 -.52q-.83 .0 -1.23 .52q-.39 .52 -.39 1.45z" stroke="none"/>
                        
                <path d="M130.73 33.98h-.62v-2.29h-2.51v2.29h-.61v-4.9h.61v2.07h2.51v-2.07h.62v4.9z" stroke="none"/>
                      
            </g>
                  
            <path class="atom" d="M34.02 8.66q.0 .76 -.26 1.33q-.26 .57 -.76 .88q-.5 .32 -1.24 .32q-.76 .0 -1.26 -.32q-.51 -.32 -.76 -.89q-.24 -.57 -.24 -1.33q.0 -.75 .24 -1.31q.25 -.57 .76 -.88q.51 -.32 1.27 -.32q.73 .0 1.23 .32q.5 .31 .76 .88q.26 .57 .26 1.33zM30.16 8.66q.0 .92 .39 1.46q.39 .53 1.22 .53q.84 .0 1.22 -.53q.39 -.54 .39 -1.46q.0 -.93 -.39 -1.45q-.38 -.52 -1.21 -.52q-.83 .0 -1.23 .52q-.39 .52 -.39 1.45z" id="mol1atm20" stroke="none"/>
                  
            <path class="atom" d="M2.91 22.09q-.79 .0 -1.24 .53q-.45 .52 -.45 1.45q.0 .91 .42 1.45q.42 .53 1.27 .53q.32 .0 .61 -.05q.29 -.06 .57 -.14v.54q-.27 .1 -.57 .15q-.29 .05 -.7 .05q-.74 .0 -1.25 -.31q-.5 -.31 -.75 -.88q-.25 -.57 -.25 -1.34q.0 -.74 .27 -1.31q.27 -.57 .8 -.88q.53 -.32 1.28 -.32q.78 .0 1.35 .29l-.24 .52q-.23 -.1 -.51 -.18q-.27 -.08 -.61 -.08zM5.66 26.51h-.6v-5.21h.6v5.21z" fill="#1FF01F" id="mol1atm22" stroke="none"/>
                
            <line class="hi" id="mol1bnd1" stroke="#FF0D0D" x1="35.04" x2="40.0" y1="71.53" y2="74.39500000000001"/>
            <line class="hi" id="mol1bnd2" stroke="#FF0D0D" x1="31.77" x2="31.77" y1="65.72" y2="60.06"/>
            <line class="hi" id="mol1bnd11" stroke="#3050F8" x1="81.41" x2="76.38499999999999" y1="52.57" y2="49.67"/>
            <line class="hi" id="mol1bnd12" stroke="#3050F8" x1="87.72" x2="92.74000000000001" y1="52.57" y2="49.67"/>
            <line class="hi" id="mol1bnd20" stroke="#FF0D0D" x1="124.16" x2="124.16" y1="35.45" y2="41.11"/>
            <line class="hi" id="mol1bnd20" stroke="#FF0D0D" x1="124.16" x2="124.16" y1="35.45" y2="41.11"/>
            <line class="hi" id="mol1bnd21" stroke="#FF0D0D" x1="31.76" x2="31.76" y1="12.58" y2="18.24"/>
            <line class="hi" id="mol1bnd22" stroke="#FF0D0D" x1="28.48" x2="23.52" y1="6.76" y2="3.9"/>
            <line class="hi" id="mol1bnd23" stroke="#1FF01F" x1="6.870000000000001" x2="12.715" y1="24.78" y2="28.15"/>
        </g>
          
    </g>
    
</svg>
