<svg xmlns="http://www.w3.org/2000/svg" xmlns:xlink="http://www.w3.org/1999/xlink" height="70.56mm" version="1.2" viewBox="0 0 147.29 70.56" width="147.29mm">
      
    <desc>Generated by the Chemistry Development Kit (http://github.com/cdk)</desc>
      
    <g fill="#FF0D0D" stroke="#000000" stroke-linecap="round" stroke-linejoin="round" stroke-width=".7">
            
        <rect fill="#FFFFFF" height="71.0" stroke="none" width="148.0" x=".0" y=".0"/>
            
        <g class="mol" id="mol1">
                  
            <line class="bond" id="mol1bnd1" x1="1.04" x2="14.24" y1="23.77" y2="16.15"/>
                  
            <line class="bond" id="mol1bnd2" x1="14.24" x2="27.43" y1="16.15" y2="23.77"/>
                  
            <g class="bond" id="mol1bnd3">
                        
                <line x1="40.64" x2="27.43" y1="16.15" y2="23.77"/>
                        
                <line x1="40.64" x2="29.87" y1="18.97" y2="25.18"/>
                      
            </g>
                  
            <line class="bond" id="mol1bnd4" x1="40.64" x2="53.85" y1="16.15" y2="23.77"/>
                  
            <g class="bond" id="mol1bnd5">
                        
                <line x1="53.85" x2="53.85" y1="39.01" y2="23.77"/>
                        
                <line x1="51.41" x2="51.41" y1="37.6" y2="25.18"/>
                      
            </g>
                  
            <line class="bond" id="mol1bnd6" x1="53.85" x2="40.64" y1="39.01" y2="46.63"/>
                  
            <g class="bond" id="mol1bnd7">
                        
                <line x1="27.43" x2="40.64" y1="39.01" y2="46.63"/>
                        
                <line x1="29.87" x2="40.64" y1="37.6" y2="43.82"/>
                      
            </g>
                  
            <line class="bond" id="mol1bnd8" x1="27.43" x2="27.43" y1="23.77" y2="39.01"/>
                  
            <line class="bond" id="mol1bnd9" x1="27.43" x2="17.52" y1="39.01" y2="44.74"/>
                  
            <line class="bond" id="mol1bnd10" x1="14.24" x2="14.24" y1="50.56" y2="61.87"/>
                  
            <line class="bond" id="mol1bnd11" x1="53.85" x2="67.05" y1="39.01" y2="46.63"/>
                  
            <line class="bond" id="mol1bnd12" x1="67.05" x2="80.25" y1="46.63" y2="39.02"/>
                  
            <line class="bond" id="mol1bnd13" x1="80.25" x2="90.29" y1="39.02" y2="44.82"/>
                  
            <line class="bond" id="mol1bnd14" x1="96.6" x2="106.64" y1="44.82" y2="39.02"/>
                  
            <line class="bond" id="mol1bnd15" x1="106.64" x2="119.84" y1="39.02" y2="46.64"/>
                  
            <g class="bond" id="mol1bnd16">
                        
                <line x1="119.84" x2="119.84" y1="46.64" y2="61.89"/>
                        
                <line x1="122.28" x2="122.28" y1="48.05" y2="60.48"/>
                      
            </g>
                  
            <line class="bond" id="mol1bnd17" x1="119.84" x2="133.04" y1="61.89" y2="69.52"/>
                  
            <g class="bond" id="mol1bnd18">
                        
                <line x1="133.04" x2="146.24" y1="69.52" y2="61.91"/>
                        
                <line x1="133.04" x2="143.8" y1="66.71" y2="60.5"/>
                      
            </g>
                  
            <line class="bond" id="mol1bnd19" x1="146.24" x2="146.24" y1="61.91" y2="46.66"/>
                  
            <g class="bond" id="mol1bnd20">
                        
                <line x1="146.24" x2="133.04" y1="46.66" y2="39.03"/>
                        
                <line x1="143.8" x2="133.04" y1="48.07" y2="41.84"/>
                      
            </g>
                  
            <line class="bond" id="mol1bnd21" x1="119.84" x2="133.04" y1="46.64" y2="39.03"/>
                  
            <line class="bond" id="mol1bnd22" x1="133.04" x2="133.05" y1="39.03" y2="27.71"/>
                  
            <line class="bond" id="mol1bnd23" x1="136.33" x2="146.25" y1="21.9" y2="16.17"/>
                  
            <line class="bond" id="mol1bnd24" x1="53.85" x2="63.77" y1="23.77" y2="18.04"/>
                  
            <line class="bond" id="mol1bnd25" x1="67.05" x2="67.05" y1="12.23" y2=".91"/>
                  
            <path class="atom" d="M16.5 46.63q.0 .76 -.26 1.33q-.26 .57 -.76 .88q-.5 .32 -1.24 .32q-.76 .0 -1.26 -.32q-.51 -.32 -.76 -.89q-.24 -.57 -.24 -1.33q.0 -.75 .24 -1.31q.25 -.57 .76 -.88q.51 -.32 1.27 -.32q.73 .0 1.23 .32q.5 .31 .76 .88q.26 .57 .26 1.33zM12.63 46.63q.0 .92 .39 1.46q.39 .53 1.22 .53q.84 .0 1.22 -.53q.39 -.54 .39 -1.46q.0 -.93 -.39 -1.45q-.38 -.52 -1.21 -.52q-.83 .0 -1.23 .52q-.39 .52 -.39 1.45z" id="mol1atm9" stroke="none"/>
                  
            <g class="atom" id="mol1atm13">
                        
                <path d="M95.38 49.09h-.72l-2.62 -4.07h-.03q.01 .24 .03 .6q.02 .36 .02 .73v2.74h-.57v-4.9h.71l2.61 4.05h.03q-.01 -.11 -.02 -.33q-.01 -.22 -.02 -.48q-.01 -.26 -.01 -.48v-2.77h.58v4.9z" fill="#3050F8" stroke="none"/>
                        
                <path d="M95.25 54.55h-.62v-2.29h-2.51v2.29h-.61v-4.9h.61v2.07h2.51v-2.07h.62v4.9z" fill="#3050F8" stroke="none"/>
                      
            </g>
                  
            <path class="atom" d="M135.31 23.78q.0 .76 -.26 1.33q-.26 .57 -.76 .88q-.5 .32 -1.24 .32q-.76 .0 -1.26 -.32q-.51 -.32 -.76 -.89q-.24 -.57 -.24 -1.33q.0 -.75 .24 -1.31q.25 -.57 .76 -.88q.51 -.32 1.27 -.32q.73 .0 1.23 .32q.5 .31 .76 .88q.26 .57 .26 1.33zM131.44 23.78q.0 .92 .39 1.46q.39 .53 1.22 .53q.84 .0 1.22 -.53q.39 -.54 .39 -1.46q.0 -.93 -.39 -1.45q-.38 -.52 -1.21 -.52q-.83 .0 -1.23 .52q-.39 .52 -.39 1.45z" id="mol1atm21" stroke="none"/>
                  
            <path class="atom" d="M69.31 16.15q.0 .76 -.26 1.33q-.26 .57 -.76 .88q-.5 .32 -1.24 .32q-.76 .0 -1.26 -.32q-.51 -.32 -.76 -.89q-.24 -.57 -.24 -1.33q.0 -.75 .24 -1.31q.25 -.57 .76 -.88q.51 -.32 1.27 -.32q.73 .0 1.23 .32q.5 .31 .76 .88q.26 .57 .26 1.33zM65.44 16.15q.0 .92 .39 1.46q.39 .53 1.22 .53q.84 .0 1.22 -.53q.39 -.54 .39 -1.46q.0 -.93 -.39 -1.45q-.38 -.52 -1.21 -.52q-.83 .0 -1.23 .52q-.39 .52 -.39 1.45z" id="mol1atm23" stroke="none"/>
                
            <line class="hi" id="mol1bnd9" stroke="#FF0D0D" x1="17.52" x2="22.475" y1="44.74" y2="41.875"/>
            <line class="hi" id="mol1bnd10" stroke="#FF0D0D" x1="14.24" x2="14.24" y1="50.56" y2="56.215"/>
            <line class="hi" id="mol1bnd13" stroke="#3050F8" x1="90.29" x2="85.27000000000001" y1="44.82" y2="41.92"/>
            <line class="hi" id="mol1bnd14" stroke="#3050F8" x1="96.6" x2="101.62" y1="44.82" y2="41.92"/>
            <line class="hi" id="mol1bnd22" stroke="#FF0D0D" x1="133.05" x2="133.04500000000002" y1="27.71" y2="33.370000000000005"/>
            <line class="hi" id="mol1bnd23" stroke="#FF0D0D" x1="136.33" x2="141.29000000000002" y1="21.9" y2="19.035"/>
            <line class="hi" id="mol1bnd24" stroke="#FF0D0D" x1="63.77" x2="58.81" y1="18.04" y2="20.905"/>
            <line class="hi" id="mol1bnd25" stroke="#FF0D0D" x1="67.05" x2="67.05" y1="12.23" y2="6.57"/>
        </g>
          
    </g>
    
</svg>
