<svg xmlns="http://www.w3.org/2000/svg" xmlns:xlink="http://www.w3.org/1999/xlink" height="131.07mm" version="1.2" viewBox="0 0 121.09 131.07" width="121.09mm">
      
    <desc>Generated by the Chemistry Development Kit (http://github.com/cdk)</desc>
      
    <g fill="#FF0D0D" stroke="#000000" stroke-linecap="round" stroke-linejoin="round" stroke-width=".7">
            
        <rect fill="#FFFFFF" height="132.0" stroke="none" width="122.0" x=".0" y=".0"/>
            
        <g class="mol" id="mol1">
                  
            <line class="bond" id="mol1bnd1" x1="15.13" x2="28.15" y1="115.22" y2="107.3"/>
                  
            <g class="bond" id="mol1bnd2">
                        
                <line x1="27.43" x2="28.15" y1="91.87" y2="107.3"/>
                        
                <line x1="29.94" x2="30.52" y1="93.33" y2="105.86"/>
                      
            </g>
                  
            <line class="bond" id="mol1bnd3" x1="27.43" x2="41.1" y1="91.87" y2="84.86"/>
                  
            <g class="bond" id="mol1bnd4">
                        
                <line x1="54.3" x2="41.1" y1="92.48" y2="84.86"/>
                        
                <line x1="51.87" x2="41.03" y1="93.9" y2="87.64"/>
                      
            </g>
                  
            <line class="bond" id="mol1bnd5" x1="54.3" x2="54.45" y1="92.48" y2="107.47"/>
                  
            <g class="bond" id="mol1bnd6">
                        
                <line x1="41.35" x2="54.45" y1="114.92" y2="107.47"/>
                        
                <line x1="41.35" x2="51.99" y1="112.11" y2="106.06"/>
                      
            </g>
                  
            <line class="bond" id="mol1bnd7" x1="28.15" x2="41.35" y1="107.3" y2="114.92"/>
                  
            <line class="bond" id="mol1bnd8" x1="41.35" x2="41.3" y1="114.92" y2="130.16"/>
                  
            <line class="bond" id="mol1bnd9" x1="54.45" x2="64.37" y1="107.47" y2="113.18"/>
                  
            <line class="bond" id="mol1bnd10" x1="70.93" x2="80.84" y1="113.17" y2="107.42"/>
                  
            <line class="bond" id="mol1bnd11" x1="54.3" x2="67.46" y1="92.48" y2="84.8"/>
                  
            <line class="bond" id="mol1bnd12" x1="67.46" x2="67.38" y1="84.8" y2="69.56"/>
                  
            <line class="bond" id="mol1bnd13" x1="67.38" x2="77.4" y1="69.56" y2="63.71"/>
                  
            <line class="bond" id="mol1bnd14" x1="80.53" x2="80.47" y1="58.03" y2="46.64"/>
                  
            <line class="bond" id="mol1bnd15" x1="80.47" x2="93.63" y1="46.64" y2="38.95"/>
                  
            <g class="bond" id="mol1bnd16">
                        
                <line x1="93.63" x2="106.88" y1="38.95" y2="46.51"/>
                        
                <line x1="96.06" x2="106.86" y1="37.53" y2="43.69"/>
                      
            </g>
                  
            <line class="bond" id="mol1bnd17" x1="106.88" x2="120.05" y1="46.51" y2="38.82"/>
                  
            <g class="bond" id="mol1bnd18">
                        
                <line x1="120.05" x2="119.97" y1="38.82" y2="23.58"/>
                        
                <line x1="117.6" x2="117.54" y1="37.43" y2="25.0"/>
                      
            </g>
                  
            <line class="bond" id="mol1bnd19" x1="119.97" x2="106.73" y1="23.58" y2="16.03"/>
                  
            <g class="bond" id="mol1bnd20">
                        
                <line x1="106.73" x2="93.56" y1="16.03" y2="23.71"/>
                        
                <line x1="106.74" x2="96.0" y1="18.84" y2="25.11"/>
                      
            </g>
                  
            <line class="bond" id="mol1bnd21" x1="93.63" x2="93.56" y1="38.95" y2="23.71"/>
                  
            <line class="bond" id="mol1bnd22" x1="93.56" x2="83.61" y1="23.71" y2="18.03"/>
                  
            <line class="bond" id="mol1bnd23" x1="80.31" x2="80.26" y1="12.23" y2=".91"/>
                  
            <line class="bond" id="mol1bnd24" x1="27.43" x2="17.52" y1="91.87" y2="86.13"/>
                  
            <line class="bond" id="mol1bnd25" x1="10.97" x2="1.04" y1="86.12" y2="91.83"/>
                  
            <path class="atom" d="M69.92 115.06q.0 .76 -.26 1.33q-.26 .57 -.76 .88q-.5 .32 -1.24 .32q-.76 .0 -1.26 -.32q-.51 -.32 -.76 -.89q-.24 -.57 -.24 -1.33q.0 -.75 .24 -1.31q.25 -.57 .76 -.88q.51 -.32 1.27 -.32q.73 .0 1.23 .32q.5 .31 .76 .88q.26 .57 .26 1.33zM66.05 115.06q.0 .92 .39 1.46q.39 .53 1.22 .53q.84 .0 1.22 -.53q.39 -.54 .39 -1.46q.0 -.93 -.39 -1.45q-.38 -.52 -1.21 -.52q-.83 .0 -1.23 .52q-.39 .52 -.39 1.45z" id="mol1atm9" stroke="none"/>
                  
            <g class="atom" id="mol1atm13">
                        
                <path d="M82.49 64.32h-.72l-2.62 -4.07h-.03q.01 .24 .03 .6q.02 .36 .02 .73v2.74h-.57v-4.9h.71l2.61 4.05h.03q-.01 -.11 -.02 -.33q-.01 -.22 -.02 -.48q-.01 -.26 -.01 -.48v-2.77h.58v4.9z" fill="#3050F8" stroke="none"/>
                        
                <path d="M86.79 64.32h-.62v-2.29h-2.51v2.29h-.61v-4.9h.61v2.07h2.51v-2.07h.62v4.9z" fill="#3050F8" stroke="none"/>
                      
            </g>
                  
            <path class="atom" d="M82.58 16.15q.0 .76 -.26 1.33q-.26 .57 -.76 .88q-.5 .32 -1.24 .32q-.76 .0 -1.26 -.32q-.51 -.32 -.76 -.89q-.24 -.57 -.24 -1.33q.0 -.75 .24 -1.31q.25 -.57 .76 -.88q.51 -.32 1.27 -.32q.73 .0 1.23 .32q.5 .31 .76 .88q.26 .57 .26 1.33zM78.72 16.15q.0 .92 .39 1.46q.39 .53 1.22 .53q.84 .0 1.22 -.53q.39 -.54 .39 -1.46q.0 -.93 -.39 -1.45q-.38 -.52 -1.21 -.52q-.83 .0 -1.23 .52q-.39 .52 -.39 1.45z" id="mol1atm21" stroke="none"/>
                  
            <path class="atom" d="M16.51 84.23q.0 .76 -.26 1.33q-.26 .57 -.76 .88q-.5 .32 -1.24 .32q-.76 .0 -1.26 -.32q-.51 -.32 -.76 -.89q-.24 -.57 -.24 -1.33q.0 -.75 .24 -1.31q.25 -.57 .76 -.88q.51 -.32 1.27 -.32q.73 .0 1.23 .32q.5 .31 .76 .88q.26 .57 .26 1.33zM12.65 84.23q.0 .92 .39 1.46q.39 .53 1.22 .53q.84 .0 1.22 -.53q.39 -.54 .39 -1.46q.0 -.93 -.39 -1.45q-.38 -.52 -1.21 -.52q-.83 .0 -1.23 .52q-.39 .52 -.39 1.45z" id="mol1atm23" stroke="none"/>
                
            <line class="hi" id="mol1bnd9" stroke="#FF0D0D" x1="64.37" x2="59.410000000000004" y1="113.18" y2="110.325"/>
            <line class="hi" id="mol1bnd10" stroke="#FF0D0D" x1="70.93" x2="75.885" y1="113.17" y2="110.295"/>
            <line class="hi" id="mol1bnd13" stroke="#3050F8" x1="77.4" x2="72.39" y1="63.71" y2="66.635"/>
            <line class="hi" id="mol1bnd14" stroke="#3050F8" x1="80.53" x2="80.5" y1="58.03" y2="52.335"/>
            <line class="hi" id="mol1bnd22" stroke="#FF0D0D" x1="83.61" x2="88.58500000000001" y1="18.03" y2="20.87"/>
            <line class="hi" id="mol1bnd23" stroke="#FF0D0D" x1="80.31" x2="80.285" y1="12.23" y2="6.57"/>
            <line class="hi" id="mol1bnd24" stroke="#FF0D0D" x1="17.52" x2="22.475" y1="86.13" y2="89.0"/>
            <line class="hi" id="mol1bnd25" stroke="#FF0D0D" x1="10.97" x2="6.005000000000001" y1="86.12" y2="88.975"/>
        </g>
          
    </g>
    
</svg>
