<svg xmlns="http://www.w3.org/2000/svg" xmlns:xlink="http://www.w3.org/1999/xlink" height="70.54mm" version="1.2" viewBox="0 0 147.29 70.54" width="147.29mm">
      
    <desc>Generated by the Chemistry Development Kit (http://github.com/cdk)</desc>
      
    <g fill="#FF0D0D" stroke="#000000" stroke-linecap="round" stroke-linejoin="round" stroke-width=".7">
            
        <rect fill="#FFFFFF" height="71.0" stroke="none" width="148.0" x=".0" y=".0"/>
            
        <g class="mol" id="mol1">
                  
            <line class="bond" id="mol1bnd1" x1="146.24" x2="136.32" y1="16.15" y2="21.87"/>
                  
            <line class="bond" id="mol1bnd2" x1="133.04" x2="133.04" y1="27.69" y2="39.01"/>
                  
            <g class="bond" id="mol1bnd3">
                        
                <line x1="146.24" x2="133.04" y1="46.63" y2="39.01"/>
                        
                <line x1="143.81" x2="133.04" y1="48.04" y2="41.82"/>
                      
            </g>
                  
            <line class="bond" id="mol1bnd4" x1="146.24" x2="146.25" y1="46.63" y2="61.88"/>
                  
            <g class="bond" id="mol1bnd5">
                        
                <line x1="133.05" x2="146.25" y1="69.5" y2="61.88"/>
                        
                <line x1="133.05" x2="143.81" y1="66.69" y2="60.48"/>
                      
            </g>
                  
            <line class="bond" id="mol1bnd6" x1="133.05" x2="119.85" y1="69.5" y2="61.87"/>
                  
            <g class="bond" id="mol1bnd7">
                        
                <line x1="119.84" x2="119.85" y1="46.63" y2="61.87"/>
                        
                <line x1="122.28" x2="122.29" y1="48.03" y2="60.47"/>
                      
            </g>
                  
            <line class="bond" id="mol1bnd8" x1="133.04" x2="119.84" y1="39.01" y2="46.63"/>
                  
            <line class="bond" id="mol1bnd9" x1="119.84" x2="106.64" y1="46.63" y2="39.01"/>
                  
            <line class="bond" id="mol1bnd10" x1="106.64" x2="96.6" y1="39.01" y2="44.81"/>
                  
            <line class="bond" id="mol1bnd11" x1="90.29" x2="80.25" y1="44.81" y2="39.01"/>
                  
            <line class="bond" id="mol1bnd12" x1="80.25" x2="67.05" y1="39.01" y2="46.63"/>
                  
            <line class="bond" id="mol1bnd13" x1="67.05" x2="53.85" y1="46.63" y2="39.02"/>
                  
            <g class="bond" id="mol1bnd14">
                        
                <line x1="40.64" x2="53.85" y1="46.64" y2="39.02"/>
                        
                <line x1="40.64" x2="51.41" y1="43.83" y2="37.61"/>
                      
            </g>
                  
            <line class="bond" id="mol1bnd15" x1="40.64" x2="27.43" y1="46.64" y2="39.03"/>
                  
            <g class="bond" id="mol1bnd16">
                        
                <line x1="27.43" x2="27.43" y1="23.79" y2="39.03"/>
                        
                <line x1="29.87" x2="29.87" y1="25.19" y2="37.62"/>
                      
            </g>
                  
            <line class="bond" id="mol1bnd17" x1="27.43" x2="40.64" y1="23.79" y2="16.16"/>
                  
            <g class="bond" id="mol1bnd18">
                        
                <line x1="53.85" x2="40.64" y1="23.78" y2="16.16"/>
                        
                <line x1="51.41" x2="40.64" y1="25.19" y2="18.98"/>
                      
            </g>
                  
            <line class="bond" id="mol1bnd19" x1="53.85" x2="53.85" y1="39.02" y2="23.78"/>
                  
            <line class="bond" id="mol1bnd20" x1="53.85" x2="63.76" y1="23.78" y2="18.05"/>
                  
            <line class="bond" id="mol1bnd21" x1="67.04" x2="67.03" y1="12.23" y2=".91"/>
                  
            <line class="bond" id="mol1bnd22" x1="27.43" x2="16.33" y1="23.79" y2="17.38"/>
                  
            <line class="bond" id="mol1bnd23" x1="27.43" x2="17.52" y1="39.03" y2="44.76"/>
                  
            <line class="bond" id="mol1bnd24" x1="10.96" x2="1.04" y1="44.76" y2="39.04"/>
                  
            <path class="atom" d="M135.3 23.76q.0 .76 -.26 1.33q-.26 .57 -.76 .88q-.5 .32 -1.24 .32q-.76 .0 -1.26 -.32q-.51 -.32 -.76 -.89q-.24 -.57 -.24 -1.33q.0 -.75 .24 -1.31q.25 -.57 .76 -.88q.51 -.32 1.27 -.32q.73 .0 1.23 .32q.5 .31 .76 .88q.26 .57 .26 1.33zM131.44 23.76q.0 .92 .39 1.46q.39 .53 1.22 .53q.84 .0 1.22 -.53q.39 -.54 .39 -1.46q.0 -.93 -.39 -1.45q-.38 -.52 -1.21 -.52q-.83 .0 -1.23 .52q-.39 .52 -.39 1.45z" id="mol1atm2" stroke="none"/>
                  
            <g class="atom" id="mol1atm10">
                        
                <path d="M95.39 49.08h-.72l-2.62 -4.07h-.03q.01 .24 .03 .6q.02 .36 .02 .73v2.74h-.57v-4.9h.71l2.61 4.05h.03q-.01 -.11 -.02 -.33q-.01 -.22 -.02 -.48q-.01 -.26 -.01 -.48v-2.77h.58v4.9z" fill="#3050F8" stroke="none"/>
                        
                <path d="M95.25 54.54h-.62v-2.29h-2.51v2.29h-.61v-4.9h.61v2.07h2.51v-2.07h.62v4.9z" fill="#3050F8" stroke="none"/>
                      
            </g>
                  
            <path class="atom" d="M69.3 16.15q.0 .76 -.26 1.33q-.26 .57 -.76 .88q-.5 .32 -1.24 .32q-.76 .0 -1.26 -.32q-.51 -.32 -.76 -.89q-.24 -.57 -.24 -1.33q.0 -.75 .24 -1.31q.25 -.57 .76 -.88q.51 -.32 1.27 -.32q.73 .0 1.23 .32q.5 .31 .76 .88q.26 .57 .26 1.33zM65.44 16.15q.0 .92 .39 1.46q.39 .53 1.22 .53q.84 .0 1.22 -.53q.39 -.54 .39 -1.46q.0 -.93 -.39 -1.45q-.38 -.52 -1.21 -.52q-.83 .0 -1.23 .52q-.39 .52 -.39 1.45z" id="mol1atm19" stroke="none"/>
                  
            <path class="atom" d="M15.11 18.62h-1.77v-.36l.58 -.13v-3.92l-.58 -.14v-.36h1.77v.36l-.57 .14v3.92l.57 .13v.36z" fill="#940094" id="mol1atm21" stroke="none"/>
                  
            <path class="atom" d="M16.5 46.65q.0 .76 -.26 1.33q-.26 .57 -.76 .88q-.5 .32 -1.24 .32q-.76 .0 -1.26 -.32q-.51 -.32 -.76 -.89q-.24 -.57 -.24 -1.33q.0 -.75 .24 -1.31q.25 -.57 .76 -.88q.51 -.32 1.27 -.32q.73 .0 1.23 .32q.5 .31 .76 .88q.26 .57 .26 1.33zM12.64 46.65q.0 .92 .39 1.46q.39 .53 1.22 .53q.84 .0 1.22 -.53q.39 -.54 .39 -1.46q.0 -.93 -.39 -1.45q-.38 -.52 -1.21 -.52q-.83 .0 -1.23 .52q-.39 .52 -.39 1.45z" id="mol1atm22" stroke="none"/>
                
            <line class="hi" id="mol1bnd1" stroke="#FF0D0D" x1="136.32" x2="141.28" y1="21.87" y2="19.009999999999998"/>
            <line class="hi" id="mol1bnd2" stroke="#FF0D0D" x1="133.04" x2="133.04" y1="27.69" y2="33.35"/>
            <line class="hi" id="mol1bnd10" stroke="#3050F8" x1="96.6" x2="101.62" y1="44.81" y2="41.91"/>
            <line class="hi" id="mol1bnd11" stroke="#3050F8" x1="90.29" x2="85.27000000000001" y1="44.81" y2="41.91"/>
            <line class="hi" id="mol1bnd20" stroke="#FF0D0D" x1="63.76" x2="58.805" y1="18.05" y2="20.915"/>
            <line class="hi" id="mol1bnd21" stroke="#FF0D0D" x1="67.04" x2="67.035" y1="12.23" y2="6.57"/>
            <line class="hi" id="mol1bnd22" stroke="#940094" x1="16.33" x2="21.88" y1="17.38" y2="20.585"/>
            <line class="hi" id="mol1bnd23" stroke="#FF0D0D" x1="17.52" x2="22.475" y1="44.76" y2="41.894999999999996"/>
            <line class="hi" id="mol1bnd24" stroke="#FF0D0D" x1="10.96" x2="6.0" y1="44.76" y2="41.9"/>
        </g>
          
    </g>
    
</svg>
