<svg xmlns="http://www.w3.org/2000/svg" xmlns:xlink="http://www.w3.org/1999/xlink" height="70.56mm" version="1.2" viewBox="0 0 160.49 70.56" width="160.49mm">
      
    <desc>Generated by the Chemistry Development Kit (http://github.com/cdk)</desc>
      
    <g fill="#FF0D0D" stroke="#000000" stroke-linecap="round" stroke-linejoin="round" stroke-width=".7">
            
        <rect fill="#FFFFFF" height="71.0" stroke="none" width="161.0" x=".0" y=".0"/>
            
        <g class="mol" id="mol1">
                  
            <line class="bond" id="mol1bnd1" x1="1.04" x2="14.24" y1="16.15" y2="23.77"/>
                  
            <line class="bond" id="mol1bnd2" x1="14.24" x2="27.43" y1="23.77" y2="16.15"/>
                  
            <line class="bond" id="mol1bnd3" x1="27.43" x2="40.63" y1="16.15" y2="23.77"/>
                  
            <g class="bond" id="mol1bnd4">
                        
                <line x1="53.84" x2="40.63" y1="16.15" y2="23.77"/>
                        
                <line x1="53.84" x2="43.07" y1="18.97" y2="25.18"/>
                      
            </g>
                  
            <line class="bond" id="mol1bnd5" x1="53.84" x2="67.05" y1="16.15" y2="23.77"/>
                  
            <g class="bond" id="mol1bnd6">
                        
                <line x1="67.05" x2="67.05" y1="39.01" y2="23.77"/>
                        
                <line x1="64.61" x2="64.61" y1="37.6" y2="25.18"/>
                      
            </g>
                  
            <line class="bond" id="mol1bnd7" x1="67.05" x2="53.84" y1="39.01" y2="46.63"/>
                  
            <g class="bond" id="mol1bnd8">
                        
                <line x1="40.63" x2="53.84" y1="39.01" y2="46.63"/>
                        
                <line x1="43.07" x2="53.84" y1="37.6" y2="43.82"/>
                      
            </g>
                  
            <line class="bond" id="mol1bnd9" x1="40.63" x2="40.63" y1="23.77" y2="39.01"/>
                  
            <line class="bond" id="mol1bnd10" x1="40.63" x2="30.71" y1="39.01" y2="44.74"/>
                  
            <line class="bond" id="mol1bnd11" x1="27.44" x2="27.44" y1="50.56" y2="61.87"/>
                  
            <line class="bond" id="mol1bnd12" x1="67.05" x2="80.24" y1="39.01" y2="46.63"/>
                  
            <line class="bond" id="mol1bnd13" x1="80.24" x2="93.44" y1="46.63" y2="39.02"/>
                  
            <line class="bond" id="mol1bnd14" x1="93.44" x2="103.49" y1="39.02" y2="44.82"/>
                  
            <line class="bond" id="mol1bnd15" x1="109.79" x2="119.84" y1="44.82" y2="39.02"/>
                  
            <line class="bond" id="mol1bnd16" x1="119.84" x2="133.04" y1="39.02" y2="46.64"/>
                  
            <g class="bond" id="mol1bnd17">
                        
                <line x1="133.04" x2="133.04" y1="46.64" y2="61.89"/>
                        
                <line x1="135.48" x2="135.48" y1="48.05" y2="60.48"/>
                      
            </g>
                  
            <line class="bond" id="mol1bnd18" x1="133.04" x2="146.24" y1="61.89" y2="69.52"/>
                  
            <g class="bond" id="mol1bnd19">
                        
                <line x1="146.24" x2="159.44" y1="69.52" y2="61.91"/>
                        
                <line x1="146.24" x2="157.0" y1="66.71" y2="60.5"/>
                      
            </g>
                  
            <line class="bond" id="mol1bnd20" x1="159.44" x2="159.44" y1="61.91" y2="46.66"/>
                  
            <g class="bond" id="mol1bnd21">
                        
                <line x1="159.44" x2="146.24" y1="46.66" y2="39.03"/>
                        
                <line x1="157.0" x2="146.24" y1="48.07" y2="41.84"/>
                      
            </g>
                  
            <line class="bond" id="mol1bnd22" x1="133.04" x2="146.24" y1="46.64" y2="39.03"/>
                  
            <line class="bond" id="mol1bnd23" x1="146.24" x2="146.24" y1="39.03" y2="27.71"/>
                  
            <line class="bond" id="mol1bnd24" x1="149.52" x2="159.45" y1="21.9" y2="16.17"/>
                  
            <line class="bond" id="mol1bnd25" x1="67.05" x2="76.96" y1="23.77" y2="18.04"/>
                  
            <line class="bond" id="mol1bnd26" x1="80.24" x2="80.24" y1="12.23" y2=".91"/>
                  
            <path class="atom" d="M29.69 46.63q.0 .76 -.26 1.33q-.26 .57 -.76 .88q-.5 .32 -1.24 .32q-.76 .0 -1.26 -.32q-.51 -.32 -.76 -.89q-.24 -.57 -.24 -1.33q.0 -.75 .24 -1.31q.25 -.57 .76 -.88q.51 -.32 1.27 -.32q.73 .0 1.23 .32q.5 .31 .76 .88q.26 .57 .26 1.33zM25.83 46.63q.0 .92 .39 1.46q.39 .53 1.22 .53q.84 .0 1.22 -.53q.39 -.54 .39 -1.46q.0 -.93 -.39 -1.45q-.38 -.52 -1.21 -.52q-.83 .0 -1.23 .52q-.39 .52 -.39 1.45z" id="mol1atm10" stroke="none"/>
                  
            <g class="atom" id="mol1atm14">
                        
                <path d="M108.58 49.09h-.72l-2.62 -4.07h-.03q.01 .24 .03 .6q.02 .36 .02 .73v2.74h-.57v-4.9h.71l2.61 4.05h.03q-.01 -.11 -.02 -.33q-.01 -.22 -.02 -.48q-.01 -.26 -.01 -.48v-2.77h.58v4.9z" fill="#3050F8" stroke="none"/>
                        
                <path d="M108.44 54.55h-.62v-2.29h-2.51v2.29h-.61v-4.9h.61v2.07h2.51v-2.07h.62v4.9z" fill="#3050F8" stroke="none"/>
                      
            </g>
                  
            <path class="atom" d="M148.5 23.78q.0 .76 -.26 1.33q-.26 .57 -.76 .88q-.5 .32 -1.24 .32q-.76 .0 -1.26 -.32q-.51 -.32 -.76 -.89q-.24 -.57 -.24 -1.33q.0 -.75 .24 -1.31q.25 -.57 .76 -.88q.51 -.32 1.27 -.32q.73 .0 1.23 .32q.5 .31 .76 .88q.26 .57 .26 1.33zM144.64 23.78q.0 .92 .39 1.46q.39 .53 1.22 .53q.84 .0 1.22 -.53q.39 -.54 .39 -1.46q.0 -.93 -.39 -1.45q-.38 -.52 -1.21 -.52q-.83 .0 -1.23 .52q-.39 .52 -.39 1.45z" id="mol1atm22" stroke="none"/>
                  
            <path class="atom" d="M82.5 16.15q.0 .76 -.26 1.33q-.26 .57 -.76 .88q-.5 .32 -1.24 .32q-.76 .0 -1.26 -.32q-.51 -.32 -.76 -.89q-.24 -.57 -.24 -1.33q.0 -.75 .24 -1.31q.25 -.57 .76 -.88q.51 -.32 1.27 -.32q.73 .0 1.23 .32q.5 .31 .76 .88q.26 .57 .26 1.33zM78.64 16.15q.0 .92 .39 1.46q.39 .53 1.22 .53q.84 .0 1.22 -.53q.39 -.54 .39 -1.46q.0 -.93 -.39 -1.45q-.38 -.52 -1.21 -.52q-.83 .0 -1.23 .52q-.39 .52 -.39 1.45z" id="mol1atm24" stroke="none"/>
                
            <line class="hi" id="mol1bnd10" stroke="#FF0D0D" x1="30.71" x2="35.67" y1="44.74" y2="41.875"/>
            <line class="hi" id="mol1bnd11" stroke="#FF0D0D" x1="27.44" x2="27.44" y1="50.56" y2="56.215"/>
            <line class="hi" id="mol1bnd14" stroke="#3050F8" x1="103.49" x2="98.465" y1="44.82" y2="41.92"/>
            <line class="hi" id="mol1bnd15" stroke="#3050F8" x1="109.79" x2="114.815" y1="44.82" y2="41.92"/>
            <line class="hi" id="mol1bnd23" stroke="#FF0D0D" x1="146.24" x2="146.24" y1="27.71" y2="33.370000000000005"/>
            <line class="hi" id="mol1bnd24" stroke="#FF0D0D" x1="149.52" x2="154.485" y1="21.9" y2="19.035"/>
            <line class="hi" id="mol1bnd25" stroke="#FF0D0D" x1="76.96" x2="72.005" y1="18.04" y2="20.905"/>
            <line class="hi" id="mol1bnd26" stroke="#FF0D0D" x1="80.24" x2="80.24" y1="12.23" y2="6.57"/>
        </g>
          
    </g>
    
</svg>
