<svg xmlns="http://www.w3.org/2000/svg" xmlns:xlink="http://www.w3.org/1999/xlink" height="58.53mm" version="1.2" viewBox="0 0 94.47 58.53" width="94.47mm">
      
    <desc>Generated by the Chemistry Development Kit (http://github.com/cdk)</desc>
      
    <g fill="#3050F8" stroke="#000000" stroke-linecap="round" stroke-linejoin="round" stroke-width=".7">
            
        <rect fill="#FFFFFF" height="59.0" stroke="none" width="95.0" x=".0" y=".0"/>
            
        <g class="mol" id="mol1">
                  
            <line class="bond" id="mol1bnd1" x1="58.41" x2="63.63" y1="1.01" y2="15.33"/>
                  
            <line class="bond" id="mol1bnd2" x1="63.63" x2="78.64" y1="15.33" y2="17.98"/>
                  
            <line class="bond" id="mol1bnd3" x1="63.63" x2="53.83" y1="15.33" y2="27.0"/>
                  
            <line class="bond" id="mol1bnd4" x1="53.83" x2="40.63" y1="27.0" y2="34.62"/>
                  
            <line class="bond" id="mol1bnd5" x1="40.63" x2="27.43" y1="34.62" y2="27.0"/>
                  
            <line class="bond" id="mol1bnd6" x1="27.43" x2="27.43" y1="27.0" y2="11.76"/>
                  
            <line class="bond" id="mol1bnd7" x1="27.43" x2="17.39" y1="27.0" y2="32.8"/>
                  
            <line class="bond" id="mol1bnd8" x1="11.08" x2="1.04" y1="32.8" y2="27.0"/>
                  
            <line class="bond" id="mol1bnd9" x1="14.24" x2="14.24" y1="38.47" y2="49.86"/>
                  
            <line class="bond" id="mol1bnd10" x1="53.83" x2="44.03" y1="27.0" y2="15.33"/>
                  
            <g class="bond" id="mol1bnd11">
                        
                <line x1="44.03" x2="37.08" y1="15.33" y2="7.04"/>
                        
                <line x1="42.17" x2="35.21" y1="16.9" y2="8.61"/>
                        
                <line x1="45.9" x2="38.95" y1="13.76" y2="5.47"/>
                      
                <line class="hi" stroke="#3050F8" x1="37.08" x2="40.555" y1="7.040000000000001" y2="11.185"/>
                <line class="hi" stroke="#3050F8" x1="35.21" x2="38.69" y1="8.61" y2="12.754999999999999"/>
                <line class="hi" stroke="#3050F8" x1="38.95" x2="42.425" y1="5.470000000000001" y2="9.615"/>
            </g>
                  
            <line class="bond" id="mol1bnd12" x1="53.83" x2="67.03" y1="27.0" y2="34.62"/>
                  
            <g class="bond" id="mol1bnd13">
                        
                <line x1="80.23" x2="67.03" y1="27.0" y2="34.62"/>
                        
                <line x1="80.23" x2="69.47" y1="29.81" y2="36.03"/>
                      
            </g>
                  
            <line class="bond" id="mol1bnd14" x1="80.23" x2="93.43" y1="27.0" y2="34.62"/>
                  
            <g class="bond" id="mol1bnd15">
                        
                <line x1="93.43" x2="93.43" y1="49.86" y2="34.62"/>
                        
                <line x1="90.99" x2="90.99" y1="48.46" y2="36.02"/>
                      
            </g>
                  
            <line class="bond" id="mol1bnd16" x1="93.43" x2="80.22" y1="49.86" y2="57.49"/>
                  
            <g class="bond" id="mol1bnd17">
                        
                <line x1="67.02" x2="80.22" y1="49.87" y2="57.49"/>
                        
                <line x1="69.46" x2="80.22" y1="48.47" y2="54.68"/>
                      
            </g>
                  
            <line class="bond" id="mol1bnd18" x1="67.03" x2="67.02" y1="34.62" y2="49.87"/>
                  
            <path class="atom" d="M16.18 37.07h-.72l-2.62 -4.07h-.03q.01 .24 .03 .6q.02 .36 .02 .73v2.74h-.57v-4.9h.71l2.61 4.05h.03q-.01 -.11 -.02 -.33q-.01 -.22 -.02 -.48q-.01 -.26 -.01 -.48v-2.77h.58v4.9z" id="mol1atm8" stroke="none"/>
                  
            <path class="atom" d="M36.18 6.1h-.72l-2.62 -4.07h-.03q.01 .24 .03 .6q.02 .36 .02 .73v2.74h-.57v-4.9h.71l2.61 4.05h.03q-.01 -.11 -.02 -.33q-.01 -.22 -.02 -.48q-.01 -.26 -.01 -.48v-2.77h.58v4.9z" id="mol1atm12" stroke="none"/>
                
            <line class="hi" id="mol1bnd7" stroke="#3050F8" x1="17.39" x2="22.41" y1="32.8" y2="29.9"/>
            <line class="hi" id="mol1bnd8" stroke="#3050F8" x1="11.08" x2="6.0600000000000005" y1="32.8" y2="29.9"/>
            <line class="hi" id="mol1bnd9" stroke="#3050F8" x1="14.24" x2="14.24" y1="38.47" y2="44.165"/>
        </g>
          
    </g>
    
</svg>
