<svg xmlns="http://www.w3.org/2000/svg" xmlns:xlink="http://www.w3.org/1999/xlink" height="89.84mm" version="1.2" viewBox="0 0 75.45 89.84" width="75.45mm">
      
    <desc>Generated by the Chemistry Development Kit (http://github.com/cdk)</desc>
      
    <g fill="#3050F8" stroke="#000000" stroke-linecap="round" stroke-linejoin="round" stroke-width=".7">
            
        <rect fill="#FFFFFF" height="90.0" stroke="none" width="76.0" x=".0" y=".0"/>
            
        <g class="mol" id="mol1">
                  
            <line class="bond" id="mol1bnd1" x1="9.99" x2="1.05" y1="44.06" y2="56.35"/>
                  
            <line class="bond" id="mol1bnd2" x1="1.05" x2="7.67" y1="56.35" y2="65.45"/>
                  
            <line class="bond" id="mol1bnd3" x1="13.58" x2="24.52" y1="67.49" y2="63.97"/>
                  
            <g class="bond" id="mol1bnd4">
                        
                <line x1="24.52" x2="37.73" y1="63.97" y2="71.59"/>
                        
                <line x1="26.96" x2="37.73" y1="62.56" y2="68.77"/>
                      
            </g>
                  
            <line class="bond" id="mol1bnd5" x1="37.73" x2="50.93" y1="71.59" y2="63.97"/>
                  
            <g class="bond" id="mol1bnd6">
                        
                <line x1="50.93" x2="50.93" y1="63.97" y2="48.73"/>
                        
                <line x1="48.5" x2="48.5" y1="62.56" y2="50.14"/>
                      
            </g>
                  
            <line class="bond" id="mol1bnd7" x1="50.93" x2="37.73" y1="48.73" y2="41.11"/>
                  
            <g class="bond" id="mol1bnd8">
                        
                <line x1="37.73" x2="24.52" y1="41.11" y2="48.73"/>
                        
                <line x1="37.73" x2="26.96" y1="43.92" y2="50.14"/>
                      
            </g>
                  
            <line class="bond" id="mol1bnd9" x1="24.52" x2="24.52" y1="63.97" y2="48.73"/>
                  
            <line class="bond" id="mol1bnd10" x1="9.99" x2="24.52" y1="44.06" y2="48.73"/>
                  
            <line class="bond" id="mol1bnd11" x1="37.73" x2="37.73" y1="41.11" y2="25.87"/>
                  
            <line class="bond" id="mol1bnd12" x1="37.73" x2="24.53" y1="25.87" y2="18.25"/>
                  
            <line class="bond" id="mol1bnd13" x1="24.53" x2="24.53" y1="18.25" y2="7.19"/>
                  
            <line class="bond" id="mol1bnd14" x1="50.93" x2="61.87" y1="48.73" y2="45.21"/>
                  
            <line class="bond" id="mol1bnd15" x1="67.78" x2="74.4" y1="47.24" y2="56.35"/>
                  
            <line class="bond" id="mol1bnd16" x1="74.4" x2="65.46" y1="56.35" y2="68.64"/>
                  
            <line class="bond" id="mol1bnd17" x1="50.93" x2="65.46" y1="63.97" y2="68.64"/>
                  
            <line class="bond" id="mol1bnd18" x1="37.73" x2="37.73" y1="71.59" y2="82.98"/>
                  
            <path class="atom" d="M12.25 68.64q.0 .76 -.26 1.33q-.26 .57 -.76 .88q-.5 .32 -1.24 .32q-.76 .0 -1.26 -.32q-.51 -.32 -.76 -.89q-.24 -.57 -.24 -1.33q.0 -.75 .24 -1.31q.25 -.57 .76 -.88q.51 -.32 1.27 -.32q.73 .0 1.23 .32q.5 .31 .76 .88q.26 .57 .26 1.33zM8.39 68.64q.0 .92 .39 1.46q.39 .53 1.22 .53q.84 .0 1.22 -.53q.39 -.54 .39 -1.46q.0 -.93 -.39 -1.45q-.38 -.52 -1.21 -.52q-.83 .0 -1.23 .52q-.39 .52 -.39 1.45z" fill="#FF0D0D" id="mol1atm3" stroke="none"/>
                  
            <g class="atom" id="mol1atm12">
                        
                <path d="M26.47 5.46h-.72l-2.62 -4.07h-.03q.01 .24 .03 .6q.02 .36 .02 .73v2.74h-.57v-4.9h.71l2.61 4.05h.03q-.01 -.11 -.02 -.33q-.01 -.22 -.02 -.48q-.01 -.26 -.01 -.48v-2.77h.58v4.9z" stroke="none"/>
                        
                <path d="M30.78 5.46h-.62v-2.29h-2.51v2.29h-.61v-4.9h.61v2.07h2.51v-2.07h.62v4.9z" stroke="none"/>
                        
                <path d="M33.28 6.95h-1.94v-.3l.77 -.78q.22 -.22 .37 -.39q.15 -.18 .23 -.34q.08 -.17 .08 -.36q.0 -.24 -.15 -.37q-.14 -.13 -.37 -.13q-.21 .0 -.38 .08q-.16 .08 -.33 .21l-.19 -.24q.17 -.15 .39 -.25q.23 -.1 .51 -.1q.41 .0 .65 .21q.24 .21 .24 .58q.0 .23 -.1 .43q-.09 .2 -.26 .4q-.17 .2 -.39 .42l-.61 .6v.02h1.49v.33z" stroke="none"/>
                      
            </g>
                  
            <path class="atom" d="M67.72 44.05q.0 .76 -.26 1.33q-.26 .57 -.76 .88q-.5 .32 -1.24 .32q-.76 .0 -1.26 -.32q-.51 -.32 -.76 -.89q-.24 -.57 -.24 -1.33q.0 -.75 .24 -1.31q.25 -.57 .76 -.88q.51 -.32 1.27 -.32q.73 .0 1.23 .32q.5 .31 .76 .88q.26 .57 .26 1.33zM63.86 44.05q.0 .92 .39 1.46q.39 .53 1.22 .53q.84 .0 1.22 -.53q.39 -.54 .39 -1.46q.0 -.93 -.39 -1.45q-.38 -.52 -1.21 -.52q-.83 .0 -1.23 .52q-.39 .52 -.39 1.45z" fill="#FF0D0D" id="mol1atm13" stroke="none"/>
                  
            <path class="atom" d="M37.41 84.38q.92 .0 1.39 .27q.47 .27 .47 .94q.0 .43 -.24 .72q-.24 .29 -.69 .36v.04q.31 .05 .56 .18q.25 .13 .39 .38q.15 .24 .15 .62q.0 .67 -.46 1.03q-.46 .36 -1.24 .36h-1.72v-4.9h1.4zM37.53 86.47q.63 .0 .86 -.2q.24 -.2 .24 -.6q.0 -.4 -.29 -.58q-.29 -.18 -.91 -.18h-.81v1.56h.9zM36.63 86.98v1.77h.99q.65 .0 .9 -.25q.26 -.26 .26 -.67q.0 -.38 -.27 -.62q-.26 -.24 -.94 -.24h-.94zM42.1 85.53q.1 .0 .22 .01q.13 .01 .21 .03l-.07 .55q-.09 -.02 -.2 -.03q-.11 -.02 -.2 -.02q-.28 .0 -.53 .15q-.24 .15 -.39 .43q-.15 .27 -.15 .65v1.96h-.6v-3.67h.49l.07 .67h.03q.18 -.3 .46 -.52q.28 -.22 .67 -.22z" fill="#A62929" id="mol1atm16" stroke="none"/>
                
            <line class="hi" id="mol1bnd2" stroke="#FF0D0D" x1="7.67" x2="4.36" y1="65.45" y2="60.900000000000006"/>
            <line class="hi" id="mol1bnd3" stroke="#FF0D0D" x1="13.58" x2="19.05" y1="67.49" y2="65.72999999999999"/>
            <line class="hi" id="mol1bnd13" stroke="#3050F8" x1="24.53" x2="24.53" y1="7.190000000000001" y2="12.72"/>
            <line class="hi" id="mol1bnd13" stroke="#3050F8" x1="24.53" x2="24.53" y1="7.190000000000001" y2="12.72"/>
            <line class="hi" id="mol1bnd14" stroke="#FF0D0D" x1="61.87" x2="56.4" y1="45.21" y2="46.97"/>
            <line class="hi" id="mol1bnd15" stroke="#FF0D0D" x1="67.78" x2="71.09" y1="47.24" y2="51.795"/>
            <line class="hi" id="mol1bnd18" stroke="#A62929" x1="37.73" x2="37.73" y1="82.98" y2="77.285"/>
        </g>
          
    </g>
    
</svg>
