<svg xmlns="http://www.w3.org/2000/svg" xmlns:xlink="http://www.w3.org/1999/xlink" height="61.17mm" version="1.2" viewBox="0 0 89.55 61.17" width="89.55mm">
      
    <desc>Generated by the Chemistry Development Kit (http://github.com/cdk)</desc>
      
    <g fill="#3050F8" stroke="#000000" stroke-linecap="round" stroke-linejoin="round" stroke-width=".7">
            
        <rect fill="#FFFFFF" height="62.0" stroke="none" width="90.0" x=".0" y=".0"/>
            
        <g class="mol" id="mol1">
                  
            <line class="bond" id="mol1bnd1" x1="9.31" x2="19.23" y1="10.95" y2="5.22"/>
                  
            <line class="bond" id="mol1bnd2" x1="25.78" x2="35.7" y1="5.22" y2="10.95"/>
                  
            <g class="bond" id="mol1bnd3">
                        
                <line x1="48.91" x2="35.7" y1="3.33" y2="10.95"/>
                        
                <line x1="48.91" x2="38.14" y1="6.15" y2="12.36"/>
                      
            </g>
                  
            <line class="bond" id="mol1bnd4" x1="48.91" x2="62.12" y1="3.33" y2="10.95"/>
                  
            <g class="bond" id="mol1bnd5">
                        
                <line x1="62.12" x2="62.12" y1="26.19" y2="10.95"/>
                        
                <line x1="59.68" x2="59.68" y1="24.78" y2="12.36"/>
                      
            </g>
                  
            <line class="bond" id="mol1bnd6" x1="62.12" x2="48.91" y1="26.19" y2="33.81"/>
                  
            <g class="bond" id="mol1bnd7">
                        
                <line x1="35.7" x2="48.91" y1="26.19" y2="33.81"/>
                        
                <line x1="38.14" x2="48.91" y1="24.78" y2="31.0"/>
                      
            </g>
                  
            <line class="bond" id="mol1bnd8" x1="35.7" x2="35.7" y1="10.95" y2="26.19"/>
                  
            <line class="bond" id="mol1bnd9" x1="35.7" x2="22.51" y1="26.19" y2="33.81"/>
                  
            <line class="bond" id="mol1bnd10" x1="22.51" x2="22.51" y1="33.81" y2="49.05"/>
                  
            <line class="bond" id="mol1bnd11" x1="22.51" x2="12.46" y1="49.05" y2="54.85"/>
                  
            <line class="bond" id="mol1bnd12" x1="62.12" x2="72.03" y1="26.19" y2="31.92"/>
                  
            <line class="bond" id="mol1bnd13" x1="78.59" x2="88.52" y1="31.92" y2="26.19"/>
                  
            <line class="bond" id="mol1bnd14" x1="62.12" x2="72.36" y1="10.95" y2="5.04"/>
                  
            <path class="atom" d="M24.77 3.33q.0 .76 -.26 1.33q-.26 .57 -.76 .88q-.5 .32 -1.24 .32q-.76 .0 -1.26 -.32q-.51 -.32 -.76 -.89q-.24 -.57 -.24 -1.33q.0 -.75 .24 -1.31q.25 -.57 .76 -.88q.51 -.32 1.27 -.32q.73 .0 1.23 .32q.5 .31 .76 .88q.26 .57 .26 1.33zM20.9 3.33q.0 .92 .39 1.46q.39 .53 1.22 .53q.84 .0 1.22 -.53q.39 -.54 .39 -1.46q.0 -.93 -.39 -1.45q-.38 -.52 -1.21 -.52q-.83 .0 -1.23 .52q-.39 .52 -.39 1.45z" fill="#FF0D0D" id="mol1atm2" stroke="none"/>
                  
            <g class="atom" id="mol1atm11">
                        
                <path d="M11.25 59.12h-.72l-2.62 -4.07h-.03q.01 .24 .03 .6q.02 .36 .02 .73v2.74h-.57v-4.9h.71l2.61 4.05h.03q-.01 -.11 -.02 -.33q-.01 -.22 -.02 -.48q-.01 -.26 -.01 -.48v-2.77h.58v4.9z" stroke="none"/>
                        
                <path d="M4.3 59.12h-.62v-2.29h-2.51v2.29h-.61v-4.9h.61v2.07h2.51v-2.07h.62v4.9z" stroke="none"/>
                        
                <path d="M6.81 60.61h-1.94v-.3l.77 -.78q.22 -.22 .37 -.39q.15 -.18 .23 -.34q.08 -.17 .08 -.36q.0 -.24 -.15 -.37q-.14 -.13 -.37 -.13q-.21 .0 -.38 .08q-.16 .08 -.33 .21l-.19 -.24q.17 -.15 .39 -.25q.23 -.1 .51 -.1q.41 .0 .65 .21q.24 .21 .24 .58q.0 .23 -.1 .43q-.09 .2 -.26 .4q-.17 .2 -.39 .42l-.61 .6v.02h1.49v.33z" stroke="none"/>
                      
            </g>
                  
            <path class="atom" d="M77.58 33.81q.0 .76 -.26 1.33q-.26 .57 -.76 .88q-.5 .32 -1.24 .32q-.76 .0 -1.26 -.32q-.51 -.32 -.76 -.89q-.24 -.57 -.24 -1.33q.0 -.75 .24 -1.31q.25 -.57 .76 -.88q.51 -.32 1.27 -.32q.73 .0 1.23 .32q.5 .31 .76 .88q.26 .57 .26 1.33zM73.71 33.81q.0 .92 .39 1.46q.39 .53 1.22 .53q.84 .0 1.22 -.53q.39 -.54 .39 -1.46q.0 -.93 -.39 -1.45q-.38 -.52 -1.21 -.52q-.83 .0 -1.23 .52q-.39 .52 -.39 1.45z" fill="#FF0D0D" id="mol1atm12" stroke="none"/>
                  
            <path class="atom" d="M75.81 1.35q-.79 .0 -1.24 .53q-.45 .52 -.45 1.45q.0 .91 .42 1.45q.42 .53 1.27 .53q.32 .0 .61 -.05q.29 -.06 .57 -.14v.54q-.27 .1 -.57 .15q-.29 .05 -.7 .05q-.74 .0 -1.25 -.31q-.5 -.31 -.75 -.88q-.25 -.57 -.25 -1.34q.0 -.74 .27 -1.31q.27 -.57 .8 -.88q.53 -.32 1.28 -.32q.78 .0 1.35 .29l-.24 .52q-.23 -.1 -.51 -.18q-.27 -.08 -.61 -.08zM78.57 5.77h-.6v-5.21h.6v5.21z" fill="#1FF01F" id="mol1atm14" stroke="none"/>
                
            <line class="hi" id="mol1bnd1" stroke="#FF0D0D" x1="19.23" x2="14.27" y1="5.22" y2="8.084999999999999"/>
            <line class="hi" id="mol1bnd2" stroke="#FF0D0D" x1="25.78" x2="30.740000000000002" y1="5.22" y2="8.084999999999999"/>
            <line class="hi" id="mol1bnd11" stroke="#3050F8" x1="12.46" x2="17.485" y1="54.85" y2="51.95"/>
            <line class="hi" id="mol1bnd12" stroke="#FF0D0D" x1="72.03" x2="67.075" y1="31.92" y2="29.055"/>
            <line class="hi" id="mol1bnd13" stroke="#FF0D0D" x1="78.59" x2="83.555" y1="31.92" y2="29.055"/>
            <line class="hi" id="mol1bnd14" stroke="#1FF01F" x1="72.36" x2="67.24" y1="5.04" y2="7.994999999999999"/>
        </g>
          
    </g>
    
</svg>
