<svg xmlns="http://www.w3.org/2000/svg" xmlns:xlink="http://www.w3.org/1999/xlink" height="72.21mm" version="1.2" viewBox="0 0 89.86 72.21" width="89.86mm">
      
    <desc>Generated by the Chemistry Development Kit (http://github.com/cdk)</desc>
      
    <g fill="#3050F8" stroke="#000000" stroke-linecap="round" stroke-linejoin="round" stroke-width=".7">
            
        <rect fill="#FFFFFF" height="73.0" stroke="none" width="90.0" x=".0" y=".0"/>
            
        <g class="mol" id="mol1">
                  
            <line class="bond" id="mol1bnd1" x1="15.13" x2="28.15" y1="56.36" y2="48.44"/>
                  
            <g class="bond" id="mol1bnd2">
                        
                <line x1="27.43" x2="28.15" y1="33.01" y2="48.44"/>
                        
                <line x1="29.94" x2="30.52" y1="34.46" y2="46.99"/>
                      
            </g>
                  
            <line class="bond" id="mol1bnd3" x1="27.43" x2="41.1" y1="33.01" y2="26.0"/>
                  
            <g class="bond" id="mol1bnd4">
                        
                <line x1="54.3" x2="41.1" y1="33.62" y2="26.0"/>
                        
                <line x1="51.87" x2="41.03" y1="35.04" y2="28.78"/>
                      
            </g>
                  
            <line class="bond" id="mol1bnd5" x1="54.3" x2="54.45" y1="33.62" y2="48.6"/>
                  
            <g class="bond" id="mol1bnd6">
                        
                <line x1="41.35" x2="54.45" y1="56.06" y2="48.6"/>
                        
                <line x1="41.35" x2="51.99" y1="53.25" y2="47.19"/>
                      
            </g>
                  
            <line class="bond" id="mol1bnd7" x1="28.15" x2="41.35" y1="48.44" y2="56.06"/>
                  
            <line class="bond" id="mol1bnd8" x1="41.35" x2="41.3" y1="56.06" y2="71.3"/>
                  
            <line class="bond" id="mol1bnd9" x1="54.45" x2="64.37" y1="48.6" y2="54.31"/>
                  
            <line class="bond" id="mol1bnd10" x1="70.93" x2="80.84" y1="54.3" y2="48.56"/>
                  
            <line class="bond" id="mol1bnd11" x1="54.3" x2="67.46" y1="33.62" y2="25.93"/>
                  
            <line class="bond" id="mol1bnd12" x1="67.46" x2="67.38" y1="25.93" y2="10.69"/>
                  
            <line class="bond" id="mol1bnd13" x1="67.38" x2="77.4" y1="10.69" y2="4.85"/>
                  
            <line class="bond" id="mol1bnd14" x1="27.43" x2="17.52" y1="33.01" y2="27.26"/>
                  
            <line class="bond" id="mol1bnd15" x1="10.97" x2="1.04" y1="27.25" y2="32.96"/>
                  
            <path class="atom" d="M69.92 56.2q.0 .76 -.26 1.33q-.26 .57 -.76 .88q-.5 .32 -1.24 .32q-.76 .0 -1.26 -.32q-.51 -.32 -.76 -.89q-.24 -.57 -.24 -1.33q.0 -.75 .24 -1.31q.25 -.57 .76 -.88q.51 -.32 1.27 -.32q.73 .0 1.23 .32q.5 .31 .76 .88q.26 .57 .26 1.33zM66.05 56.2q.0 .92 .39 1.46q.39 .53 1.22 .53q.84 .0 1.22 -.53q.39 -.54 .39 -1.46q.0 -.93 -.39 -1.45q-.38 -.52 -1.21 -.52q-.83 .0 -1.23 .52q-.39 .52 -.39 1.45z" fill="#FF0D0D" id="mol1atm9" stroke="none"/>
                  
            <g class="atom" id="mol1atm13">
                        
                <path d="M82.49 5.46h-.72l-2.62 -4.07h-.03q.01 .24 .03 .6q.02 .36 .02 .73v2.74h-.57v-4.9h.71l2.61 4.05h.03q-.01 -.11 -.02 -.33q-.01 -.22 -.02 -.48q-.01 -.26 -.01 -.48v-2.77h.58v4.9z" stroke="none"/>
                        
                <path d="M86.79 5.46h-.62v-2.29h-2.51v2.29h-.61v-4.9h.61v2.07h2.51v-2.07h.62v4.9z" stroke="none"/>
                        
                <path d="M89.3 6.95h-1.94v-.3l.77 -.78q.22 -.22 .37 -.39q.15 -.18 .23 -.34q.08 -.17 .08 -.36q.0 -.24 -.15 -.37q-.14 -.13 -.37 -.13q-.21 .0 -.38 .08q-.16 .08 -.33 .21l-.19 -.24q.17 -.15 .39 -.25q.23 -.1 .51 -.1q.41 .0 .65 .21q.24 .21 .24 .58q.0 .23 -.1 .43q-.09 .2 -.26 .4q-.17 .2 -.39 .42l-.61 .6v.02h1.49v.33z" stroke="none"/>
                      
            </g>
                  
            <path class="atom" d="M16.51 25.36q.0 .76 -.26 1.33q-.26 .57 -.76 .88q-.5 .32 -1.24 .32q-.76 .0 -1.26 -.32q-.51 -.32 -.76 -.89q-.24 -.57 -.24 -1.33q.0 -.75 .24 -1.31q.25 -.57 .76 -.88q.51 -.32 1.27 -.32q.73 .0 1.23 .32q.5 .31 .76 .88q.26 .57 .26 1.33zM12.65 25.36q.0 .92 .39 1.46q.39 .53 1.22 .53q.84 .0 1.22 -.53q.39 -.54 .39 -1.46q.0 -.93 -.39 -1.45q-.38 -.52 -1.21 -.52q-.83 .0 -1.23 .52q-.39 .52 -.39 1.45z" fill="#FF0D0D" id="mol1atm14" stroke="none"/>
                
            <line class="hi" id="mol1bnd9" stroke="#FF0D0D" x1="64.37" x2="59.410000000000004" y1="54.31" y2="51.455"/>
            <line class="hi" id="mol1bnd10" stroke="#FF0D0D" x1="70.93" x2="75.885" y1="54.3" y2="51.43"/>
            <line class="hi" id="mol1bnd13" stroke="#3050F8" x1="77.4" x2="72.39" y1="4.85" y2="7.77"/>
            <line class="hi" id="mol1bnd14" stroke="#FF0D0D" x1="17.52" x2="22.475" y1="27.26" y2="30.134999999999998"/>
            <line class="hi" id="mol1bnd15" stroke="#FF0D0D" x1="10.97" x2="6.005000000000001" y1="27.25" y2="30.105"/>
        </g>
          
    </g>
    
</svg>
