<svg xmlns="http://www.w3.org/2000/svg" xmlns:xlink="http://www.w3.org/1999/xlink" height="78.28mm" version="1.2" viewBox="0 0 115.95 78.28" width="115.95mm">
      
    <desc>Generated by the Chemistry Development Kit (http://github.com/cdk)</desc>
      
    <g fill="#3050F8" stroke="#000000" stroke-linecap="round" stroke-linejoin="round" stroke-width=".7">
            
        <rect fill="#FFFFFF" height="79.0" stroke="none" width="116.0" x=".0" y=".0"/>
            
        <g class="mol" id="mol1">
                  
            <line class="bond" id="mol1bnd1" x1="1.04" x2="14.24" y1="23.89" y2="31.51"/>
                  
            <line class="bond" id="mol1bnd2" x1="14.24" x2="24.69" y1="31.51" y2="25.48"/>
                  
            <line class="bond" id="mol1bnd3" x1="30.19" x2="40.63" y1="25.49" y2="31.52"/>
                  
            <g class="bond" id="mol1bnd4">
                        
                <line x1="53.84" x2="40.63" y1="23.9" y2="31.52"/>
                        
                <line x1="53.84" x2="43.07" y1="26.71" y2="32.93"/>
                      
            </g>
                  
            <line class="bond" id="mol1bnd5" x1="53.84" x2="67.05" y1="23.9" y2="31.52"/>
                  
            <g class="bond" id="mol1bnd6">
                        
                <line x1="67.05" x2="67.05" y1="46.76" y2="31.52"/>
                        
                <line x1="64.61" x2="64.61" y1="45.35" y2="32.93"/>
                      
            </g>
                  
            <line class="bond" id="mol1bnd7" x1="67.05" x2="53.84" y1="46.76" y2="54.38"/>
                  
            <g class="bond" id="mol1bnd8">
                        
                <line x1="40.63" x2="53.84" y1="46.76" y2="54.38"/>
                        
                <line x1="43.07" x2="53.84" y1="45.35" y2="51.56"/>
                      
            </g>
                  
            <line class="bond" id="mol1bnd9" x1="40.63" x2="40.63" y1="31.52" y2="46.76"/>
                  
            <line class="bond" id="mol1bnd10" x1="53.84" x2="53.84" y1="54.38" y2="65.7"/>
                  
            <line class="bond" id="mol1bnd11" x1="57.12" x2="67.04" y1="71.51" y2="77.24"/>
                  
            <line class="bond" id="mol1bnd12" x1="67.05" x2="80.24" y1="46.76" y2="54.38"/>
                  
            <line class="bond" id="mol1bnd13" x1="80.24" x2="93.44" y1="54.38" y2="46.76"/>
                  
            <line class="bond" id="mol1bnd14" x1="93.44" x2="103.49" y1="46.76" y2="52.56"/>
                  
            <line class="bond" id="mol1bnd15" x1="53.84" x2="53.84" y1="23.9" y2="12.58"/>
                  
            <line class="bond" id="mol1bnd16" x1="50.56" x2="40.64" y1="6.76" y2="1.04"/>
                  
            <path class="atom" d="M28.98 25.03q.0 .65 -.48 1.02q-.47 .36 -1.27 .36q-.42 .0 -.77 -.07q-.35 -.06 -.58 -.17v-.59q.24 .11 .61 .2q.37 .09 .76 .09q.55 .0 .83 -.21q.28 -.21 .28 -.58q.0 -.24 -.11 -.4q-.1 -.17 -.35 -.31q-.25 -.14 -.7 -.3q-.63 -.23 -.95 -.55q-.32 -.33 -.32 -.9q.0 -.39 .2 -.67q.2 -.28 .55 -.43q.36 -.15 .82 -.15q.4 .0 .74 .08q.34 .07 .61 .2l-.2 .53q-.25 -.11 -.55 -.18q-.3 -.08 -.63 -.08q-.46 .0 -.69 .2q-.23 .2 -.23 .52q.0 .24 .1 .41q.11 .17 .34 .3q.23 .13 .63 .28q.43 .15 .73 .34q.3 .18 .45 .43q.15 .25 .15 .64z" fill="#C6C62C" id="mol1atm3" stroke="none"/>
                  
            <path class="atom" d="M56.1 69.62q.0 .76 -.26 1.33q-.26 .57 -.76 .88q-.5 .32 -1.24 .32q-.76 .0 -1.26 -.32q-.51 -.32 -.76 -.89q-.24 -.57 -.24 -1.33q.0 -.75 .24 -1.31q.25 -.57 .76 -.88q.51 -.32 1.27 -.32q.73 .0 1.23 .32q.5 .31 .76 .88q.26 .57 .26 1.33zM52.24 69.62q.0 .92 .39 1.46q.39 .53 1.22 .53q.84 .0 1.22 -.53q.39 -.54 .39 -1.46q.0 -.93 -.39 -1.45q-.38 -.52 -1.21 -.52q-.83 .0 -1.23 .52q-.39 .52 -.39 1.45z" fill="#FF0D0D" id="mol1atm10" stroke="none"/>
                  
            <g class="atom" id="mol1atm14">
                        
                <path d="M108.58 56.83h-.72l-2.62 -4.07h-.03q.01 .24 .03 .6q.02 .36 .02 .73v2.74h-.57v-4.9h.71l2.61 4.05h.03q-.01 -.11 -.02 -.33q-.01 -.22 -.02 -.48q-.01 -.26 -.01 -.48v-2.77h.58v4.9z" stroke="none"/>
                        
                <path d="M112.89 56.83h-.62v-2.29h-2.51v2.29h-.61v-4.9h.61v2.07h2.51v-2.07h.62v4.9z" stroke="none"/>
                        
                <path d="M115.39 58.32h-1.94v-.3l.77 -.78q.22 -.22 .37 -.39q.15 -.18 .23 -.34q.08 -.17 .08 -.36q.0 -.24 -.15 -.37q-.14 -.13 -.37 -.13q-.21 .0 -.38 .08q-.16 .08 -.33 .21l-.19 -.24q.17 -.15 .39 -.25q.23 -.1 .51 -.1q.41 .0 .65 .21q.24 .21 .24 .58q.0 .23 -.1 .43q-.09 .2 -.26 .4q-.17 .2 -.39 .42l-.61 .6v.02h1.49v.33z" stroke="none"/>
                      
            </g>
                  
            <path class="atom" d="M56.1 8.66q.0 .76 -.26 1.33q-.26 .57 -.76 .88q-.5 .32 -1.24 .32q-.76 .0 -1.26 -.32q-.51 -.32 -.76 -.89q-.24 -.57 -.24 -1.33q.0 -.75 .24 -1.31q.25 -.57 .76 -.88q.51 -.32 1.27 -.32q.73 .0 1.23 .32q.5 .31 .76 .88q.26 .57 .26 1.33zM52.24 8.66q.0 .92 .39 1.46q.39 .53 1.22 .53q.84 .0 1.22 -.53q.39 -.54 .39 -1.46q.0 -.93 -.39 -1.45q-.38 -.52 -1.21 -.52q-.83 .0 -1.23 .52q-.39 .52 -.39 1.45z" fill="#FF0D0D" id="mol1atm15" stroke="none"/>
                
            <line class="hi" id="mol1bnd2" stroke="#C6C62C" x1="24.69" x2="19.465" y1="25.48" y2="28.495"/>
            <line class="hi" id="mol1bnd3" stroke="#C6C62C" x1="30.19" x2="35.410000000000004" y1="25.49" y2="28.505"/>
            <line class="hi" id="mol1bnd10" stroke="#FF0D0D" x1="53.84" x2="53.84" y1="65.7" y2="60.040000000000006"/>
            <line class="hi" id="mol1bnd11" stroke="#FF0D0D" x1="57.12" x2="62.08" y1="71.51" y2="74.375"/>
            <line class="hi" id="mol1bnd14" stroke="#3050F8" x1="103.49" x2="98.465" y1="52.56" y2="49.66"/>
            <line class="hi" id="mol1bnd15" stroke="#FF0D0D" x1="53.84" x2="53.84" y1="12.58" y2="18.24"/>
            <line class="hi" id="mol1bnd16" stroke="#FF0D0D" x1="50.56" x2="45.6" y1="6.76" y2="3.9"/>
        </g>
          
    </g>
    
</svg>
