<svg xmlns="http://www.w3.org/2000/svg" xmlns:xlink="http://www.w3.org/1999/xlink" height="49.98mm" version="1.2" viewBox="0 0 98.78 49.98" width="98.78mm">
      
    <desc>Generated by the Chemistry Development Kit (http://github.com/cdk)</desc>
      
    <g fill="#3050F8" stroke="#000000" stroke-linecap="round" stroke-linejoin="round" stroke-width=".7">
            
        <rect fill="#FFFFFF" height="50.0" stroke="none" width="99.0" x=".0" y=".0"/>
            
        <g class="mol" id="mol1">
                  
            <line class="bond" id="mol1bnd1" x1="71.4" x2="71.35" y1="41.14" y2="25.9"/>
                  
            <line class="bond" id="mol1bnd2" x1="71.35" x2="58.13" y1="25.9" y2="18.32"/>
                  
            <g class="bond" id="mol1bnd3">
                        
                <line x1="56.91" x2="56.87" y1="19.03" y2="7.01"/>
                        
                <line x1="59.35" x2="59.31" y1="19.02" y2="7.0"/>
                      
                <line class="hi" stroke="#FF0D0D" x1="56.87" x2="56.89" y1="7.01" y2="13.02"/>
                <line class="hi" stroke="#FF0D0D" x1="59.31" x2="59.33" y1="7.0" y2="13.01"/>
            </g>
                  
            <line class="bond" id="mol1bnd4" x1="58.13" x2="44.95" y1="18.32" y2="25.98"/>
                  
            <g class="bond" id="mol1bnd5">
                        
                <line x1="44.95" x2="31.74" y1="25.98" y2="18.46"/>
                        
                <line x1="42.51" x2="31.74" y1="27.4" y2="21.27"/>
                      
            </g>
                  
            <line class="bond" id="mol1bnd6" x1="31.74" x2="18.54" y1="18.46" y2="25.98"/>
                  
            <g class="bond" id="mol1bnd7">
                        
                <line x1="18.54" x2="18.54" y1="25.98" y2="41.22"/>
                        
                <line x1="20.97" x2="20.97" y1="27.4" y2="39.82"/>
                      
            </g>
                  
            <line class="bond" id="mol1bnd8" x1="18.54" x2="31.74" y1="41.22" y2="48.94"/>
                  
            <g class="bond" id="mol1bnd9">
                        
                <line x1="31.74" x2="44.95" y1="48.94" y2="41.22"/>
                        
                <line x1="31.74" x2="42.51" y1="46.12" y2="39.82"/>
                      
            </g>
                  
            <line class="bond" id="mol1bnd10" x1="44.95" x2="44.95" y1="25.98" y2="41.22"/>
                  
            <line class="bond" id="mol1bnd11" x1="18.54" x2="6.87" y1="25.98" y2="19.2"/>
                  
            <line class="bond" id="mol1bnd12" x1="71.35" x2="81.37" y1="25.9" y2="20.07"/>
                  
            <line class="bond" id="mol1bnd13" x1="87.68" x2="97.75" y1="20.05" y2="25.82"/>
                  
            <path class="atom" d="M60.34 3.08q.0 .76 -.26 1.33q-.26 .57 -.76 .88q-.5 .32 -1.24 .32q-.76 .0 -1.26 -.32q-.51 -.32 -.76 -.89q-.24 -.57 -.24 -1.33q.0 -.75 .24 -1.31q.25 -.57 .76 -.88q.51 -.32 1.27 -.32q.73 .0 1.23 .32q.5 .31 .76 .88q.26 .57 .26 1.33zM56.48 3.08q.0 .92 .39 1.46q.39 .53 1.22 .53q.84 .0 1.22 -.53q.39 -.54 .39 -1.46q.0 -.93 -.39 -1.45q-.38 -.52 -1.21 -.52q-.83 .0 -1.23 .52q-.39 .52 -.39 1.45z" fill="#FF0D0D" id="mol1atm4" stroke="none"/>
                  
            <path class="atom" d="M2.91 16.51q-.79 .0 -1.24 .53q-.45 .52 -.45 1.45q.0 .91 .42 1.45q.42 .53 1.27 .53q.32 .0 .61 -.05q.29 -.06 .57 -.14v.54q-.27 .1 -.57 .15q-.29 .05 -.7 .05q-.74 .0 -1.25 -.31q-.5 -.31 -.75 -.88q-.25 -.57 -.25 -1.34q.0 -.74 .27 -1.31q.27 -.57 .8 -.88q.53 -.32 1.28 -.32q.78 .0 1.35 .29l-.24 .52q-.23 -.1 -.51 -.18q-.27 -.08 -.61 -.08zM5.66 20.93h-.6v-5.21h.6v5.21z" fill="#1FF01F" id="mol1atm11" stroke="none"/>
                  
            <g class="atom" id="mol1atm12">
                        
                <path d="M86.46 20.69h-.72l-2.62 -4.07h-.03q.01 .24 .03 .6q.02 .36 .02 .73v2.74h-.57v-4.9h.71l2.61 4.05h.03q-.01 -.11 -.02 -.33q-.01 -.22 -.02 -.48q-.01 -.26 -.01 -.48v-2.77h.58v4.9z" stroke="none"/>
                        
                <path d="M86.33 15.23h-.62v-2.29h-2.51v2.29h-.61v-4.9h.61v2.07h2.51v-2.07h.62v4.9z" stroke="none"/>
                      
            </g>
                
            <line class="hi" id="mol1bnd11" stroke="#1FF01F" x1="6.870000000000001" x2="12.705" y1="19.2" y2="22.59"/>
            <line class="hi" id="mol1bnd12" stroke="#3050F8" x1="81.37" x2="76.36" y1="20.07" y2="22.985"/>
            <line class="hi" id="mol1bnd12" stroke="#3050F8" x1="81.37" x2="76.36" y1="20.07" y2="22.985"/>
            <line class="hi" id="mol1bnd13" stroke="#3050F8" x1="87.68" x2="92.715" y1="20.05" y2="22.935000000000002"/>
            <line class="hi" id="mol1bnd13" stroke="#3050F8" x1="87.68" x2="92.715" y1="20.05" y2="22.935000000000002"/>
        </g>
          
    </g>
    
</svg>
