<svg xmlns="http://www.w3.org/2000/svg" xmlns:xlink="http://www.w3.org/1999/xlink" height="34.45mm" version="1.2" viewBox="0 0 82.17 34.45" width="82.17mm">
      
    <desc>Generated by the Chemistry Development Kit (http://github.com/cdk)</desc>
      
    <g fill="#3050F8" stroke="#000000" stroke-linecap="round" stroke-linejoin="round" stroke-width=".7">
            
        <rect fill="#FFFFFF" height="35.0" stroke="none" width="83.0" x=".0" y=".0"/>
            
        <g class="mol" id="mol1">
                  
            <line class="bond" id="mol1bnd1" x1="1.04" x2="14.25" y1="3.08" y2="10.68"/>
                  
            <line class="bond" id="mol1bnd2" x1="14.25" x2="27.43" y1="10.68" y2="3.04"/>
                  
            <line class="bond" id="mol1bnd3" x1="27.43" x2="40.65" y1="3.04" y2="10.64"/>
                  
            <g class="bond" id="mol1bnd4">
                        
                <line x1="53.85" x2="40.65" y1="3.01" y2="10.64"/>
                        
                <line x1="53.85" x2="43.09" y1="5.82" y2="12.04"/>
                      
            </g>
                  
            <line class="bond" id="mol1bnd5" x1="53.85" x2="67.05" y1="3.01" y2="10.63"/>
                  
            <g class="bond" id="mol1bnd6">
                        
                <line x1="67.04" x2="67.05" y1="25.88" y2="10.63"/>
                        
                <line x1="64.6" x2="64.61" y1="24.46" y2="12.04"/>
                      
            </g>
                  
            <line class="bond" id="mol1bnd7" x1="67.04" x2="53.89" y1="25.88" y2="33.42"/>
                  
            <g class="bond" id="mol1bnd8">
                        
                <line x1="40.69" x2="53.89" y1="25.8" y2="33.42"/>
                        
                <line x1="43.13" x2="53.89" y1="24.39" y2="30.6"/>
                      
            </g>
                  
            <line class="bond" id="mol1bnd9" x1="40.65" x2="40.69" y1="10.64" y2="25.8"/>
                  
            <line class="bond" id="mol1bnd10" x1="67.05" x2="77.67" y1="10.63" y2="4.5"/>
                  
            <line class="bond" id="mol1bnd11" x1="14.25" x2="14.27" y1="10.68" y2="22.07"/>
                  
            <path class="atom" d="M79.49 5.46h-.61v-4.9h2.73v.54h-2.12v1.74h1.99v.54h-1.99v2.08z" fill="#90E050" id="mol1atm10" stroke="none"/>
                  
            <g class="atom" id="mol1atm11">
                        
                <path d="M16.22 28.37h-.72l-2.62 -4.07h-.03q.01 .24 .03 .6q.02 .36 .02 .73v2.74h-.57v-4.9h.71l2.61 4.05h.03q-.01 -.11 -.02 -.33q-.01 -.22 -.02 -.48q-.01 -.26 -.01 -.48v-2.77h.58v4.9z" stroke="none"/>
                        
                <path d="M20.52 28.37h-.62v-2.29h-2.51v2.29h-.61v-4.9h.61v2.07h2.51v-2.07h.62v4.9z" stroke="none"/>
                        
                <path d="M23.03 29.86h-1.94v-.3l.77 -.78q.22 -.22 .37 -.39q.15 -.18 .23 -.34q.08 -.17 .08 -.36q.0 -.24 -.15 -.37q-.14 -.13 -.37 -.13q-.21 .0 -.38 .08q-.16 .08 -.33 .21l-.19 -.24q.17 -.15 .39 -.25q.23 -.1 .51 -.1q.41 .0 .65 .21q.24 .21 .24 .58q.0 .23 -.1 .43q-.09 .2 -.26 .4q-.17 .2 -.39 .42l-.61 .6v.02h1.49v.33z" stroke="none"/>
                      
            </g>
                
            <line class="hi" id="mol1bnd10" stroke="#90E050" x1="77.67" x2="72.36" y1="4.5" y2="7.565"/>
            <line class="hi" id="mol1bnd11" stroke="#3050F8" x1="14.27" x2="14.26" y1="22.07" y2="16.375"/>
        </g>
          
    </g>
    
</svg>
