<svg xmlns="http://www.w3.org/2000/svg" xmlns:xlink="http://www.w3.org/1999/xlink" height="49.74mm" version="1.2" viewBox="0 0 95.36 49.74" width="95.36mm">
      
    <desc>Generated by the Chemistry Development Kit (http://github.com/cdk)</desc>
      
    <g fill="#3050F8" stroke="#000000" stroke-linecap="round" stroke-linejoin="round" stroke-width=".7">
            
        <rect fill="#FFFFFF" height="50.0" stroke="none" width="96.0" x=".0" y=".0"/>
            
        <g class="mol" id="mol1">
                  
            <line class="bond" id="mol1bnd1" x1="27.46" x2="27.43" y1="41.2" y2="25.96"/>
                  
            <line class="bond" id="mol1bnd2" x1="27.43" x2="40.62" y1="25.96" y2="18.32"/>
                  
            <g class="bond" id="mol1bnd3">
                        
                <line x1="39.4" x2="39.38" y1="19.03" y2="7.0"/>
                        
                <line x1="41.84" x2="41.82" y1="19.02" y2="7.0"/>
                      
                <line class="hi" stroke="#FF0D0D" x1="39.38" x2="39.39" y1="7.0" y2="13.015"/>
                <line class="hi" stroke="#FF0D0D" x1="41.82" x2="41.83" y1="7.0" y2="13.01"/>
            </g>
                  
            <line class="bond" id="mol1bnd4" x1="40.62" x2="53.83" y1="18.32" y2="25.92"/>
                  
            <g class="bond" id="mol1bnd5">
                        
                <line x1="67.03" x2="53.83" y1="18.29" y2="25.92"/>
                        
                <line x1="67.03" x2="56.27" y1="21.11" y2="27.32"/>
                      
            </g>
                  
            <line class="bond" id="mol1bnd6" x1="67.03" x2="80.23" y1="18.29" y2="25.91"/>
                  
            <g class="bond" id="mol1bnd7">
                        
                <line x1="80.23" x2="80.23" y1="41.16" y2="25.91"/>
                        
                <line x1="77.79" x2="77.79" y1="39.75" y2="27.32"/>
                      
            </g>
                  
            <line class="bond" id="mol1bnd8" x1="80.23" x2="67.08" y1="41.16" y2="48.7"/>
                  
            <g class="bond" id="mol1bnd9">
                        
                <line x1="53.88" x2="67.08" y1="41.08" y2="48.7"/>
                        
                <line x1="56.31" x2="67.08" y1="39.67" y2="45.89"/>
                      
            </g>
                  
            <line class="bond" id="mol1bnd10" x1="53.83" x2="53.88" y1="25.92" y2="41.08"/>
                  
            <line class="bond" id="mol1bnd11" x1="80.23" x2="90.85" y1="25.91" y2="19.78"/>
                  
            <line class="bond" id="mol1bnd12" x1="27.43" x2="17.38" y1="25.96" y2="20.18"/>
                  
            <line class="bond" id="mol1bnd13" x1="11.07" x2="1.04" y1="20.19" y2="26.01"/>
                  
            <path class="atom" d="M42.85 3.08q.0 .76 -.26 1.33q-.26 .57 -.76 .88q-.5 .32 -1.24 .32q-.76 .0 -1.26 -.32q-.51 -.32 -.76 -.89q-.24 -.57 -.24 -1.33q.0 -.75 .24 -1.31q.25 -.57 .76 -.88q.51 -.32 1.27 -.32q.73 .0 1.23 .32q.5 .31 .76 .88q.26 .57 .26 1.33zM38.99 3.08q.0 .92 .39 1.46q.39 .53 1.22 .53q.84 .0 1.22 -.53q.39 -.54 .39 -1.46q.0 -.93 -.39 -1.45q-.38 -.52 -1.21 -.52q-.83 .0 -1.23 .52q-.39 .52 -.39 1.45z" fill="#FF0D0D" id="mol1atm4" stroke="none"/>
                  
            <path class="atom" d="M92.68 20.74h-.61v-4.9h2.73v.54h-2.12v1.74h1.99v.54h-1.99v2.08z" fill="#90E050" id="mol1atm11" stroke="none"/>
                  
            <g class="atom" id="mol1atm12">
                        
                <path d="M16.16 20.82h-.72l-2.62 -4.07h-.03q.01 .24 .03 .6q.02 .36 .02 .73v2.74h-.57v-4.9h.71l2.61 4.05h.03q-.01 -.11 -.02 -.33q-.01 -.22 -.02 -.48q-.01 -.26 -.01 -.48v-2.77h.58v4.9z" stroke="none"/>
                        
                <path d="M16.03 15.35h-.62v-2.29h-2.51v2.29h-.61v-4.9h.61v2.07h2.51v-2.07h.62v4.9z" stroke="none"/>
                      
            </g>
                
            <line class="hi" id="mol1bnd11" stroke="#90E050" x1="90.85" x2="85.53999999999999" y1="19.78" y2="22.845"/>
            <line class="hi" id="mol1bnd12" stroke="#3050F8" x1="17.38" x2="22.405" y1="20.18" y2="23.07"/>
            <line class="hi" id="mol1bnd12" stroke="#3050F8" x1="17.38" x2="22.405" y1="20.18" y2="23.07"/>
            <line class="hi" id="mol1bnd13" stroke="#3050F8" x1="11.07" x2="6.055" y1="20.19" y2="23.1"/>
            <line class="hi" id="mol1bnd13" stroke="#3050F8" x1="11.07" x2="6.055" y1="20.19" y2="23.1"/>
        </g>
          
    </g>
    
</svg>
