<svg xmlns="http://www.w3.org/2000/svg" xmlns:xlink="http://www.w3.org/1999/xlink" height="55.37mm" version="1.2" viewBox="0 0 87.95 55.37" width="87.95mm">
      
    <desc>Generated by the Chemistry Development Kit (http://github.com/cdk)</desc>
      
    <g fill="#3050F8" stroke="#000000" stroke-linecap="round" stroke-linejoin="round" stroke-width=".7">
            
        <rect fill="#FFFFFF" height="56.0" stroke="none" width="88.0" x=".0" y=".0"/>
            
        <g class="mol" id="mol1">
                  
            <line class="bond" id="mol1bnd1" x1="67.94" x2="67.94" y1="8.6" y2="23.84"/>
                  
            <line class="bond" id="mol1bnd2" x1="67.94" x2="54.74" y1="23.84" y2="31.46"/>
                  
            <line class="bond" id="mol1bnd3" x1="54.74" x2="54.74" y1="31.46" y2="42.78"/>
                  
            <line class="bond" id="mol1bnd4" x1="58.02" x2="67.95" y1="48.6" y2="54.33"/>
                  
            <line class="bond" id="mol1bnd5" x1="67.95" x2="81.14" y1="54.33" y2="46.71"/>
                  
            <line class="bond" id="mol1bnd6" x1="81.14" x2="81.14" y1="46.71" y2="35.32"/>
                  
            <line class="bond" id="mol1bnd7" x1="67.94" x2="77.99" y1="23.84" y2="29.64"/>
                  
            <line class="bond" id="mol1bnd8" x1="54.74" x2="41.54" y1="31.46" y2="23.84"/>
                  
            <g class="bond" id="mol1bnd9">
                        
                <line x1="28.32" x2="41.54" y1="31.45" y2="23.84"/>
                        
                <line x1="28.33" x2="39.1" y1="28.63" y2="22.43"/>
                      
            </g>
                  
            <line class="bond" id="mol1bnd10" x1="28.32" x2="15.14" y1="31.45" y2="23.81"/>
                  
            <g class="bond" id="mol1bnd11">
                        
                <line x1="15.17" x2="15.14" y1="8.56" y2="23.81"/>
                        
                <line x1="17.6" x2="17.58" y1="9.98" y2="22.4"/>
                      
            </g>
                  
            <line class="bond" id="mol1bnd12" x1="15.17" x2="28.33" y1="8.56" y2="1.04"/>
                  
            <g class="bond" id="mol1bnd13">
                        
                <line x1="41.52" x2="28.33" y1="8.68" y2="1.04"/>
                        
                <line x1="39.08" x2="28.32" y1="10.08" y2="3.85"/>
                      
            </g>
                  
            <line class="bond" id="mol1bnd14" x1="41.54" x2="41.52" y1="23.84" y2="8.68"/>
                  
            <line class="bond" id="mol1bnd15" x1="15.14" x2="4.44" y1="23.81" y2="29.96"/>
                  
            <path class="atom" d="M57.0 46.7q.0 .76 -.26 1.33q-.26 .57 -.76 .88q-.5 .32 -1.24 .32q-.76 .0 -1.26 -.32q-.51 -.32 -.76 -.89q-.24 -.57 -.24 -1.33q.0 -.75 .24 -1.31q.25 -.57 .76 -.88q.51 -.32 1.27 -.32q.73 .0 1.23 .32q.5 .31 .76 .88q.26 .57 .26 1.33zM53.14 46.7q.0 .92 .39 1.46q.39 .53 1.22 .53q.84 .0 1.22 -.53q.39 -.54 .39 -1.46q.0 -.93 -.39 -1.45q-.38 -.52 -1.21 -.52q-.83 .0 -1.23 .52q-.39 .52 -.39 1.45z" fill="#FF0D0D" id="mol1atm4" stroke="none"/>
                  
            <g class="atom" id="mol1atm7">
                        
                <path d="M83.08 33.91h-.72l-2.62 -4.07h-.03q.01 .24 .03 .6q.02 .36 .02 .73v2.74h-.57v-4.9h.71l2.61 4.05h.03q-.01 -.11 -.02 -.33q-.01 -.22 -.02 -.48q-.01 -.26 -.01 -.48v-2.77h.58v4.9z" stroke="none"/>
                        
                <path d="M87.39 33.91h-.62v-2.29h-2.51v2.29h-.61v-4.9h.61v2.07h2.51v-2.07h.62v4.9z" stroke="none"/>
                      
            </g>
                  
            <path class="atom" d="M1.17 33.85h-.61v-4.9h2.73v.54h-2.12v1.74h1.99v.54h-1.99v2.08z" fill="#90E050" id="mol1atm14" stroke="none"/>
                
            <line class="hi" id="mol1bnd3" stroke="#FF0D0D" x1="54.74" x2="54.74" y1="42.78" y2="37.120000000000005"/>
            <line class="hi" id="mol1bnd4" stroke="#FF0D0D" x1="58.02" x2="62.985" y1="48.6" y2="51.465"/>
            <line class="hi" id="mol1bnd6" stroke="#3050F8" x1="81.14" x2="81.14" y1="35.32" y2="41.015"/>
            <line class="hi" id="mol1bnd6" stroke="#3050F8" x1="81.14" x2="81.14" y1="35.32" y2="41.015"/>
            <line class="hi" id="mol1bnd7" stroke="#3050F8" x1="77.99" x2="72.965" y1="29.64" y2="26.740000000000002"/>
            <line class="hi" id="mol1bnd15" stroke="#90E050" x1="4.440000000000001" x2="9.790000000000001" y1="29.96" y2="26.884999999999998"/>
        </g>
          
    </g>
    
</svg>
