<svg xmlns="http://www.w3.org/2000/svg" xmlns:xlink="http://www.w3.org/1999/xlink" height="49.77mm" version="1.2" viewBox="0 0 107.67 49.77" width="107.67mm">
      
    <desc>Generated by the Chemistry Development Kit (http://github.com/cdk)</desc>
      
    <g fill="#FF0D0D" stroke="#000000" stroke-linecap="round" stroke-linejoin="round" stroke-width=".7">
            
        <rect fill="#FFFFFF" height="50.0" stroke="none" width="108.0" x=".0" y=".0"/>
            
        <g class="mol" id="mol1">
                  
            <line class="bond" id="mol1bnd1" x1="80.23" x2="80.23" y1="41.18" y2="25.94"/>
                  
            <line class="bond" id="mol1bnd2" x1="80.23" x2="67.04" y1="25.94" y2="18.32"/>
                  
            <g class="bond" id="mol1bnd3">
                        
                <line x1="65.82" x2="65.82" y1="19.02" y2="7.0"/>
                        
                <line x1="68.25" x2="68.26" y1="19.03" y2="7.0"/>
                      
                <line class="hi" stroke="#FF0D0D" x1="65.82" x2="65.82" y1="7.0" y2="13.01"/>
                <line class="hi" stroke="#FF0D0D" x1="68.26" x2="68.255" y1="7.0" y2="13.015"/>
            </g>
                  
            <line class="bond" id="mol1bnd4" x1="67.04" x2="53.84" y1="18.32" y2="25.94"/>
                  
            <g class="bond" id="mol1bnd5">
                        
                <line x1="53.84" x2="40.64" y1="25.94" y2="18.32"/>
                        
                <line x1="51.4" x2="40.64" y1="27.35" y2="21.13"/>
                      
            </g>
                  
            <line class="bond" id="mol1bnd6" x1="40.64" x2="27.43" y1="18.32" y2="25.95"/>
                  
            <g class="bond" id="mol1bnd7">
                        
                <line x1="27.43" x2="27.48" y1="25.95" y2="41.11"/>
                        
                <line x1="29.88" x2="29.91" y1="27.35" y2="39.7"/>
                      
            </g>
                  
            <line class="bond" id="mol1bnd8" x1="27.48" x2="40.68" y1="41.11" y2="48.73"/>
                  
            <g class="bond" id="mol1bnd9">
                        
                <line x1="40.68" x2="53.83" y1="48.73" y2="41.19"/>
                        
                <line x1="40.68" x2="51.39" y1="45.91" y2="39.77"/>
                      
            </g>
                  
            <line class="bond" id="mol1bnd10" x1="53.84" x2="53.83" y1="25.94" y2="41.19"/>
                  
            <line class="bond" id="mol1bnd11" x1="27.43" x2="17.5" y1="25.95" y2="20.24"/>
                  
            <line class="bond" id="mol1bnd12" x1="10.95" x2="1.04" y1="20.25" y2="25.99"/>
                  
            <line class="bond" id="mol1bnd13" x1="80.23" x2="90.28" y1="25.94" y2="20.15"/>
                  
            <line class="bond" id="mol1bnd14" x1="96.59" x2="106.63" y1="20.15" y2="25.95"/>
                  
            <path class="atom" d="M69.3 3.08q.0 .76 -.26 1.33q-.26 .57 -.76 .88q-.5 .32 -1.24 .32q-.76 .0 -1.26 -.32q-.51 -.32 -.76 -.89q-.24 -.57 -.24 -1.33q.0 -.75 .24 -1.31q.25 -.57 .76 -.88q.51 -.32 1.27 -.32q.73 .0 1.23 .32q.5 .31 .76 .88q.26 .57 .26 1.33zM65.43 3.08q.0 .92 .39 1.46q.39 .53 1.22 .53q.84 .0 1.22 -.53q.39 -.54 .39 -1.46q.0 -.93 -.39 -1.45q-.38 -.52 -1.21 -.52q-.83 .0 -1.23 .52q-.39 .52 -.39 1.45z" id="mol1atm4" stroke="none"/>
                  
            <path class="atom" d="M16.48 18.35q.0 .76 -.26 1.33q-.26 .57 -.76 .88q-.5 .32 -1.24 .32q-.76 .0 -1.26 -.32q-.51 -.32 -.76 -.89q-.24 -.57 -.24 -1.33q.0 -.75 .24 -1.31q.25 -.57 .76 -.88q.51 -.32 1.27 -.32q.73 .0 1.23 .32q.5 .31 .76 .88q.26 .57 .26 1.33zM12.62 18.35q.0 .92 .39 1.46q.39 .53 1.22 .53q.84 .0 1.22 -.53q.39 -.54 .39 -1.46q.0 -.93 -.39 -1.45q-.38 -.52 -1.21 -.52q-.83 .0 -1.23 .52q-.39 .52 -.39 1.45z" id="mol1atm11" stroke="none"/>
                  
            <g class="atom" id="mol1atm13">
                        
                <path d="M95.37 20.78h-.72l-2.62 -4.07h-.03q.01 .24 .03 .6q.02 .36 .02 .73v2.74h-.57v-4.9h.71l2.61 4.05h.03q-.01 -.11 -.02 -.33q-.01 -.22 -.02 -.48q-.01 -.26 -.01 -.48v-2.77h.58v4.9z" fill="#3050F8" stroke="none"/>
                        
                <path d="M95.24 15.31h-.62v-2.29h-2.51v2.29h-.61v-4.9h.61v2.07h2.51v-2.07h.62v4.9z" fill="#3050F8" stroke="none"/>
                      
            </g>
                
            <line class="hi" id="mol1bnd11" stroke="#FF0D0D" x1="17.5" x2="22.465" y1="20.24" y2="23.095"/>
            <line class="hi" id="mol1bnd12" stroke="#FF0D0D" x1="10.95" x2="5.994999999999999" y1="20.25" y2="23.119999999999997"/>
            <line class="hi" id="mol1bnd13" stroke="#3050F8" x1="90.28" x2="85.255" y1="20.15" y2="23.045"/>
            <line class="hi" id="mol1bnd13" stroke="#3050F8" x1="90.28" x2="85.255" y1="20.15" y2="23.045"/>
            <line class="hi" id="mol1bnd14" stroke="#3050F8" x1="96.59" x2="101.61" y1="20.15" y2="23.049999999999997"/>
            <line class="hi" id="mol1bnd14" stroke="#3050F8" x1="96.59" x2="101.61" y1="20.15" y2="23.049999999999997"/>
        </g>
          
    </g>
    
</svg>
