<svg xmlns="http://www.w3.org/2000/svg" xmlns:xlink="http://www.w3.org/1999/xlink" height="49.77mm" version="1.2" viewBox="0 0 94.48 49.77" width="94.48mm">
      
    <desc>Generated by the Chemistry Development Kit (http://github.com/cdk)</desc>
      
    <g fill="#3050F8" stroke="#000000" stroke-linecap="round" stroke-linejoin="round" stroke-width=".7">
            
        <rect fill="#FFFFFF" height="50.0" stroke="none" width="95.0" x=".0" y=".0"/>
            
        <g class="mol" id="mol1">
                  
            <line class="bond" id="mol1bnd1" x1="1.04" x2="14.25" y1="18.35" y2="25.95"/>
                  
            <g class="bond" id="mol1bnd2">
                        
                <line x1="27.45" x2="14.25" y1="18.32" y2="25.95"/>
                        
                <line x1="27.45" x2="16.69" y1="21.13" y2="27.35"/>
                      
            </g>
                  
            <line class="bond" id="mol1bnd3" x1="27.45" x2="40.65" y1="18.32" y2="25.94"/>
                  
            <g class="bond" id="mol1bnd4">
                        
                <line x1="40.65" x2="40.65" y1="41.19" y2="25.94"/>
                        
                <line x1="38.21" x2="38.21" y1="39.77" y2="27.35"/>
                      
            </g>
                  
            <line class="bond" id="mol1bnd5" x1="40.65" x2="27.49" y1="41.19" y2="48.73"/>
                  
            <g class="bond" id="mol1bnd6">
                        
                <line x1="14.29" x2="27.49" y1="41.11" y2="48.73"/>
                        
                <line x1="16.73" x2="27.5" y1="39.7" y2="45.91"/>
                      
            </g>
                  
            <line class="bond" id="mol1bnd7" x1="14.25" x2="14.29" y1="25.95" y2="41.11"/>
                  
            <line class="bond" id="mol1bnd8" x1="40.65" x2="53.85" y1="25.94" y2="18.32"/>
                  
            <g class="bond" id="mol1bnd9">
                        
                <line x1="52.63" x2="52.63" y1="19.02" y2="7.0"/>
                        
                <line x1="55.07" x2="55.07" y1="19.03" y2="7.0"/>
                      
                <line class="hi" stroke="#FF0D0D" x1="52.63" x2="52.63" y1="7.0" y2="13.01"/>
                <line class="hi" stroke="#FF0D0D" x1="55.07" x2="55.07" y1="7.0" y2="13.015"/>
            </g>
                  
            <line class="bond" id="mol1bnd10" x1="53.85" x2="67.05" y1="18.32" y2="25.94"/>
                  
            <line class="bond" id="mol1bnd11" x1="67.05" x2="67.04" y1="25.94" y2="41.18"/>
                  
            <line class="bond" id="mol1bnd12" x1="67.05" x2="77.09" y1="25.94" y2="20.15"/>
                  
            <line class="bond" id="mol1bnd13" x1="83.4" x2="93.44" y1="20.15" y2="25.95"/>
                  
            <path class="atom" d="M56.11 3.08q.0 .76 -.26 1.33q-.26 .57 -.76 .88q-.5 .32 -1.24 .32q-.76 .0 -1.26 -.32q-.51 -.32 -.76 -.89q-.24 -.57 -.24 -1.33q.0 -.75 .24 -1.31q.25 -.57 .76 -.88q.51 -.32 1.27 -.32q.73 .0 1.23 .32q.5 .31 .76 .88q.26 .57 .26 1.33zM52.25 3.08q.0 .92 .39 1.46q.39 .53 1.22 .53q.84 .0 1.22 -.53q.39 -.54 .39 -1.46q.0 -.93 -.39 -1.45q-.38 -.52 -1.21 -.52q-.83 .0 -1.23 .52q-.39 .52 -.39 1.45z" fill="#FF0D0D" id="mol1atm9" stroke="none"/>
                  
            <g class="atom" id="mol1atm12">
                        
                <path d="M82.19 20.78h-.72l-2.62 -4.07h-.03q.01 .24 .03 .6q.02 .36 .02 .73v2.74h-.57v-4.9h.71l2.61 4.05h.03q-.01 -.11 -.02 -.33q-.01 -.22 -.02 -.48q-.01 -.26 -.01 -.48v-2.77h.58v4.9z" stroke="none"/>
                        
                <path d="M82.05 15.31h-.62v-2.29h-2.51v2.29h-.61v-4.9h.61v2.07h2.51v-2.07h.62v4.9z" stroke="none"/>
                      
            </g>
                
            <line class="hi" id="mol1bnd12" stroke="#3050F8" x1="77.09" x2="72.07" y1="20.15" y2="23.045"/>
            <line class="hi" id="mol1bnd12" stroke="#3050F8" x1="77.09" x2="72.07" y1="20.15" y2="23.045"/>
            <line class="hi" id="mol1bnd13" stroke="#3050F8" x1="83.4" x2="88.42" y1="20.15" y2="23.049999999999997"/>
            <line class="hi" id="mol1bnd13" stroke="#3050F8" x1="83.4" x2="88.42" y1="20.15" y2="23.049999999999997"/>
        </g>
          
    </g>
    
</svg>
