<svg xmlns="http://www.w3.org/2000/svg" xmlns:xlink="http://www.w3.org/1999/xlink" height="95.27mm" version="1.2" viewBox="0 0 114.9 95.27" width="114.9mm">
      
    <desc>Generated by the Chemistry Development Kit (http://github.com/cdk)</desc>
      
    <g fill="#3050F8" stroke="#000000" stroke-linecap="round" stroke-linejoin="round" stroke-width=".7">
            
        <rect fill="#FFFFFF" height="96.0" stroke="none" width="115.0" x=".0" y=".0"/>
            
        <g class="mol" id="mol1">
                  
            <line class="bond" id="mol1bnd1" x1="113.93" x2="99.02" y1="9.14" y2="12.3"/>
                  
            <line class="bond" id="mol1bnd2" x1="99.02" x2="94.31" y1="12.3" y2="26.8"/>
                  
            <line class="bond" id="mol1bnd3" x1="94.31" x2="82.71" y1="26.8" y2="29.26"/>
                  
            <line class="bond" id="mol1bnd4" x1="76.52" x2="69.21" y1="26.76" y2="18.63"/>
                  
            <line class="bond" id="mol1bnd5" x1="69.21" x2="73.92" y1="18.63" y2="4.14"/>
                  
            <line class="bond" id="mol1bnd6" x1="73.92" x2="88.83" y1="4.14" y2=".98"/>
                  
            <line class="bond" id="mol1bnd7" x1="78.17" x2="74.69" y1="33.74" y2="44.45"/>
                  
            <line class="bond" id="mol1bnd8" x1="74.69" x2="59.78" y1="44.45" y2="47.62"/>
                  
            <line class="bond" id="mol1bnd9" x1="59.78" x2="55.07" y1="47.62" y2="62.11"/>
                  
            <g class="bond" id="mol1bnd10">
                        
                <line x1="64.01" x2="55.07" y1="74.41" y2="62.11"/>
                        
                <line x1="61.0" x2="54.14" y1="74.41" y2="64.98"/>
                      
            </g>
                  
            <line class="bond" id="mol1bnd11" x1="64.01" x2="57.66" y1="74.41" y2="83.22"/>
                  
            <line class="bond" id="mol1bnd12" x1="51.8" x2="40.64" y1="85.72" y2="82.03"/>
                  
            <g class="bond" id="mol1bnd13">
                        
                <line x1="40.64" x2="40.64" y1="82.03" y2="66.79"/>
                        
                <line x1="38.2" x2="38.2" y1="80.62" y2="68.2"/>
                      
            </g>
                  
            <line class="bond" id="mol1bnd14" x1="55.07" x2="40.64" y1="62.11" y2="66.79"/>
                  
            <line class="bond" id="mol1bnd15" x1="40.64" x2="27.43" y1="66.79" y2="59.17"/>
                  
            <g class="bond" id="mol1bnd16">
                        
                <line x1="27.43" x2="14.23" y1="59.17" y2="66.79"/>
                        
                <line x1="27.43" x2="16.67" y1="61.98" y2="68.2"/>
                      
            </g>
                  
            <line class="bond" id="mol1bnd17" x1="14.23" x2="14.23" y1="66.79" y2="82.03"/>
                  
            <g class="bond" id="mol1bnd18">
                        
                <line x1="14.23" x2="27.43" y1="82.03" y2="89.65"/>
                        
                <line x1="16.67" x2="27.43" y1="80.62" y2="86.83"/>
                      
            </g>
                  
            <line class="bond" id="mol1bnd19" x1="40.64" x2="27.43" y1="82.03" y2="89.65"/>
                  
            <line class="bond" id="mol1bnd20" x1="27.43" x2="27.43" y1="59.17" y2="47.85"/>
                  
            <line class="bond" id="mol1bnd21" x1="24.15" x2="14.24" y1="42.03" y2="36.31"/>
                  
            <g class="bond" id="mol1bnd22">
                        
                <line x1="13.02" x2="13.02" y1="37.01" y2="24.99"/>
                        
                <line x1="15.46" x2="15.46" y1="37.01" y2="24.99"/>
                      
                <line class="hi" stroke="#FF0D0D" x1="13.02" x2="13.02" y1="24.99" y2="31.0"/>
                <line class="hi" stroke="#FF0D0D" x1="15.46" x2="15.46" y1="24.99" y2="31.0"/>
            </g>
                  
            <line class="bond" id="mol1bnd23" x1="14.24" x2="1.04" y1="36.31" y2="43.93"/>
                  
            <path class="atom" d="M81.34 32.41h-.72l-2.62 -4.07h-.03q.01 .24 .03 .6q.02 .36 .02 .73v2.74h-.57v-4.9h.71l2.61 4.05h.03q-.01 -.11 -.02 -.33q-.01 -.22 -.02 -.48q-.01 -.26 -.01 -.48v-2.77h.58v4.9z" id="mol1atm4" stroke="none"/>
                  
            <g class="atom" id="mol1atm12">
                        
                <path d="M57.01 89.25h-.72l-2.62 -4.07h-.03q.01 .24 .03 .6q.02 .36 .02 .73v2.74h-.57v-4.9h.71l2.61 4.05h.03q-.01 -.11 -.02 -.33q-.01 -.22 -.02 -.48q-.01 -.26 -.01 -.48v-2.77h.58v4.9z" stroke="none"/>
                        
                <path d="M56.87 94.71h-.62v-2.29h-2.51v2.29h-.61v-4.9h.61v2.07h2.51v-2.07h.62v4.9z" stroke="none"/>
                      
            </g>
                  
            <path class="atom" d="M29.69 43.92q.0 .76 -.26 1.33q-.26 .57 -.76 .88q-.5 .32 -1.24 .32q-.76 .0 -1.26 -.32q-.51 -.32 -.76 -.89q-.24 -.57 -.24 -1.33q.0 -.75 .24 -1.31q.25 -.57 .76 -.88q.51 -.32 1.27 -.32q.73 .0 1.23 .32q.5 .31 .76 .88q.26 .57 .26 1.33zM25.83 43.92q.0 .92 .39 1.46q.39 .53 1.22 .53q.84 .0 1.22 -.53q.39 -.54 .39 -1.46q.0 -.93 -.39 -1.45q-.38 -.52 -1.21 -.52q-.83 .0 -1.23 .52q-.39 .52 -.39 1.45z" fill="#FF0D0D" id="mol1atm19" stroke="none"/>
                  
            <path class="atom" d="M16.5 21.06q.0 .76 -.26 1.33q-.26 .57 -.76 .88q-.5 .32 -1.24 .32q-.76 .0 -1.26 -.32q-.51 -.32 -.76 -.89q-.24 -.57 -.24 -1.33q.0 -.75 .24 -1.31q.25 -.57 .76 -.88q.51 -.32 1.27 -.32q.73 .0 1.23 .32q.5 .31 .76 .88q.26 .57 .26 1.33zM12.63 21.06q.0 .92 .39 1.46q.39 .53 1.22 .53q.84 .0 1.22 -.53q.39 -.54 .39 -1.46q.0 -.93 -.39 -1.45q-.38 -.52 -1.21 -.52q-.83 .0 -1.23 .52q-.39 .52 -.39 1.45z" fill="#FF0D0D" id="mol1atm21" stroke="none"/>
                
            <line class="hi" id="mol1bnd3" stroke="#3050F8" x1="82.71" x2="88.50999999999999" y1="29.26" y2="28.03"/>
            <line class="hi" id="mol1bnd4" stroke="#3050F8" x1="76.52" x2="72.865" y1="26.76" y2="22.695"/>
            <line class="hi" id="mol1bnd7" stroke="#3050F8" x1="78.17" x2="76.43" y1="33.74" y2="39.095"/>
            <line class="hi" id="mol1bnd11" stroke="#3050F8" x1="57.66" x2="60.835" y1="83.22" y2="78.815"/>
            <line class="hi" id="mol1bnd12" stroke="#3050F8" x1="51.8" x2="46.22" y1="85.72" y2="83.875"/>
            <line class="hi" id="mol1bnd20" stroke="#FF0D0D" x1="27.43" x2="27.43" y1="47.85" y2="53.510000000000005"/>
            <line class="hi" id="mol1bnd21" stroke="#FF0D0D" x1="24.15" x2="19.195" y1="42.03" y2="39.17"/>
        </g>
          
    </g>
    
</svg>
