<svg xmlns="http://www.w3.org/2000/svg" xmlns:xlink="http://www.w3.org/1999/xlink" height="92.13mm" version="1.2" viewBox="0 0 105.56 92.13" width="105.56mm">
      
    <desc>Generated by the Chemistry Development Kit (http://github.com/cdk)</desc>
      
    <g fill="#3050F8" stroke="#000000" stroke-linecap="round" stroke-linejoin="round" stroke-width=".7">
            
        <rect fill="#FFFFFF" height="93.0" stroke="none" width="106.0" x=".0" y=".0"/>
            
        <g class="mol" id="mol1">
                  
            <line class="bond" id="mol1bnd1" x1="99.02" x2="94.31" y1="9.16" y2="23.66"/>
                  
            <line class="bond" id="mol1bnd2" x1="94.31" x2="104.51" y1="23.66" y2="34.98"/>
                  
            <line class="bond" id="mol1bnd3" x1="94.31" x2="82.71" y1="23.66" y2="26.12"/>
                  
            <line class="bond" id="mol1bnd4" x1="78.17" x2="74.69" y1="30.6" y2="41.32"/>
                  
            <line class="bond" id="mol1bnd5" x1="74.69" x2="59.78" y1="41.32" y2="44.48"/>
                  
            <line class="bond" id="mol1bnd6" x1="59.78" x2="55.07" y1="44.48" y2="58.97"/>
                  
            <g class="bond" id="mol1bnd7">
                        
                <line x1="64.01" x2="55.07" y1="71.27" y2="58.97"/>
                        
                <line x1="61.0" x2="54.14" y1="71.27" y2="61.84"/>
                      
            </g>
                  
            <line class="bond" id="mol1bnd8" x1="64.01" x2="57.66" y1="71.27" y2="80.08"/>
                  
            <line class="bond" id="mol1bnd9" x1="51.8" x2="40.64" y1="82.58" y2="78.89"/>
                  
            <g class="bond" id="mol1bnd10">
                        
                <line x1="40.64" x2="40.64" y1="78.89" y2="63.65"/>
                        
                <line x1="38.2" x2="38.2" y1="77.48" y2="65.06"/>
                      
            </g>
                  
            <line class="bond" id="mol1bnd11" x1="55.07" x2="40.64" y1="58.97" y2="63.65"/>
                  
            <line class="bond" id="mol1bnd12" x1="40.64" x2="27.43" y1="63.65" y2="56.03"/>
                  
            <g class="bond" id="mol1bnd13">
                        
                <line x1="27.43" x2="14.23" y1="56.03" y2="63.65"/>
                        
                <line x1="27.43" x2="16.67" y1="58.84" y2="65.06"/>
                      
            </g>
                  
            <line class="bond" id="mol1bnd14" x1="14.23" x2="14.23" y1="63.65" y2="78.89"/>
                  
            <g class="bond" id="mol1bnd15">
                        
                <line x1="14.23" x2="27.43" y1="78.89" y2="86.51"/>
                        
                <line x1="16.67" x2="27.43" y1="77.48" y2="83.69"/>
                      
            </g>
                  
            <line class="bond" id="mol1bnd16" x1="40.64" x2="27.43" y1="78.89" y2="86.51"/>
                  
            <line class="bond" id="mol1bnd17" x1="27.43" x2="27.43" y1="56.03" y2="44.71"/>
                  
            <line class="bond" id="mol1bnd18" x1="24.15" x2="14.24" y1="38.89" y2="33.17"/>
                  
            <g class="bond" id="mol1bnd19">
                        
                <line x1="13.02" x2="13.02" y1="33.87" y2="21.85"/>
                        
                <line x1="15.46" x2="15.46" y1="33.87" y2="21.85"/>
                      
                <line class="hi" stroke="#FF0D0D" x1="13.02" x2="13.02" y1="21.85" y2="27.86"/>
                <line class="hi" stroke="#FF0D0D" x1="15.46" x2="15.46" y1="21.85" y2="27.86"/>
            </g>
                  
            <line class="bond" id="mol1bnd20" x1="14.24" x2="1.04" y1="33.17" y2="40.79"/>
                  
            <line class="bond" id="mol1bnd21" x1="76.52" x2="69.21" y1="23.62" y2="15.49"/>
                  
            <line class="bond" id="mol1bnd22" x1="69.21" x2="73.92" y1="15.49" y2="1.0"/>
                  
            <line class="bond" id="mol1bnd23" x1="69.21" x2="54.3" y1="15.49" y2="18.66"/>
                  
            <path class="atom" d="M81.34 29.27h-.72l-2.62 -4.07h-.03q.01 .24 .03 .6q.02 .36 .02 .73v2.74h-.57v-4.9h.71l2.61 4.05h.03q-.01 -.11 -.02 -.33q-.01 -.22 -.02 -.48q-.01 -.26 -.01 -.48v-2.77h.58v4.9z" id="mol1atm4" stroke="none"/>
                  
            <g class="atom" id="mol1atm9">
                        
                <path d="M57.01 86.11h-.72l-2.62 -4.07h-.03q.01 .24 .03 .6q.02 .36 .02 .73v2.74h-.57v-4.9h.71l2.61 4.05h.03q-.01 -.11 -.02 -.33q-.01 -.22 -.02 -.48q-.01 -.26 -.01 -.48v-2.77h.58v4.9z" stroke="none"/>
                        
                <path d="M56.87 91.57h-.62v-2.29h-2.51v2.29h-.61v-4.9h.61v2.07h2.51v-2.07h.62v4.9z" stroke="none"/>
                      
            </g>
                  
            <path class="atom" d="M29.69 40.78q.0 .76 -.26 1.33q-.26 .57 -.76 .88q-.5 .32 -1.24 .32q-.76 .0 -1.26 -.32q-.51 -.32 -.76 -.89q-.24 -.57 -.24 -1.33q.0 -.75 .24 -1.31q.25 -.57 .76 -.88q.51 -.32 1.27 -.32q.73 .0 1.23 .32q.5 .31 .76 .88q.26 .57 .26 1.33zM25.83 40.78q.0 .92 .39 1.46q.39 .53 1.22 .53q.84 .0 1.22 -.53q.39 -.54 .39 -1.46q.0 -.93 -.39 -1.45q-.38 -.52 -1.21 -.52q-.83 .0 -1.23 .52q-.39 .52 -.39 1.45z" fill="#FF0D0D" id="mol1atm16" stroke="none"/>
                  
            <path class="atom" d="M16.5 17.92q.0 .76 -.26 1.33q-.26 .57 -.76 .88q-.5 .32 -1.24 .32q-.76 .0 -1.26 -.32q-.51 -.32 -.76 -.89q-.24 -.57 -.24 -1.33q.0 -.75 .24 -1.31q.25 -.57 .76 -.88q.51 -.32 1.27 -.32q.73 .0 1.23 .32q.5 .31 .76 .88q.26 .57 .26 1.33zM12.63 17.92q.0 .92 .39 1.46q.39 .53 1.22 .53q.84 .0 1.22 -.53q.39 -.54 .39 -1.46q.0 -.93 -.39 -1.45q-.38 -.52 -1.21 -.52q-.83 .0 -1.23 .52q-.39 .52 -.39 1.45z" fill="#FF0D0D" id="mol1atm18" stroke="none"/>
                
            <line class="hi" id="mol1bnd3" stroke="#3050F8" x1="82.71" x2="88.50999999999999" y1="26.12" y2="24.89"/>
            <line class="hi" id="mol1bnd4" stroke="#3050F8" x1="78.17" x2="76.43" y1="30.6" y2="35.96"/>
            <line class="hi" id="mol1bnd8" stroke="#3050F8" x1="57.66" x2="60.835" y1="80.08" y2="75.675"/>
            <line class="hi" id="mol1bnd9" stroke="#3050F8" x1="51.8" x2="46.22" y1="82.58" y2="80.735"/>
            <line class="hi" id="mol1bnd17" stroke="#FF0D0D" x1="27.43" x2="27.43" y1="44.71" y2="50.370000000000005"/>
            <line class="hi" id="mol1bnd18" stroke="#FF0D0D" x1="24.15" x2="19.195" y1="38.89" y2="36.03"/>
            <line class="hi" id="mol1bnd21" stroke="#3050F8" x1="76.52" x2="72.865" y1="23.62" y2="19.555"/>
        </g>
          
    </g>
    
</svg>
