<svg xmlns="http://www.w3.org/2000/svg" xmlns:xlink="http://www.w3.org/1999/xlink" height="112.97mm" version="1.2" viewBox="0 0 82.49 112.97" width="82.49mm">
      
    <desc>Generated by the Chemistry Development Kit (http://github.com/cdk)</desc>
      
    <g fill="#1FF01F" stroke="#000000" stroke-linecap="round" stroke-linejoin="round" stroke-width=".7">
            
        <rect fill="#FFFFFF" height="113.0" stroke="none" width="83.0" x=".0" y=".0"/>
            
        <g class="mol" id="mol1">
                  
            <line class="bond" id="mol1bnd1" x1="30.57" x2="28.05" y1="111.99" y2="100.95"/>
                  
            <line class="bond" id="mol1bnd2" x1="23.88" x2="12.35" y1="96.37" y2="93.68"/>
                  
            <g class="bond" id="mol1bnd3">
                        
                <line x1="13.66" x2="6.24" y1="93.99" y2="103.25"/>
                        
                <line x1="11.76" x2="4.34" y1="92.46" y2="101.73"/>
                      
                <line class="hi" stroke="#FF0D0D" x1="6.24" x2="9.95" y1="103.25" y2="98.62"/>
                <line class="hi" stroke="#FF0D0D" x1="4.34" x2="8.05" y1="101.73" y2="97.095"/>
            </g>
                  
            <line class="bond" id="mol1bnd4" x1="12.35" x2="5.74" y1="93.68" y2="79.97"/>
                  
            <line class="bond" id="mol1bnd5" x1="5.74" x2="10.56" y1="79.97" y2="69.96"/>
                  
            <g class="bond" id="mol1bnd6">
                        
                <line x1="27.18" x2="15.65" y1="62.79" y2="65.48"/>
                        
                <line x1="26.58" x2="16.21" y1="65.44" y2="67.85"/>
                      
                <line class="hi" stroke="#3050F8" x1="15.65" x2="21.415" y1="65.48" y2="64.135"/>
                <line class="hi" stroke="#3050F8" x1="16.21" x2="21.395" y1="67.85" y2="66.645"/>
            </g>
                  
            <line class="bond" id="mol1bnd7" x1="27.18" x2="39.07" y1="62.79" y2="72.35"/>
                  
            <g class="bond" id="mol1bnd8">
                        
                <line x1="39.07" x2="39.07" y1="72.35" y2="87.59"/>
                        
                <line x1="41.51" x2="41.51" y1="73.75" y2="86.18"/>
                      
            </g>
                  
            <line class="bond" id="mol1bnd9" x1="30.21" x2="39.07" y1="94.7" y2="87.59"/>
                  
            <line class="bond" id="mol1bnd10" x1="39.07" x2="52.28" y1="87.59" y2="95.21"/>
                  
            <g class="bond" id="mol1bnd11">
                        
                <line x1="52.28" x2="65.48" y1="95.21" y2="87.59"/>
                        
                <line x1="52.28" x2="63.05" y1="92.39" y2="86.18"/>
                      
            </g>
                  
            <line class="bond" id="mol1bnd12" x1="65.48" x2="65.48" y1="87.59" y2="72.35"/>
                  
            <g class="bond" id="mol1bnd13">
                        
                <line x1="65.48" x2="52.28" y1="72.35" y2="64.73"/>
                        
                <line x1="63.05" x2="52.28" y1="73.75" y2="67.54"/>
                      
            </g>
                  
            <line class="bond" id="mol1bnd14" x1="39.07" x2="52.28" y1="72.35" y2="64.73"/>
                  
            <line class="bond" id="mol1bnd15" x1="65.48" x2="75.73" y1="72.35" y2="66.43"/>
                  
            <line class="bond" id="mol1bnd16" x1="27.18" x2="30.57" y1="62.79" y2="47.94"/>
                  
            <g class="bond" id="mol1bnd17">
                        
                <line x1="30.57" x2="44.96" y1="47.94" y2="43.47"/>
                        
                <line x1="31.19" x2="42.9" y1="45.19" y2="41.55"/>
                      
            </g>
                  
            <line class="bond" id="mol1bnd18" x1="44.96" x2="48.42" y1="43.47" y2="28.63"/>
                  
            <g class="bond" id="mol1bnd19">
                        
                <line x1="48.42" x2="37.51" y1="28.63" y2="18.15"/>
                        
                <line x1="45.73" x2="36.85" y1="29.42" y2="20.9"/>
                      
            </g>
                  
            <line class="bond" id="mol1bnd20" x1="37.51" x2="22.79" y1="18.15" y2="22.65"/>
                  
            <g class="bond" id="mol1bnd21">
                        
                <line x1="22.79" x2="19.33" y1="22.65" y2="37.49"/>
                        
                <line x1="24.85" x2="22.03" y1="24.57" y2="36.67"/>
                      
            </g>
                  
            <line class="bond" id="mol1bnd22" x1="30.57" x2="19.33" y1="47.94" y2="37.49"/>
                  
            <line class="bond" id="mol1bnd23" x1="37.51" x2="40.15" y1="18.15" y2="7.07"/>
                  
            <path class="atom" d="M29.12 99.59h-.72l-2.62 -4.07h-.03q.01 .24 .03 .6q.02 .36 .02 .73v2.74h-.57v-4.9h.71l2.61 4.05h.03q-.01 -.11 -.02 -.33q-.01 -.22 -.02 -.48q-.01 -.26 -.01 -.48v-2.77h.58v4.9z" fill="#3050F8" id="mol1atm2" stroke="none"/>
                  
            <path class="atom" d="M5.08 105.57q.0 .76 -.26 1.33q-.26 .57 -.76 .88q-.5 .32 -1.24 .32q-.76 .0 -1.26 -.32q-.51 -.32 -.76 -.89q-.24 -.57 -.24 -1.33q.0 -.75 .24 -1.31q.25 -.57 .76 -.88q.51 -.32 1.27 -.32q.73 .0 1.23 .32q.5 .31 .76 .88q.26 .57 .26 1.33zM1.21 105.57q.0 .92 .39 1.46q.39 .53 1.22 .53q.84 .0 1.22 -.53q.39 -.54 .39 -1.46q.0 -.93 -.39 -1.45q-.38 -.52 -1.21 -.52q-.83 .0 -1.23 .52q-.39 .52 -.39 1.45z" fill="#FF0D0D" id="mol1atm4" stroke="none"/>
                  
            <path class="atom" d="M14.29 68.7h-.72l-2.62 -4.07h-.03q.01 .24 .03 .6q.02 .36 .02 .73v2.74h-.57v-4.9h.71l2.61 4.05h.03q-.01 -.11 -.02 -.33q-.01 -.22 -.02 -.48q-.01 -.26 -.01 -.48v-2.77h.58v4.9z" fill="#3050F8" id="mol1atm6" stroke="none"/>
                  
            <path class="atom" d="M79.18 62.75q-.79 .0 -1.24 .53q-.45 .52 -.45 1.45q.0 .91 .42 1.45q.42 .53 1.27 .53q.32 .0 .61 -.05q.29 -.06 .57 -.14v.54q-.27 .1 -.57 .15q-.29 .05 -.7 .05q-.74 .0 -1.25 -.31q-.5 -.31 -.75 -.88q-.25 -.57 -.25 -1.34q.0 -.74 .27 -1.31q.27 -.57 .8 -.88q.53 -.32 1.28 -.32q.78 .0 1.35 .29l-.24 .52q-.23 -.1 -.51 -.18q-.27 -.08 -.61 -.08zM81.93 67.17h-.6v-5.21h.6v5.21z" id="mol1atm14" stroke="none"/>
                  
            <path class="atom" d="M41.54 1.35q-.79 .0 -1.24 .53q-.45 .52 -.45 1.45q.0 .91 .42 1.45q.42 .53 1.27 .53q.32 .0 .61 -.05q.29 -.06 .57 -.14v.54q-.27 .1 -.57 .15q-.29 .05 -.7 .05q-.74 .0 -1.25 -.31q-.5 -.31 -.75 -.88q-.25 -.57 -.25 -1.34q.0 -.74 .27 -1.31q.27 -.57 .8 -.88q.53 -.32 1.28 -.32q.78 .0 1.35 .29l-.24 .52q-.23 -.1 -.51 -.18q-.27 -.08 -.61 -.08zM44.3 5.77h-.6v-5.21h.6v5.21z" id="mol1atm21" stroke="none"/>
                
            <line class="hi" id="mol1bnd1" stroke="#3050F8" x1="28.05" x2="29.310000000000002" y1="100.95" y2="106.47"/>
            <line class="hi" id="mol1bnd2" stroke="#3050F8" x1="23.88" x2="18.115" y1="96.37" y2="95.025"/>
            <line class="hi" id="mol1bnd5" stroke="#3050F8" x1="10.56" x2="8.15" y1="69.96" y2="74.965"/>
            <line class="hi" id="mol1bnd9" stroke="#3050F8" x1="30.21" x2="34.64" y1="94.7" y2="91.14500000000001"/>
            <line class="hi" id="mol1bnd15" stroke="#1FF01F" x1="75.73" x2="70.605" y1="66.43" y2="69.39"/>
            <line class="hi" id="mol1bnd23" stroke="#1FF01F" x1="40.15" x2="38.83" y1="7.07" y2="12.61"/>
        </g>
          
    </g>
    
</svg>
