<svg xmlns="http://www.w3.org/2000/svg" xmlns:xlink="http://www.w3.org/1999/xlink" height="49.84mm" version="1.2" viewBox="0 0 107.68 49.84" width="107.68mm">
      
    <desc>Generated by the Chemistry Development Kit (http://github.com/cdk)</desc>
      
    <g fill="#3050F8" stroke="#000000" stroke-linecap="round" stroke-linejoin="round" stroke-width=".7">
            
        <rect fill="#FFFFFF" height="50.0" stroke="none" width="108.0" x=".0" y=".0"/>
            
        <g class="mol" id="mol1">
                  
            <line class="bond" id="mol1bnd1" x1="1.04" x2="14.24" y1="8.66" y2="1.04"/>
                  
            <line class="bond" id="mol1bnd2" x1="14.24" x2="27.43" y1="1.04" y2="8.66"/>
                  
            <g class="bond" id="mol1bnd3">
                        
                <line x1="40.64" x2="27.43" y1="1.04" y2="8.66"/>
                        
                <line x1="40.64" x2="29.87" y1="3.86" y2="10.07"/>
                      
            </g>
                  
            <line class="bond" id="mol1bnd4" x1="40.64" x2="53.85" y1="1.04" y2="8.66"/>
                  
            <g class="bond" id="mol1bnd5">
                        
                <line x1="53.85" x2="53.85" y1="23.9" y2="8.66"/>
                        
                <line x1="51.41" x2="51.41" y1="22.49" y2="10.07"/>
                      
            </g>
                  
            <line class="bond" id="mol1bnd6" x1="53.85" x2="40.64" y1="23.9" y2="31.52"/>
                  
            <g class="bond" id="mol1bnd7">
                        
                <line x1="27.43" x2="40.64" y1="23.9" y2="31.52"/>
                        
                <line x1="29.87" x2="40.64" y1="22.49" y2="28.71"/>
                      
            </g>
                  
            <line class="bond" id="mol1bnd8" x1="27.43" x2="27.43" y1="8.66" y2="23.9"/>
                  
            <line class="bond" id="mol1bnd9" x1="53.85" x2="67.05" y1="23.9" y2="31.52"/>
                  
            <g class="bond" id="mol1bnd10">
                        
                <line x1="68.27" x2="68.26" y1="30.82" y2="42.84"/>
                        
                <line x1="65.83" x2="65.83" y1="30.82" y2="42.84"/>
                      
                <line class="hi" stroke="#FF0D0D" x1="68.26" x2="68.265" y1="42.84" y2="36.83"/>
                <line class="hi" stroke="#FF0D0D" x1="65.83" x2="65.83" y1="42.84" y2="36.83"/>
            </g>
                  
            <line class="bond" id="mol1bnd11" x1="67.05" x2="80.25" y1="31.52" y2="23.9"/>
                  
            <line class="bond" id="mol1bnd12" x1="80.25" x2="80.25" y1="23.9" y2="8.66"/>
                  
            <line class="bond" id="mol1bnd13" x1="80.25" x2="90.29" y1="23.9" y2="29.71"/>
                  
            <line class="bond" id="mol1bnd14" x1="96.6" x2="106.64" y1="29.71" y2="23.91"/>
                  
            <path class="atom" d="M69.3 46.76q.0 .76 -.26 1.33q-.26 .57 -.76 .88q-.5 .32 -1.24 .32q-.76 .0 -1.26 -.32q-.51 -.32 -.76 -.89q-.24 -.57 -.24 -1.33q.0 -.75 .24 -1.31q.25 -.57 .76 -.88q.51 -.32 1.27 -.32q.73 .0 1.23 .32q.5 .31 .76 .88q.26 .57 .26 1.33zM65.44 46.76q.0 .92 .39 1.46q.39 .53 1.22 .53q.84 .0 1.22 -.53q.39 -.54 .39 -1.46q.0 -.93 -.39 -1.45q-.38 -.52 -1.21 -.52q-.83 .0 -1.23 .52q-.39 .52 -.39 1.45z" fill="#FF0D0D" id="mol1atm10" stroke="none"/>
                  
            <g class="atom" id="mol1atm13">
                        
                <path d="M95.38 33.98h-.72l-2.62 -4.07h-.03q.01 .24 .03 .6q.02 .36 .02 .73v2.74h-.57v-4.9h.71l2.61 4.05h.03q-.01 -.11 -.02 -.33q-.01 -.22 -.02 -.48q-.01 -.26 -.01 -.48v-2.77h.58v4.9z" stroke="none"/>
                        
                <path d="M95.25 39.44h-.62v-2.29h-2.51v2.29h-.61v-4.9h.61v2.07h2.51v-2.07h.62v4.9z" stroke="none"/>
                      
            </g>
                
            <line class="hi" id="mol1bnd13" stroke="#3050F8" x1="90.29" x2="85.27000000000001" y1="29.71" y2="26.805"/>
            <line class="hi" id="mol1bnd14" stroke="#3050F8" x1="96.6" x2="101.62" y1="29.71" y2="26.810000000000002"/>
        </g>
          
    </g>
    
</svg>
