<svg xmlns="http://www.w3.org/2000/svg" xmlns:xlink="http://www.w3.org/1999/xlink" height="95.51mm" version="1.2" viewBox="0 0 81.29 95.51" width="81.29mm">
      
    <desc>Generated by the Chemistry Development Kit (http://github.com/cdk)</desc>
      
    <g fill="#000000" stroke="#000000" stroke-linecap="round" stroke-linejoin="round" stroke-width=".7">
            
        <rect fill="#FFFFFF" height="96.0" stroke="none" width="82.0" x=".0" y=".0"/>
            
        <g class="mol" id="mol1">
                  
            <line class="bond" id="mol1bnd1" x1="80.25" x2="70.32" y1="71.6" y2="65.87"/>
                  
            <line class="bond" id="mol1bnd2" x1="63.77" x2="53.85" y1="65.88" y2="71.6"/>
                  
            <g class="bond" id="mol1bnd3">
                        
                <line x1="53.85" x2="53.85" y1="71.6" y2="82.92"/>
                        
                <line x1="56.29" x2="56.29" y1="73.01" y2="82.92"/>
                      
                <line class="hi" stroke="#FF0D0D" x1="53.85" x2="53.85" y1="82.92" y2="77.25999999999999"/>
                <line class="hi" stroke="#FF0D0D" x1="56.29" x2="56.29" y1="82.92" y2="77.965"/>
            </g>
                  
            <path class="bond" d="M40.83 63.68l-.35 .61l13.37 9.91v-2.6l2.25 -1.3z" id="mol1bnd4" stroke="none"/>
                  
            <line class="bond" id="mol1bnd5" x1="40.65" x2="27.45" y1="63.99" y2="71.61"/>
                  
            <line class="bond" id="mol1bnd6" x1="27.45" x2="27.45" y1="71.61" y2="86.85"/>
                  
            <line class="bond" id="mol1bnd7" x1="27.45" x2="14.25" y1="86.85" y2="94.47"/>
                  
            <line class="bond" id="mol1bnd8" x1="14.25" x2="1.04" y1="94.47" y2="86.85"/>
                  
            <line class="bond" id="mol1bnd9" x1="1.04" x2="1.04" y1="86.85" y2="71.61"/>
                  
            <line class="bond" id="mol1bnd10" x1="1.04" x2="11.09" y1="71.61" y2="65.81"/>
                  
            <path class="bond" d="M27.28 71.91l.35 -.61l-9.39 -6.95l-.84 1.46l-.84 1.46z" id="mol1bnd11" stroke="none"/>
                  
            <line class="bond" id="mol1bnd12" x1="40.65" x2="40.65" y1="63.99" y2="48.75"/>
                  
            <g class="bond" id="mol1bnd13">
                        
                <line x1="27.45" x2="40.65" y1="41.13" y2="48.75"/>
                        
                <line x1="29.89" x2="40.65" y1="39.72" y2="45.93"/>
                      
            </g>
                  
            <line class="bond" id="mol1bnd14" x1="27.45" x2="27.46" y1="41.13" y2="25.88"/>
                  
            <g class="bond" id="mol1bnd15">
                        
                <line x1="40.66" x2="27.46" y1="18.25" y2="25.88"/>
                        
                <line x1="40.66" x2="29.89" y1="21.07" y2="27.29"/>
                      
            </g>
                  
            <line class="bond" id="mol1bnd16" x1="40.66" x2="53.86" y1="18.25" y2="25.87"/>
                  
            <g class="bond" id="mol1bnd17">
                        
                <line x1="53.85" x2="53.86" y1="41.12" y2="25.87"/>
                        
                <line x1="51.41" x2="51.42" y1="39.71" y2="27.28"/>
                      
            </g>
                  
            <line class="bond" id="mol1bnd18" x1="40.65" x2="53.85" y1="48.75" y2="41.12"/>
                  
            <line class="bond" id="mol1bnd19" x1="40.66" x2="40.66" y1="18.25" y2="6.07"/>
                  
            <path class="atom" d="M69.31 63.98q.0 .76 -.26 1.33q-.26 .57 -.76 .88q-.5 .32 -1.24 .32q-.76 .0 -1.26 -.32q-.51 -.32 -.76 -.89q-.24 -.57 -.24 -1.33q.0 -.75 .24 -1.31q.25 -.57 .76 -.88q.51 -.32 1.27 -.32q.73 .0 1.23 .32q.5 .31 .76 .88q.26 .57 .26 1.33zM65.44 63.98q.0 .92 .39 1.46q.39 .53 1.22 .53q.84 .0 1.22 -.53q.39 -.54 .39 -1.46q.0 -.93 -.39 -1.45q-.38 -.52 -1.21 -.52q-.83 .0 -1.23 .52q-.39 .52 -.39 1.45z" fill="#FF0D0D" id="mol1atm2" stroke="none"/>
                  
            <path class="atom" d="M57.33 86.84q.0 .76 -.26 1.33q-.26 .57 -.76 .88q-.5 .32 -1.24 .32q-.76 .0 -1.26 -.32q-.51 -.32 -.76 -.89q-.24 -.57 -.24 -1.33q.0 -.75 .24 -1.31q.25 -.57 .76 -.88q.51 -.32 1.27 -.32q.73 .0 1.23 .32q.5 .31 .76 .88q.26 .57 .26 1.33zM53.47 86.84q.0 .92 .39 1.46q.39 .53 1.22 .53q.84 .0 1.22 -.53q.39 -.54 .39 -1.46q.0 -.93 -.39 -1.45q-.38 -.52 -1.21 -.52q-.83 .0 -1.23 .52q-.39 .52 -.39 1.45z" fill="#FF0D0D" id="mol1atm4" stroke="none"/>
                  
            <g class="atom" id="mol1atm11">
                        
                <path d="M16.19 66.44h-.72l-2.62 -4.07h-.03q.01 .24 .03 .6q.02 .36 .02 .73v2.74h-.57v-4.9h.71l2.61 4.05h.03q-.01 -.11 -.02 -.33q-.01 -.22 -.02 -.48q-.01 -.26 -.01 -.48v-2.77h.58v4.9z" fill="#3050F8" stroke="none"/>
                        
                <path d="M16.05 60.98h-.62v-2.29h-2.51v2.29h-.61v-4.9h.61v2.07h2.51v-2.07h.62v4.9z" fill="#3050F8" stroke="none"/>
                      
            </g>
                  
            <path class="atom" d="M39.9 5.46h-.61v-4.9h2.73v.54h-2.12v1.74h1.99v.54h-1.99v2.08z" fill="#90E050" id="mol1atm18" stroke="none"/>
                
            <line class="hi" id="mol1bnd1" stroke="#FF0D0D" x1="70.32" x2="75.285" y1="65.87" y2="68.735"/>
            <line class="hi" id="mol1bnd2" stroke="#FF0D0D" x1="63.77" x2="58.81" y1="65.88" y2="68.74"/>
            <line class="hi" id="mol1bnd10" stroke="#3050F8" x1="11.09" x2="6.0649999999999995" y1="65.81" y2="68.71000000000001"/>
            <line class="hi" id="mol1bnd10" stroke="#3050F8" x1="11.09" x2="6.0649999999999995" y1="65.81" y2="68.71000000000001"/>
            <line class="hi" id="mol1bnd19" stroke="#90E050" x1="40.66" x2="40.66" y1="6.07" y2="12.16"/>
        </g>
          
    </g>
    
</svg>
