<svg xmlns="http://www.w3.org/2000/svg" xmlns:xlink="http://www.w3.org/1999/xlink" height="41.97mm" version="1.2" viewBox="0 0 95.37 41.97" width="95.37mm">
      
    <desc>Generated by the Chemistry Development Kit (http://github.com/cdk)</desc>
      
    <g fill="#3050F8" stroke="#000000" stroke-linecap="round" stroke-linejoin="round" stroke-width=".7">
            
        <rect fill="#FFFFFF" height="42.0" stroke="none" width="96.0" x=".0" y=".0"/>
            
        <g class="mol" id="mol1">
                  
            <line class="bond" id="mol1bnd1" x1="67.94" x2="67.94" y1="31.33" y2="16.09"/>
                  
            <line class="bond" id="mol1bnd2" x1="67.94" x2="54.74" y1="16.09" y2="8.48"/>
                  
            <line class="bond" id="mol1bnd3" x1="54.74" x2="41.54" y1="8.48" y2="16.1"/>
                  
            <g class="bond" id="mol1bnd4">
                        
                <line x1="41.54" x2="41.54" y1="31.34" y2="16.1"/>
                        
                <line x1="39.1" x2="39.1" y1="29.93" y2="17.51"/>
                      
            </g>
                  
            <line class="bond" id="mol1bnd5" x1="41.54" x2="28.33" y1="31.34" y2="38.96"/>
                  
            <g class="bond" id="mol1bnd6">
                        
                <line x1="15.12" x2="28.33" y1="31.34" y2="38.96"/>
                        
                <line x1="17.56" x2="28.33" y1="29.93" y2="36.14"/>
                      
            </g>
                  
            <line class="bond" id="mol1bnd7" x1="15.12" x2="15.12" y1="31.34" y2="16.1"/>
                  
            <g class="bond" id="mol1bnd8">
                        
                <line x1="28.33" x2="15.12" y1="8.48" y2="16.1"/>
                        
                <line x1="28.33" x2="17.56" y1="11.29" y2="17.51"/>
                      
            </g>
                  
            <line class="bond" id="mol1bnd9" x1="41.54" x2="28.33" y1="16.1" y2="8.48"/>
                  
            <line class="bond" id="mol1bnd10" x1="15.12" x2="4.44" y1="31.34" y2="37.51"/>
                  
            <line class="bond" id="mol1bnd11" x1="67.94" x2="77.98" y1="16.09" y2="10.29"/>
                  
            <line class="bond" id="mol1bnd12" x1="84.29" x2="94.33" y1="10.29" y2="16.09"/>
                  
            <path class="atom" d="M1.17 41.41h-.61v-4.9h2.73v.54h-2.12v1.74h1.99v.54h-1.99v2.08z" fill="#90E050" id="mol1atm10" stroke="none"/>
                  
            <g class="atom" id="mol1atm11">
                        
                <path d="M83.07 10.92h-.72l-2.62 -4.07h-.03q.01 .24 .03 .6q.02 .36 .02 .73v2.74h-.57v-4.9h.71l2.61 4.05h.03q-.01 -.11 -.02 -.33q-.01 -.22 -.02 -.48q-.01 -.26 -.01 -.48v-2.77h.58v4.9z" stroke="none"/>
                        
                <path d="M82.94 5.46h-.62v-2.29h-2.51v2.29h-.61v-4.9h.61v2.07h2.51v-2.07h.62v4.9z" stroke="none"/>
                      
            </g>
                
            <line class="hi" id="mol1bnd10" stroke="#90E050" x1="4.4399999999999995" x2="9.78" y1="37.51" y2="34.425"/>
            <line class="hi" id="mol1bnd11" stroke="#3050F8" x1="77.98" x2="72.96000000000001" y1="10.29" y2="13.19"/>
            <line class="hi" id="mol1bnd11" stroke="#3050F8" x1="77.98" x2="72.96000000000001" y1="10.29" y2="13.19"/>
            <line class="hi" id="mol1bnd12" stroke="#3050F8" x1="84.29" x2="89.31" y1="10.29" y2="13.19"/>
            <line class="hi" id="mol1bnd12" stroke="#3050F8" x1="84.29" x2="89.31" y1="10.29" y2="13.19"/>
        </g>
          
    </g>
    
</svg>
