<svg xmlns="http://www.w3.org/2000/svg" xmlns:xlink="http://www.w3.org/1999/xlink" height="57.36mm" version="1.2" viewBox="0 0 87.9 57.36" width="87.9mm">
      
    <desc>Generated by the Chemistry Development Kit (http://github.com/cdk)</desc>
      
    <g fill="#3050F8" stroke="#000000" stroke-linecap="round" stroke-linejoin="round" stroke-width=".7">
            
        <rect fill="#FFFFFF" height="58.0" stroke="none" width="88.0" x=".0" y=".0"/>
            
        <g class="mol" id="mol1">
                  
            <line class="bond" id="mol1bnd1" x1="81.1" x2="67.91" y1="33.46" y2="25.84"/>
                  
            <line class="bond" id="mol1bnd2" x1="67.91" x2="57.86" y1="25.84" y2="31.65"/>
                  
            <line class="bond" id="mol1bnd3" x1="54.71" x2="54.71" y1="37.32" y2="48.71"/>
                  
            <line class="bond" id="mol1bnd4" x1="54.71" x2="67.9" y1="48.71" y2="56.32"/>
                  
            <line class="bond" id="mol1bnd5" x1="67.9" x2="77.94" y1="56.32" y2="50.52"/>
                  
            <line class="bond" id="mol1bnd6" x1="81.1" x2="81.09" y1="33.46" y2="44.85"/>
                  
            <line class="bond" id="mol1bnd7" x1="51.56" x2="41.52" y1="31.65" y2="25.85"/>
                  
            <g class="bond" id="mol1bnd8">
                        
                <line x1="28.32" x2="41.52" y1="33.47" y2="25.85"/>
                        
                <line x1="28.32" x2="39.08" y1="30.66" y2="24.44"/>
                      
            </g>
                  
            <line class="bond" id="mol1bnd9" x1="28.32" x2="15.12" y1="33.47" y2="25.86"/>
                  
            <g class="bond" id="mol1bnd10">
                        
                <line x1="15.12" x2="15.12" y1="10.63" y2="25.86"/>
                        
                <line x1="17.56" x2="17.56" y1="12.03" y2="24.45"/>
                      
            </g>
                  
            <line class="bond" id="mol1bnd11" x1="15.12" x2="28.32" y1="10.63" y2="3.01"/>
                  
            <g class="bond" id="mol1bnd12">
                        
                <line x1="41.52" x2="28.32" y1="10.62" y2="3.01"/>
                        
                <line x1="39.08" x2="28.32" y1="12.03" y2="5.82"/>
                      
            </g>
                  
            <line class="bond" id="mol1bnd13" x1="41.52" x2="41.52" y1="25.85" y2="10.62"/>
                  
            <line class="bond" id="mol1bnd14" x1="15.12" x2="4.17" y1="10.63" y2="4.3"/>
                  
            <path class="atom" d="M56.65 35.92h-.72l-2.62 -4.07h-.03q.01 .24 .03 .6q.02 .36 .02 .73v2.74h-.57v-4.9h.71l2.61 4.05h.03q-.01 -.11 -.02 -.33q-.01 -.22 -.02 -.48q-.01 -.26 -.01 -.48v-2.77h.58v4.9z" id="mol1atm3" stroke="none"/>
                  
            <g class="atom" id="mol1atm6">
                        
                <path d="M83.03 51.15h-.72l-2.62 -4.07h-.03q.01 .24 .03 .6q.02 .36 .02 .73v2.74h-.57v-4.9h.71l2.61 4.05h.03q-.01 -.11 -.02 -.33q-.01 -.22 -.02 -.48q-.01 -.26 -.01 -.48v-2.77h.58v4.9z" stroke="none"/>
                        
                <path d="M87.34 51.15h-.62v-2.29h-2.51v2.29h-.61v-4.9h.61v2.07h2.51v-2.07h.62v4.9z" stroke="none"/>
                      
            </g>
                  
            <path class="atom" d="M1.17 5.46h-.61v-4.9h2.73v.54h-2.12v1.74h1.99v.54h-1.99v2.08z" fill="#90E050" id="mol1atm13" stroke="none"/>
                
            <line class="hi" id="mol1bnd2" stroke="#3050F8" x1="57.86" x2="62.885" y1="31.65" y2="28.744999999999997"/>
            <line class="hi" id="mol1bnd3" stroke="#3050F8" x1="54.71" x2="54.71" y1="37.32" y2="43.015"/>
            <line class="hi" id="mol1bnd5" stroke="#3050F8" x1="77.94" x2="72.92" y1="50.52" y2="53.42"/>
            <line class="hi" id="mol1bnd6" stroke="#3050F8" x1="81.09" x2="81.095" y1="44.85" y2="39.155"/>
            <line class="hi" id="mol1bnd7" stroke="#3050F8" x1="51.56" x2="46.540000000000006" y1="31.65" y2="28.75"/>
            <line class="hi" id="mol1bnd14" stroke="#90E050" x1="4.17" x2="9.645" y1="4.3" y2="7.465"/>
        </g>
          
    </g>
    
</svg>
