<svg xmlns="http://www.w3.org/2000/svg" xmlns:xlink="http://www.w3.org/1999/xlink" height="64.8mm" version="1.2" viewBox="0 0 82.15 64.8" width="82.15mm">
      
    <desc>Generated by the Chemistry Development Kit (http://github.com/cdk)</desc>
      
    <g fill="#3050F8" stroke="#000000" stroke-linecap="round" stroke-linejoin="round" stroke-width=".7">
            
        <rect fill="#FFFFFF" height="65.0" stroke="none" width="83.0" x=".0" y=".0"/>
            
        <g class="mol" id="mol1">
                  
            <line class="bond" id="mol1bnd1" x1="40.63" x2="27.44" y1="56.33" y2="48.71"/>
                  
            <line class="bond" id="mol1bnd2" x1="27.44" x2="27.44" y1="48.71" y2="33.48"/>
                  
            <line class="bond" id="mol1bnd3" x1="27.44" x2="17.51" y1="33.48" y2="27.75"/>
                  
            <line class="bond" id="mol1bnd4" x1="10.96" x2="1.04" y1="27.75" y2="33.48"/>
                  
            <line class="bond" id="mol1bnd5" x1="1.04" x2="1.04" y1="33.48" y2="48.71"/>
                  
            <line class="bond" id="mol1bnd6" x1="1.04" x2="11.09" y1="48.71" y2="54.5"/>
                  
            <line class="bond" id="mol1bnd7" x1="27.44" x2="17.39" y1="48.71" y2="54.5"/>
                  
            <line class="bond" id="mol1bnd8" x1="27.44" x2="40.63" y1="33.48" y2="25.86"/>
                  
            <g class="bond" id="mol1bnd9">
                        
                <line x1="40.63" x2="40.63" y1="10.63" y2="25.86"/>
                        
                <line x1="43.07" x2="43.07" y1="12.04" y2="24.45"/>
                      
            </g>
                  
            <line class="bond" id="mol1bnd10" x1="40.63" x2="53.83" y1="10.63" y2="3.01"/>
                  
            <g class="bond" id="mol1bnd11">
                        
                <line x1="67.03" x2="53.83" y1="10.63" y2="3.01"/>
                        
                <line x1="64.59" x2="53.83" y1="12.04" y2="5.83"/>
                      
            </g>
                  
            <line class="bond" id="mol1bnd12" x1="67.03" x2="67.03" y1="10.63" y2="25.86"/>
                  
            <g class="bond" id="mol1bnd13">
                        
                <line x1="53.83" x2="67.03" y1="33.47" y2="25.86"/>
                        
                <line x1="53.83" x2="64.59" y1="30.66" y2="24.45"/>
                      
            </g>
                  
            <line class="bond" id="mol1bnd14" x1="40.63" x2="53.83" y1="25.86" y2="33.47"/>
                  
            <line class="bond" id="mol1bnd15" x1="67.03" x2="77.64" y1="10.63" y2="4.5"/>
                  
            <path class="atom" d="M16.5 25.86q.0 .76 -.26 1.33q-.26 .57 -.76 .88q-.5 .32 -1.24 .32q-.76 .0 -1.26 -.32q-.51 -.32 -.76 -.89q-.24 -.57 -.24 -1.33q.0 -.75 .24 -1.31q.25 -.57 .76 -.88q.51 -.32 1.27 -.32q.73 .0 1.23 .32q.5 .31 .76 .88q.26 .57 .26 1.33zM12.63 25.86q.0 .92 .39 1.46q.39 .53 1.22 .53q.84 .0 1.22 -.53q.39 -.54 .39 -1.46q.0 -.93 -.39 -1.45q-.38 -.52 -1.21 -.52q-.83 .0 -1.23 .52q-.39 .52 -.39 1.45z" fill="#FF0D0D" id="mol1atm4" stroke="none"/>
                  
            <g class="atom" id="mol1atm7">
                        
                <path d="M16.18 58.77h-.72l-2.62 -4.07h-.03q.01 .24 .03 .6q.02 .36 .02 .73v2.74h-.57v-4.9h.71l2.61 4.05h.03q-.01 -.11 -.02 -.33q-.01 -.22 -.02 -.48q-.01 -.26 -.01 -.48v-2.77h.58v4.9z" stroke="none"/>
                        
                <path d="M16.04 64.24h-.62v-2.29h-2.51v2.29h-.61v-4.9h.61v2.07h2.51v-2.07h.62v4.9z" stroke="none"/>
                      
            </g>
                  
            <path class="atom" d="M79.47 5.46h-.61v-4.9h2.73v.54h-2.12v1.74h1.99v.54h-1.99v2.08z" fill="#90E050" id="mol1atm14" stroke="none"/>
                
            <line class="hi" id="mol1bnd3" stroke="#FF0D0D" x1="17.51" x2="22.475" y1="27.75" y2="30.615"/>
            <line class="hi" id="mol1bnd4" stroke="#FF0D0D" x1="10.96" x2="6.0" y1="27.75" y2="30.615"/>
            <line class="hi" id="mol1bnd6" stroke="#3050F8" x1="11.09" x2="6.0649999999999995" y1="54.5" y2="51.605000000000004"/>
            <line class="hi" id="mol1bnd7" stroke="#3050F8" x1="17.39" x2="22.415" y1="54.5" y2="51.605000000000004"/>
            <line class="hi" id="mol1bnd15" stroke="#90E050" x1="77.64" x2="72.33500000000001" y1="4.5" y2="7.565"/>
        </g>
          
    </g>
    
</svg>
