<svg xmlns="http://www.w3.org/2000/svg" xmlns:xlink="http://www.w3.org/1999/xlink" height="79.01mm" version="1.2" viewBox="0 0 87.14 79.01" width="87.14mm">
      
    <desc>Generated by the Chemistry Development Kit (http://github.com/cdk)</desc>
      
    <g fill="#3050F8" stroke="#000000" stroke-linecap="round" stroke-linejoin="round" stroke-width=".7">
            
        <rect fill="#FFFFFF" height="80.0" stroke="none" width="88.0" x=".0" y=".0"/>
            
        <g class="mol" id="mol1">
                  
            <line class="bond" id="mol1bnd1" x1="60.18" x2="65.66" y1="1.04" y2="10.59"/>
                  
            <line class="bond" id="mol1bnd2" x1="71.1" x2="82.88" y1="14.6" y2="15.85"/>
                  
            <line class="bond" id="mol1bnd3" x1="82.88" x2="86.1" y1="15.85" y2="30.77"/>
                  
            <line class="bond" id="mol1bnd4" x1="86.1" x2="72.9" y1="30.77" y2="38.39"/>
                  
            <line class="bond" id="mol1bnd5" x1="72.9" x2="61.5" y1="38.39" y2="28.19"/>
                  
            <line class="bond" id="mol1bnd6" x1="66.09" x2="61.5" y1="17.98" y2="28.19"/>
                  
            <g class="bond" id="mol1bnd7">
                        
                <line x1="61.39" x2="61.61" y1="28.52" y2="27.86"/>
                        
                <line x1="58.82" x2="59.22" y1="29.33" y2="28.11"/>
                        
                <line x1="56.24" x2="56.82" y1="30.13" y2="28.36"/>
                        
                <line x1="53.67" x2="54.43" y1="30.94" y2="28.61"/>
                        
                <line x1="51.09" x2="52.03" y1="31.74" y2="28.86"/>
                        
                <line x1="48.52" x2="49.64" y1="32.55" y2="29.11"/>
                        
                <line x1="45.94" x2="47.24" y1="33.35" y2="29.36"/>
                      
            </g>
                  
            <line class="bond" id="mol1bnd8" x1="46.59" x2="41.88" y1="31.36" y2="45.85"/>
                  
            <g class="bond" id="mol1bnd9">
                        
                <line x1="50.82" x2="41.88" y1="58.14" y2="45.85"/>
                        
                <line x1="47.81" x2="40.95" y1="58.15" y2="48.72"/>
                      
            </g>
                  
            <line class="bond" id="mol1bnd10" x1="50.82" x2="44.47" y1="58.14" y2="66.95"/>
                  
            <line class="bond" id="mol1bnd11" x1="38.61" x2="27.45" y1="69.46" y2="65.76"/>
                  
            <g class="bond" id="mol1bnd12">
                        
                <line x1="27.45" x2="27.45" y1="65.76" y2="50.52"/>
                        
                <line x1="25.02" x2="25.02" y1="64.36" y2="51.93"/>
                      
            </g>
                  
            <line class="bond" id="mol1bnd13" x1="41.88" x2="27.45" y1="45.85" y2="50.52"/>
                  
            <line class="bond" id="mol1bnd14" x1="27.45" x2="14.25" y1="50.52" y2="42.9"/>
                  
            <g class="bond" id="mol1bnd15">
                        
                <line x1="14.25" x2="1.04" y1="42.9" y2="50.52"/>
                        
                <line x1="14.25" x2="3.48" y1="45.72" y2="51.93"/>
                      
            </g>
                  
            <line class="bond" id="mol1bnd16" x1="1.04" x2="1.04" y1="50.52" y2="65.76"/>
                  
            <g class="bond" id="mol1bnd17">
                        
                <line x1="1.04" x2="14.25" y1="65.76" y2="73.38"/>
                        
                <line x1="3.48" x2="14.25" y1="64.36" y2="70.57"/>
                      
            </g>
                  
            <line class="bond" id="mol1bnd18" x1="27.45" x2="14.25" y1="65.76" y2="73.38"/>
                  
            <line class="bond" id="mol1bnd19" x1="14.25" x2="14.25" y1="42.9" y2="31.59"/>
                  
            <path class="atom" d="M69.71 16.7h-.72l-2.62 -4.07h-.03q.01 .24 .03 .6q.02 .36 .02 .73v2.74h-.57v-4.9h.71l2.61 4.05h.03q-.01 -.11 -.02 -.33q-.01 -.22 -.02 -.48q-.01 -.26 -.01 -.48v-2.77h.58v4.9z" id="mol1atm2" stroke="none"/>
                  
            <g class="atom" id="mol1atm10">
                        
                <path d="M43.82 72.99h-.72l-2.62 -4.07h-.03q.01 .24 .03 .6q.02 .36 .02 .73v2.74h-.57v-4.9h.71l2.61 4.05h.03q-.01 -.11 -.02 -.33q-.01 -.22 -.02 -.48q-.01 -.26 -.01 -.48v-2.77h.58v4.9z" stroke="none"/>
                        
                <path d="M43.69 78.45h-.62v-2.29h-2.51v2.29h-.61v-4.9h.61v2.07h2.51v-2.07h.62v4.9z" stroke="none"/>
                      
            </g>
                  
            <g class="atom" id="mol1atm17">
                        
                <path d="M16.51 27.66q.0 .76 -.26 1.33q-.26 .57 -.76 .88q-.5 .32 -1.24 .32q-.76 .0 -1.26 -.32q-.51 -.32 -.76 -.89q-.24 -.57 -.24 -1.33q.0 -.75 .24 -1.31q.25 -.57 .76 -.88q.51 -.32 1.27 -.32q.73 .0 1.23 .32q.5 .31 .76 .88q.26 .57 .26 1.33zM12.64 27.66q.0 .92 .39 1.46q.39 .53 1.22 .53q.84 .0 1.22 -.53q.39 -.54 .39 -1.46q.0 -.93 -.39 -1.45q-.38 -.52 -1.21 -.52q-.83 .0 -1.23 .52q-.39 .52 -.39 1.45z" fill="#FF0D0D" stroke="none"/>
                        
                <path d="M20.81 30.11h-.62v-2.29h-2.51v2.29h-.61v-4.9h.61v2.07h2.51v-2.07h.62v4.9z" fill="#FF0D0D" stroke="none"/>
                      
            </g>
                
            <line class="hi" id="mol1bnd1" stroke="#3050F8" x1="65.66" x2="62.92" y1="10.59" y2="5.8149999999999995"/>
            <line class="hi" id="mol1bnd2" stroke="#3050F8" x1="71.1" x2="76.99" y1="14.6" y2="15.225"/>
            <line class="hi" id="mol1bnd6" stroke="#3050F8" x1="66.09" x2="63.795" y1="17.98" y2="23.085"/>
            <line class="hi" id="mol1bnd10" stroke="#3050F8" x1="44.47" x2="47.644999999999996" y1="66.95" y2="62.545"/>
            <line class="hi" id="mol1bnd11" stroke="#3050F8" x1="38.61" x2="33.03" y1="69.46" y2="67.61"/>
            <line class="hi" id="mol1bnd19" stroke="#FF0D0D" x1="14.25" x2="14.25" y1="31.59" y2="37.245"/>
            <line class="hi" id="mol1bnd19" stroke="#FF0D0D" x1="14.25" x2="14.25" y1="31.59" y2="37.245"/>
        </g>
          
    </g>
    
</svg>
