<svg xmlns="http://www.w3.org/2000/svg" xmlns:xlink="http://www.w3.org/1999/xlink" height="93.41mm" version="1.2" viewBox="0 0 81.29 93.41" width="81.29mm">
      
    <desc>Generated by the Chemistry Development Kit (http://github.com/cdk)</desc>
      
    <g fill="#FF0D0D" stroke="#000000" stroke-linecap="round" stroke-linejoin="round" stroke-width=".7">
            
        <rect fill="#FFFFFF" height="94.0" stroke="none" width="82.0" x=".0" y=".0"/>
            
        <g class="mol" id="mol1">
                  
            <line class="bond" id="mol1bnd1" x1="40.63" x2="40.63" y1=".91" y2="16.15"/>
                  
            <g class="bond" id="mol1bnd2">
                        
                <line x1="53.83" x2="40.63" y1="23.77" y2="16.15"/>
                        
                <line x1="51.4" x2="40.63" y1="25.18" y2="18.97"/>
                      
            </g>
                  
            <line class="bond" id="mol1bnd3" x1="53.83" x2="53.84" y1="23.77" y2="39.02"/>
                  
            <g class="bond" id="mol1bnd4">
                        
                <line x1="40.65" x2="53.84" y1="46.65" y2="39.02"/>
                        
                <line x1="40.65" x2="51.41" y1="43.83" y2="37.62"/>
                      
            </g>
                  
            <line class="bond" id="mol1bnd5" x1="40.65" x2="27.44" y1="46.65" y2="39.02"/>
                  
            <g class="bond" id="mol1bnd6">
                        
                <line x1="27.43" x2="27.44" y1="23.77" y2="39.02"/>
                        
                <line x1="29.87" x2="29.88" y1="25.18" y2="37.61"/>
                      
            </g>
                  
            <line class="bond" id="mol1bnd7" x1="40.63" x2="27.43" y1="16.15" y2="23.77"/>
                  
            <path class="bond" d="M40.3 61.89h.7l1.9 -16.54l-2.25 1.3l-2.25 -1.3z" fill="#000000" id="mol1bnd8" stroke="none"/>
                  
            <line class="bond" id="mol1bnd9" x1="40.65" x2="27.45" y1="61.89" y2="69.51"/>
                  
            <line class="bond" id="mol1bnd10" x1="27.45" x2="27.45" y1="69.51" y2="84.75"/>
                  
            <line class="bond" id="mol1bnd11" x1="27.45" x2="14.25" y1="84.75" y2="92.37"/>
                  
            <line class="bond" id="mol1bnd12" x1="14.25" x2="1.04" y1="92.37" y2="84.75"/>
                  
            <line class="bond" id="mol1bnd13" x1="1.04" x2="1.04" y1="84.75" y2="69.51"/>
                  
            <line class="bond" id="mol1bnd14" x1="1.04" x2="11.09" y1="69.51" y2="63.71"/>
                  
            <g class="bond" id="mol1bnd15">
                        
                <line stroke="#000000" x1="27.28" x2="27.63" y1="69.81" y2="69.21"/>
                        
                <line stroke="#3050F8" x1="25.27" x2="25.87" y1="68.94" y2="67.9"/>
                        
                <line stroke="#3050F8" x1="23.26" x2="24.11" y1="68.07" y2="66.6"/>
                        
                <line stroke="#3050F8" x1="21.24" x2="22.34" y1="67.2" y2="65.29"/>
                        
                <line stroke="#3050F8" x1="19.23" x2="20.58" y1="66.32" y2="63.99"/>
                        
                <line stroke="#3050F8" x1="17.22" x2="18.82" y1="65.45" y2="62.68"/>
                      
            </g>
                  
            <line class="bond" id="mol1bnd16" x1="40.65" x2="53.85" y1="61.89" y2="69.5"/>
                  
            <g class="bond" id="mol1bnd17">
                        
                <line x1="55.07" x2="55.07" y1="68.8" y2="80.82"/>
                        
                <line x1="52.63" x2="52.63" y1="68.8" y2="80.82"/>
                      
                <line class="hi" stroke="#FF0D0D" x1="55.07" x2="55.07" y1="80.82" y2="74.81"/>
                <line class="hi" stroke="#FF0D0D" x1="52.63" x2="52.63" y1="80.82" y2="74.81"/>
            </g>
                  
            <line class="bond" id="mol1bnd18" x1="53.85" x2="63.77" y1="69.5" y2="63.78"/>
                  
            <line class="bond" id="mol1bnd19" x1="70.32" x2="80.25" y1="63.77" y2="69.5"/>
                  
            <g class="atom" id="mol1atm14">
                        
                <path d="M16.19 64.34h-.72l-2.62 -4.07h-.03q.01 .24 .03 .6q.02 .36 .02 .73v2.74h-.57v-4.9h.71l2.61 4.05h.03q-.01 -.11 -.02 -.33q-.01 -.22 -.02 -.48q-.01 -.26 -.01 -.48v-2.77h.58v4.9z" fill="#3050F8" stroke="none"/>
                        
                <path d="M16.05 58.88h-.62v-2.29h-2.51v2.29h-.61v-4.9h.61v2.07h2.51v-2.07h.62v4.9z" fill="#3050F8" stroke="none"/>
                      
            </g>
                  
            <path class="atom" d="M56.11 84.74q.0 .76 -.26 1.33q-.26 .57 -.76 .88q-.5 .32 -1.24 .32q-.76 .0 -1.26 -.32q-.51 -.32 -.76 -.89q-.24 -.57 -.24 -1.33q.0 -.75 .24 -1.31q.25 -.57 .76 -.88q.51 -.32 1.27 -.32q.73 .0 1.23 .32q.5 .31 .76 .88q.26 .57 .26 1.33zM52.25 84.74q.0 .92 .39 1.46q.39 .53 1.22 .53q.84 .0 1.22 -.53q.39 -.54 .39 -1.46q.0 -.93 -.39 -1.45q-.38 -.52 -1.21 -.52q-.83 .0 -1.23 .52q-.39 .52 -.39 1.45z" id="mol1atm16" stroke="none"/>
                  
            <path class="atom" d="M69.31 61.88q.0 .76 -.26 1.33q-.26 .57 -.76 .88q-.5 .32 -1.24 .32q-.76 .0 -1.26 -.32q-.51 -.32 -.76 -.89q-.24 -.57 -.24 -1.33q.0 -.75 .24 -1.31q.25 -.57 .76 -.88q.51 -.32 1.27 -.32q.73 .0 1.23 .32q.5 .31 .76 .88q.26 .57 .26 1.33zM65.44 61.88q.0 .92 .39 1.46q.39 .53 1.22 .53q.84 .0 1.22 -.53q.39 -.54 .39 -1.46q.0 -.93 -.39 -1.45q-.38 -.52 -1.21 -.52q-.83 .0 -1.23 .52q-.39 .52 -.39 1.45z" id="mol1atm17" stroke="none"/>
                
            <line class="hi" id="mol1bnd14" stroke="#3050F8" x1="11.09" x2="6.0649999999999995" y1="63.71" y2="66.61"/>
            <line class="hi" id="mol1bnd14" stroke="#3050F8" x1="11.09" x2="6.0649999999999995" y1="63.71" y2="66.61"/>
            <line class="hi" id="mol1bnd18" stroke="#FF0D0D" x1="63.77" x2="58.81" y1="63.78" y2="66.64"/>
            <line class="hi" id="mol1bnd19" stroke="#FF0D0D" x1="70.32" x2="75.285" y1="63.77" y2="66.635"/>
        </g>
          
    </g>
    
</svg>
