<svg xmlns="http://www.w3.org/2000/svg" xmlns:xlink="http://www.w3.org/1999/xlink" height="34.6mm" version="1.2" viewBox="0 0 94.48 34.6" width="94.48mm">
      
    <desc>Generated by the Chemistry Development Kit (http://github.com/cdk)</desc>
      
    <g fill="#3050F8" stroke="#000000" stroke-linecap="round" stroke-linejoin="round" stroke-width=".7">
            
        <rect fill="#FFFFFF" height="35.0" stroke="none" width="95.0" x=".0" y=".0"/>
            
        <g class="mol" id="mol1">
                  
            <line class="bond" id="mol1bnd1" x1="93.44" x2="80.25" y1="1.04" y2="8.66"/>
                  
            <line class="bond" id="mol1bnd2" x1="80.25" x2="67.05" y1="8.66" y2="1.04"/>
                  
            <line class="bond" id="mol1bnd3" x1="67.05" x2="53.85" y1="1.04" y2="8.66"/>
                  
            <g class="bond" id="mol1bnd4">
                        
                <line x1="53.85" x2="40.64" y1="8.66" y2="1.04"/>
                        
                <line x1="51.41" x2="40.64" y1="10.07" y2="3.86"/>
                      
            </g>
                  
            <line class="bond" id="mol1bnd5" x1="40.64" x2="27.43" y1="1.04" y2="8.66"/>
                  
            <g class="bond" id="mol1bnd6">
                        
                <line x1="27.43" x2="27.43" y1="8.66" y2="23.9"/>
                        
                <line x1="29.87" x2="29.87" y1="10.07" y2="22.5"/>
                      
            </g>
                  
            <line class="bond" id="mol1bnd7" x1="27.43" x2="40.64" y1="23.9" y2="31.52"/>
                  
            <g class="bond" id="mol1bnd8">
                        
                <line x1="40.64" x2="53.85" y1="31.52" y2="23.9"/>
                        
                <line x1="40.64" x2="51.41" y1="28.71" y2="22.5"/>
                      
            </g>
                  
            <line class="bond" id="mol1bnd9" x1="53.85" x2="53.85" y1="8.66" y2="23.9"/>
                  
            <line class="bond" id="mol1bnd10" x1="27.43" x2="16.93" y1="23.9" y2="29.97"/>
                  
            <line class="bond" id="mol1bnd11" x1="11.53" x2="1.04" y1="29.96" y2="23.91"/>
                  
            <line class="bond" id="mol1bnd12" x1="80.25" x2="80.25" y1="8.66" y2="20.05"/>
                  
            <path class="atom" d="M15.78 32.66q.0 .65 -.48 1.02q-.47 .36 -1.27 .36q-.42 .0 -.77 -.07q-.35 -.06 -.58 -.17v-.59q.24 .11 .61 .2q.37 .09 .76 .09q.55 .0 .83 -.21q.28 -.21 .28 -.58q.0 -.24 -.11 -.4q-.1 -.17 -.35 -.31q-.25 -.14 -.7 -.3q-.63 -.23 -.95 -.55q-.32 -.33 -.32 -.9q.0 -.39 .2 -.67q.2 -.28 .55 -.43q.36 -.15 .82 -.15q.4 .0 .74 .08q.34 .07 .61 .2l-.2 .53q-.25 -.11 -.55 -.18q-.3 -.08 -.63 -.08q-.46 .0 -.69 .2q-.23 .2 -.23 .52q.0 .24 .1 .41q.11 .17 .34 .3q.23 .13 .63 .28q.43 .15 .73 .34q.3 .18 .45 .43q.15 .25 .15 .64z" fill="#C6C62C" id="mol1atm10" stroke="none"/>
                  
            <g class="atom" id="mol1atm12">
                        
                <path d="M82.19 26.35h-.72l-2.62 -4.07h-.03q.01 .24 .03 .6q.02 .36 .02 .73v2.74h-.57v-4.9h.71l2.61 4.05h.03q-.01 -.11 -.02 -.33q-.01 -.22 -.02 -.48q-.01 -.26 -.01 -.48v-2.77h.58v4.9z" stroke="none"/>
                        
                <path d="M86.5 26.35h-.62v-2.29h-2.51v2.29h-.61v-4.9h.61v2.07h2.51v-2.07h.62v4.9z" stroke="none"/>
                        
                <path d="M89.0 27.84h-1.94v-.3l.77 -.78q.22 -.22 .37 -.39q.15 -.18 .23 -.34q.08 -.17 .08 -.36q.0 -.24 -.15 -.37q-.14 -.13 -.37 -.13q-.21 .0 -.38 .08q-.16 .08 -.33 .21l-.19 -.24q.17 -.15 .39 -.25q.23 -.1 .51 -.1q.41 .0 .65 .21q.24 .21 .24 .58q.0 .23 -.1 .43q-.09 .2 -.26 .4q-.17 .2 -.39 .42l-.61 .6v.02h1.49v.33z" stroke="none"/>
                      
            </g>
                
            <line class="hi" id="mol1bnd10" stroke="#C6C62C" x1="16.93" x2="22.18" y1="29.97" y2="26.935"/>
            <line class="hi" id="mol1bnd11" stroke="#C6C62C" x1="11.53" x2="6.285" y1="29.96" y2="26.935000000000002"/>
            <line class="hi" id="mol1bnd12" stroke="#3050F8" x1="80.25" x2="80.25" y1="20.05" y2="14.355"/>
        </g>
          
    </g>
    
</svg>
