<svg xmlns="http://www.w3.org/2000/svg" xmlns:xlink="http://www.w3.org/1999/xlink" height="65.59mm" version="1.2" viewBox="0 0 97.84 65.59" width="97.84mm">
      
    <desc>Generated by the Chemistry Development Kit (http://github.com/cdk)</desc>
      
    <g fill="#3050F8" stroke="#000000" stroke-linecap="round" stroke-linejoin="round" stroke-width=".7">
            
        <rect fill="#FFFFFF" height="66.0" stroke="none" width="98.0" x=".0" y=".0"/>
            
        <g class="mol" id="mol1">
                  
            <line class="bond" id="mol1bnd1" x1="96.8" x2="84.45" y1="25.56" y2="34.5"/>
                  
            <line class="bond" id="mol1bnd2" x1="84.45" x2="70.54" y1="34.5" y2="28.27"/>
                  
            <line class="bond" id="mol1bnd3" x1="70.54" x2="58.19" y1="28.27" y2="37.21"/>
                  
            <g class="bond" id="mol1bnd4">
                        
                <line x1="58.19" x2="58.19" y1="52.45" y2="37.21"/>
                        
                <line x1="55.76" x2="55.76" y1="50.67" y2="38.98"/>
                      
            </g>
                  
            <line class="bond" id="mol1bnd5" x1="58.19" x2="46.94" y1="52.45" y2="56.07"/>
                  
            <line class="bond" id="mol1bnd6" x1="41.06" x2="34.72" y1="53.54" y2="44.83"/>
                  
            <g class="bond" id="mol1bnd7">
                        
                <line x1="34.72" x2="43.67" y1="44.83" y2="32.43"/>
                        
                <line x1="33.58" x2="40.87" y1="42.25" y2="32.15"/>
                      
            </g>
                  
            <line class="bond" id="mol1bnd8" x1="58.19" x2="43.67" y1="37.21" y2="32.43"/>
                  
            <line class="bond" id="mol1bnd9" x1="43.67" x2="37.47" y1="32.43" y2="18.52"/>
                  
            <g class="bond" id="mol1bnd10">
                        
                <line x1="37.47" x2="22.33" y1="18.52" y2="16.99"/>
                        
                <line x1="35.82" x2="23.48" y1="20.8" y2="19.56"/>
                      
            </g>
                  
            <line class="bond" id="mol1bnd11" x1="22.33" x2="13.39" y1="16.99" y2="29.29"/>
                  
            <g class="bond" id="mol1bnd12">
                        
                <line x1="13.39" x2="19.59" y1="29.29" y2="43.2"/>
                        
                <line x1="16.19" x2="21.24" y1="29.58" y2="40.93"/>
                      
            </g>
                  
            <line class="bond" id="mol1bnd13" x1="34.72" x2="19.59" y1="44.83" y2="43.2"/>
                  
            <line class="bond" id="mol1bnd14" x1="22.33" x2="17.72" y1="16.99" y2="6.69"/>
                  
            <line class="bond" id="mol1bnd15" x1="12.45" x2=".94" y1="2.7" y2="1.52"/>
                  
            <line class="bond" id="mol1bnd16" x1="84.45" x2="85.62" y1="34.5" y2="45.81"/>
                  
            <g class="atom" id="mol1atm6">
                        
                <path d="M45.61 59.57h-.72l-2.62 -4.07h-.03q.01 .24 .03 .6q.02 .36 .02 .73v2.74h-.57v-4.9h.71l2.61 4.05h.03q-.01 -.11 -.02 -.33q-.01 -.22 -.02 -.48q-.01 -.26 -.01 -.48v-2.77h.58v4.9z" stroke="none"/>
                        
                <path d="M45.47 65.03h-.62v-2.29h-2.51v2.29h-.61v-4.9h.61v2.07h2.51v-2.07h.62v4.9z" stroke="none"/>
                      
            </g>
                  
            <path class="atom" d="M18.36 3.08q.0 .76 -.26 1.33q-.26 .57 -.76 .88q-.5 .32 -1.24 .32q-.76 .0 -1.26 -.32q-.51 -.32 -.76 -.89q-.24 -.57 -.24 -1.33q.0 -.75 .24 -1.31q.25 -.57 .76 -.88q.51 -.32 1.27 -.32q.73 .0 1.23 .32q.5 .31 .76 .88q.26 .57 .26 1.33zM14.5 3.08q.0 .92 .39 1.46q.39 .53 1.22 .53q.84 .0 1.22 -.53q.39 -.54 .39 -1.46q.0 -.93 -.39 -1.45q-.38 -.52 -1.21 -.52q-.83 .0 -1.23 .52q-.39 .52 -.39 1.45z" fill="#FF0D0D" id="mol1atm13" stroke="none"/>
                  
            <g class="atom" id="mol1atm15">
                        
                <path d="M87.96 52.1h-.72l-2.62 -4.07h-.03q.01 .24 .03 .6q.02 .36 .02 .73v2.74h-.57v-4.9h.71l2.61 4.05h.03q-.01 -.11 -.02 -.33q-.01 -.22 -.02 -.48q-.01 -.26 -.01 -.48v-2.77h.58v4.9z" stroke="none"/>
                        
                <path d="M92.27 52.1h-.62v-2.29h-2.51v2.29h-.61v-4.9h.61v2.07h2.51v-2.07h.62v4.9z" stroke="none"/>
                        
                <path d="M94.77 53.59h-1.94v-.3l.77 -.78q.22 -.22 .37 -.39q.15 -.18 .23 -.34q.08 -.17 .08 -.36q.0 -.24 -.15 -.37q-.14 -.13 -.37 -.13q-.21 .0 -.38 .08q-.16 .08 -.33 .21l-.19 -.24q.17 -.15 .39 -.25q.23 -.1 .51 -.1q.41 .0 .65 .21q.24 .21 .24 .58q.0 .23 -.1 .43q-.09 .2 -.26 .4q-.17 .2 -.39 .42l-.61 .6v.02h1.49v.33z" stroke="none"/>
                      
            </g>
                
            <line class="hi" id="mol1bnd5" stroke="#3050F8" x1="46.94" x2="52.565" y1="56.07" y2="54.260000000000005"/>
            <line class="hi" id="mol1bnd6" stroke="#3050F8" x1="41.06" x2="37.89" y1="53.54" y2="49.185"/>
            <line class="hi" id="mol1bnd14" stroke="#FF0D0D" x1="17.72" x2="20.025" y1="6.690000000000001" y2="11.84"/>
            <line class="hi" id="mol1bnd15" stroke="#FF0D0D" x1="12.45" x2="6.694999999999999" y1="2.7" y2="2.1100000000000003"/>
            <line class="hi" id="mol1bnd16" stroke="#3050F8" x1="85.62" x2="85.035" y1="45.81" y2="40.155"/>
        </g>
          
    </g>
    
</svg>
