<svg xmlns="http://www.w3.org/2000/svg" xmlns:xlink="http://www.w3.org/1999/xlink" height="180.93mm" version="1.2" viewBox="0 0 87.05 180.93" width="87.05mm">
      
    <desc>Generated by the Chemistry Development Kit (http://github.com/cdk)</desc>
      
    <g fill="#3050F8" stroke="#000000" stroke-linecap="round" stroke-linejoin="round" stroke-width=".7">
            
        <rect fill="#FFFFFF" height="181.0" stroke="none" width="88.0" x=".0" y=".0"/>
            
        <g class="mol" id="mol1">
                  
            <line class="bond" id="mol1bnd1" x1="57.72" x2="60.88" y1="179.88" y2="163.03"/>
                  
            <line class="bond" id="mol1bnd2" x1="60.88" x2="75.8" y1="163.03" y2="166.18"/>
                  
            <line class="bond" id="mol1bnd3" x1="75.8" x2="86.0" y1="166.18" y2="154.84"/>
                  
            <line class="bond" id="mol1bnd4" x1="86.0" x2="83.51" y1="154.84" y2="171.47"/>
                  
            <line class="bond" id="mol1bnd5" x1="83.51" x2="68.36" y1="171.47" y2="169.89"/>
                  
            <line class="bond" id="mol1bnd6" x1="57.72" x2="68.36" y1="179.88" y2="169.89"/>
                  
            <line class="bond" id="mol1bnd7" x1="68.36" x2="63.63" y1="169.89" y2="155.4"/>
                  
            <line class="bond" id="mol1bnd8" x1="63.63" x2="66.35" y1="155.4" y2="137.2"/>
                  
            <line class="bond" id="mol1bnd9" x1="66.35" x2="56.16" y1="137.2" y2="148.54"/>
                  
            <line class="bond" id="mol1bnd10" x1="60.88" x2="56.16" y1="163.03" y2="148.54"/>
                  
            <line class="bond" id="mol1bnd11" x1="66.35" x2="81.27" y1="137.2" y2="140.35"/>
                  
            <line class="bond" id="mol1bnd12" x1="86.0" x2="81.27" y1="154.84" y2="140.35"/>
                  
            <line class="bond" id="mol1bnd13" x1="66.35" x2="62.85" y1="137.2" y2="126.5"/>
                  
            <line class="bond" id="mol1bnd14" x1="58.31" x2="46.71" y1="122.02" y2="119.56"/>
                  
            <g class="bond" id="mol1bnd15">
                        
                <line x1="48.09" x2="40.09" y1="119.86" y2="128.76"/>
                        
                <line x1="46.27" x2="38.27" y1="118.23" y2="127.13"/>
                      
                <line class="hi" stroke="#FF0D0D" x1="40.09" x2="44.09" y1="128.76" y2="124.31"/>
                <line class="hi" stroke="#FF0D0D" x1="38.27" x2="42.27" y1="127.13" y2="122.68"/>
            </g>
                  
            <line class="bond" id="mol1bnd16" x1="46.71" x2="41.98" y1="119.56" y2="105.08"/>
                  
            <g class="bond" id="mol1bnd17">
                        
                <line x1="41.98" x2="48.32" y1="105.08" y2="96.36"/>
                        
                <line x1="41.05" x2="46.35" y1="102.21" y2="94.93"/>
                      
                <line class="hi" stroke="#3050F8" x1="48.32" x2="45.15" y1="96.36" y2="100.72"/>
                <line class="hi" stroke="#3050F8" x1="46.35" x2="43.7" y1="94.93" y2="98.57"/>
            </g>
                  
            <line class="bond" id="mol1bnd18" x1="48.32" x2="44.59" y1="89.2" y2="84.07"/>
                  
            <line class="bond" id="mol1bnd19" x1="38.71" x2="27.45" y1="81.54" y2="85.16"/>
                  
            <g class="bond" id="mol1bnd20">
                        
                <line x1="27.45" x2="14.25" y1="85.16" y2="77.54"/>
                        
                <line x1="25.02" x2="14.25" y1="86.57" y2="80.36"/>
                      
            </g>
                  
            <line class="bond" id="mol1bnd21" x1="14.25" x2="1.04" y1="77.54" y2="85.16"/>
                  
            <g class="bond" id="mol1bnd22">
                        
                <line x1="1.04" x2="1.04" y1="85.16" y2="100.4"/>
                        
                <line x1="3.48" x2="3.48" y1="86.57" y2="98.99"/>
                      
            </g>
                  
            <line class="bond" id="mol1bnd23" x1="1.04" x2="14.25" y1="100.4" y2="108.02"/>
                  
            <g class="bond" id="mol1bnd24">
                        
                <line x1="14.25" x2="27.45" y1="108.02" y2="100.4"/>
                        
                <line x1="14.25" x2="25.02" y1="105.21" y2="98.99"/>
                      
            </g>
                  
            <line class="bond" id="mol1bnd25" x1="27.45" x2="27.45" y1="85.16" y2="100.4"/>
                  
            <line class="bond" id="mol1bnd26" x1="41.98" x2="27.45" y1="105.08" y2="100.4"/>
                  
            <line class="bond" id="mol1bnd27" x1="43.22" x2="46.71" y1="76.71" y2="66.0"/>
                  
            <line class="bond" id="mol1bnd28" x1="46.71" x2="36.53" y1="66.0" y2="54.66"/>
                  
            <line class="bond" id="mol1bnd29" x1="36.53" x2="41.25" y1="54.66" y2="40.17"/>
                  
            <line class="bond" id="mol1bnd30" x1="41.25" x2="31.07" y1="40.17" y2="28.84"/>
                  
            <line class="bond" id="mol1bnd31" x1="31.07" x2="35.8" y1="28.84" y2="14.35"/>
                  
            <line class="bond" id="mol1bnd32" x1="35.8" x2="27.32" y1="14.35" y2="4.91"/>
                  
            <g class="atom" id="mol1atm11">
                        
                <path d="M63.56 125.16h-.72l-2.62 -4.07h-.03q.01 .24 .03 .6q.02 .36 .02 .73v2.74h-.57v-4.9h.71l2.61 4.05h.03q-.01 -.11 -.02 -.33q-.01 -.22 -.02 -.48q-.01 -.26 -.01 -.48v-2.77h.58v4.9z" stroke="none"/>
                        
                <path d="M67.87 125.16h-.62v-2.29h-2.51v2.29h-.61v-4.9h.61v2.07h2.51v-2.07h.62v4.9z" stroke="none"/>
                      
            </g>
                  
            <path class="atom" d="M38.79 130.9q.0 .76 -.26 1.33q-.26 .57 -.76 .88q-.5 .32 -1.24 .32q-.76 .0 -1.26 -.32q-.51 -.32 -.76 -.89q-.24 -.57 -.24 -1.33q.0 -.75 .24 -1.31q.25 -.57 .76 -.88q.51 -.32 1.27 -.32q.73 .0 1.23 .32q.5 .31 .76 .88q.26 .57 .26 1.33zM34.92 130.9q.0 .92 .39 1.46q.39 .53 1.22 .53q.84 .0 1.22 -.53q.39 -.54 .39 -1.46q.0 -.93 -.39 -1.45q-.38 -.52 -1.21 -.52q-.83 .0 -1.23 .52q-.39 .52 -.39 1.45z" fill="#FF0D0D" id="mol1atm13" stroke="none"/>
                  
            <path class="atom" d="M52.86 95.23h-.72l-2.62 -4.07h-.03q.01 .24 .03 .6q.02 .36 .02 .73v2.74h-.57v-4.9h.71l2.61 4.05h.03q-.01 -.11 -.02 -.33q-.01 -.22 -.02 -.48q-.01 -.26 -.01 -.48v-2.77h.58v4.9z" id="mol1atm15" stroke="none"/>
                  
            <path class="atom" d="M43.92 82.94h-.72l-2.62 -4.07h-.03q.01 .24 .03 .6q.02 .36 .02 .73v2.74h-.57v-4.9h.71l2.61 4.05h.03q-.01 -.11 -.02 -.33q-.01 -.22 -.02 -.48q-.01 -.26 -.01 -.48v-2.77h.58v4.9z" id="mol1atm16" stroke="none"/>
                  
            <path class="atom" d="M24.86 5.46h-.61v-4.9h2.73v.54h-2.12v1.74h1.99v.54h-1.99v2.08z" fill="#90E050" id="mol1atm28" stroke="none"/>
                
            <line class="hi" id="mol1bnd13" stroke="#3050F8" x1="62.85" x2="64.6" y1="126.5" y2="131.85"/>
            <line class="hi" id="mol1bnd13" stroke="#3050F8" x1="62.93925359002682" x2="64.6" y1="126.77286097522486" y2="131.85"/>
            <line class="hi" id="mol1bnd14" stroke="#3050F8" x1="58.31" x2="52.510000000000005" y1="122.02" y2="120.78999999999999"/>
            <line class="hi" id="mol1bnd18" stroke="#3050F8" x1="48.32" x2="46.455" y1="89.2" y2="86.63499999999999"/>
            <line class="hi" id="mol1bnd18" stroke="#3050F8" x1="44.59" x2="46.455" y1="84.07" y2="86.63499999999999"/>
            <line class="hi" id="mol1bnd19" stroke="#3050F8" x1="38.71" x2="33.08" y1="81.54" y2="83.35"/>
            <line class="hi" id="mol1bnd27" stroke="#3050F8" x1="43.22" x2="44.965" y1="76.71" y2="71.35499999999999"/>
            <line class="hi" id="mol1bnd32" stroke="#90E050" x1="27.32" x2="31.56" y1="4.91" y2="9.629999999999999"/>
        </g>
          
    </g>
    
</svg>
