<svg xmlns="http://www.w3.org/2000/svg" xmlns:xlink="http://www.w3.org/1999/xlink" height="139.75mm" version="1.2" viewBox="0 0 92.5 139.75" width="92.5mm">
      
    <desc>Generated by the Chemistry Development Kit (http://github.com/cdk)</desc>
      
    <g fill="#3050F8" stroke="#000000" stroke-linecap="round" stroke-linejoin="round" stroke-width=".7">
            
        <rect fill="#FFFFFF" height="140.0" stroke="none" width="93.0" x=".0" y=".0"/>
            
        <g class="mol" id="mol1">
                  
            <line class="bond" id="mol1bnd1" x1="85.99" x2="81.26" y1="127.07" y2="112.58"/>
                  
            <line class="bond" id="mol1bnd2" x1="81.26" x2="91.44" y1="112.58" y2="101.24"/>
                  
            <line class="bond" id="mol1bnd3" x1="81.26" x2="66.35" y1="112.58" y2="109.43"/>
                  
            <line class="bond" id="mol1bnd4" x1="66.35" x2="56.16" y1="109.43" y2="120.77"/>
                  
            <g class="bond" id="mol1bnd5">
                        
                <line x1="56.6" x2="44.63" y1="122.1" y2="119.58"/>
                        
                <line x1="57.11" x2="45.13" y1="119.72" y2="117.19"/>
                      
                <line class="hi" stroke="#FF0D0D" x1="44.63" x2="50.615" y1="119.58" y2="120.84"/>
                <line class="hi" stroke="#FF0D0D" x1="45.13" x2="51.120000000000005" y1="117.19" y2="118.455"/>
            </g>
                  
            <line class="bond" id="mol1bnd6" x1="56.16" x2="59.66" y1="120.77" y2="131.47"/>
                  
            <path class="bond" d="M66.02 109.54l.67 -.22l-2.26 -11.11l-1.56 .51l-1.56 .51z" fill="#000000" id="mol1bnd7" stroke="none"/>
                  
            <line class="bond" id="mol1bnd8" x1="58.31" x2="46.71" y1="94.24" y2="91.79"/>
                  
            <g class="bond" id="mol1bnd9">
                        
                <line x1="48.09" x2="40.09" y1="92.08" y2="100.99"/>
                        
                <line x1="46.27" x2="38.27" y1="90.45" y2="99.36"/>
                      
                <line class="hi" stroke="#FF0D0D" x1="40.09" x2="44.09" y1="100.99" y2="96.535"/>
                <line class="hi" stroke="#FF0D0D" x1="38.27" x2="42.27" y1="99.36" y2="94.905"/>
            </g>
                  
            <line class="bond" id="mol1bnd10" x1="46.71" x2="41.98" y1="91.79" y2="77.3"/>
                  
            <g class="bond" id="mol1bnd11">
                        
                <line x1="41.98" x2="48.32" y1="77.3" y2="68.59"/>
                        
                <line x1="41.05" x2="46.35" y1="74.44" y2="67.16"/>
                      
                <line class="hi" stroke="#3050F8" x1="48.32" x2="45.15" y1="68.59" y2="72.945"/>
                <line class="hi" stroke="#3050F8" x1="46.35" x2="43.7" y1="67.16" y2="70.8"/>
            </g>
                  
            <line class="bond" id="mol1bnd12" x1="48.32" x2="44.59" y1="61.43" y2="56.3"/>
                  
            <line class="bond" id="mol1bnd13" x1="38.71" x2="27.45" y1="53.77" y2="57.39"/>
                  
            <g class="bond" id="mol1bnd14">
                        
                <line x1="27.45" x2="14.25" y1="57.39" y2="49.77"/>
                        
                <line x1="25.02" x2="14.25" y1="58.8" y2="52.58"/>
                      
            </g>
                  
            <line class="bond" id="mol1bnd15" x1="14.25" x2="1.04" y1="49.77" y2="57.39"/>
                  
            <g class="bond" id="mol1bnd16">
                        
                <line x1="1.04" x2="1.04" y1="57.39" y2="72.63"/>
                        
                <line x1="3.48" x2="3.48" y1="58.8" y2="71.22"/>
                      
            </g>
                  
            <line class="bond" id="mol1bnd17" x1="1.04" x2="14.25" y1="72.63" y2="80.25"/>
                  
            <g class="bond" id="mol1bnd18">
                        
                <line x1="14.25" x2="27.45" y1="80.25" y2="72.63"/>
                        
                <line x1="14.25" x2="25.02" y1="77.43" y2="71.22"/>
                      
            </g>
                  
            <line class="bond" id="mol1bnd19" x1="27.45" x2="27.45" y1="57.39" y2="72.63"/>
                  
            <line class="bond" id="mol1bnd20" x1="41.98" x2="27.45" y1="77.3" y2="72.63"/>
                  
            <line class="bond" id="mol1bnd21" x1="43.22" x2="46.71" y1="48.93" y2="38.23"/>
                  
            <line class="bond" id="mol1bnd22" x1="46.71" x2="36.53" y1="38.23" y2="26.89"/>
                  
            <line class="bond" id="mol1bnd23" x1="36.53" x2="21.61" y1="26.89" y2="30.04"/>
                  
            <line class="bond" id="mol1bnd24" x1="21.61" x2="11.42" y1="30.04" y2="18.71"/>
                  
            <line class="bond" id="mol1bnd25" x1="11.42" x2="16.16" y1="18.71" y2="4.21"/>
                  
            <line class="bond" id="mol1bnd26" x1="16.16" x2="31.08" y1="4.21" y2="1.05"/>
                  
            <line class="bond" id="mol1bnd27" x1="31.08" x2="41.26" y1="1.05" y2="12.39"/>
                  
            <line class="bond" id="mol1bnd28" x1="36.53" x2="41.26" y1="26.89" y2="12.39"/>
                  
            <path class="atom" d="M43.51 117.61q.0 .76 -.26 1.33q-.26 .57 -.76 .88q-.5 .32 -1.24 .32q-.76 .0 -1.26 -.32q-.51 -.32 -.76 -.89q-.24 -.57 -.24 -1.33q.0 -.75 .24 -1.31q.25 -.57 .76 -.88q.51 -.32 1.27 -.32q.73 .0 1.23 .32q.5 .31 .76 .88q.26 .57 .26 1.33zM39.65 117.61q.0 .92 .39 1.46q.39 .53 1.22 .53q.84 .0 1.22 -.53q.39 -.54 .39 -1.46q.0 -.93 -.39 -1.45q-.38 -.52 -1.21 -.52q-.83 .0 -1.23 .52q-.39 .52 -.39 1.45z" fill="#FF0D0D" id="mol1atm6" stroke="none"/>
                  
            <g class="atom" id="mol1atm7">
                        
                <path d="M62.83 137.7h-.72l-2.62 -4.07h-.03q.01 .24 .03 .6q.02 .36 .02 .73v2.74h-.57v-4.9h.71l2.61 4.05h.03q-.01 -.11 -.02 -.33q-.01 -.22 -.02 -.48q-.01 -.26 -.01 -.48v-2.77h.58v4.9z" stroke="none"/>
                        
                <path d="M67.14 137.7h-.62v-2.29h-2.51v2.29h-.61v-4.9h.61v2.07h2.51v-2.07h.62v4.9z" stroke="none"/>
                        
                <path d="M69.64 139.19h-1.94v-.3l.77 -.78q.22 -.22 .37 -.39q.15 -.18 .23 -.34q.08 -.17 .08 -.36q.0 -.24 -.15 -.37q-.14 -.13 -.37 -.13q-.21 .0 -.38 .08q-.16 .08 -.33 .21l-.19 -.24q.17 -.15 .39 -.25q.23 -.1 .51 -.1q.41 .0 .65 .21q.24 .21 .24 .58q.0 .23 -.1 .43q-.09 .2 -.26 .4q-.17 .2 -.39 .42l-.61 .6v.02h1.49v.33z" stroke="none"/>
                      
            </g>
                  
            <g class="atom" id="mol1atm8">
                        
                <path d="M63.56 97.39h-.72l-2.62 -4.07h-.03q.01 .24 .03 .6q.02 .36 .02 .73v2.74h-.57v-4.9h.71l2.61 4.05h.03q-.01 -.11 -.02 -.33q-.01 -.22 -.02 -.48q-.01 -.26 -.01 -.48v-2.77h.58v4.9z" stroke="none"/>
                        
                <path d="M67.87 97.39h-.62v-2.29h-2.51v2.29h-.61v-4.9h.61v2.07h2.51v-2.07h.62v4.9z" stroke="none"/>
                      
            </g>
                  
            <path class="atom" d="M38.79 103.12q.0 .76 -.26 1.33q-.26 .57 -.76 .88q-.5 .32 -1.24 .32q-.76 .0 -1.26 -.32q-.51 -.32 -.76 -.89q-.24 -.57 -.24 -1.33q.0 -.75 .24 -1.31q.25 -.57 .76 -.88q.51 -.32 1.27 -.32q.73 .0 1.23 .32q.5 .31 .76 .88q.26 .57 .26 1.33zM34.92 103.12q.0 .92 .39 1.46q.39 .53 1.22 .53q.84 .0 1.22 -.53q.39 -.54 .39 -1.46q.0 -.93 -.39 -1.45q-.38 -.52 -1.21 -.52q-.83 .0 -1.23 .52q-.39 .52 -.39 1.45z" fill="#FF0D0D" id="mol1atm10" stroke="none"/>
                  
            <path class="atom" d="M52.86 67.46h-.72l-2.62 -4.07h-.03q.01 .24 .03 .6q.02 .36 .02 .73v2.74h-.57v-4.9h.71l2.61 4.05h.03q-.01 -.11 -.02 -.33q-.01 -.22 -.02 -.48q-.01 -.26 -.01 -.48v-2.77h.58v4.9z" id="mol1atm12" stroke="none"/>
                  
            <path class="atom" d="M43.92 55.16h-.72l-2.62 -4.07h-.03q.01 .24 .03 .6q.02 .36 .02 .73v2.74h-.57v-4.9h.71l2.61 4.05h.03q-.01 -.11 -.02 -.33q-.01 -.22 -.02 -.48q-.01 -.26 -.01 -.48v-2.77h.58v4.9z" id="mol1atm13" stroke="none"/>
                
            <line class="hi" id="mol1bnd6" stroke="#3050F8" x1="59.66" x2="57.91" y1="131.47" y2="126.12"/>
            <line class="hi" id="mol1bnd8" stroke="#3050F8" x1="58.31" x2="52.510000000000005" y1="94.24" y2="93.015"/>
            <line class="hi" id="mol1bnd12" stroke="#3050F8" x1="48.32" x2="46.455" y1="61.43" y2="58.864999999999995"/>
            <line class="hi" id="mol1bnd12" stroke="#3050F8" x1="44.59" x2="46.455" y1="56.3" y2="58.864999999999995"/>
            <line class="hi" id="mol1bnd13" stroke="#3050F8" x1="38.71" x2="33.08" y1="53.77" y2="55.58"/>
            <line class="hi" id="mol1bnd21" stroke="#3050F8" x1="43.22" x2="44.965" y1="48.93" y2="43.58"/>
        </g>
          
    </g>
    
</svg>
