<svg xmlns="http://www.w3.org/2000/svg" xmlns:xlink="http://www.w3.org/1999/xlink" height="149.91mm" version="1.2" viewBox="0 0 92.5 149.91" width="92.5mm">
      
    <desc>Generated by the Chemistry Development Kit (http://github.com/cdk)</desc>
      
    <g fill="#3050F8" stroke="#000000" stroke-linecap="round" stroke-linejoin="round" stroke-width=".7">
            
        <rect fill="#FFFFFF" height="150.0" stroke="none" width="93.0" x=".0" y=".0"/>
            
        <g class="mol" id="mol1">
                  
            <line class="bond" id="mol1bnd1" x1="85.99" x2="81.26" y1="137.23" y2="122.74"/>
                  
            <line class="bond" id="mol1bnd2" x1="81.26" x2="91.44" y1="122.74" y2="111.4"/>
                  
            <line class="bond" id="mol1bnd3" x1="81.26" x2="66.35" y1="122.74" y2="119.59"/>
                  
            <line class="bond" id="mol1bnd4" x1="66.35" x2="56.16" y1="119.59" y2="130.92"/>
                  
            <g class="bond" id="mol1bnd5">
                        
                <line x1="56.6" x2="44.63" y1="132.26" y2="129.73"/>
                        
                <line x1="57.11" x2="45.13" y1="129.88" y2="127.35"/>
                      
                <line class="hi" stroke="#FF0D0D" x1="44.63" x2="50.615" y1="129.73" y2="130.995"/>
                <line class="hi" stroke="#FF0D0D" x1="45.13" x2="51.120000000000005" y1="127.35" y2="128.615"/>
            </g>
                  
            <line class="bond" id="mol1bnd6" x1="56.16" x2="59.66" y1="130.92" y2="141.63"/>
                  
            <path class="bond" d="M66.02 119.7l.67 -.22l-2.26 -11.11l-1.56 .51l-1.56 .51z" fill="#000000" id="mol1bnd7" stroke="none"/>
                  
            <line class="bond" id="mol1bnd8" x1="58.31" x2="46.71" y1="104.4" y2="101.95"/>
                  
            <g class="bond" id="mol1bnd9">
                        
                <line x1="48.09" x2="40.09" y1="102.24" y2="111.15"/>
                        
                <line x1="46.27" x2="38.27" y1="100.61" y2="109.52"/>
                      
                <line class="hi" stroke="#FF0D0D" x1="40.09" x2="44.09" y1="111.15" y2="106.695"/>
                <line class="hi" stroke="#FF0D0D" x1="38.27" x2="42.27" y1="109.52" y2="105.065"/>
            </g>
                  
            <line class="bond" id="mol1bnd10" x1="46.71" x2="41.98" y1="101.95" y2="87.46"/>
                  
            <g class="bond" id="mol1bnd11">
                        
                <line x1="41.98" x2="48.32" y1="87.46" y2="78.75"/>
                        
                <line x1="41.05" x2="46.35" y1="84.6" y2="77.31"/>
                      
                <line class="hi" stroke="#3050F8" x1="48.32" x2="45.15" y1="78.75" y2="83.10499999999999"/>
                <line class="hi" stroke="#3050F8" x1="46.35" x2="43.7" y1="77.31" y2="80.955"/>
            </g>
                  
            <line class="bond" id="mol1bnd12" x1="48.32" x2="44.59" y1="71.58" y2="66.45"/>
                  
            <line class="bond" id="mol1bnd13" x1="38.71" x2="27.45" y1="63.93" y2="67.55"/>
                  
            <g class="bond" id="mol1bnd14">
                        
                <line x1="27.45" x2="14.25" y1="67.55" y2="59.93"/>
                        
                <line x1="25.02" x2="14.25" y1="68.95" y2="62.74"/>
                      
            </g>
                  
            <line class="bond" id="mol1bnd15" x1="14.25" x2="1.04" y1="59.93" y2="67.55"/>
                  
            <g class="bond" id="mol1bnd16">
                        
                <line x1="1.04" x2="1.04" y1="67.55" y2="82.79"/>
                        
                <line x1="3.48" x2="3.48" y1="68.95" y2="81.38"/>
                      
            </g>
                  
            <line class="bond" id="mol1bnd17" x1="1.04" x2="14.25" y1="82.79" y2="90.41"/>
                  
            <g class="bond" id="mol1bnd18">
                        
                <line x1="14.25" x2="27.45" y1="90.41" y2="82.79"/>
                        
                <line x1="14.25" x2="25.02" y1="87.59" y2="81.38"/>
                      
            </g>
                  
            <line class="bond" id="mol1bnd19" x1="27.45" x2="27.45" y1="67.55" y2="82.79"/>
                  
            <line class="bond" id="mol1bnd20" x1="41.98" x2="27.45" y1="87.46" y2="82.79"/>
                  
            <line class="bond" id="mol1bnd21" x1="43.22" x2="46.71" y1="59.09" y2="48.38"/>
                  
            <line class="bond" id="mol1bnd22" x1="46.71" x2="36.53" y1="48.38" y2="37.05"/>
                  
            <g class="bond" id="mol1bnd23">
                        
                <line x1="21.62" x2="36.53" y1="40.19" y2="37.05"/>
                        
                <line x1="22.49" x2="34.64" y1="37.52" y2="34.95"/>
                      
            </g>
                  
            <line class="bond" id="mol1bnd24" x1="21.62" x2="11.43" y1="40.19" y2="28.84"/>
                  
            <g class="bond" id="mol1bnd25">
                        
                <line x1="16.16" x2="11.43" y1="14.35" y2="28.84"/>
                        
                <line x1="18.04" x2="14.19" y1="16.44" y2="28.26"/>
                      
            </g>
                  
            <line class="bond" id="mol1bnd26" x1="16.16" x2="31.07" y1="14.35" y2="11.2"/>
                  
            <g class="bond" id="mol1bnd27">
                        
                <line x1="41.25" x2="31.07" y1="22.55" y2="11.2"/>
                        
                <line x1="38.5" x2="30.2" y1="23.13" y2="13.88"/>
                      
            </g>
                  
            <line class="bond" id="mol1bnd28" x1="36.53" x2="41.25" y1="37.05" y2="22.55"/>
                  
            <line class="bond" id="mol1bnd29" x1="16.16" x2="7.68" y1="14.35" y2="4.91"/>
                  
            <path class="atom" d="M43.51 127.77q.0 .76 -.26 1.33q-.26 .57 -.76 .88q-.5 .32 -1.24 .32q-.76 .0 -1.26 -.32q-.51 -.32 -.76 -.89q-.24 -.57 -.24 -1.33q.0 -.75 .24 -1.31q.25 -.57 .76 -.88q.51 -.32 1.27 -.32q.73 .0 1.23 .32q.5 .31 .76 .88q.26 .57 .26 1.33zM39.65 127.77q.0 .92 .39 1.46q.39 .53 1.22 .53q.84 .0 1.22 -.53q.39 -.54 .39 -1.46q.0 -.93 -.39 -1.45q-.38 -.52 -1.21 -.52q-.83 .0 -1.23 .52q-.39 .52 -.39 1.45z" fill="#FF0D0D" id="mol1atm6" stroke="none"/>
                  
            <g class="atom" id="mol1atm7">
                        
                <path d="M62.83 147.86h-.72l-2.62 -4.07h-.03q.01 .24 .03 .6q.02 .36 .02 .73v2.74h-.57v-4.9h.71l2.61 4.05h.03q-.01 -.11 -.02 -.33q-.01 -.22 -.02 -.48q-.01 -.26 -.01 -.48v-2.77h.58v4.9z" stroke="none"/>
                        
                <path d="M67.14 147.86h-.62v-2.29h-2.51v2.29h-.61v-4.9h.61v2.07h2.51v-2.07h.62v4.9z" stroke="none"/>
                        
                <path d="M69.64 149.35h-1.94v-.3l.77 -.78q.22 -.22 .37 -.39q.15 -.18 .23 -.34q.08 -.17 .08 -.36q.0 -.24 -.15 -.37q-.14 -.13 -.37 -.13q-.21 .0 -.38 .08q-.16 .08 -.33 .21l-.19 -.24q.17 -.15 .39 -.25q.23 -.1 .51 -.1q.41 .0 .65 .21q.24 .21 .24 .58q.0 .23 -.1 .43q-.09 .2 -.26 .4q-.17 .2 -.39 .42l-.61 .6v.02h1.49v.33z" stroke="none"/>
                      
            </g>
                  
            <g class="atom" id="mol1atm8">
                        
                <path d="M63.56 107.55h-.72l-2.62 -4.07h-.03q.01 .24 .03 .6q.02 .36 .02 .73v2.74h-.57v-4.9h.71l2.61 4.05h.03q-.01 -.11 -.02 -.33q-.01 -.22 -.02 -.48q-.01 -.26 -.01 -.48v-2.77h.58v4.9z" stroke="none"/>
                        
                <path d="M67.87 107.55h-.62v-2.29h-2.51v2.29h-.61v-4.9h.61v2.07h2.51v-2.07h.62v4.9z" stroke="none"/>
                      
            </g>
                  
            <path class="atom" d="M38.79 113.28q.0 .76 -.26 1.33q-.26 .57 -.76 .88q-.5 .32 -1.24 .32q-.76 .0 -1.26 -.32q-.51 -.32 -.76 -.89q-.24 -.57 -.24 -1.33q.0 -.75 .24 -1.31q.25 -.57 .76 -.88q.51 -.32 1.27 -.32q.73 .0 1.23 .32q.5 .31 .76 .88q.26 .57 .26 1.33zM34.92 113.28q.0 .92 .39 1.46q.39 .53 1.22 .53q.84 .0 1.22 -.53q.39 -.54 .39 -1.46q.0 -.93 -.39 -1.45q-.38 -.52 -1.21 -.52q-.83 .0 -1.23 .52q-.39 .52 -.39 1.45z" fill="#FF0D0D" id="mol1atm10" stroke="none"/>
                  
            <path class="atom" d="M52.86 77.62h-.72l-2.62 -4.07h-.03q.01 .24 .03 .6q.02 .36 .02 .73v2.74h-.57v-4.9h.71l2.61 4.05h.03q-.01 -.11 -.02 -.33q-.01 -.22 -.02 -.48q-.01 -.26 -.01 -.48v-2.77h.58v4.9z" id="mol1atm12" stroke="none"/>
                  
            <path class="atom" d="M43.92 65.32h-.72l-2.62 -4.07h-.03q.01 .24 .03 .6q.02 .36 .02 .73v2.74h-.57v-4.9h.71l2.61 4.05h.03q-.01 -.11 -.02 -.33q-.01 -.22 -.02 -.48q-.01 -.26 -.01 -.48v-2.77h.58v4.9z" id="mol1atm13" stroke="none"/>
                  
            <path class="atom" d="M5.22 5.46h-.61v-4.9h2.73v.54h-2.12v1.74h1.99v.54h-1.99v2.08z" fill="#90E050" id="mol1atm27" stroke="none"/>
                
            <line class="hi" id="mol1bnd6" stroke="#3050F8" x1="59.66" x2="57.91" y1="141.63" y2="136.27499999999998"/>
            <line class="hi" id="mol1bnd8" stroke="#3050F8" x1="58.31" x2="52.510000000000005" y1="104.4" y2="103.17500000000001"/>
            <line class="hi" id="mol1bnd12" stroke="#3050F8" x1="48.32" x2="46.455" y1="71.58" y2="69.015"/>
            <line class="hi" id="mol1bnd12" stroke="#3050F8" x1="44.59" x2="46.455" y1="66.45" y2="69.015"/>
            <line class="hi" id="mol1bnd13" stroke="#3050F8" x1="38.71" x2="33.08" y1="63.93" y2="65.74"/>
            <line class="hi" id="mol1bnd21" stroke="#3050F8" x1="43.22" x2="44.965" y1="59.09" y2="53.735"/>
            <line class="hi" id="mol1bnd29" stroke="#90E050" x1="7.68" x2="11.92" y1="4.91" y2="9.629999999999999"/>
        </g>
          
    </g>
    
</svg>
