<svg xmlns="http://www.w3.org/2000/svg" xmlns:xlink="http://www.w3.org/1999/xlink" height="164.26mm" version="1.2" viewBox="0 0 120.01 164.26" width="120.01mm">
      
    <desc>Generated by the Chemistry Development Kit (http://github.com/cdk)</desc>
      
    <g fill="#3050F8" stroke="#000000" stroke-linecap="round" stroke-linejoin="round" stroke-width=".7">
            
        <rect fill="#FFFFFF" height="165.0" stroke="none" width="121.0" x=".0" y=".0"/>
            
        <g class="mol" id="mol1">
                  
            <line class="bond" id="mol1bnd1" x1="119.01" x2="114.28" y1="77.98" y2="63.49"/>
                  
            <line class="bond" id="mol1bnd2" x1="114.28" x2="99.37" y1="63.49" y2="60.34"/>
                  
            <line class="bond" id="mol1bnd3" x1="99.37" x2="94.65" y1="60.34" y2="45.85"/>
                  
            <g class="bond" id="mol1bnd4">
                        
                <line x1="94.65" x2="100.98" y1="45.85" y2="37.14"/>
                        
                <line x1="93.71" x2="99.01" y1="42.99" y2="35.71"/>
                      
                <line class="hi" stroke="#3050F8" x1="100.98" x2="97.815" y1="37.14" y2="41.495000000000005"/>
                <line class="hi" stroke="#3050F8" x1="99.01" x2="96.36" y1="35.71" y2="39.35"/>
            </g>
                  
            <line class="bond" id="mol1bnd5" x1="101.0" x2="97.23" y1="29.98" y2="24.75"/>
                  
            <line class="bond" id="mol1bnd6" x1="91.38" x2="80.12" y1="22.24" y2="25.94"/>
                  
            <g class="bond" id="mol1bnd7">
                        
                <line x1="80.12" x2="80.12" y1="41.18" y2="25.94"/>
                        
                <line x1="77.68" x2="77.68" y1="39.78" y2="27.35"/>
                      
            </g>
                  
            <line class="bond" id="mol1bnd8" x1="94.65" x2="80.12" y1="45.85" y2="41.18"/>
                  
            <line class="bond" id="mol1bnd9" x1="80.12" x2="70.16" y1="41.18" y2="46.97"/>
                  
            <g class="bond" id="mol1bnd10">
                        
                <line x1="53.7" x2="63.86" y1="41.18" y2="46.99"/>
                        
                <line x1="56.14" x2="65.07" y1="39.77" y2="44.88"/>
                      
                <line class="hi" stroke="#3050F8" x1="63.86" x2="58.78" y1="46.99" y2="44.085"/>
                <line class="hi" stroke="#3050F8" x1="65.07" x2="60.605" y1="44.88" y2="42.325"/>
            </g>
                  
            <line class="bond" id="mol1bnd11" x1="53.7" x2="53.7" y1="41.18" y2="29.79"/>
                  
            <line class="bond" id="mol1bnd12" x1="56.85" x2="66.91" y1="24.12" y2="18.32"/>
                  
            <line class="bond" id="mol1bnd13" x1="80.12" x2="66.91" y1="25.94" y2="18.32"/>
                  
            <g class="bond" id="mol1bnd14">
                        
                <line x1="65.69" x2="65.69" y1="19.02" y2="7.0"/>
                        
                <line x1="68.13" x2="68.13" y1="19.02" y2="7.0"/>
                      
                <line class="hi" stroke="#FF0D0D" x1="65.69" x2="65.69" y1="7.0" y2="13.01"/>
                <line class="hi" stroke="#FF0D0D" x1="68.13" x2="68.13" y1="7.0" y2="13.01"/>
            </g>
                  
            <line class="bond" id="mol1bnd15" x1="53.7" x2="40.52" y1="41.18" y2="48.83"/>
                  
            <g class="bond" id="mol1bnd16">
                        
                <line x1="40.52" x2="27.3" y1="48.83" y2="41.22"/>
                        
                <line x1="38.08" x2="27.3" y1="50.24" y2="44.04"/>
                      
            </g>
                  
            <line class="bond" id="mol1bnd17" x1="27.3" x2="14.12" y1="41.22" y2="48.86"/>
                  
            <g class="bond" id="mol1bnd18">
                        
                <line x1="14.12" x2="14.15" y1="48.86" y2="64.11"/>
                        
                <line x1="16.56" x2="16.58" y1="50.27" y2="62.7"/>
                      
            </g>
                  
            <line class="bond" id="mol1bnd19" x1="14.15" x2="27.37" y1="64.11" y2="71.72"/>
                  
            <g class="bond" id="mol1bnd20">
                        
                <line x1="27.37" x2="40.55" y1="71.72" y2="64.07"/>
                        
                <line x1="27.36" x2="38.11" y1="68.9" y2="62.67"/>
                      
            </g>
                  
            <line class="bond" id="mol1bnd21" x1="40.52" x2="40.55" y1="48.83" y2="64.07"/>
                  
            <line class="bond" id="mol1bnd22" x1="27.37" x2="27.39" y1="71.72" y2="86.96"/>
                  
            <g class="bond" id="mol1bnd23">
                        
                <line x1="27.39" x2="37.92" y1="85.55" y2="91.61"/>
                        
                <line x1="26.17" x2="36.71" y1="87.66" y2="93.72"/>
                      
                <line class="hi" stroke="#FF0D0D" x1="37.92" x2="32.655" y1="91.61" y2="88.58"/>
                <line class="hi" stroke="#FF0D0D" x1="36.71" x2="31.44" y1="93.72" y2="90.69"/>
            </g>
                  
            <line class="bond" id="mol1bnd24" x1="27.39" x2="14.2" y1="86.96" y2="94.6"/>
                  
            <line class="bond" id="mol1bnd25" x1="14.2" x2="14.22" y1="94.6" y2="105.99"/>
                  
            <line class="bond" id="mol1bnd26" x1="11.08" x2="1.04" y1="111.67" y2="117.49"/>
                  
            <line class="bond" id="mol1bnd27" x1="1.04" x2="1.06" y1="117.49" y2="132.74"/>
                  
            <line class="bond" id="mol1bnd28" x1="1.06" x2="11.11" y1="132.74" y2="138.52"/>
                  
            <line class="bond" id="mol1bnd29" x1="17.42" x2="27.46" y1="138.51" y2="132.69"/>
                  
            <line class="bond" id="mol1bnd30" x1="27.46" x2="27.44" y1="132.69" y2="117.44"/>
                  
            <line class="bond" id="mol1bnd31" x1="17.38" x2="27.44" y1="111.65" y2="117.44"/>
                  
            <line class="bond" id="mol1bnd32" x1="14.27" x2="14.29" y1="144.19" y2="155.58"/>
                  
            <line class="bond" id="mol1bnd33" x1="14.29" x2="1.11" y1="155.58" y2="163.22"/>
                  
            <line class="bond" id="mol1bnd34" x1="27.3" x2="27.28" y1="41.22" y2="29.9"/>
                  
            <line class="bond" id="mol1bnd35" x1="23.99" x2="14.06" y1="24.09" y2="18.38"/>
                  
            <line class="bond" id="mol1bnd36" x1="14.06" x2="14.04" y1="18.38" y2="3.14"/>
                  
            <line class="bond" id="mol1bnd37" x1="95.87" x2="99.36" y1="17.38" y2="6.67"/>
                  
            <path class="atom" d="M105.53 36.01h-.72l-2.62 -4.07h-.03q.01 .24 .03 .6q.02 .36 .02 .73v2.74h-.57v-4.9h.71l2.61 4.05h.03q-.01 -.11 -.02 -.33q-.01 -.22 -.02 -.48q-.01 -.26 -.01 -.48v-2.77h.58v4.9z" id="mol1atm5" stroke="none"/>
                  
            <path class="atom" d="M96.59 23.62h-.72l-2.62 -4.07h-.03q.01 .24 .03 .6q.02 .36 .02 .73v2.74h-.57v-4.9h.71l2.61 4.05h.03q-.01 -.11 -.02 -.33q-.01 -.22 -.02 -.48q-.01 -.26 -.01 -.48v-2.77h.58v4.9z" id="mol1atm6" stroke="none"/>
                  
            <path class="atom" d="M68.95 51.25h-.72l-2.62 -4.07h-.03q.01 .24 .03 .6q.02 .36 .02 .73v2.74h-.57v-4.9h.71l2.61 4.05h.03q-.01 -.11 -.02 -.33q-.01 -.22 -.02 -.48q-.01 -.26 -.01 -.48v-2.77h.58v4.9z" id="mol1atm9" stroke="none"/>
                  
            <g class="atom" id="mol1atm11">
                        
                <path d="M55.64 28.39h-.72l-2.62 -4.07h-.03q.01 .24 .03 .6q.02 .36 .02 .73v2.74h-.57v-4.9h.71l2.61 4.05h.03q-.01 -.11 -.02 -.33q-.01 -.22 -.02 -.48q-.01 -.26 -.01 -.48v-2.77h.58v4.9z" stroke="none"/>
                        
                <path d="M51.2 28.39h-.62v-2.29h-2.51v2.29h-.61v-4.9h.61v2.07h2.51v-2.07h.62v4.9z" stroke="none"/>
                      
            </g>
                  
            <path class="atom" d="M69.17 3.08q.0 .76 -.26 1.33q-.26 .57 -.76 .88q-.5 .32 -1.24 .32q-.76 .0 -1.26 -.32q-.51 -.32 -.76 -.89q-.24 -.57 -.24 -1.33q.0 -.75 .24 -1.31q.25 -.57 .76 -.88q.51 -.32 1.27 -.32q.73 .0 1.23 .32q.5 .31 .76 .88q.26 .57 .26 1.33zM65.31 3.08q.0 .92 .39 1.46q.39 .53 1.22 .53q.84 .0 1.22 -.53q.39 -.54 .39 -1.46q.0 -.93 -.39 -1.45q-.38 -.52 -1.21 -.52q-.83 .0 -1.23 .52q-.39 .52 -.39 1.45z" fill="#FF0D0D" id="mol1atm13" stroke="none"/>
                  
            <path class="atom" d="M42.86 94.55q.0 .76 -.26 1.33q-.26 .57 -.76 .88q-.5 .32 -1.24 .32q-.76 .0 -1.26 -.32q-.51 -.32 -.76 -.89q-.24 -.57 -.24 -1.33q.0 -.75 .24 -1.31q.25 -.57 .76 -.88q.51 -.32 1.27 -.32q.73 .0 1.23 .32q.5 .31 .76 .88q.26 .57 .26 1.33zM39.0 94.55q.0 .92 .39 1.46q.39 .53 1.22 .53q.84 .0 1.22 -.53q.39 -.54 .39 -1.46q.0 -.93 -.39 -1.45q-.38 -.52 -1.21 -.52q-.83 .0 -1.23 .52q-.39 .52 -.39 1.45z" fill="#FF0D0D" id="mol1atm21" stroke="none"/>
                  
            <path class="atom" d="M16.17 112.29h-.72l-2.62 -4.07h-.03q.01 .24 .03 .6q.02 .36 .02 .73v2.74h-.57v-4.9h.71l2.61 4.05h.03q-.01 -.11 -.02 -.33q-.01 -.22 -.02 -.48q-.01 -.26 -.01 -.48v-2.77h.58v4.9z" id="mol1atm23" stroke="none"/>
                  
            <path class="atom" d="M16.21 142.79h-.72l-2.62 -4.07h-.03q.01 .24 .03 .6q.02 .36 .02 .73v2.74h-.57v-4.9h.71l2.61 4.05h.03q-.01 -.11 -.02 -.33q-.01 -.22 -.02 -.48q-.01 -.26 -.01 -.48v-2.77h.58v4.9z" id="mol1atm26" stroke="none"/>
                  
            <path class="atom" d="M29.53 25.98q.0 .76 -.26 1.33q-.26 .57 -.76 .88q-.5 .32 -1.24 .32q-.76 .0 -1.26 -.32q-.51 -.32 -.76 -.89q-.24 -.57 -.24 -1.33q.0 -.75 .24 -1.31q.25 -.57 .76 -.88q.51 -.32 1.27 -.32q.73 .0 1.23 .32q.5 .31 .76 .88q.26 .57 .26 1.33zM25.67 25.98q.0 .92 .39 1.46q.39 .53 1.22 .53q.84 .0 1.22 -.53q.39 -.54 .39 -1.46q.0 -.93 -.39 -1.45q-.38 -.52 -1.21 -.52q-.83 .0 -1.23 .52q-.39 .52 -.39 1.45z" fill="#FF0D0D" id="mol1atm31" stroke="none"/>
                
            <line class="hi" id="mol1bnd5" stroke="#3050F8" x1="101.0" x2="99.11500000000001" y1="29.98" y2="27.365000000000002"/>
            <line class="hi" id="mol1bnd5" stroke="#3050F8" x1="97.23" x2="99.11500000000001" y1="24.75" y2="27.365000000000002"/>
            <line class="hi" id="mol1bnd6" stroke="#3050F8" x1="91.38" x2="85.75" y1="22.24" y2="24.09"/>
            <line class="hi" id="mol1bnd9" stroke="#3050F8" x1="70.16" x2="75.14" y1="46.97" y2="44.075"/>
            <line class="hi" id="mol1bnd11" stroke="#3050F8" x1="53.7" x2="53.7" y1="29.79" y2="35.485"/>
            <line class="hi" id="mol1bnd11" stroke="#3050F8" x1="53.7" x2="53.7" y1="29.79" y2="35.485"/>
            <line class="hi" id="mol1bnd12" stroke="#3050F8" x1="56.85" x2="61.879999999999995" y1="24.12" y2="21.22"/>
            <line class="hi" id="mol1bnd12" stroke="#3050F8" x1="56.85" x2="61.879999999999995" y1="24.12" y2="21.22"/>
            <line class="hi" id="mol1bnd25" stroke="#3050F8" x1="14.22" x2="14.21" y1="105.99" y2="100.29499999999999"/>
            <line class="hi" id="mol1bnd26" stroke="#3050F8" x1="11.08" x2="6.0600000000000005" y1="111.67" y2="114.58"/>
            <line class="hi" id="mol1bnd28" stroke="#3050F8" x1="11.11" x2="6.085" y1="138.52" y2="135.63"/>
            <line class="hi" id="mol1bnd29" stroke="#3050F8" x1="17.42" x2="22.44" y1="138.51" y2="135.6"/>
            <line class="hi" id="mol1bnd31" stroke="#3050F8" x1="17.38" x2="22.41" y1="111.65" y2="114.545"/>
            <line class="hi" id="mol1bnd32" stroke="#3050F8" x1="14.27" x2="14.28" y1="144.19" y2="149.885"/>
            <line class="hi" id="mol1bnd34" stroke="#FF0D0D" x1="27.28" x2="27.29" y1="29.9" y2="35.56"/>
            <line class="hi" id="mol1bnd35" stroke="#FF0D0D" x1="23.99" x2="19.025" y1="24.09" y2="21.235"/>
            <line class="hi" id="mol1bnd37" stroke="#3050F8" x1="95.87" x2="97.61500000000001" y1="17.38" y2="12.024999999999999"/>
        </g>
          
    </g>
    
</svg>
