<svg xmlns="http://www.w3.org/2000/svg" xmlns:xlink="http://www.w3.org/1999/xlink" height="103.19mm" version="1.2" viewBox="0 0 134.07 103.19" width="134.07mm">
      
    <desc>Generated by the Chemistry Development Kit (http://github.com/cdk)</desc>
      
    <g fill="#3050F8" stroke="#000000" stroke-linecap="round" stroke-linejoin="round" stroke-width=".7">
            
        <rect fill="#FFFFFF" height="104.0" stroke="none" width="135.0" x=".0" y=".0"/>
            
        <g class="mol" id="mol1">
                  
            <line class="bond" id="mol1bnd1" x1="27.44" x2="40.64" y1="100.11" y2="92.49"/>
                  
            <g class="bond" id="mol1bnd2">
                        
                <line x1="40.64" x2="51.16" y1="91.08" y2="97.15"/>
                        
                <line x1="39.42" x2="49.94" y1="93.19" y2="99.27"/>
                      
                <line class="hi" stroke="#FF0D0D" x1="51.16" x2="45.9" y1="97.15" y2="94.11500000000001"/>
                <line class="hi" stroke="#FF0D0D" x1="49.94" x2="44.68" y1="99.27" y2="96.22999999999999"/>
            </g>
                  
            <line class="bond" id="mol1bnd3" x1="40.64" x2="40.64" y1="92.49" y2="81.1"/>
                  
            <line class="bond" id="mol1bnd4" x1="43.79" x2="53.84" y1="75.43" y2="69.63"/>
                  
            <line class="bond" id="mol1bnd5" x1="53.84" x2="67.04" y1="69.63" y2="77.26"/>
                  
            <line class="bond" id="mol1bnd6" x1="67.04" x2="80.24" y1="77.26" y2="69.64"/>
                  
            <line class="bond" id="mol1bnd7" x1="80.24" x2="80.23" y1="69.64" y2="58.24"/>
                  
            <line class="bond" id="mol1bnd8" x1="77.08" x2="67.03" y1="52.56" y2="46.76"/>
                  
            <line class="bond" id="mol1bnd9" x1="67.03" x2="53.83" y1="46.76" y2="54.38"/>
                  
            <line class="bond" id="mol1bnd10" x1="53.84" x2="53.83" y1="69.63" y2="54.38"/>
                  
            <line class="bond" id="mol1bnd11" x1="83.39" x2="93.43" y1="52.57" y2="46.77"/>
                  
            <line class="bond" id="mol1bnd12" x1="93.43" x2="93.43" y1="46.77" y2="31.53"/>
                  
            <line class="bond" id="mol1bnd13" x1="93.43" x2="106.63" y1="31.53" y2="23.91"/>
                  
            <g class="bond" id="mol1bnd14">
                        
                <line x1="106.62" x2="106.63" y1="8.66" y2="23.91"/>
                        
                <line x1="109.06" x2="109.07" y1="10.07" y2="22.5"/>
                      
            </g>
                  
            <line class="bond" id="mol1bnd15" x1="106.62" x2="119.82" y1="8.66" y2="1.04"/>
                  
            <g class="bond" id="mol1bnd16">
                        
                <line x1="133.03" x2="119.82" y1="8.67" y2="1.04"/>
                        
                <line x1="130.59" x2="119.82" y1="10.07" y2="3.85"/>
                      
            </g>
                  
            <line class="bond" id="mol1bnd17" x1="133.03" x2="133.03" y1="8.67" y2="23.92"/>
                  
            <g class="bond" id="mol1bnd18">
                        
                <line x1="119.83" x2="133.03" y1="31.54" y2="23.92"/>
                        
                <line x1="119.83" x2="130.59" y1="28.72" y2="22.51"/>
                      
            </g>
                  
            <line class="bond" id="mol1bnd19" x1="106.63" x2="119.83" y1="23.91" y2="31.54"/>
                  
            <line class="bond" id="mol1bnd20" x1="37.48" x2="27.44" y1="75.43" y2="69.63"/>
                  
            <g class="bond" id="mol1bnd21">
                        
                <line x1="27.44" x2="27.44" y1="69.63" y2="54.38"/>
                        
                <line x1="25.0" x2="25.01" y1="68.22" y2="55.79"/>
                      
            </g>
                  
            <line class="bond" id="mol1bnd22" x1="27.44" x2="14.25" y1="54.38" y2="46.76"/>
                  
            <g class="bond" id="mol1bnd23">
                        
                <line x1="14.25" x2="1.04" y1="46.76" y2="54.39"/>
                        
                <line x1="14.25" x2="3.48" y1="49.57" y2="55.79"/>
                      
            </g>
                  
            <line class="bond" id="mol1bnd24" x1="1.04" x2="1.04" y1="54.39" y2="69.64"/>
                  
            <g class="bond" id="mol1bnd25">
                        
                <line x1="1.04" x2="14.24" y1="69.64" y2="77.26"/>
                        
                <line x1="3.48" x2="14.24" y1="68.23" y2="74.44"/>
                      
            </g>
                  
            <line class="bond" id="mol1bnd26" x1="27.44" x2="14.24" y1="69.63" y2="77.26"/>
                  
            <path class="atom" d="M56.1 100.1q.0 .76 -.26 1.33q-.26 .57 -.76 .88q-.5 .32 -1.24 .32q-.76 .0 -1.26 -.32q-.51 -.32 -.76 -.89q-.24 -.57 -.24 -1.33q.0 -.75 .24 -1.31q.25 -.57 .76 -.88q.51 -.32 1.27 -.32q.73 .0 1.23 .32q.5 .31 .76 .88q.26 .57 .26 1.33zM52.23 100.1q.0 .92 .39 1.46q.39 .53 1.22 .53q.84 .0 1.22 -.53q.39 -.54 .39 -1.46q.0 -.93 -.39 -1.45q-.38 -.52 -1.21 -.52q-.83 .0 -1.23 .52q-.39 .52 -.39 1.45z" fill="#FF0D0D" id="mol1atm3" stroke="none"/>
                  
            <path class="atom" d="M42.58 79.7h-.72l-2.62 -4.07h-.03q.01 .24 .03 .6q.02 .36 .02 .73v2.74h-.57v-4.9h.71l2.61 4.05h.03q-.01 -.11 -.02 -.33q-.01 -.22 -.02 -.48q-.01 -.26 -.01 -.48v-2.77h.58v4.9z" id="mol1atm4" stroke="none"/>
                  
            <path class="atom" d="M82.17 56.84h-.72l-2.62 -4.07h-.03q.01 .24 .03 .6q.02 .36 .02 .73v2.74h-.57v-4.9h.71l2.61 4.05h.03q-.01 -.11 -.02 -.33q-.01 -.22 -.02 -.48q-.01 -.26 -.01 -.48v-2.77h.58v4.9z" id="mol1atm8" stroke="none"/>
                
            <line class="hi" id="mol1bnd3" stroke="#3050F8" x1="40.64" x2="40.64" y1="81.1" y2="86.79499999999999"/>
            <line class="hi" id="mol1bnd4" stroke="#3050F8" x1="43.79" x2="48.815" y1="75.43" y2="72.53"/>
            <line class="hi" id="mol1bnd7" stroke="#3050F8" x1="80.23" x2="80.235" y1="58.24" y2="63.94"/>
            <line class="hi" id="mol1bnd8" stroke="#3050F8" x1="77.08" x2="72.055" y1="52.56" y2="49.66"/>
            <line class="hi" id="mol1bnd11" stroke="#3050F8" x1="83.39" x2="88.41" y1="52.57" y2="49.67"/>
            <line class="hi" id="mol1bnd20" stroke="#3050F8" x1="37.48" x2="32.46" y1="75.43" y2="72.53"/>
        </g>
          
    </g>
    
</svg>
