<svg xmlns="http://www.w3.org/2000/svg" xmlns:xlink="http://www.w3.org/1999/xlink" height="91.61mm" version="1.2" viewBox="0 0 122.19 91.61" width="122.19mm">
      
    <desc>Generated by the Chemistry Development Kit (http://github.com/cdk)</desc>
      
    <g fill="#3050F8" stroke="#000000" stroke-linecap="round" stroke-linejoin="round" stroke-width=".7">
            
        <rect fill="#FFFFFF" height="92.0" stroke="none" width="123.0" x=".0" y=".0"/>
            
        <g class="mol" id="mol1">
                  
            <line class="bond" id="mol1bnd1" x1="121.16" x2="111.01" y1="63.5" y2="69.16"/>
                  
            <line class="bond" id="mol1bnd2" x1="107.79" x2="107.62" y1="74.77" y2="86.16"/>
                  
            <line class="bond" id="mol1bnd3" x1="104.7" x2="94.76" y1="69.04" y2="63.1"/>
                  
            <line class="bond" id="mol1bnd4" x1="94.76" x2="81.45" y1="63.1" y2="70.52"/>
                  
            <g class="bond" id="mol1bnd5">
                        
                <line x1="80.09" x2="81.45" y1="81.82" y2="70.52"/>
                        
                <line x1="77.67" x2="78.82" y1="81.52" y2="71.99"/>
                      
                <line class="hi" stroke="#3050F8" x1="80.09" x2="80.77000000000001" y1="81.82" y2="76.16999999999999"/>
                <line class="hi" stroke="#3050F8" x1="77.67" x2="78.245" y1="81.52" y2="76.755"/>
            </g>
                  
            <line class="bond" id="mol1bnd6" x1="76.32" x2="67.99" y1="86.31" y2="87.95"/>
                  
            <g class="bond" id="mol1bnd7">
                        
                <line x1="57.26" x2="62.63" y1="75.29" y2="84.93"/>
                        
                <line x1="60.25" x2="64.76" y1="75.65" y2="83.74"/>
                      
                <line class="hi" stroke="#3050F8" x1="62.63" x2="59.945" y1="84.93" y2="80.11000000000001"/>
                <line class="hi" stroke="#3050F8" x1="64.76" x2="62.505" y1="83.74" y2="79.695"/>
            </g>
                  
            <line class="bond" id="mol1bnd8" x1="57.26" x2="64.73" y1="75.29" y2="67.24"/>
                  
            <line class="bond" id="mol1bnd9" x1="81.45" x2="70.84" y1="70.52" y2="65.61"/>
                  
            <line class="bond" id="mol1bnd10" x1="67.05" x2="65.35" y1="60.28" y2="49.05"/>
                  
            <g class="bond" id="mol1bnd11">
                        
                <line x1="52.15" x2="65.35" y1="41.43" y2="49.05"/>
                        
                <line x1="54.59" x2="65.35" y1="40.02" y2="46.23"/>
                      
            </g>
                  
            <line class="bond" id="mol1bnd12" x1="52.15" x2="52.15" y1="41.43" y2="26.19"/>
                  
            <g class="bond" id="mol1bnd13">
                        
                <line x1="65.35" x2="52.15" y1="18.57" y2="26.19"/>
                        
                <line x1="65.35" x2="54.59" y1="21.38" y2="27.6"/>
                      
            </g>
                  
            <line class="bond" id="mol1bnd14" x1="65.35" x2="78.55" y1="18.57" y2="26.19"/>
                  
            <g class="bond" id="mol1bnd15">
                        
                <line x1="78.55" x2="78.55" y1="41.43" y2="26.19"/>
                        
                <line x1="76.11" x2="76.11" y1="40.02" y2="27.6"/>
                      
            </g>
                  
            <line class="bond" id="mol1bnd16" x1="65.35" x2="78.55" y1="49.05" y2="41.43"/>
                  
            <line class="bond" id="mol1bnd17" x1="65.35" x2="65.35" y1="18.57" y2="7.25"/>
                  
            <line class="bond" id="mol1bnd18" x1="52.15" x2="37.97" y1="41.43" y2="47.0"/>
                  
            <g class="bond" id="mol1bnd19">
                        
                <line x1="37.97" x2="34.64" y1="47.0" y2="57.77"/>
                        
                <line x1="39.95" x2="36.97" y1="48.84" y2="58.49"/>
                      
                <line class="hi" stroke="#3050F8" x1="34.64" x2="36.305" y1="57.77" y2="52.385000000000005"/>
                <line class="hi" stroke="#3050F8" x1="36.97" x2="38.46" y1="58.49" y2="53.665000000000006"/>
            </g>
                  
            <line class="bond" id="mol1bnd20" x1="35.93" x2="42.06" y1="65.17" y2="74.15"/>
                  
            <line class="bond" id="mol1bnd21" x1="57.26" x2="42.06" y1="75.29" y2="74.15"/>
                  
            <line class="bond" id="mol1bnd22" x1="37.97" x2="26.8" y1="47.0" y2="36.63"/>
                  
            <g class="bond" id="mol1bnd23">
                        
                <line x1="12.23" x2="26.8" y1="41.13" y2="36.63"/>
                        
                <line x1="12.85" x2="24.73" y1="38.38" y2="34.72"/>
                      
            </g>
                  
            <line class="bond" id="mol1bnd24" x1="12.23" x2="1.05" y1="41.13" y2="30.76"/>
                  
            <g class="bond" id="mol1bnd25">
                        
                <line x1="4.45" x2="1.05" y1="15.9" y2="30.76"/>
                        
                <line x1="6.52" x2="3.75" y1="17.81" y2="29.93"/>
                      
            </g>
                  
            <line class="bond" id="mol1bnd26" x1="4.45" x2="19.02" y1="15.9" y2="11.4"/>
                  
            <g class="bond" id="mol1bnd27">
                        
                <line x1="30.19" x2="19.02" y1="21.77" y2="11.4"/>
                        
                <line x1="27.5" x2="18.4" y1="22.59" y2="14.14"/>
                      
            </g>
                  
            <line class="bond" id="mol1bnd28" x1="26.8" x2="30.19" y1="36.63" y2="21.77"/>
                  
            <path class="atom" d="M109.79 73.37h-.72l-2.62 -4.07h-.03q.01 .24 .03 .6q.02 .36 .02 .73v2.74h-.57v-4.9h.71l2.61 4.05h.03q-.01 -.11 -.02 -.33q-.01 -.22 -.02 -.48q-.01 -.26 -.01 -.48v-2.77h.58v4.9z" id="mol1atm2" stroke="none"/>
                  
            <path class="atom" d="M81.57 88.1h-.72l-2.62 -4.07h-.03q.01 .24 .03 .6q.02 .36 .02 .73v2.74h-.57v-4.9h.71l2.61 4.05h.03q-.01 -.11 -.02 -.33q-.01 -.22 -.02 -.48q-.01 -.26 -.01 -.48v-2.77h.58v4.9z" id="mol1atm6" stroke="none"/>
                  
            <path class="atom" d="M66.62 91.05h-.72l-2.62 -4.07h-.03q.01 .24 .03 .6q.02 .36 .02 .73v2.74h-.57v-4.9h.71l2.61 4.05h.03q-.01 -.11 -.02 -.33q-.01 -.22 -.02 -.48q-.01 -.26 -.01 -.48v-2.77h.58v4.9z" id="mol1atm7" stroke="none"/>
                  
            <path class="atom" d="M69.56 66.57h-.72l-2.62 -4.07h-.03q.01 .24 .03 .6q.02 .36 .02 .73v2.74h-.57v-4.9h.71l2.61 4.05h.03q-.01 -.11 -.02 -.33q-.01 -.22 -.02 -.48q-.01 -.26 -.01 -.48v-2.77h.58v4.9z" id="mol1atm9" stroke="none"/>
                  
            <path class="atom" d="M65.85 1.35q-.79 .0 -1.24 .53q-.45 .52 -.45 1.45q.0 .91 .42 1.45q.42 .53 1.27 .53q.32 .0 .61 -.05q.29 -.06 .57 -.14v.54q-.27 .1 -.57 .15q-.29 .05 -.7 .05q-.74 .0 -1.25 -.31q-.5 -.31 -.75 -.88q-.25 -.57 -.25 -1.34q.0 -.74 .27 -1.31q.27 -.57 .8 -.88q.53 -.32 1.28 -.32q.78 .0 1.35 .29l-.24 .52q-.23 -.1 -.51 -.18q-.27 -.08 -.61 -.08zM68.6 5.77h-.6v-5.21h.6v5.21z" fill="#1FF01F" id="mol1atm16" stroke="none"/>
                  
            <path class="atom" d="M35.42 64.01h-.72l-2.62 -4.07h-.03q.01 .24 .03 .6q.02 .36 .02 .73v2.74h-.57v-4.9h.71l2.61 4.05h.03q-.01 -.11 -.02 -.33q-.01 -.22 -.02 -.48q-.01 -.26 -.01 -.48v-2.77h.58v4.9z" id="mol1atm18" stroke="none"/>
                
            <line class="hi" id="mol1bnd1" stroke="#3050F8" x1="111.01" x2="116.08500000000001" y1="69.16" y2="66.33"/>
            <line class="hi" id="mol1bnd2" stroke="#3050F8" x1="107.79" x2="107.70500000000001" y1="74.77" y2="80.465"/>
            <line class="hi" id="mol1bnd3" stroke="#3050F8" x1="104.7" x2="99.73" y1="69.04" y2="66.07000000000001"/>
            <line class="hi" id="mol1bnd6" stroke="#3050F8" x1="76.32" x2="72.155" y1="86.31" y2="87.13"/>
            <line class="hi" id="mol1bnd6" stroke="#3050F8" x1="67.99" x2="72.155" y1="87.95" y2="87.13"/>
            <line class="hi" id="mol1bnd8" stroke="#3050F8" x1="64.73" x2="60.995000000000005" y1="67.24" y2="71.265"/>
            <line class="hi" id="mol1bnd9" stroke="#3050F8" x1="70.84" x2="76.14500000000001" y1="65.61" y2="68.065"/>
            <line class="hi" id="mol1bnd10" stroke="#3050F8" x1="67.05" x2="66.19999999999999" y1="60.28" y2="54.665"/>
            <line class="hi" id="mol1bnd17" stroke="#1FF01F" x1="65.35" x2="65.35" y1="7.25" y2="12.91"/>
            <line class="hi" id="mol1bnd20" stroke="#3050F8" x1="35.93" x2="38.995000000000005" y1="65.17" y2="69.66"/>
        </g>
          
    </g>
    
</svg>
