<svg xmlns="http://www.w3.org/2000/svg" xmlns:xlink="http://www.w3.org/1999/xlink" height="78.28mm" version="1.2" viewBox="0 0 113.75 78.28" width="113.75mm">
      
    <desc>Generated by the Chemistry Development Kit (http://github.com/cdk)</desc>
      
    <g fill="#FF0D0D" stroke="#000000" stroke-linecap="round" stroke-linejoin="round" stroke-width=".7">
            
        <rect fill="#FFFFFF" height="79.0" stroke="none" width="114.0" x=".0" y=".0"/>
            
        <g class="mol" id="mol1">
                  
            <g class="bond" id="mol1bnd1">
                        
                <line x1="112.71" x2="112.72" y1="69.62" y2="54.37"/>
                        
                <line x1="110.27" x2="110.28" y1="68.21" y2="55.78"/>
                      
            </g>
                  
            <line class="bond" id="mol1bnd2" x1="112.72" x2="99.52" y1="54.37" y2="46.75"/>
                  
            <g class="bond" id="mol1bnd3">
                        
                <line x1="99.52" x2="86.31" y1="46.75" y2="54.38"/>
                        
                <line x1="99.52" x2="88.75" y1="49.57" y2="55.79"/>
                      
            </g>
                  
            <line class="bond" id="mol1bnd4" x1="86.31" x2="86.31" y1="54.38" y2="69.63"/>
                  
            <g class="bond" id="mol1bnd5">
                        
                <line x1="86.31" x2="99.51" y1="69.63" y2="77.25"/>
                        
                <line x1="88.75" x2="99.51" y1="68.22" y2="74.43"/>
                      
            </g>
                  
            <line class="bond" id="mol1bnd6" x1="112.71" x2="99.51" y1="69.62" y2="77.25"/>
                  
            <line class="bond" id="mol1bnd7" x1="86.31" x2="73.12" y1="54.38" y2="46.76"/>
                  
            <line class="bond" id="mol1bnd8" x1="73.12" x2="73.12" y1="46.76" y2="31.52"/>
                  
            <g class="bond" id="mol1bnd9">
                        
                <line x1="59.91" x2="73.12" y1="23.9" y2="31.52"/>
                        
                <line x1="62.35" x2="73.12" y1="22.49" y2="28.7"/>
                      
            </g>
                  
            <line class="bond" id="mol1bnd10" x1="59.91" x2="59.91" y1="23.9" y2="8.66"/>
                  
            <g class="bond" id="mol1bnd11">
                        
                <line x1="73.12" x2="59.91" y1="1.04" y2="8.66"/>
                        
                <line x1="73.12" x2="62.35" y1="3.85" y2="10.07"/>
                      
            </g>
                  
            <line class="bond" id="mol1bnd12" x1="73.12" x2="86.32" y1="1.04" y2="8.66"/>
                  
            <g class="bond" id="mol1bnd13">
                        
                <line x1="86.32" x2="86.32" y1="23.9" y2="8.66"/>
                        
                <line x1="83.89" x2="83.89" y1="22.49" y2="10.07"/>
                      
            </g>
                  
            <line class="bond" id="mol1bnd14" x1="73.12" x2="86.32" y1="31.52" y2="23.9"/>
                  
            <line class="bond" id="mol1bnd15" x1="73.12" x2="62.62" y1="46.76" y2="52.82"/>
                  
            <g class="bond" id="mol1bnd16">
                        
                <line x1="61.14" x2="61.14" y1="58.3" y2="65.7"/>
                        
                <line x1="58.7" x2="58.7" y1="58.3" y2="65.7"/>
                      
                <line class="hi" stroke="#C6C62C" x1="61.14" x2="61.14" y1="58.3" y2="62.0"/>
                <line class="hi" stroke="#FF0D0D" x1="61.14" x2="61.14" y1="65.7" y2="62.0"/>
                <line class="hi" stroke="#C6C62C" x1="58.7" x2="58.7" y1="58.3" y2="62.0"/>
                <line class="hi" stroke="#FF0D0D" x1="58.7" x2="58.7" y1="65.7" y2="62.0"/>
            </g>
                  
            <line class="bond" id="mol1bnd17" x1="57.21" x2="46.72" y1="52.81" y2="46.76"/>
                  
            <line class="bond" id="mol1bnd18" x1="46.72" x2="33.52" y1="46.76" y2="54.38"/>
                  
            <g class="bond" id="mol1bnd19">
                        
                <line x1="34.74" x2="34.74" y1="53.67" y2="65.7"/>
                        
                <line x1="32.3" x2="32.3" y1="53.67" y2="65.7"/>
                      
                <line class="hi" stroke="#FF0D0D" x1="34.74" x2="34.74" y1="65.7" y2="59.685"/>
                <line class="hi" stroke="#FF0D0D" x1="32.3" x2="32.3" y1="65.7" y2="59.685"/>
            </g>
                  
            <line class="bond" id="mol1bnd20" x1="33.52" x2="23.48" y1="54.38" y2="48.58"/>
                  
            <line class="bond" id="mol1bnd21" x1="17.17" x2="10.4" y1="48.58" y2="52.49"/>
                  
            <path class="atom" d="M61.46 55.52q.0 .65 -.48 1.02q-.47 .36 -1.27 .36q-.42 .0 -.77 -.07q-.35 -.06 -.58 -.17v-.59q.24 .11 .61 .2q.37 .09 .76 .09q.55 .0 .83 -.21q.28 -.21 .28 -.58q.0 -.24 -.11 -.4q-.1 -.17 -.35 -.31q-.25 -.14 -.7 -.3q-.63 -.23 -.95 -.55q-.32 -.33 -.32 -.9q.0 -.39 .2 -.67q.2 -.28 .55 -.43q.36 -.15 .82 -.15q.4 .0 .74 .08q.34 .07 .61 .2l-.2 .53q-.25 -.11 -.55 -.18q-.3 -.08 -.63 -.08q-.46 .0 -.69 .2q-.23 .2 -.23 .52q.0 .24 .1 .41q.11 .17 .34 .3q.23 .13 .63 .28q.43 .15 .73 .34q.3 .18 .45 .43q.15 .25 .15 .64z" fill="#C6C62C" id="mol1atm14" stroke="none"/>
                  
            <path class="atom" d="M62.18 69.62q.0 .76 -.26 1.33q-.26 .57 -.76 .88q-.5 .32 -1.24 .32q-.76 .0 -1.26 -.32q-.51 -.32 -.76 -.89q-.24 -.57 -.24 -1.33q.0 -.75 .24 -1.31q.25 -.57 .76 -.88q.51 -.32 1.27 -.32q.73 .0 1.23 .32q.5 .31 .76 .88q.26 .57 .26 1.33zM58.31 69.62q.0 .92 .39 1.46q.39 .53 1.22 .53q.84 .0 1.22 -.53q.39 -.54 .39 -1.46q.0 -.93 -.39 -1.45q-.38 -.52 -1.21 -.52q-.83 .0 -1.23 .52q-.39 .52 -.39 1.45z" id="mol1atm15" stroke="none"/>
                  
            <path class="atom" d="M35.78 69.62q.0 .76 -.26 1.33q-.26 .57 -.76 .88q-.5 .32 -1.24 .32q-.76 .0 -1.26 -.32q-.51 -.32 -.76 -.89q-.24 -.57 -.24 -1.33q.0 -.75 .24 -1.31q.25 -.57 .76 -.88q.51 -.32 1.27 -.32q.73 .0 1.23 .32q.5 .31 .76 .88q.26 .57 .26 1.33zM31.92 69.62q.0 .92 .39 1.46q.39 .53 1.22 .53q.84 .0 1.22 -.53q.39 -.54 .39 -1.46q.0 -.93 -.39 -1.45q-.38 -.52 -1.21 -.52q-.83 .0 -1.23 .52q-.39 .52 -.39 1.45z" id="mol1atm18" stroke="none"/>
                  
            <g class="atom" id="mol1atm19">
                        
                <path d="M22.26 49.21h-.72l-2.62 -4.07h-.03q.01 .24 .03 .6q.02 .36 .02 .73v2.74h-.57v-4.9h.71l2.61 4.05h.03q-.01 -.11 -.02 -.33q-.01 -.22 -.02 -.48q-.01 -.26 -.01 -.48v-2.77h.58v4.9z" fill="#3050F8" stroke="none"/>
                        
                <path d="M22.13 43.75h-.62v-2.29h-2.51v2.29h-.61v-4.9h.61v2.07h2.51v-2.07h.62v4.9z" fill="#3050F8" stroke="none"/>
                      
            </g>
                  
            <g class="atom" id="mol1atm20">
                        
                <path d="M9.38 54.38q.0 .76 -.26 1.33q-.26 .57 -.76 .88q-.5 .32 -1.24 .32q-.76 .0 -1.26 -.32q-.51 -.32 -.76 -.89q-.24 -.57 -.24 -1.33q.0 -.75 .24 -1.31q.25 -.57 .76 -.88q.51 -.32 1.27 -.32q.73 .0 1.23 .32q.5 .31 .76 .88q.26 .57 .26 1.33zM5.52 54.38q.0 .92 .39 1.46q.39 .53 1.22 .53q.84 .0 1.22 -.53q.39 -.54 .39 -1.46q.0 -.93 -.39 -1.45q-.38 -.52 -1.21 -.52q-.83 .0 -1.23 .52q-.39 .52 -.39 1.45z" stroke="none"/>
                        
                <path d="M4.3 56.83h-.62v-2.29h-2.51v2.29h-.61v-4.9h.61v2.07h2.51v-2.07h.62v4.9z" stroke="none"/>
                      
            </g>
                
            <line class="hi" id="mol1bnd15" stroke="#C6C62C" x1="62.62" x2="67.87" y1="52.82" y2="49.79"/>
            <line class="hi" id="mol1bnd17" stroke="#C6C62C" x1="57.21" x2="51.965" y1="52.81" y2="49.785"/>
            <line class="hi" id="mol1bnd20" stroke="#3050F8" x1="23.48" x2="28.5" y1="48.58" y2="51.480000000000004"/>
            <line class="hi" id="mol1bnd20" stroke="#3050F8" x1="23.48" x2="28.5" y1="48.58" y2="51.480000000000004"/>
            <line class="hi" id="mol1bnd21" stroke="#3050F8" x1="17.17" x2="13.785" y1="48.58" y2="50.535"/>
            <line class="hi" id="mol1bnd21" stroke="#3050F8" x1="17.17" x2="13.785" y1="48.58" y2="50.535"/>
            <line class="hi" id="mol1bnd21" stroke="#FF0D0D" x1="10.4" x2="13.785" y1="52.49" y2="50.535"/>
            <line class="hi" id="mol1bnd21" stroke="#FF0D0D" x1="10.4" x2="13.785" y1="52.49" y2="50.535"/>
        </g>
          
    </g>
    
</svg>
