<svg xmlns="http://www.w3.org/2000/svg" xmlns:xlink="http://www.w3.org/1999/xlink" height="64.47mm" version="1.2" viewBox="0 0 83.21 64.47" width="83.21mm">
      
    <desc>Generated by the Chemistry Development Kit (http://github.com/cdk)</desc>
      
    <g fill="#3050F8" stroke="#000000" stroke-linecap="round" stroke-linejoin="round" stroke-width=".7">
            
        <rect fill="#FFFFFF" height="65.0" stroke="none" width="84.0" x=".0" y=".0"/>
            
        <g class="mol" id="mol1">
                  
            <g class="bond" id="mol1bnd1">
                        
                <line x1="67.24" x2="82.24" y1="24.1" y2="26.75"/>
                        
                <line x1="68.2" x2="81.82" y1="26.75" y2="29.15"/>
                      
            </g>
                  
            <line class="bond" id="mol1bnd2" x1="67.24" x2="57.44" y1="24.1" y2="35.78"/>
                  
            <line class="bond" id="mol1bnd3" x1="57.44" x2="42.43" y1="35.78" y2="33.14"/>
                  
            <line class="bond" id="mol1bnd4" x1="42.43" x2="42.43" y1="33.14" y2="48.38"/>
                  
            <g class="bond" id="mol1bnd5">
                        
                <line x1="42.43" x2="52.96" y1="46.97" y2="53.05"/>
                        
                <line x1="41.21" x2="51.74" y1="49.08" y2="55.16"/>
                      
                <line class="hi" stroke="#FF0D0D" x1="52.96" x2="47.695" y1="53.05" y2="50.01"/>
                <line class="hi" stroke="#FF0D0D" x1="51.74" x2="46.475" y1="55.16" y2="52.12"/>
            </g>
                  
            <line class="bond" id="mol1bnd6" x1="42.43" x2="32.38" y1="48.38" y2="54.18"/>
                  
            <line class="bond" id="mol1bnd7" x1="26.07" x2="16.02" y1="54.18" y2="48.38"/>
                  
            <g class="bond" id="mol1bnd8">
                        
                <line x1="17.24" x2="6.71" y1="49.08" y2="55.16"/>
                        
                <line x1="16.02" x2="5.49" y1="46.97" y2="53.05"/>
                      
                <line class="hi" stroke="#FF0D0D" x1="6.710000000000001" x2="11.975" y1="55.16" y2="52.12"/>
                <line class="hi" stroke="#FF0D0D" x1="5.49" x2="10.754999999999999" y1="53.05" y2="50.01"/>
            </g>
                  
            <line class="bond" id="mol1bnd9" x1="16.02" x2="16.02" y1="48.38" y2="36.99"/>
                  
            <line class="bond" id="mol1bnd10" x1="19.17" x2="29.22" y1="31.32" y2="25.52"/>
                  
            <line class="bond" id="mol1bnd11" x1="42.43" x2="29.22" y1="33.14" y2="25.52"/>
                  
            <g class="bond" id="mol1bnd12">
                        
                <line x1="28.01" x2="28.01" y1="26.22" y2="14.2"/>
                        
                <line x1="30.44" x2="30.44" y1="26.22" y2="14.2"/>
                      
                <line class="hi" stroke="#FF0D0D" x1="28.01" x2="28.01" y1="14.2" y2="20.21"/>
                <line class="hi" stroke="#FF0D0D" x1="30.44" x2="30.44" y1="14.2" y2="20.21"/>
            </g>
                  
            <line class="bond" id="mol1bnd13" x1="42.43" x2="47.64" y1="33.14" y2="18.81"/>
                  
            <line class="bond" id="mol1bnd14" x1="47.64" x2="62.65" y1="18.81" y2="16.16"/>
                  
            <g class="bond" id="mol1bnd15">
                        
                <line x1="62.65" x2="67.86" y1="16.16" y2="1.84"/>
                        
                <line x1="60.84" x2="65.57" y1="14.01" y2="1.01"/>
                      
            </g>
                  
            <path class="atom" d="M57.89 55.99q.0 .76 -.26 1.33q-.26 .57 -.76 .88q-.5 .32 -1.24 .32q-.76 .0 -1.26 -.32q-.51 -.32 -.76 -.89q-.24 -.57 -.24 -1.33q.0 -.75 .24 -1.31q.25 -.57 .76 -.88q.51 -.32 1.27 -.32q.73 .0 1.23 .32q.5 .31 .76 .88q.26 .57 .26 1.33zM54.02 55.99q.0 .92 .39 1.46q.39 .53 1.22 .53q.84 .0 1.22 -.53q.39 -.54 .39 -1.46q.0 -.93 -.39 -1.45q-.38 -.52 -1.21 -.52q-.83 .0 -1.23 .52q-.39 .52 -.39 1.45z" fill="#FF0D0D" id="mol1atm6" stroke="none"/>
                  
            <g class="atom" id="mol1atm7">
                        
                <path d="M31.16 58.45h-.72l-2.62 -4.07h-.03q.01 .24 .03 .6q.02 .36 .02 .73v2.74h-.57v-4.9h.71l2.61 4.05h.03q-.01 -.11 -.02 -.33q-.01 -.22 -.02 -.48q-.01 -.26 -.01 -.48v-2.77h.58v4.9z" stroke="none"/>
                        
                <path d="M31.03 63.91h-.62v-2.29h-2.51v2.29h-.61v-4.9h.61v2.07h2.51v-2.07h.62v4.9z" stroke="none"/>
                      
            </g>
                  
            <path class="atom" d="M5.08 55.99q.0 .76 -.26 1.33q-.26 .57 -.76 .88q-.5 .32 -1.24 .32q-.76 .0 -1.26 -.32q-.51 -.32 -.76 -.89q-.24 -.57 -.24 -1.33q.0 -.75 .24 -1.31q.25 -.57 .76 -.88q.51 -.32 1.27 -.32q.73 .0 1.23 .32q.5 .31 .76 .88q.26 .57 .26 1.33zM1.21 55.99q.0 .92 .39 1.46q.39 .53 1.22 .53q.84 .0 1.22 -.53q.39 -.54 .39 -1.46q.0 -.93 -.39 -1.45q-.38 -.52 -1.21 -.52q-.83 .0 -1.23 .52q-.39 .52 -.39 1.45z" fill="#FF0D0D" id="mol1atm9" stroke="none"/>
                  
            <g class="atom" id="mol1atm10">
                        
                <path d="M17.96 35.59h-.72l-2.62 -4.07h-.03q.01 .24 .03 .6q.02 .36 .02 .73v2.74h-.57v-4.9h.71l2.61 4.05h.03q-.01 -.11 -.02 -.33q-.01 -.22 -.02 -.48q-.01 -.26 -.01 -.48v-2.77h.58v4.9z" stroke="none"/>
                        
                <path d="M13.51 35.59h-.62v-2.29h-2.51v2.29h-.61v-4.9h.61v2.07h2.51v-2.07h.62v4.9z" stroke="none"/>
                      
            </g>
                  
            <path class="atom" d="M31.48 10.27q.0 .76 -.26 1.33q-.26 .57 -.76 .88q-.5 .32 -1.24 .32q-.76 .0 -1.26 -.32q-.51 -.32 -.76 -.89q-.24 -.57 -.24 -1.33q.0 -.75 .24 -1.31q.25 -.57 .76 -.88q.51 -.32 1.27 -.32q.73 .0 1.23 .32q.5 .31 .76 .88q.26 .57 .26 1.33zM27.62 10.27q.0 .92 .39 1.46q.39 .53 1.22 .53q.84 .0 1.22 -.53q.39 -.54 .39 -1.46q.0 -.93 -.39 -1.45q-.38 -.52 -1.21 -.52q-.83 .0 -1.23 .52q-.39 .52 -.39 1.45z" fill="#FF0D0D" id="mol1atm12" stroke="none"/>
                
            <line class="hi" id="mol1bnd6" stroke="#3050F8" x1="32.38" x2="37.405" y1="54.18" y2="51.28"/>
            <line class="hi" id="mol1bnd7" stroke="#3050F8" x1="26.07" x2="21.045" y1="54.18" y2="51.28"/>
            <line class="hi" id="mol1bnd9" stroke="#3050F8" x1="16.02" x2="16.02" y1="36.99" y2="42.685"/>
            <line class="hi" id="mol1bnd9" stroke="#3050F8" x1="16.02" x2="16.02" y1="36.99" y2="42.685"/>
            <line class="hi" id="mol1bnd10" stroke="#3050F8" x1="19.17" x2="24.195" y1="31.32" y2="28.42"/>
            <line class="hi" id="mol1bnd10" stroke="#3050F8" x1="19.17" x2="24.195" y1="31.32" y2="28.42"/>
        </g>
          
    </g>
    
</svg>
