<svg xmlns="http://www.w3.org/2000/svg" xmlns:xlink="http://www.w3.org/1999/xlink" height="141.42mm" version="1.2" viewBox="0 0 97.96 141.42" width="97.96mm">
      
    <desc>Generated by the Chemistry Development Kit (http://github.com/cdk)</desc>
      
    <g fill="#90E050" stroke="#000000" stroke-linecap="round" stroke-linejoin="round" stroke-width=".7">
            
        <rect fill="#FFFFFF" height="142.0" stroke="none" width="98.0" x=".0" y=".0"/>
            
        <g class="mol" id="mol1">
                  
            <g class="bond" id="mol1bnd1">
                        
                <line x1="77.27" x2="92.18" y1="55.9" y2="52.75"/>
                        
                <line x1="78.14" x2="90.3" y1="53.22" y2="50.65"/>
                      
            </g>
                  
            <line class="bond" id="mol1bnd2" x1="77.27" x2="67.08" y1="55.9" y2="44.55"/>
                  
            <g class="bond" id="mol1bnd3">
                        
                <line x1="71.81" x2="67.08" y1="30.05" y2="44.55"/>
                        
                <line x1="73.69" x2="69.84" y1="32.14" y2="43.97"/>
                      
            </g>
                  
            <line class="bond" id="mol1bnd4" x1="71.81" x2="86.72" y1="30.05" y2="26.9"/>
                  
            <g class="bond" id="mol1bnd5">
                        
                <line x1="96.9" x2="86.72" y1="38.25" y2="26.9"/>
                        
                <line x1="94.15" x2="85.84" y1="38.83" y2="29.58"/>
                      
            </g>
                  
            <line class="bond" id="mol1bnd6" x1="92.18" x2="96.9" y1="52.75" y2="38.25"/>
                  
            <line class="bond" id="mol1bnd7" x1="86.72" x2="91.44" y1="26.9" y2="12.4"/>
                  
            <g class="bond" id="mol1bnd8">
                        
                <line x1="91.44" x2="81.26" y1="12.4" y2="1.05"/>
                        
                <line x1="88.69" x2="80.38" y1="12.98" y2="3.73"/>
                      
            </g>
                  
            <line class="bond" id="mol1bnd9" x1="81.26" x2="66.35" y1="1.05" y2="4.2"/>
                  
            <g class="bond" id="mol1bnd10">
                        
                <line x1="66.35" x2="61.62" y1="4.2" y2="18.7"/>
                        
                <line x1="68.23" x2="64.38" y1="6.3" y2="18.12"/>
                      
            </g>
                  
            <line class="bond" id="mol1bnd11" x1="71.81" x2="61.62" y1="30.05" y2="18.7"/>
                  
            <line class="bond" id="mol1bnd12" x1="61.62" x2="46.71" y1="18.7" y2="21.85"/>
                  
            <g class="bond" id="mol1bnd13">
                        
                <line x1="46.27" x2="38.27" y1="23.19" y2="14.28"/>
                        
                <line x1="48.09" x2="40.08" y1="21.56" y2="12.65"/>
                      
                <line class="hi" stroke="#FF0D0D" x1="38.27" x2="42.27" y1="14.28" y2="18.735"/>
                <line class="hi" stroke="#FF0D0D" x1="40.08" x2="44.085" y1="12.65" y2="17.105"/>
            </g>
                  
            <line class="bond" id="mol1bnd14" x1="46.71" x2="41.98" y1="21.85" y2="36.34"/>
                  
            <g class="bond" id="mol1bnd15">
                        
                <line x1="50.92" x2="41.98" y1="48.63" y2="36.34"/>
                        
                <line x1="47.91" x2="41.05" y1="48.63" y2="39.2"/>
                      
            </g>
                  
            <line class="bond" id="mol1bnd16" x1="50.92" x2="44.59" y1="48.63" y2="57.35"/>
                  
            <line class="bond" id="mol1bnd17" x1="38.71" x2="27.45" y1="59.88" y2="56.25"/>
                  
            <g class="bond" id="mol1bnd18">
                        
                <line x1="14.25" x2="27.45" y1="63.87" y2="56.25"/>
                        
                <line x1="14.25" x2="25.02" y1="61.06" y2="54.85"/>
                      
            </g>
                  
            <line class="bond" id="mol1bnd19" x1="14.25" x2="1.04" y1="63.87" y2="56.25"/>
                  
            <g class="bond" id="mol1bnd20">
                        
                <line x1="1.04" x2="1.04" y1="41.01" y2="56.25"/>
                        
                <line x1="3.48" x2="3.48" y1="42.42" y2="54.85"/>
                      
            </g>
                  
            <line class="bond" id="mol1bnd21" x1="1.04" x2="14.25" y1="41.01" y2="33.39"/>
                  
            <g class="bond" id="mol1bnd22">
                        
                <line x1="27.45" x2="14.25" y1="41.01" y2="33.39"/>
                        
                <line x1="25.02" x2="14.25" y1="42.42" y2="36.21"/>
                      
            </g>
                  
            <line class="bond" id="mol1bnd23" x1="27.45" x2="27.45" y1="56.25" y2="41.01"/>
                  
            <line class="bond" id="mol1bnd24" x1="41.98" x2="27.45" y1="36.34" y2="41.01"/>
                  
            <line class="bond" id="mol1bnd25" x1="43.22" x2="46.71" y1="64.71" y2="75.42"/>
                  
            <line class="bond" id="mol1bnd26" x1="46.71" x2="36.53" y1="75.42" y2="86.75"/>
                  
            <line class="bond" id="mol1bnd27" x1="36.53" x2="41.25" y1="86.75" y2="101.24"/>
                  
            <line class="bond" id="mol1bnd28" x1="41.25" x2="31.07" y1="101.24" y2="112.58"/>
                  
            <line class="bond" id="mol1bnd29" x1="31.07" x2="35.8" y1="112.58" y2="127.07"/>
                  
            <line class="bond" id="mol1bnd30" x1="35.8" x2="27.89" y1="127.07" y2="135.87"/>
                  
            <path class="atom" d="M38.79 10.51q.0 .76 -.26 1.33q-.26 .57 -.76 .88q-.5 .32 -1.24 .32q-.76 .0 -1.26 -.32q-.51 -.32 -.76 -.89q-.24 -.57 -.24 -1.33q.0 -.75 .24 -1.31q.25 -.57 .76 -.88q.51 -.32 1.27 -.32q.73 .0 1.23 .32q.5 .31 .76 .88q.26 .57 .26 1.33zM34.92 10.51q.0 .92 .39 1.46q.39 .53 1.22 .53q.84 .0 1.22 -.53q.39 -.54 .39 -1.46q.0 -.93 -.39 -1.45q-.38 -.52 -1.21 -.52q-.83 .0 -1.23 .52q-.39 .52 -.39 1.45z" fill="#FF0D0D" id="mol1atm12" stroke="none"/>
                  
            <path class="atom" d="M43.92 63.38h-.72l-2.62 -4.07h-.03q.01 .24 .03 .6q.02 .36 .02 .73v2.74h-.57v-4.9h.71l2.61 4.05h.03q-.01 -.11 -.02 -.33q-.01 -.22 -.02 -.48q-.01 -.26 -.01 -.48v-2.77h.58v4.9z" fill="#3050F8" id="mol1atm15" stroke="none"/>
                  
            <path class="atom" d="M24.86 140.86h-.61v-4.9h2.73v.54h-2.12v1.74h1.99v.54h-1.99v2.08z" id="mol1atm27" stroke="none"/>
                
            <line class="hi" id="mol1bnd16" stroke="#3050F8" x1="44.59" x2="47.755" y1="57.35" y2="52.99"/>
            <line class="hi" id="mol1bnd17" stroke="#3050F8" x1="38.71" x2="33.08" y1="59.88" y2="58.065"/>
            <line class="hi" id="mol1bnd25" stroke="#3050F8" x1="43.22" x2="44.965" y1="64.71" y2="70.065"/>
            <line class="hi" id="mol1bnd30" stroke="#90E050" x1="27.89" x2="31.845" y1="135.87" y2="131.47"/>
        </g>
          
    </g>
    
</svg>
