<svg xmlns="http://www.w3.org/2000/svg" xmlns:xlink="http://www.w3.org/1999/xlink" height="66.78mm" version="1.2" viewBox="0 0 72.62 66.78" width="72.62mm">
      
    <desc>Generated by the Chemistry Development Kit (http://github.com/cdk)</desc>
      
    <g fill="#3050F8" stroke="#000000" stroke-linecap="round" stroke-linejoin="round" stroke-width=".7">
            
        <rect fill="#FFFFFF" height="67.0" stroke="none" width="73.0" x=".0" y=".0"/>
            
        <g class="mol" id="mol1">
                  
            <line class="bond" id="mol1bnd1" x1="54.47" x2="40.62" y1="41.37" y2="35.19"/>
                  
            <line class="bond" id="mol1bnd2" x1="40.62" x2="41.74" y1="35.19" y2="23.92"/>
                  
            <line class="bond" id="mol1bnd3" x1="45.76" x2="57.07" y1="19.25" y2="16.92"/>
                  
            <g class="bond" id="mol1bnd4">
                        
                <line x1="62.55" x2="57.07" y1="26.38" y2="16.92"/>
                        
                <line x1="60.44" x2="55.84" y1="27.6" y2="19.66"/>
                      
                <line class="hi" stroke="#3050F8" x1="62.55" x2="59.81" y1="26.38" y2="21.65"/>
            </g>
                  
            <line class="bond" id="mol1bnd5" x1="54.47" x2="61.79" y1="41.37" y2="33.24"/>
                  
            <line class="bond" id="mol1bnd6" x1="57.07" x2="61.57" y1="16.92" y2="6.87"/>
                  
            <line class="bond" id="mol1bnd7" x1="40.62" x2="27.44" y1="35.19" y2="42.84"/>
                  
            <g class="bond" id="mol1bnd8">
                        
                <line x1="27.48" x2="27.44" y1="58.09" y2="42.84"/>
                        
                <line x1="25.04" x2="25.01" y1="56.69" y2="44.25"/>
                      
            </g>
                  
            <line class="bond" id="mol1bnd9" x1="27.48" x2="14.3" y1="58.09" y2="65.74"/>
                  
            <g class="bond" id="mol1bnd10">
                        
                <line x1="1.08" x2="14.3" y1="58.15" y2="65.74"/>
                        
                <line x1="3.52" x2="14.3" y1="56.73" y2="62.93"/>
                      
            </g>
                  
            <line class="bond" id="mol1bnd11" x1="1.08" x2="1.04" y1="58.15" y2="42.9"/>
                  
            <g class="bond" id="mol1bnd12">
                        
                <line x1="14.22" x2="1.04" y1="35.25" y2="42.9"/>
                        
                <line x1="14.22" x2="3.48" y1="38.06" y2="44.3"/>
                      
            </g>
                  
            <line class="bond" id="mol1bnd13" x1="27.44" x2="14.22" y1="42.84" y2="35.25"/>
                  
            <path class="atom" d="M44.38 20.0q.0 .76 -.26 1.33q-.26 .57 -.76 .88q-.5 .32 -1.24 .32q-.76 .0 -1.26 -.32q-.51 -.32 -.76 -.89q-.24 -.57 -.24 -1.33q.0 -.75 .24 -1.31q.25 -.57 .76 -.88q.51 -.32 1.27 -.32q.73 .0 1.23 .32q.5 .31 .76 .88q.26 .57 .26 1.33zM40.52 20.0q.0 .92 .39 1.46q.39 .53 1.22 .53q.84 .0 1.22 -.53q.39 -.54 .39 -1.46q.0 -.93 -.39 -1.45q-.38 -.52 -1.21 -.52q-.83 .0 -1.23 .52q-.39 .52 -.39 1.45z" fill="#FF0D0D" id="mol1atm3" stroke="none"/>
                  
            <path class="atom" d="M66.61 32.49h-.72l-2.62 -4.07h-.03q.01 .24 .03 .6q.02 .36 .02 .73v2.74h-.57v-4.9h.71l2.61 4.05h.03q-.01 -.11 -.02 -.33q-.01 -.22 -.02 -.48q-.01 -.26 -.01 -.48v-2.77h.58v4.9z" id="mol1atm5" stroke="none"/>
                  
            <g class="atom" id="mol1atm6">
                        
                <path d="M65.25 5.46h-.72l-2.62 -4.07h-.03q.01 .24 .03 .6q.02 .36 .02 .73v2.74h-.57v-4.9h.71l2.61 4.05h.03q-.01 -.11 -.02 -.33q-.01 -.22 -.02 -.48q-.01 -.26 -.01 -.48v-2.77h.58v4.9z" stroke="none"/>
                        
                <path d="M69.55 5.46h-.62v-2.29h-2.51v2.29h-.61v-4.9h.61v2.07h2.51v-2.07h.62v4.9z" stroke="none"/>
                        
                <path d="M72.06 6.95h-1.94v-.3l.77 -.78q.22 -.22 .37 -.39q.15 -.18 .23 -.34q.08 -.17 .08 -.36q.0 -.24 -.15 -.37q-.14 -.13 -.37 -.13q-.21 .0 -.38 .08q-.16 .08 -.33 .21l-.19 -.24q.17 -.15 .39 -.25q.23 -.1 .51 -.1q.41 .0 .65 .21q.24 .21 .24 .58q.0 .23 -.1 .43q-.09 .2 -.26 .4q-.17 .2 -.39 .42l-.61 .6v.02h1.49v.33z" stroke="none"/>
                      
            </g>
                
            <line class="hi" id="mol1bnd2" stroke="#FF0D0D" x1="41.74" x2="41.18" y1="23.92" y2="29.555"/>
            <line class="hi" id="mol1bnd3" stroke="#FF0D0D" x1="45.76" x2="51.415" y1="19.25" y2="18.085"/>
            <line class="hi" id="mol1bnd5" stroke="#3050F8" x1="61.79" x2="58.129999999999995" y1="33.24" y2="37.305"/>
            <line class="hi" id="mol1bnd6" stroke="#3050F8" x1="61.57" x2="59.32" y1="6.870000000000001" y2="11.895000000000001"/>
        </g>
          
    </g>
    
</svg>
