<svg xmlns="http://www.w3.org/2000/svg" xmlns:xlink="http://www.w3.org/1999/xlink" height="57.29mm" version="1.2" viewBox="0 0 93.09 57.29" width="93.09mm">
      
    <desc>Generated by the Chemistry Development Kit (http://github.com/cdk)</desc>
      
    <g fill="#3050F8" stroke="#000000" stroke-linecap="round" stroke-linejoin="round" stroke-width=".7">
            
        <rect fill="#FFFFFF" height="58.0" stroke="none" width="94.0" x=".0" y=".0"/>
            
        <g class="mol" id="mol1">
                  
            <line class="bond" id="mol1bnd1" x1="62.65" x2="47.64" y1="48.31" y2="45.67"/>
                  
            <line class="bond" id="mol1bnd2" x1="47.64" x2="42.42" y1="45.67" y2="31.35"/>
                  
            <line class="bond" id="mol1bnd3" x1="42.42" x2="29.23" y1="31.35" y2="38.97"/>
                  
            <g class="bond" id="mol1bnd4">
                        
                <line x1="30.45" x2="30.44" y1="38.26" y2="50.29"/>
                        
                <line x1="28.01" x2="28.01" y1="38.26" y2="50.29"/>
                      
                <line class="hi" stroke="#FF0D0D" x1="30.44" x2="30.445" y1="50.29" y2="44.275"/>
                <line class="hi" stroke="#FF0D0D" x1="28.01" x2="28.01" y1="50.29" y2="44.275"/>
            </g>
                  
            <line class="bond" id="mol1bnd5" x1="29.23" x2="19.18" y1="38.97" y2="33.16"/>
                  
            <line class="bond" id="mol1bnd6" x1="16.02" x2="16.02" y1="27.49" y2="16.09"/>
                  
            <g class="bond" id="mol1bnd7">
                        
                <line x1="16.02" x2="5.49" y1="17.5" y2="11.42"/>
                        
                <line x1="17.24" x2="6.7" y1="15.39" y2="9.31"/>
                      
                <line class="hi" stroke="#FF0D0D" x1="5.49" x2="10.754999999999999" y1="11.42" y2="14.46"/>
                <line class="hi" stroke="#FF0D0D" x1="6.699999999999999" x2="11.969999999999999" y1="9.31" y2="12.350000000000001"/>
            </g>
                  
            <line class="bond" id="mol1bnd8" x1="16.02" x2="26.06" y1="16.09" y2="10.29"/>
                  
            <line class="bond" id="mol1bnd9" x1="32.37" x2="42.42" y1="10.29" y2="16.1"/>
                  
            <line class="bond" id="mol1bnd10" x1="42.42" x2="42.42" y1="31.35" y2="16.1"/>
                  
            <g class="bond" id="mol1bnd11">
                        
                <line x1="41.2" x2="51.73" y1="15.4" y2="9.32"/>
                        
                <line x1="42.42" x2="52.95" y1="17.51" y2="11.43"/>
                      
                <line class="hi" stroke="#FF0D0D" x1="51.73" x2="46.465" y1="9.32" y2="12.36"/>
                <line class="hi" stroke="#FF0D0D" x1="52.95" x2="47.685" y1="11.43" y2="14.47"/>
            </g>
                  
            <line class="bond" id="mol1bnd12" x1="42.42" x2="57.43" y1="31.35" y2="28.7"/>
                  
            <line class="bond" id="mol1bnd13" x1="57.43" x2="67.23" y1="28.7" y2="40.37"/>
                  
            <line class="bond" id="mol1bnd14" x1="67.23" x2="82.24" y1="40.37" y2="37.72"/>
                  
            <line class="bond" id="mol1bnd15" x1="82.24" x2="92.04" y1="37.72" y2="49.39"/>
                  
            <line class="bond" id="mol1bnd16" x1="82.24" x2="87.45" y1="37.72" y2="23.4"/>
                  
            <path class="atom" d="M31.48 54.2q.0 .76 -.26 1.33q-.26 .57 -.76 .88q-.5 .32 -1.24 .32q-.76 .0 -1.26 -.32q-.51 -.32 -.76 -.89q-.24 -.57 -.24 -1.33q.0 -.75 .24 -1.31q.25 -.57 .76 -.88q.51 -.32 1.27 -.32q.73 .0 1.23 .32q.5 .31 .76 .88q.26 .57 .26 1.33zM27.62 54.2q.0 .92 .39 1.46q.39 .53 1.22 .53q.84 .0 1.22 -.53q.39 -.54 .39 -1.46q.0 -.93 -.39 -1.45q-.38 -.52 -1.21 -.52q-.83 .0 -1.23 .52q-.39 .52 -.39 1.45z" fill="#FF0D0D" id="mol1atm5" stroke="none"/>
                  
            <g class="atom" id="mol1atm6">
                        
                <path d="M17.96 33.79h-.72l-2.62 -4.07h-.03q.01 .24 .03 .6q.02 .36 .02 .73v2.74h-.57v-4.9h.71l2.61 4.05h.03q-.01 -.11 -.02 -.33q-.01 -.22 -.02 -.48q-.01 -.26 -.01 -.48v-2.77h.58v4.9z" stroke="none"/>
                        
                <path d="M13.52 33.79h-.62v-2.29h-2.51v2.29h-.61v-4.9h.61v2.07h2.51v-2.07h.62v4.9z" stroke="none"/>
                      
            </g>
                  
            <path class="atom" d="M5.08 8.47q.0 .76 -.26 1.33q-.26 .57 -.76 .88q-.5 .32 -1.24 .32q-.76 .0 -1.26 -.32q-.51 -.32 -.76 -.89q-.24 -.57 -.24 -1.33q.0 -.75 .24 -1.31q.25 -.57 .76 -.88q.51 -.32 1.27 -.32q.73 .0 1.23 .32q.5 .31 .76 .88q.26 .57 .26 1.33zM1.21 8.47q.0 .92 .39 1.46q.39 .53 1.22 .53q.84 .0 1.22 -.53q.39 -.54 .39 -1.46q.0 -.93 -.39 -1.45q-.38 -.52 -1.21 -.52q-.83 .0 -1.23 .52q-.39 .52 -.39 1.45z" fill="#FF0D0D" id="mol1atm8" stroke="none"/>
                  
            <g class="atom" id="mol1atm9">
                        
                <path d="M31.16 10.92h-.72l-2.62 -4.07h-.03q.01 .24 .03 .6q.02 .36 .02 .73v2.74h-.57v-4.9h.71l2.61 4.05h.03q-.01 -.11 -.02 -.33q-.01 -.22 -.02 -.48q-.01 -.26 -.01 -.48v-2.77h.58v4.9z" stroke="none"/>
                        
                <path d="M31.02 5.46h-.62v-2.29h-2.51v2.29h-.61v-4.9h.61v2.07h2.51v-2.07h.62v4.9z" stroke="none"/>
                      
            </g>
                  
            <path class="atom" d="M57.88 8.48q.0 .76 -.26 1.33q-.26 .57 -.76 .88q-.5 .32 -1.24 .32q-.76 .0 -1.26 -.32q-.51 -.32 -.76 -.89q-.24 -.57 -.24 -1.33q.0 -.75 .24 -1.31q.25 -.57 .76 -.88q.51 -.32 1.27 -.32q.73 .0 1.23 .32q.5 .31 .76 .88q.26 .57 .26 1.33zM54.01 8.48q.0 .92 .39 1.46q.39 .53 1.22 .53q.84 .0 1.22 -.53q.39 -.54 .39 -1.46q.0 -.93 -.39 -1.45q-.38 -.52 -1.21 -.52q-.83 .0 -1.23 .52q-.39 .52 -.39 1.45z" fill="#FF0D0D" id="mol1atm11" stroke="none"/>
                
            <line class="hi" id="mol1bnd5" stroke="#3050F8" x1="19.18" x2="24.205" y1="33.16" y2="36.065"/>
            <line class="hi" id="mol1bnd5" stroke="#3050F8" x1="19.18" x2="24.205" y1="33.16" y2="36.065"/>
            <line class="hi" id="mol1bnd6" stroke="#3050F8" x1="16.02" x2="16.02" y1="27.49" y2="21.79"/>
            <line class="hi" id="mol1bnd6" stroke="#3050F8" x1="16.02" x2="16.02" y1="27.49" y2="21.79"/>
            <line class="hi" id="mol1bnd8" stroke="#3050F8" x1="26.06" x2="21.04" y1="10.29" y2="13.19"/>
            <line class="hi" id="mol1bnd8" stroke="#3050F8" x1="26.06" x2="21.04" y1="10.29" y2="13.19"/>
            <line class="hi" id="mol1bnd9" stroke="#3050F8" x1="32.37" x2="37.394999999999996" y1="10.29" y2="13.195"/>
            <line class="hi" id="mol1bnd9" stroke="#3050F8" x1="32.37" x2="37.394999999999996" y1="10.29" y2="13.195"/>
        </g>
          
    </g>
    
</svg>
