<svg xmlns="http://www.w3.org/2000/svg" xmlns:xlink="http://www.w3.org/1999/xlink" height="57.48mm" version="1.2" viewBox="0 0 74.16 57.48" width="74.16mm">
      
    <desc>Generated by the Chemistry Development Kit (http://github.com/cdk)</desc>
      
    <g fill="#FF0D0D" stroke="#000000" stroke-linecap="round" stroke-linejoin="round" stroke-width=".7">
            
        <rect fill="#FFFFFF" height="58.0" stroke="none" width="75.0" x=".0" y=".0"/>
            
        <g class="mol" id="mol1">
                  
            <line class="bond" id="mol1bnd1" x1="73.12" x2="59.92" y1="25.95" y2="33.57"/>
                  
            <g class="bond" id="mol1bnd2">
                        
                <line x1="61.14" x2="61.14" y1="32.86" y2="44.89"/>
                        
                <line x1="58.7" x2="58.7" y1="32.86" y2="44.89"/>
                      
                <line class="hi" stroke="#FF0D0D" x1="61.14" x2="61.14" y1="44.89" y2="38.875"/>
                <line class="hi" stroke="#FF0D0D" x1="58.7" x2="58.7" y1="44.89" y2="38.875"/>
            </g>
                  
            <line class="bond" id="mol1bnd3" x1="59.92" x2="50.0" y1="33.57" y2="27.84"/>
                  
            <line class="bond" id="mol1bnd4" x1="43.44" x2="33.53" y1="27.84" y2="33.56"/>
                  
            <g class="bond" id="mol1bnd5">
                        
                <line x1="33.52" x2="33.53" y1="48.81" y2="33.56"/>
                        
                <line x1="31.08" x2="31.09" y1="47.4" y2="34.97"/>
                      
            </g>
                  
            <line class="bond" id="mol1bnd6" x1="33.52" x2="20.32" y1="48.81" y2="56.44"/>
                  
            <g class="bond" id="mol1bnd7">
                        
                <line x1="7.12" x2="20.32" y1="48.82" y2="56.44"/>
                        
                <line x1="9.56" x2="20.32" y1="47.41" y2="53.62"/>
                      
            </g>
                  
            <line class="bond" id="mol1bnd8" x1="7.12" x2="7.12" y1="48.82" y2="33.57"/>
                  
            <g class="bond" id="mol1bnd9">
                        
                <line x1="20.33" x2="7.12" y1="25.94" y2="33.57"/>
                        
                <line x1="20.33" x2="9.56" y1="28.76" y2="34.98"/>
                      
            </g>
                  
            <line class="bond" id="mol1bnd10" x1="33.53" x2="20.33" y1="33.56" y2="25.94"/>
                  
            <line class="bond" id="mol1bnd11" x1="20.33" x2="20.32" y1="25.94" y2="10.7"/>
                  
            <g class="bond" id="mol1bnd12">
                        
                <line x1="19.11" x2="29.63" y1="10.0" y2="3.92"/>
                        
                <line x1="20.33" x2="30.85" y1="12.11" y2="6.03"/>
                      
                <line class="hi" stroke="#FF0D0D" x1="29.63" x2="24.369999999999997" y1="3.92" y2="6.96"/>
                <line class="hi" stroke="#FF0D0D" x1="30.85" x2="25.59" y1="6.03" y2="9.07"/>
            </g>
                  
            <line class="bond" id="mol1bnd13" x1="20.32" x2="10.4" y1="10.7" y2="4.98"/>
                  
            <path class="atom" d="M62.18 48.8q.0 .76 -.26 1.33q-.26 .57 -.76 .88q-.5 .32 -1.24 .32q-.76 .0 -1.26 -.32q-.51 -.32 -.76 -.89q-.24 -.57 -.24 -1.33q.0 -.75 .24 -1.31q.25 -.57 .76 -.88q.51 -.32 1.27 -.32q.73 .0 1.23 .32q.5 .31 .76 .88q.26 .57 .26 1.33zM58.32 48.8q.0 .92 .39 1.46q.39 .53 1.22 .53q.84 .0 1.22 -.53q.39 -.54 .39 -1.46q.0 -.93 -.39 -1.45q-.38 -.52 -1.21 -.52q-.83 .0 -1.23 .52q-.39 .52 -.39 1.45z" id="mol1atm3" stroke="none"/>
                  
            <path class="atom" d="M48.98 25.94q.0 .76 -.26 1.33q-.26 .57 -.76 .88q-.5 .32 -1.24 .32q-.76 .0 -1.26 -.32q-.51 -.32 -.76 -.89q-.24 -.57 -.24 -1.33q.0 -.75 .24 -1.31q.25 -.57 .76 -.88q.51 -.32 1.27 -.32q.73 .0 1.23 .32q.5 .31 .76 .88q.26 .57 .26 1.33zM45.12 25.94q.0 .92 .39 1.46q.39 .53 1.22 .53q.84 .0 1.22 -.53q.39 -.54 .39 -1.46q.0 -.93 -.39 -1.45q-.38 -.52 -1.21 -.52q-.83 .0 -1.23 .52q-.39 .52 -.39 1.45z" id="mol1atm4" stroke="none"/>
                  
            <path class="atom" d="M35.78 3.08q.0 .76 -.26 1.33q-.26 .57 -.76 .88q-.5 .32 -1.24 .32q-.76 .0 -1.26 -.32q-.51 -.32 -.76 -.89q-.24 -.57 -.24 -1.33q.0 -.75 .24 -1.31q.25 -.57 .76 -.88q.51 -.32 1.27 -.32q.73 .0 1.23 .32q.5 .31 .76 .88q.26 .57 .26 1.33zM31.92 3.08q.0 .92 .39 1.46q.39 .53 1.22 .53q.84 .0 1.22 -.53q.39 -.54 .39 -1.46q.0 -.93 -.39 -1.45q-.38 -.52 -1.21 -.52q-.83 .0 -1.23 .52q-.39 .52 -.39 1.45z" id="mol1atm12" stroke="none"/>
                  
            <g class="atom" id="mol1atm13">
                        
                <path d="M9.38 3.08q.0 .76 -.26 1.33q-.26 .57 -.76 .88q-.5 .32 -1.24 .32q-.76 .0 -1.26 -.32q-.51 -.32 -.76 -.89q-.24 -.57 -.24 -1.33q.0 -.75 .24 -1.31q.25 -.57 .76 -.88q.51 -.32 1.27 -.32q.73 .0 1.23 .32q.5 .31 .76 .88q.26 .57 .26 1.33zM5.52 3.08q.0 .92 .39 1.46q.39 .53 1.22 .53q.84 .0 1.22 -.53q.39 -.54 .39 -1.46q.0 -.93 -.39 -1.45q-.38 -.52 -1.21 -.52q-.83 .0 -1.23 .52q-.39 .52 -.39 1.45z" stroke="none"/>
                        
                <path d="M4.3 5.54h-.62v-2.29h-2.51v2.29h-.61v-4.9h.61v2.07h2.51v-2.07h.62v4.9z" stroke="none"/>
                      
            </g>
                
            <line class="hi" id="mol1bnd3" stroke="#FF0D0D" x1="50.0" x2="54.96" y1="27.84" y2="30.705"/>
            <line class="hi" id="mol1bnd4" stroke="#FF0D0D" x1="43.44" x2="38.485" y1="27.84" y2="30.700000000000003"/>
            <line class="hi" id="mol1bnd13" stroke="#FF0D0D" x1="10.4" x2="15.36" y1="4.98" y2="7.84"/>
            <line class="hi" id="mol1bnd13" stroke="#FF0D0D" x1="10.4" x2="15.36" y1="4.98" y2="7.84"/>
        </g>
          
    </g>
    
</svg>
