<svg xmlns="http://www.w3.org/2000/svg" xmlns:xlink="http://www.w3.org/1999/xlink" height="61.28mm" version="1.2" viewBox="0 0 103.45 61.28" width="103.45mm">
      
    <desc>Generated by the Chemistry Development Kit (http://github.com/cdk)</desc>
      
    <g fill="#FF0D0D" stroke="#000000" stroke-linecap="round" stroke-linejoin="round" stroke-width=".7">
            
        <rect fill="#FFFFFF" height="62.0" stroke="none" width="104.0" x=".0" y=".0"/>
            
        <g class="mol" id="mol1">
                  
            <g class="bond" id="mol1bnd1">
                        
                <line x1="73.02" x2="86.22" y1="33.62" y2="26.0"/>
                        
                <line x1="73.01" x2="83.8" y1="30.81" y2="24.59"/>
                      
            </g>
                  
            <line class="bond" id="mol1bnd2" x1="86.22" x2="86.4" y1="26.0" y2="10.88"/>
                  
            <g class="bond" id="mol1bnd3">
                        
                <line x1="86.4" x2="73.06" y1="10.88" y2="3.22"/>
                        
                <line x1="83.95" x2="73.06" y1="12.28" y2="6.03"/>
                      
            </g>
                  
            <line class="bond" id="mol1bnd4" x1="73.06" x2="59.86" y1="3.22" y2="10.84"/>
                  
            <g class="bond" id="mol1bnd5">
                        
                <line x1="59.86" x2="59.92" y1="10.84" y2="26.17"/>
                        
                <line x1="62.31" x2="62.35" y1="12.24" y2="24.75"/>
                      
            </g>
                  
            <line class="bond" id="mol1bnd6" x1="73.02" x2="59.92" y1="33.62" y2="26.17"/>
                  
            <line class="bond" id="mol1bnd7" x1="59.92" x2="46.76" y1="26.17" y2="33.86"/>
                  
            <line class="bond" id="mol1bnd8" x1="46.76" x2="33.52" y1="33.86" y2="26.3"/>
                  
            <line class="bond" id="mol1bnd9" x1="33.52" x2="20.36" y1="26.3" y2="33.99"/>
                  
            <g class="bond" id="mol1bnd10">
                        
                <line x1="21.58" x2="21.64" y1="33.28" y2="45.3"/>
                        
                <line x1="19.14" x2="19.2" y1="33.29" y2="45.32"/>
                      
                <line class="hi" stroke="#FF0D0D" x1="21.64" x2="21.61" y1="45.3" y2="39.29"/>
                <line class="hi" stroke="#FF0D0D" x1="19.2" x2="19.17" y1="45.32" y2="39.305"/>
            </g>
                  
            <line class="bond" id="mol1bnd11" x1="20.36" x2="10.41" y1="33.99" y2="28.31"/>
                  
            <line class="bond" id="mol1bnd12" x1="46.76" x2="46.83" y1="33.86" y2="49.1"/>
                  
            <line class="bond" id="mol1bnd13" x1="46.83" x2="36.82" y1="49.1" y2="54.94"/>
                  
            <line class="bond" id="mol1bnd14" x1="86.4" x2="96.67" y1="10.88" y2="5.02"/>
                  
            <path class="atom" d="M22.7 49.23q.0 .76 -.26 1.33q-.26 .57 -.76 .88q-.5 .32 -1.24 .32q-.76 .0 -1.26 -.32q-.51 -.32 -.76 -.89q-.24 -.57 -.24 -1.33q.0 -.75 .24 -1.31q.25 -.57 .76 -.88q.51 -.32 1.27 -.32q.73 .0 1.23 .32q.5 .31 .76 .88q.26 .57 .26 1.33zM18.83 49.23q.0 .92 .39 1.46q.39 .53 1.22 .53q.84 .0 1.22 -.53q.39 -.54 .39 -1.46q.0 -.93 -.39 -1.45q-.38 -.52 -1.21 -.52q-.83 .0 -1.23 .52q-.39 .52 -.39 1.45z" id="mol1atm10" stroke="none"/>
                  
            <g class="atom" id="mol1atm11">
                        
                <path d="M9.38 26.43q.0 .76 -.26 1.33q-.26 .57 -.76 .88q-.5 .32 -1.24 .32q-.76 .0 -1.26 -.32q-.51 -.32 -.76 -.89q-.24 -.57 -.24 -1.33q.0 -.75 .24 -1.31q.25 -.57 .76 -.88q.51 -.32 1.27 -.32q.73 .0 1.23 .32q.5 .31 .76 .88q.26 .57 .26 1.33zM5.52 26.43q.0 .92 .39 1.46q.39 .53 1.22 .53q.84 .0 1.22 -.53q.39 -.54 .39 -1.46q.0 -.93 -.39 -1.45q-.38 -.52 -1.21 -.52q-.83 .0 -1.23 .52q-.39 .52 -.39 1.45z" stroke="none"/>
                        
                <path d="M4.3 28.89h-.62v-2.29h-2.51v2.29h-.61v-4.9h.61v2.07h2.51v-2.07h.62v4.9z" stroke="none"/>
                      
            </g>
                  
            <g class="atom" id="mol1atm13">
                        
                <path d="M35.62 59.23h-.72l-2.62 -4.07h-.03q.01 .24 .03 .6q.02 .36 .02 .73v2.74h-.57v-4.9h.71l2.61 4.05h.03q-.01 -.11 -.02 -.33q-.01 -.22 -.02 -.48q-.01 -.26 -.01 -.48v-2.77h.58v4.9z" fill="#3050F8" stroke="none"/>
                        
                <path d="M28.67 59.23h-.62v-2.29h-2.51v2.29h-.61v-4.9h.61v2.07h2.51v-2.07h.62v4.9z" fill="#3050F8" stroke="none"/>
                        
                <path d="M31.17 60.72h-1.94v-.3l.77 -.78q.22 -.22 .37 -.39q.15 -.18 .23 -.34q.08 -.17 .08 -.36q.0 -.24 -.15 -.37q-.14 -.13 -.37 -.13q-.21 .0 -.38 .08q-.16 .08 -.33 .21l-.19 -.24q.17 -.15 .39 -.25q.23 -.1 .51 -.1q.41 .0 .65 .21q.24 .21 .24 .58q.0 .23 -.1 .43q-.09 .2 -.26 .4q-.17 .2 -.39 .42l-.61 .6v.02h1.49v.33z" fill="#3050F8" stroke="none"/>
                      
            </g>
                  
            <path class="atom" d="M100.13 1.35q-.79 .0 -1.24 .53q-.45 .52 -.45 1.45q.0 .91 .42 1.45q.42 .53 1.27 .53q.32 .0 .61 -.05q.29 -.06 .57 -.14v.54q-.27 .1 -.57 .15q-.29 .05 -.7 .05q-.74 .0 -1.25 -.31q-.5 -.31 -.75 -.88q-.25 -.57 -.25 -1.34q.0 -.74 .27 -1.31q.27 -.57 .8 -.88q.53 -.32 1.28 -.32q.78 .0 1.35 .29l-.24 .52q-.23 -.1 -.51 -.18q-.27 -.08 -.61 -.08zM102.89 5.77h-.6v-5.21h.6v5.21z" fill="#1FF01F" id="mol1atm14" stroke="none"/>
                
            <line class="hi" id="mol1bnd11" stroke="#FF0D0D" x1="10.41" x2="15.385" y1="28.31" y2="31.15"/>
            <line class="hi" id="mol1bnd11" stroke="#FF0D0D" x1="10.41" x2="15.385" y1="28.31" y2="31.15"/>
            <line class="hi" id="mol1bnd13" stroke="#3050F8" x1="36.82" x2="41.825" y1="54.94" y2="52.019999999999996"/>
            <line class="hi" id="mol1bnd14" stroke="#1FF01F" x1="96.67" x2="91.535" y1="5.02" y2="7.95"/>
        </g>
          
    </g>
    
</svg>
