<svg xmlns="http://www.w3.org/2000/svg" xmlns:xlink="http://www.w3.org/1999/xlink" height="91.48mm" version="1.2" viewBox="0 0 84.95 91.48" width="84.95mm">
      
    <desc>Generated by the Chemistry Development Kit (http://github.com/cdk)</desc>
      
    <g fill="#3050F8" stroke="#000000" stroke-linecap="round" stroke-linejoin="round" stroke-width=".7">
            
        <rect fill="#FFFFFF" height="92.0" stroke="none" width="85.0" x=".0" y=".0"/>
            
        <g class="mol" id="mol1">
                  
            <line class="bond" id="mol1bnd1" x1="10.01" x2="1.05" y1="56.57" y2="44.24"/>
                  
            <line class="bond" id="mol1bnd2" x1="1.05" x2="7.25" y1="44.24" y2="30.32"/>
                  
            <line class="bond" id="mol1bnd3" x1="7.25" x2="22.4" y1="30.32" y2="28.73"/>
                  
            <g class="bond" id="mol1bnd4">
                        
                <line x1="31.36" x2="22.4" y1="41.06" y2="28.73"/>
                        
                <line x1="28.56" x2="21.26" y1="41.35" y2="31.3"/>
                      
            </g>
                  
            <line class="bond" id="mol1bnd5" x1="31.36" x2="25.16" y1="41.06" y2="54.98"/>
                  
            <line class="bond" id="mol1bnd6" x1="10.01" x2="25.16" y1="56.57" y2="54.98"/>
                  
            <line class="bond" id="mol1bnd7" x1="31.36" x2="45.86" y1="41.06" y2="36.35"/>
                  
            <g class="bond" id="mol1bnd8">
                        
                <line x1="45.86" x2="45.86" y1="36.35" y2="21.11"/>
                        
                <line x1="43.42" x2="43.42" y1="34.58" y2="22.88"/>
                      
            </g>
                  
            <line class="bond" id="mol1bnd9" x1="45.86" x2="34.23" y1="21.11" y2="17.33"/>
                  
            <line class="bond" id="mol1bnd10" x1="22.4" x2="28.99" y1="28.73" y2="19.66"/>
                  
            <line class="bond" id="mol1bnd11" x1="45.86" x2="54.74" y1="21.11" y2="14.03"/>
                  
            <line class="bond" id="mol1bnd12" x1="61.08" x2="72.63" y1="12.36" y2="15.0"/>
                  
            <g class="bond" id="mol1bnd13">
                        
                <line x1="71.31" x2="78.71" y1="14.7" y2="5.41"/>
                        
                <line x1="73.22" x2="80.62" y1="16.22" y2="6.93"/>
                      
                <line class="hi" stroke="#FF0D0D" x1="78.71" x2="75.00999999999999" y1="5.41" y2="10.055"/>
                <line class="hi" stroke="#FF0D0D" x1="80.62" x2="76.92" y1="6.93" y2="11.575"/>
            </g>
                  
            <line class="bond" id="mol1bnd14" x1="72.63" x2="79.24" y1="15.0" y2="28.73"/>
                  
            <line class="bond" id="mol1bnd15" x1="79.24" x2="74.42" y1="28.73" y2="38.75"/>
                  
            <g class="bond" id="mol1bnd16">
                        
                <line x1="57.77" x2="69.32" y1="45.85" y2="43.21"/>
                        
                <line x1="58.37" x2="68.78" y1="43.21" y2="40.84"/>
                      
                <line class="hi" stroke="#3050F8" x1="69.32" x2="63.545" y1="43.21" y2="44.53"/>
                <line class="hi" stroke="#3050F8" x1="68.78" x2="63.575" y1="40.84" y2="42.025000000000006"/>
            </g>
                  
            <line class="bond" id="mol1bnd17" x1="45.86" x2="57.77" y1="36.35" y2="45.85"/>
                  
            <line class="bond" id="mol1bnd18" x1="57.77" x2="54.38" y1="45.85" y2="60.71"/>
                  
            <g class="bond" id="mol1bnd19">
                        
                <line x1="65.56" x2="54.38" y1="71.07" y2="60.71"/>
                        
                <line x1="62.87" x2="53.75" y1="71.91" y2="63.45"/>
                      
            </g>
                  
            <line class="bond" id="mol1bnd20" x1="65.56" x2="62.17" y1="71.07" y2="85.93"/>
                  
            <g class="bond" id="mol1bnd21">
                        
                <line x1="47.6" x2="62.17" y1="90.42" y2="85.93"/>
                        
                <line x1="48.22" x2="60.11" y1="87.68" y2="84.02"/>
                      
            </g>
                  
            <line class="bond" id="mol1bnd22" x1="47.6" x2="36.42" y1="90.42" y2="80.05"/>
                  
            <g class="bond" id="mol1bnd23">
                        
                <line x1="39.81" x2="36.42" y1="65.2" y2="80.05"/>
                        
                <line x1="41.87" x2="39.11" y1="67.11" y2="79.22"/>
                      
            </g>
                  
            <line class="bond" id="mol1bnd24" x1="54.38" x2="39.81" y1="60.71" y2="65.2"/>
                  
            <path class="atom" d="M32.91 17.53q.0 .65 -.48 1.02q-.47 .36 -1.27 .36q-.42 .0 -.77 -.07q-.35 -.06 -.58 -.17v-.59q.24 .11 .61 .2q.37 .09 .76 .09q.55 .0 .83 -.21q.28 -.21 .28 -.58q.0 -.24 -.11 -.4q-.1 -.17 -.35 -.31q-.25 -.14 -.7 -.3q-.63 -.23 -.95 -.55q-.32 -.33 -.32 -.9q.0 -.39 .2 -.67q.2 -.28 .55 -.43q.36 -.15 .82 -.15q.4 .0 .74 .08q.34 .07 .61 .2l-.2 .53q-.25 -.11 -.55 -.18q-.3 -.08 -.63 -.08q-.46 .0 -.69 .2q-.23 .2 -.23 .52q.0 .24 .1 .41q.11 .17 .34 .3q.23 .13 .63 .28q.43 .15 .73 .34q.3 .18 .45 .43q.15 .25 .15 .64z" fill="#C6C62C" id="mol1atm9" stroke="none"/>
                  
            <g class="atom" id="mol1atm10">
                        
                <path d="M59.71 14.05h-.72l-2.62 -4.07h-.03q.01 .24 .03 .6q.02 .36 .02 .73v2.74h-.57v-4.9h.71l2.61 4.05h.03q-.01 -.11 -.02 -.33q-.01 -.22 -.02 -.48q-.01 -.26 -.01 -.48v-2.77h.58v4.9z" stroke="none"/>
                        
                <path d="M59.57 8.59h-.62v-2.29h-2.51v2.29h-.61v-4.9h.61v2.07h2.51v-2.07h.62v4.9z" stroke="none"/>
                      
            </g>
                  
            <path class="atom" d="M84.39 3.08q.0 .76 -.26 1.33q-.26 .57 -.76 .88q-.5 .32 -1.24 .32q-.76 .0 -1.26 -.32q-.51 -.32 -.76 -.89q-.24 -.57 -.24 -1.33q.0 -.75 .24 -1.31q.25 -.57 .76 -.88q.51 -.32 1.27 -.32q.73 .0 1.23 .32q.5 .31 .76 .88q.26 .57 .26 1.33zM80.53 3.08q.0 .92 .39 1.46q.39 .53 1.22 .53q.84 .0 1.22 -.53q.39 -.54 .39 -1.46q.0 -.93 -.39 -1.45q-.38 -.52 -1.21 -.52q-.83 .0 -1.23 .52q-.39 .52 -.39 1.45z" fill="#FF0D0D" id="mol1atm12" stroke="none"/>
                  
            <path class="atom" d="M74.57 44.91h-.72l-2.62 -4.07h-.03q.01 .24 .03 .6q.02 .36 .02 .73v2.74h-.57v-4.9h.71l2.61 4.05h.03q-.01 -.11 -.02 -.33q-.01 -.22 -.02 -.48q-.01 -.26 -.01 -.48v-2.77h.58v4.9z" id="mol1atm14" stroke="none"/>
                
            <line class="hi" id="mol1bnd9" stroke="#C6C62C" x1="34.23" x2="40.045" y1="17.33" y2="19.22"/>
            <line class="hi" id="mol1bnd10" stroke="#C6C62C" x1="28.99" x2="25.695" y1="19.66" y2="24.195"/>
            <line class="hi" id="mol1bnd11" stroke="#3050F8" x1="54.74" x2="50.3" y1="14.03" y2="17.57"/>
            <line class="hi" id="mol1bnd11" stroke="#3050F8" x1="54.74" x2="50.3" y1="14.03" y2="17.57"/>
            <line class="hi" id="mol1bnd12" stroke="#3050F8" x1="61.08" x2="66.85499999999999" y1="12.36" y2="13.68"/>
            <line class="hi" id="mol1bnd12" stroke="#3050F8" x1="61.08" x2="66.85499999999999" y1="12.36" y2="13.68"/>
            <line class="hi" id="mol1bnd15" stroke="#3050F8" x1="74.42" x2="76.83" y1="38.75" y2="33.74"/>
        </g>
          
    </g>
    
</svg>
