<svg xmlns="http://www.w3.org/2000/svg" xmlns:xlink="http://www.w3.org/1999/xlink" height="102.87mm" version="1.2" viewBox="0 0 54.87 102.87" width="54.87mm">
      
    <desc>Generated by the Chemistry Development Kit (http://github.com/cdk)</desc>
      
    <g fill="#3050F8" stroke="#000000" stroke-linecap="round" stroke-linejoin="round" stroke-width=".7">
            
        <rect fill="#FFFFFF" height="103.0" stroke="none" width="55.0" x=".0" y=".0"/>
            
        <g class="mol" id="mol1">
                  
            <line class="bond" id="mol1bnd1" x1="46.31" x2="53.83" y1="101.83" y2="86.8"/>
                  
            <line class="bond" id="mol1bnd2" x1="53.83" x2="40.63" y1="86.8" y2="94.42"/>
                  
            <line class="bond" id="mol1bnd3" x1="40.63" x2="27.43" y1="94.42" y2="86.8"/>
                  
            <line class="bond" id="mol1bnd4" x1="27.43" x2="19.2" y1="86.8" y2="101.83"/>
                  
            <line class="bond" id="mol1bnd5" x1="19.2" x2="32.4" y1="101.83" y2="95.64"/>
                  
            <line class="bond" id="mol1bnd6" x1="46.31" x2="32.4" y1="101.83" y2="95.64"/>
                  
            <line class="bond" id="mol1bnd7" x1="32.4" x2="32.4" y1="95.64" y2="80.4"/>
                  
            <line class="bond" id="mol1bnd8" x1="32.4" x2="40.63" y1="80.4" y2="63.95"/>
                  
            <line class="bond" id="mol1bnd9" x1="40.63" x2="53.83" y1="63.95" y2="71.57"/>
                  
            <line class="bond" id="mol1bnd10" x1="53.83" x2="53.83" y1="86.8" y2="71.57"/>
                  
            <line class="bond" id="mol1bnd11" x1="40.63" x2="27.43" y1="63.95" y2="71.57"/>
                  
            <line class="bond" id="mol1bnd12" x1="27.43" x2="27.43" y1="86.8" y2="71.57"/>
                  
            <line class="bond" id="mol1bnd13" x1="27.43" x2="17.39" y1="71.57" y2="65.77"/>
                  
            <line class="bond" id="mol1bnd14" x1="14.24" x2="14.24" y1="60.1" y2="48.72"/>
                  
            <g class="bond" id="mol1bnd15">
                        
                <line x1="1.04" x2="14.24" y1="41.1" y2="48.72"/>
                        
                <line x1="3.48" x2="14.24" y1="39.69" y2="45.91"/>
                      
            </g>
                  
            <line class="bond" id="mol1bnd16" x1="1.04" x2="1.04" y1="41.1" y2="25.86"/>
                  
            <g class="bond" id="mol1bnd17">
                        
                <line x1="14.23" x2="1.04" y1="18.24" y2="25.86"/>
                        
                <line x1="14.23" x2="3.48" y1="21.06" y2="27.26"/>
                      
            </g>
                  
            <line class="bond" id="mol1bnd18" x1="14.23" x2="27.42" y1="18.24" y2="25.87"/>
                  
            <g class="bond" id="mol1bnd19">
                        
                <line x1="27.43" x2="27.42" y1="41.11" y2="25.87"/>
                        
                <line x1="24.99" x2="24.99" y1="39.7" y2="27.27"/>
                      
            </g>
                  
            <line class="bond" id="mol1bnd20" x1="14.24" x2="27.43" y1="48.72" y2="41.11"/>
                  
            <line class="bond" id="mol1bnd21" x1="14.23" x2="14.23" y1="18.24" y2="6.86"/>
                  
            <g class="atom" id="mol1atm11">
                        
                <path d="M16.18 66.4h-.72l-2.62 -4.07h-.03q.01 .24 .03 .6q.02 .36 .02 .73v2.74h-.57v-4.9h.71l2.61 4.05h.03q-.01 -.11 -.02 -.33q-.01 -.22 -.02 -.48q-.01 -.26 -.01 -.48v-2.77h.58v4.9z" stroke="none"/>
                        
                <path d="M11.73 66.4h-.62v-2.29h-2.51v2.29h-.61v-4.9h.61v2.07h2.51v-2.07h.62v4.9z" stroke="none"/>
                      
            </g>
                  
            <path class="atom" d="M13.92 .56q.92 .0 1.39 .27q.47 .27 .47 .94q.0 .43 -.24 .72q-.24 .29 -.69 .36v.04q.31 .05 .56 .18q.25 .13 .39 .38q.15 .24 .15 .62q.0 .67 -.46 1.03q-.46 .36 -1.24 .36h-1.72v-4.9h1.4zM14.04 2.65q.63 .0 .86 -.2q.24 -.2 .24 -.6q.0 -.4 -.29 -.58q-.29 -.18 -.91 -.18h-.81v1.56h.9zM13.13 3.16v1.77h.99q.65 .0 .9 -.25q.26 -.26 .26 -.67q.0 -.38 -.27 -.62q-.26 -.24 -.94 -.24h-.94zM18.61 1.71q.1 .0 .22 .01q.13 .01 .21 .03l-.07 .55q-.09 -.02 -.2 -.03q-.11 -.02 -.2 -.02q-.28 .0 -.53 .15q-.24 .15 -.39 .43q-.15 .27 -.15 .65v1.96h-.6v-3.67h.49l.07 .67h.03q.18 -.3 .46 -.52q.28 -.22 .67 -.22z" fill="#A62929" id="mol1atm18" stroke="none"/>
                
            <line class="hi" id="mol1bnd13" stroke="#3050F8" x1="17.39" x2="22.41" y1="65.77" y2="68.66999999999999"/>
            <line class="hi" id="mol1bnd13" stroke="#3050F8" x1="17.39" x2="22.41" y1="65.77" y2="68.66999999999999"/>
            <line class="hi" id="mol1bnd14" stroke="#3050F8" x1="14.24" x2="14.24" y1="60.1" y2="54.41"/>
            <line class="hi" id="mol1bnd14" stroke="#3050F8" x1="14.24" x2="14.24" y1="60.1" y2="54.41"/>
            <line class="hi" id="mol1bnd21" stroke="#A62929" x1="14.23" x2="14.23" y1="6.859999999999999" y2="12.549999999999999"/>
        </g>
          
    </g>
    
</svg>
