<svg xmlns="http://www.w3.org/2000/svg" xmlns:xlink="http://www.w3.org/1999/xlink" height="103.28mm" version="1.2" viewBox="0 0 139.18 103.28" width="139.18mm">
      
    <desc>Generated by the Chemistry Development Kit (http://github.com/cdk)</desc>
      
    <g fill="#FF0D0D" stroke="#000000" stroke-linecap="round" stroke-linejoin="round" stroke-width=".7">
            
        <rect fill="#FFFFFF" height="104.0" stroke="none" width="140.0" x=".0" y=".0"/>
            
        <g class="mol" id="mol1">
                  
            <line class="bond" id="mol1bnd1" x1="45.84" x2="57.53" y1="10.08" y2="12.14"/>
                  
            <line class="bond" id="mol1bnd2" x1="63.69" x2="70.64" y1="9.34" y2="1.05"/>
                  
            <line class="bond" id="mol1bnd3" x1="62.22" x2="66.06" y1="16.49" y2="27.05"/>
                  
            <line class="bond" id="mol1bnd4" x1="66.06" x2="79.26" y1="27.05" y2="19.43"/>
                  
            <line class="bond" id="mol1bnd5" x1="79.26" x2="92.47" y1="19.43" y2="27.05"/>
                  
            <line class="bond" id="mol1bnd6" x1="92.47" x2="92.47" y1="27.05" y2="42.29"/>
                  
            <line class="bond" id="mol1bnd7" x1="92.47" x2="79.26" y1="42.29" y2="49.91"/>
                  
            <line class="bond" id="mol1bnd8" x1="79.26" x2="66.06" y1="49.91" y2="42.29"/>
                  
            <line class="bond" id="mol1bnd9" x1="66.06" x2="66.06" y1="27.05" y2="42.29"/>
                  
            <line class="bond" id="mol1bnd10" x1="92.47" x2="97.68" y1="42.29" y2="56.61"/>
                  
            <line class="bond" id="mol1bnd11" x1="97.68" x2="112.69" y1="56.61" y2="59.26"/>
                  
            <line class="bond" id="mol1bnd12" x1="112.69" x2="117.9" y1="59.26" y2="73.58"/>
                  
            <g class="bond" id="mol1bnd13">
                        
                <line x1="132.91" x2="117.9" y1="76.23" y2="73.58"/>
                        
                <line x1="131.1" x2="118.86" y1="78.38" y2="76.23"/>
                      
            </g>
                  
            <line class="bond" id="mol1bnd14" x1="132.91" x2="138.12" y1="76.23" y2="90.55"/>
                  
            <g class="bond" id="mol1bnd15">
                        
                <line x1="128.32" x2="138.12" y1="102.23" y2="90.55"/>
                        
                <line x1="127.35" x2="135.35" y1="99.58" y2="90.06"/>
                      
            </g>
                  
            <line class="bond" id="mol1bnd16" x1="128.32" x2="113.3" y1="102.23" y2="99.58"/>
                  
            <g class="bond" id="mol1bnd17">
                        
                <line x1="108.09" x2="113.3" y1="85.26" y2="99.58"/>
                        
                <line x1="110.86" x2="115.11" y1="85.75" y2="97.42"/>
                      
            </g>
                  
            <line class="bond" id="mol1bnd18" x1="117.9" x2="108.09" y1="73.58" y2="85.26"/>
                  
            <line class="bond" id="mol1bnd19" x1="92.47" x2="103.84" y1="42.29" y2="40.28"/>
                  
            <line class="bond" id="mol1bnd20" x1="66.06" x2="51.05" y1="27.05" y2="29.69"/>
                  
            <g class="bond" id="mol1bnd21">
                        
                <line x1="45.83" x2="51.05" y1="44.02" y2="29.69"/>
                        
                <line x1="44.02" x2="48.27" y1="41.86" y2="30.18"/>
                      
            </g>
                  
            <line class="bond" id="mol1bnd22" x1="45.83" x2="30.81" y1="44.02" y2="46.67"/>
                  
            <g class="bond" id="mol1bnd23">
                        
                <line x1="21.01" x2="30.81" y1="35.0" y2="46.67"/>
                        
                <line x1="23.79" x2="31.77" y1="34.51" y2="44.03"/>
                      
            </g>
                  
            <line class="bond" id="mol1bnd24" x1="21.01" x2="26.23" y1="35.0" y2="20.67"/>
                  
            <g class="bond" id="mol1bnd25">
                        
                <line x1="41.25" x2="26.23" y1="18.02" y2="20.67"/>
                        
                <line x1="40.29" x2="28.04" y1="20.66" y2="22.83"/>
                      
            </g>
                  
            <line class="bond" id="mol1bnd26" x1="51.05" x2="41.25" y1="29.69" y2="18.02"/>
                  
            <line class="bond" id="mol1bnd27" x1="21.01" x2="7.82" y1="35.0" y2="37.32"/>
                  
            <path class="atom" d="M62.79 15.18h-.72l-2.62 -4.07h-.03q.01 .24 .03 .6q.02 .36 .02 .73v2.74h-.57v-4.9h.71l2.61 4.05h.03q-.01 -.11 -.02 -.33q-.01 -.22 -.02 -.48q-.01 -.26 -.01 -.48v-2.77h.58v4.9z" fill="#3050F8" id="mol1atm2" stroke="none"/>
                  
            <g class="atom" id="mol1atm18">
                        
                <path d="M109.74 39.64q.0 .76 -.26 1.33q-.26 .57 -.76 .88q-.5 .32 -1.24 .32q-.76 .0 -1.26 -.32q-.51 -.32 -.76 -.89q-.24 -.57 -.24 -1.33q.0 -.75 .24 -1.31q.25 -.57 .76 -.88q.51 -.32 1.27 -.32q.73 .0 1.23 .32q.5 .31 .76 .88q.26 .57 .26 1.33zM105.88 39.64q.0 .92 .39 1.46q.39 .53 1.22 .53q.84 .0 1.22 -.53q.39 -.54 .39 -1.46q.0 -.93 -.39 -1.45q-.38 -.52 -1.21 -.52q-.83 .0 -1.23 .52q-.39 .52 -.39 1.45z" stroke="none"/>
                        
                <path d="M114.05 42.09h-.62v-2.29h-2.51v2.29h-.61v-4.9h.61v2.07h2.51v-2.07h.62v4.9z" stroke="none"/>
                      
            </g>
                  
            <path class="atom" d="M1.96 34.62q.92 .0 1.39 .27q.47 .27 .47 .94q.0 .43 -.24 .72q-.24 .29 -.69 .36v.04q.31 .05 .56 .18q.25 .13 .39 .38q.15 .24 .15 .62q.0 .67 -.46 1.03q-.46 .36 -1.24 .36h-1.72v-4.9h1.4zM2.08 36.71q.63 .0 .86 -.2q.24 -.2 .24 -.6q.0 -.4 -.29 -.58q-.29 -.18 -.91 -.18h-.81v1.56h.9zM1.17 37.22v1.77h.99q.65 .0 .9 -.25q.26 -.26 .26 -.67q.0 -.38 -.27 -.62q-.26 -.24 -.94 -.24h-.94zM6.65 35.77q.1 .0 .22 .01q.13 .01 .21 .03l-.07 .55q-.09 -.02 -.2 -.03q-.11 -.02 -.2 -.02q-.28 .0 -.53 .15q-.24 .15 -.39 .43q-.15 .27 -.15 .65v1.96h-.6v-3.67h.49l.07 .67h.03q.18 -.3 .46 -.52q.28 -.22 .67 -.22z" fill="#A62929" id="mol1atm25" stroke="none"/>
                
            <line class="hi" id="mol1bnd1" stroke="#3050F8" x1="57.53" x2="51.685" y1="12.14" y2="11.11"/>
            <line class="hi" id="mol1bnd2" stroke="#3050F8" x1="63.69" x2="67.16499999999999" y1="9.34" y2="5.195"/>
            <line class="hi" id="mol1bnd3" stroke="#3050F8" x1="62.22" x2="64.14" y1="16.49" y2="21.77"/>
            <line class="hi" id="mol1bnd19" stroke="#FF0D0D" x1="103.84" x2="98.155" y1="40.28" y2="41.285"/>
            <line class="hi" id="mol1bnd27" stroke="#A62929" x1="7.82" x2="14.415000000000001" y1="37.32" y2="36.16"/>
        </g>
          
    </g>
    
</svg>
