<svg xmlns="http://www.w3.org/2000/svg" xmlns:xlink="http://www.w3.org/1999/xlink" height="91.51mm" version="1.2" viewBox="0 0 84.05 91.51" width="84.05mm">
      
    <desc>Generated by the Chemistry Development Kit (http://github.com/cdk)</desc>
      
    <g fill="#3050F8" stroke="#000000" stroke-linecap="round" stroke-linejoin="round" stroke-width=".7">
            
        <rect fill="#FFFFFF" height="92.0" stroke="none" width="85.0" x=".0" y=".0"/>
            
        <g class="mol" id="mol1">
                  
            <line class="bond" id="mol1bnd1" x1="5.74" x2="12.35" y1="62.82" y2="76.53"/>
                  
            <g class="bond" id="mol1bnd2">
                        
                <line x1="13.66" x2="6.24" y1="76.84" y2="86.1"/>
                        
                <line x1="11.76" x2="4.34" y1="75.31" y2="84.58"/>
                      
                <line class="hi" stroke="#FF0D0D" x1="6.24" x2="9.95" y1="86.1" y2="81.47"/>
                <line class="hi" stroke="#FF0D0D" x1="4.34" x2="8.05" y1="84.58" y2="79.945"/>
            </g>
                  
            <line class="bond" id="mol1bnd3" x1="12.35" x2="23.88" y1="76.53" y2="79.22"/>
                  
            <line class="bond" id="mol1bnd4" x1="30.21" x2="39.07" y1="77.55" y2="70.44"/>
                  
            <g class="bond" id="mol1bnd5">
                        
                <line x1="39.07" x2="39.07" y1="55.2" y2="70.44"/>
                        
                <line x1="41.51" x2="41.51" y1="56.6" y2="69.03"/>
                      
            </g>
                  
            <line class="bond" id="mol1bnd6" x1="39.07" x2="52.28" y1="55.2" y2="47.58"/>
                  
            <g class="bond" id="mol1bnd7">
                        
                <line x1="65.48" x2="52.28" y1="55.2" y2="47.58"/>
                        
                <line x1="63.05" x2="52.28" y1="56.6" y2="50.39"/>
                      
            </g>
                  
            <line class="bond" id="mol1bnd8" x1="65.48" x2="65.48" y1="55.2" y2="70.44"/>
                  
            <g class="bond" id="mol1bnd9">
                        
                <line x1="52.28" x2="65.48" y1="78.06" y2="70.44"/>
                        
                <line x1="52.28" x2="63.05" y1="75.24" y2="69.03"/>
                      
            </g>
                  
            <line class="bond" id="mol1bnd10" x1="39.07" x2="52.28" y1="70.44" y2="78.06"/>
                  
            <line class="bond" id="mol1bnd11" x1="65.48" x2="75.76" y1="55.2" y2="49.26"/>
                  
            <line class="bond" id="mol1bnd12" x1="39.07" x2="27.18" y1="55.2" y2="45.65"/>
                  
            <g class="bond" id="mol1bnd13">
                        
                <line x1="27.18" x2="15.65" y1="45.65" y2="48.33"/>
                        
                <line x1="26.58" x2="16.21" y1="48.29" y2="50.71"/>
                      
                <line class="hi" stroke="#3050F8" x1="15.65" x2="21.415" y1="48.33" y2="46.989999999999995"/>
                <line class="hi" stroke="#3050F8" x1="16.21" x2="21.395" y1="50.71" y2="49.5"/>
            </g>
                  
            <line class="bond" id="mol1bnd14" x1="5.74" x2="10.56" y1="62.82" y2="52.81"/>
                  
            <line class="bond" id="mol1bnd15" x1="27.18" x2="30.57" y1="45.65" y2="30.79"/>
                  
            <g class="bond" id="mol1bnd16">
                        
                <line x1="19.39" x2="30.57" y1="20.42" y2="30.79"/>
                        
                <line x1="22.08" x2="31.19" y1="19.59" y2="28.04"/>
                      
            </g>
                  
            <line class="bond" id="mol1bnd17" x1="19.39" x2="22.79" y1="20.42" y2="5.56"/>
                  
            <g class="bond" id="mol1bnd18">
                        
                <line x1="37.36" x2="22.79" y1="1.05" y2="5.56"/>
                        
                <line x1="36.73" x2="24.85" y1="3.8" y2="7.47"/>
                      
            </g>
                  
            <line class="bond" id="mol1bnd19" x1="37.36" x2="48.53" y1="1.05" y2="11.42"/>
                  
            <g class="bond" id="mol1bnd20">
                        
                <line x1="46.01" x2="48.53" y1="22.47" y2="11.42"/>
                        
                <line x1="43.63" x2="45.84" y1="21.93" y2="12.25"/>
                      
                <line class="hi" stroke="#3050F8" x1="46.01" x2="47.269999999999996" y1="22.47" y2="16.945"/>
                <line class="hi" stroke="#3050F8" x1="43.63" x2="44.735" y1="21.93" y2="17.09"/>
            </g>
                  
            <line class="bond" id="mol1bnd21" x1="30.57" x2="41.86" y1="30.79" y2="27.3"/>
                  
            <path class="atom" d="M5.08 88.42q.0 .76 -.26 1.33q-.26 .57 -.76 .88q-.5 .32 -1.24 .32q-.76 .0 -1.26 -.32q-.51 -.32 -.76 -.89q-.24 -.57 -.24 -1.33q.0 -.75 .24 -1.31q.25 -.57 .76 -.88q.51 -.32 1.27 -.32q.73 .0 1.23 .32q.5 .31 .76 .88q.26 .57 .26 1.33zM1.21 88.42q.0 .92 .39 1.46q.39 .53 1.22 .53q.84 .0 1.22 -.53q.39 -.54 .39 -1.46q.0 -.93 -.39 -1.45q-.38 -.52 -1.21 -.52q-.83 .0 -1.23 .52q-.39 .52 -.39 1.45z" fill="#FF0D0D" id="mol1atm3" stroke="none"/>
                  
            <g class="atom" id="mol1atm4">
                        
                <path d="M29.12 82.44h-.72l-2.62 -4.07h-.03q.01 .24 .03 .6q.02 .36 .02 .73v2.74h-.57v-4.9h.71l2.61 4.05h.03q-.01 -.11 -.02 -.33q-.01 -.22 -.02 -.48q-.01 -.26 -.01 -.48v-2.77h.58v4.9z" stroke="none"/>
                        
                <path d="M28.99 87.9h-.62v-2.29h-2.51v2.29h-.61v-4.9h.61v2.07h2.51v-2.07h.62v4.9z" stroke="none"/>
                      
            </g>
                  
            <path class="atom" d="M78.37 45.12q.92 .0 1.39 .27q.47 .27 .47 .94q.0 .43 -.24 .72q-.24 .29 -.69 .36v.04q.31 .05 .56 .18q.25 .13 .39 .38q.15 .24 .15 .62q.0 .67 -.46 1.03q-.46 .36 -1.24 .36h-1.72v-4.9h1.4zM78.49 47.21q.63 .0 .86 -.2q.24 -.2 .24 -.6q.0 -.4 -.29 -.58q-.29 -.18 -.91 -.18h-.81v1.56h.9zM77.58 47.73v1.77h.99q.65 .0 .9 -.25q.26 -.26 .26 -.67q.0 -.38 -.27 -.62q-.26 -.24 -.94 -.24h-.94zM83.06 46.28q.1 .0 .22 .01q.13 .01 .21 .03l-.07 .55q-.09 -.02 -.2 -.03q-.11 -.02 -.2 -.02q-.28 .0 -.53 .15q-.24 .15 -.39 .43q-.15 .27 -.15 .65v1.96h-.6v-3.67h.49l.07 .67h.03q.18 -.3 .46 -.52q.28 -.22 .67 -.22z" fill="#A62929" id="mol1atm11" stroke="none"/>
                  
            <path class="atom" d="M14.29 51.55h-.72l-2.62 -4.07h-.03q.01 .24 .03 .6q.02 .36 .02 .73v2.74h-.57v-4.9h.71l2.61 4.05h.03q-.01 -.11 -.02 -.33q-.01 -.22 -.02 -.48q-.01 -.26 -.01 -.48v-2.77h.58v4.9z" id="mol1atm13" stroke="none"/>
                  
            <path class="atom" d="M47.08 28.73h-.72l-2.62 -4.07h-.03q.01 .24 .03 .6q.02 .36 .02 .73v2.74h-.57v-4.9h.71l2.61 4.05h.03q-.01 -.11 -.02 -.33q-.01 -.22 -.02 -.48q-.01 -.26 -.01 -.48v-2.77h.58v4.9z" id="mol1atm19" stroke="none"/>
                
            <line class="hi" id="mol1bnd3" stroke="#3050F8" x1="23.88" x2="18.115" y1="79.22" y2="77.875"/>
            <line class="hi" id="mol1bnd4" stroke="#3050F8" x1="30.21" x2="34.64" y1="77.55" y2="73.995"/>
            <line class="hi" id="mol1bnd11" stroke="#A62929" x1="75.76" x2="70.62" y1="49.26" y2="52.230000000000004"/>
            <line class="hi" id="mol1bnd14" stroke="#3050F8" x1="10.56" x2="8.15" y1="52.81" y2="57.815"/>
            <line class="hi" id="mol1bnd21" stroke="#3050F8" x1="41.86" x2="36.215" y1="27.3" y2="29.045"/>
        </g>
          
    </g>
    
</svg>
