<svg xmlns="http://www.w3.org/2000/svg" xmlns:xlink="http://www.w3.org/1999/xlink" height="87.74mm" version="1.2" viewBox="0 0 75.45 87.74" width="75.45mm">
      
    <desc>Generated by the Chemistry Development Kit (http://github.com/cdk)</desc>
      
    <g fill="#3050F8" stroke="#000000" stroke-linecap="round" stroke-linejoin="round" stroke-width=".7">
            
        <rect fill="#FFFFFF" height="88.0" stroke="none" width="76.0" x=".0" y=".0"/>
            
        <g class="mol" id="mol1">
                  
            <line class="bond" id="mol1bnd1" x1="24.53" x2="24.53" y1=".91" y2="16.15"/>
                  
            <line class="bond" id="mol1bnd2" x1="24.53" x2="37.73" y1="16.15" y2="23.77"/>
                  
            <line class="bond" id="mol1bnd3" x1="37.73" x2="37.73" y1="23.77" y2="39.01"/>
                  
            <g class="bond" id="mol1bnd4">
                        
                <line x1="50.93" x2="37.73" y1="46.63" y2="39.01"/>
                        
                <line x1="48.5" x2="37.73" y1="48.04" y2="41.83"/>
                      
            </g>
                  
            <line class="bond" id="mol1bnd5" x1="50.93" x2="65.46" y1="46.63" y2="41.96"/>
                  
            <g class="bond" id="mol1bnd6">
                        
                <line x1="74.4" x2="65.46" y1="54.25" y2="41.96"/>
                        
                <line x1="71.39" x2="64.53" y1="54.25" y2="44.82"/>
                      
            </g>
                  
            <line class="bond" id="mol1bnd7" x1="74.4" x2="67.78" y1="54.25" y2="63.36"/>
                  
            <line class="bond" id="mol1bnd8" x1="61.87" x2="50.93" y1="65.39" y2="61.87"/>
                  
            <line class="bond" id="mol1bnd9" x1="50.93" x2="50.93" y1="46.63" y2="61.87"/>
                  
            <g class="bond" id="mol1bnd10">
                        
                <line x1="37.73" x2="50.93" y1="69.49" y2="61.87"/>
                        
                <line x1="37.73" x2="48.5" y1="66.67" y2="60.46"/>
                      
            </g>
                  
            <line class="bond" id="mol1bnd11" x1="37.73" x2="24.52" y1="69.49" y2="61.87"/>
                  
            <g class="bond" id="mol1bnd12">
                        
                <line x1="24.52" x2="24.52" y1="46.63" y2="61.87"/>
                        
                <line x1="26.96" x2="26.96" y1="48.04" y2="60.46"/>
                      
            </g>
                  
            <line class="bond" id="mol1bnd13" x1="37.73" x2="24.52" y1="39.01" y2="46.63"/>
                  
            <line class="bond" id="mol1bnd14" x1="24.52" x2="13.58" y1="46.63" y2="43.11"/>
                  
            <line class="bond" id="mol1bnd15" x1="7.67" x2="1.05" y1="45.15" y2="54.25"/>
                  
            <g class="bond" id="mol1bnd16">
                        
                <line x1="1.05" x2="9.99" y1="54.25" y2="66.54"/>
                        
                <line x1="4.06" x2="10.92" y1="54.25" y2="63.68"/>
                      
            </g>
                  
            <line class="bond" id="mol1bnd17" x1="24.52" x2="9.99" y1="61.87" y2="66.54"/>
                  
            <line class="bond" id="mol1bnd18" x1="37.73" x2="37.73" y1="69.49" y2="80.88"/>
                  
            <g class="bond" id="mol1bnd19">
                        
                <line stroke="#000000" x1="24.7" x2="24.35" y1="16.45" y2="15.85"/>
                        
                <line stroke="#3050F8" x1="22.94" x2="22.34" y1="17.76" y2="16.72"/>
                        
                <line stroke="#3050F8" x1="21.18" x2="20.33" y1="19.06" y2="17.59"/>
                        
                <line stroke="#3050F8" x1="19.42" x2="18.32" y1="20.37" y2="18.46"/>
                        
                <line stroke="#3050F8" x1="17.66" x2="16.31" y1="21.67" y2="19.34"/>
                        
                <line stroke="#3050F8" x1="15.9" x2="14.3" y1="22.98" y2="20.21"/>
                      
            </g>
                  
            <path class="atom" d="M67.72 66.54q.0 .76 -.26 1.33q-.26 .57 -.76 .88q-.5 .32 -1.24 .32q-.76 .0 -1.26 -.32q-.51 -.32 -.76 -.89q-.24 -.57 -.24 -1.33q.0 -.75 .24 -1.31q.25 -.57 .76 -.88q.51 -.32 1.27 -.32q.73 .0 1.23 .32q.5 .31 .76 .88q.26 .57 .26 1.33zM63.86 66.54q.0 .92 .39 1.46q.39 .53 1.22 .53q.84 .0 1.22 -.53q.39 -.54 .39 -1.46q.0 -.93 -.39 -1.45q-.38 -.52 -1.21 -.52q-.83 .0 -1.23 .52q-.39 .52 -.39 1.45z" fill="#FF0D0D" id="mol1atm8" stroke="none"/>
                  
            <path class="atom" d="M12.25 41.95q.0 .76 -.26 1.33q-.26 .57 -.76 .88q-.5 .32 -1.24 .32q-.76 .0 -1.26 -.32q-.51 -.32 -.76 -.89q-.24 -.57 -.24 -1.33q.0 -.75 .24 -1.31q.25 -.57 .76 -.88q.51 -.32 1.27 -.32q.73 .0 1.23 .32q.5 .31 .76 .88q.26 .57 .26 1.33zM8.39 41.95q.0 .92 .39 1.46q.39 .53 1.22 .53q.84 .0 1.22 -.53q.39 -.54 .39 -1.46q.0 -.93 -.39 -1.45q-.38 -.52 -1.21 -.52q-.83 .0 -1.23 .52q-.39 .52 -.39 1.45z" fill="#FF0D0D" id="mol1atm13" stroke="none"/>
                  
            <path class="atom" d="M37.41 82.28q.92 .0 1.39 .27q.47 .27 .47 .94q.0 .43 -.24 .72q-.24 .29 -.69 .36v.04q.31 .05 .56 .18q.25 .13 .39 .38q.15 .24 .15 .62q.0 .67 -.46 1.03q-.46 .36 -1.24 .36h-1.72v-4.9h1.4zM37.53 84.37q.63 .0 .86 -.2q.24 -.2 .24 -.6q.0 -.4 -.29 -.58q-.29 -.18 -.91 -.18h-.81v1.56h.9zM36.63 84.88v1.77h.99q.65 .0 .9 -.25q.26 -.26 .26 -.67q.0 -.38 -.27 -.62q-.26 -.24 -.94 -.24h-.94zM42.1 83.44q.1 .0 .22 .01q.13 .01 .21 .03l-.07 .55q-.09 -.02 -.2 -.03q-.11 -.02 -.2 -.02q-.28 .0 -.53 .15q-.24 .15 -.39 .43q-.15 .27 -.15 .65v1.96h-.6v-3.67h.49l.07 .67h.03q.18 -.3 .46 -.52q.28 -.22 .67 -.22z" fill="#A62929" id="mol1atm16" stroke="none"/>
                  
            <g class="atom" id="mol1atm17">
                        
                <path d="M13.27 26.22h-.72l-2.62 -4.07h-.03q.01 .24 .03 .6q.02 .36 .02 .73v2.74h-.57v-4.9h.71l2.61 4.05h.03q-.01 -.11 -.02 -.33q-.01 -.22 -.02 -.48q-.01 -.26 -.01 -.48v-2.77h.58v4.9z" stroke="none"/>
                        
                <path d="M6.32 26.22h-.62v-2.29h-2.51v2.29h-.61v-4.9h.61v2.07h2.51v-2.07h.62v4.9z" stroke="none"/>
                        
                <path d="M8.83 27.71h-1.94v-.3l.77 -.78q.22 -.22 .37 -.39q.15 -.18 .23 -.34q.08 -.17 .08 -.36q.0 -.24 -.15 -.37q-.14 -.13 -.37 -.13q-.21 .0 -.38 .08q-.16 .08 -.33 .21l-.19 -.24q.17 -.15 .39 -.25q.23 -.1 .51 -.1q.41 .0 .65 .21q.24 .21 .24 .58q.0 .23 -.1 .43q-.09 .2 -.26 .4q-.17 .2 -.39 .42l-.61 .6v.02h1.49v.33z" stroke="none"/>
                      
            </g>
                
            <line class="hi" id="mol1bnd7" stroke="#FF0D0D" x1="67.78" x2="71.09" y1="63.36" y2="58.805"/>
            <line class="hi" id="mol1bnd8" stroke="#FF0D0D" x1="61.87" x2="56.4" y1="65.39" y2="63.629999999999995"/>
            <line class="hi" id="mol1bnd14" stroke="#FF0D0D" x1="13.58" x2="19.05" y1="43.11" y2="44.870000000000005"/>
            <line class="hi" id="mol1bnd15" stroke="#FF0D0D" x1="7.67" x2="4.36" y1="45.15" y2="49.7"/>
            <line class="hi" id="mol1bnd18" stroke="#A62929" x1="37.73" x2="37.73" y1="80.88" y2="75.185"/>
        </g>
          
    </g>
    
</svg>
