<svg xmlns="http://www.w3.org/2000/svg" xmlns:xlink="http://www.w3.org/1999/xlink" height="88.2mm" version="1.2" viewBox="0 0 101.63 88.2" width="101.63mm">
      
    <desc>Generated by the Chemistry Development Kit (http://github.com/cdk)</desc>
      
    <g fill="#3050F8" stroke="#000000" stroke-linecap="round" stroke-linejoin="round" stroke-width=".7">
            
        <rect fill="#FFFFFF" height="89.0" stroke="none" width="102.0" x=".0" y=".0"/>
            
        <g class="mol" id="mol1">
                  
            <line class="bond" id="mol1bnd1" x1="14.47" x2="14.69" y1="73.94" y2="58.7"/>
                  
            <g class="bond" id="mol1bnd2">
                        
                <line x1="5.56" x2="14.69" y1="51.85" y2="58.7"/>
                        
                <line x1="7.02" x2="14.74" y1="49.9" y2="55.68"/>
                      
                <line class="hi" stroke="#3050F8" x1="5.56" x2="10.125" y1="51.85" y2="55.275000000000006"/>
                <line class="hi" stroke="#3050F8" x1="7.02" x2="10.879999999999999" y1="49.9" y2="52.79"/>
            </g>
                  
            <line class="bond" id="mol1bnd3" x1="3.79" x2="6.14" y1="45.78" y2="38.91"/>
                  
            <g class="bond" id="mol1bnd4">
                        
                <line x1="22.66" x2="10.77" y1="35.36" y2="35.19"/>
                        
                <line x1="20.86" x2="10.73" y1="37.77" y2="37.62"/>
                      
                <line class="hi" stroke="#3050F8" x1="10.77" x2="16.715" y1="35.19" y2="35.275"/>
                <line class="hi" stroke="#3050F8" x1="10.73" x2="15.795" y1="37.62" y2="37.695"/>
            </g>
                  
            <line class="bond" id="mol1bnd5" x1="22.66" x2="25.99" y1="35.36" y2="46.14"/>
                  
            <line class="bond" id="mol1bnd6" x1="14.69" x2="24.07" y1="58.7" y2="52.1"/>
                  
            <line class="bond" id="mol1bnd7" x1="30.4" x2="41.34" y1="51.2" y2="55.49"/>
                  
            <g class="bond" id="mol1bnd8">
                        
                <line x1="54.54" x2="41.34" y1="47.87" y2="55.49"/>
                        
                <line x1="54.23" x2="44.1" y1="50.87" y2="56.72"/>
                      
            </g>
                  
            <line class="bond" id="mol1bnd9" x1="54.54" x2="65.87" y1="47.87" y2="58.07"/>
                  
            <g class="bond" id="mol1bnd10">
                        
                <line x1="59.67" x2="65.87" y1="71.99" y2="58.07"/>
                        
                <line x1="58.16" x2="62.92" y1="69.38" y2="58.7"/>
                      
            </g>
                  
            <line class="bond" id="mol1bnd11" x1="59.67" x2="47.43" y1="71.99" y2="70.71"/>
                  
            <line class="bond" id="mol1bnd12" x1="41.34" x2="43.7" y1="55.49" y2="66.57"/>
                  
            <line class="bond" id="mol1bnd13" x1="59.67" x2="65.17" y1="71.99" y2="81.53"/>
                  
            <line class="bond" id="mol1bnd14" x1="54.54" x2="56.81" y1="47.87" y2="32.8"/>
                  
            <g class="bond" id="mol1bnd15">
                        
                <line x1="56.81" x2="49.34" y1="32.8" y2="24.75"/>
                        
                <line x1="54.23" x2="47.55" y1="33.6" y2="26.41"/>
                      
                <line class="hi" stroke="#3050F8" x1="49.34" x2="53.075" y1="24.75" y2="28.775"/>
                <line class="hi" stroke="#3050F8" x1="47.55" x2="50.89" y1="26.41" y2="30.005000000000003"/>
            </g>
                  
            <line class="bond" id="mol1bnd16" x1="43.11" x2="31.25" y1="21.88" y2="22.77"/>
                  
            <line class="bond" id="mol1bnd17" x1="22.66" x2="31.25" y1="35.36" y2="22.77"/>
                  
            <line class="bond" id="mol1bnd18" x1="56.81" x2="71.38" y1="32.8" y2="28.31"/>
                  
            <g class="bond" id="mol1bnd19">
                        
                <line x1="71.38" x2="82.58" y1="28.31" y2="38.71"/>
                        
                <line x1="74.07" x2="83.19" y1="27.48" y2="35.96"/>
                      
            </g>
                  
            <line class="bond" id="mol1bnd20" x1="82.58" x2="97.1" y1="38.71" y2="34.09"/>
                  
            <g class="bond" id="mol1bnd21">
                        
                <line x1="97.1" x2="100.58" y1="34.09" y2="19.23"/>
                        
                <line x1="95.04" x2="97.88" y1="32.19" y2="20.06"/>
                      
            </g>
                  
            <line class="bond" id="mol1bnd22" x1="100.58" x2="89.28" y1="19.23" y2="8.86"/>
                  
            <g class="bond" id="mol1bnd23">
                        
                <line x1="89.28" x2="74.76" y1="8.86" y2="13.48"/>
                        
                <line x1="88.67" x2="76.82" y1="11.61" y2="15.38"/>
                      
            </g>
                  
            <line class="bond" id="mol1bnd24" x1="71.38" x2="74.76" y1="28.31" y2="13.48"/>
                  
            <line class="bond" id="mol1bnd25" x1="74.76" x2="64.87" y1="13.48" y2="4.39"/>
                  
            <path class="atom" d="M4.44 52.01h-.72l-2.62 -4.07h-.03q.01 .24 .03 .6q.02 .36 .02 .73v2.74h-.57v-4.9h.71l2.61 4.05h.03q-.01 -.11 -.02 -.33q-.01 -.22 -.02 -.48q-.01 -.26 -.01 -.48v-2.77h.58v4.9z" id="mol1atm3" stroke="none"/>
                  
            <path class="atom" d="M9.37 37.59h-.72l-2.62 -4.07h-.03q.01 .24 .03 .6q.02 .36 .02 .73v2.74h-.57v-4.9h.71l2.61 4.05h.03q-.01 -.11 -.02 -.33q-.01 -.22 -.02 -.48q-.01 -.26 -.01 -.48v-2.77h.58v4.9z" id="mol1atm4" stroke="none"/>
                  
            <path class="atom" d="M29.1 52.38h-.72l-2.62 -4.07h-.03q.01 .24 .03 .6q.02 .36 .02 .73v2.74h-.57v-4.9h.71l2.61 4.05h.03q-.01 -.11 -.02 -.33q-.01 -.22 -.02 -.48q-.01 -.26 -.01 -.48v-2.77h.58v4.9z" id="mol1atm6" stroke="none"/>
                  
            <path class="atom" d="M46.06 71.54q.0 .65 -.48 1.02q-.47 .36 -1.27 .36q-.42 .0 -.77 -.07q-.35 -.06 -.58 -.17v-.59q.24 .11 .61 .2q.37 .09 .76 .09q.55 .0 .83 -.21q.28 -.21 .28 -.58q.0 -.24 -.11 -.4q-.1 -.17 -.35 -.31q-.25 -.14 -.7 -.3q-.63 -.23 -.95 -.55q-.32 -.33 -.32 -.9q.0 -.39 .2 -.67q.2 -.28 .55 -.43q.36 -.15 .82 -.15q.4 .0 .74 .08q.34 .07 .61 .2l-.2 .53q-.25 -.11 -.55 -.18q-.3 -.08 -.63 -.08q-.46 .0 -.69 .2q-.23 .2 -.23 .52q.0 .24 .1 .41q.11 .17 .34 .3q.23 .13 .63 .28q.43 .15 .73 .34q.3 .18 .45 .43q.15 .25 .15 .64z" fill="#C6C62C" id="mol1atm11" stroke="none"/>
                  
            <path class="atom" d="M66.98 82.74q.92 .0 1.39 .27q.47 .27 .47 .94q.0 .43 -.24 .72q-.24 .29 -.69 .36v.04q.31 .05 .56 .18q.25 .13 .39 .38q.15 .24 .15 .62q.0 .67 -.46 1.03q-.46 .36 -1.24 .36h-1.72v-4.9h1.4zM67.09 84.83q.63 .0 .86 -.2q.24 -.2 .24 -.6q.0 -.4 -.29 -.58q-.29 -.18 -.91 -.18h-.81v1.56h.9zM66.19 85.34v1.77h.99q.65 .0 .9 -.25q.26 -.26 .26 -.67q.0 -.38 -.27 -.62q-.26 -.24 -.94 -.24h-.94zM71.67 83.9q.1 .0 .22 .01q.13 .01 .21 .03l-.07 .55q-.09 -.02 -.2 -.03q-.11 -.02 -.2 -.02q-.28 .0 -.53 .15q-.24 .15 -.39 .43q-.15 .27 -.15 .65v1.96h-.6v-3.67h.49l.07 .67h.03q.18 -.3 .46 -.52q.28 -.22 .67 -.22z" fill="#A62929" id="mol1atm12" stroke="none"/>
                  
            <path class="atom" d="M48.39 24.08h-.72l-2.62 -4.07h-.03q.01 .24 .03 .6q.02 .36 .02 .73v2.74h-.57v-4.9h.71l2.61 4.05h.03q-.01 -.11 -.02 -.33q-.01 -.22 -.02 -.48q-.01 -.26 -.01 -.48v-2.77h.58v4.9z" id="mol1atm14" stroke="none"/>
                  
            <path class="atom" d="M61.08 1.35q-.79 .0 -1.24 .53q-.45 .52 -.45 1.45q.0 .91 .42 1.45q.42 .53 1.27 .53q.32 .0 .61 -.05q.29 -.06 .57 -.14v.54q-.27 .1 -.57 .15q-.29 .05 -.7 .05q-.74 .0 -1.25 -.31q-.5 -.31 -.75 -.88q-.25 -.57 -.25 -1.34q.0 -.74 .27 -1.31q.27 -.57 .8 -.88q.53 -.32 1.28 -.32q.78 .0 1.35 .29l-.24 .52q-.23 -.1 -.51 -.18q-.27 -.08 -.61 -.08zM63.84 5.77h-.6v-5.21h.6v5.21z" fill="#1FF01F" id="mol1atm22" stroke="none"/>
                
            <line class="hi" id="mol1bnd3" stroke="#3050F8" x1="3.79" x2="4.965" y1="45.78" y2="42.345"/>
            <line class="hi" id="mol1bnd3" stroke="#3050F8" x1="6.14" x2="4.965" y1="38.91" y2="42.345"/>
            <line class="hi" id="mol1bnd5" stroke="#3050F8" x1="25.99" x2="24.325" y1="46.14" y2="40.75"/>
            <line class="hi" id="mol1bnd6" stroke="#3050F8" x1="24.07" x2="19.38" y1="52.1" y2="55.400000000000006"/>
            <line class="hi" id="mol1bnd7" stroke="#3050F8" x1="30.4" x2="35.870000000000005" y1="51.2" y2="53.345"/>
            <line class="hi" id="mol1bnd11" stroke="#C6C62C" x1="47.43" x2="53.55" y1="70.71" y2="71.35"/>
            <line class="hi" id="mol1bnd12" stroke="#C6C62C" x1="43.7" x2="42.52" y1="66.57" y2="61.03"/>
            <line class="hi" id="mol1bnd13" stroke="#A62929" x1="65.17" x2="62.42" y1="81.53" y2="76.75999999999999"/>
            <line class="hi" id="mol1bnd16" stroke="#3050F8" x1="43.11" x2="37.18" y1="21.88" y2="22.325"/>
            <line class="hi" id="mol1bnd25" stroke="#1FF01F" x1="64.87" x2="69.815" y1="4.390000000000001" y2="8.935"/>
        </g>
          
    </g>
    
</svg>
