<svg xmlns="http://www.w3.org/2000/svg" xmlns:xlink="http://www.w3.org/1999/xlink" height="95.44mm" version="1.2" viewBox="0 0 109.37 95.44" width="109.37mm">
      
    <desc>Generated by the Chemistry Development Kit (http://github.com/cdk)</desc>
      
    <g fill="#000000" stroke="#000000" stroke-linecap="round" stroke-linejoin="round" stroke-width=".7">
            
        <rect fill="#FFFFFF" height="96.0" stroke="none" width="110.0" x=".0" y=".0"/>
            
        <g class="mol" id="mol1">
                  
            <path class="bond" d="M28.65 43.58l-.09 -.69l-15.34 .26l.27 2.08l.27 2.08z" id="mol1bnd1" stroke="none"/>
                  
            <line class="bond" id="mol1bnd2" x1="28.6" x2="27.94" y1="43.23" y2="58.46"/>
                  
            <path class="bond" d="M28.19 58.21l-.5 .5l11.95 14.93l-.53 -4.0l-.39 -2.99z" id="mol1bnd3" stroke="none"/>
                  
            <path class="bond" d="M47.04 56.6l-.61 -.35l-7.71 10.41l.39 2.98l.53 4.02z" id="mol1bnd4" stroke="none"/>
                  
            <g class="bond" id="mol1bnd5">
                        
                <line x1="46.44" x2="47.04" y1="56.6" y2="56.25"/>
                        
                <line x1="46.18" x2="47.29" y1="59.28" y2="58.64"/>
                        
                <line x1="45.93" x2="47.55" y1="61.97" y2="61.04"/>
                        
                <line x1="45.68" x2="47.8" y1="64.66" y2="63.43"/>
                        
                <line x1="45.42" x2="48.05" y1="67.34" y2="65.83"/>
                        
                <line x1="45.17" x2="48.3" y1="70.03" y2="68.22"/>
                        
                <line x1="44.92" x2="48.56" y1="72.71" y2="70.61"/>
                      
            </g>
                  
            <line class="bond" id="mol1bnd6" x1="46.74" x2="33.53" y1="71.66" y2="79.28"/>
                  
            <line class="bond" id="mol1bnd7" x1="33.53" x2="20.32" y1="79.28" y2="71.66"/>
                  
            <line class="bond" id="mol1bnd8" x1="27.94" x2="20.32" y1="58.46" y2="71.66"/>
                  
            <line class="bond" id="mol1bnd9" x1="20.32" x2="20.32" y1="71.66" y2="56.42"/>
                  
            <line class="bond" id="mol1bnd10" x1="20.32" x2="33.53" y1="56.42" y2="48.8"/>
                  
            <line class="bond" id="mol1bnd11" x1="46.74" x2="33.53" y1="56.42" y2="48.8"/>
                  
            <path class="bond" d="M33.36 48.5l.35 .61l18.89 -8.27h-5.25h-3.51z" id="mol1bnd12" stroke="none"/>
                  
            <line class="bond" id="mol1bnd13" x1="46.74" x2="73.15" y1="41.18" y2="41.18"/>
                  
            <line class="bond" id="mol1bnd14" x1="73.15" x2="73.15" y1="41.18" y2="52.57"/>
                  
            <path class="bond" d="M60.12 48.5l-.35 .61l9.39 6.95l.84 -1.46l.84 -1.46z" id="mol1bnd15" stroke="none"/>
                  
            <line class="bond" id="mol1bnd16" x1="46.74" x2="59.95" y1="56.42" y2="48.8"/>
                  
            <line class="bond" id="mol1bnd17" x1="59.95" x2="59.95" y1="48.8" y2="33.56"/>
                  
            <line class="bond" id="mol1bnd18" x1="59.95" x2="46.74" y1="33.56" y2="25.94"/>
                  
            <g class="bond" id="mol1bnd19">
                        
                <line x1="33.53" x2="46.74" y1="33.56" y2="25.94"/>
                        
                <line x1="33.53" x2="44.3" y1="30.75" y2="24.53"/>
                      
                <line class="hi" stroke="#FF0D0D" x1="33.53" x2="40.135000000000005" y1="33.56" y2="29.75"/>
                <line class="hi" stroke="#FF0D0D" x1="33.53" x2="38.915" y1="30.75" y2="27.64"/>
            </g>
                  
            <g class="bond" id="mol1bnd20">
                        
                <line stroke="#000000" x1="33.18" x2="33.88" y1="48.8" y2="48.8"/>
                        
                <line stroke="#FF0D0D" x1="32.89" x2="34.17" y1="46.26" y2="46.26"/>
                        
                <line stroke="#FF0D0D" x1="32.6" x2="34.46" y1="43.72" y2="43.72"/>
                        
                <line stroke="#FF0D0D" x1="32.31" x2="34.76" y1="41.18" y2="41.18"/>
                        
                <line stroke="#FF0D0D" x1="32.01" x2="35.05" y1="38.64" y2="38.64"/>
                        
                <line stroke="#FF0D0D" x1="31.72" x2="35.34" y1="36.1" y2="36.1"/>
                        
                <line stroke="#FF0D0D" x1="31.43" x2="35.63" y1="33.56" y2="33.56"/>
                      
            </g>
                  
            <line class="bond" id="mol1bnd21" x1="33.53" x2="20.32" y1="33.56" y2="25.94"/>
                  
            <g class="bond" id="mol1bnd22">
                        
                <line x1="20.32" x2="20.32" y1="10.7" y2="25.94"/>
                        
                <line x1="22.76" x2="22.76" y1="12.11" y2="24.53"/>
                      
                <line class="hi" stroke="#FF0D0D" x1="20.32" x2="20.32" y1="25.94" y2="18.32"/>
                <line class="hi" stroke="#FF0D0D" x1="22.76" x2="22.76" y1="24.53" y2="18.32"/>
                <line class="hi" stroke="#FF0D0D" x1="22.76" x2="22.76" y1="24.53" y2="18.32"/>
            </g>
                  
            <line class="bond" id="mol1bnd23" x1="20.32" x2="33.53" y1="10.7" y2="3.08"/>
                  
            <g class="bond" id="mol1bnd24">
                        
                <line x1="46.74" x2="33.53" y1="10.7" y2="3.08"/>
                        
                <line x1="44.3" x2="33.53" y1="12.11" y2="5.9"/>
                      
            </g>
                  
            <line class="bond" id="mol1bnd25" x1="46.74" x2="46.74" y1="25.94" y2="10.7"/>
                  
            <line class="bond" id="mol1bnd26" x1="20.32" x2="10.4" y1="10.7" y2="4.97"/>
                  
            <line class="bond" id="mol1bnd27" x1="20.32" x2="12.34" y1="25.94" y2="33.93"/>
                  
            <g class="bond" id="mol1bnd28">
                        
                <line stroke="#000000" x1="20.02" x2="20.63" y1="56.59" y2="56.26"/>
                        
                <line stroke="#FF0D0D" x1="18.78" x2="19.71" y1="54.7" y2="54.2"/>
                        
                <line stroke="#FF0D0D" x1="17.55" x2="18.78" y1="52.82" y2="52.15"/>
                        
                <line stroke="#FF0D0D" x1="16.32" x2="17.86" y1="50.93" y2="50.09"/>
                        
                <line stroke="#FF0D0D" x1="15.09" x2="16.94" y1="49.04" y2="48.04"/>
                        
                <line stroke="#FF0D0D" x1="13.86" x2="16.01" y1="47.16" y2="45.98"/>
                        
                <line stroke="#FF0D0D" x1="12.63" x2="15.09" y1="45.27" y2="43.93"/>
                        
                <line stroke="#FF0D0D" x1="11.4" x2="14.17" y1="43.38" y2="41.87"/>
                        
                <line stroke="#FF0D0D" x1="10.17" x2="13.24" y1="41.49" y2="39.82"/>
                      
            </g>
                  
            <line class="bond" id="mol1bnd29" x1="74.77" x2="79.21" y1="60.16" y2="70.41"/>
                  
            <line class="bond" id="mol1bnd30" x1="79.21" x2="94.35" y1="70.41" y2="72.15"/>
                  
            <line class="bond" id="mol1bnd31" x1="94.35" x2="108.35" y1="72.15" y2="66.09"/>
                  
            <line class="bond" id="mol1bnd32" x1="108.35" x2="106.6" y1="66.09" y2="81.23"/>
                  
            <line class="bond" id="mol1bnd33" x1="94.35" x2="106.6" y1="72.15" y2="81.23"/>
                  
            <path class="bond" d="M20.5 71.97l-.35 -.61l-10.58 4.59l.83 1.44l.83 1.44z" id="mol1bnd34" stroke="none"/>
                  
            <line class="bond" id="mol1bnd35" x1="7.13" x2="7.13" y1="83.21" y2="94.53"/>
                  
            <line class="bond" id="mol1bnd36" x1="28.6" x2="42.12" y1="43.23" y2="36.19"/>
                  
            <line class="bond" id="mol1bnd37" x1="42.12" x2="37.54" y1="36.19" y2="21.66"/>
                  
            <line class="bond" id="mol1bnd38" x1="42.12" x2="55.64" y1="36.19" y2="29.15"/>
                  
            <line class="bond" id="mol1bnd39" x1="42.12" x2="49.16" y1="36.19" y2="49.71"/>
                  
            <g class="bond" id="mol1bnd40">
                        
                <line stroke="#000000" x1="28.26" x2="28.95" y1="43.28" y2="43.18"/>
                        
                <line stroke="#FF0D0D" x1="27.64" x2="28.91" y1="40.8" y2="40.63"/>
                        
                <line stroke="#FF0D0D" x1="27.02" x2="28.87" y1="38.32" y2="38.07"/>
                        
                <line stroke="#FF0D0D" x1="26.39" x2="28.82" y1="35.84" y2="35.51"/>
                        
                <line stroke="#FF0D0D" x1="25.77" x2="28.78" y1="33.36" y2="32.96"/>
                      
            </g>
                  
            <path class="atom" d="M75.1 58.87h-.72l-2.62 -4.07h-.03q.01 .24 .03 .6q.02 .36 .02 .73v2.74h-.57v-4.9h.71l2.61 4.05h.03q-.01 -.11 -.02 -.33q-.01 -.22 -.02 -.48q-.01 -.26 -.01 -.48v-2.77h.58v4.9z" fill="#3050F8" id="mol1atm13" stroke="none"/>
                  
            <g class="atom" id="mol1atm22">
                        
                <path d="M9.38 3.08q.0 .76 -.26 1.33q-.26 .57 -.76 .88q-.5 .32 -1.24 .32q-.76 .0 -1.26 -.32q-.51 -.32 -.76 -.89q-.24 -.57 -.24 -1.33q.0 -.75 .24 -1.31q.25 -.57 .76 -.88q.51 -.32 1.27 -.32q.73 .0 1.23 .32q.5 .31 .76 .88q.26 .57 .26 1.33zM5.52 3.08q.0 .92 .39 1.46q.39 .53 1.22 .53q.84 .0 1.22 -.53q.39 -.54 .39 -1.46q.0 -.93 -.39 -1.45q-.38 -.52 -1.21 -.52q-.83 .0 -1.23 .52q-.39 .52 -.39 1.45z" fill="#FF0D0D" stroke="none"/>
                        
                <path d="M4.3 5.53h-.62v-2.29h-2.51v2.29h-.61v-4.9h.61v2.07h2.51v-2.07h.62v4.9z" fill="#FF0D0D" stroke="none"/>
                      
            </g>
                  
            <path class="atom" d="M11.81 36.71q.0 .76 -.26 1.33q-.26 .57 -.76 .88q-.5 .32 -1.24 .32q-.76 .0 -1.26 -.32q-.51 -.32 -.76 -.89q-.24 -.57 -.24 -1.33q.0 -.75 .24 -1.31q.25 -.57 .76 -.88q.51 -.32 1.27 -.32q.73 .0 1.23 .32q.5 .31 .76 .88q.26 .57 .26 1.33zM7.95 36.71q.0 .92 .39 1.46q.39 .53 1.22 .53q.84 .0 1.22 -.53q.39 -.54 .39 -1.46q.0 -.93 -.39 -1.45q-.38 -.52 -1.21 -.52q-.83 .0 -1.23 .52q-.39 .52 -.39 1.45z" fill="#FF0D0D" id="mol1atm23" stroke="none"/>
                  
            <path class="atom" d="M9.38 79.28q.0 .76 -.26 1.33q-.26 .57 -.76 .88q-.5 .32 -1.24 .32q-.76 .0 -1.26 -.32q-.51 -.32 -.76 -.89q-.24 -.57 -.24 -1.33q.0 -.75 .24 -1.31q.25 -.57 .76 -.88q.51 -.32 1.27 -.32q.73 .0 1.23 .32q.5 .31 .76 .88q.26 .57 .26 1.33zM5.52 79.28q.0 .92 .39 1.46q.39 .53 1.22 .53q.84 .0 1.22 -.53q.39 -.54 .39 -1.46q.0 -.93 -.39 -1.45q-.38 -.52 -1.21 -.52q-.83 .0 -1.23 .52q-.39 .52 -.39 1.45z" fill="#FF0D0D" id="mol1atm28" stroke="none"/>
                  
            <g class="atom" id="mol1atm34">
                        
                <path d="M28.87 28.12q.0 .76 -.26 1.33q-.26 .57 -.76 .88q-.5 .32 -1.24 .32q-.76 .0 -1.26 -.32q-.51 -.32 -.76 -.89q-.24 -.57 -.24 -1.33q.0 -.75 .24 -1.31q.25 -.57 .76 -.88q.51 -.32 1.27 -.32q.73 .0 1.23 .32q.5 .31 .76 .88q.26 .57 .26 1.33zM25.01 28.12q.0 .92 .39 1.46q.39 .53 1.22 .53q.84 .0 1.22 -.53q.39 -.54 .39 -1.46q.0 -.93 -.39 -1.45q-.38 -.52 -1.21 -.52q-.83 .0 -1.23 .52q-.39 .52 -.39 1.45z" fill="#FF0D0D" stroke="none"/>
                        
                <path d="M23.79 30.57h-.62v-2.29h-2.51v2.29h-.61v-4.9h.61v2.07h2.51v-2.07h.62v4.9z" fill="#FF0D0D" stroke="none"/>
                      
            </g>
                
            <line class="hi" id="mol1bnd14" stroke="#3050F8" x1="73.15" x2="73.15" y1="52.57" y2="46.875"/>
            <line class="hi" id="mol1bnd21" stroke="#FF0D0D" x1="27.678904112121806" x2="26.925" y1="30.18487882924816" y2="29.75"/>
            <line class="hi" id="mol1bnd21" stroke="#FF0D0D" x1="24.927614328681656" x2="26.925" y1="28.597836577180487" y2="29.75"/>
            <line class="hi" id="mol1bnd26" stroke="#FF0D0D" x1="10.4" x2="15.36" y1="4.97" y2="7.834999999999999"/>
            <line class="hi" id="mol1bnd26" stroke="#FF0D0D" x1="10.4" x2="15.36" y1="4.97" y2="7.834999999999999"/>
            <line class="hi" id="mol1bnd27" stroke="#FF0D0D" x1="12.34" x2="16.33" y1="33.93" y2="29.935000000000002"/>
            <line class="hi" id="mol1bnd27" stroke="#FF0D0D" x1="19.737828992201255" x2="16.33" y1="26.522900545402504" y2="29.935000000000002"/>
            <line class="hi" id="mol1bnd29" stroke="#3050F8" x1="74.77" x2="76.99" y1="60.16" y2="65.285"/>
            <line class="hi" id="mol1bnd35" stroke="#FF0D0D" x1="7.13" x2="7.13" y1="83.21" y2="88.87"/>
        </g>
          
    </g>
    
</svg>
