<svg xmlns="http://www.w3.org/2000/svg" xmlns:xlink="http://www.w3.org/1999/xlink" height="93.4mm" version="1.2" viewBox="0 0 173.67 93.4" width="173.67mm">
      
    <desc>Generated by the Chemistry Development Kit (http://github.com/cdk)</desc>
      
    <g fill="#FF0D0D" stroke="#000000" stroke-linecap="round" stroke-linejoin="round" stroke-width=".7">
            
        <rect fill="#FFFFFF" height="94.0" stroke="none" width="174.0" x=".0" y=".0"/>
            
        <g class="mol" id="mol1">
                  
            <line class="bond" id="mol1bnd1" x1="119.84" x2="129.76" y1="92.36" y2="86.64"/>
                  
            <line class="bond" id="mol1bnd2" x1="133.04" x2="133.04" y1="80.82" y2="69.5"/>
                  
            <g class="bond" id="mol1bnd3">
                        
                <line x1="119.84" x2="133.04" y1="61.88" y2="69.5"/>
                        
                <line x1="122.28" x2="133.03" y1="60.48" y2="66.69"/>
                      
            </g>
                  
            <line class="bond" id="mol1bnd4" x1="119.84" x2="119.84" y1="61.88" y2="46.63"/>
                  
            <g class="bond" id="mol1bnd5">
                        
                <line x1="133.04" x2="119.84" y1="39.01" y2="46.63"/>
                        
                <line x1="133.05" x2="122.28" y1="41.82" y2="48.04"/>
                      
            </g>
                  
            <line class="bond" id="mol1bnd6" x1="133.04" x2="146.24" y1="39.01" y2="46.63"/>
                  
            <g class="bond" id="mol1bnd7">
                        
                <line x1="146.24" x2="146.24" y1="61.87" y2="46.63"/>
                        
                <line x1="143.8" x2="143.8" y1="60.47" y2="48.03"/>
                      
            </g>
                  
            <line class="bond" id="mol1bnd8" x1="133.04" x2="146.24" y1="69.5" y2="61.87"/>
                  
            <line class="bond" id="mol1bnd9" x1="146.24" x2="156.15" y1="61.87" y2="67.6"/>
                  
            <line class="bond" id="mol1bnd10" x1="162.71" x2="172.63" y1="67.6" y2="61.87"/>
                  
            <line class="bond" id="mol1bnd11" x1="146.24" x2="156.16" y1="46.63" y2="40.9"/>
                  
            <line class="bond" id="mol1bnd12" x1="159.44" x2="159.44" y1="35.09" y2="23.77"/>
                  
            <line class="bond" id="mol1bnd13" x1="119.84" x2="106.64" y1="46.63" y2="39.01"/>
                  
            <line class="bond" id="mol1bnd14" x1="106.64" x2="96.6" y1="39.01" y2="44.81"/>
                  
            <line class="bond" id="mol1bnd15" x1="90.29" x2="80.25" y1="44.81" y2="39.01"/>
                  
            <line class="bond" id="mol1bnd16" x1="80.25" x2="67.05" y1="39.01" y2="46.63"/>
                  
            <line class="bond" id="mol1bnd17" x1="67.05" x2="53.85" y1="46.63" y2="39.01"/>
                  
            <g class="bond" id="mol1bnd18">
                        
                <line x1="40.64" x2="53.85" y1="46.64" y2="39.01"/>
                        
                <line x1="40.64" x2="51.41" y1="43.82" y2="37.61"/>
                      
            </g>
                  
            <line class="bond" id="mol1bnd19" x1="40.64" x2="27.43" y1="46.64" y2="39.02"/>
                  
            <g class="bond" id="mol1bnd20">
                        
                <line x1="27.43" x2="27.43" y1="23.78" y2="39.02"/>
                        
                <line x1="29.87" x2="29.87" y1="25.19" y2="37.61"/>
                      
            </g>
                  
            <line class="bond" id="mol1bnd21" x1="27.43" x2="40.64" y1="23.78" y2="16.16"/>
                  
            <g class="bond" id="mol1bnd22">
                        
                <line x1="53.85" x2="40.64" y1="23.77" y2="16.16"/>
                        
                <line x1="51.41" x2="40.64" y1="25.18" y2="18.97"/>
                      
            </g>
                  
            <line class="bond" id="mol1bnd23" x1="53.85" x2="53.85" y1="39.01" y2="23.77"/>
                  
            <line class="bond" id="mol1bnd24" x1="53.85" x2="63.76" y1="23.77" y2="18.05"/>
                  
            <line class="bond" id="mol1bnd25" x1="67.04" x2="67.04" y1="12.23" y2=".91"/>
                  
            <line class="bond" id="mol1bnd26" x1="27.43" x2="15.75" y1="23.78" y2="17.03"/>
                  
            <line class="bond" id="mol1bnd27" x1="27.43" x2="17.52" y1="39.02" y2="44.75"/>
                  
            <line class="bond" id="mol1bnd28" x1="10.95" x2="1.04" y1="44.75" y2="39.03"/>
                  
            <path class="atom" d="M135.3 84.74q.0 .76 -.26 1.33q-.26 .57 -.76 .88q-.5 .32 -1.24 .32q-.76 .0 -1.26 -.32q-.51 -.32 -.76 -.89q-.24 -.57 -.24 -1.33q.0 -.75 .24 -1.31q.25 -.57 .76 -.88q.51 -.32 1.27 -.32q.73 .0 1.23 .32q.5 .31 .76 .88q.26 .57 .26 1.33zM131.43 84.74q.0 .92 .39 1.46q.39 .53 1.22 .53q.84 .0 1.22 -.53q.39 -.54 .39 -1.46q.0 -.93 -.39 -1.45q-.38 -.52 -1.21 -.52q-.83 .0 -1.23 .52q-.39 .52 -.39 1.45z" id="mol1atm2" stroke="none"/>
                  
            <path class="atom" d="M161.7 69.49q.0 .76 -.26 1.33q-.26 .57 -.76 .88q-.5 .32 -1.24 .32q-.76 .0 -1.26 -.32q-.51 -.32 -.76 -.89q-.24 -.57 -.24 -1.33q.0 -.75 .24 -1.31q.25 -.57 .76 -.88q.51 -.32 1.27 -.32q.73 .0 1.23 .32q.5 .31 .76 .88q.26 .57 .26 1.33zM157.83 69.49q.0 .92 .39 1.46q.39 .53 1.22 .53q.84 .0 1.22 -.53q.39 -.54 .39 -1.46q.0 -.93 -.39 -1.45q-.38 -.52 -1.21 -.52q-.83 .0 -1.23 .52q-.39 .52 -.39 1.45z" id="mol1atm9" stroke="none"/>
                  
            <path class="atom" d="M161.7 39.01q.0 .76 -.26 1.33q-.26 .57 -.76 .88q-.5 .32 -1.24 .32q-.76 .0 -1.26 -.32q-.51 -.32 -.76 -.89q-.24 -.57 -.24 -1.33q.0 -.75 .24 -1.31q.25 -.57 .76 -.88q.51 -.32 1.27 -.32q.73 .0 1.23 .32q.5 .31 .76 .88q.26 .57 .26 1.33zM157.84 39.01q.0 .92 .39 1.46q.39 .53 1.22 .53q.84 .0 1.22 -.53q.39 -.54 .39 -1.46q.0 -.93 -.39 -1.45q-.38 -.52 -1.21 -.52q-.83 .0 -1.23 .52q-.39 .52 -.39 1.45z" id="mol1atm11" stroke="none"/>
                  
            <g class="atom" id="mol1atm14">
                        
                <path d="M95.39 49.08h-.72l-2.62 -4.07h-.03q.01 .24 .03 .6q.02 .36 .02 .73v2.74h-.57v-4.9h.71l2.61 4.05h.03q-.01 -.11 -.02 -.33q-.01 -.22 -.02 -.48q-.01 -.26 -.01 -.48v-2.77h.58v4.9z" fill="#3050F8" stroke="none"/>
                        
                <path d="M95.25 54.55h-.62v-2.29h-2.51v2.29h-.61v-4.9h.61v2.07h2.51v-2.07h.62v4.9z" fill="#3050F8" stroke="none"/>
                      
            </g>
                  
            <path class="atom" d="M69.3 16.15q.0 .76 -.26 1.33q-.26 .57 -.76 .88q-.5 .32 -1.24 .32q-.76 .0 -1.26 -.32q-.51 -.32 -.76 -.89q-.24 -.57 -.24 -1.33q.0 -.75 .24 -1.31q.25 -.57 .76 -.88q.51 -.32 1.27 -.32q.73 .0 1.23 .32q.5 .31 .76 .88q.26 .57 .26 1.33zM65.44 16.15q.0 .92 .39 1.46q.39 .53 1.22 .53q.84 .0 1.22 -.53q.39 -.54 .39 -1.46q.0 -.93 -.39 -1.45q-.38 -.52 -1.21 -.52q-.83 .0 -1.23 .52q-.39 .52 -.39 1.45z" id="mol1atm23" stroke="none"/>
                  
            <path class="atom" d="M11.78 14.34q-.79 .0 -1.24 .53q-.45 .52 -.45 1.45q.0 .91 .42 1.45q.42 .53 1.27 .53q.32 .0 .61 -.05q.29 -.06 .57 -.14v.54q-.27 .1 -.57 .15q-.29 .05 -.7 .05q-.74 .0 -1.25 -.31q-.5 -.31 -.75 -.88q-.25 -.57 -.25 -1.34q.0 -.74 .27 -1.31q.27 -.57 .8 -.88q.53 -.32 1.28 -.32q.78 .0 1.35 .29l-.24 .52q-.23 -.1 -.51 -.18q-.27 -.08 -.61 -.08zM14.53 18.77h-.6v-5.21h.6v5.21z" fill="#1FF01F" id="mol1atm25" stroke="none"/>
                  
            <path class="atom" d="M16.5 46.64q.0 .76 -.26 1.33q-.26 .57 -.76 .88q-.5 .32 -1.24 .32q-.76 .0 -1.26 -.32q-.51 -.32 -.76 -.89q-.24 -.57 -.24 -1.33q.0 -.75 .24 -1.31q.25 -.57 .76 -.88q.51 -.32 1.27 -.32q.73 .0 1.23 .32q.5 .31 .76 .88q.26 .57 .26 1.33zM12.63 46.64q.0 .92 .39 1.46q.39 .53 1.22 .53q.84 .0 1.22 -.53q.39 -.54 .39 -1.46q.0 -.93 -.39 -1.45q-.38 -.52 -1.21 -.52q-.83 .0 -1.23 .52q-.39 .52 -.39 1.45z" id="mol1atm26" stroke="none"/>
                
            <line class="hi" id="mol1bnd1" stroke="#FF0D0D" x1="129.76" x2="124.8" y1="86.64" y2="89.5"/>
            <line class="hi" id="mol1bnd2" stroke="#FF0D0D" x1="133.04" x2="133.04" y1="80.82" y2="75.16"/>
            <line class="hi" id="mol1bnd9" stroke="#FF0D0D" x1="156.15" x2="151.195" y1="67.6" y2="64.735"/>
            <line class="hi" id="mol1bnd10" stroke="#FF0D0D" x1="162.71" x2="167.67000000000002" y1="67.6" y2="64.735"/>
            <line class="hi" id="mol1bnd11" stroke="#FF0D0D" x1="156.16" x2="151.2" y1="40.9" y2="43.765"/>
            <line class="hi" id="mol1bnd12" stroke="#FF0D0D" x1="159.44" x2="159.44" y1="35.09" y2="29.43"/>
            <line class="hi" id="mol1bnd14" stroke="#3050F8" x1="96.6" x2="101.62" y1="44.81" y2="41.91"/>
            <line class="hi" id="mol1bnd15" stroke="#3050F8" x1="90.29" x2="85.27000000000001" y1="44.81" y2="41.91"/>
            <line class="hi" id="mol1bnd24" stroke="#FF0D0D" x1="63.76" x2="58.805" y1="18.05" y2="20.91"/>
            <line class="hi" id="mol1bnd25" stroke="#FF0D0D" x1="67.04" x2="67.04" y1="12.23" y2="6.57"/>
            <line class="hi" id="mol1bnd26" stroke="#1FF01F" x1="15.75" x2="21.59" y1="17.03" y2="20.405"/>
            <line class="hi" id="mol1bnd27" stroke="#FF0D0D" x1="17.52" x2="22.475" y1="44.75" y2="41.885000000000005"/>
            <line class="hi" id="mol1bnd28" stroke="#FF0D0D" x1="10.95" x2="5.994999999999999" y1="44.75" y2="41.89"/>
        </g>
          
    </g>
    
</svg>
