<svg xmlns="http://www.w3.org/2000/svg" xmlns:xlink="http://www.w3.org/1999/xlink" height="52.05mm" version="1.2" viewBox="0 0 174.28 52.05" width="174.28mm">
      
    <desc>Generated by the Chemistry Development Kit (http://github.com/cdk)</desc>
      
    <g fill="#1FF01F" stroke="#000000" stroke-linecap="round" stroke-linejoin="round" stroke-width=".7">
            
        <rect fill="#FFFFFF" height="53.0" stroke="none" width="175.0" x=".0" y=".0"/>
            
        <g class="mol" id="mol1">
                  
            <line class="bond" id="mol1bnd1" x1="150.56" x2="140.51" y1="25.93" y2="20.13"/>
                  
            <line class="bond" id="mol1bnd2" x1="137.36" x2="137.36" y1="14.46" y2="3.07"/>
                  
            <line class="bond" id="mol1bnd3" x1="134.21" x2="124.16" y1="20.13" y2="25.93"/>
                  
            <line class="bond" id="mol1bnd4" x1="124.16" x2="110.96" y1="25.93" y2="18.32"/>
                  
            <line class="bond" id="mol1bnd5" x1="110.96" x2="101.05" y1="18.32" y2="24.05"/>
                  
            <line class="bond" id="mol1bnd6" x1="94.48" x2="84.57" y1="24.04" y2="18.32"/>
                  
            <g class="bond" id="mol1bnd7">
                        
                <line x1="83.35" x2="83.35" y1="19.03" y2="7.0"/>
                        
                <line x1="85.79" x2="85.79" y1="19.02" y2="7.0"/>
                      
                <line class="hi" stroke="#FF0D0D" x1="83.35" x2="83.35" y1="7.0" y2="13.015"/>
                <line class="hi" stroke="#FF0D0D" x1="85.79" x2="85.79" y1="7.0" y2="13.01"/>
            </g>
                  
            <line class="bond" id="mol1bnd8" x1="84.57" x2="71.37" y1="18.32" y2="25.94"/>
                  
            <line class="bond" id="mol1bnd9" x1="71.37" x2="61.45" y1="25.94" y2="20.22"/>
                  
            <line class="bond" id="mol1bnd10" x1="54.89" x2="44.97" y1="20.22" y2="25.95"/>
                  
            <g class="bond" id="mol1bnd11">
                        
                <line x1="44.97" x2="31.77" y1="25.95" y2="18.33"/>
                        
                <line x1="42.54" x2="31.77" y1="27.36" y2="21.14"/>
                      
            </g>
                  
            <line class="bond" id="mol1bnd12" x1="31.77" x2="18.56" y1="18.33" y2="25.95"/>
                  
            <g class="bond" id="mol1bnd13">
                        
                <line x1="18.56" x2="18.56" y1="25.95" y2="41.19"/>
                        
                <line x1="21.0" x2="21.0" y1="27.36" y2="39.78"/>
                      
            </g>
                  
            <line class="bond" id="mol1bnd14" x1="18.56" x2="31.77" y1="41.19" y2="48.81"/>
                  
            <g class="bond" id="mol1bnd15">
                        
                <line x1="31.77" x2="44.97" y1="48.81" y2="41.19"/>
                        
                <line x1="31.77" x2="42.54" y1="45.99" y2="39.78"/>
                      
            </g>
                  
            <line class="bond" id="mol1bnd16" x1="44.97" x2="44.97" y1="25.95" y2="41.19"/>
                  
            <line class="bond" id="mol1bnd17" x1="18.56" x2="6.87" y1="41.19" y2="47.94"/>
                  
            <path class="atom" d="M139.3 20.76h-.72l-2.62 -4.07h-.03q.01 .24 .03 .6q.02 .36 .02 .73v2.74h-.57v-4.9h.71l2.61 4.05h.03q-.01 -.11 -.02 -.33q-.01 -.22 -.02 -.48q-.01 -.26 -.01 -.48v-2.77h.58v4.9z" fill="#3050F8" id="mol1atm2" stroke="none"/>
                  
            <path class="atom" d="M100.03 25.94q.0 .76 -.26 1.33q-.26 .57 -.76 .88q-.5 .32 -1.24 .32q-.76 .0 -1.26 -.32q-.51 -.32 -.76 -.89q-.24 -.57 -.24 -1.33q.0 -.75 .24 -1.31q.25 -.57 .76 -.88q.51 -.32 1.27 -.32q.73 .0 1.23 .32q.5 .31 .76 .88q.26 .57 .26 1.33zM96.16 25.94q.0 .92 .39 1.46q.39 .53 1.22 .53q.84 .0 1.22 -.53q.39 -.54 .39 -1.46q.0 -.93 -.39 -1.45q-.38 -.52 -1.21 -.52q-.83 .0 -1.23 .52q-.39 .52 -.39 1.45z" fill="#FF0D0D" id="mol1atm6" stroke="none"/>
                  
            <path class="atom" d="M86.82 3.08q.0 .76 -.26 1.33q-.26 .57 -.76 .88q-.5 .32 -1.24 .32q-.76 .0 -1.26 -.32q-.51 -.32 -.76 -.89q-.24 -.57 -.24 -1.33q.0 -.75 .24 -1.31q.25 -.57 .76 -.88q.51 -.32 1.27 -.32q.73 .0 1.23 .32q.5 .31 .76 .88q.26 .57 .26 1.33zM82.96 3.08q.0 .92 .39 1.46q.39 .53 1.22 .53q.84 .0 1.22 -.53q.39 -.54 .39 -1.46q.0 -.93 -.39 -1.45q-.38 -.52 -1.21 -.52q-.83 .0 -1.23 .52q-.39 .52 -.39 1.45z" fill="#FF0D0D" id="mol1atm8" stroke="none"/>
                  
            <path class="atom" d="M60.43 18.32q.0 .76 -.26 1.33q-.26 .57 -.76 .88q-.5 .32 -1.24 .32q-.76 .0 -1.26 -.32q-.51 -.32 -.76 -.89q-.24 -.57 -.24 -1.33q.0 -.75 .24 -1.31q.25 -.57 .76 -.88q.51 -.32 1.27 -.32q.73 .0 1.23 .32q.5 .31 .76 .88q.26 .57 .26 1.33zM56.57 18.32q.0 .92 .39 1.46q.39 .53 1.22 .53q.84 .0 1.22 -.53q.39 -.54 .39 -1.46q.0 -.93 -.39 -1.45q-.38 -.52 -1.21 -.52q-.83 .0 -1.23 .52q-.39 .52 -.39 1.45z" fill="#FF0D0D" id="mol1atm10" stroke="none"/>
                  
            <path class="atom" d="M2.91 46.99q-.79 .0 -1.24 .53q-.45 .52 -.45 1.45q.0 .91 .42 1.45q.42 .53 1.27 .53q.32 .0 .61 -.05q.29 -.06 .57 -.14v.54q-.27 .1 -.57 .15q-.29 .05 -.7 .05q-.74 .0 -1.25 -.31q-.5 -.31 -.75 -.88q-.25 -.57 -.25 -1.34q.0 -.74 .27 -1.31q.27 -.57 .8 -.88q.53 -.32 1.28 -.32q.78 .0 1.35 .29l-.24 .52q-.23 -.1 -.51 -.18q-.27 -.08 -.61 -.08zM5.66 51.42h-.6v-5.21h.6v5.21z" id="mol1atm17" stroke="none"/>
                  
            <g class="atom" id="mol1atm18">
                        
                <path d="M170.96 24.13q-.79 .0 -1.24 .53q-.45 .52 -.45 1.45q.0 .91 .42 1.45q.42 .53 1.27 .53q.32 .0 .61 -.05q.29 -.06 .57 -.14v.54q-.27 .1 -.57 .15q-.29 .05 -.7 .05q-.74 .0 -1.25 -.31q-.5 -.31 -.75 -.88q-.25 -.57 -.25 -1.34q.0 -.74 .27 -1.31q.27 -.57 .8 -.88q.53 -.32 1.28 -.32q.78 .0 1.35 .29l-.24 .52q-.23 -.1 -.51 -.18q-.27 -.08 -.61 -.08zM173.72 28.55h-.6v-5.21h.6v5.21z" stroke="none"/>
                        
                <path d="M168.06 28.55h-.62v-2.29h-2.51v2.29h-.61v-4.9h.61v2.07h2.51v-2.07h.62v4.9z" stroke="none"/>
                      
            </g>
                
            <line class="hi" id="mol1bnd1" stroke="#3050F8" x1="140.51" x2="145.535" y1="20.13" y2="23.03"/>
            <line class="hi" id="mol1bnd2" stroke="#3050F8" x1="137.36" x2="137.36" y1="14.46" y2="8.765"/>
            <line class="hi" id="mol1bnd3" stroke="#3050F8" x1="134.21" x2="129.185" y1="20.13" y2="23.03"/>
            <line class="hi" id="mol1bnd5" stroke="#FF0D0D" x1="101.05" x2="106.005" y1="24.05" y2="21.185000000000002"/>
            <line class="hi" id="mol1bnd6" stroke="#FF0D0D" x1="94.48" x2="89.525" y1="24.04" y2="21.18"/>
            <line class="hi" id="mol1bnd9" stroke="#FF0D0D" x1="61.45" x2="66.41" y1="20.22" y2="23.08"/>
            <line class="hi" id="mol1bnd10" stroke="#FF0D0D" x1="54.89" x2="49.93" y1="20.22" y2="23.085"/>
            <line class="hi" id="mol1bnd17" stroke="#1FF01F" x1="6.870000000000001" x2="12.715" y1="47.94" y2="44.565"/>
        </g>
          
    </g>
    
</svg>
