<svg xmlns="http://www.w3.org/2000/svg" xmlns:xlink="http://www.w3.org/1999/xlink" height="43.52mm" version="1.2" viewBox="0 0 71.88 43.52" width="71.88mm">
      
    <desc>Generated by the Chemistry Development Kit (http://github.com/cdk)</desc>
      
    <g fill="#1FF01F" stroke="#000000" stroke-linecap="round" stroke-linejoin="round" stroke-width=".7">
            
        <rect fill="#FFFFFF" height="44.0" stroke="none" width="72.0" x=".0" y=".0"/>
            
        <g class="mol" id="mol1">
                  
            <line class="bond" id="mol1bnd1" x1="52.12" x2="55.16" y1=".97" y2="15.91"/>
                  
            <g class="bond" id="mol1bnd2">
                        
                <line x1="55.16" x2="44.82" y1="15.91" y2="27.04"/>
                        
                <line x1="55.76" x2="47.8" y1="18.84" y2="27.42"/>
                      
            </g>
                  
            <line class="bond" id="mol1bnd3" x1="44.82" x2="50.27" y1="27.04" y2="37.09"/>
                  
            <line class="bond" id="mol1bnd4" x1="54.96" x2="66.97" y1="39.85" y2="37.36"/>
                  
            <g class="bond" id="mol1bnd5">
                        
                <line x1="66.97" x2="68.77" y1="37.36" y2="26.08"/>
                        
                <line x1="64.82" x2="66.36" y1="35.32" y2="25.69"/>
                      
                <line class="hi" stroke="#3050F8" x1="68.77" x2="67.87" y1="26.08" y2="31.72"/>
                <line class="hi" stroke="#3050F8" x1="66.36" x2="65.59" y1="25.69" y2="30.505000000000003"/>
            </g>
                  
            <line class="bond" id="mol1bnd6" x1="55.16" x2="66.16" y1="15.91" y2="20.81"/>
                  
            <line class="bond" id="mol1bnd7" x1="44.82" x2="29.7" y1="27.04" y2="25.13"/>
                  
            <line class="bond" id="mol1bnd8" x1="29.7" x2="20.48" y1="25.13" y2="37.26"/>
                  
            <line class="bond" id="mol1bnd9" x1="20.48" x2="7.05" y1="37.26" y2="35.57"/>
                  
            <path class="atom" d="M53.63 41.58q.0 .65 -.48 1.02q-.47 .36 -1.27 .36q-.42 .0 -.77 -.07q-.35 -.06 -.58 -.17v-.59q.24 .11 .61 .2q.37 .09 .76 .09q.55 .0 .83 -.21q.28 -.21 .28 -.58q.0 -.24 -.11 -.4q-.1 -.17 -.35 -.31q-.25 -.14 -.7 -.3q-.63 -.23 -.95 -.55q-.32 -.33 -.32 -.9q.0 -.39 .2 -.67q.2 -.28 .55 -.43q.36 -.15 .82 -.15q.4 .0 .74 .08q.34 .07 .61 .2l-.2 .53q-.25 -.11 -.55 -.18q-.3 -.08 -.63 -.08q-.46 .0 -.69 .2q-.23 .2 -.23 .52q.0 .24 .1 .41q.11 .17 .34 .3q.23 .13 .63 .28q.43 .15 .73 .34q.3 .18 .45 .43q.15 .25 .15 .64z" fill="#C6C62C" id="mol1atm4" stroke="none"/>
                  
            <path class="atom" d="M71.32 24.69h-.72l-2.62 -4.07h-.03q.01 .24 .03 .6q.02 .36 .02 .73v2.74h-.57v-4.9h.71l2.61 4.05h.03q-.01 -.11 -.02 -.33q-.01 -.22 -.02 -.48q-.01 -.26 -.01 -.48v-2.77h.58v4.9z" fill="#3050F8" id="mol1atm6" stroke="none"/>
                  
            <path class="atom" d="M2.91 33.54q-.79 .0 -1.24 .53q-.45 .52 -.45 1.45q.0 .91 .42 1.45q.42 .53 1.27 .53q.32 .0 .61 -.05q.29 -.06 .57 -.14v.54q-.27 .1 -.57 .15q-.29 .05 -.7 .05q-.74 .0 -1.25 -.31q-.5 -.31 -.75 -.88q-.25 -.57 -.25 -1.34q.0 -.74 .27 -1.31q.27 -.57 .8 -.88q.53 -.32 1.28 -.32q.78 .0 1.35 .29l-.24 .52q-.23 -.1 -.51 -.18q-.27 -.08 -.61 -.08zM5.66 37.96h-.6v-5.21h.6v5.21z" id="mol1atm9" stroke="none"/>
                
            <line class="hi" id="mol1bnd3" stroke="#C6C62C" x1="50.27" x2="47.545" y1="37.09" y2="32.065"/>
            <line class="hi" id="mol1bnd4" stroke="#C6C62C" x1="54.96" x2="60.965" y1="39.85" y2="38.605000000000004"/>
            <line class="hi" id="mol1bnd6" stroke="#3050F8" x1="66.16" x2="60.66" y1="20.81" y2="18.36"/>
            <line class="hi" id="mol1bnd9" stroke="#1FF01F" x1="7.050000000000001" x2="13.765" y1="35.57" y2="36.415"/>
        </g>
          
    </g>
    
</svg>
