<svg xmlns="http://www.w3.org/2000/svg" xmlns:xlink="http://www.w3.org/1999/xlink" height="52.36mm" version="1.2" viewBox="0 0 78.99 52.36" width="78.99mm">
      
    <desc>Generated by the Chemistry Development Kit (http://github.com/cdk)</desc>
      
    <g fill="#3050F8" stroke="#000000" stroke-linecap="round" stroke-linejoin="round" stroke-width=".7">
            
        <rect fill="#FFFFFF" height="53.0" stroke="none" width="79.0" x=".0" y=".0"/>
            
        <g class="mol" id="mol1">
                  
            <line class="bond" id="mol1bnd1" x1="8.65" x2="1.05" y1="44.56" y2="31.43"/>
                  
            <line class="bond" id="mol1bnd2" x1="1.05" x2="8.37" y1="31.43" y2="23.3"/>
                  
            <g class="bond" id="mol1bnd3">
                        
                <line x1="25.1" x2="14.47" y1="26.29" y2="21.55"/>
                        
                <line x1="22.5" x2="13.48" y1="27.8" y2="23.77"/>
                      
                <line class="hi" stroke="#3050F8" x1="14.47" x2="19.785" y1="21.55" y2="23.92"/>
                <line class="hi" stroke="#3050F8" x1="13.48" x2="17.990000000000002" y1="23.77" y2="25.785"/>
            </g>
                  
            <line class="bond" id="mol1bnd4" x1="25.1" x2="23.98" y1="26.29" y2="37.63"/>
                  
            <line class="bond" id="mol1bnd5" x1="8.65" x2="20.28" y1="44.56" y2="42.16"/>
                  
            <line class="bond" id="mol1bnd6" x1="25.1" x2="35.13" y1="26.29" y2="20.47"/>
                  
            <line class="bond" id="mol1bnd7" x1="41.43" x2="51.5" y1="20.45" y2="26.22"/>
                  
            <g class="bond" id="mol1bnd8">
                        
                <line x1="64.68" x2="51.5" y1="18.57" y2="26.22"/>
                        
                <line x1="64.69" x2="53.94" y1="21.38" y2="27.62"/>
                      
            </g>
                  
            <line class="bond" id="mol1bnd9" x1="64.68" x2="77.91" y1="18.57" y2="26.15"/>
                  
            <g class="bond" id="mol1bnd10">
                        
                <line x1="77.95" x2="77.91" y1="41.39" y2="26.15"/>
                        
                <line x1="75.51" x2="75.48" y1="39.99" y2="27.57"/>
                      
            </g>
                  
            <line class="bond" id="mol1bnd11" x1="77.95" x2="64.77" y1="41.39" y2="49.05"/>
                  
            <g class="bond" id="mol1bnd12">
                        
                <line x1="51.54" x2="64.77" y1="41.46" y2="49.05"/>
                        
                <line x1="53.97" x2="64.76" y1="40.05" y2="46.23"/>
                      
            </g>
                  
            <line class="bond" id="mol1bnd13" x1="51.5" x2="51.54" y1="26.22" y2="41.46"/>
                  
            <line class="bond" id="mol1bnd14" x1="51.54" x2="39.87" y1="41.46" y2="48.24"/>
                  
            <line class="bond" id="mol1bnd15" x1="64.68" x2="64.65" y1="18.57" y2="7.25"/>
                  
            <path class="atom" d="M13.19 22.56h-.72l-2.62 -4.07h-.03q.01 .24 .03 .6q.02 .36 .02 .73v2.74h-.57v-4.9h.71l2.61 4.05h.03q-.01 -.11 -.02 -.33q-.01 -.22 -.02 -.48q-.01 -.26 -.01 -.48v-2.77h.58v4.9z" id="mol1atm3" stroke="none"/>
                  
            <g class="atom" id="mol1atm5">
                        
                <path d="M25.54 43.93h-.72l-2.62 -4.07h-.03q.01 .24 .03 .6q.02 .36 .02 .73v2.74h-.57v-4.9h.71l2.61 4.05h.03q-.01 -.11 -.02 -.33q-.01 -.22 -.02 -.48q-.01 -.26 -.01 -.48v-2.77h.58v4.9z" stroke="none"/>
                        
                <path d="M29.84 43.93h-.62v-2.29h-2.51v2.29h-.61v-4.9h.61v2.07h2.51v-2.07h.62v4.9z" stroke="none"/>
                      
            </g>
                  
            <g class="atom" id="mol1atm6">
                        
                <path d="M40.22 21.09h-.72l-2.62 -4.07h-.03q.01 .24 .03 .6q.02 .36 .02 .73v2.74h-.57v-4.9h.71l2.61 4.05h.03q-.01 -.11 -.02 -.33q-.01 -.22 -.02 -.48q-.01 -.26 -.01 -.48v-2.77h.58v4.9z" stroke="none"/>
                        
                <path d="M40.08 15.62h-.62v-2.29h-2.51v2.29h-.61v-4.9h.61v2.07h2.51v-2.07h.62v4.9z" stroke="none"/>
                      
            </g>
                  
            <path class="atom" d="M35.9 47.3q-.79 .0 -1.24 .53q-.45 .52 -.45 1.45q.0 .91 .42 1.45q.42 .53 1.27 .53q.32 .0 .61 -.05q.29 -.06 .57 -.14v.54q-.27 .1 -.57 .15q-.29 .05 -.7 .05q-.74 .0 -1.25 -.31q-.5 -.31 -.75 -.88q-.25 -.57 -.25 -1.34q.0 -.74 .27 -1.31q.27 -.57 .8 -.88q.53 -.32 1.28 -.32q.78 .0 1.35 .29l-.24 .52q-.23 -.1 -.51 -.18q-.27 -.08 -.61 -.08zM38.66 51.73h-.6v-5.21h.6v5.21z" fill="#1FF01F" id="mol1atm13" stroke="none"/>
                  
            <path class="atom" d="M65.14 1.35q-.79 .0 -1.24 .53q-.45 .52 -.45 1.45q.0 .91 .42 1.45q.42 .53 1.27 .53q.32 .0 .61 -.05q.29 -.06 .57 -.14v.54q-.27 .1 -.57 .15q-.29 .05 -.7 .05q-.74 .0 -1.25 -.31q-.5 -.31 -.75 -.88q-.25 -.57 -.25 -1.34q.0 -.74 .27 -1.31q.27 -.57 .8 -.88q.53 -.32 1.28 -.32q.78 .0 1.35 .29l-.24 .52q-.23 -.1 -.51 -.18q-.27 -.08 -.61 -.08zM67.9 5.77h-.6v-5.21h.6v5.21z" fill="#1FF01F" id="mol1atm14" stroke="none"/>
                
            <line class="hi" id="mol1bnd2" stroke="#3050F8" x1="8.37" x2="4.71" y1="23.3" y2="27.365000000000002"/>
            <line class="hi" id="mol1bnd4" stroke="#3050F8" x1="23.98" x2="24.54" y1="37.63" y2="31.96"/>
            <line class="hi" id="mol1bnd5" stroke="#3050F8" x1="20.28" x2="14.465" y1="42.16" y2="43.36"/>
            <line class="hi" id="mol1bnd6" stroke="#3050F8" x1="35.13" x2="30.115000000000002" y1="20.47" y2="23.38"/>
            <line class="hi" id="mol1bnd6" stroke="#3050F8" x1="35.13" x2="30.115000000000002" y1="20.47" y2="23.38"/>
            <line class="hi" id="mol1bnd7" stroke="#3050F8" x1="41.43" x2="46.465" y1="20.45" y2="23.335"/>
            <line class="hi" id="mol1bnd7" stroke="#3050F8" x1="41.43" x2="46.465" y1="20.45" y2="23.335"/>
            <line class="hi" id="mol1bnd14" stroke="#1FF01F" x1="39.87" x2="45.705" y1="48.24" y2="44.85"/>
            <line class="hi" id="mol1bnd15" stroke="#1FF01F" x1="64.65" x2="64.665" y1="7.25" y2="12.91"/>
        </g>
          
    </g>
    
</svg>
