<svg xmlns="http://www.w3.org/2000/svg" xmlns:xlink="http://www.w3.org/1999/xlink" height="91.49mm" version="1.2" viewBox="0 0 106.73 91.49" width="106.73mm">
      
    <desc>Generated by the Chemistry Development Kit (http://github.com/cdk)</desc>
      
    <g fill="#FF0D0D" stroke="#000000" stroke-linecap="round" stroke-linejoin="round" stroke-width=".7">
            
        <rect fill="#FFFFFF" height="92.0" stroke="none" width="107.0" x=".0" y=".0"/>
            
        <g class="mol" id="mol1">
                  
            <g class="bond" id="mol1bnd1">
                        
                <line x1="61.58" x2="47.01" y1="1.05" y2="5.55"/>
                        
                <line x1="60.95" x2="49.07" y1="3.8" y2="7.47"/>
                      
            </g>
                  
            <line class="bond" id="mol1bnd2" x1="47.01" x2="43.62" y1="5.55" y2="20.41"/>
                  
            <g class="bond" id="mol1bnd3">
                        
                <line x1="43.62" x2="54.81" y1="20.41" y2="30.77"/>
                        
                <line x1="46.31" x2="55.43" y1="19.58" y2="28.03"/>
                      
            </g>
                  
            <line class="bond" id="mol1bnd4" x1="54.81" x2="69.38" y1="30.77" y2="26.28"/>
                  
            <g class="bond" id="mol1bnd5">
                        
                <line x1="69.38" x2="72.76" y1="26.28" y2="11.42"/>
                        
                <line x1="67.31" x2="70.07" y1="24.36" y2="12.25"/>
                      
            </g>
                  
            <line class="bond" id="mol1bnd6" x1="61.58" x2="72.76" y1="1.05" y2="11.42"/>
                  
            <line class="bond" id="mol1bnd7" x1="54.81" x2="51.42" y1="30.77" y2="45.63"/>
                  
            <g class="bond" id="mol1bnd8">
                        
                <line x1="51.42" x2="39.89" y1="45.63" y2="48.32"/>
                        
                <line x1="50.82" x2="40.45" y1="48.28" y2="50.69"/>
                      
                <line class="hi" stroke="#3050F8" x1="39.89" x2="45.655" y1="48.32" y2="46.975"/>
                <line class="hi" stroke="#3050F8" x1="40.45" x2="45.635000000000005" y1="50.69" y2="49.485"/>
            </g>
                  
            <line class="bond" id="mol1bnd9" x1="34.8" x2="29.99" y1="52.8" y2="62.8"/>
                  
            <line class="bond" id="mol1bnd10" x1="29.99" x2="36.59" y1="62.8" y2="76.52"/>
                  
            <g class="bond" id="mol1bnd11">
                        
                <line x1="37.91" x2="30.48" y1="76.83" y2="86.09"/>
                        
                <line x1="36.0" x2="28.58" y1="75.3" y2="84.57"/>
                      
                <line class="hi" stroke="#FF0D0D" x1="30.48" x2="34.195" y1="86.09" y2="81.46000000000001"/>
                <line class="hi" stroke="#FF0D0D" x1="28.58" x2="32.29" y1="84.57" y2="79.935"/>
            </g>
                  
            <line class="bond" id="mol1bnd12" x1="36.59" x2="48.12" y1="76.52" y2="79.2"/>
                  
            <line class="bond" id="mol1bnd13" x1="54.46" x2="63.31" y1="77.54" y2="70.42"/>
                  
            <g class="bond" id="mol1bnd14">
                        
                <line x1="63.31" x2="63.31" y1="55.18" y2="70.42"/>
                        
                <line x1="65.75" x2="65.75" y1="56.59" y2="69.01"/>
                      
            </g>
                  
            <line class="bond" id="mol1bnd15" x1="51.42" x2="63.31" y1="45.63" y2="55.18"/>
                  
            <line class="bond" id="mol1bnd16" x1="63.31" x2="76.52" y1="55.18" y2="47.56"/>
                  
            <g class="bond" id="mol1bnd17">
                        
                <line x1="89.73" x2="76.52" y1="55.18" y2="47.56"/>
                        
                <line x1="87.29" x2="76.52" y1="56.59" y2="50.38"/>
                      
            </g>
                  
            <line class="bond" id="mol1bnd18" x1="89.73" x2="89.73" y1="55.18" y2="70.42"/>
                  
            <g class="bond" id="mol1bnd19">
                        
                <line x1="76.52" x2="89.73" y1="78.04" y2="70.42"/>
                        
                <line x1="76.52" x2="87.29" y1="75.23" y2="69.01"/>
                      
            </g>
                  
            <line class="bond" id="mol1bnd20" x1="63.31" x2="76.52" y1="70.42" y2="78.04"/>
                  
            <line class="bond" id="mol1bnd21" x1="89.73" x2="99.97" y1="55.18" y2="49.27"/>
                  
            <line class="bond" id="mol1bnd22" x1="29.99" x2="14.75" y1="62.8" y2="62.8"/>
                  
            <g class="bond" id="mol1bnd23">
                        
                <line x1="14.04" x2="8.04" y1="64.02" y2="53.62"/>
                        
                <line x1="16.15" x2="10.15" y1="62.8" y2="52.4"/>
                      
                <line class="hi" stroke="#FF0D0D" x1="8.04" x2="11.04" y1="53.62" y2="58.81999999999999"/>
                <line class="hi" stroke="#FF0D0D" x1="10.15" x2="13.149999999999999" y1="52.4" y2="57.599999999999994"/>
            </g>
                  
            <line class="bond" id="mol1bnd24" x1="14.75" x2="9.09" y1="62.8" y2="72.59"/>
                  
            <path class="atom" d="M38.53 51.54h-.72l-2.62 -4.07h-.03q.01 .24 .03 .6q.02 .36 .02 .73v2.74h-.57v-4.9h.71l2.61 4.05h.03q-.01 -.11 -.02 -.33q-.01 -.22 -.02 -.48q-.01 -.26 -.01 -.48v-2.77h.58v4.9z" fill="#3050F8" id="mol1atm8" stroke="none"/>
                  
            <path class="atom" d="M29.32 88.41q.0 .76 -.26 1.33q-.26 .57 -.76 .88q-.5 .32 -1.24 .32q-.76 .0 -1.26 -.32q-.51 -.32 -.76 -.89q-.24 -.57 -.24 -1.33q.0 -.75 .24 -1.31q.25 -.57 .76 -.88q.51 -.32 1.27 -.32q.73 .0 1.23 .32q.5 .31 .76 .88q.26 .57 .26 1.33zM25.46 88.41q.0 .92 .39 1.46q.39 .53 1.22 .53q.84 .0 1.22 -.53q.39 -.54 .39 -1.46q.0 -.93 -.39 -1.45q-.38 -.52 -1.21 -.52q-.83 .0 -1.23 .52q-.39 .52 -.39 1.45z" id="mol1atm11" stroke="none"/>
                  
            <g class="atom" id="mol1atm12">
                        
                <path d="M53.36 82.42h-.72l-2.62 -4.07h-.03q.01 .24 .03 .6q.02 .36 .02 .73v2.74h-.57v-4.9h.71l2.61 4.05h.03q-.01 -.11 -.02 -.33q-.01 -.22 -.02 -.48q-.01 -.26 -.01 -.48v-2.77h.58v4.9z" fill="#3050F8" stroke="none"/>
                        
                <path d="M53.23 87.88h-.62v-2.29h-2.51v2.29h-.61v-4.9h.61v2.07h2.51v-2.07h.62v4.9z" fill="#3050F8" stroke="none"/>
                      
            </g>
                  
            <path class="atom" d="M103.42 45.58q-.79 .0 -1.24 .53q-.45 .52 -.45 1.45q.0 .91 .42 1.45q.42 .53 1.27 .53q.32 .0 .61 -.05q.29 -.06 .57 -.14v.54q-.27 .1 -.57 .15q-.29 .05 -.7 .05q-.74 .0 -1.25 -.31q-.5 -.31 -.75 -.88q-.25 -.57 -.25 -1.34q.0 -.74 .27 -1.31q.27 -.57 .8 -.88q.53 -.32 1.28 -.32q.78 .0 1.35 .29l-.24 .52q-.23 -.1 -.51 -.18q-.27 -.08 -.61 -.08zM106.17 50.01h-.6v-5.21h.6v5.21z" fill="#1FF01F" id="mol1atm19" stroke="none"/>
                  
            <path class="atom" d="M9.38 49.6q.0 .76 -.26 1.33q-.26 .57 -.76 .88q-.5 .32 -1.24 .32q-.76 .0 -1.26 -.32q-.51 -.32 -.76 -.89q-.24 -.57 -.24 -1.33q.0 -.75 .24 -1.31q.25 -.57 .76 -.88q.51 -.32 1.27 -.32q.73 .0 1.23 .32q.5 .31 .76 .88q.26 .57 .26 1.33zM5.52 49.6q.0 .92 .39 1.46q.39 .53 1.22 .53q.84 .0 1.22 -.53q.39 -.54 .39 -1.46q.0 -.93 -.39 -1.45q-.38 -.52 -1.21 -.52q-.83 .0 -1.23 .52q-.39 .52 -.39 1.45z" id="mol1atm21" stroke="none"/>
                  
            <g class="atom" id="mol1atm22">
                        
                <path d="M9.38 76.0q.0 .76 -.26 1.33q-.26 .57 -.76 .88q-.5 .32 -1.24 .32q-.76 .0 -1.26 -.32q-.51 -.32 -.76 -.89q-.24 -.57 -.24 -1.33q.0 -.75 .24 -1.31q.25 -.57 .76 -.88q.51 -.32 1.27 -.32q.73 .0 1.23 .32q.5 .31 .76 .88q.26 .57 .26 1.33zM5.52 76.0q.0 .92 .39 1.46q.39 .53 1.22 .53q.84 .0 1.22 -.53q.39 -.54 .39 -1.46q.0 -.93 -.39 -1.45q-.38 -.52 -1.21 -.52q-.83 .0 -1.23 .52q-.39 .52 -.39 1.45z" stroke="none"/>
                        
                <path d="M4.3 78.45h-.62v-2.29h-2.51v2.29h-.61v-4.9h.61v2.07h2.51v-2.07h.62v4.9z" stroke="none"/>
                      
            </g>
                
            <line class="hi" id="mol1bnd9" stroke="#3050F8" x1="34.8" x2="32.394999999999996" y1="52.8" y2="57.8"/>
            <line class="hi" id="mol1bnd12" stroke="#3050F8" x1="48.12" x2="42.355000000000004" y1="79.2" y2="77.86"/>
            <line class="hi" id="mol1bnd13" stroke="#3050F8" x1="54.46" x2="58.885000000000005" y1="77.54" y2="73.98"/>
            <line class="hi" id="mol1bnd21" stroke="#1FF01F" x1="99.97" x2="94.85" y1="49.27" y2="52.225"/>
            <line class="hi" id="mol1bnd24" stroke="#FF0D0D" x1="9.09" x2="11.92" y1="72.59" y2="67.695"/>
            <line class="hi" id="mol1bnd24" stroke="#FF0D0D" x1="9.09" x2="11.92" y1="72.59" y2="67.695"/>
        </g>
          
    </g>
    
</svg>
