<svg xmlns="http://www.w3.org/2000/svg" xmlns:xlink="http://www.w3.org/1999/xlink" height="95.93mm" version="1.2" viewBox="0 0 86.93 95.93" width="86.93mm">
      
    <desc>Generated by the Chemistry Development Kit (http://github.com/cdk)</desc>
      
    <g fill="#3050F8" stroke="#000000" stroke-linecap="round" stroke-linejoin="round" stroke-width=".7">
            
        <rect fill="#FFFFFF" height="96.0" stroke="none" width="87.0" x=".0" y=".0"/>
            
        <g class="mol" id="mol1">
                  
            <line class="bond" id="mol1bnd1" x1="85.89" x2="78.27" y1="49.72" y2="62.92"/>
                  
            <line class="bond" id="mol1bnd2" x1="78.27" x2="63.03" y1="62.92" y2="62.92"/>
                  
            <g class="bond" id="mol1bnd3">
                        
                <line x1="63.03" x2="54.09" y1="62.92" y2="50.63"/>
                        
                <line x1="60.02" x2="53.16" y1="62.92" y2="53.49"/>
                      
            </g>
                  
            <line class="bond" id="mol1bnd4" x1="54.09" x2="39.56" y1="50.63" y2="55.3"/>
                  
            <g class="bond" id="mol1bnd5">
                        
                <line x1="39.56" x2="39.56" y1="55.3" y2="70.54"/>
                        
                <line x1="42.0" x2="42.0" y1="57.08" y2="68.76"/>
                      
            </g>
                  
            <line class="bond" id="mol1bnd6" x1="39.56" x2="51.25" y1="70.54" y2="74.3"/>
                  
            <line class="bond" id="mol1bnd7" x1="63.03" x2="56.36" y1="62.92" y2="72.1"/>
                  
            <line class="bond" id="mol1bnd8" x1="39.56" x2="30.71" y1="70.54" y2="77.65"/>
                  
            <line class="bond" id="mol1bnd9" x1="24.37" x2="12.84" y1="79.32" y2="76.64"/>
                  
            <g class="bond" id="mol1bnd10">
                        
                <line x1="14.16" x2="6.73" y1="76.94" y2="86.21"/>
                        
                <line x1="12.25" x2="4.83" y1="75.42" y2="84.68"/>
                      
                <line class="hi" stroke="#FF0D0D" x1="6.73" x2="10.445" y1="86.21" y2="81.57499999999999"/>
                <line class="hi" stroke="#FF0D0D" x1="4.83" x2="8.54" y1="84.68" y2="80.05000000000001"/>
            </g>
                  
            <line class="bond" id="mol1bnd11" x1="12.84" x2="6.24" y1="76.64" y2="62.92"/>
                  
            <line class="bond" id="mol1bnd12" x1="6.24" x2="11.05" y1="62.92" y2="52.91"/>
                  
            <g class="bond" id="mol1bnd13">
                        
                <line x1="27.67" x2="16.14" y1="45.75" y2="48.43"/>
                        
                <line x1="27.07" x2="16.7" y1="48.39" y2="50.81"/>
                      
                <line class="hi" stroke="#3050F8" x1="16.14" x2="21.905" y1="48.43" y2="47.09"/>
                <line class="hi" stroke="#3050F8" x1="16.7" x2="21.884999999999998" y1="50.81" y2="49.6"/>
            </g>
                  
            <line class="bond" id="mol1bnd14" x1="39.56" x2="27.67" y1="55.3" y2="45.75"/>
                  
            <line class="bond" id="mol1bnd15" x1="27.67" x2="31.06" y1="45.75" y2="30.89"/>
                  
            <g class="bond" id="mol1bnd16">
                        
                <line x1="31.06" x2="45.67" y1="30.89" y2="26.38"/>
                        
                <line x1="31.68" x2="43.59" y1="28.14" y2="24.47"/>
                      
            </g>
                  
            <line class="bond" id="mol1bnd17" x1="45.67" x2="48.92" y1="26.38" y2="11.49"/>
                  
            <g class="bond" id="mol1bnd18">
                        
                <line x1="48.92" x2="37.78" y1="11.49" y2="1.05"/>
                        
                <line x1="46.24" x2="37.15" y1="12.33" y2="3.81"/>
                      
            </g>
                  
            <line class="bond" id="mol1bnd19" x1="37.78" x2="23.15" y1="1.05" y2="5.66"/>
                  
            <g class="bond" id="mol1bnd20">
                        
                <line x1="23.15" x2="19.9" y1="5.66" y2="20.55"/>
                        
                <line x1="25.23" x2="22.58" y1="7.56" y2="19.71"/>
                      
            </g>
                  
            <line class="bond" id="mol1bnd21" x1="31.06" x2="19.9" y1="30.89" y2="20.55"/>
                  
            <line class="bond" id="mol1bnd22" x1="19.9" x2="7.0" y1="20.55" y2="24.6"/>
                  
            <line class="bond" id="mol1bnd23" x1="28.54" x2="31.06" y1="83.9" y2="94.95"/>
                  
            <path class="atom" d="M55.64 76.35q.0 .65 -.48 1.02q-.47 .36 -1.27 .36q-.42 .0 -.77 -.07q-.35 -.06 -.58 -.17v-.59q.24 .11 .61 .2q.37 .09 .76 .09q.55 .0 .83 -.21q.28 -.21 .28 -.58q.0 -.24 -.11 -.4q-.1 -.17 -.35 -.31q-.25 -.14 -.7 -.3q-.63 -.23 -.95 -.55q-.32 -.33 -.32 -.9q.0 -.39 .2 -.67q.2 -.28 .55 -.43q.36 -.15 .82 -.15q.4 .0 .74 .08q.34 .07 .61 .2l-.2 .53q-.25 -.11 -.55 -.18q-.3 -.08 -.63 -.08q-.46 .0 -.69 .2q-.23 .2 -.23 .52q.0 .24 .1 .41q.11 .17 .34 .3q.23 .13 .63 .28q.43 .15 .73 .34q.3 .18 .45 .43q.15 .25 .15 .64z" fill="#C6C62C" id="mol1atm7" stroke="none"/>
                  
            <path class="atom" d="M29.61 82.54h-.72l-2.62 -4.07h-.03q.01 .24 .03 .6q.02 .36 .02 .73v2.74h-.57v-4.9h.71l2.61 4.05h.03q-.01 -.11 -.02 -.33q-.01 -.22 -.02 -.48q-.01 -.26 -.01 -.48v-2.77h.58v4.9z" id="mol1atm8" stroke="none"/>
                  
            <path class="atom" d="M5.57 88.53q.0 .76 -.26 1.33q-.26 .57 -.76 .88q-.5 .32 -1.24 .32q-.76 .0 -1.26 -.32q-.51 -.32 -.76 -.89q-.24 -.57 -.24 -1.33q.0 -.75 .24 -1.31q.25 -.57 .76 -.88q.51 -.32 1.27 -.32q.73 .0 1.23 .32q.5 .31 .76 .88q.26 .57 .26 1.33zM1.71 88.53q.0 .92 .39 1.46q.39 .53 1.22 .53q.84 .0 1.22 -.53q.39 -.54 .39 -1.46q.0 -.93 -.39 -1.45q-.38 -.52 -1.21 -.52q-.83 .0 -1.23 .52q-.39 .52 -.39 1.45z" fill="#FF0D0D" id="mol1atm10" stroke="none"/>
                  
            <path class="atom" d="M14.78 51.65h-.72l-2.62 -4.07h-.03q.01 .24 .03 .6q.02 .36 .02 .73v2.74h-.57v-4.9h.71l2.61 4.05h.03q-.01 -.11 -.02 -.33q-.01 -.22 -.02 -.48q-.01 -.26 -.01 -.48v-2.77h.58v4.9z" id="mol1atm12" stroke="none"/>
                  
            <path class="atom" d="M2.91 23.3q-.79 .0 -1.24 .53q-.45 .52 -.45 1.45q.0 .91 .42 1.45q.42 .53 1.27 .53q.32 .0 .61 -.05q.29 -.06 .57 -.14v.54q-.27 .1 -.57 .15q-.29 .05 -.7 .05q-.74 .0 -1.25 -.31q-.5 -.31 -.75 -.88q-.25 -.57 -.25 -1.34q.0 -.74 .27 -1.31q.27 -.57 .8 -.88q.53 -.32 1.28 -.32q.78 .0 1.35 .29l-.24 .52q-.23 -.1 -.51 -.18q-.27 -.08 -.61 -.08zM5.66 27.72h-.6v-5.21h.6v5.21z" fill="#1FF01F" id="mol1atm20" stroke="none"/>
                
            <line class="hi" id="mol1bnd6" stroke="#C6C62C" x1="51.25" x2="45.405" y1="74.3" y2="72.42"/>
            <line class="hi" id="mol1bnd7" stroke="#C6C62C" x1="56.36" x2="59.695" y1="72.1" y2="67.50999999999999"/>
            <line class="hi" id="mol1bnd8" stroke="#3050F8" x1="30.71" x2="35.135000000000005" y1="77.65" y2="74.095"/>
            <line class="hi" id="mol1bnd9" stroke="#3050F8" x1="24.37" x2="18.605" y1="79.32" y2="77.97999999999999"/>
            <line class="hi" id="mol1bnd12" stroke="#3050F8" x1="11.05" x2="8.645" y1="52.91" y2="57.915"/>
            <line class="hi" id="mol1bnd22" stroke="#1FF01F" x1="7.0" x2="13.45" y1="24.6" y2="22.575000000000003"/>
            <line class="hi" id="mol1bnd23" stroke="#3050F8" x1="28.54" x2="29.799999999999997" y1="83.9" y2="89.42500000000001"/>
        </g>
          
    </g>
    
</svg>
