<svg xmlns="http://www.w3.org/2000/svg" xmlns:xlink="http://www.w3.org/1999/xlink" height="115.84mm" version="1.2" viewBox="0 0 82.01 115.84" width="82.01mm">
      
    <desc>Generated by the Chemistry Development Kit (http://github.com/cdk)</desc>
      
    <g fill="#000000" stroke="#000000" stroke-linecap="round" stroke-linejoin="round" stroke-width=".7">
            
        <rect fill="#FFFFFF" height="116.0" stroke="none" width="83.0" x=".0" y=".0"/>
            
        <g class="mol" id="mol1">
                  
            <line class="bond" id="mol1bnd1" x1="52.66" x2="52.69" y1="114.93" y2="98.66"/>
                  
            <path class="bond" d="M70.04 91.4l-.15 -.68l-14.26 1.66l.38 1.72l.38 1.72z" id="mol1bnd2" stroke="none"/>
                  
            <line class="bond" id="mol1bnd3" x1="69.97" x2="60.42" y1="91.06" y2="103.04"/>
                  
            <line class="bond" id="mol1bnd4" x1="60.42" x2="45.18" y1="103.04" y2="103.04"/>
                  
            <line class="bond" id="mol1bnd5" x1="45.18" x2="35.73" y1="103.04" y2="91.06"/>
                  
            <path class="bond" d="M35.81 90.71l-.15 .68l13.35 4.4l.38 -1.72l.38 -1.72z" id="mol1bnd6" stroke="none"/>
                  
            <line class="bond" id="mol1bnd7" x1="35.73" x2="39.08" y1="91.06" y2="76.22"/>
                  
            <line class="bond" id="mol1bnd8" x1="39.08" x2="52.8" y1="76.22" y2="69.62"/>
                  
            <line class="bond" id="mol1bnd9" x1="52.8" x2="66.51" y1="69.62" y2="76.22"/>
                  
            <line class="bond" id="mol1bnd10" x1="69.97" x2="66.51" y1="91.06" y2="76.22"/>
                  
            <path class="bond" d="M52.45 69.62h.7l1.3 -11.32h-1.65h-1.65z" id="mol1bnd11" stroke="none"/>
                  
            <line class="bond" id="mol1bnd12" x1="56.08" x2="66.0" y1="52.49" y2="46.76"/>
                  
            <g class="bond" id="mol1bnd13">
                        
                <line x1="66.0" x2="76.52" y1="45.35" y2="51.43"/>
                        
                <line x1="64.78" x2="75.3" y1="47.46" y2="53.54"/>
                      
                <line class="hi" stroke="#FF0D0D" x1="76.52" x2="71.25999999999999" y1="51.43" y2="48.39"/>
                <line class="hi" stroke="#FF0D0D" x1="75.3" x2="70.03999999999999" y1="53.54" y2="50.5"/>
            </g>
                  
            <line class="bond" id="mol1bnd14" x1="66.0" x2="66.0" y1="46.76" y2="31.52"/>
                  
            <g class="bond" id="mol1bnd15">
                        
                <line x1="52.79" x2="66.0" y1="23.9" y2="31.52"/>
                        
                <line x1="55.23" x2="66.0" y1="22.49" y2="28.7"/>
                      
            </g>
                  
            <line class="bond" id="mol1bnd16" x1="52.79" x2="52.79" y1="23.9" y2="8.66"/>
                  
            <g class="bond" id="mol1bnd17">
                        
                <line x1="66.0" x2="52.79" y1="1.04" y2="8.66"/>
                        
                <line x1="66.0" x2="55.23" y1="3.85" y2="10.07"/>
                      
            </g>
                  
            <line class="bond" id="mol1bnd18" x1="66.0" x2="79.2" y1="1.04" y2="8.66"/>
                  
            <g class="bond" id="mol1bnd19">
                        
                <line x1="79.2" x2="79.2" y1="23.9" y2="8.66"/>
                        
                <line x1="76.77" x2="76.77" y1="22.49" y2="10.07"/>
                      
            </g>
                  
            <line class="bond" id="mol1bnd20" x1="66.0" x2="79.2" y1="31.52" y2="23.9"/>
                  
            <path class="bond" d="M38.86 76.5l.44 -.55l-11.76 -11.78l-.38 2.57l-2.42 .95z" id="mol1bnd21" stroke="none"/>
                  
            <g class="bond" id="mol1bnd22">
                        
                <line x1="27.16" x2="28.83" y1="66.73" y2="55.57"/>
                        
                <line x1="24.95" x2="26.42" y1="64.98" y2="55.21"/>
                      
                <line class="hi" stroke="#FF0D0D" x1="28.83" x2="27.994999999999997" y1="55.57" y2="61.150000000000006"/>
                <line class="hi" stroke="#FF0D0D" x1="26.42" x2="25.685000000000002" y1="55.21" y2="60.095"/>
            </g>
                  
            <line class="bond" id="mol1bnd23" x1="27.16" x2="16.49" y1="66.73" y2="70.93"/>
                  
            <line class="bond" id="mol1bnd24" x1="9.96" x2="1.05" y1="69.91" y2="62.82"/>
                  
            <path class="atom" d="M54.64 97.26h-.72l-2.62 -4.07h-.03q.01 .24 .03 .6q.02 .36 .02 .73v2.74h-.57v-4.9h.71l2.61 4.05h.03q-.01 -.11 -.02 -.33q-.01 -.22 -.02 -.48q-.01 -.26 -.01 -.48v-2.77h.58v4.9z" fill="#3050F8" id="mol1atm2" stroke="none"/>
                  
            <path class="atom" d="M55.06 54.38q.0 .76 -.26 1.33q-.26 .57 -.76 .88q-.5 .32 -1.24 .32q-.76 .0 -1.26 -.32q-.51 -.32 -.76 -.89q-.24 -.57 -.24 -1.33q.0 -.75 .24 -1.31q.25 -.57 .76 -.88q.51 -.32 1.27 -.32q.73 .0 1.23 .32q.5 .31 .76 .88q.26 .57 .26 1.33zM51.19 54.38q.0 .92 .39 1.46q.39 .53 1.22 .53q.84 .0 1.22 -.53q.39 -.54 .39 -1.46q.0 -.93 -.39 -1.45q-.38 -.52 -1.21 -.52q-.83 .0 -1.23 .52q-.39 .52 -.39 1.45z" fill="#FF0D0D" id="mol1atm10" stroke="none"/>
                  
            <path class="atom" d="M81.45 54.38q.0 .76 -.26 1.33q-.26 .57 -.76 .88q-.5 .32 -1.24 .32q-.76 .0 -1.26 -.32q-.51 -.32 -.76 -.89q-.24 -.57 -.24 -1.33q.0 -.75 .24 -1.31q.25 -.57 .76 -.88q.51 -.32 1.27 -.32q.73 .0 1.23 .32q.5 .31 .76 .88q.26 .57 .26 1.33zM77.59 54.38q.0 .92 .39 1.46q.39 .53 1.22 .53q.84 .0 1.22 -.53q.39 -.54 .39 -1.46q.0 -.93 -.39 -1.45q-.38 -.52 -1.21 -.52q-.83 .0 -1.23 .52q-.39 .52 -.39 1.45z" fill="#FF0D0D" id="mol1atm12" stroke="none"/>
                  
            <path class="atom" d="M30.47 51.48q.0 .76 -.26 1.33q-.26 .57 -.76 .88q-.5 .32 -1.24 .32q-.76 .0 -1.26 -.32q-.51 -.32 -.76 -.89q-.24 -.57 -.24 -1.33q.0 -.75 .24 -1.31q.25 -.57 .76 -.88q.51 -.32 1.27 -.32q.73 .0 1.23 .32q.5 .31 .76 .88q.26 .57 .26 1.33zM26.6 51.48q.0 .92 .39 1.46q.39 .53 1.22 .53q.84 .0 1.22 -.53q.39 -.54 .39 -1.46q.0 -.93 -.39 -1.45q-.38 -.52 -1.21 -.52q-.83 .0 -1.23 .52q-.39 .52 -.39 1.45z" fill="#FF0D0D" id="mol1atm20" stroke="none"/>
                  
            <path class="atom" d="M15.24 72.31q.0 .76 -.26 1.33q-.26 .57 -.76 .88q-.5 .32 -1.24 .32q-.76 .0 -1.26 -.32q-.51 -.32 -.76 -.89q-.24 -.57 -.24 -1.33q.0 -.75 .24 -1.31q.25 -.57 .76 -.88q.51 -.32 1.27 -.32q.73 .0 1.23 .32q.5 .31 .76 .88q.26 .57 .26 1.33zM11.37 72.31q.0 .92 .39 1.46q.39 .53 1.22 .53q.84 .0 1.22 -.53q.39 -.54 .39 -1.46q.0 -.93 -.39 -1.45q-.38 -.52 -1.21 -.52q-.83 .0 -1.23 .52q-.39 .52 -.39 1.45z" fill="#FF0D0D" id="mol1atm21" stroke="none"/>
                
            <line class="hi" id="mol1bnd1" stroke="#3050F8" x1="52.69" x2="52.675" y1="98.66" y2="106.795"/>
            <line class="hi" id="mol1bnd4" stroke="#3050F8" x1="54.64" x2="52.8" y1="103.04" y2="103.04"/>
            <line class="hi" id="mol1bnd12" stroke="#FF0D0D" x1="56.08" x2="61.04" y1="52.49" y2="49.625"/>
            <line class="hi" id="mol1bnd23" stroke="#FF0D0D" x1="16.49" x2="21.825" y1="70.93" y2="68.83000000000001"/>
            <line class="hi" id="mol1bnd24" stroke="#FF0D0D" x1="9.96" x2="5.505000000000001" y1="69.91" y2="66.365"/>
        </g>
          
    </g>
    
</svg>
