<svg xmlns="http://www.w3.org/2000/svg" xmlns:xlink="http://www.w3.org/1999/xlink" height="107.51mm" version="1.2" viewBox="0 0 104.74 107.51" width="104.74mm">
      
    <desc>Generated by the Chemistry Development Kit (http://github.com/cdk)</desc>
      
    <g fill="#3050F8" stroke="#000000" stroke-linecap="round" stroke-linejoin="round" stroke-width=".7">
            
        <rect fill="#FFFFFF" height="108.0" stroke="none" width="105.0" x=".0" y=".0"/>
            
        <g class="mol" id="mol1">
                  
            <line class="bond" id="mol1bnd1" x1="84.43" x2="79.65" y1="62.6" y2="77.06"/>
                  
            <g class="bond" id="mol1bnd2">
                        
                <line x1="88.59" x2="79.65" y1="89.46" y2="77.06"/>
                        
                <line x1="85.57" x2="78.7" y1="89.45" y2="79.92"/>
                      
            </g>
                  
            <line class="bond" id="mol1bnd3" x1="88.59" x2="81.98" y1="89.46" y2="98.47"/>
                  
            <line class="bond" id="mol1bnd4" x1="76.06" x2="65.22" y1="100.49" y2="96.98"/>
                  
            <g class="bond" id="mol1bnd5">
                        
                <line x1="55.07" x2="65.22" y1="102.71" y2="96.98"/>
                        
                <line x1="53.87" x2="62.78" y1="100.59" y2="95.55"/>
                      
                <line class="hi" stroke="#3050F8" x1="55.07" x2="60.144999999999996" y1="102.71" y2="99.845"/>
                <line class="hi" stroke="#3050F8" x1="53.87" x2="58.325" y1="100.59" y2="98.07"/>
            </g>
                  
            <line class="bond" id="mol1bnd6" x1="48.76" x2="38.91" y1="102.67" y2="96.98"/>
                  
            <g class="bond" id="mol1bnd7">
                        
                <line x1="38.8" x2="38.91" y1="81.74" y2="96.98"/>
                        
                <line x1="41.25" x2="41.34" y1="83.14" y2="95.57"/>
                      
            </g>
                  
            <line class="bond" id="mol1bnd8" x1="38.8" x2="25.7" y1="81.74" y2="74.12"/>
                  
            <line class="bond" id="mol1bnd9" x1="25.7" x2="12.49" y1="74.12" y2="81.84"/>
                  
            <line class="bond" id="mol1bnd10" x1="12.49" x2="12.59" y1="81.84" y2="97.08"/>
                  
            <line class="bond" id="mol1bnd11" x1="12.59" x2="25.8" y1="97.08" y2="104.6"/>
                  
            <line class="bond" id="mol1bnd12" x1="38.91" x2="25.8" y1="96.98" y2="104.6"/>
                  
            <line class="bond" id="mol1bnd13" x1="38.8" x2="51.91" y1="81.74" y2="74.12"/>
                  
            <g class="bond" id="mol1bnd14">
                        
                <line x1="65.22" x2="51.91" y1="81.64" y2="74.12"/>
                        
                <line x1="62.78" x2="51.93" y1="83.06" y2="76.93"/>
                      
            </g>
                  
            <line class="bond" id="mol1bnd15" x1="79.65" x2="65.22" y1="77.06" y2="81.64"/>
                  
            <line class="bond" id="mol1bnd16" x1="65.22" x2="65.22" y1="96.98" y2="81.64"/>
                  
            <line class="bond" id="mol1bnd17" x1="51.91" x2="51.84" y1="74.12" y2="62.73"/>
                  
            <line class="bond" id="mol1bnd18" x1="48.66" x2="38.57" y1="57.08" y2="51.34"/>
                  
            <g class="bond" id="mol1bnd19">
                        
                <line x1="39.79" x2="29.3" y1="52.04" y2="58.18"/>
                        
                <line x1="38.56" x2="28.07" y1="49.93" y2="56.08"/>
                      
                <line class="hi" stroke="#FF0D0D" x1="29.3" x2="34.545" y1="58.18" y2="55.11"/>
                <line class="hi" stroke="#FF0D0D" x1="28.07" x2="33.315" y1="56.08" y2="53.004999999999995"/>
            </g>
                  
            <line class="bond" id="mol1bnd20" x1="38.57" x2="38.48" y1="51.34" y2="36.1"/>
                  
            <line class="bond" id="mol1bnd21" x1="38.48" x2="28.39" y1="36.1" y2="30.36"/>
                  
            <line class="bond" id="mol1bnd22" x1="22.02" x2="11.39" y1="30.02" y2="34.85"/>
                  
            <line class="bond" id="mol1bnd23" x1="11.39" x2="1.05" y1="34.85" y2="23.62"/>
                  
            <line class="bond" id="mol1bnd24" x1="1.05" x2="8.57" y1="23.62" y2="10.36"/>
                  
            <line class="bond" id="mol1bnd25" x1="8.57" x2="23.56" y1="10.36" y2="13.37"/>
                  
            <line class="bond" id="mol1bnd26" x1="24.81" x2="23.56" y1="24.72" y2="13.37"/>
                  
            <g class="bond" id="mol1bnd27">
                        
                <line x1="22.08" x2="31.1" y1="13.07" y2="4.82"/>
                        
                <line x1="23.73" x2="32.74" y1="14.87" y2="6.62"/>
                      
                <line class="hi" stroke="#FF0D0D" x1="31.1" x2="26.59" y1="4.82" y2="8.945"/>
                <line class="hi" stroke="#FF0D0D" x1="32.74" x2="28.235" y1="6.619999999999999" y2="10.745"/>
            </g>
                  
            <line class="bond" id="mol1bnd28" x1="88.59" x2="103.83" y1="89.46" y2="89.52"/>
                  
            <path class="atom" d="M81.91 101.65q.0 .76 -.26 1.33q-.26 .57 -.76 .88q-.5 .32 -1.24 .32q-.76 .0 -1.26 -.32q-.51 -.32 -.76 -.89q-.24 -.57 -.24 -1.33q.0 -.75 .24 -1.31q.25 -.57 .76 -.88q.51 -.32 1.27 -.32q.73 .0 1.23 .32q.5 .31 .76 .88q.26 .57 .26 1.33zM78.04 101.65q.0 .92 .39 1.46q.39 .53 1.22 .53q.84 .0 1.22 -.53q.39 -.54 .39 -1.46q.0 -.93 -.39 -1.45q-.38 -.52 -1.21 -.52q-.83 .0 -1.23 .52q-.39 .52 -.39 1.45z" fill="#FF0D0D" id="mol1atm4" stroke="none"/>
                  
            <path class="atom" d="M53.85 106.95h-.72l-2.62 -4.07h-.03q.01 .24 .03 .6q.02 .36 .02 .73v2.74h-.57v-4.9h.71l2.61 4.05h.03q-.01 -.11 -.02 -.33q-.01 -.22 -.02 -.48q-.01 -.26 -.01 -.48v-2.77h.58v4.9z" id="mol1atm6" stroke="none"/>
                  
            <g class="atom" id="mol1atm15">
                        
                <path d="M53.76 61.33h-.72l-2.62 -4.07h-.03q.01 .24 .03 .6q.02 .36 .02 .73v2.74h-.57v-4.9h.71l2.61 4.05h.03q-.01 -.11 -.02 -.33q-.01 -.22 -.02 -.48q-.01 -.26 -.01 -.48v-2.77h.58v4.9z" stroke="none"/>
                        
                <path d="M58.06 61.33h-.62v-2.29h-2.51v2.29h-.61v-4.9h.61v2.07h2.51v-2.07h.62v4.9z" stroke="none"/>
                      
            </g>
                  
            <path class="atom" d="M27.68 59.04q.0 .76 -.26 1.33q-.26 .57 -.76 .88q-.5 .32 -1.24 .32q-.76 .0 -1.26 -.32q-.51 -.32 -.76 -.89q-.24 -.57 -.24 -1.33q.0 -.75 .24 -1.31q.25 -.57 .76 -.88q.51 -.32 1.27 -.32q.73 .0 1.23 .32q.5 .31 .76 .88q.26 .57 .26 1.33zM23.82 59.04q.0 .92 .39 1.46q.39 .53 1.22 .53q.84 .0 1.22 -.53q.39 -.54 .39 -1.46q.0 -.93 -.39 -1.45q-.38 -.52 -1.21 -.52q-.83 .0 -1.23 .52q-.39 .52 -.39 1.45z" fill="#FF0D0D" id="mol1atm17" stroke="none"/>
                  
            <path class="atom" d="M27.17 31.01h-.72l-2.62 -4.07h-.03q.01 .24 .03 .6q.02 .36 .02 .73v2.74h-.57v-4.9h.71l2.61 4.05h.03q-.01 -.11 -.02 -.33q-.01 -.22 -.02 -.48q-.01 -.26 -.01 -.48v-2.77h.58v4.9z" id="mol1atm19" stroke="none"/>
                  
            <path class="atom" d="M37.06 3.08q.0 .76 -.26 1.33q-.26 .57 -.76 .88q-.5 .32 -1.24 .32q-.76 .0 -1.26 -.32q-.51 -.32 -.76 -.89q-.24 -.57 -.24 -1.33q.0 -.75 .24 -1.31q.25 -.57 .76 -.88q.51 -.32 1.27 -.32q.73 .0 1.23 .32q.5 .31 .76 .88q.26 .57 .26 1.33zM33.2 3.08q.0 .92 .39 1.46q.39 .53 1.22 .53q.84 .0 1.22 -.53q.39 -.54 .39 -1.46q.0 -.93 -.39 -1.45q-.38 -.52 -1.21 -.52q-.83 .0 -1.23 .52q-.39 .52 -.39 1.45z" fill="#FF0D0D" id="mol1atm24" stroke="none"/>
                
            <line class="hi" id="mol1bnd3" stroke="#FF0D0D" x1="81.98" x2="85.285" y1="98.47" y2="93.965"/>
            <line class="hi" id="mol1bnd4" stroke="#FF0D0D" x1="76.06" x2="70.64" y1="100.49" y2="98.735"/>
            <line class="hi" id="mol1bnd6" stroke="#3050F8" x1="48.76" x2="43.834999999999994" y1="102.67" y2="99.825"/>
            <line class="hi" id="mol1bnd17" stroke="#3050F8" x1="51.84" x2="51.875" y1="62.73" y2="68.425"/>
            <line class="hi" id="mol1bnd17" stroke="#3050F8" x1="51.84" x2="51.875" y1="62.73" y2="68.425"/>
            <line class="hi" id="mol1bnd18" stroke="#3050F8" x1="48.66" x2="43.614999999999995" y1="57.08" y2="54.21"/>
            <line class="hi" id="mol1bnd21" stroke="#3050F8" x1="28.39" x2="33.435" y1="30.36" y2="33.230000000000004"/>
            <line class="hi" id="mol1bnd22" stroke="#3050F8" x1="22.02" x2="16.705" y1="30.02" y2="32.435"/>
            <line class="hi" id="mol1bnd26" stroke="#3050F8" x1="24.81" x2="24.185" y1="24.72" y2="19.044999999999998"/>
        </g>
          
    </g>
    
</svg>
