<svg xmlns="http://www.w3.org/2000/svg" xmlns:xlink="http://www.w3.org/1999/xlink" height="61.58mm" version="1.2" viewBox="0 0 111.26 61.58" width="111.26mm">
      
    <desc>Generated by the Chemistry Development Kit (http://github.com/cdk)</desc>
      
    <g fill="#3050F8" stroke="#000000" stroke-linecap="round" stroke-linejoin="round" stroke-width=".7">
            
        <rect fill="#FFFFFF" height="62.0" stroke="none" width="112.0" x=".0" y=".0"/>
            
        <g class="mol" id="mol1">
                  
            <line class="bond" id="mol1bnd1" x1="110.3" x2="107.65" y1="13.03" y2="28.03"/>
                  
            <path class="bond" d="M93.22 32.91l.24 .66l14.18 -3.44l.39 -2.24l.45 -2.56z" fill="#000000" id="mol1bnd2" stroke="none"/>
                  
            <line class="bond" id="mol1bnd3" x1="93.34" x2="93.34" y1="33.24" y2="48.47"/>
                  
            <g class="bond" id="mol1bnd4">
                        
                <line x1="80.14" x2="80.14" y1="55.74" y2="56.44"/>
                        
                <line x1="82.03" x2="82.03" y1="54.4" y2="55.6"/>
                        
                <line x1="83.91" x2="83.91" y1="53.06" y2="54.76"/>
                        
                <line x1="85.8" x2="85.8" y1="51.73" y2="53.93"/>
                        
                <line x1="87.68" x2="87.68" y1="50.39" y2="53.09"/>
                        
                <line x1="89.57" x2="89.57" y1="49.05" y2="52.25"/>
                        
                <line x1="91.46" x2="91.46" y1="47.71" y2="51.41"/>
                        
                <line x1="93.34" x2="93.34" y1="46.37" y2="50.57"/>
                      
            </g>
                  
            <line class="bond" id="mol1bnd5" x1="80.14" x2="66.94" y1="56.09" y2="48.47"/>
                  
            <line class="bond" id="mol1bnd6" x1="66.94" x2="66.94" y1="48.47" y2="33.24"/>
                  
            <line class="bond" id="mol1bnd7" x1="66.94" x2="80.14" y1="33.24" y2="25.63"/>
                  
            <line class="bond" id="mol1bnd8" x1="93.34" x2="80.14" y1="33.24" y2="25.63"/>
                  
            <path class="bond" d="M79.85 25.44l.59 .38l6.34 -7.7l-1.32 -.84l-1.32 -.84z" fill="#000000" id="mol1bnd9" stroke="none"/>
                  
            <line class="bond" id="mol1bnd10" x1="87.76" x2="87.76" y1="17.5" y2="42.89"/>
                  
            <line class="bond" id="mol1bnd11" x1="80.14" x2="87.76" y1="56.09" y2="42.89"/>
                  
            <line class="bond" id="mol1bnd12" x1="84.9" x2="76.79" y1="10.36" y2="1.05"/>
                  
            <line class="bond" id="mol1bnd13" x1="76.79" x2="61.56" y1="1.05" y2="1.05"/>
                  
            <line class="bond" id="mol1bnd14" x1="61.56" x2="53.84" y1="1.05" y2="10.4"/>
                  
            <g class="bond" id="mol1bnd15">
                        
                <line x1="53.84" x2="53.84" y1="25.63" y2="10.4"/>
                        
                <line x1="51.4" x2="51.4" y1="24.22" y2="12.83"/>
                      
            </g>
                  
            <line class="bond" id="mol1bnd16" x1="66.94" x2="53.84" y1="33.24" y2="25.63"/>
                  
            <line class="bond" id="mol1bnd17" x1="53.84" x2="43.79" y1="25.63" y2="31.42"/>
                  
            <line class="bond" id="mol1bnd18" x1="37.49" x2="27.44" y1="31.42" y2="25.63"/>
                  
            <g class="bond" id="mol1bnd19">
                        
                <line x1="14.24" x2="27.44" y1="33.24" y2="25.63"/>
                        
                <line x1="14.24" x2="25.0" y1="30.43" y2="24.22"/>
                      
            </g>
                  
            <line class="bond" id="mol1bnd20" x1="14.24" x2="1.04" y1="33.24" y2="25.63"/>
                  
            <g class="bond" id="mol1bnd21">
                        
                <line x1="1.04" x2="1.04" y1="10.4" y2="25.63"/>
                        
                <line x1="3.48" x2="3.48" y1="11.8" y2="24.22"/>
                      
            </g>
                  
            <line class="bond" id="mol1bnd22" x1="1.04" x2="14.24" y1="10.4" y2="2.78"/>
                  
            <g class="bond" id="mol1bnd23">
                        
                <line x1="27.44" x2="14.24" y1="10.4" y2="2.78"/>
                        
                <line x1="25.0" x2="14.24" y1="11.8" y2="5.6"/>
                      
            </g>
                  
            <line class="bond" id="mol1bnd24" x1="53.84" x2="27.44" y1="10.4" y2="10.4"/>
                  
            <line class="bond" id="mol1bnd25" x1="27.44" x2="27.44" y1="25.63" y2="10.4"/>
                  
            <g class="bond" id="mol1bnd26">
                        
                <line stroke="#000000" x1="67.11" x2="66.77" y1="33.55" y2="32.94"/>
                        
                <line stroke="#3050F8" x1="65.28" x2="64.73" y1="34.83" y2="33.89"/>
                        
                <line stroke="#3050F8" x1="63.44" x2="62.7" y1="36.11" y2="34.83"/>
                        
                <line stroke="#3050F8" x1="61.6" x2="60.67" y1="37.39" y2="35.78"/>
                        
                <line stroke="#3050F8" x1="59.76" x2="58.63" y1="38.68" y2="36.72"/>
                        
                <line stroke="#3050F8" x1="57.92" x2="56.6" y1="39.96" y2="37.67"/>
                        
                <line stroke="#3050F8" x1="56.08" x2="54.57" y1="41.24" y2="38.61"/>
                        
                <line stroke="#3050F8" x1="54.24" x2="52.53" y1="42.52" y2="39.56"/>
                        
                <line stroke="#3050F8" x1="52.4" x2="50.5" y1="43.81" y2="40.5"/>
                        
                <line stroke="#3050F8" x1="50.56" x2="48.47" y1="45.09" y2="41.45"/>
                      
            </g>
                  
            <g class="bond" id="mol1bnd27">
                        
                <line x1="49.51" x2="49.5" y1="43.27" y2="54.58"/>
                        
                <line x1="47.07" x2="47.06" y1="44.67" y2="54.58"/>
                      
                <line class="hi" stroke="#3050F8" x1="49.51" x2="49.504999999999995" y1="43.27" y2="48.925"/>
                <line class="hi" stroke="#FF0D0D" x1="49.5" x2="49.504999999999995" y1="54.58" y2="48.925"/>
                <line class="hi" stroke="#3050F8" x1="47.07" x2="47.065" y1="44.67" y2="49.625"/>
                <line class="hi" stroke="#FF0D0D" x1="47.06" x2="47.065" y1="54.58" y2="49.625"/>
            </g>
                  
            <line class="bond" id="mol1bnd28" x1="49.51" x2="39.61" y1="43.27" y2="37.53"/>
                  
            <line class="bond" id="mol1bnd29" x1="33.05" x2="23.13" y1="37.52" y2="43.23"/>
                  
            <path class="atom" d="M89.7 16.09h-.72l-2.62 -4.07h-.03q.01 .24 .03 .6q.02 .36 .02 .73v2.74h-.57v-4.9h.71l2.61 4.05h.03q-.01 -.11 -.02 -.33q-.01 -.22 -.02 -.48q-.01 -.26 -.01 -.48v-2.77h.58v4.9z" id="mol1atm9" stroke="none"/>
                  
            <g class="atom" id="mol1atm15">
                        
                <path d="M42.58 35.69h-.72l-2.62 -4.07h-.03q.01 .24 .03 .6q.02 .36 .02 .73v2.74h-.57v-4.9h.71l2.61 4.05h.03q-.01 -.11 -.02 -.33q-.01 -.22 -.02 -.48q-.01 -.26 -.01 -.48v-2.77h.58v4.9z" stroke="none"/>
                        
                <path d="M42.44 41.15h-.62v-2.29h-2.51v2.29h-.61v-4.9h.61v2.07h2.51v-2.07h.62v4.9z" stroke="none"/>
                      
            </g>
                  
            <path class="atom" d="M50.53 58.5q.0 .76 -.26 1.33q-.26 .57 -.76 .88q-.5 .32 -1.24 .32q-.76 .0 -1.26 -.32q-.51 -.32 -.76 -.89q-.24 -.57 -.24 -1.33q.0 -.75 .24 -1.31q.25 -.57 .76 -.88q.51 -.32 1.27 -.32q.73 .0 1.23 .32q.5 .31 .76 .88q.26 .57 .26 1.33zM46.67 58.5q.0 .92 .39 1.46q.39 .53 1.22 .53q.84 .0 1.22 -.53q.39 -.54 .39 -1.46q.0 -.93 -.39 -1.45q-.38 -.52 -1.21 -.52q-.83 .0 -1.23 .52q-.39 .52 -.39 1.45z" fill="#FF0D0D" id="mol1atm23" stroke="none"/>
                  
            <path class="atom" d="M38.59 35.63q.0 .76 -.26 1.33q-.26 .57 -.76 .88q-.5 .32 -1.24 .32q-.76 .0 -1.26 -.32q-.51 -.32 -.76 -.89q-.24 -.57 -.24 -1.33q.0 -.75 .24 -1.31q.25 -.57 .76 -.88q.51 -.32 1.27 -.32q.73 .0 1.23 .32q.5 .31 .76 .88q.26 .57 .26 1.33zM34.73 35.63q.0 .92 .39 1.46q.39 .53 1.22 .53q.84 .0 1.22 -.53q.39 -.54 .39 -1.46q.0 -.93 -.39 -1.45q-.38 -.52 -1.21 -.52q-.83 .0 -1.23 .52q-.39 .52 -.39 1.45z" fill="#FF0D0D" id="mol1atm24" stroke="none"/>
                
            <line class="hi" id="mol1bnd10" stroke="#3050F8" x1="87.76" x2="87.76" y1="17.5" y2="30.195"/>
            <line class="hi" id="mol1bnd12" stroke="#3050F8" x1="84.9" x2="80.845" y1="10.36" y2="5.705"/>
            <line class="hi" id="mol1bnd17" stroke="#3050F8" x1="43.79" x2="48.815" y1="31.42" y2="28.525"/>
            <line class="hi" id="mol1bnd17" stroke="#FF0D0D" x1="43.79" x2="48.815" y1="31.42" y2="28.525"/>
            <line class="hi" id="mol1bnd18" stroke="#3050F8" x1="37.49" x2="32.465" y1="31.42" y2="28.525"/>
            <line class="hi" id="mol1bnd18" stroke="#FF0D0D" x1="37.49" x2="32.465" y1="31.42" y2="28.525"/>
            <line class="hi" id="mol1bnd28" stroke="#3050F8" x1="41.034353073055705" x2="44.56" y1="38.355837034276746" y2="40.400000000000006"/>
            <line class="hi" id="mol1bnd28" stroke="#3050F8" x1="43.298815463936414" x2="44.56" y1="39.668767753837884" y2="40.400000000000006"/>
            <line class="hi" id="mol1bnd28" stroke="#FF0D0D" x1="39.61" x2="44.56" y1="37.53" y2="40.400000000000006"/>
            <line class="hi" id="mol1bnd29" stroke="#FF0D0D" x1="33.05" x2="28.089999999999996" y1="37.52" y2="40.375"/>
        </g>
          
    </g>
    
</svg>
