<svg xmlns="http://www.w3.org/2000/svg" xmlns:xlink="http://www.w3.org/1999/xlink" height="101.14mm" version="1.2" viewBox="0 0 158.1 101.14" width="158.1mm">
      
    <desc>Generated by the Chemistry Development Kit (http://github.com/cdk)</desc>
      
    <g fill="#3050F8" stroke="#000000" stroke-linecap="round" stroke-linejoin="round" stroke-width=".7">
            
        <rect fill="#FFFFFF" height="102.0" stroke="none" width="159.0" x=".0" y=".0"/>
            
        <g class="mol" id="mol1">
                  
            <line class="bond" id="mol1bnd1" x1="149.69" x2="157.05" y1="72.74" y2="59.44"/>
                  
            <line class="bond" id="mol1bnd2" x1="157.05" x2="146.86" y1="59.44" y2="48.24"/>
                  
            <line class="bond" id="mol1bnd3" x1="146.86" x2="133.03" y1="48.24" y2="54.39"/>
                  
            <line class="bond" id="mol1bnd4" x1="133.03" x2="134.63" y1="54.39" y2="69.53"/>
                  
            <line class="bond" id="mol1bnd5" x1="149.69" x2="134.63" y1="72.74" y2="69.53"/>
                  
            <line class="bond" id="mol1bnd6" x1="133.03" x2="119.83" y1="54.39" y2="46.77"/>
                  
            <g class="bond" id="mol1bnd7">
                        
                <line x1="118.61" x2="118.61" y1="47.47" y2="35.45"/>
                        
                <line x1="121.05" x2="121.05" y1="47.47" y2="35.45"/>
                      
                <line class="hi" stroke="#FF0D0D" x1="118.61" x2="118.61" y1="35.45" y2="41.46"/>
                <line class="hi" stroke="#FF0D0D" x1="121.05" x2="121.05" y1="35.45" y2="41.46"/>
            </g>
                  
            <line class="bond" id="mol1bnd8" x1="119.83" x2="109.78" y1="46.77" y2="52.57"/>
                  
            <line class="bond" id="mol1bnd9" x1="103.48" x2="93.43" y1="52.57" y2="46.77"/>
                  
            <line class="bond" id="mol1bnd10" x1="93.43" x2="93.44" y1="46.77" y2="31.52"/>
                  
            <line class="bond" id="mol1bnd11" x1="93.44" x2="80.24" y1="31.52" y2="23.9"/>
                  
            <line class="bond" id="mol1bnd12" x1="80.24" x2="70.19" y1="23.9" y2="29.7"/>
                  
            <line class="bond" id="mol1bnd13" x1="67.03" x2="67.03" y1="35.38" y2="46.78"/>
                  
            <line class="bond" id="mol1bnd14" x1="67.03" x2="80.23" y1="46.78" y2="54.4"/>
                  
            <line class="bond" id="mol1bnd15" x1="93.43" x2="80.23" y1="46.77" y2="54.4"/>
                  
            <line class="bond" id="mol1bnd16" x1="63.88" x2="53.84" y1="29.71" y2="23.91"/>
                  
            <line class="bond" id="mol1bnd17" x1="53.84" x2="40.64" y1="23.91" y2="31.53"/>
                  
            <line class="bond" id="mol1bnd18" x1="40.64" x2="27.44" y1="31.53" y2="23.91"/>
                  
            <g class="bond" id="mol1bnd19">
                        
                <line x1="14.24" x2="27.44" y1="31.54" y2="23.91"/>
                        
                <line x1="14.24" x2="25.0" y1="28.72" y2="22.5"/>
                      
            </g>
                  
            <line class="bond" id="mol1bnd20" x1="14.24" x2="1.04" y1="31.54" y2="23.92"/>
                  
            <g class="bond" id="mol1bnd21">
                        
                <line x1="1.04" x2="1.04" y1="8.67" y2="23.92"/>
                        
                <line x1="3.48" x2="3.48" y1="10.07" y2="22.51"/>
                      
            </g>
                  
            <line class="bond" id="mol1bnd22" x1="1.04" x2="14.25" y1="8.67" y2="1.04"/>
                  
            <g class="bond" id="mol1bnd23">
                        
                <line x1="27.44" x2="14.25" y1="8.66" y2="1.04"/>
                        
                <line x1="25.01" x2="14.25" y1="10.07" y2="3.85"/>
                      
            </g>
                  
            <line class="bond" id="mol1bnd24" x1="27.44" x2="27.44" y1="23.91" y2="8.66"/>
                  
            <line class="bond" id="mol1bnd25" x1="106.63" x2="106.63" y1="58.24" y2="69.63"/>
                  
            <g class="bond" id="mol1bnd26">
                        
                <line x1="106.63" x2="93.42" y1="69.63" y2="77.25"/>
                        
                <line x1="106.63" x2="95.86" y1="72.44" y2="78.66"/>
                      
            </g>
                  
            <line class="bond" id="mol1bnd27" x1="93.42" x2="93.42" y1="77.25" y2="92.49"/>
                  
            <g class="bond" id="mol1bnd28">
                        
                <line x1="93.42" x2="106.63" y1="92.49" y2="100.11"/>
                        
                <line x1="95.86" x2="106.63" y1="91.08" y2="97.29"/>
                      
            </g>
                  
            <line class="bond" id="mol1bnd29" x1="106.63" x2="119.84" y1="100.11" y2="92.49"/>
                  
            <g class="bond" id="mol1bnd30">
                        
                <line x1="119.84" x2="119.84" y1="92.49" y2="77.25"/>
                        
                <line x1="117.4" x2="117.4" y1="91.08" y2="78.66"/>
                      
            </g>
                  
            <line class="bond" id="mol1bnd31" x1="106.63" x2="119.84" y1="69.63" y2="77.25"/>
                  
            <path class="atom" d="M122.09 31.52q.0 .76 -.26 1.33q-.26 .57 -.76 .88q-.5 .32 -1.24 .32q-.76 .0 -1.26 -.32q-.51 -.32 -.76 -.89q-.24 -.57 -.24 -1.33q.0 -.75 .24 -1.31q.25 -.57 .76 -.88q.51 -.32 1.27 -.32q.73 .0 1.23 .32q.5 .31 .76 .88q.26 .57 .26 1.33zM118.22 31.52q.0 .92 .39 1.46q.39 .53 1.22 .53q.84 .0 1.22 -.53q.39 -.54 .39 -1.46q.0 -.93 -.39 -1.45q-.38 -.52 -1.21 -.52q-.83 .0 -1.23 .52q-.39 .52 -.39 1.45z" fill="#FF0D0D" id="mol1atm7" stroke="none"/>
                  
            <path class="atom" d="M108.57 56.84h-.72l-2.62 -4.07h-.03q.01 .24 .03 .6q.02 .36 .02 .73v2.74h-.57v-4.9h.71l2.61 4.05h.03q-.01 -.11 -.02 -.33q-.01 -.22 -.02 -.48q-.01 -.26 -.01 -.48v-2.77h.58v4.9z" id="mol1atm8" stroke="none"/>
                  
            <path class="atom" d="M68.97 33.98h-.72l-2.62 -4.07h-.03q.01 .24 .03 .6q.02 .36 .02 .73v2.74h-.57v-4.9h.71l2.61 4.05h.03q-.01 -.11 -.02 -.33q-.01 -.22 -.02 -.48q-.01 -.26 -.01 -.48v-2.77h.58v4.9z" id="mol1atm12" stroke="none"/>
                
            <line class="hi" id="mol1bnd8" stroke="#3050F8" x1="109.78" x2="114.805" y1="52.57" y2="49.67"/>
            <line class="hi" id="mol1bnd9" stroke="#3050F8" x1="103.48" x2="98.45500000000001" y1="52.57" y2="49.67"/>
            <line class="hi" id="mol1bnd12" stroke="#3050F8" x1="70.19" x2="75.215" y1="29.7" y2="26.799999999999997"/>
            <line class="hi" id="mol1bnd13" stroke="#3050F8" x1="67.03" x2="67.03" y1="35.38" y2="41.08"/>
            <line class="hi" id="mol1bnd16" stroke="#3050F8" x1="63.88" x2="58.86" y1="29.71" y2="26.810000000000002"/>
            <line class="hi" id="mol1bnd25" stroke="#3050F8" x1="106.63" x2="106.63" y1="58.24" y2="63.935"/>
        </g>
          
    </g>
    
</svg>
