<svg xmlns="http://www.w3.org/2000/svg" xmlns:xlink="http://www.w3.org/1999/xlink" height="32.56mm" version="1.2" viewBox="0 0 122.67 32.56" width="122.67mm">
      
    <desc>Generated by the Chemistry Development Kit (http://github.com/cdk)</desc>
      
    <g fill="#3050F8" stroke="#000000" stroke-linecap="round" stroke-linejoin="round" stroke-width=".7">
            
        <rect fill="#FFFFFF" height="33.0" stroke="none" width="123.0" x=".0" y=".0"/>
            
        <g class="mol" id="mol1">
                  
            <line class="bond" id="mol1bnd1" x1="20.0" x2="33.19" y1="31.52" y2="23.9"/>
                  
            <line class="bond" id="mol1bnd2" x1="33.19" x2="33.19" y1="23.9" y2="12.51"/>
                  
            <line class="bond" id="mol1bnd3" x1="30.04" x2="20.0" y1="6.84" y2="1.04"/>
                  
            <line class="bond" id="mol1bnd4" x1="20.0" x2="6.8" y1="1.04" y2="8.65"/>
                  
            <line class="bond" id="mol1bnd5" x1="6.8" x2="6.81" y1="8.65" y2="20.04"/>
                  
            <line class="bond" id="mol1bnd6" x1="20.0" x2="9.96" y1="31.52" y2="25.71"/>
                  
            <line class="bond" id="mol1bnd7" x1="36.34" x2="46.38" y1="6.84" y2="1.05"/>
                  
            <line class="bond" id="mol1bnd8" x1="46.38" x2="59.57" y1="1.05" y2="8.67"/>
                  
            <g class="bond" id="mol1bnd9">
                        
                <line x1="72.77" x2="59.57" y1="1.05" y2="8.67"/>
                        
                <line x1="72.77" x2="62.01" y1="3.87" y2="10.08"/>
                      
            </g>
                  
            <line class="bond" id="mol1bnd10" x1="72.77" x2="85.97" y1="1.05" y2="8.67"/>
                  
            <g class="bond" id="mol1bnd11">
                        
                <line x1="85.97" x2="85.97" y1="23.9" y2="8.67"/>
                        
                <line x1="83.54" x2="83.54" y1="22.49" y2="10.08"/>
                      
            </g>
                  
            <line class="bond" id="mol1bnd12" x1="85.97" x2="72.77" y1="23.9" y2="31.52"/>
                  
            <g class="bond" id="mol1bnd13">
                        
                <line x1="59.57" x2="72.77" y1="23.9" y2="31.52"/>
                        
                <line x1="62.01" x2="72.77" y1="22.49" y2="28.7"/>
                      
            </g>
                  
            <line class="bond" id="mol1bnd14" x1="59.57" x2="59.57" y1="8.67" y2="23.9"/>
                  
            <line class="bond" id="mol1bnd15" x1="85.97" x2="96.9" y1="23.9" y2="27.42"/>
                  
            <line class="bond" id="mol1bnd16" x1="102.81" x2="109.43" y1="25.38" y2="16.28"/>
                  
            <line class="bond" id="mol1bnd17" x1="109.43" x2="102.81" y1="16.28" y2="7.18"/>
                  
            <line class="bond" id="mol1bnd18" x1="85.97" x2="96.9" y1="8.67" y2="5.15"/>
                  
            <line class="bond" id="mol1bnd19" x1="109.43" x2="118.34" y1="16.28" y2="24.31"/>
                  
            <line class="bond" id="mol1bnd20" x1="109.43" x2="118.34" y1="16.28" y2="8.26"/>
                  
            <path class="atom" d="M35.13 11.11h-.72l-2.62 -4.07h-.03q.01 .24 .03 .6q.02 .36 .02 .73v2.74h-.57v-4.9h.71l2.61 4.05h.03q-.01 -.11 -.02 -.33q-.01 -.22 -.02 -.48q-.01 -.26 -.01 -.48v-2.77h.58v4.9z" id="mol1atm3" stroke="none"/>
                  
            <g class="atom" id="mol1atm6">
                        
                <path d="M8.75 26.34h-.72l-2.62 -4.07h-.03q.01 .24 .03 .6q.02 .36 .02 .73v2.74h-.57v-4.9h.71l2.61 4.05h.03q-.01 -.11 -.02 -.33q-.01 -.22 -.02 -.48q-.01 -.26 -.01 -.48v-2.77h.58v4.9z" stroke="none"/>
                        
                <path d="M4.3 26.34h-.62v-2.29h-2.51v2.29h-.61v-4.9h.61v2.07h2.51v-2.07h.62v4.9z" stroke="none"/>
                      
            </g>
                  
            <path class="atom" d="M102.75 28.57q.0 .76 -.26 1.33q-.26 .57 -.76 .88q-.5 .32 -1.24 .32q-.76 .0 -1.26 -.32q-.51 -.32 -.76 -.89q-.24 -.57 -.24 -1.33q.0 -.75 .24 -1.31q.25 -.57 .76 -.88q.51 -.32 1.27 -.32q.73 .0 1.23 .32q.5 .31 .76 .88q.26 .57 .26 1.33zM98.89 28.57q.0 .92 .39 1.46q.39 .53 1.22 .53q.84 .0 1.22 -.53q.39 -.54 .39 -1.46q.0 -.93 -.39 -1.45q-.38 -.52 -1.21 -.52q-.83 .0 -1.23 .52q-.39 .52 -.39 1.45z" fill="#FF0D0D" id="mol1atm14" stroke="none"/>
                  
            <path class="atom" d="M102.75 3.99q.0 .76 -.26 1.33q-.26 .57 -.76 .88q-.5 .32 -1.24 .32q-.76 .0 -1.26 -.32q-.51 -.32 -.76 -.89q-.24 -.57 -.24 -1.33q.0 -.75 .24 -1.31q.25 -.57 .76 -.88q.51 -.32 1.27 -.32q.73 .0 1.23 .32q.5 .31 .76 .88q.26 .57 .26 1.33zM98.89 3.99q.0 .92 .39 1.46q.39 .53 1.22 .53q.84 .0 1.22 -.53q.39 -.54 .39 -1.46q.0 -.93 -.39 -1.45q-.38 -.52 -1.21 -.52q-.83 .0 -1.23 .52q-.39 .52 -.39 1.45z" fill="#FF0D0D" id="mol1atm16" stroke="none"/>
                  
            <path class="atom" d="M120.0 28.93h-.61v-4.9h2.73v.54h-2.12v1.74h1.99v.54h-1.99v2.08z" fill="#90E050" id="mol1atm17" stroke="none"/>
                  
            <path class="atom" d="M120.0 8.54h-.61v-4.9h2.73v.54h-2.12v1.74h1.99v.54h-1.99v2.08z" fill="#90E050" id="mol1atm18" stroke="none"/>
                
            <line class="hi" id="mol1bnd2" stroke="#3050F8" x1="33.19" x2="33.19" y1="12.51" y2="18.205"/>
            <line class="hi" id="mol1bnd3" stroke="#3050F8" x1="30.04" x2="25.02" y1="6.84" y2="3.94"/>
            <line class="hi" id="mol1bnd5" stroke="#3050F8" x1="6.81" x2="6.805" y1="20.04" y2="14.344999999999999"/>
            <line class="hi" id="mol1bnd5" stroke="#3050F8" x1="6.81" x2="6.805" y1="20.04" y2="14.344999999999999"/>
            <line class="hi" id="mol1bnd6" stroke="#3050F8" x1="9.96" x2="14.98" y1="25.71" y2="28.615000000000002"/>
            <line class="hi" id="mol1bnd6" stroke="#3050F8" x1="9.96" x2="14.98" y1="25.71" y2="28.615000000000002"/>
            <line class="hi" id="mol1bnd7" stroke="#3050F8" x1="36.34" x2="41.36" y1="6.84" y2="3.945"/>
            <line class="hi" id="mol1bnd15" stroke="#FF0D0D" x1="96.9" x2="91.435" y1="27.42" y2="25.66"/>
            <line class="hi" id="mol1bnd16" stroke="#FF0D0D" x1="102.81" x2="106.12" y1="25.38" y2="20.83"/>
            <line class="hi" id="mol1bnd17" stroke="#FF0D0D" x1="102.81" x2="106.12" y1="7.18" y2="11.73"/>
            <line class="hi" id="mol1bnd18" stroke="#FF0D0D" x1="96.9" x2="91.435" y1="5.15" y2="6.91"/>
            <line class="hi" id="mol1bnd19" stroke="#90E050" x1="118.34" x2="113.885" y1="24.31" y2="20.295"/>
            <line class="hi" id="mol1bnd20" stroke="#90E050" x1="118.34" x2="113.885" y1="8.26" y2="12.27"/>
        </g>
          
    </g>
    
</svg>
