<svg xmlns="http://www.w3.org/2000/svg" xmlns:xlink="http://www.w3.org/1999/xlink" height="76.81mm" version="1.2" viewBox="0 0 106.1 76.81" width="106.1mm">
      
    <desc>Generated by the Chemistry Development Kit (http://github.com/cdk)</desc>
      
    <g fill="#3050F8" stroke="#000000" stroke-linecap="round" stroke-linejoin="round" stroke-width=".7">
            
        <rect fill="#FFFFFF" height="77.0" stroke="none" width="107.0" x=".0" y=".0"/>
            
        <g class="mol" id="mol1">
                  
            <line class="bond" id="mol1bnd1" x1="68.47" x2="53.91" y1="1.0" y2="5.49"/>
                  
            <line class="bond" id="mol1bnd2" x1="53.91" x2="50.52" y1="5.49" y2="20.35"/>
                  
            <g class="bond" id="mol1bnd3">
                        
                <line x1="60.54" x2="50.52" y1="31.82" y2="20.35"/>
                        
                <line x1="57.54" x2="49.84" y1="32.09" y2="23.29"/>
                      
            </g>
                  
            <line class="bond" id="mol1bnd4" x1="60.54" x2="52.73" y1="31.82" y2="44.91"/>
                  
            <g class="bond" id="mol1bnd5">
                        
                <line x1="37.87" x2="52.73" y1="41.52" y2="44.91"/>
                        
                <line x1="40.14" x2="51.54" y1="39.53" y2="42.14"/>
                      
            </g>
                  
            <line class="bond" id="mol1bnd6" x1="37.87" x2="36.85" y1="41.52" y2="30.25"/>
                  
            <line class="bond" id="mol1bnd7" x1="50.52" x2="39.28" y1="20.35" y2="25.15"/>
                  
            <line class="bond" id="mol1bnd8" x1="37.87" x2="28.99" y1="41.52" y2="48.6"/>
                  
            <line class="bond" id="mol1bnd9" x1="22.68" x2="11.46" y1="49.95" y2="46.31"/>
                  
            <g class="bond" id="mol1bnd10">
                        
                <line x1="11.46" x2="5.1" y1="46.31" y2="55.06"/>
                        
                <line x1="12.39" x2="7.08" y1="49.18" y2="56.49"/>
                      
                <line class="hi" stroke="#3050F8" x1="5.1" x2="8.280000000000001" y1="55.06" y2="50.685"/>
                <line class="hi" stroke="#3050F8" x1="7.08" x2="9.735" y1="56.49" y2="52.835"/>
            </g>
                  
            <line class="bond" id="mol1bnd11" x1="5.1" x2="8.86" y1="62.22" y2="67.38"/>
                  
            <g class="bond" id="mol1bnd12">
                        
                <line x1="14.73" x2="25.95" y1="69.9" y2="66.26"/>
                        
                <line x1="13.98" x2="23.51" y1="67.59" y2="64.49"/>
                      
                <line class="hi" stroke="#3050F8" x1="14.73" x2="20.34" y1="69.9" y2="68.08000000000001"/>
                <line class="hi" stroke="#3050F8" x1="13.98" x2="18.745" y1="67.59" y2="66.03999999999999"/>
            </g>
                  
            <line class="bond" id="mol1bnd13" x1="25.95" x2="25.95" y1="54.87" y2="66.26"/>
                  
            <line class="bond" id="mol1bnd14" x1="25.95" x2="37.87" y1="66.26" y2="75.76"/>
                  
            <line class="bond" id="mol1bnd15" x1="37.87" x2="49.42" y1="75.76" y2="73.12"/>
                  
            <g class="bond" id="mol1bnd16">
                        
                <line x1="54.51" x2="59.34" y1="68.66" y2="58.64"/>
                        
                <line x1="52.32" x2="56.63" y1="67.6" y2="58.64"/>
                      
                <line class="hi" stroke="#3050F8" x1="54.51" x2="56.925" y1="68.66" y2="63.65"/>
                <line class="hi" stroke="#3050F8" x1="52.32" x2="54.475" y1="67.6" y2="63.12"/>
            </g>
                  
            <line class="bond" id="mol1bnd17" x1="52.73" x2="59.34" y1="44.91" y2="58.64"/>
                  
            <line class="bond" id="mol1bnd18" x1="59.34" x2="74.58" y1="58.64" y2="58.64"/>
                  
            <g class="bond" id="mol1bnd19">
                        
                <line x1="82.2" x2="74.58" y1="45.43" y2="58.64"/>
                        
                <line x1="83.61" x2="77.39" y1="47.87" y2="58.64"/>
                      
            </g>
                  
            <line class="bond" id="mol1bnd20" x1="82.2" x2="97.44" y1="45.43" y2="45.43"/>
                  
            <g class="bond" id="mol1bnd21">
                        
                <line x1="105.06" x2="97.44" y1="58.64" y2="45.43"/>
                        
                <line x1="102.24" x2="96.03" y1="58.64" y2="47.87"/>
                      
            </g>
                  
            <line class="bond" id="mol1bnd22" x1="105.06" x2="97.44" y1="58.64" y2="71.85"/>
                  
            <g class="bond" id="mol1bnd23">
                        
                <line x1="82.2" x2="97.44" y1="71.85" y2="71.85"/>
                        
                <line x1="83.61" x2="96.03" y1="69.41" y2="69.41"/>
                      
            </g>
                  
            <line class="bond" id="mol1bnd24" x1="74.58" x2="82.2" y1="58.64" y2="71.85"/>
                  
            <line class="bond" id="mol1bnd25" x1="11.46" x2="6.75" y1="46.31" y2="31.81"/>
                  
            <path class="atom" d="M38.05 27.47q.0 .65 -.48 1.02q-.47 .36 -1.27 .36q-.42 .0 -.77 -.07q-.35 -.06 -.58 -.17v-.59q.24 .11 .61 .2q.37 .09 .76 .09q.55 .0 .83 -.21q.28 -.21 .28 -.58q.0 -.24 -.11 -.4q-.1 -.17 -.35 -.31q-.25 -.14 -.7 -.3q-.63 -.23 -.95 -.55q-.32 -.33 -.32 -.9q.0 -.39 .2 -.67q.2 -.28 .55 -.43q.36 -.15 .82 -.15q.4 .0 .74 .08q.34 .07 .61 .2l-.2 .53q-.25 -.11 -.55 -.18q-.3 -.08 -.63 -.08q-.46 .0 -.69 .2q-.23 .2 -.23 .52q.0 .24 .1 .41q.11 .17 .34 .3q.23 .13 .63 .28q.43 .15 .73 .34q.3 .18 .45 .43q.15 .25 .15 .64z" fill="#C6C62C" id="mol1atm7" stroke="none"/>
                  
            <path class="atom" d="M27.89 53.47h-.72l-2.62 -4.07h-.03q.01 .24 .03 .6q.02 .36 .02 .73v2.74h-.57v-4.9h.71l2.61 4.05h.03q-.01 -.11 -.02 -.33q-.01 -.22 -.02 -.48q-.01 -.26 -.01 -.48v-2.77h.58v4.9z" id="mol1atm8" stroke="none"/>
                  
            <path class="atom" d="M4.44 61.09h-.72l-2.62 -4.07h-.03q.01 .24 .03 .6q.02 .36 .02 .73v2.74h-.57v-4.9h.71l2.61 4.05h.03q-.01 -.11 -.02 -.33q-.01 -.22 -.02 -.48q-.01 -.26 -.01 -.48v-2.77h.58v4.9z" id="mol1atm10" stroke="none"/>
                  
            <path class="atom" d="M13.4 73.42h-.72l-2.62 -4.07h-.03q.01 .24 .03 .6q.02 .36 .02 .73v2.74h-.57v-4.9h.71l2.61 4.05h.03q-.01 -.11 -.02 -.33q-.01 -.22 -.02 -.48q-.01 -.26 -.01 -.48v-2.77h.58v4.9z" id="mol1atm11" stroke="none"/>
                  
            <path class="atom" d="M54.67 74.82h-.72l-2.62 -4.07h-.03q.01 .24 .03 .6q.02 .36 .02 .73v2.74h-.57v-4.9h.71l2.61 4.05h.03q-.01 -.11 -.02 -.33q-.01 -.22 -.02 -.48q-.01 -.26 -.01 -.48v-2.77h.58v4.9z" id="mol1atm14" stroke="none"/>
                
            <line class="hi" id="mol1bnd6" stroke="#C6C62C" x1="36.85" x2="37.36" y1="30.25" y2="35.885000000000005"/>
            <line class="hi" id="mol1bnd7" stroke="#C6C62C" x1="39.28" x2="44.900000000000006" y1="25.15" y2="22.75"/>
            <line class="hi" id="mol1bnd8" stroke="#3050F8" x1="28.99" x2="33.43" y1="48.6" y2="45.06"/>
            <line class="hi" id="mol1bnd9" stroke="#3050F8" x1="22.68" x2="17.07" y1="49.95" y2="48.13"/>
            <line class="hi" id="mol1bnd11" stroke="#3050F8" x1="5.1" x2="6.9799999999999995" y1="62.22" y2="64.8"/>
            <line class="hi" id="mol1bnd11" stroke="#3050F8" x1="8.86" x2="6.9799999999999995" y1="67.38" y2="64.8"/>
            <line class="hi" id="mol1bnd13" stroke="#3050F8" x1="25.95" x2="25.95" y1="54.87" y2="60.565"/>
            <line class="hi" id="mol1bnd15" stroke="#3050F8" x1="49.42" x2="43.644999999999996" y1="73.12" y2="74.44"/>
        </g>
          
    </g>
    
</svg>
