<svg xmlns="http://www.w3.org/2000/svg" xmlns:xlink="http://www.w3.org/1999/xlink" height="93.34mm" version="1.2" viewBox="0 0 75.8 93.34" width="75.8mm">
      
    <desc>Generated by the Chemistry Development Kit (http://github.com/cdk)</desc>
      
    <g fill="#000000" stroke="#000000" stroke-linecap="round" stroke-linejoin="round" stroke-width=".7">
            
        <rect fill="#FFFFFF" height="94.0" stroke="none" width="76.0" x=".0" y=".0"/>
            
        <g class="mol" id="mol1">
                  
            <line class="bond" id="mol1bnd1" x1="74.78" x2="70.4" y1="83.47" y2="73.19"/>
                  
            <line class="bond" id="mol1bnd2" x1="68.86" x2="69.01" y1="65.6" y2="54.22"/>
                  
            <line class="bond" id="mol1bnd3" x1="69.01" x2="42.41" y1="54.22" y2="54.22"/>
                  
            <g class="bond" id="mol1bnd4">
                        
                <line x1="29.03" x2="29.38" y1="61.54" y2="62.14"/>
                        
                <line x1="30.8" x2="31.4" y1="60.23" y2="61.27"/>
                        
                <line x1="32.56" x2="33.41" y1="58.93" y2="60.4"/>
                        
                <line x1="34.32" x2="35.42" y1="57.62" y2="59.53"/>
                        
                <line x1="36.08" x2="37.43" y1="56.32" y2="58.66"/>
                        
                <line x1="37.84" x2="39.44" y1="55.01" y2="57.78"/>
                        
                <line x1="39.6" x2="41.45" y1="53.71" y2="56.91"/>
                        
                <line x1="41.36" x2="43.46" y1="52.4" y2="56.04"/>
                      
            </g>
                  
            <line class="bond" id="mol1bnd5" x1="29.21" x2="16.01" y1="61.84" y2="69.45"/>
                  
            <line class="bond" id="mol1bnd6" x1="16.01" x2="16.01" y1="69.45" y2="84.69"/>
                  
            <line class="bond" id="mol1bnd7" x1="16.01" x2="29.21" y1="84.69" y2="92.3"/>
                  
            <line class="bond" id="mol1bnd8" x1="29.21" x2="42.41" y1="92.3" y2="84.69"/>
                  
            <path class="bond" d="M42.76 69.45h-.7l-1.9 16.93l2.25 -1.3l1.97 -1.14z" id="mol1bnd9" stroke="none"/>
                  
            <line class="bond" id="mol1bnd10" x1="29.21" x2="42.41" y1="61.84" y2="69.45"/>
                  
            <line class="bond" id="mol1bnd11" x1="42.41" x2="55.61" y1="69.45" y2="61.84"/>
                  
            <g class="bond" id="mol1bnd12">
                        
                <line stroke="#000000" x1="55.79" x2="55.44" y1="61.54" y2="62.14"/>
                        
                <line stroke="#3050F8" x1="57.8" x2="57.2" y1="62.41" y2="63.45"/>
                        
                <line stroke="#3050F8" x1="59.81" x2="58.96" y1="63.28" y2="64.75"/>
                        
                <line stroke="#3050F8" x1="61.82" x2="60.72" y1="64.15" y2="66.06"/>
                        
                <line stroke="#3050F8" x1="63.83" x2="62.48" y1="65.02" y2="67.36"/>
                        
                <line stroke="#3050F8" x1="65.84" x2="64.24" y1="65.89" y2="68.66"/>
                      
            </g>
                  
            <line class="bond" id="mol1bnd13" x1="55.61" x2="55.61" y1="61.84" y2="46.61"/>
                  
            <line class="bond" id="mol1bnd14" x1="55.61" x2="42.41" y1="46.61" y2="38.99"/>
                  
            <g class="bond" id="mol1bnd15">
                        
                <line x1="29.21" x2="42.41" y1="46.61" y2="38.99"/>
                        
                <line x1="29.21" x2="39.97" y1="43.79" y2="37.58"/>
                      
            </g>
                  
            <path class="bond" d="M28.86 61.84h.7l1.9 -16.53l-2.25 1.3l-2.25 -1.3z" id="mol1bnd16" stroke="none"/>
                  
            <line class="bond" id="mol1bnd17" x1="29.21" x2="16.01" y1="46.61" y2="38.99"/>
                  
            <g class="bond" id="mol1bnd18">
                        
                <line x1="16.01" x2="16.01" y1="23.76" y2="38.99"/>
                        
                <line x1="18.45" x2="18.45" y1="25.17" y2="37.58"/>
                      
            </g>
                  
            <line class="bond" id="mol1bnd19" x1="16.01" x2="29.21" y1="23.76" y2="16.14"/>
                  
            <g class="bond" id="mol1bnd20">
                        
                <line x1="42.41" x2="29.21" y1="23.76" y2="16.14"/>
                        
                <line x1="39.97" x2="29.21" y1="25.17" y2="18.96"/>
                      
            </g>
                  
            <line class="bond" id="mol1bnd21" x1="42.41" x2="42.41" y1="38.99" y2="23.76"/>
                  
            <line class="bond" id="mol1bnd22" x1="16.01" x2="6.09" y1="23.76" y2="18.03"/>
                  
            <line class="bond" id="mol1bnd23" x1="2.82" x2="2.82" y1="12.22" y2=".91"/>
                  
            <path class="atom" d="M70.75 71.9h-.72l-2.62 -4.07h-.03q.01 .24 .03 .6q.02 .36 .02 .73v2.74h-.57v-4.9h.71l2.61 4.05h.03q-.01 -.11 -.02 -.33q-.01 -.22 -.02 -.48q-.01 -.26 -.01 -.48v-2.77h.58v4.9z" fill="#3050F8" id="mol1atm2" stroke="none"/>
                  
            <path class="atom" d="M5.08 16.14q.0 .76 -.26 1.33q-.26 .57 -.76 .88q-.5 .32 -1.24 .32q-.76 .0 -1.26 -.32q-.51 -.32 -.76 -.89q-.24 -.57 -.24 -1.33q.0 -.75 .24 -1.31q.25 -.57 .76 -.88q.51 -.32 1.27 -.32q.73 .0 1.23 .32q.5 .31 .76 .88q.26 .57 .26 1.33zM1.21 16.14q.0 .92 .39 1.46q.39 .53 1.22 .53q.84 .0 1.22 -.53q.39 -.54 .39 -1.46q.0 -.93 -.39 -1.45q-.38 -.52 -1.21 -.52q-.83 .0 -1.23 .52q-.39 .52 -.39 1.45z" fill="#FF0D0D" id="mol1atm19" stroke="none"/>
                
            <line class="hi" id="mol1bnd1" stroke="#3050F8" x1="70.4" x2="72.59" y1="73.19" y2="78.33"/>
            <line class="hi" id="mol1bnd2" stroke="#3050F8" x1="68.86" x2="68.935" y1="65.6" y2="59.91"/>
            <line class="hi" id="mol1bnd22" stroke="#FF0D0D" x1="6.09" x2="11.05" y1="18.03" y2="20.895000000000003"/>
            <line class="hi" id="mol1bnd23" stroke="#FF0D0D" x1="2.82" x2="2.82" y1="12.22" y2="6.565"/>
        </g>
          
    </g>
    
</svg>
