<svg xmlns="http://www.w3.org/2000/svg" xmlns:xlink="http://www.w3.org/1999/xlink" height="97.82mm" version="1.2" viewBox="0 0 94.45 97.82" width="94.45mm">
      
    <desc>Generated by the Chemistry Development Kit (http://github.com/cdk)</desc>
      
    <g fill="#1FF01F" stroke="#000000" stroke-linecap="round" stroke-linejoin="round" stroke-width=".7">
            
        <rect fill="#FFFFFF" height="98.0" stroke="none" width="95.0" x=".0" y=".0"/>
            
        <g class="mol" id="mol1">
                  
            <line class="bond" id="mol1bnd1" x1="93.41" x2="83.38" y1="94.74" y2="88.94"/>
                  
            <line class="bond" id="mol1bnd2" x1="80.22" x2="80.22" y1="83.27" y2="71.89"/>
                  
            <line class="bond" id="mol1bnd3" x1="80.22" x2="67.02" y1="71.89" y2="64.27"/>
                  
            <line class="bond" id="mol1bnd4" x1="67.02" x2="53.82" y1="64.27" y2="71.89"/>
                  
            <g class="bond" id="mol1bnd5">
                        
                <line x1="53.82" x2="53.82" y1="87.12" y2="71.89"/>
                        
                <line x1="51.38" x2="51.38" y1="85.71" y2="73.3"/>
                      
            </g>
                  
            <line class="bond" id="mol1bnd6" x1="53.82" x2="67.02" y1="87.12" y2="94.73"/>
                  
            <line class="bond" id="mol1bnd7" x1="77.07" x2="67.02" y1="88.94" y2="94.73"/>
                  
            <line class="bond" id="mol1bnd8" x1="53.82" x2="40.62" y1="87.12" y2="94.73"/>
                  
            <g class="bond" id="mol1bnd9">
                        
                <line x1="27.42" x2="40.62" y1="87.12" y2="94.73"/>
                        
                <line x1="29.86" x2="40.62" y1="85.71" y2="91.92"/>
                      
            </g>
                  
            <line class="bond" id="mol1bnd10" x1="27.42" x2="27.42" y1="87.12" y2="71.89"/>
                  
            <g class="bond" id="mol1bnd11">
                        
                <line x1="40.62" x2="27.42" y1="64.27" y2="71.89"/>
                        
                <line x1="40.62" x2="29.86" y1="67.09" y2="73.3"/>
                      
            </g>
                  
            <line class="bond" id="mol1bnd12" x1="53.82" x2="40.62" y1="71.89" y2="64.27"/>
                  
            <line class="bond" id="mol1bnd13" x1="27.42" x2="17.51" y1="87.12" y2="92.84"/>
                  
            <line class="bond" id="mol1bnd14" x1="10.95" x2="1.04" y1="92.84" y2="87.12"/>
                  
            <line class="bond" id="mol1bnd15" x1="67.02" x2="67.02" y1="64.27" y2="49.04"/>
                  
            <g class="bond" id="mol1bnd16">
                        
                <line x1="53.82" x2="67.02" y1="41.42" y2="49.04"/>
                        
                <line x1="56.26" x2="67.02" y1="40.01" y2="46.22"/>
                      
            </g>
                  
            <line class="bond" id="mol1bnd17" x1="53.82" x2="53.82" y1="41.42" y2="26.18"/>
                  
            <g class="bond" id="mol1bnd18">
                        
                <line x1="67.01" x2="53.82" y1="18.56" y2="26.18"/>
                        
                <line x1="67.01" x2="56.26" y1="21.38" y2="27.58"/>
                      
            </g>
                  
            <line class="bond" id="mol1bnd19" x1="67.01" x2="80.2" y1="18.56" y2="26.18"/>
                  
            <g class="bond" id="mol1bnd20">
                        
                <line x1="80.21" x2="80.2" y1="41.42" y2="26.18"/>
                        
                <line x1="77.77" x2="77.77" y1="40.01" y2="27.59"/>
                      
            </g>
                  
            <line class="bond" id="mol1bnd21" x1="67.02" x2="80.21" y1="49.04" y2="41.42"/>
                  
            <line class="bond" id="mol1bnd22" x1="67.01" x2="67.01" y1="18.56" y2="7.25"/>
                  
            <line class="bond" id="mol1bnd23" x1="53.82" x2="42.14" y1="26.18" y2="19.44"/>
                  
            <path class="atom" d="M82.16 89.57h-.72l-2.62 -4.07h-.03q.01 .24 .03 .6q.02 .36 .02 .73v2.74h-.57v-4.9h.71l2.61 4.05h.03q-.01 -.11 -.02 -.33q-.01 -.22 -.02 -.48q-.01 -.26 -.01 -.48v-2.77h.58v4.9z" fill="#3050F8" id="mol1atm2" stroke="none"/>
                  
            <path class="atom" d="M16.49 94.73q.0 .76 -.26 1.33q-.26 .57 -.76 .88q-.5 .32 -1.24 .32q-.76 .0 -1.26 -.32q-.51 -.32 -.76 -.89q-.24 -.57 -.24 -1.33q.0 -.75 .24 -1.31q.25 -.57 .76 -.88q.51 -.32 1.27 -.32q.73 .0 1.23 .32q.5 .31 .76 .88q.26 .57 .26 1.33zM12.63 94.73q.0 .92 .39 1.46q.39 .53 1.22 .53q.84 .0 1.22 -.53q.39 -.54 .39 -1.46q.0 -.93 -.39 -1.45q-.38 -.52 -1.21 -.52q-.83 .0 -1.23 .52q-.39 .52 -.39 1.45z" fill="#FF0D0D" id="mol1atm12" stroke="none"/>
                  
            <path class="atom" d="M67.5 1.35q-.79 .0 -1.24 .53q-.45 .52 -.45 1.45q.0 .91 .42 1.45q.42 .53 1.27 .53q.32 .0 .61 -.05q.29 -.06 .57 -.14v.54q-.27 .1 -.57 .15q-.29 .05 -.7 .05q-.74 .0 -1.25 -.31q-.5 -.31 -.75 -.88q-.25 -.57 -.25 -1.34q.0 -.74 .27 -1.31q.27 -.57 .8 -.88q.53 -.32 1.28 -.32q.78 .0 1.35 .29l-.24 .52q-.23 -.1 -.51 -.18q-.27 -.08 -.61 -.08zM70.26 5.77h-.6v-5.21h.6v5.21z" id="mol1atm20" stroke="none"/>
                  
            <path class="atom" d="M38.17 16.75q-.79 .0 -1.24 .53q-.45 .52 -.45 1.45q.0 .91 .42 1.45q.42 .53 1.27 .53q.32 .0 .61 -.05q.29 -.06 .57 -.14v.54q-.27 .1 -.57 .15q-.29 .05 -.7 .05q-.74 .0 -1.25 -.31q-.5 -.31 -.75 -.88q-.25 -.57 -.25 -1.34q.0 -.74 .27 -1.31q.27 -.57 .8 -.88q.53 -.32 1.28 -.32q.78 .0 1.35 .29l-.24 .52q-.23 -.1 -.51 -.18q-.27 -.08 -.61 -.08zM40.92 21.17h-.6v-5.21h.6v5.21z" id="mol1atm21" stroke="none"/>
                
            <line class="hi" id="mol1bnd1" stroke="#3050F8" x1="83.38" x2="88.395" y1="88.94" y2="91.84"/>
            <line class="hi" id="mol1bnd2" stroke="#3050F8" x1="80.22" x2="80.22" y1="83.27" y2="77.58"/>
            <line class="hi" id="mol1bnd7" stroke="#3050F8" x1="77.07" x2="72.04499999999999" y1="88.94" y2="91.83500000000001"/>
            <line class="hi" id="mol1bnd13" stroke="#FF0D0D" x1="17.51" x2="22.465000000000003" y1="92.84" y2="89.98"/>
            <line class="hi" id="mol1bnd14" stroke="#FF0D0D" x1="10.95" x2="5.994999999999999" y1="92.84" y2="89.98"/>
            <line class="hi" id="mol1bnd22" stroke="#1FF01F" x1="67.01" x2="67.01" y1="7.25" y2="12.905"/>
            <line class="hi" id="mol1bnd23" stroke="#1FF01F" x1="42.14" x2="47.980000000000004" y1="19.44" y2="22.810000000000002"/>
        </g>
          
    </g>
    
</svg>
