<svg xmlns="http://www.w3.org/2000/svg" xmlns:xlink="http://www.w3.org/1999/xlink" height="78.24mm" version="1.2" viewBox="0 0 94.42 78.24" width="94.42mm">
      
    <desc>Generated by the Chemistry Development Kit (http://github.com/cdk)</desc>
      
    <g fill="#3050F8" stroke="#000000" stroke-linecap="round" stroke-linejoin="round" stroke-width=".7">
            
        <rect fill="#FFFFFF" height="79.0" stroke="none" width="95.0" x=".0" y=".0"/>
            
        <g class="mol" id="mol1">
                  
            <line class="bond" id="mol1bnd1" x1="1.04" x2="1.04" y1="8.66" y2="23.9"/>
                  
            <line class="bond" id="mol1bnd2" x1="1.04" x2="14.23" y1="23.9" y2="31.52"/>
                  
            <line class="bond" id="mol1bnd3" x1="14.23" x2="24.27" y1="31.52" y2="25.72"/>
                  
            <line class="bond" id="mol1bnd4" x1="27.43" x2="27.43" y1="20.04" y2="8.65"/>
                  
            <line class="bond" id="mol1bnd5" x1="27.43" x2="14.24" y1="8.65" y2="1.04"/>
                  
            <line class="bond" id="mol1bnd6" x1="1.04" x2="14.24" y1="8.66" y2="1.04"/>
                  
            <line class="bond" id="mol1bnd7" x1="30.58" x2="40.62" y1="25.71" y2="31.51"/>
                  
            <line class="bond" id="mol1bnd8" x1="40.62" x2="53.81" y1="31.51" y2="23.89"/>
                  
            <line class="bond" id="mol1bnd9" x1="53.81" x2="67.0" y1="23.89" y2="31.51"/>
                  
            <g class="bond" id="mol1bnd10">
                        
                <line x1="80.19" x2="67.0" y1="23.89" y2="31.51"/>
                        
                <line x1="80.19" x2="69.44" y1="26.7" y2="32.92"/>
                      
            </g>
                  
            <line class="bond" id="mol1bnd11" x1="80.19" x2="93.38" y1="23.89" y2="31.5"/>
                  
            <g class="bond" id="mol1bnd12">
                        
                <line x1="93.38" x2="93.38" y1="46.74" y2="31.5"/>
                        
                <line x1="90.94" x2="90.95" y1="45.33" y2="32.91"/>
                      
            </g>
                  
            <line class="bond" id="mol1bnd13" x1="93.38" x2="80.18" y1="46.74" y2="54.37"/>
                  
            <g class="bond" id="mol1bnd14">
                        
                <line x1="66.99" x2="80.18" y1="46.75" y2="54.37"/>
                        
                <line x1="69.43" x2="80.18" y1="45.34" y2="51.55"/>
                      
            </g>
                  
            <line class="bond" id="mol1bnd15" x1="67.0" x2="66.99" y1="31.51" y2="46.75"/>
                  
            <line class="bond" id="mol1bnd16" x1="40.62" x2="40.62" y1="31.51" y2="46.74"/>
                  
            <g class="bond" id="mol1bnd17">
                        
                <line x1="53.82" x2="40.62" y1="54.36" y2="46.74"/>
                        
                <line x1="51.38" x2="40.62" y1="55.77" y2="49.56"/>
                      
            </g>
                  
            <line class="bond" id="mol1bnd18" x1="53.82" x2="53.82" y1="54.36" y2="69.59"/>
                  
            <g class="bond" id="mol1bnd19">
                        
                <line x1="40.62" x2="53.82" y1="77.2" y2="69.59"/>
                        
                <line x1="40.62" x2="51.38" y1="74.39" y2="68.18"/>
                      
            </g>
                  
            <line class="bond" id="mol1bnd20" x1="40.62" x2="27.42" y1="77.2" y2="69.59"/>
                  
            <g class="bond" id="mol1bnd21">
                        
                <line x1="27.42" x2="27.42" y1="54.36" y2="69.59"/>
                        
                <line x1="29.85" x2="29.85" y1="55.77" y2="68.18"/>
                      
            </g>
                  
            <line class="bond" id="mol1bnd22" x1="40.62" x2="27.42" y1="46.74" y2="54.36"/>
                  
            <path class="atom" d="M29.37 26.34h-.72l-2.62 -4.07h-.03q.01 .24 .03 .6q.02 .36 .02 .73v2.74h-.57v-4.9h.71l2.61 4.05h.03q-.01 -.11 -.02 -.33q-.01 -.22 -.02 -.48q-.01 -.26 -.01 -.48v-2.77h.58v4.9z" id="mol1atm4" stroke="none"/>
                
            <line class="hi" id="mol1bnd3" stroke="#3050F8" x1="24.27" x2="19.25" y1="25.72" y2="28.619999999999997"/>
            <line class="hi" id="mol1bnd4" stroke="#3050F8" x1="27.43" x2="27.43" y1="20.04" y2="14.344999999999999"/>
            <line class="hi" id="mol1bnd7" stroke="#3050F8" x1="30.58" x2="35.599999999999994" y1="25.71" y2="28.61"/>
        </g>
          
    </g>
    
</svg>
