<svg xmlns="http://www.w3.org/2000/svg" xmlns:xlink="http://www.w3.org/1999/xlink" height="49.72mm" version="1.2" viewBox="0 0 94.48 49.72" width="94.48mm">
      
    <desc>Generated by the Chemistry Development Kit (http://github.com/cdk)</desc>
      
    <g fill="#3050F8" stroke="#000000" stroke-linecap="round" stroke-linejoin="round" stroke-width=".7">
            
        <rect fill="#FFFFFF" height="50.0" stroke="none" width="95.0" x=".0" y=".0"/>
            
        <g class="mol" id="mol1">
                  
            <line class="bond" id="mol1bnd1" x1="1.04" x2="14.24" y1="3.08" y2="10.7"/>
                  
            <line class="bond" id="mol1bnd2" x1="14.24" x2="27.43" y1="10.7" y2="3.08"/>
                  
            <line class="bond" id="mol1bnd3" x1="27.43" x2="40.63" y1="3.08" y2="10.7"/>
                  
            <g class="bond" id="mol1bnd4">
                        
                <line x1="53.84" x2="40.63" y1="3.08" y2="10.7"/>
                        
                <line x1="53.84" x2="43.07" y1="5.9" y2="12.11"/>
                      
            </g>
                  
            <line class="bond" id="mol1bnd5" x1="53.84" x2="67.05" y1="3.08" y2="10.7"/>
                  
            <g class="bond" id="mol1bnd6">
                        
                <line x1="67.05" x2="67.05" y1="25.94" y2="10.7"/>
                        
                <line x1="64.61" x2="64.61" y1="24.53" y2="12.11"/>
                      
            </g>
                  
            <line class="bond" id="mol1bnd7" x1="67.05" x2="53.84" y1="25.94" y2="33.56"/>
                  
            <g class="bond" id="mol1bnd8">
                        
                <line x1="40.63" x2="53.84" y1="25.94" y2="33.56"/>
                        
                <line x1="43.07" x2="53.84" y1="24.53" y2="30.75"/>
                      
            </g>
                  
            <line class="bond" id="mol1bnd9" x1="40.63" x2="40.63" y1="10.7" y2="25.94"/>
                  
            <line class="bond" id="mol1bnd10" x1="40.63" x2="30.71" y1="25.94" y2="31.67"/>
                  
            <line class="bond" id="mol1bnd11" x1="27.44" x2="27.44" y1="37.49" y2="48.81"/>
                  
            <line class="bond" id="mol1bnd12" x1="67.05" x2="78.15" y1="25.94" y2="32.35"/>
                  
            <line class="bond" id="mol1bnd13" x1="67.05" x2="76.96" y1="10.7" y2="4.98"/>
                  
            <line class="bond" id="mol1bnd14" x1="83.52" x2="93.44" y1="4.97" y2="10.7"/>
                  
            <line class="bond" id="mol1bnd15" x1="14.24" x2="14.23" y1="10.7" y2="22.09"/>
                  
            <path class="atom" d="M29.69 33.56q.0 .76 -.26 1.33q-.26 .57 -.76 .88q-.5 .32 -1.24 .32q-.76 .0 -1.26 -.32q-.51 -.32 -.76 -.89q-.24 -.57 -.24 -1.33q.0 -.75 .24 -1.31q.25 -.57 .76 -.88q.51 -.32 1.27 -.32q.73 .0 1.23 .32q.5 .31 .76 .88q.26 .57 .26 1.33zM25.83 33.56q.0 .92 .39 1.46q.39 .53 1.22 .53q.84 .0 1.22 -.53q.39 -.54 .39 -1.46q.0 -.93 -.39 -1.45q-.38 -.52 -1.21 -.52q-.83 .0 -1.23 .52q-.39 .52 -.39 1.45z" fill="#FF0D0D" id="mol1atm10" stroke="none"/>
                  
            <path class="atom" d="M81.13 36.02h-1.77v-.36l.58 -.13v-3.92l-.58 -.14v-.36h1.77v.36l-.57 .14v3.92l.57 .13v.36z" fill="#940094" id="mol1atm12" stroke="none"/>
                  
            <path class="atom" d="M82.5 3.08q.0 .76 -.26 1.33q-.26 .57 -.76 .88q-.5 .32 -1.24 .32q-.76 .0 -1.26 -.32q-.51 -.32 -.76 -.89q-.24 -.57 -.24 -1.33q.0 -.75 .24 -1.31q.25 -.57 .76 -.88q.51 -.32 1.27 -.32q.73 .0 1.23 .32q.5 .31 .76 .88q.26 .57 .26 1.33zM78.64 3.08q.0 .92 .39 1.46q.39 .53 1.22 .53q.84 .0 1.22 -.53q.39 -.54 .39 -1.46q.0 -.93 -.39 -1.45q-.38 -.52 -1.21 -.52q-.83 .0 -1.23 .52q-.39 .52 -.39 1.45z" fill="#FF0D0D" id="mol1atm13" stroke="none"/>
                  
            <g class="atom" id="mol1atm15">
                        
                <path d="M16.17 28.39h-.72l-2.62 -4.07h-.03q.01 .24 .03 .6q.02 .36 .02 .73v2.74h-.57v-4.9h.71l2.61 4.05h.03q-.01 -.11 -.02 -.33q-.01 -.22 -.02 -.48q-.01 -.26 -.01 -.48v-2.77h.58v4.9z" stroke="none"/>
                        
                <path d="M20.48 28.39h-.62v-2.29h-2.51v2.29h-.61v-4.9h.61v2.07h2.51v-2.07h.62v4.9z" stroke="none"/>
                        
                <path d="M22.98 29.88h-1.94v-.3l.77 -.78q.22 -.22 .37 -.39q.15 -.18 .23 -.34q.08 -.17 .08 -.36q.0 -.24 -.15 -.37q-.14 -.13 -.37 -.13q-.21 .0 -.38 .08q-.16 .08 -.33 .21l-.19 -.24q.17 -.15 .39 -.25q.23 -.1 .51 -.1q.41 .0 .65 .21q.24 .21 .24 .58q.0 .23 -.1 .43q-.09 .2 -.26 .4q-.17 .2 -.39 .42l-.61 .6v.02h1.49v.33z" stroke="none"/>
                      
            </g>
                
            <line class="hi" id="mol1bnd10" stroke="#FF0D0D" x1="30.71" x2="35.67" y1="31.67" y2="28.805"/>
            <line class="hi" id="mol1bnd11" stroke="#FF0D0D" x1="27.44" x2="27.44" y1="37.49" y2="43.150000000000006"/>
            <line class="hi" id="mol1bnd12" stroke="#940094" x1="78.15" x2="72.6" y1="32.35" y2="29.145000000000003"/>
            <line class="hi" id="mol1bnd13" stroke="#FF0D0D" x1="76.96" x2="72.005" y1="4.98" y2="7.84"/>
            <line class="hi" id="mol1bnd14" stroke="#FF0D0D" x1="83.52" x2="88.47999999999999" y1="4.97" y2="7.834999999999999"/>
            <line class="hi" id="mol1bnd15" stroke="#3050F8" x1="14.23" x2="14.235" y1="22.09" y2="16.395"/>
        </g>
          
    </g>
    
</svg>
