<svg xmlns="http://www.w3.org/2000/svg" xmlns:xlink="http://www.w3.org/1999/xlink" height="70.25mm" version="1.2" viewBox="0 0 107.68 70.25" width="107.68mm">
      
    <desc>Generated by the Chemistry Development Kit (http://github.com/cdk)</desc>
      
    <g fill="#3050F8" stroke="#000000" stroke-linecap="round" stroke-linejoin="round" stroke-width=".7">
            
        <rect fill="#FFFFFF" height="71.0" stroke="none" width="108.0" x=".0" y=".0"/>
            
        <g class="mol" id="mol1">
                  
            <line class="bond" id="mol1bnd1" x1="57.24" x2="67.03" y1="43.2" y2="31.52"/>
                  
            <line class="bond" id="mol1bnd2" x1="67.03" x2="76.83" y1="31.52" y2="43.19"/>
                  
            <g class="bond" id="mol1bnd3">
                        
                <line x1="91.84" x2="76.83" y1="40.54" y2="43.19"/>
                        
                <line x1="90.88" x2="78.64" y1="43.18" y2="45.35"/>
                      
                <line class="hi" stroke="#3050F8" x1="91.84" x2="84.33500000000001" y1="40.54" y2="41.864999999999995"/>
            </g>
                  
            <line class="bond" id="mol1bnd4" x1="91.84" x2="101.64" y1="40.54" y2="52.21"/>
                  
            <g class="bond" id="mol1bnd5">
                        
                <line x1="96.42" x2="101.64" y1="66.54" y2="52.21"/>
                        
                <line x1="94.61" x2="98.87" y1="64.38" y2="52.7"/>
                      
            </g>
                  
            <line class="bond" id="mol1bnd6" x1="96.42" x2="81.41" y1="66.54" y2="69.19"/>
                  
            <g class="bond" id="mol1bnd7">
                        
                <line x1="71.61" x2="81.41" y1="57.52" y2="69.19"/>
                        
                <line x1="74.38" x2="82.37" y1="57.03" y2="66.55"/>
                      
            </g>
                  
            <line class="bond" id="mol1bnd8" x1="76.83" x2="71.61" y1="43.19" y2="57.52"/>
                  
            <line class="bond" id="mol1bnd9" x1="67.03" x2="80.23" y1="31.52" y2="23.9"/>
                  
            <g class="bond" id="mol1bnd10">
                        
                <line x1="80.23" x2="80.23" y1="8.66" y2="23.9"/>
                        
                <line x1="82.67" x2="82.67" y1="10.07" y2="22.49"/>
                      
            </g>
                  
            <line class="bond" id="mol1bnd11" x1="80.23" x2="93.44" y1="8.66" y2="1.04"/>
                  
            <g class="bond" id="mol1bnd12">
                        
                <line x1="106.64" x2="93.44" y1="8.66" y2="1.04"/>
                        
                <line x1="104.21" x2="93.44" y1="10.07" y2="3.85"/>
                      
            </g>
                  
            <line class="bond" id="mol1bnd13" x1="106.64" x2="106.64" y1="8.66" y2="23.9"/>
                  
            <g class="bond" id="mol1bnd14">
                        
                <line x1="96.59" x2="106.64" y1="29.7" y2="23.9"/>
                        
                <line x1="95.37" x2="104.21" y1="27.59" y2="22.49"/>
                      
                <line class="hi" stroke="#3050F8" x1="96.59" x2="101.61500000000001" y1="29.7" y2="26.799999999999997"/>
                <line class="hi" stroke="#3050F8" x1="95.37" x2="99.78999999999999" y1="27.59" y2="25.04"/>
            </g>
                  
            <line class="bond" id="mol1bnd15" x1="80.23" x2="90.28" y1="23.9" y2="29.7"/>
                  
            <line class="bond" id="mol1bnd16" x1="67.03" x2="57.11" y1="31.52" y2="25.79"/>
                  
            <line class="bond" id="mol1bnd17" x1="50.55" x2="40.63" y1="25.8" y2="31.52"/>
                  
            <line class="bond" id="mol1bnd18" x1="40.63" x2="27.43" y1="31.52" y2="23.91"/>
                  
            <line class="bond" id="mol1bnd19" x1="27.43" x2="17.39" y1="23.91" y2="29.71"/>
                  
            <line class="bond" id="mol1bnd20" x1="11.08" x2="1.04" y1="29.71" y2="23.91"/>
                  
            <line class="bond" id="mol1bnd21" x1="14.24" x2="14.24" y1="35.38" y2="46.77"/>
                  
            <path class="atom" d="M95.38 33.97h-.72l-2.62 -4.07h-.03q.01 .24 .03 .6q.02 .36 .02 .73v2.74h-.57v-4.9h.71l2.61 4.05h.03q-.01 -.11 -.02 -.33q-.01 -.22 -.02 -.48q-.01 -.26 -.01 -.48v-2.77h.58v4.9z" id="mol1atm14" stroke="none"/>
                  
            <path class="atom" d="M56.09 23.9q.0 .76 -.26 1.33q-.26 .57 -.76 .88q-.5 .32 -1.24 .32q-.76 .0 -1.26 -.32q-.51 -.32 -.76 -.89q-.24 -.57 -.24 -1.33q.0 -.75 .24 -1.31q.25 -.57 .76 -.88q.51 -.32 1.27 -.32q.73 .0 1.23 .32q.5 .31 .76 .88q.26 .57 .26 1.33zM52.23 23.9q.0 .92 .39 1.46q.39 .53 1.22 .53q.84 .0 1.22 -.53q.39 -.54 .39 -1.46q.0 -.93 -.39 -1.45q-.38 -.52 -1.21 -.52q-.83 .0 -1.23 .52q-.39 .52 -.39 1.45z" fill="#FF0D0D" id="mol1atm15" stroke="none"/>
                  
            <path class="atom" d="M16.18 33.98h-.72l-2.62 -4.07h-.03q.01 .24 .03 .6q.02 .36 .02 .73v2.74h-.57v-4.9h.71l2.61 4.05h.03q-.01 -.11 -.02 -.33q-.01 -.22 -.02 -.48q-.01 -.26 -.01 -.48v-2.77h.58v4.9z" id="mol1atm18" stroke="none"/>
                
            <line class="hi" id="mol1bnd4" stroke="#3050F8" x1="91.84" x2="96.74000000000001" y1="40.54" y2="46.375"/>
            <line class="hi" id="mol1bnd15" stroke="#3050F8" x1="90.28" x2="85.255" y1="29.7" y2="26.799999999999997"/>
            <line class="hi" id="mol1bnd16" stroke="#FF0D0D" x1="57.11" x2="62.07" y1="25.79" y2="28.655"/>
            <line class="hi" id="mol1bnd17" stroke="#FF0D0D" x1="50.55" x2="45.59" y1="25.8" y2="28.66"/>
            <line class="hi" id="mol1bnd19" stroke="#3050F8" x1="17.39" x2="22.41" y1="29.71" y2="26.810000000000002"/>
            <line class="hi" id="mol1bnd20" stroke="#3050F8" x1="11.08" x2="6.0600000000000005" y1="29.71" y2="26.810000000000002"/>
            <line class="hi" id="mol1bnd21" stroke="#3050F8" x1="14.24" x2="14.24" y1="35.38" y2="41.075"/>
        </g>
          
    </g>
    
</svg>
