<svg xmlns="http://www.w3.org/2000/svg" xmlns:xlink="http://www.w3.org/1999/xlink" height="112.09mm" version="1.2" viewBox="0 0 81.29 112.09" width="81.29mm">
      
    <desc>Generated by the Chemistry Development Kit (http://github.com/cdk)</desc>
      
    <g fill="#FF0D0D" stroke="#000000" stroke-linecap="round" stroke-linejoin="round" stroke-width=".7">
            
        <rect fill="#FFFFFF" height="113.0" stroke="none" width="82.0" x=".0" y=".0"/>
            
        <g class="mol" id="mol1">
                  
            <line class="bond" id="mol1bnd1" x1="27.44" x2="27.44" y1=".91" y2="16.15"/>
                  
            <line class="bond" id="mol1bnd2" x1="27.44" x2="37.36" y1="16.15" y2="21.87"/>
                  
            <line class="bond" id="mol1bnd3" x1="40.64" x2="40.64" y1="27.69" y2="39.01"/>
                  
            <g class="bond" id="mol1bnd4">
                        
                <line x1="40.64" x2="27.43" y1="39.01" y2="46.63"/>
                        
                <line x1="40.64" x2="29.87" y1="41.83" y2="48.04"/>
                      
            </g>
                  
            <line class="bond" id="mol1bnd5" x1="27.43" x2="27.43" y1="46.63" y2="61.87"/>
                  
            <g class="bond" id="mol1bnd6">
                        
                <line x1="27.43" x2="40.64" y1="61.87" y2="69.49"/>
                        
                <line x1="29.87" x2="40.64" y1="60.46" y2="66.67"/>
                      
            </g>
                  
            <line class="bond" id="mol1bnd7" x1="40.64" x2="53.85" y1="69.49" y2="61.87"/>
                  
            <g class="bond" id="mol1bnd8">
                        
                <line x1="53.85" x2="53.85" y1="61.87" y2="46.63"/>
                        
                <line x1="51.41" x2="51.41" y1="60.46" y2="48.04"/>
                      
            </g>
                  
            <line class="bond" id="mol1bnd9" x1="40.64" x2="53.85" y1="39.01" y2="46.63"/>
                  
            <line class="bond" id="mol1bnd10" x1="53.85" x2="63.77" y1="46.63" y2="40.9"/>
                  
            <line class="bond" id="mol1bnd11" x1="70.32" x2="80.25" y1="40.9" y2="46.63"/>
                  
            <line class="bond" id="mol1bnd12" x1="40.64" x2="40.64" y1="69.49" y2="84.73"/>
                  
            <line class="bond" id="mol1bnd13" x1="40.64" x2="27.44" y1="84.73" y2="92.35"/>
                  
            <line class="bond" id="mol1bnd14" x1="27.44" x2="27.44" y1="92.35" y2="103.74"/>
                  
            <line class="bond" id="mol1bnd15" x1="27.43" x2="17.51" y1="46.63" y2="40.9"/>
                  
            <line class="bond" id="mol1bnd16" x1="10.96" x2="1.04" y1="40.9" y2="46.63"/>
                  
            <path class="atom" d="M42.9 23.77q.0 .76 -.26 1.33q-.26 .57 -.76 .88q-.5 .32 -1.24 .32q-.76 .0 -1.26 -.32q-.51 -.32 -.76 -.89q-.24 -.57 -.24 -1.33q.0 -.75 .24 -1.31q.25 -.57 .76 -.88q.51 -.32 1.27 -.32q.73 .0 1.23 .32q.5 .31 .76 .88q.26 .57 .26 1.33zM39.04 23.77q.0 .92 .39 1.46q.39 .53 1.22 .53q.84 .0 1.22 -.53q.39 -.54 .39 -1.46q.0 -.93 -.39 -1.45q-.38 -.52 -1.21 -.52q-.83 .0 -1.23 .52q-.39 .52 -.39 1.45z" id="mol1atm3" stroke="none"/>
                  
            <path class="atom" d="M69.31 39.0q.0 .76 -.26 1.33q-.26 .57 -.76 .88q-.5 .32 -1.24 .32q-.76 .0 -1.26 -.32q-.51 -.32 -.76 -.89q-.24 -.57 -.24 -1.33q.0 -.75 .24 -1.31q.25 -.57 .76 -.88q.51 -.32 1.27 -.32q.73 .0 1.23 .32q.5 .31 .76 .88q.26 .57 .26 1.33zM65.44 39.0q.0 .92 .39 1.46q.39 .53 1.22 .53q.84 .0 1.22 -.53q.39 -.54 .39 -1.46q.0 -.93 -.39 -1.45q-.38 -.52 -1.21 -.52q-.83 .0 -1.23 .52q-.39 .52 -.39 1.45z" id="mol1atm10" stroke="none"/>
                  
            <g class="atom" id="mol1atm14">
                        
                <path d="M29.39 110.04h-.72l-2.62 -4.07h-.03q.01 .24 .03 .6q.02 .36 .02 .73v2.74h-.57v-4.9h.71l2.61 4.05h.03q-.01 -.11 -.02 -.33q-.01 -.22 -.02 -.48q-.01 -.26 -.01 -.48v-2.77h.58v4.9z" fill="#3050F8" stroke="none"/>
                        
                <path d="M33.69 110.04h-.62v-2.29h-2.51v2.29h-.61v-4.9h.61v2.07h2.51v-2.07h.62v4.9z" fill="#3050F8" stroke="none"/>
                        
                <path d="M36.2 111.53h-1.94v-.3l.77 -.78q.22 -.22 .37 -.39q.15 -.18 .23 -.34q.08 -.17 .08 -.36q.0 -.24 -.15 -.37q-.14 -.13 -.37 -.13q-.21 .0 -.38 .08q-.16 .08 -.33 .21l-.19 -.24q.17 -.15 .39 -.25q.23 -.1 .51 -.1q.41 .0 .65 .21q.24 .21 .24 .58q.0 .23 -.1 .43q-.09 .2 -.26 .4q-.17 .2 -.39 .42l-.61 .6v.02h1.49v.33z" fill="#3050F8" stroke="none"/>
                      
            </g>
                  
            <path class="atom" d="M16.5 39.0q.0 .76 -.26 1.33q-.26 .57 -.76 .88q-.5 .32 -1.24 .32q-.76 .0 -1.26 -.32q-.51 -.32 -.76 -.89q-.24 -.57 -.24 -1.33q.0 -.75 .24 -1.31q.25 -.57 .76 -.88q.51 -.32 1.27 -.32q.73 .0 1.23 .32q.5 .31 .76 .88q.26 .57 .26 1.33zM12.63 39.0q.0 .92 .39 1.46q.39 .53 1.22 .53q.84 .0 1.22 -.53q.39 -.54 .39 -1.46q.0 -.93 -.39 -1.45q-.38 -.52 -1.21 -.52q-.83 .0 -1.23 .52q-.39 .52 -.39 1.45z" id="mol1atm15" stroke="none"/>
                
            <line class="hi" id="mol1bnd2" stroke="#FF0D0D" x1="37.36" x2="32.4" y1="21.87" y2="19.009999999999998"/>
            <line class="hi" id="mol1bnd3" stroke="#FF0D0D" x1="40.64" x2="40.64" y1="27.69" y2="33.35"/>
            <line class="hi" id="mol1bnd10" stroke="#FF0D0D" x1="63.77" x2="58.81" y1="40.9" y2="43.765"/>
            <line class="hi" id="mol1bnd11" stroke="#FF0D0D" x1="70.32" x2="75.285" y1="40.9" y2="43.765"/>
            <line class="hi" id="mol1bnd14" stroke="#3050F8" x1="27.44" x2="27.44" y1="103.74" y2="98.04499999999999"/>
            <line class="hi" id="mol1bnd15" stroke="#FF0D0D" x1="17.51" x2="22.47" y1="40.9" y2="43.765"/>
            <line class="hi" id="mol1bnd16" stroke="#FF0D0D" x1="10.96" x2="6.0" y1="40.9" y2="43.765"/>
        </g>
          
    </g>
    
</svg>
