<svg xmlns="http://www.w3.org/2000/svg" xmlns:xlink="http://www.w3.org/1999/xlink" height="88.3mm" version="1.2" viewBox="0 0 101.57 88.3" width="101.57mm">
      
    <desc>Generated by the Chemistry Development Kit (http://github.com/cdk)</desc>
      
    <g fill="#3050F8" stroke="#000000" stroke-linecap="round" stroke-linejoin="round" stroke-width=".7">
            
        <rect fill="#FFFFFF" height="89.0" stroke="none" width="102.0" x=".0" y=".0"/>
            
        <g class="mol" id="mol1">
                  
            <line class="bond" id="mol1bnd1" x1="87.1" x2="86.88" y1="14.42" y2="29.66"/>
                  
            <g class="bond" id="mol1bnd2">
                        
                <line x1="96.01" x2="86.88" y1="36.51" y2="29.66"/>
                        
                <line x1="94.55" x2="86.83" y1="38.46" y2="32.67"/>
                      
                <line class="hi" stroke="#3050F8" x1="96.01" x2="91.445" y1="36.51" y2="33.085"/>
                <line class="hi" stroke="#3050F8" x1="94.55" x2="90.69" y1="38.46" y2="35.565"/>
            </g>
                  
            <line class="bond" id="mol1bnd3" x1="97.78" x2="95.43" y1="42.58" y2="49.45"/>
                  
            <g class="bond" id="mol1bnd4">
                        
                <line x1="78.91" x2="90.8" y1="53.0" y2="53.17"/>
                        
                <line x1="80.71" x2="90.84" y1="50.58" y2="50.74"/>
                      
                <line class="hi" stroke="#3050F8" x1="90.8" x2="84.85499999999999" y1="53.17" y2="53.085"/>
                <line class="hi" stroke="#3050F8" x1="90.84" x2="85.775" y1="50.74" y2="50.66"/>
            </g>
                  
            <line class="bond" id="mol1bnd5" x1="78.91" x2="75.58" y1="53.0" y2="42.22"/>
                  
            <line class="bond" id="mol1bnd6" x1="86.88" x2="77.5" y1="29.66" y2="36.26"/>
                  
            <line class="bond" id="mol1bnd7" x1="71.17" x2="60.23" y1="37.16" y2="32.87"/>
                  
            <g class="bond" id="mol1bnd8">
                        
                <line x1="47.03" x2="60.23" y1="40.49" y2="32.87"/>
                        
                <line x1="47.34" x2="57.47" y1="37.49" y2="31.64"/>
                      
            </g>
                  
            <line class="bond" id="mol1bnd9" x1="47.03" x2="35.7" y1="40.49" y2="30.29"/>
                  
            <g class="bond" id="mol1bnd10">
                        
                <line x1="41.9" x2="35.7" y1="16.37" y2="30.29"/>
                        
                <line x1="43.41" x2="38.65" y1="18.98" y2="29.66"/>
                      
            </g>
                  
            <line class="bond" id="mol1bnd11" x1="41.9" x2="54.16" y1="16.37" y2="17.65"/>
                  
            <line class="bond" id="mol1bnd12" x1="60.23" x2="57.89" y1="32.87" y2="21.85"/>
                  
            <line class="bond" id="mol1bnd13" x1="41.9" x2="35.28" y1="16.37" y2="4.9"/>
                  
            <line class="bond" id="mol1bnd14" x1="47.03" x2="44.76" y1="40.49" y2="55.56"/>
                  
            <g class="bond" id="mol1bnd15">
                        
                <line x1="44.76" x2="52.23" y1="55.56" y2="63.61"/>
                        
                <line x1="47.34" x2="54.02" y1="54.76" y2="61.95"/>
                      
                <line class="hi" stroke="#3050F8" x1="52.23" x2="48.495" y1="63.61" y2="59.585"/>
            </g>
                  
            <line class="bond" id="mol1bnd16" x1="58.46" x2="70.32" y1="66.48" y2="65.59"/>
                  
            <line class="bond" id="mol1bnd17" x1="78.91" x2="70.32" y1="53.0" y2="65.59"/>
                  
            <line class="bond" id="mol1bnd18" x1="44.76" x2="30.2" y1="55.56" y2="60.05"/>
                  
            <g class="bond" id="mol1bnd19">
                        
                <line x1="30.2" x2="19.07" y1="60.05" y2="49.75"/>
                        
                <line x1="27.5" x2="18.44" y1="60.88" y2="52.49"/>
                      
            </g>
                  
            <line class="bond" id="mol1bnd20" x1="19.07" x2="4.5" y1="49.75" y2="54.22"/>
                  
            <g class="bond" id="mol1bnd21">
                        
                <line x1="4.5" x2="1.05" y1="54.22" y2="68.98"/>
                        
                <line x1="6.55" x2="3.75" y1="56.14" y2="68.16"/>
                      
            </g>
                  
            <line class="bond" id="mol1bnd22" x1="1.05" x2="12.21" y1="68.98" y2="79.38"/>
                  
            <g class="bond" id="mol1bnd23">
                        
                <line x1="12.21" x2="26.78" y1="79.38" y2="74.91"/>
                        
                <line x1="12.84" x2="24.72" y1="76.63" y2="72.99"/>
                      
            </g>
                  
            <line class="bond" id="mol1bnd24" x1="30.2" x2="26.78" y1="60.05" y2="74.91"/>
                  
            <line class="bond" id="mol1bnd25" x1="26.78" x2="35.55" y1="74.91" y2="83.07"/>
                  
            <path class="atom" d="M101.01 41.25h-.72l-2.62 -4.07h-.03q.01 .24 .03 .6q.02 .36 .02 .73v2.74h-.57v-4.9h.71l2.61 4.05h.03q-.01 -.11 -.02 -.33q-.01 -.22 -.02 -.48q-.01 -.26 -.01 -.48v-2.77h.58v4.9z" id="mol1atm3" stroke="none"/>
                  
            <path class="atom" d="M96.09 55.67h-.72l-2.62 -4.07h-.03q.01 .24 .03 .6q.02 .36 .02 .73v2.74h-.57v-4.9h.71l2.61 4.05h.03q-.01 -.11 -.02 -.33q-.01 -.22 -.02 -.48q-.01 -.26 -.01 -.48v-2.77h.58v4.9z" id="mol1atm4" stroke="none"/>
                  
            <path class="atom" d="M76.36 40.88h-.72l-2.62 -4.07h-.03q.01 .24 .03 .6q.02 .36 .02 .73v2.74h-.57v-4.9h.71l2.61 4.05h.03q-.01 -.11 -.02 -.33q-.01 -.22 -.02 -.48q-.01 -.26 -.01 -.48v-2.77h.58v4.9z" id="mol1atm6" stroke="none"/>
                  
            <path class="atom" d="M58.6 19.1q.0 .65 -.48 1.02q-.47 .36 -1.27 .36q-.42 .0 -.77 -.07q-.35 -.06 -.58 -.17v-.59q.24 .11 .61 .2q.37 .09 .76 .09q.55 .0 .83 -.21q.28 -.21 .28 -.58q.0 -.24 -.11 -.4q-.1 -.17 -.35 -.31q-.25 -.14 -.7 -.3q-.63 -.23 -.95 -.55q-.32 -.33 -.32 -.9q.0 -.39 .2 -.67q.2 -.28 .55 -.43q.36 -.15 .82 -.15q.4 .0 .74 .08q.34 .07 .61 .2l-.2 .53q-.25 -.11 -.55 -.18q-.3 -.08 -.63 -.08q-.46 .0 -.69 .2q-.23 .2 -.23 .52q.0 .24 .1 .41q.11 .17 .34 .3q.23 .13 .63 .28q.43 .15 .73 .34q.3 .18 .45 .43q.15 .25 .15 .64z" fill="#C6C62C" id="mol1atm11" stroke="none"/>
                  
            <path class="atom" d="M31.83 1.35q-.79 .0 -1.24 .53q-.45 .52 -.45 1.45q.0 .91 .42 1.45q.42 .53 1.27 .53q.32 .0 .61 -.05q.29 -.06 .57 -.14v.54q-.27 .1 -.57 .15q-.29 .05 -.7 .05q-.74 .0 -1.25 -.31q-.5 -.31 -.75 -.88q-.25 -.57 -.25 -1.34q.0 -.74 .27 -1.31q.27 -.57 .8 -.88q.53 -.32 1.28 -.32q.78 .0 1.35 .29l-.24 .52q-.23 -.1 -.51 -.18q-.27 -.08 -.61 -.08zM34.58 5.77h-.6v-5.21h.6v5.21z" fill="#1FF01F" id="mol1atm12" stroke="none"/>
                  
            <path class="atom" d="M57.07 69.18h-.72l-2.62 -4.07h-.03q.01 .24 .03 .6q.02 .36 .02 .73v2.74h-.57v-4.9h.71l2.61 4.05h.03q-.01 -.11 -.02 -.33q-.01 -.22 -.02 -.48q-.01 -.26 -.01 -.48v-2.77h.58v4.9z" id="mol1atm14" stroke="none"/>
                  
            <path class="atom" d="M37.19 87.74h-.61v-4.9h2.73v.54h-2.12v1.74h1.99v.54h-1.99v2.08z" fill="#90E050" id="mol1atm22" stroke="none"/>
                
            <line class="hi" id="mol1bnd3" stroke="#3050F8" x1="97.78" x2="96.605" y1="42.58" y2="46.015"/>
            <line class="hi" id="mol1bnd3" stroke="#3050F8" x1="95.43" x2="96.605" y1="49.45" y2="46.015"/>
            <line class="hi" id="mol1bnd5" stroke="#3050F8" x1="75.58" x2="77.245" y1="42.22" y2="47.61"/>
            <line class="hi" id="mol1bnd6" stroke="#3050F8" x1="77.5" x2="82.19" y1="36.26" y2="32.96"/>
            <line class="hi" id="mol1bnd7" stroke="#3050F8" x1="71.17" x2="65.7" y1="37.16" y2="35.015"/>
            <line class="hi" id="mol1bnd11" stroke="#C6C62C" x1="54.16" x2="48.03" y1="17.65" y2="17.009999999999998"/>
            <line class="hi" id="mol1bnd12" stroke="#C6C62C" x1="57.89" x2="59.06" y1="21.85" y2="27.36"/>
            <line class="hi" id="mol1bnd13" stroke="#1FF01F" x1="35.28" x2="38.59" y1="4.9" y2="10.635000000000002"/>
            <line class="hi" id="mol1bnd16" stroke="#3050F8" x1="58.46" x2="64.39" y1="66.48" y2="66.035"/>
            <line class="hi" id="mol1bnd25" stroke="#90E050" x1="35.55" x2="31.165" y1="83.07" y2="78.99"/>
        </g>
          
    </g>
    
</svg>
