<svg xmlns="http://www.w3.org/2000/svg" xmlns:xlink="http://www.w3.org/1999/xlink" height="78.28mm" version="1.2" viewBox="0 0 122.3 78.28" width="122.3mm">
      
    <desc>Generated by the Chemistry Development Kit (http://github.com/cdk)</desc>
      
    <g fill="#90E050" stroke="#000000" stroke-linecap="round" stroke-linejoin="round" stroke-width=".7">
            
        <rect fill="#FFFFFF" height="79.0" stroke="none" width="123.0" x=".0" y=".0"/>
            
        <g class="mol" id="mol1">
                  
            <line class="bond" id="mol1bnd1" x1="67.03" x2="56.99" y1="1.04" y2="6.84"/>
                  
            <line class="bond" id="mol1bnd2" x1="53.84" x2="53.84" y1="12.51" y2="23.9"/>
                  
            <line class="bond" id="mol1bnd3" x1="53.84" x2="40.64" y1="23.9" y2="31.52"/>
                  
            <line class="bond" id="mol1bnd4" x1="40.64" x2="40.64" y1="31.52" y2="46.76"/>
                  
            <line class="bond" id="mol1bnd5" x1="40.64" x2="27.44" y1="46.76" y2="54.38"/>
                  
            <g class="bond" id="mol1bnd6">
                        
                <line x1="27.44" x2="27.44" y1="69.63" y2="54.38"/>
                        
                <line x1="25.01" x2="25.0" y1="68.22" y2="55.79"/>
                      
            </g>
                  
            <line class="bond" id="mol1bnd7" x1="27.44" x2="14.25" y1="69.63" y2="77.25"/>
                  
            <g class="bond" id="mol1bnd8">
                        
                <line x1="1.04" x2="14.25" y1="69.62" y2="77.25"/>
                        
                <line x1="3.48" x2="14.25" y1="68.21" y2="74.43"/>
                      
            </g>
                  
            <line class="bond" id="mol1bnd9" x1="1.04" x2="1.04" y1="69.62" y2="54.37"/>
                  
            <g class="bond" id="mol1bnd10">
                        
                <line x1="14.24" x2="1.04" y1="46.75" y2="54.37"/>
                        
                <line x1="14.24" x2="3.48" y1="49.57" y2="55.78"/>
                      
            </g>
                  
            <line class="bond" id="mol1bnd11" x1="27.44" x2="14.24" y1="54.38" y2="46.75"/>
                  
            <line class="bond" id="mol1bnd12" x1="40.64" x2="50.55" y1="46.76" y2="52.48"/>
                  
            <line class="bond" id="mol1bnd13" x1="57.11" x2="67.03" y1="52.49" y2="46.76"/>
                  
            <g class="bond" id="mol1bnd14">
                        
                <line x1="67.03" x2="80.69" y1="46.76" y2="54.49"/>
                        
                <line x1="69.48" x2="80.67" y1="45.34" y2="51.68"/>
                      
            </g>
                  
            <line class="bond" id="mol1bnd15" x1="80.69" x2="93.65" y1="54.49" y2="46.98"/>
                  
            <g class="bond" id="mol1bnd16">
                        
                <line x1="93.65" x2="93.78" y1="46.98" y2="31.74"/>
                        
                <line x1="91.23" x2="91.33" y1="45.57" y2="33.11"/>
                      
            </g>
                  
            <line class="bond" id="mol1bnd17" x1="93.78" x2="80.94" y1="31.74" y2="24.01"/>
                  
            <g class="bond" id="mol1bnd18">
                        
                <line x1="80.94" x2="67.16" y1="24.01" y2="31.52"/>
                        
                <line x1="80.88" x2="69.59" y1="26.82" y2="32.97"/>
                      
            </g>
                  
            <line class="bond" id="mol1bnd19" x1="67.03" x2="67.16" y1="46.76" y2="31.52"/>
                  
            <line class="bond" id="mol1bnd20" x1="93.78" x2="107.08" y1="31.74" y2="24.29"/>
                  
            <line class="bond" id="mol1bnd21" x1="107.08" x2="112.47" y1="24.29" y2="33.93"/>
                  
            <line class="bond" id="mol1bnd22" x1="107.08" x2="117.79" y1="24.29" y2="18.3"/>
                  
            <line class="bond" id="mol1bnd23" x1="107.08" x2="100.9" y1="24.29" y2="13.27"/>
                  
            <g class="atom" id="mol1atm2">
                        
                <path d="M55.78 11.11h-.72l-2.62 -4.07h-.03q.01 .24 .03 .6q.02 .36 .02 .73v2.74h-.57v-4.9h.71l2.61 4.05h.03q-.01 -.11 -.02 -.33q-.01 -.22 -.02 -.48q-.01 -.26 -.01 -.48v-2.77h.58v4.9z" fill="#3050F8" stroke="none"/>
                        
                <path d="M51.33 11.11h-.62v-2.29h-2.51v2.29h-.61v-4.9h.61v2.07h2.51v-2.07h.62v4.9z" fill="#3050F8" stroke="none"/>
                      
            </g>
                  
            <path class="atom" d="M56.1 54.38q.0 .76 -.26 1.33q-.26 .57 -.76 .88q-.5 .32 -1.24 .32q-.76 .0 -1.26 -.32q-.51 -.32 -.76 -.89q-.24 -.57 -.24 -1.33q.0 -.75 .24 -1.31q.25 -.57 .76 -.88q.51 -.32 1.27 -.32q.73 .0 1.23 .32q.5 .31 .76 .88q.26 .57 .26 1.33zM52.23 54.38q.0 .92 .39 1.46q.39 .53 1.22 .53q.84 .0 1.22 -.53q.39 -.54 .39 -1.46q.0 -.93 -.39 -1.45q-.38 -.52 -1.21 -.52q-.83 .0 -1.23 .52q-.39 .52 -.39 1.45z" fill="#FF0D0D" id="mol1atm12" stroke="none"/>
                  
            <path class="atom" d="M113.77 40.04h-.61v-4.9h2.73v.54h-2.12v1.74h1.99v.54h-1.99v2.08z" id="mol1atm20" stroke="none"/>
                  
            <path class="atom" d="M119.62 19.3h-.61v-4.9h2.73v.54h-2.12v1.74h1.99v.54h-1.99v2.08z" id="mol1atm21" stroke="none"/>
                  
            <path class="atom" d="M98.88 13.45h-.61v-4.9h2.73v.54h-2.12v1.74h1.99v.54h-1.99v2.08z" id="mol1atm22" stroke="none"/>
                
            <line class="hi" id="mol1bnd1" stroke="#3050F8" x1="56.99" x2="62.010000000000005" y1="6.84" y2="3.94"/>
            <line class="hi" id="mol1bnd1" stroke="#3050F8" x1="56.99" x2="62.010000000000005" y1="6.84" y2="3.94"/>
            <line class="hi" id="mol1bnd2" stroke="#3050F8" x1="53.84" x2="53.84" y1="12.51" y2="18.205"/>
            <line class="hi" id="mol1bnd2" stroke="#3050F8" x1="53.84" x2="53.84" y1="12.51" y2="18.205"/>
            <line class="hi" id="mol1bnd12" stroke="#FF0D0D" x1="50.55" x2="45.595" y1="52.48" y2="49.62"/>
            <line class="hi" id="mol1bnd13" stroke="#FF0D0D" x1="57.11" x2="62.07" y1="52.49" y2="49.625"/>
            <line class="hi" id="mol1bnd21" stroke="#90E050" x1="112.47" x2="109.775" y1="33.93" y2="29.11"/>
            <line class="hi" id="mol1bnd22" stroke="#90E050" x1="117.79" x2="112.435" y1="18.3" y2="21.295"/>
            <line class="hi" id="mol1bnd23" stroke="#90E050" x1="100.9" x2="103.99000000000001" y1="13.27" y2="18.78"/>
        </g>
          
    </g>
    
</svg>
