<svg xmlns="http://www.w3.org/2000/svg" xmlns:xlink="http://www.w3.org/1999/xlink" height="110.66mm" version="1.2" viewBox="0 0 148.16 110.66" width="148.16mm">
      
    <desc>Generated by the Chemistry Development Kit (http://github.com/cdk)</desc>
      
    <g fill="#3050F8" stroke="#000000" stroke-linecap="round" stroke-linejoin="round" stroke-width=".7">
            
        <rect fill="#FFFFFF" height="111.0" stroke="none" width="149.0" x=".0" y=".0"/>
            
        <g class="mol" id="mol1">
                  
            <line class="bond" id="mol1bnd1" x1="1.04" x2="10.95" y1="63.96" y2="69.69"/>
                  
            <line class="bond" id="mol1bnd2" x1="17.51" x2="27.43" y1="69.69" y2="63.97"/>
                  
            <line class="bond" id="mol1bnd3" x1="27.43" x2="40.63" y1="63.97" y2="71.59"/>
                  
            <line class="bond" id="mol1bnd4" x1="40.63" x2="53.83" y1="71.59" y2="63.97"/>
                  
            <line class="bond" id="mol1bnd5" x1="53.83" x2="67.03" y1="63.97" y2="71.59"/>
                  
            <line class="bond" id="mol1bnd6" x1="67.03" x2="80.23" y1="71.59" y2="63.97"/>
                  
            <g class="bond" id="mol1bnd7">
                        
                <line x1="80.23" x2="80.23" y1="52.58" y2="63.97"/>
                        
                <line x1="77.79" x2="77.79" y1="52.58" y2="62.57"/>
                      
                <line class="hi" stroke="#3050F8" x1="80.23" x2="80.23" y1="52.58" y2="58.275"/>
                <line class="hi" stroke="#3050F8" x1="77.79" x2="77.79" y1="52.58" y2="57.575"/>
            </g>
                  
            <line class="bond" id="mol1bnd8" x1="77.08" x2="70.31" y1="46.91" y2="43.0"/>
                  
            <line class="bond" id="mol1bnd9" x1="67.03" x2="67.04" y1="37.19" y2="25.87"/>
                  
            <line class="bond" id="mol1bnd10" x1="67.04" x2="53.84" y1="25.87" y2="18.25"/>
                  
            <line class="bond" id="mol1bnd11" x1="53.84" x2="53.84" y1="18.25" y2="7.19"/>
                  
            <line class="bond" id="mol1bnd12" x1="80.23" x2="93.42" y1="63.97" y2="71.6"/>
                  
            <g class="bond" id="mol1bnd13">
                        
                <line x1="106.63" x2="93.42" y1="63.98" y2="71.6"/>
                        
                <line x1="106.63" x2="95.86" y1="66.79" y2="73.0"/>
                      
            </g>
                  
            <line class="bond" id="mol1bnd14" x1="106.63" x2="119.84" y1="63.98" y2="71.6"/>
                  
            <g class="bond" id="mol1bnd15">
                        
                <line x1="119.84" x2="119.84" y1="86.84" y2="71.6"/>
                        
                <line x1="117.4" x2="117.4" y1="85.43" y2="73.0"/>
                      
            </g>
                  
            <line class="bond" id="mol1bnd16" x1="119.84" x2="106.63" y1="86.84" y2="94.46"/>
                  
            <g class="bond" id="mol1bnd17">
                        
                <line x1="93.42" x2="106.63" y1="86.84" y2="94.46"/>
                        
                <line x1="95.86" x2="106.63" y1="85.43" y2="91.64"/>
                      
            </g>
                  
            <line class="bond" id="mol1bnd18" x1="93.42" x2="93.42" y1="71.6" y2="86.84"/>
                  
            <line class="bond" id="mol1bnd19" x1="119.84" x2="133.04" y1="86.84" y2="94.46"/>
                  
            <line class="bond" id="mol1bnd20" x1="133.04" x2="127.48" y1="94.46" y2="104.08"/>
                  
            <line class="bond" id="mol1bnd21" x1="133.04" x2="143.66" y1="94.46" y2="100.59"/>
                  
            <line class="bond" id="mol1bnd22" x1="133.04" x2="138.59" y1="94.46" y2="84.84"/>
                  
            <path class="atom" d="M16.49 71.58q.0 .76 -.26 1.33q-.26 .57 -.76 .88q-.5 .32 -1.24 .32q-.76 .0 -1.26 -.32q-.51 -.32 -.76 -.89q-.24 -.57 -.24 -1.33q.0 -.75 .24 -1.31q.25 -.57 .76 -.88q.51 -.32 1.27 -.32q.73 .0 1.23 .32q.5 .31 .76 .88q.26 .57 .26 1.33zM12.63 71.58q.0 .92 .39 1.46q.39 .53 1.22 .53q.84 .0 1.22 -.53q.39 -.54 .39 -1.46q.0 -.93 -.39 -1.45q-.38 -.52 -1.21 -.52q-.83 .0 -1.23 .52q-.39 .52 -.39 1.45z" fill="#FF0D0D" id="mol1atm2" stroke="none"/>
                  
            <path class="atom" d="M82.17 51.18h-.72l-2.62 -4.07h-.03q.01 .24 .03 .6q.02 .36 .02 .73v2.74h-.57v-4.9h.71l2.61 4.05h.03q-.01 -.11 -.02 -.33q-.01 -.22 -.02 -.48q-.01 -.26 -.01 -.48v-2.77h.58v4.9z" id="mol1atm8" stroke="none"/>
                  
            <path class="atom" d="M69.29 41.11q.0 .76 -.26 1.33q-.26 .57 -.76 .88q-.5 .32 -1.24 .32q-.76 .0 -1.26 -.32q-.51 -.32 -.76 -.89q-.24 -.57 -.24 -1.33q.0 -.75 .24 -1.31q.25 -.57 .76 -.88q.51 -.32 1.27 -.32q.73 .0 1.23 .32q.5 .31 .76 .88q.26 .57 .26 1.33zM65.43 41.11q.0 .92 .39 1.46q.39 .53 1.22 .53q.84 .0 1.22 -.53q.39 -.54 .39 -1.46q.0 -.93 -.39 -1.45q-.38 -.52 -1.21 -.52q-.83 .0 -1.23 .52q-.39 .52 -.39 1.45z" fill="#FF0D0D" id="mol1atm9" stroke="none"/>
                  
            <g class="atom" id="mol1atm12">
                        
                <path d="M55.78 5.46h-.72l-2.62 -4.07h-.03q.01 .24 .03 .6q.02 .36 .02 .73v2.74h-.57v-4.9h.71l2.61 4.05h.03q-.01 -.11 -.02 -.33q-.01 -.22 -.02 -.48q-.01 -.26 -.01 -.48v-2.77h.58v4.9z" stroke="none"/>
                        
                <path d="M60.09 5.46h-.62v-2.29h-2.51v2.29h-.61v-4.9h.61v2.07h2.51v-2.07h.62v4.9z" stroke="none"/>
                        
                <path d="M62.59 6.95h-1.94v-.3l.77 -.78q.22 -.22 .37 -.39q.15 -.18 .23 -.34q.08 -.17 .08 -.36q.0 -.24 -.15 -.37q-.14 -.13 -.37 -.13q-.21 .0 -.38 .08q-.16 .08 -.33 .21l-.19 -.24q.17 -.15 .39 -.25q.23 -.1 .51 -.1q.41 .0 .65 .21q.24 .21 .24 .58q.0 .23 -.1 .43q-.09 .2 -.26 .4q-.17 .2 -.39 .42l-.61 .6v.02h1.49v.33z" stroke="none"/>
                      
            </g>
                  
            <path class="atom" d="M124.66 110.1h-.61v-4.9h2.73v.54h-2.12v1.74h1.99v.54h-1.99v2.08z" fill="#90E050" id="mol1atm20" stroke="none"/>
                  
            <path class="atom" d="M145.48 104.53h-.61v-4.9h2.73v.54h-2.12v1.74h1.99v.54h-1.99v2.08z" fill="#90E050" id="mol1atm21" stroke="none"/>
                  
            <path class="atom" d="M139.91 83.71h-.61v-4.9h2.73v.54h-2.12v1.74h1.99v.54h-1.99v2.08z" fill="#90E050" id="mol1atm22" stroke="none"/>
                
            <line class="hi" id="mol1bnd1" stroke="#FF0D0D" x1="10.95" x2="5.994999999999999" y1="69.69" y2="66.825"/>
            <line class="hi" id="mol1bnd2" stroke="#FF0D0D" x1="17.51" x2="22.47" y1="69.69" y2="66.83"/>
            <line class="hi" id="mol1bnd8" stroke="#3050F8" x1="77.08" x2="73.695" y1="46.91" y2="44.955"/>
            <line class="hi" id="mol1bnd8" stroke="#FF0D0D" x1="70.31" x2="73.695" y1="43.0" y2="44.955"/>
            <line class="hi" id="mol1bnd9" stroke="#FF0D0D" x1="67.03" x2="67.035" y1="37.19" y2="31.53"/>
            <line class="hi" id="mol1bnd11" stroke="#3050F8" x1="53.84" x2="53.84" y1="7.190000000000001" y2="12.72"/>
            <line class="hi" id="mol1bnd11" stroke="#3050F8" x1="53.84" x2="53.84" y1="7.190000000000001" y2="12.72"/>
            <line class="hi" id="mol1bnd20" stroke="#90E050" x1="127.48" x2="130.26" y1="104.08" y2="99.27"/>
            <line class="hi" id="mol1bnd21" stroke="#90E050" x1="143.66" x2="138.35" y1="100.59" y2="97.525"/>
            <line class="hi" id="mol1bnd22" stroke="#90E050" x1="138.59" x2="135.815" y1="84.84" y2="89.65"/>
        </g>
          
    </g>
    
</svg>
