<svg xmlns="http://www.w3.org/2000/svg" xmlns:xlink="http://www.w3.org/1999/xlink" height="62.83mm" version="1.2" viewBox="0 0 82.98 62.83" width="82.98mm">
      
    <desc>Generated by the Chemistry Development Kit (http://github.com/cdk)</desc>
      
    <g fill="#3050F8" stroke="#000000" stroke-linecap="round" stroke-linejoin="round" stroke-width=".7">
            
        <rect fill="#FFFFFF" height="63.0" stroke="none" width="83.0" x=".0" y=".0"/>
            
        <g class="mol" id="mol1">
                  
            <line class="bond" id="mol1bnd1" x1="72.22" x2="67.02" y1="61.06" y2="46.75"/>
                  
            <line class="bond" id="mol1bnd2" x1="67.02" x2="67.02" y1="46.75" y2="31.51"/>
                  
            <line class="bond" id="mol1bnd3" x1="67.02" x2="57.09" y1="31.51" y2="25.79"/>
                  
            <line class="bond" id="mol1bnd4" x1="50.53" x2="40.61" y1="25.79" y2="31.51"/>
                  
            <line class="bond" id="mol1bnd5" x1="40.61" x2="40.61" y1="31.51" y2="46.75"/>
                  
            <line class="bond" id="mol1bnd6" x1="40.61" x2="50.66" y1="46.75" y2="52.54"/>
                  
            <line class="bond" id="mol1bnd7" x1="67.02" x2="56.97" y1="46.75" y2="52.54"/>
                  
            <line class="bond" id="mol1bnd8" x1="40.61" x2="27.42" y1="31.51" y2="23.9"/>
                  
            <g class="bond" id="mol1bnd9">
                        
                <line x1="14.23" x2="27.42" y1="31.52" y2="23.9"/>
                        
                <line x1="14.23" x2="24.99" y1="28.7" y2="22.49"/>
                      
            </g>
                  
            <line class="bond" id="mol1bnd10" x1="14.23" x2="1.04" y1="31.52" y2="23.9"/>
                  
            <g class="bond" id="mol1bnd11">
                        
                <line x1="1.05" x2="1.04" y1="8.66" y2="23.9"/>
                        
                <line x1="3.48" x2="3.48" y1="10.07" y2="22.49"/>
                      
            </g>
                  
            <line class="bond" id="mol1bnd12" x1="1.05" x2="14.24" y1="8.66" y2="1.04"/>
                  
            <g class="bond" id="mol1bnd13">
                        
                <line x1="27.43" x2="14.24" y1="8.66" y2="1.04"/>
                        
                <line x1="24.99" x2="14.24" y1="10.06" y2="3.85"/>
                      
            </g>
                  
            <line class="bond" id="mol1bnd14" x1="27.42" x2="27.43" y1="23.9" y2="8.66"/>
                  
            <line class="bond" id="mol1bnd15" x1="67.02" x2="82.02" y1="46.75" y2="44.1"/>
                  
            <path class="atom" d="M56.07 23.9q.0 .76 -.26 1.33q-.26 .57 -.76 .88q-.5 .32 -1.24 .32q-.76 .0 -1.26 -.32q-.51 -.32 -.76 -.89q-.24 -.57 -.24 -1.33q.0 -.75 .24 -1.31q.25 -.57 .76 -.88q.51 -.32 1.27 -.32q.73 .0 1.23 .32q.5 .31 .76 .88q.26 .57 .26 1.33zM52.21 23.9q.0 .92 .39 1.46q.39 .53 1.22 .53q.84 .0 1.22 -.53q.39 -.54 .39 -1.46q.0 -.93 -.39 -1.45q-.38 -.52 -1.21 -.52q-.83 .0 -1.23 .52q-.39 .52 -.39 1.45z" fill="#FF0D0D" id="mol1atm4" stroke="none"/>
                  
            <g class="atom" id="mol1atm7">
                        
                <path d="M55.76 56.81h-.72l-2.62 -4.07h-.03q.01 .24 .03 .6q.02 .36 .02 .73v2.74h-.57v-4.9h.71l2.61 4.05h.03q-.01 -.11 -.02 -.33q-.01 -.22 -.02 -.48q-.01 -.26 -.01 -.48v-2.77h.58v4.9z" stroke="none"/>
                        
                <path d="M55.62 62.27h-.62v-2.29h-2.51v2.29h-.61v-4.9h.61v2.07h2.51v-2.07h.62v4.9z" stroke="none"/>
                      
            </g>
                
            <line class="hi" id="mol1bnd3" stroke="#FF0D0D" x1="57.09" x2="62.055" y1="25.79" y2="28.65"/>
            <line class="hi" id="mol1bnd4" stroke="#FF0D0D" x1="50.53" x2="45.57" y1="25.79" y2="28.65"/>
            <line class="hi" id="mol1bnd6" stroke="#3050F8" x1="50.66" x2="45.635" y1="52.54" y2="49.644999999999996"/>
            <line class="hi" id="mol1bnd7" stroke="#3050F8" x1="56.97" x2="61.995" y1="52.54" y2="49.644999999999996"/>
        </g>
          
    </g>
    
</svg>
