<svg xmlns="http://www.w3.org/2000/svg" xmlns:xlink="http://www.w3.org/1999/xlink" height="27.55mm" version="1.2" viewBox="0 0 42.94 27.55" width="42.94mm">
      
    <desc>Generated by the Chemistry Development Kit (http://github.com/cdk)</desc>
      
    <g fill="#FF0D0D" stroke="#000000" stroke-linecap="round" stroke-linejoin="round" stroke-width=".7">
            
        <rect fill="#FFFFFF" height="28.0" stroke="none" width="43.0" x=".0" y=".0"/>
            
        <g class="mol" id="mol1">
                  
            <line class="bond" id="mol1bnd1" x1="5.72" x2="20.96" y1="26.55" y2="26.55"/>
                  
            <line class="bond" id="mol1bnd2" x1="20.96" x2="25.64" y1="26.55" y2="12.02"/>
                  
            <g class="bond" id="mol1bnd3">
                        
                <line x1="24.42" x2="36.16" y1="11.14" y2="7.31"/>
                        
                <line x1="25.18" x2="36.91" y1="13.45" y2="9.63"/>
                      
                <line class="hi" stroke="#FF0D0D" x1="36.16" x2="30.29" y1="7.31" y2="9.225"/>
                <line class="hi" stroke="#FF0D0D" x1="36.91" x2="31.044999999999998" y1="9.63" y2="11.54"/>
            </g>
                  
            <line class="bond" id="mol1bnd4" x1="25.64" x2="16.43" y1="12.02" y2="5.33"/>
                  
            <line class="bond" id="mol1bnd5" x1="10.24" x2="1.05" y1="5.33" y2="12.02"/>
                  
            <line class="bond" id="mol1bnd6" x1="5.72" x2="1.05" y1="26.55" y2="12.02"/>
                  
            <path class="atom" d="M42.38 7.29q.0 .76 -.26 1.33q-.26 .57 -.76 .88q-.5 .32 -1.24 .32q-.76 .0 -1.26 -.32q-.51 -.32 -.76 -.89q-.24 -.57 -.24 -1.33q.0 -.75 .24 -1.31q.25 -.57 .76 -.88q.51 -.32 1.27 -.32q.73 .0 1.23 .32q.5 .31 .76 .88q.26 .57 .26 1.33zM38.52 7.29q.0 .92 .39 1.46q.39 .53 1.22 .53q.84 .0 1.22 -.53q.39 -.54 .39 -1.46q.0 -.93 -.39 -1.45q-.38 -.52 -1.21 -.52q-.83 .0 -1.23 .52q-.39 .52 -.39 1.45z" id="mol1atm4" stroke="none"/>
                  
            <path class="atom" d="M15.6 3.08q.0 .76 -.26 1.33q-.26 .57 -.76 .88q-.5 .32 -1.24 .32q-.76 .0 -1.26 -.32q-.51 -.32 -.76 -.89q-.24 -.57 -.24 -1.33q.0 -.75 .24 -1.31q.25 -.57 .76 -.88q.51 -.32 1.27 -.32q.73 .0 1.23 .32q.5 .31 .76 .88q.26 .57 .26 1.33zM11.74 3.08q.0 .92 .39 1.46q.39 .53 1.22 .53q.84 .0 1.22 -.53q.39 -.54 .39 -1.46q.0 -.93 -.39 -1.45q-.38 -.52 -1.21 -.52q-.83 .0 -1.23 .52q-.39 .52 -.39 1.45z" id="mol1atm5" stroke="none"/>
                
            <line class="hi" id="mol1bnd4" stroke="#FF0D0D" x1="16.43" x2="21.035" y1="5.33" y2="8.675"/>
            <line class="hi" id="mol1bnd5" stroke="#FF0D0D" x1="10.24" x2="5.6450000000000005" y1="5.33" y2="8.675"/>
        </g>
          
    </g>
    
</svg>
