<svg xmlns="http://www.w3.org/2000/svg" xmlns:xlink="http://www.w3.org/1999/xlink" height="116.35mm" version="1.2" viewBox="0 0 94.48 116.35" width="94.48mm">
      
    <desc>Generated by the Chemistry Development Kit (http://github.com/cdk)</desc>
      
    <g fill="#FF0D0D" stroke="#000000" stroke-linecap="round" stroke-linejoin="round" stroke-width=".7">
            
        <rect fill="#FFFFFF" height="117.0" stroke="none" width="95.0" x=".0" y=".0"/>
            
        <g class="mol" id="mol1">
                  
            <line class="bond" id="mol1bnd1" x1="93.44" x2="83.42" y1="46.77" y2="40.95"/>
                  
            <line class="bond" id="mol1bnd2" x1="80.27" x2="80.27" y1="35.26" y2="23.77"/>
                  
            <line class="bond" id="mol1bnd3" x1="80.27" x2="67.06" y1="23.77" y2="16.15"/>
                  
            <line class="bond" id="mol1bnd4" x1="67.06" x2="53.85" y1="16.15" y2="23.77"/>
                  
            <g class="bond" id="mol1bnd5">
                        
                <line x1="53.85" x2="40.64" y1="23.77" y2="16.15"/>
                        
                <line x1="51.41" x2="40.64" y1="25.18" y2="18.97"/>
                      
            </g>
                  
            <line class="bond" id="mol1bnd6" x1="40.64" x2="27.43" y1="16.15" y2="23.77"/>
                  
            <g class="bond" id="mol1bnd7">
                        
                <line x1="27.43" x2="27.43" y1="23.77" y2="39.11"/>
                        
                <line x1="29.87" x2="29.87" y1="25.18" y2="37.7"/>
                      
            </g>
                  
            <line class="bond" id="mol1bnd8" x1="27.43" x2="40.64" y1="39.11" y2="46.63"/>
                  
            <g class="bond" id="mol1bnd9">
                        
                <line x1="40.64" x2="53.85" y1="46.63" y2="39.11"/>
                        
                <line x1="40.64" x2="51.41" y1="43.83" y2="37.7"/>
                      
            </g>
                  
            <line class="bond" id="mol1bnd10" x1="53.85" x2="53.85" y1="23.77" y2="39.11"/>
                  
            <line class="bond" id="mol1bnd11" x1="53.85" x2="67.06" y1="39.11" y2="46.63"/>
                  
            <path class="bond" d="M66.88 46.33l.35 .61l10.71 -4.56l-.83 -1.46l-.83 -1.46z" fill="#000000" id="mol1bnd12" stroke="none"/>
                  
            <line class="bond" id="mol1bnd13" x1="67.06" x2="67.06" y1="46.63" y2="61.97"/>
                  
            <line class="bond" id="mol1bnd14" x1="67.06" x2="53.85" y1="61.97" y2="69.59"/>
                  
            <g class="bond" id="mol1bnd15">
                        
                <line x1="53.85" x2="53.85" y1="84.73" y2="69.59"/>
                        
                <line x1="51.41" x2="51.41" y1="83.33" y2="71.0"/>
                      
            </g>
                  
            <line class="bond" id="mol1bnd16" x1="53.85" x2="40.64" y1="84.73" y2="92.45"/>
                  
            <g class="bond" id="mol1bnd17">
                        
                <line x1="27.43" x2="40.64" y1="84.73" y2="92.45"/>
                        
                <line x1="29.87" x2="40.64" y1="83.33" y2="89.63"/>
                      
            </g>
                  
            <line class="bond" id="mol1bnd18" x1="27.43" x2="27.43" y1="84.73" y2="69.59"/>
                  
            <g class="bond" id="mol1bnd19">
                        
                <line x1="40.64" x2="27.43" y1="61.97" y2="69.59"/>
                        
                <line x1="40.64" x2="29.87" y1="64.79" y2="71.0"/>
                      
            </g>
                  
            <line class="bond" id="mol1bnd20" x1="53.85" x2="40.64" y1="69.59" y2="61.97"/>
                  
            <line class="bond" id="mol1bnd21" x1="40.64" x2="40.64" y1="46.63" y2="61.97"/>
                  
            <line class="bond" id="mol1bnd22" x1="27.43" x2="17.5" y1="84.73" y2="90.43"/>
                  
            <line class="bond" id="mol1bnd23" x1="14.2" x2="14.17" y1="96.24" y2="107.56"/>
                  
            <line class="bond" id="mol1bnd24" x1="40.64" x2="40.64" y1="92.45" y2="103.77"/>
                  
            <line class="bond" id="mol1bnd25" x1="37.36" x2="27.44" y1="109.59" y2="115.31"/>
                  
            <line class="bond" id="mol1bnd26" x1="27.43" x2="17.53" y1="39.11" y2="44.87"/>
                  
            <line class="bond" id="mol1bnd27" x1="10.97" x2="1.04" y1="44.89" y2="39.19"/>
                  
            <line class="bond" id="mol1bnd28" x1="27.43" x2="17.51" y1="23.77" y2="18.04"/>
                  
            <line class="bond" id="mol1bnd29" x1="14.24" x2="14.24" y1="12.23" y2=".91"/>
                  
            <path class="atom" d="M82.21 41.56h-.72l-2.62 -4.07h-.03q.01 .24 .03 .6q.02 .36 .02 .73v2.74h-.57v-4.9h.71l2.61 4.05h.03q-.01 -.11 -.02 -.33q-.01 -.22 -.02 -.48q-.01 -.26 -.01 -.48v-2.77h.58v4.9z" fill="#3050F8" id="mol1atm2" stroke="none"/>
                  
            <path class="atom" d="M16.47 92.31q.0 .76 -.26 1.33q-.26 .57 -.76 .88q-.5 .32 -1.24 .32q-.76 .0 -1.26 -.32q-.51 -.32 -.76 -.89q-.24 -.57 -.24 -1.33q.0 -.75 .24 -1.31q.25 -.57 .76 -.88q.51 -.32 1.27 -.32q.73 .0 1.23 .32q.5 .31 .76 .88q.26 .57 .26 1.33zM12.61 92.31q.0 .92 .39 1.46q.39 .53 1.22 .53q.84 .0 1.22 -.53q.39 -.54 .39 -1.46q.0 -.93 -.39 -1.45q-.38 -.52 -1.21 -.52q-.83 .0 -1.23 .52q-.39 .52 -.39 1.45z" id="mol1atm19" stroke="none"/>
                  
            <path class="atom" d="M42.9 107.69q.0 .76 -.26 1.33q-.26 .57 -.76 .88q-.5 .32 -1.24 .32q-.76 .0 -1.26 -.32q-.51 -.32 -.76 -.89q-.24 -.57 -.24 -1.33q.0 -.75 .24 -1.31q.25 -.57 .76 -.88q.51 -.32 1.27 -.32q.73 .0 1.23 .32q.5 .31 .76 .88q.26 .57 .26 1.33zM39.04 107.69q.0 .92 .39 1.46q.39 .53 1.22 .53q.84 .0 1.22 -.53q.39 -.54 .39 -1.46q.0 -.93 -.39 -1.45q-.38 -.52 -1.21 -.52q-.83 .0 -1.23 .52q-.39 .52 -.39 1.45z" id="mol1atm21" stroke="none"/>
                  
            <path class="atom" d="M16.52 46.77q.0 .76 -.26 1.33q-.26 .57 -.76 .88q-.5 .32 -1.24 .32q-.76 .0 -1.26 -.32q-.51 -.32 -.76 -.89q-.24 -.57 -.24 -1.33q.0 -.75 .24 -1.31q.25 -.57 .76 -.88q.51 -.32 1.27 -.32q.73 .0 1.23 .32q.5 .31 .76 .88q.26 .57 .26 1.33zM12.65 46.77q.0 .92 .39 1.46q.39 .53 1.22 .53q.84 .0 1.22 -.53q.39 -.54 .39 -1.46q.0 -.93 -.39 -1.45q-.38 -.52 -1.21 -.52q-.83 .0 -1.23 .52q-.39 .52 -.39 1.45z" id="mol1atm23" stroke="none"/>
                  
            <path class="atom" d="M16.5 16.15q.0 .76 -.26 1.33q-.26 .57 -.76 .88q-.5 .32 -1.24 .32q-.76 .0 -1.26 -.32q-.51 -.32 -.76 -.89q-.24 -.57 -.24 -1.33q.0 -.75 .24 -1.31q.25 -.57 .76 -.88q.51 -.32 1.27 -.32q.73 .0 1.23 .32q.5 .31 .76 .88q.26 .57 .26 1.33zM12.63 16.15q.0 .92 .39 1.46q.39 .53 1.22 .53q.84 .0 1.22 -.53q.39 -.54 .39 -1.46q.0 -.93 -.39 -1.45q-.38 -.52 -1.21 -.52q-.83 .0 -1.23 .52q-.39 .52 -.39 1.45z" id="mol1atm25" stroke="none"/>
                
            <line class="hi" id="mol1bnd1" stroke="#3050F8" x1="83.42" x2="88.43" y1="40.95" y2="43.86"/>
            <line class="hi" id="mol1bnd2" stroke="#3050F8" x1="80.27" x2="80.27" y1="35.26" y2="29.515"/>
            <line class="hi" id="mol1bnd22" stroke="#FF0D0D" x1="17.5" x2="22.465" y1="90.43" y2="87.58000000000001"/>
            <line class="hi" id="mol1bnd23" stroke="#FF0D0D" x1="14.2" x2="14.184999999999999" y1="96.24" y2="101.9"/>
            <line class="hi" id="mol1bnd24" stroke="#FF0D0D" x1="40.64" x2="40.64" y1="103.77" y2="98.11"/>
            <line class="hi" id="mol1bnd25" stroke="#FF0D0D" x1="37.36" x2="32.4" y1="109.59" y2="112.45"/>
            <line class="hi" id="mol1bnd26" stroke="#FF0D0D" x1="17.53" x2="22.48" y1="44.87" y2="41.989999999999995"/>
            <line class="hi" id="mol1bnd27" stroke="#FF0D0D" x1="10.97" x2="6.005000000000001" y1="44.89" y2="42.04"/>
            <line class="hi" id="mol1bnd28" stroke="#FF0D0D" x1="17.51" x2="22.47" y1="18.04" y2="20.905"/>
            <line class="hi" id="mol1bnd29" stroke="#FF0D0D" x1="14.24" x2="14.24" y1="12.23" y2="6.57"/>
        </g>
          
    </g>
    
</svg>
