<svg xmlns="http://www.w3.org/2000/svg" xmlns:xlink="http://www.w3.org/1999/xlink" height="51.9mm" version="1.2" viewBox="0 0 88.5 51.9" width="88.5mm">
      
    <desc>Generated by the Chemistry Development Kit (http://github.com/cdk)</desc>
      
    <g fill="#FF0D0D" stroke="#000000" stroke-linecap="round" stroke-linejoin="round" stroke-width=".7">
            
        <rect fill="#FFFFFF" height="52.0" stroke="none" width="89.0" x=".0" y=".0"/>
            
        <g class="mol" id="mol1">
                  
            <line class="bond" id="mol1bnd1" x1="62.65" x2="47.64" y1="42.92" y2="40.28"/>
                  
            <line class="bond" id="mol1bnd2" x1="47.64" x2="42.42" y1="40.28" y2="25.96"/>
                  
            <line class="bond" id="mol1bnd3" x1="42.42" x2="42.42" y1="25.96" y2="10.71"/>
                  
            <line class="bond" id="mol1bnd4" x1="42.42" x2="29.22" y1="10.71" y2="3.08"/>
                  
            <line class="bond" id="mol1bnd5" x1="29.22" x2="16.02" y1="3.08" y2="10.7"/>
                  
            <g class="bond" id="mol1bnd6">
                        
                <line x1="16.02" x2="5.49" y1="12.11" y2="6.03"/>
                        
                <line x1="17.24" x2="6.7" y1="10.0" y2="3.92"/>
                      
                <line class="hi" stroke="#FF0D0D" x1="5.49" x2="10.754999999999999" y1="6.03" y2="9.07"/>
                <line class="hi" stroke="#FF0D0D" x1="6.699999999999999" x2="11.969999999999999" y1="3.92" y2="6.96"/>
            </g>
                  
            <line class="bond" id="mol1bnd7" x1="16.02" x2="16.02" y1="10.7" y2="22.1"/>
                  
            <line class="bond" id="mol1bnd8" x1="19.18" x2="29.23" y1="27.77" y2="33.58"/>
                  
            <line class="bond" id="mol1bnd9" x1="42.42" x2="29.23" y1="25.96" y2="33.58"/>
                  
            <g class="bond" id="mol1bnd10">
                        
                <line x1="30.45" x2="30.44" y1="32.87" y2="44.89"/>
                        
                <line x1="28.01" x2="28.01" y1="32.87" y2="44.89"/>
                      
                <line class="hi" stroke="#FF0D0D" x1="30.44" x2="30.445" y1="44.89" y2="38.879999999999995"/>
                <line class="hi" stroke="#FF0D0D" x1="28.01" x2="28.01" y1="44.89" y2="38.879999999999995"/>
            </g>
                  
            <line class="bond" id="mol1bnd11" x1="42.42" x2="57.43" y1="25.96" y2="23.31"/>
                  
            <g class="bond" id="mol1bnd12">
                        
                <line x1="62.64" x2="57.43" y1="8.97" y2="23.31"/>
                        
                <line x1="64.45" x2="60.21" y1="11.13" y2="22.82"/>
                      
            </g>
                  
            <line class="bond" id="mol1bnd13" x1="62.64" x2="77.65" y1="8.97" y2="6.33"/>
                  
            <g class="bond" id="mol1bnd14">
                        
                <line x1="87.45" x2="77.65" y1="18.01" y2="6.33"/>
                        
                <line x1="84.68" x2="76.69" y1="18.5" y2="8.97"/>
                      
            </g>
                  
            <line class="bond" id="mol1bnd15" x1="87.45" x2="82.24" y1="18.01" y2="32.34"/>
                  
            <g class="bond" id="mol1bnd16">
                        
                <line x1="67.23" x2="82.24" y1="34.99" y2="32.34"/>
                        
                <line x1="68.2" x2="80.43" y1="32.34" y2="30.18"/>
                      
            </g>
                  
            <line class="bond" id="mol1bnd17" x1="57.43" x2="67.23" y1="23.31" y2="34.99"/>
                  
            <path class="atom" d="M5.08 3.08q.0 .76 -.26 1.33q-.26 .57 -.76 .88q-.5 .32 -1.24 .32q-.76 .0 -1.26 -.32q-.51 -.32 -.76 -.89q-.24 -.57 -.24 -1.33q.0 -.75 .24 -1.31q.25 -.57 .76 -.88q.51 -.32 1.27 -.32q.73 .0 1.23 .32q.5 .31 .76 .88q.26 .57 .26 1.33zM1.21 3.08q.0 .92 .39 1.46q.39 .53 1.22 .53q.84 .0 1.22 -.53q.39 -.54 .39 -1.46q.0 -.93 -.39 -1.45q-.38 -.52 -1.21 -.52q-.83 .0 -1.23 .52q-.39 .52 -.39 1.45z" id="mol1atm7" stroke="none"/>
                  
            <g class="atom" id="mol1atm8">
                        
                <path d="M17.96 28.4h-.72l-2.62 -4.07h-.03q.01 .24 .03 .6q.02 .36 .02 .73v2.74h-.57v-4.9h.71l2.61 4.05h.03q-.01 -.11 -.02 -.33q-.01 -.22 -.02 -.48q-.01 -.26 -.01 -.48v-2.77h.58v4.9z" fill="#3050F8" stroke="none"/>
                        
                <path d="M13.52 28.4h-.62v-2.29h-2.51v2.29h-.61v-4.9h.61v2.07h2.51v-2.07h.62v4.9z" fill="#3050F8" stroke="none"/>
                      
            </g>
                  
            <path class="atom" d="M31.48 48.81q.0 .76 -.26 1.33q-.26 .57 -.76 .88q-.5 .32 -1.24 .32q-.76 .0 -1.26 -.32q-.51 -.32 -.76 -.89q-.24 -.57 -.24 -1.33q.0 -.75 .24 -1.31q.25 -.57 .76 -.88q.51 -.32 1.27 -.32q.73 .0 1.23 .32q.5 .31 .76 .88q.26 .57 .26 1.33zM27.62 48.81q.0 .92 .39 1.46q.39 .53 1.22 .53q.84 .0 1.22 -.53q.39 -.54 .39 -1.46q.0 -.93 -.39 -1.45q-.38 -.52 -1.21 -.52q-.83 .0 -1.23 .52q-.39 .52 -.39 1.45z" id="mol1atm10" stroke="none"/>
                
            <line class="hi" id="mol1bnd7" stroke="#3050F8" x1="16.02" x2="16.02" y1="22.1" y2="16.4"/>
            <line class="hi" id="mol1bnd7" stroke="#3050F8" x1="16.02" x2="16.02" y1="22.1" y2="16.4"/>
            <line class="hi" id="mol1bnd8" stroke="#3050F8" x1="19.18" x2="24.205" y1="27.77" y2="30.674999999999997"/>
            <line class="hi" id="mol1bnd8" stroke="#3050F8" x1="19.18" x2="24.205" y1="27.77" y2="30.674999999999997"/>
        </g>
          
    </g>
    
</svg>
