<svg xmlns="http://www.w3.org/2000/svg" xmlns:xlink="http://www.w3.org/1999/xlink" height="36.5mm" version="1.2" viewBox="0 0 46.03 36.5" width="46.03mm">
      
    <desc>Generated by the Chemistry Development Kit (http://github.com/cdk)</desc>
      
    <g fill="#90E050" stroke="#000000" stroke-linecap="round" stroke-linejoin="round" stroke-width=".7">
            
        <rect fill="#FFFFFF" height="37.0" stroke="none" width="47.0" x=".0" y=".0"/>
            
        <g class="mol" id="mol1">
                  
            <line class="bond" id="mol1bnd1" x1="13.63" x2="7.01" y1="18.25" y2="6.78"/>
                  
            <line class="bond" id="mol1bnd2" x1="13.63" x2="7.76" y1="18.25" y2="28.4"/>
                  
            <line class="bond" id="mol1bnd3" x1="13.63" x2="28.87" y1="18.25" y2="18.25"/>
                  
            <line class="bond" id="mol1bnd4" x1="28.87" x2="28.87" y1="18.25" y2="29.64"/>
                  
            <line class="bond" id="mol1bnd5" x1="28.87" x2="41.34" y1="18.25" y2="18.25"/>
                  
            <line class="bond" id="mol1bnd6" x1="28.87" x2="28.87" y1="18.25" y2="6.08"/>
                  
            <path class="atom" d="M3.55 3.24q-.79 .0 -1.24 .53q-.45 .52 -.45 1.45q.0 .91 .42 1.45q.42 .53 1.27 .53q.32 .0 .61 -.05q.29 -.06 .57 -.14v.54q-.27 .1 -.57 .15q-.29 .05 -.7 .05q-.74 .0 -1.25 -.31q-.5 -.31 -.75 -.88q-.25 -.57 -.25 -1.34q.0 -.74 .27 -1.31q.27 -.57 .8 -.88q.53 -.32 1.28 -.32q.78 .0 1.35 .29l-.24 .52q-.23 -.1 -.51 -.18q-.27 -.08 -.61 -.08zM6.31 7.66h-.6v-5.21h.6v5.21z" fill="#1FF01F" id="mol1atm2" stroke="none"/>
                  
            <path class="atom" d="M1.96 28.42q.92 .0 1.39 .27q.47 .27 .47 .94q.0 .43 -.24 .72q-.24 .29 -.69 .36v.04q.31 .05 .56 .18q.25 .13 .39 .38q.15 .24 .15 .62q.0 .67 -.46 1.03q-.46 .36 -1.24 .36h-1.72v-4.9h1.4zM2.08 30.51q.63 .0 .86 -.2q.24 -.2 .24 -.6q.0 -.4 -.29 -.58q-.29 -.18 -.91 -.18h-.81v1.56h.9zM1.17 31.02v1.77h.99q.65 .0 .9 -.25q.26 -.26 .26 -.67q.0 -.38 -.27 -.62q-.26 -.24 -.94 -.24h-.94zM6.65 29.58q.1 .0 .22 .01q.13 .01 .21 .03l-.07 .55q-.09 -.02 -.2 -.03q-.11 -.02 -.2 -.02q-.28 .0 -.53 .15q-.24 .15 -.39 .43q-.15 .27 -.15 .65v1.96h-.6v-3.67h.49l.07 .67h.03q.18 -.3 .46 -.52q.28 -.22 .67 -.22z" fill="#A62929" id="mol1atm3" stroke="none"/>
                  
            <path class="atom" d="M28.11 35.94h-.61v-4.9h2.73v.54h-2.12v1.74h1.99v.54h-1.99v2.08z" id="mol1atm5" stroke="none"/>
                  
            <path class="atom" d="M43.35 20.7h-.61v-4.9h2.73v.54h-2.12v1.74h1.99v.54h-1.99v2.08z" id="mol1atm6" stroke="none"/>
                  
            <path class="atom" d="M28.11 5.46h-.61v-4.9h2.73v.54h-2.12v1.74h1.99v.54h-1.99v2.08z" id="mol1atm7" stroke="none"/>
                
            <line class="hi" id="mol1bnd1" stroke="#1FF01F" x1="7.01" x2="10.32" y1="6.780000000000001" y2="12.515"/>
            <line class="hi" id="mol1bnd2" stroke="#A62929" x1="7.76" x2="10.695" y1="28.4" y2="23.325"/>
            <line class="hi" id="mol1bnd4" stroke="#90E050" x1="28.87" x2="28.87" y1="29.64" y2="23.945"/>
            <line class="hi" id="mol1bnd5" stroke="#90E050" x1="41.34" x2="35.105000000000004" y1="18.25" y2="18.25"/>
            <line class="hi" id="mol1bnd6" stroke="#90E050" x1="28.87" x2="28.87" y1="6.08" y2="12.165"/>
        </g>
          
    </g>
    
</svg>
