<svg xmlns="http://www.w3.org/2000/svg" xmlns:xlink="http://www.w3.org/1999/xlink" height="78.3mm" version="1.2" viewBox="0 0 107.6 78.3" width="107.6mm">
      
    <desc>Generated by the Chemistry Development Kit (http://github.com/cdk)</desc>
      
    <g fill="#FF0D0D" stroke="#000000" stroke-linecap="round" stroke-linejoin="round" stroke-width=".7">
            
        <rect fill="#FFFFFF" height="79.0" stroke="none" width="108.0" x=".0" y=".0"/>
            
        <g class="mol" id="mol1">
                  
            <line class="bond" id="mol1bnd1" x1="106.56" x2="96.64" y1="54.39" y2="48.66"/>
                  
            <line class="bond" id="mol1bnd2" x1="90.08" x2="80.16" y1="48.67" y2="54.39"/>
                  
            <g class="bond" id="mol1bnd3">
                        
                <line x1="80.16" x2="80.17" y1="54.39" y2="65.71"/>
                        
                <line x1="82.6" x2="82.61" y1="55.8" y2="65.71"/>
                      
                <line class="hi" stroke="#FF0D0D" x1="80.17" x2="80.16499999999999" y1="65.71" y2="60.05"/>
                <line class="hi" stroke="#FF0D0D" x1="82.61" x2="82.60499999999999" y1="65.71" y2="60.754999999999995"/>
            </g>
                  
            <g class="bond" id="mol1bnd4">
                        
                <line x1="67.14" x2="66.79" y1="46.47" y2="47.08"/>
                        
                <line x1="69.15" x2="68.55" y1="47.34" y2="48.38"/>
                        
                <line x1="71.16" x2="70.31" y1="48.22" y2="49.69"/>
                        
                <line x1="73.17" x2="72.07" y1="49.09" y2="50.99"/>
                        
                <line x1="75.18" x2="73.83" y1="49.96" y2="52.3"/>
                        
                <line x1="77.19" x2="75.59" y1="50.83" y2="53.6"/>
                        
                <line x1="79.2" x2="77.35" y1="51.7" y2="54.91"/>
                        
                <line x1="81.21" x2="79.12" y1="52.57" y2="56.21"/>
                      
            </g>
                  
            <line class="bond" id="mol1bnd5" x1="66.97" x2="66.96" y1="46.78" y2="31.54"/>
                  
            <line class="bond" id="mol1bnd6" x1="66.96" x2="53.76" y1="31.54" y2="23.92"/>
                  
            <line class="bond" id="mol1bnd7" x1="53.76" x2="53.77" y1="23.92" y2="8.67"/>
                  
            <line class="bond" id="mol1bnd8" x1="53.77" x2="66.97" y1="8.67" y2="1.04"/>
                  
            <line class="bond" id="mol1bnd9" x1="66.97" x2="80.17" y1="1.04" y2="8.66"/>
                  
            <line class="bond" id="mol1bnd10" x1="80.17" x2="80.17" y1="8.66" y2="20.06"/>
                  
            <path class="bond" d="M66.79 31.23l.35 .61l10.72 -4.65l-.84 -1.46l-.84 -1.46z" fill="#000000" id="mol1bnd11" stroke="none"/>
                  
            <line class="bond" id="mol1bnd12" x1="66.97" x2="53.77" y1="46.78" y2="54.4"/>
                  
            <g class="bond" id="mol1bnd13">
                        
                <line x1="53.77" x2="40.56" y1="54.4" y2="46.78"/>
                        
                <line x1="51.33" x2="40.57" y1="55.81" y2="49.6"/>
                      
            </g>
                  
            <line class="bond" id="mol1bnd14" x1="40.56" x2="27.45" y1="46.78" y2="54.4"/>
                  
            <g class="bond" id="mol1bnd15">
                        
                <line x1="27.45" x2="14.25" y1="54.4" y2="46.78"/>
                        
                <line x1="25.02" x2="14.25" y1="55.81" y2="49.59"/>
                      
            </g>
                  
            <line class="bond" id="mol1bnd16" x1="14.25" x2="1.04" y1="46.78" y2="54.4"/>
                  
            <g class="bond" id="mol1bnd17">
                        
                <line x1="1.04" x2="1.04" y1="54.4" y2="69.64"/>
                        
                <line x1="3.48" x2="3.48" y1="55.81" y2="68.23"/>
                      
            </g>
                  
            <line class="bond" id="mol1bnd18" x1="1.04" x2="14.25" y1="69.64" y2="77.26"/>
                  
            <g class="bond" id="mol1bnd19">
                        
                <line x1="14.25" x2="27.45" y1="77.26" y2="69.64"/>
                        
                <line x1="14.25" x2="25.02" y1="74.44" y2="68.23"/>
                      
            </g>
                  
            <line class="bond" id="mol1bnd20" x1="27.45" x2="27.45" y1="54.4" y2="69.64"/>
                  
            <line class="bond" id="mol1bnd21" x1="27.45" x2="40.56" y1="69.64" y2="77.26"/>
                  
            <g class="bond" id="mol1bnd22">
                        
                <line x1="40.56" x2="53.77" y1="77.26" y2="69.64"/>
                        
                <line x1="40.57" x2="51.33" y1="74.44" y2="68.23"/>
                      
            </g>
                  
            <line class="bond" id="mol1bnd23" x1="53.77" x2="53.77" y1="54.4" y2="69.64"/>
                  
            <path class="atom" d="M95.62 46.77q.0 .76 -.26 1.33q-.26 .57 -.76 .88q-.5 .32 -1.24 .32q-.76 .0 -1.26 -.32q-.51 -.32 -.76 -.89q-.24 -.57 -.24 -1.33q.0 -.75 .24 -1.31q.25 -.57 .76 -.88q.51 -.32 1.27 -.32q.73 .0 1.23 .32q.5 .31 .76 .88q.26 .57 .26 1.33zM91.76 46.77q.0 .92 .39 1.46q.39 .53 1.22 .53q.84 .0 1.22 -.53q.39 -.54 .39 -1.46q.0 -.93 -.39 -1.45q-.38 -.52 -1.21 -.52q-.83 .0 -1.23 .52q-.39 .52 -.39 1.45z" id="mol1atm2" stroke="none"/>
                  
            <path class="atom" d="M83.65 69.63q.0 .76 -.26 1.33q-.26 .57 -.76 .88q-.5 .32 -1.24 .32q-.76 .0 -1.26 -.32q-.51 -.32 -.76 -.89q-.24 -.57 -.24 -1.33q.0 -.75 .24 -1.31q.25 -.57 .76 -.88q.51 -.32 1.27 -.32q.73 .0 1.23 .32q.5 .31 .76 .88q.26 .57 .26 1.33zM79.78 69.63q.0 .92 .39 1.46q.39 .53 1.22 .53q.84 .0 1.22 -.53q.39 -.54 .39 -1.46q.0 -.93 -.39 -1.45q-.38 -.52 -1.21 -.52q-.83 .0 -1.23 .52q-.39 .52 -.39 1.45z" id="mol1atm4" stroke="none"/>
                  
            <g class="atom" id="mol1atm11">
                        
                <path d="M82.11 26.36h-.72l-2.62 -4.07h-.03q.01 .24 .03 .6q.02 .36 .02 .73v2.74h-.57v-4.9h.71l2.61 4.05h.03q-.01 -.11 -.02 -.33q-.01 -.22 -.02 -.48q-.01 -.26 -.01 -.48v-2.77h.58v4.9z" fill="#3050F8" stroke="none"/>
                        
                <path d="M86.41 26.36h-.62v-2.29h-2.51v2.29h-.61v-4.9h.61v2.07h2.51v-2.07h.62v4.9z" fill="#3050F8" stroke="none"/>
                      
            </g>
                
            <line class="hi" id="mol1bnd1" stroke="#FF0D0D" x1="96.64" x2="101.6" y1="48.66" y2="51.525"/>
            <line class="hi" id="mol1bnd2" stroke="#FF0D0D" x1="90.08" x2="85.12" y1="48.67" y2="51.53"/>
            <line class="hi" id="mol1bnd10" stroke="#3050F8" x1="80.17" x2="80.17" y1="20.06" y2="14.36"/>
        </g>
          
    </g>
    
</svg>
