<svg xmlns="http://www.w3.org/2000/svg" xmlns:xlink="http://www.w3.org/1999/xlink" height="127.97mm" version="1.2" viewBox="0 0 88.45 127.97" width="88.45mm">
      
    <desc>Generated by the Chemistry Development Kit (http://github.com/cdk)</desc>
      
    <g fill="#FF0D0D" stroke="#000000" stroke-linecap="round" stroke-linejoin="round" stroke-width=".7">
            
        <rect fill="#FFFFFF" height="128.0" stroke="none" width="89.0" x=".0" y=".0"/>
            
        <g class="mol" id="mol1">
                  
            <g class="bond" id="mol1bnd1">
                        
                <line x1="54.06" x2="40.86" y1="33.25" y2="25.73"/>
                        
                <line x1="51.65" x2="40.89" y1="34.68" y2="28.56"/>
                      
            </g>
                  
            <line class="bond" id="mol1bnd2" x1="40.86" x2="27.75" y1="25.73" y2="33.56"/>
                  
            <line class="bond" id="mol1bnd3" x1="27.75" x2="17.77" y1="33.56" y2="27.93"/>
                  
            <line class="bond" id="mol1bnd4" x1="14.43" x2="14.31" y1="22.16" y2="10.84"/>
                  
            <g class="bond" id="mol1bnd5">
                        
                <line x1="13.09" x2="23.55" y1="10.15" y2="3.96"/>
                        
                <line x1="14.33" x2="24.79" y1="12.25" y2="6.06"/>
                      
                <line class="hi" stroke="#FF0D0D" x1="23.55" x2="18.32" y1="3.96" y2="7.055"/>
                <line class="hi" stroke="#FF0D0D" x1="24.79" x2="19.56" y1="6.06" y2="9.155"/>
            </g>
                  
            <line class="bond" id="mol1bnd6" x1="14.31" x2="1.04" y1="10.84" y2="3.36"/>
                  
            <g class="bond" id="mol1bnd7">
                        
                <line x1="27.75" x2="27.85" y1="33.56" y2="48.8"/>
                        
                <line x1="30.2" x2="30.28" y1="34.94" y2="47.37"/>
                      
            </g>
                  
            <line class="bond" id="mol1bnd8" x1="27.85" x2="41.16" y1="48.8" y2="56.31"/>
                  
            <g class="bond" id="mol1bnd9">
                        
                <line x1="41.02" x2="41.72" y1="71.56" y2="71.55"/>
                        
                <line x1="40.74" x2="41.94" y1="69.38" y2="69.37"/>
                        
                <line x1="40.46" x2="42.16" y1="67.21" y2="67.19"/>
                        
                <line x1="40.18" x2="42.38" y1="65.04" y2="65.01"/>
                        
                <line x1="39.9" x2="42.6" y1="62.86" y2="62.83"/>
                        
                <line x1="39.62" x2="42.82" y1="60.69" y2="60.65"/>
                        
                <line x1="39.34" x2="43.04" y1="58.51" y2="58.47"/>
                        
                <line x1="39.06" x2="43.26" y1="56.34" y2="56.29"/>
                      
            </g>
                  
            <line class="bond" id="mol1bnd10" x1="41.37" x2="28.16" y1="71.55" y2="79.17"/>
                  
            <g class="bond" id="mol1bnd11">
                        
                <line stroke="#000000" x1="27.91" x2="28.41" y1="79.41" y2="78.93"/>
                        
                <line stroke="#FF0D0D" x1="26.24" x2="27.01" y1="77.92" y2="77.19"/>
                        
                <line stroke="#FF0D0D" x1="24.58" x2="25.6" y1="76.42" y2="75.46"/>
                        
                <line stroke="#FF0D0D" x1="22.92" x2="24.19" y1="74.93" y2="73.72"/>
                        
                <line stroke="#FF0D0D" x1="21.26" x2="22.78" y1="73.43" y2="71.99"/>
                        
                <line stroke="#FF0D0D" x1="19.6" x2="21.38" y1="71.94" y2="70.25"/>
                        
                <line stroke="#FF0D0D" x1="17.94" x2="19.97" y1="70.44" y2="68.52"/>
                        
                <line stroke="#FF0D0D" x1="16.28" x2="18.56" y1="68.95" y2="66.78"/>
                        
                <line stroke="#FF0D0D" x1="14.62" x2="17.16" y1="67.45" y2="65.04"/>
                      
            </g>
                  
            <line class="bond" id="mol1bnd12" x1="27.85" x2="15.66" y1="48.8" y2="60.33"/>
                  
            <line class="bond" id="mol1bnd13" x1="28.16" x2="28.16" y1="79.17" y2="94.41"/>
                  
            <g class="bond" id="mol1bnd14">
                        
                <line stroke="#000000" x1="28.33" x2="27.98" y1="94.71" y2="94.11"/>
                        
                <line stroke="#FF0D0D" x1="26.28" x2="25.64" y1="96.24" y2="95.12"/>
                        
                <line stroke="#FF0D0D" x1="24.23" x2="23.29" y1="97.76" y2="96.14"/>
                        
                <line stroke="#FF0D0D" x1="22.17" x2="20.95" y1="99.28" y2="97.16"/>
                        
                <line stroke="#FF0D0D" x1="20.12" x2="18.6" y1="100.8" y2="98.18"/>
                      
            </g>
                  
            <line class="bond" id="mol1bnd15" x1="14.96" x2="14.97" y1="105.95" y2="117.27"/>
                  
            <g class="bond" id="mol1bnd16">
                        
                <line x1="14.97" x2="25.49" y1="115.86" y2="121.94"/>
                        
                <line x1="13.75" x2="24.27" y1="117.97" y2="124.05"/>
                      
                <line class="hi" stroke="#FF0D0D" x1="25.49" x2="20.23" y1="121.94" y2="118.9"/>
                <line class="hi" stroke="#FF0D0D" x1="24.27" x2="19.009999999999998" y1="124.05" y2="121.00999999999999"/>
            </g>
                  
            <line class="bond" id="mol1bnd17" x1="14.97" x2="1.77" y1="117.27" y2="124.89"/>
                  
            <line class="bond" id="mol1bnd18" x1="28.16" x2="41.37" y1="94.41" y2="102.03"/>
                  
            <g class="bond" id="mol1bnd19">
                        
                <line x1="41.37" x2="54.57" y1="102.03" y2="94.41"/>
                        
                <line x1="41.37" x2="52.13" y1="99.21" y2="93.0"/>
                      
            </g>
                  
            <g class="bond" id="mol1bnd20">
                        
                <line x1="54.27" x2="54.88" y1="79.35" y2="79.0"/>
                        
                <line x1="54.02" x2="55.13" y1="82.03" y2="81.39"/>
                        
                <line x1="53.76" x2="55.38" y1="84.72" y2="83.78"/>
                        
                <line x1="53.51" x2="55.63" y1="87.4" y2="86.18"/>
                        
                <line x1="53.26" x2="55.89" y1="90.09" y2="88.57"/>
                        
                <line x1="53.01" x2="56.14" y1="92.77" y2="90.97"/>
                        
                <line x1="52.75" x2="56.39" y1="95.46" y2="93.36"/>
                      
            </g>
                  
            <line class="bond" id="mol1bnd21" x1="41.37" x2="54.57" y1="71.55" y2="79.17"/>
                  
            <line class="bond" id="mol1bnd22" x1="54.57" x2="67.68" y1="79.17" y2="71.35"/>
                  
            <line class="bond" id="mol1bnd23" x1="67.68" x2="67.58" y1="71.35" y2="56.11"/>
                  
            <line class="bond" id="mol1bnd24" x1="67.58" x2="54.27" y1="56.11" y2="48.49"/>
                  
            <line class="bond" id="mol1bnd25" x1="54.06" x2="54.27" y1="33.25" y2="48.49"/>
                  
            <g class="bond" id="mol1bnd26">
                        
                <line x1="41.16" x2="54.27" y1="56.31" y2="48.49"/>
                        
                <line x1="41.13" x2="51.81" y1="53.49" y2="47.12"/>
                      
            </g>
                  
            <path class="bond" d="M67.85 71.04l-.34 .61l9.59 6.91l.83 -1.47l.83 -1.47z" fill="#000000" id="mol1bnd27" stroke="none"/>
                  
            <line class="bond" id="mol1bnd28" x1="82.79" x2="87.42" y1="82.59" y2="92.73"/>
                  
            <line class="bond" id="mol1bnd29" x1="81.01" x2="80.78" y1="75.02" y2="63.53"/>
                  
            <line class="bond" id="mol1bnd30" x1="80.78" x2="54.27" y1="63.53" y2="63.63"/>
                  
            <path class="bond" d="M41.18 71.25l.37 .6l18.28 -8.59l-4.98 .02l-3.39 .01z" fill="#000000" id="mol1bnd31" stroke="none"/>
                  
            <path class="atom" d="M16.73 26.07q.0 .76 -.26 1.33q-.26 .57 -.76 .88q-.5 .32 -1.24 .32q-.76 .0 -1.26 -.32q-.51 -.32 -.76 -.89q-.24 -.57 -.24 -1.33q.0 -.75 .24 -1.31q.25 -.57 .76 -.88q.51 -.32 1.27 -.32q.73 .0 1.23 .32q.5 .31 .76 .88q.26 .57 .26 1.33zM12.87 26.07q.0 .92 .39 1.46q.39 .53 1.22 .53q.84 .0 1.22 -.53q.39 -.54 .39 -1.46q.0 -.93 -.39 -1.45q-.38 -.52 -1.21 -.52q-.83 .0 -1.23 .52q-.39 .52 -.39 1.45z" id="mol1atm4" stroke="none"/>
                  
            <path class="atom" d="M29.69 3.08q.0 .76 -.26 1.33q-.26 .57 -.76 .88q-.5 .32 -1.24 .32q-.76 .0 -1.26 -.32q-.51 -.32 -.76 -.89q-.24 -.57 -.24 -1.33q.0 -.75 .24 -1.31q.25 -.57 .76 -.88q.51 -.32 1.27 -.32q.73 .0 1.23 .32q.5 .31 .76 .88q.26 .57 .26 1.33zM25.83 3.08q.0 .92 .39 1.46q.39 .53 1.22 .53q.84 .0 1.22 -.53q.39 -.54 .39 -1.46q.0 -.93 -.39 -1.45q-.38 -.52 -1.21 -.52q-.83 .0 -1.23 .52q-.39 .52 -.39 1.45z" id="mol1atm6" stroke="none"/>
                  
            <path class="atom" d="M15.08 63.02q.0 .76 -.26 1.33q-.26 .57 -.76 .88q-.5 .32 -1.24 .32q-.76 .0 -1.26 -.32q-.51 -.32 -.76 -.89q-.24 -.57 -.24 -1.33q.0 -.75 .24 -1.31q.25 -.57 .76 -.88q.51 -.32 1.27 -.32q.73 .0 1.23 .32q.5 .31 .76 .88q.26 .57 .26 1.33zM11.21 63.02q.0 .92 .39 1.46q.39 .53 1.22 .53q.84 .0 1.22 -.53q.39 -.54 .39 -1.46q.0 -.93 -.39 -1.45q-.38 -.52 -1.21 -.52q-.83 .0 -1.23 .52q-.39 .52 -.39 1.45z" id="mol1atm12" stroke="none"/>
                  
            <path class="atom" d="M17.22 102.03q.0 .76 -.26 1.33q-.26 .57 -.76 .88q-.5 .32 -1.24 .32q-.76 .0 -1.26 -.32q-.51 -.32 -.76 -.89q-.24 -.57 -.24 -1.33q.0 -.75 .24 -1.31q.25 -.57 .76 -.88q.51 -.32 1.27 -.32q.73 .0 1.23 .32q.5 .31 .76 .88q.26 .57 .26 1.33zM13.36 102.03q.0 .92 .39 1.46q.39 .53 1.22 .53q.84 .0 1.22 -.53q.39 -.54 .39 -1.46q.0 -.93 -.39 -1.45q-.38 -.52 -1.21 -.52q-.83 .0 -1.23 .52q-.39 .52 -.39 1.45z" id="mol1atm14" stroke="none"/>
                  
            <path class="atom" d="M30.42 124.88q.0 .76 -.26 1.33q-.26 .57 -.76 .88q-.5 .32 -1.24 .32q-.76 .0 -1.26 -.32q-.51 -.32 -.76 -.89q-.24 -.57 -.24 -1.33q.0 -.75 .24 -1.31q.25 -.57 .76 -.88q.51 -.32 1.27 -.32q.73 .0 1.23 .32q.5 .31 .76 .88q.26 .57 .26 1.33zM26.56 124.88q.0 .92 .39 1.46q.39 .53 1.22 .53q.84 .0 1.22 -.53q.39 -.54 .39 -1.46q.0 -.93 -.39 -1.45q-.38 -.52 -1.21 -.52q-.83 .0 -1.23 .52q-.39 .52 -.39 1.45z" id="mol1atm16" stroke="none"/>
                  
            <path class="atom" d="M83.03 81.32h-.72l-2.62 -4.07h-.03q.01 .24 .03 .6q.02 .36 .02 .73v2.74h-.57v-4.9h.71l2.61 4.05h.03q-.01 -.11 -.02 -.33q-.01 -.22 -.02 -.48q-.01 -.26 -.01 -.48v-2.77h.58v4.9z" fill="#3050F8" id="mol1atm24" stroke="none"/>
                
            <line class="hi" id="mol1bnd3" stroke="#FF0D0D" x1="17.77" x2="22.759999999999998" y1="27.93" y2="30.745"/>
            <line class="hi" id="mol1bnd4" stroke="#FF0D0D" x1="14.43" x2="14.370000000000001" y1="22.16" y2="16.5"/>
            <line class="hi" id="mol1bnd12" stroke="#FF0D0D" x1="15.66" x2="21.755000000000003" y1="60.33" y2="54.565"/>
            <line class="hi" id="mol1bnd15" stroke="#FF0D0D" x1="14.96" x2="14.965" y1="105.95" y2="111.61"/>
            <line class="hi" id="mol1bnd28" stroke="#3050F8" x1="82.79" x2="85.105" y1="82.59" y2="87.66"/>
            <line class="hi" id="mol1bnd29" stroke="#3050F8" x1="81.01" x2="80.89500000000001" y1="75.02" y2="69.275"/>
        </g>
          
    </g>
    
</svg>
