<svg xmlns="http://www.w3.org/2000/svg" xmlns:xlink="http://www.w3.org/1999/xlink" height="86.25mm" version="1.2" viewBox="0 0 83.35 86.25" width="83.35mm">
      
    <desc>Generated by the Chemistry Development Kit (http://github.com/cdk)</desc>
      
    <g fill="#FF0D0D" stroke="#000000" stroke-linecap="round" stroke-linejoin="round" stroke-width=".7">
            
        <rect fill="#FFFFFF" height="87.0" stroke="none" width="84.0" x=".0" y=".0"/>
            
        <g class="mol" id="mol1">
                  
            <line class="bond" id="mol1bnd1" x1="1.05" x2="5.73" y1="65.56" y2="80.09"/>
                  
            <line class="bond" id="mol1bnd2" x1="5.73" x2="17.35" y1="80.09" y2="82.54"/>
                  
            <g class="bond" id="mol1bnd3">
                        
                <line x1="23.54" x2="30.82" y1="80.05" y2="71.96"/>
                        
                <line x1="21.73" x2="28.07" y1="78.41" y2="71.37"/>
                      
                <line class="hi" stroke="#3050F8" x1="23.54" x2="27.18" y1="80.05" y2="76.005"/>
                <line class="hi" stroke="#3050F8" x1="21.73" x2="24.9" y1="78.41" y2="74.89"/>
            </g>
                  
            <line class="bond" id="mol1bnd4" x1="30.82" x2="46.06" y1="71.96" y2="71.96"/>
                  
            <g class="bond" id="mol1bnd5">
                        
                <line x1="46.06" x2="56.22" y1="71.96" y2="83.24"/>
                        
                <line x1="48.81" x2="57.09" y1="71.37" y2="80.56"/>
                      
            </g>
                  
            <line class="bond" id="mol1bnd6" x1="56.22" x2="71.16" y1="83.24" y2="80.09"/>
                  
            <g class="bond" id="mol1bnd7">
                        
                <line x1="71.16" x2="75.93" y1="80.09" y2="65.56"/>
                        
                <line x1="69.28" x2="73.17" y1="77.99" y2="66.15"/>
                      
            </g>
                  
            <line class="bond" id="mol1bnd8" x1="75.93" x2="65.67" y1="65.56" y2="54.28"/>
                  
            <g class="bond" id="mol1bnd9">
                        
                <line x1="65.67" x2="50.74" y1="54.28" y2="57.43"/>
                        
                <line x1="64.81" x2="52.62" y1="56.96" y2="59.53"/>
                      
            </g>
                  
            <line class="bond" id="mol1bnd10" x1="46.06" x2="50.74" y1="71.96" y2="57.43"/>
                  
            <line class="bond" id="mol1bnd11" x1="50.74" x2="38.44" y1="57.43" y2="48.49"/>
                  
            <line class="bond" id="mol1bnd12" x1="38.44" x2="29.22" y1="48.49" y2="55.2"/>
                  
            <line class="bond" id="mol1bnd13" x1="30.82" x2="27.37" y1="71.96" y2="61.22"/>
                  
            <line class="bond" id="mol1bnd14" x1="22.84" x2="11.21" y1="56.74" y2="54.28"/>
                  
            <line class="bond" id="mol1bnd15" x1="1.05" x2="11.21" y1="65.56" y2="54.28"/>
                  
            <line class="bond" id="mol1bnd16" x1="38.44" x2="48.64" y1="48.49" y2="37.17"/>
                  
            <g class="bond" id="mol1bnd17">
                        
                <line x1="48.64" x2="63.39" y1="37.17" y2="40.28"/>
                        
                <line x1="50.53" x2="62.53" y1="35.08" y2="37.61"/>
                      
            </g>
                  
            <line class="bond" id="mol1bnd18" x1="63.39" x2="73.65" y1="40.28" y2="29.01"/>
                  
            <g class="bond" id="mol1bnd19">
                        
                <line x1="73.65" x2="69.22" y1="29.01" y2="14.55"/>
                        
                <line x1="70.91" x2="67.31" y1="28.4" y2="16.63"/>
                      
            </g>
                  
            <line class="bond" id="mol1bnd20" x1="69.22" x2="54.18" y1="14.55" y2="11.3"/>
                  
            <g class="bond" id="mol1bnd21">
                        
                <line x1="54.18" x2="43.93" y1="11.3" y2="22.58"/>
                        
                <line x1="55.04" x2="46.68" y1="13.98" y2="23.17"/>
                      
            </g>
                  
            <line class="bond" id="mol1bnd22" x1="48.64" x2="43.93" y1="37.17" y2="22.58"/>
                  
            <line class="bond" id="mol1bnd23" x1="69.22" x2="77.11" y1="14.55" y2="5.97"/>
                  
            <line class="bond" id="mol1bnd24" x1="38.44" x2="30.9" y1="48.49" y2="40.12"/>
                  
            <path class="atom" d="M22.6 85.69h-.72l-2.62 -4.07h-.03q.01 .24 .03 .6q.02 .36 .02 .73v2.74h-.57v-4.9h.71l2.61 4.05h.03q-.01 -.11 -.02 -.33q-.01 -.22 -.02 -.48q-.01 -.26 -.01 -.48v-2.77h.58v4.9z" fill="#3050F8" id="mol1atm3" stroke="none"/>
                  
            <path class="atom" d="M28.09 59.88h-.72l-2.62 -4.07h-.03q.01 .24 .03 .6q.02 .36 .02 .73v2.74h-.57v-4.9h.71l2.61 4.05h.03q-.01 -.11 -.02 -.33q-.01 -.22 -.02 -.48q-.01 -.26 -.01 -.48v-2.77h.58v4.9z" fill="#3050F8" id="mol1atm12" stroke="none"/>
                  
            <path class="atom" d="M80.03 1.35q-.79 .0 -1.24 .53q-.45 .52 -.45 1.45q.0 .91 .42 1.45q.42 .53 1.27 .53q.32 .0 .61 -.05q.29 -.06 .57 -.14v.54q-.27 .1 -.57 .15q-.29 .05 -.7 .05q-.74 .0 -1.25 -.31q-.5 -.31 -.75 -.88q-.25 -.57 -.25 -1.34q.0 -.74 .27 -1.31q.27 -.57 .8 -.88q.53 -.32 1.28 -.32q.78 .0 1.35 .29l-.24 .52q-.23 -.1 -.51 -.18q-.27 -.08 -.61 -.08zM82.79 5.77h-.6v-5.21h.6v5.21z" fill="#1FF01F" id="mol1atm20" stroke="none"/>
                  
            <g class="atom" id="mol1atm21">
                        
                <path d="M30.5 37.17q.0 .76 -.26 1.33q-.26 .57 -.76 .88q-.5 .32 -1.24 .32q-.76 .0 -1.26 -.32q-.51 -.32 -.76 -.89q-.24 -.57 -.24 -1.33q.0 -.75 .24 -1.31q.25 -.57 .76 -.88q.51 -.32 1.27 -.32q.73 .0 1.23 .32q.5 .31 .76 .88q.26 .57 .26 1.33zM26.64 37.17q.0 .92 .39 1.46q.39 .53 1.22 .53q.84 .0 1.22 -.53q.39 -.54 .39 -1.46q.0 -.93 -.39 -1.45q-.38 -.52 -1.21 -.52q-.83 .0 -1.23 .52q-.39 .52 -.39 1.45z" stroke="none"/>
                        
                <path d="M25.42 39.62h-.62v-2.29h-2.51v2.29h-.61v-4.9h.61v2.07h2.51v-2.07h.62v4.9z" stroke="none"/>
                      
            </g>
                
            <line class="hi" id="mol1bnd2" stroke="#3050F8" x1="17.35" x2="11.540000000000001" y1="82.54" y2="81.315"/>
            <line class="hi" id="mol1bnd12" stroke="#3050F8" x1="29.22" x2="33.83" y1="55.2" y2="51.845"/>
            <line class="hi" id="mol1bnd13" stroke="#3050F8" x1="27.37" x2="29.095" y1="61.22" y2="66.59"/>
            <line class="hi" id="mol1bnd14" stroke="#3050F8" x1="22.84" x2="17.025" y1="56.74" y2="55.510000000000005"/>
            <line class="hi" id="mol1bnd23" stroke="#1FF01F" x1="77.11" x2="73.16499999999999" y1="5.969999999999999" y2="10.26"/>
            <line class="hi" id="mol1bnd24" stroke="#FF0D0D" x1="30.9" x2="34.67" y1="40.12" y2="44.305"/>
            <line class="hi" id="mol1bnd24" stroke="#FF0D0D" x1="30.9" x2="34.67" y1="40.12" y2="44.305"/>
        </g>
          
    </g>
    
</svg>
