<svg xmlns="http://www.w3.org/2000/svg" xmlns:xlink="http://www.w3.org/1999/xlink" height="97.96mm" version="1.2" viewBox="0 0 166.57 97.96" width="166.57mm">
      
    <desc>Generated by the Chemistry Development Kit (http://github.com/cdk)</desc>
      
    <g fill="#FF0D0D" stroke="#000000" stroke-linecap="round" stroke-linejoin="round" stroke-width=".7">
            
        <rect fill="#FFFFFF" height="98.0" stroke="none" width="167.0" x=".0" y=".0"/>
            
        <g class="mol" id="mol1">
                  
            <line class="bond" id="mol1bnd1" x1="86.31" x2="99.52" y1="72.01" y2="64.39"/>
                  
            <line class="bond" id="mol1bnd2" x1="99.52" x2="109.58" y1="64.39" y2="70.19"/>
                  
            <line class="bond" id="mol1bnd3" x1="112.73" x2="112.73" y1="75.86" y2="87.25"/>
                  
            <line class="bond" id="mol1bnd4" x1="112.73" x2="99.52" y1="87.25" y2="94.87"/>
                  
            <line class="bond" id="mol1bnd5" x1="99.52" x2="89.47" y1="94.87" y2="89.07"/>
                  
            <line class="bond" id="mol1bnd6" x1="86.31" x2="86.31" y1="72.01" y2="83.4"/>
                  
            <line class="bond" id="mol1bnd7" x1="83.16" x2="73.12" y1="89.07" y2="94.87"/>
                  
            <line class="bond" id="mol1bnd8" x1="73.12" x2="59.92" y1="94.87" y2="87.26"/>
                  
            <line class="bond" id="mol1bnd9" x1="59.92" x2="50.0" y1="87.26" y2="92.98"/>
                  
            <line class="bond" id="mol1bnd10" x1="43.44" x2="33.52" y1="92.98" y2="87.26"/>
                  
            <line class="bond" id="mol1bnd11" x1="33.52" x2="20.32" y1="87.26" y2="94.88"/>
                  
            <line class="bond" id="mol1bnd12" x1="20.32" x2="10.4" y1="94.88" y2="89.15"/>
                  
            <line class="bond" id="mol1bnd13" x1="115.88" x2="125.93" y1="70.19" y2="64.39"/>
                  
            <line class="bond" id="mol1bnd14" x1="125.93" x2="139.13" y1="64.39" y2="72.01"/>
                  
            <g class="bond" id="mol1bnd15">
                        
                <line x1="152.33" x2="139.13" y1="64.38" y2="72.01"/>
                        
                <line x1="152.33" x2="141.57" y1="67.19" y2="73.41"/>
                      
            </g>
                  
            <line class="bond" id="mol1bnd16" x1="152.33" x2="165.53" y1="64.38" y2="71.99"/>
                  
            <g class="bond" id="mol1bnd17">
                        
                <line x1="165.53" x2="165.53" y1="87.24" y2="71.99"/>
                        
                <line x1="163.09" x2="163.09" y1="85.84" y2="73.4"/>
                      
            </g>
                  
            <line class="bond" id="mol1bnd18" x1="165.53" x2="152.32" y1="87.24" y2="94.87"/>
                  
            <g class="bond" id="mol1bnd19">
                        
                <line x1="139.12" x2="152.32" y1="87.26" y2="94.87"/>
                        
                <line x1="141.56" x2="152.32" y1="85.85" y2="92.06"/>
                      
            </g>
                  
            <line class="bond" id="mol1bnd20" x1="139.13" x2="139.12" y1="72.01" y2="87.26"/>
                  
            <line class="bond" id="mol1bnd21" x1="125.93" x2="125.93" y1="64.39" y2="49.15"/>
                  
            <g class="bond" id="mol1bnd22">
                        
                <line x1="125.93" x2="138.97" y1="49.15" y2="41.59"/>
                        
                <line x1="125.92" x2="136.54" y1="46.33" y2="40.18"/>
                      
            </g>
                  
            <line class="bond" id="mol1bnd23" x1="138.97" x2="139.04" y1="41.59" y2="26.35"/>
                  
            <g class="bond" id="mol1bnd24">
                        
                <line x1="139.04" x2="126.07" y1="26.35" y2="18.57"/>
                        
                <line x1="136.6" x2="126.05" y1="27.73" y2="21.39"/>
                      
            </g>
                  
            <line class="bond" id="mol1bnd25" x1="126.07" x2="112.73" y1="18.57" y2="26.22"/>
                  
            <g class="bond" id="mol1bnd26">
                        
                <line x1="112.73" x2="112.65" y1="26.22" y2="41.46"/>
                        
                <line x1="115.16" x2="115.1" y1="27.64" y2="40.06"/>
                      
            </g>
                  
            <line class="bond" id="mol1bnd27" x1="125.93" x2="112.65" y1="49.15" y2="41.46"/>
                  
            <line class="bond" id="mol1bnd28" x1="126.07" x2="126.19" y1="18.57" y2="7.25"/>
                  
            <path class="atom" d="M114.67 74.46h-.72l-2.62 -4.07h-.03q.01 .24 .03 .6q.02 .36 .02 .73v2.74h-.57v-4.9h.71l2.61 4.05h.03q-.01 -.11 -.02 -.33q-.01 -.22 -.02 -.48q-.01 -.26 -.01 -.48v-2.77h.58v4.9z" fill="#3050F8" id="mol1atm3" stroke="none"/>
                  
            <path class="atom" d="M88.26 89.7h-.72l-2.62 -4.07h-.03q.01 .24 .03 .6q.02 .36 .02 .73v2.74h-.57v-4.9h.71l2.61 4.05h.03q-.01 -.11 -.02 -.33q-.01 -.22 -.02 -.48q-.01 -.26 -.01 -.48v-2.77h.58v4.9z" fill="#3050F8" id="mol1atm6" stroke="none"/>
                  
            <path class="atom" d="M48.98 94.87q.0 .76 -.26 1.33q-.26 .57 -.76 .88q-.5 .32 -1.24 .32q-.76 .0 -1.26 -.32q-.51 -.32 -.76 -.89q-.24 -.57 -.24 -1.33q.0 -.75 .24 -1.31q.25 -.57 .76 -.88q.51 -.32 1.27 -.32q.73 .0 1.23 .32q.5 .31 .76 .88q.26 .57 .26 1.33zM45.12 94.87q.0 .92 .39 1.46q.39 .53 1.22 .53q.84 .0 1.22 -.53q.39 -.54 .39 -1.46q.0 -.93 -.39 -1.45q-.38 -.52 -1.21 -.52q-.83 .0 -1.23 .52q-.39 .52 -.39 1.45z" id="mol1atm9" stroke="none"/>
                  
            <g class="atom" id="mol1atm12">
                        
                <path d="M9.38 87.26q.0 .76 -.26 1.33q-.26 .57 -.76 .88q-.5 .32 -1.24 .32q-.76 .0 -1.26 -.32q-.51 -.32 -.76 -.89q-.24 -.57 -.24 -1.33q.0 -.75 .24 -1.31q.25 -.57 .76 -.88q.51 -.32 1.27 -.32q.73 .0 1.23 .32q.5 .31 .76 .88q.26 .57 .26 1.33zM5.52 87.26q.0 .92 .39 1.46q.39 .53 1.22 .53q.84 .0 1.22 -.53q.39 -.54 .39 -1.46q.0 -.93 -.39 -1.45q-.38 -.52 -1.21 -.52q-.83 .0 -1.23 .52q-.39 .52 -.39 1.45z" stroke="none"/>
                        
                <path d="M4.3 89.71h-.62v-2.29h-2.51v2.29h-.61v-4.9h.61v2.07h2.51v-2.07h.62v4.9z" stroke="none"/>
                      
            </g>
                  
            <path class="atom" d="M126.72 1.35q-.79 .0 -1.24 .53q-.45 .52 -.45 1.45q.0 .91 .42 1.45q.42 .53 1.27 .53q.32 .0 .61 -.05q.29 -.06 .57 -.14v.54q-.27 .1 -.57 .15q-.29 .05 -.7 .05q-.74 .0 -1.25 -.31q-.5 -.31 -.75 -.88q-.25 -.57 -.25 -1.34q.0 -.74 .27 -1.31q.27 -.57 .8 -.88q.53 -.32 1.28 -.32q.78 .0 1.35 .29l-.24 .52q-.23 -.1 -.51 -.18q-.27 -.08 -.61 -.08zM129.48 5.77h-.6v-5.21h.6v5.21z" fill="#1FF01F" id="mol1atm26" stroke="none"/>
                
            <line class="hi" id="mol1bnd2" stroke="#3050F8" x1="109.58" x2="104.55" y1="70.19" y2="67.28999999999999"/>
            <line class="hi" id="mol1bnd3" stroke="#3050F8" x1="112.73" x2="112.73" y1="75.86" y2="81.555"/>
            <line class="hi" id="mol1bnd5" stroke="#3050F8" x1="89.47" x2="94.495" y1="89.07" y2="91.97"/>
            <line class="hi" id="mol1bnd6" stroke="#3050F8" x1="86.31" x2="86.31" y1="83.4" y2="77.70500000000001"/>
            <line class="hi" id="mol1bnd7" stroke="#3050F8" x1="83.16" x2="78.14" y1="89.07" y2="91.97"/>
            <line class="hi" id="mol1bnd9" stroke="#FF0D0D" x1="50.0" x2="54.96" y1="92.98" y2="90.12"/>
            <line class="hi" id="mol1bnd10" stroke="#FF0D0D" x1="43.44" x2="38.480000000000004" y1="92.98" y2="90.12"/>
            <line class="hi" id="mol1bnd12" stroke="#FF0D0D" x1="10.4" x2="15.36" y1="89.15" y2="92.015"/>
            <line class="hi" id="mol1bnd12" stroke="#FF0D0D" x1="10.4" x2="15.36" y1="89.15" y2="92.015"/>
            <line class="hi" id="mol1bnd13" stroke="#3050F8" x1="115.88" x2="120.905" y1="70.19" y2="67.28999999999999"/>
            <line class="hi" id="mol1bnd28" stroke="#1FF01F" x1="126.19" x2="126.13" y1="7.25" y2="12.91"/>
        </g>
          
    </g>
    
</svg>
