<svg xmlns="http://www.w3.org/2000/svg" xmlns:xlink="http://www.w3.org/1999/xlink" height="57.65mm" version="1.2" viewBox="0 0 147.14 57.65" width="147.14mm">
      
    <desc>Generated by the Chemistry Development Kit (http://github.com/cdk)</desc>
      
    <g fill="#000000" stroke="#000000" stroke-linecap="round" stroke-linejoin="round" stroke-width=".7">
            
        <rect fill="#FFFFFF" height="58.0" stroke="none" width="148.0" x=".0" y=".0"/>
            
        <g class="mol" id="mol1">
                  
            <line class="bond" id="mol1bnd1" x1="146.1" x2="132.91" y1="33.54" y2="25.93"/>
                  
            <path class="bond" d="M119.55 33.24l.35 .61l15.61 -6.82l-2.25 -1.3l-1.97 -1.14z" id="mol1bnd2" stroke="none"/>
                  
            <line class="bond" id="mol1bnd3" x1="119.72" x2="119.72" y1="33.55" y2="48.78"/>
                  
            <g class="bond" id="mol1bnd4">
                        
                <line x1="106.52" x2="106.52" y1="56.04" y2="56.74"/>
                        
                <line x1="108.41" x2="108.41" y1="54.71" y2="55.91"/>
                        
                <line x1="110.29" x2="110.29" y1="53.37" y2="55.07"/>
                        
                <line x1="112.18" x2="112.18" y1="52.03" y2="54.23"/>
                        
                <line x1="114.07" x2="114.07" y1="50.69" y2="53.39"/>
                        
                <line x1="115.95" x2="115.95" y1="49.35" y2="52.55"/>
                        
                <line x1="117.84" x2="117.84" y1="48.02" y2="51.72"/>
                        
                <line x1="119.72" x2="119.72" y1="46.68" y2="50.88"/>
                      
            </g>
                  
            <line class="bond" id="mol1bnd5" x1="106.52" x2="93.32" y1="56.39" y2="48.78"/>
                  
            <path class="bond" d="M93.67 33.55h-.7l-1.62 14.5l1.97 1.14l2.25 1.3z" id="mol1bnd6" stroke="none"/>
                  
            <line class="bond" id="mol1bnd7" x1="93.32" x2="106.52" y1="33.55" y2="25.93"/>
                  
            <line class="bond" id="mol1bnd8" x1="119.72" x2="106.52" y1="33.55" y2="25.93"/>
                  
            <path class="bond" d="M106.23 25.74l.59 .38l6.34 -7.7l-1.32 -.84l-1.32 -.84z" id="mol1bnd9" stroke="none"/>
                  
            <line class="bond" id="mol1bnd10" x1="114.14" x2="114.14" y1="17.8" y2="43.19"/>
                  
            <line class="bond" id="mol1bnd11" x1="106.52" x2="114.14" y1="56.39" y2="43.19"/>
                  
            <line class="bond" id="mol1bnd12" x1="111.28" x2="103.17" y1="10.66" y2="1.36"/>
                  
            <line class="bond" id="mol1bnd13" x1="103.17" x2="87.94" y1="1.36" y2="1.36"/>
                  
            <line class="bond" id="mol1bnd14" x1="87.94" x2="80.22" y1="1.36" y2="10.7"/>
                  
            <g class="bond" id="mol1bnd15">
                        
                <line x1="80.22" x2="80.22" y1="25.93" y2="10.7"/>
                        
                <line x1="77.78" x2="77.78" y1="24.52" y2="13.14"/>
                      
            </g>
                  
            <line class="bond" id="mol1bnd16" x1="93.32" x2="80.22" y1="33.55" y2="25.93"/>
                  
            <line class="bond" id="mol1bnd17" x1="80.22" x2="70.18" y1="25.93" y2="31.73"/>
                  
            <line class="bond" id="mol1bnd18" x1="63.87" x2="53.82" y1="31.73" y2="25.93"/>
                  
            <g class="bond" id="mol1bnd19">
                        
                <line x1="53.82" x2="53.82" y1="25.93" y2="10.7"/>
                        
                <line x1="51.38" x2="51.38" y1="24.52" y2="12.11"/>
                      
            </g>
                  
            <line class="bond" id="mol1bnd20" x1="80.22" x2="53.82" y1="10.7" y2="10.7"/>
                  
            <line class="bond" id="mol1bnd21" x1="53.82" x2="40.62" y1="10.7" y2="3.08"/>
                  
            <g class="bond" id="mol1bnd22">
                        
                <line x1="40.62" x2="27.42" y1="3.08" y2="10.7"/>
                        
                <line x1="40.62" x2="29.86" y1="5.9" y2="12.11"/>
                      
            </g>
                  
            <line class="bond" id="mol1bnd23" x1="27.42" x2="27.42" y1="10.7" y2="25.93"/>
                  
            <g class="bond" id="mol1bnd24">
                        
                <line x1="27.42" x2="40.62" y1="25.93" y2="33.55"/>
                        
                <line x1="29.86" x2="40.62" y1="24.52" y2="30.73"/>
                      
            </g>
                  
            <line class="bond" id="mol1bnd25" x1="53.82" x2="40.62" y1="25.93" y2="33.55"/>
                  
            <line class="bond" id="mol1bnd26" x1="27.42" x2="17.51" y1="10.7" y2="4.97"/>
                  
            <line class="bond" id="mol1bnd27" x1="10.95" x2="1.04" y1="4.97" y2="10.69"/>
                  
            <path class="atom" d="M116.08 16.4h-.72l-2.62 -4.07h-.03q.01 .24 .03 .6q.02 .36 .02 .73v2.74h-.57v-4.9h.71l2.61 4.05h.03q-.01 -.11 -.02 -.33q-.01 -.22 -.02 -.48q-.01 -.26 -.01 -.48v-2.77h.58v4.9z" fill="#3050F8" id="mol1atm9" stroke="none"/>
                  
            <g class="atom" id="mol1atm15">
                        
                <path d="M68.96 36.0h-.72l-2.62 -4.07h-.03q.01 .24 .03 .6q.02 .36 .02 .73v2.74h-.57v-4.9h.71l2.61 4.05h.03q-.01 -.11 -.02 -.33q-.01 -.22 -.02 -.48q-.01 -.26 -.01 -.48v-2.77h.58v4.9z" fill="#3050F8" stroke="none"/>
                        
                <path d="M68.83 41.46h-.62v-2.29h-2.51v2.29h-.61v-4.9h.61v2.07h2.51v-2.07h.62v4.9z" fill="#3050F8" stroke="none"/>
                      
            </g>
                  
            <path class="atom" d="M16.49 3.08q.0 .76 -.26 1.33q-.26 .57 -.76 .88q-.5 .32 -1.24 .32q-.76 .0 -1.26 -.32q-.51 -.32 -.76 -.89q-.24 -.57 -.24 -1.33q.0 -.75 .24 -1.31q.25 -.57 .76 -.88q.51 -.32 1.27 -.32q.73 .0 1.23 .32q.5 .31 .76 .88q.26 .57 .26 1.33zM12.63 3.08q.0 .92 .39 1.46q.39 .53 1.22 .53q.84 .0 1.22 -.53q.39 -.54 .39 -1.46q.0 -.93 -.39 -1.45q-.38 -.52 -1.21 -.52q-.83 .0 -1.23 .52q-.39 .52 -.39 1.45z" fill="#FF0D0D" id="mol1atm22" stroke="none"/>
                
            <line class="hi" id="mol1bnd10" stroke="#3050F8" x1="114.14" x2="114.14" y1="17.8" y2="30.494999999999997"/>
            <line class="hi" id="mol1bnd12" stroke="#3050F8" x1="111.28" x2="107.225" y1="10.66" y2="6.01"/>
            <line class="hi" id="mol1bnd17" stroke="#3050F8" x1="70.18" x2="75.2" y1="31.73" y2="28.83"/>
            <line class="hi" id="mol1bnd18" stroke="#3050F8" x1="63.87" x2="58.845" y1="31.73" y2="28.83"/>
            <line class="hi" id="mol1bnd26" stroke="#FF0D0D" x1="17.51" x2="22.465000000000003" y1="4.97" y2="7.834999999999999"/>
            <line class="hi" id="mol1bnd27" stroke="#FF0D0D" x1="10.95" x2="5.994999999999999" y1="4.97" y2="7.83"/>
        </g>
          
    </g>
    
</svg>
