<svg xmlns="http://www.w3.org/2000/svg" xmlns:xlink="http://www.w3.org/1999/xlink" height="88.68mm" version="1.2" viewBox="0 0 159.5 88.68" width="159.5mm">
      
    <desc>Generated by the Chemistry Development Kit (http://github.com/cdk)</desc>
      
    <g fill="#3050F8" stroke="#000000" stroke-linecap="round" stroke-linejoin="round" stroke-width=".7">
            
        <rect fill="#FFFFFF" height="89.0" stroke="none" width="160.0" x=".0" y=".0"/>
            
        <g class="mol" id="mol1">
                  
            <line class="bond" id="mol1bnd1" x1="158.45" x2="150.24" y1="4.59" y2="12.2"/>
                  
            <line class="bond" id="mol1bnd2" x1="144.0" x2="132.7" y1="13.95" y2="10.46"/>
                  
            <line class="bond" id="mol1bnd3" x1="132.7" x2="121.52" y1="10.46" y2="20.83"/>
                  
            <line class="bond" id="mol1bnd4" x1="121.52" x2="124.04" y1="20.83" y2="31.87"/>
                  
            <line class="bond" id="mol1bnd5" x1="128.19" x2="139.48" y1="36.7" y2="40.18"/>
                  
            <line class="bond" id="mol1bnd6" x1="139.48" x2="150.66" y1="40.18" y2="29.82"/>
                  
            <line class="bond" id="mol1bnd7" x1="148.15" x2="150.66" y1="18.77" y2="29.82"/>
                  
            <line class="bond" id="mol1bnd8" x1="121.94" x2="113.74" y1="38.44" y2="46.06"/>
                  
            <g class="bond" id="mol1bnd9">
                        
                <line x1="113.74" x2="99.18" y1="46.06" y2="41.56"/>
                        
                <line x1="113.11" x2="101.08" y1="43.31" y2="39.6"/>
                      
            </g>
                  
            <line class="bond" id="mol1bnd10" x1="99.18" x2="86.98" y1="41.56" y2="50.7"/>
                  
            <g class="bond" id="mol1bnd11">
                        
                <line x1="88.19" x2="88.37" y1="49.8" y2="62.0"/>
                        
                <line x1="85.75" x2="85.93" y1="49.84" y2="62.04"/>
                      
                <line class="hi" stroke="#FF0D0D" x1="88.37" x2="88.28" y1="62.0" y2="55.9"/>
                <line class="hi" stroke="#FF0D0D" x1="85.93" x2="85.84" y1="62.04" y2="55.94"/>
            </g>
                  
            <line class="bond" id="mol1bnd12" x1="86.98" x2="77.6" y1="50.7" y2="44.1"/>
                  
            <line class="bond" id="mol1bnd13" x1="75.69" x2="79.01" y1="38.14" y2="27.37"/>
                  
            <g class="bond" id="mol1bnd14">
                        
                <line x1="90.91" x2="79.01" y1="27.19" y2="27.37"/>
                        
                <line x1="90.95" x2="80.82" y1="29.63" y2="29.78"/>
                      
                <line class="hi" stroke="#3050F8" x1="90.91" x2="84.96000000000001" y1="27.19" y2="27.28"/>
                <line class="hi" stroke="#3050F8" x1="90.95" x2="85.88499999999999" y1="29.63" y2="29.705"/>
            </g>
                  
            <line class="bond" id="mol1bnd15" x1="99.18" x2="95.54" y1="41.56" y2="30.92"/>
                  
            <line class="bond" id="mol1bnd16" x1="79.01" x2="70.43" y1="27.37" y2="14.78"/>
                  
            <line class="bond" id="mol1bnd17" x1="70.43" x2="58.57" y1="14.78" y2="13.89"/>
                  
            <g class="bond" id="mol1bnd18">
                        
                <line x1="52.34" x2="44.86" y1="16.76" y2="24.81"/>
                        
                <line x1="54.12" x2="47.45" y1="18.41" y2="25.61"/>
                      
                <line class="hi" stroke="#3050F8" x1="52.34" x2="48.6" y1="16.76" y2="20.785"/>
                <line class="hi" stroke="#3050F8" x1="54.12" x2="50.785" y1="18.41" y2="22.009999999999998"/>
            </g>
                  
            <line class="bond" id="mol1bnd19" x1="44.86" x2="47.13" y1="24.81" y2="39.88"/>
                  
            <g class="bond" id="mol1bnd20">
                        
                <line x1="60.33" x2="47.13" y1="47.5" y2="39.88"/>
                        
                <line x1="57.89" x2="47.13" y1="48.91" y2="42.7"/>
                      
            </g>
                  
            <line class="bond" id="mol1bnd21" x1="71.28" x2="60.33" y1="43.21" y2="47.5"/>
                  
            <line class="bond" id="mol1bnd22" x1="60.33" x2="60.33" y1="47.5" y2="62.74"/>
                  
            <g class="bond" id="mol1bnd23">
                        
                <line x1="47.13" x2="60.33" y1="70.36" y2="62.74"/>
                        
                <line x1="47.13" x2="57.89" y1="67.54" y2="61.33"/>
                      
            </g>
                  
            <line class="bond" id="mol1bnd24" x1="47.13" x2="33.94" y1="70.36" y2="62.74"/>
                  
            <g class="bond" id="mol1bnd25">
                        
                <line x1="33.94" x2="33.94" y1="47.5" y2="62.74"/>
                        
                <line x1="36.37" x2="36.37" y1="48.91" y2="61.33"/>
                      
            </g>
                  
            <line class="bond" id="mol1bnd26" x1="47.13" x2="33.94" y1="39.88" y2="47.5"/>
                  
            <line class="bond" id="mol1bnd27" x1="33.94" x2="26.39" y1="62.74" y2="67.1"/>
                  
            <g class="bond" id="mol1bnd28">
                        
                <line x1="16.98" x2="10.21" y1="69.6" y2="65.69"/>
                        
                <line x1="18.19" x2="11.43" y1="67.48" y2="63.58"/>
                      
                <line class="hi" stroke="#3050F8" x1="16.98" x2="13.595" y1="69.6" y2="67.645"/>
                <line class="hi" stroke="#3050F8" x1="16.98" x2="13.595" y1="69.6" y2="67.645"/>
                <line class="hi" stroke="#FF0D0D" x1="10.21" x2="13.595" y1="65.69" y2="67.645"/>
                <line class="hi" stroke="#3050F8" x1="18.19" x2="14.81" y1="67.48" y2="65.53"/>
                <line class="hi" stroke="#3050F8" x1="18.19" x2="14.81" y1="67.48" y2="65.53"/>
                <line class="hi" stroke="#FF0D0D" x1="11.43" x2="14.81" y1="63.58" y2="65.53"/>
            </g>
                  
            <line class="bond" id="mol1bnd29" x1="20.74" x2="20.74" y1="74.21" y2="81.65"/>
                  
            <line class="bond" id="mol1bnd30" x1="44.86" x2="30.3" y1="24.81" y2="20.32"/>
                  
            <g class="bond" id="mol1bnd31">
                        
                <line x1="30.3" x2="26.9" y1="20.32" y2="5.41"/>
                        
                <line x1="27.61" x2="24.84" y1="19.49" y2="7.34"/>
                      
            </g>
                  
            <line class="bond" id="mol1bnd32" x1="26.9" x2="12.3" y1="5.41" y2="1.05"/>
                  
            <g class="bond" id="mol1bnd33">
                        
                <line x1="12.3" x2="1.05" y1="1.05" y2="11.38"/>
                        
                <line x1="12.93" x2="3.75" y1="3.79" y2="12.21"/>
                      
            </g>
                  
            <line class="bond" id="mol1bnd34" x1="1.05" x2="4.55" y1="11.38" y2="26.31"/>
                  
            <g class="bond" id="mol1bnd35">
                        
                <line x1="4.55" x2="19.15" y1="26.31" y2="30.67"/>
                        
                <line x1="6.6" x2="18.51" y1="24.38" y2="27.93"/>
                      
            </g>
                  
            <line class="bond" id="mol1bnd36" x1="30.3" x2="19.15" y1="20.32" y2="30.67"/>
                  
            <line class="bond" id="mol1bnd37" x1="19.15" x2="21.75" y1="30.67" y2="41.81"/>
                  
            <path class="atom" d="M149.22 17.41h-.72l-2.62 -4.07h-.03q.01 .24 .03 .6q.02 .36 .02 .73v2.74h-.57v-4.9h.71l2.61 4.05h.03q-.01 -.11 -.02 -.33q-.01 -.22 -.02 -.48q-.01 -.26 -.01 -.48v-2.77h.58v4.9z" id="mol1atm2" stroke="none"/>
                  
            <path class="atom" d="M126.85 38.14h-.72l-2.62 -4.07h-.03q.01 .24 .03 .6q.02 .36 .02 .73v2.74h-.57v-4.9h.71l2.61 4.05h.03q-.01 -.11 -.02 -.33q-.01 -.22 -.02 -.48q-.01 -.26 -.01 -.48v-2.77h.58v4.9z" id="mol1atm5" stroke="none"/>
                  
            <path class="atom" d="M89.47 65.94q.0 .76 -.26 1.33q-.26 .57 -.76 .88q-.5 .32 -1.24 .32q-.76 .0 -1.26 -.32q-.51 -.32 -.76 -.89q-.24 -.57 -.24 -1.33q.0 -.75 .24 -1.31q.25 -.57 .76 -.88q.51 -.32 1.27 -.32q.73 .0 1.23 .32q.5 .31 .76 .88q.26 .57 .26 1.33zM85.6 65.94q.0 .92 .39 1.46q.39 .53 1.22 .53q.84 .0 1.22 -.53q.39 -.54 .39 -1.46q.0 -.93 -.39 -1.45q-.38 -.52 -1.21 -.52q-.83 .0 -1.23 .52q-.39 .52 -.39 1.45z" fill="#FF0D0D" id="mol1atm11" stroke="none"/>
                  
            <path class="atom" d="M76.46 44.38h-.72l-2.62 -4.07h-.03q.01 .24 .03 .6q.02 .36 .02 .73v2.74h-.57v-4.9h.71l2.61 4.05h.03q-.01 -.11 -.02 -.33q-.01 -.22 -.02 -.48q-.01 -.26 -.01 -.48v-2.77h.58v4.9z" id="mol1atm12" stroke="none"/>
                  
            <path class="atom" d="M96.19 29.59h-.72l-2.62 -4.07h-.03q.01 .24 .03 .6q.02 .36 .02 .73v2.74h-.57v-4.9h.71l2.61 4.05h.03q-.01 -.11 -.02 -.33q-.01 -.22 -.02 -.48q-.01 -.26 -.01 -.48v-2.77h.58v4.9z" id="mol1atm14" stroke="none"/>
                  
            <path class="atom" d="M57.17 16.09h-.72l-2.62 -4.07h-.03q.01 .24 .03 .6q.02 .36 .02 .73v2.74h-.57v-4.9h.71l2.61 4.05h.03q-.01 -.11 -.02 -.33q-.01 -.22 -.02 -.48q-.01 -.26 -.01 -.48v-2.77h.58v4.9z" id="mol1atm16" stroke="none"/>
                  
            <g class="atom" id="mol1atm24">
                        
                <path d="M22.68 72.81h-.72l-2.62 -4.07h-.03q.01 .24 .03 .6q.02 .36 .02 .73v2.74h-.57v-4.9h.71l2.61 4.05h.03q-.01 -.11 -.02 -.33q-.01 -.22 -.02 -.48q-.01 -.26 -.01 -.48v-2.77h.58v4.9z" stroke="none"/>
                        
                <path d="M24.35 67.77h.82v.29h-.82v.85h-.3v-.85h-.82v-.29h.82v-.85h.3v.85z" stroke="none"/>
                      
            </g>
                  
            <path class="atom" d="M9.8 62.74q.0 .76 -.26 1.33q-.26 .57 -.76 .88q-.5 .32 -1.24 .32q-.76 .0 -1.26 -.32q-.51 -.32 -.76 -.89q-.24 -.57 -.24 -1.33q.0 -.75 .24 -1.31q.25 -.57 .76 -.88q.51 -.32 1.27 -.32q.73 .0 1.23 .32q.5 .31 .76 .88q.26 .57 .26 1.33zM5.94 62.74q.0 .92 .39 1.46q.39 .53 1.22 .53q.84 .0 1.22 -.53q.39 -.54 .39 -1.46q.0 -.93 -.39 -1.45q-.38 -.52 -1.21 -.52q-.83 .0 -1.23 .52q-.39 .52 -.39 1.45z" fill="#FF0D0D" id="mol1atm25" stroke="none"/>
                  
            <g class="atom" id="mol1atm26">
                        
                <path d="M23.0 85.6q.0 .76 -.26 1.33q-.26 .57 -.76 .88q-.5 .32 -1.24 .32q-.76 .0 -1.26 -.32q-.51 -.32 -.76 -.89q-.24 -.57 -.24 -1.33q.0 -.75 .24 -1.31q.25 -.57 .76 -.88q.51 -.32 1.27 -.32q.73 .0 1.23 .32q.5 .31 .76 .88q.26 .57 .26 1.33zM19.13 85.6q.0 .92 .39 1.46q.39 .53 1.22 .53q.84 .0 1.22 -.53q.39 -.54 .39 -1.46q.0 -.93 -.39 -1.45q-.38 -.52 -1.21 -.52q-.83 .0 -1.23 .52q-.39 .52 -.39 1.45z" fill="#FF0D0D" stroke="none"/>
                        
                <path d="M25.49 82.93v.29h-1.93v-.29h1.93z" fill="#FF0D0D" stroke="none"/>
                      
            </g>
                  
            <path class="atom" d="M23.11 43.53q-.79 .0 -1.24 .53q-.45 .52 -.45 1.45q.0 .91 .42 1.45q.42 .53 1.27 .53q.32 .0 .61 -.05q.29 -.06 .57 -.14v.54q-.27 .1 -.57 .15q-.29 .05 -.7 .05q-.74 .0 -1.25 -.31q-.5 -.31 -.75 -.88q-.25 -.57 -.25 -1.34q.0 -.74 .27 -1.31q.27 -.57 .8 -.88q.53 -.32 1.28 -.32q.78 .0 1.35 .29l-.24 .52q-.23 -.1 -.51 -.18q-.27 -.08 -.61 -.08zM25.86 47.96h-.6v-5.21h.6v5.21z" fill="#1FF01F" id="mol1atm33" stroke="none"/>
                
            <line class="hi" id="mol1bnd1" stroke="#3050F8" x1="150.24" x2="154.345" y1="12.2" y2="8.395"/>
            <line class="hi" id="mol1bnd2" stroke="#3050F8" x1="144.0" x2="138.35" y1="13.95" y2="12.205"/>
            <line class="hi" id="mol1bnd4" stroke="#3050F8" x1="124.04" x2="122.78" y1="31.87" y2="26.35"/>
            <line class="hi" id="mol1bnd5" stroke="#3050F8" x1="128.19" x2="133.83499999999998" y1="36.7" y2="38.44"/>
            <line class="hi" id="mol1bnd7" stroke="#3050F8" x1="148.15" x2="149.405" y1="18.77" y2="24.295"/>
            <line class="hi" id="mol1bnd8" stroke="#3050F8" x1="121.94" x2="117.84" y1="38.44" y2="42.25"/>
            <line class="hi" id="mol1bnd12" stroke="#3050F8" x1="77.6" x2="82.28999999999999" y1="44.1" y2="47.400000000000006"/>
            <line class="hi" id="mol1bnd13" stroke="#3050F8" x1="75.69" x2="77.35" y1="38.14" y2="32.755"/>
            <line class="hi" id="mol1bnd15" stroke="#3050F8" x1="95.54" x2="97.36000000000001" y1="30.92" y2="36.24"/>
            <line class="hi" id="mol1bnd17" stroke="#3050F8" x1="58.57" x2="64.5" y1="13.89" y2="14.335"/>
            <line class="hi" id="mol1bnd21" stroke="#3050F8" x1="71.28" x2="65.805" y1="43.21" y2="45.355000000000004"/>
            <line class="hi" id="mol1bnd27" stroke="#3050F8" x1="26.39" x2="30.165" y1="67.1" y2="64.92"/>
            <line class="hi" id="mol1bnd27" stroke="#3050F8" x1="26.39" x2="30.165" y1="67.1" y2="64.92"/>
            <line class="hi" id="mol1bnd29" stroke="#3050F8" x1="20.74" x2="20.74" y1="74.21" y2="77.93"/>
            <line class="hi" id="mol1bnd29" stroke="#3050F8" x1="20.74" x2="20.74" y1="74.21" y2="77.93"/>
            <line class="hi" id="mol1bnd29" stroke="#FF0D0D" x1="20.74" x2="20.74" y1="81.65" y2="77.93"/>
            <line class="hi" id="mol1bnd29" stroke="#FF0D0D" x1="20.74" x2="20.74" y1="81.65" y2="77.93"/>
            <line class="hi" id="mol1bnd37" stroke="#1FF01F" x1="21.75" x2="20.45" y1="41.81" y2="36.24"/>
        </g>
          
    </g>
    
</svg>
