<svg xmlns="http://www.w3.org/2000/svg" xmlns:xlink="http://www.w3.org/1999/xlink" height="118.29mm" version="1.2" viewBox="0 0 96.14 118.29" width="96.14mm">
      
    <desc>Generated by the Chemistry Development Kit (http://github.com/cdk)</desc>
      
    <g fill="#3050F8" stroke="#000000" stroke-linecap="round" stroke-linejoin="round" stroke-width=".7">
            
        <rect fill="#FFFFFF" height="119.0" stroke="none" width="97.0" x=".0" y=".0"/>
            
        <g class="mol" id="mol1">
                  
            <line class="bond" id="mol1bnd1" x1="80.2" x2="70.13" y1="77.14" y2="71.37"/>
                  
            <line class="bond" id="mol1bnd2" x1="66.98" x2="66.98" y1="65.71" y2="54.32"/>
                  
            <line class="bond" id="mol1bnd3" x1="66.98" x2="53.77" y1="54.32" y2="46.8"/>
                  
            <line class="bond" id="mol1bnd4" x1="53.77" x2="40.66" y1="46.8" y2="54.32"/>
                  
            <g class="bond" id="mol1bnd5">
                        
                <line x1="40.66" x2="40.66" y1="54.32" y2="69.56"/>
                        
                <line x1="43.1" x2="43.1" y1="55.73" y2="68.16"/>
                      
            </g>
                  
            <line class="bond" id="mol1bnd6" x1="40.66" x2="53.77" y1="69.56" y2="77.28"/>
                  
            <g class="bond" id="mol1bnd7">
                        
                <line stroke="#000000" x1="53.59" x2="53.95" y1="76.98" y2="77.58"/>
                        
                <line stroke="#3050F8" x1="55.35" x2="55.96" y1="75.66" y2="76.7"/>
                        
                <line stroke="#3050F8" x1="57.11" x2="57.97" y1="74.34" y2="75.81"/>
                        
                <line stroke="#3050F8" x1="58.87" x2="59.99" y1="73.02" y2="74.92"/>
                        
                <line stroke="#3050F8" x1="60.64" x2="62.0" y1="71.7" y2="74.03"/>
                        
                <line stroke="#3050F8" x1="62.4" x2="64.01" y1="70.38" y2="73.15"/>
                      
            </g>
                  
            <line class="bond" id="mol1bnd8" x1="53.77" x2="53.77" y1="77.28" y2="92.52"/>
                  
            <line class="bond" id="mol1bnd9" x1="53.77" x2="40.66" y1="92.52" y2="100.04"/>
                  
            <g class="bond" id="mol1bnd10">
                        
                <line x1="40.66" x2="40.66" y1="115.28" y2="100.04"/>
                        
                <line x1="38.22" x2="38.22" y1="112.84" y2="101.46"/>
                      
            </g>
                  
            <line class="bond" id="mol1bnd11" x1="40.66" x2="17.59" y1="115.28" y2="115.28"/>
                  
            <line class="bond" id="mol1bnd12" x1="14.25" x2="14.25" y1="111.43" y2="100.04"/>
                  
            <g class="bond" id="mol1bnd13">
                        
                <line x1="1.04" x2="14.25" y1="92.52" y2="100.04"/>
                        
                <line x1="3.48" x2="14.25" y1="91.1" y2="97.23"/>
                      
            </g>
                  
            <line class="bond" id="mol1bnd14" x1="1.04" x2="1.04" y1="92.52" y2="77.28"/>
                  
            <g class="bond" id="mol1bnd15">
                        
                <line x1="14.25" x2="1.04" y1="69.56" y2="77.28"/>
                        
                <line x1="14.25" x2="3.48" y1="72.38" y2="78.68"/>
                      
            </g>
                  
            <line class="bond" id="mol1bnd16" x1="14.25" x2="27.45" y1="69.56" y2="77.28"/>
                  
            <line class="bond" id="mol1bnd17" x1="40.66" x2="27.45" y1="69.56" y2="77.28"/>
                  
            <g class="bond" id="mol1bnd18">
                        
                <line x1="27.45" x2="27.45" y1="92.52" y2="77.28"/>
                        
                <line x1="25.02" x2="25.02" y1="91.1" y2="78.68"/>
                      
            </g>
                  
            <line class="bond" id="mol1bnd19" x1="40.66" x2="27.45" y1="100.04" y2="92.52"/>
                  
            <line class="bond" id="mol1bnd20" x1="14.25" x2="27.45" y1="100.04" y2="92.52"/>
                  
            <path class="bond" d="M53.42 46.8h.7l1.87 -16.54l-2.25 1.3l-2.25 -1.29z" fill="#000000" id="mol1bnd21" stroke="none"/>
                  
            <g class="bond" id="mol1bnd22">
                        
                <line x1="53.74" x2="43.81" y1="31.56" y2="25.85"/>
                        
                <line x1="53.74" x2="45.03" y1="28.74" y2="23.73"/>
                      
                <line class="hi" stroke="#FF0D0D" x1="43.81" x2="48.775000000000006" y1="25.85" y2="28.705"/>
                <line class="hi" stroke="#FF0D0D" x1="45.03" x2="49.385000000000005" y1="23.73" y2="26.235"/>
            </g>
                  
            <line class="bond" id="mol1bnd23" x1="53.74" x2="63.78" y1="31.56" y2="25.75"/>
                  
            <line class="bond" id="mol1bnd24" x1="66.92" x2="66.91" y1="20.07" y2="8.68"/>
                  
            <line class="bond" id="mol1bnd25" x1="66.91" x2="80.1" y1="8.68" y2="1.04"/>
                  
            <line class="bond" id="mol1bnd26" x1="80.1" x2="90.04" y1="1.04" y2="6.75"/>
                  
            <line class="bond" id="mol1bnd27" x1="93.33" x2="93.35" y1="12.56" y2="23.88"/>
                  
            <line class="bond" id="mol1bnd28" x1="93.35" x2="80.15" y1="23.88" y2="31.52"/>
                  
            <line class="bond" id="mol1bnd29" x1="70.08" x2="80.15" y1="25.73" y2="31.52"/>
                  
            <path class="atom" d="M68.92 72.01h-.72l-2.62 -4.07h-.03q.01 .24 .03 .6q.02 .36 .02 .73v2.74h-.57v-4.9h.71l2.61 4.05h.03q-.01 -.11 -.02 -.33q-.01 -.22 -.02 -.48q-.01 -.26 -.01 -.48v-2.77h.58v4.9z" id="mol1atm2" stroke="none"/>
                  
            <g class="atom" id="mol1atm11">
                        
                <path d="M16.19 117.73h-.72l-2.62 -4.07h-.03q.01 .24 .03 .6q.02 .36 .02 .73v2.74h-.57v-4.9h.71l2.61 4.05h.03q-.01 -.11 -.02 -.33q-.01 -.22 -.02 -.48q-.01 -.26 -.01 -.48v-2.77h.58v4.9z" stroke="none"/>
                        
                <path d="M11.74 117.73h-.62v-2.29h-2.51v2.29h-.61v-4.9h.61v2.07h2.51v-2.07h.62v4.9z" stroke="none"/>
                      
            </g>
                  
            <path class="atom" d="M43.4 22.9q.0 .76 -.26 1.33q-.26 .57 -.76 .88q-.5 .32 -1.24 .32q-.76 .0 -1.26 -.32q-.51 -.32 -.76 -.89q-.24 -.57 -.24 -1.33q.0 -.75 .24 -1.31q.25 -.57 .76 -.88q.51 -.32 1.27 -.32q.73 .0 1.23 .32q.5 .31 .76 .88q.26 .57 .26 1.33zM39.54 22.9q.0 .92 .39 1.46q.39 .53 1.22 .53q.84 .0 1.22 -.53q.39 -.54 .39 -1.46q.0 -.93 -.39 -1.45q-.38 -.52 -1.21 -.52q-.83 .0 -1.23 .52q-.39 .52 -.39 1.45z" fill="#FF0D0D" id="mol1atm19" stroke="none"/>
                  
            <path class="atom" d="M68.87 26.37h-.72l-2.62 -4.07h-.03q.01 .24 .03 .6q.02 .36 .02 .73v2.74h-.57v-4.9h.71l2.61 4.05h.03q-.01 -.11 -.02 -.33q-.01 -.22 -.02 -.48q-.01 -.26 -.01 -.48v-2.77h.58v4.9z" id="mol1atm20" stroke="none"/>
                  
            <path class="atom" d="M95.58 8.64q.0 .76 -.26 1.33q-.26 .57 -.76 .88q-.5 .32 -1.24 .32q-.76 .0 -1.26 -.32q-.51 -.32 -.76 -.89q-.24 -.57 -.24 -1.33q.0 -.75 .24 -1.31q.25 -.57 .76 -.88q.51 -.32 1.27 -.32q.73 .0 1.23 .32q.5 .31 .76 .88q.26 .57 .26 1.33zM91.72 8.64q.0 .92 .39 1.46q.39 .53 1.22 .53q.84 .0 1.22 -.53q.39 -.54 .39 -1.46q.0 -.93 -.39 -1.45q-.38 -.52 -1.21 -.52q-.83 .0 -1.23 .52q-.39 .52 -.39 1.45z" fill="#FF0D0D" id="mol1atm23" stroke="none"/>
                
            <line class="hi" id="mol1bnd1" stroke="#3050F8" x1="70.13" x2="75.16499999999999" y1="71.37" y2="74.255"/>
            <line class="hi" id="mol1bnd2" stroke="#3050F8" x1="66.98" x2="66.98" y1="65.71" y2="60.015"/>
            <line class="hi" id="mol1bnd11" stroke="#3050F8" x1="17.59" x2="29.125" y1="115.28" y2="115.28"/>
            <line class="hi" id="mol1bnd11" stroke="#3050F8" x1="17.59" x2="29.125" y1="115.28" y2="115.28"/>
            <line class="hi" id="mol1bnd12" stroke="#3050F8" x1="14.25" x2="14.25" y1="111.43" y2="105.73500000000001"/>
            <line class="hi" id="mol1bnd12" stroke="#3050F8" x1="14.25" x2="14.25" y1="111.43" y2="105.73500000000001"/>
            <line class="hi" id="mol1bnd23" stroke="#3050F8" x1="63.78" x2="58.760000000000005" y1="25.75" y2="28.655"/>
            <line class="hi" id="mol1bnd24" stroke="#3050F8" x1="66.92" x2="66.91499999999999" y1="20.07" y2="14.375"/>
            <line class="hi" id="mol1bnd26" stroke="#FF0D0D" x1="90.04" x2="85.07" y1="6.75" y2="3.895"/>
            <line class="hi" id="mol1bnd27" stroke="#FF0D0D" x1="93.33" x2="93.34" y1="12.56" y2="18.22"/>
            <line class="hi" id="mol1bnd29" stroke="#3050F8" x1="70.08" x2="75.11500000000001" y1="25.73" y2="28.625"/>
        </g>
          
    </g>
    
</svg>
