<svg xmlns="http://www.w3.org/2000/svg" xmlns:xlink="http://www.w3.org/1999/xlink" height="77.22mm" version="1.2" viewBox="0 0 135.63 77.22" width="135.63mm">
      
    <desc>Generated by the Chemistry Development Kit (http://github.com/cdk)</desc>
      
    <g fill="#FF0D0D" stroke="#000000" stroke-linecap="round" stroke-linejoin="round" stroke-width=".7">
            
        <rect fill="#FFFFFF" height="78.0" stroke="none" width="136.0" x=".0" y=".0"/>
            
        <g class="mol" id="mol1">
                  
            <line class="bond" id="mol1bnd1" x1="134.59" x2="121.4" y1="69.58" y2="61.94"/>
                  
            <line class="bond" id="mol1bnd2" x1="121.4" x2="108.19" y1="61.94" y2="69.55"/>
                  
            <line class="bond" id="mol1bnd3" x1="108.19" x2="95.0" y1="69.55" y2="61.91"/>
                  
            <line class="bond" id="mol1bnd4" x1="95.0" x2="81.8" y1="61.91" y2="69.51"/>
                  
            <line class="bond" id="mol1bnd5" x1="81.8" x2="68.61" y1="69.51" y2="61.87"/>
                  
            <g class="bond" id="mol1bnd6">
                        
                <line x1="68.61" x2="68.61" y1="61.87" y2="46.53"/>
                        
                <line x1="66.17" x2="66.17" y1="60.46" y2="47.93"/>
                      
            </g>
                  
            <line class="bond" id="mol1bnd7" x1="68.61" x2="55.5" y1="46.53" y2="38.91"/>
                  
            <g class="bond" id="mol1bnd8">
                        
                <line x1="55.5" x2="42.29" y1="38.91" y2="46.53"/>
                        
                <line x1="55.5" x2="44.73" y1="41.73" y2="47.94"/>
                      
            </g>
                  
            <line class="bond" id="mol1bnd9" x1="42.29" x2="29.19" y1="46.53" y2="38.91"/>
                  
            <path class="bond" d="M28.84 38.91h.7l1.72 -14.41l-1.96 -1.13l-2.24 -1.29z" fill="#000000" id="mol1bnd10" stroke="none"/>
                  
            <g class="bond" id="mol1bnd11">
                        
                <line x1="29.29" x2="16.08" y1="23.77" y2="16.15"/>
                        
                <line x1="26.84" x2="16.08" y1="25.17" y2="18.96"/>
                      
            </g>
                  
            <line class="bond" id="mol1bnd12" x1="16.08" x2="2.77" y1="16.15" y2="23.77"/>
                  
            <line class="bond" id="mol1bnd13" x1="2.77" x2="2.77" y1="23.77" y2="38.91"/>
                  
            <g class="bond" id="mol1bnd14">
                        
                <line x1="15.98" x2="15.98" y1="46.18" y2="46.88"/>
                        
                <line x1="14.09" x2="14.09" y1="44.84" y2="46.04"/>
                        
                <line x1="12.21" x2="12.21" y1="43.5" y2="45.2"/>
                        
                <line x1="10.32" x2="10.32" y1="42.16" y2="44.36"/>
                        
                <line x1="8.43" x2="8.43" y1="40.82" y2="43.52"/>
                        
                <line x1="6.54" x2="6.54" y1="39.49" y2="42.69"/>
                        
                <line x1="4.66" x2="4.66" y1="38.15" y2="41.85"/>
                        
                <line x1="2.77" x2="2.77" y1="36.81" y2="41.01"/>
                      
            </g>
                  
            <line class="bond" id="mol1bnd15" x1="29.19" x2="15.98" y1="38.91" y2="46.53"/>
                  
            <line class="bond" id="mol1bnd16" x1="15.98" x2="15.98" y1="46.53" y2="61.87"/>
                  
            <line class="bond" id="mol1bnd17" x1="15.98" x2="25.89" y1="61.87" y2="67.51"/>
                  
            <line class="bond" id="mol1bnd18" x1="32.47" x2="42.29" y1="67.51" y2="61.87"/>
                  
            <line class="bond" id="mol1bnd19" x1="42.29" x2="42.29" y1="46.53" y2="61.87"/>
                  
            <g class="bond" id="mol1bnd20">
                        
                <line x1="42.29" x2="55.5" y1="61.87" y2="69.39"/>
                        
                <line x1="44.73" x2="55.5" y1="60.45" y2="66.58"/>
                      
            </g>
                  
            <line class="bond" id="mol1bnd21" x1="68.61" x2="55.5" y1="61.87" y2="69.39"/>
                  
            <line class="bond" id="mol1bnd22" x1="15.98" x2=".96" y1="61.87" y2="59.25"/>
                  
            <line class="bond" id="mol1bnd23" x1="15.98" x2="10.82" y1="61.87" y2="76.21"/>
                  
            <line class="bond" id="mol1bnd24" x1="16.08" x2="16.11" y1="16.15" y2=".91"/>
                  
            <line class="bond" id="mol1bnd25" x1="55.5" x2="55.52" y1="38.91" y2="27.59"/>
                  
            <path class="atom" d="M31.45 69.39q.0 .76 -.26 1.33q-.26 .57 -.76 .88q-.5 .32 -1.24 .32q-.76 .0 -1.26 -.32q-.51 -.32 -.76 -.89q-.24 -.57 -.24 -1.33q.0 -.75 .24 -1.31q.25 -.57 .76 -.88q.51 -.32 1.27 -.32q.73 .0 1.23 .32q.5 .31 .76 .88q.26 .57 .26 1.33zM27.58 69.39q.0 .92 .39 1.46q.39 .53 1.22 .53q.84 .0 1.22 -.53q.39 -.54 .39 -1.46q.0 -.93 -.39 -1.45q-.38 -.52 -1.21 -.52q-.83 .0 -1.23 .52q-.39 .52 -.39 1.45z" id="mol1atm17" stroke="none"/>
                  
            <g class="atom" id="mol1atm23">
                        
                <path d="M57.79 23.67q.0 .76 -.26 1.33q-.26 .57 -.76 .88q-.5 .32 -1.24 .32q-.76 .0 -1.26 -.32q-.51 -.32 -.76 -.89q-.24 -.57 -.24 -1.33q.0 -.75 .24 -1.31q.25 -.57 .76 -.88q.51 -.32 1.27 -.32q.73 .0 1.23 .32q.5 .31 .76 .88q.26 .57 .26 1.33zM53.92 23.67q.0 .92 .39 1.46q.39 .53 1.22 .53q.84 .0 1.22 -.53q.39 -.54 .39 -1.46q.0 -.93 -.39 -1.45q-.38 -.52 -1.21 -.52q-.83 .0 -1.23 .52q-.39 .52 -.39 1.45z" stroke="none"/>
                        
                <path d="M62.09 26.12h-.62v-2.29h-2.51v2.29h-.61v-4.9h.61v2.07h2.51v-2.07h.62v4.9z" stroke="none"/>
                      
            </g>
                
            <line class="hi" id="mol1bnd17" stroke="#FF0D0D" x1="25.89" x2="20.935000000000002" y1="67.51" y2="64.69"/>
            <line class="hi" id="mol1bnd18" stroke="#FF0D0D" x1="32.47" x2="37.379999999999995" y1="67.51" y2="64.69"/>
            <line class="hi" id="mol1bnd25" stroke="#FF0D0D" x1="55.52" x2="55.510000000000005" y1="27.59" y2="33.25"/>
            <line class="hi" id="mol1bnd25" stroke="#FF0D0D" x1="55.52" x2="55.510000000000005" y1="27.59" y2="33.25"/>
        </g>
          
    </g>
    
</svg>
