<svg xmlns="http://www.w3.org/2000/svg" xmlns:xlink="http://www.w3.org/1999/xlink" height="32.54mm" version="1.2" viewBox="0 0 98.91 32.54" width="98.91mm">
      
    <desc>Generated by the Chemistry Development Kit (http://github.com/cdk)</desc>
      
    <g fill="#3050F8" stroke="#000000" stroke-linecap="round" stroke-linejoin="round" stroke-width=".7">
            
        <rect fill="#FFFFFF" height="33.0" stroke="none" width="99.0" x=".0" y=".0"/>
            
        <g class="mol" id="mol1">
                  
            <line class="bond" id="mol1bnd1" x1="33.48" x2="24.54" y1="3.98" y2="16.27"/>
                  
            <line class="bond" id="mol1bnd2" x1="24.54" x2="33.48" y1="16.27" y2="28.56"/>
                  
            <line class="bond" id="mol1bnd3" x1="33.48" x2="48.0" y1="28.56" y2="23.89"/>
                  
            <g class="bond" id="mol1bnd4">
                        
                <line x1="48.0" x2="61.2" y1="23.89" y2="31.5"/>
                        
                <line x1="50.44" x2="61.2" y1="22.48" y2="28.69"/>
                      
            </g>
                  
            <line class="bond" id="mol1bnd5" x1="61.2" x2="74.4" y1="31.5" y2="23.89"/>
                  
            <g class="bond" id="mol1bnd6">
                        
                <line x1="74.4" x2="74.4" y1="23.89" y2="8.65"/>
                        
                <line x1="71.96" x2="71.96" y1="22.48" y2="10.06"/>
                      
            </g>
                  
            <line class="bond" id="mol1bnd7" x1="74.4" x2="61.2" y1="8.65" y2="1.04"/>
                  
            <g class="bond" id="mol1bnd8">
                        
                <line x1="61.2" x2="48.0" y1="1.04" y2="8.65"/>
                        
                <line x1="61.2" x2="50.44" y1="3.85" y2="10.06"/>
                      
            </g>
                  
            <line class="bond" id="mol1bnd9" x1="48.0" x2="48.0" y1="23.89" y2="8.65"/>
                  
            <line class="bond" id="mol1bnd10" x1="33.48" x2="48.0" y1="3.98" y2="8.65"/>
                  
            <line class="bond" id="mol1bnd11" x1="74.4" x2="85.33" y1="8.65" y2="5.14"/>
                  
            <line class="bond" id="mol1bnd12" x1="91.24" x2="97.86" y1="7.17" y2="16.27"/>
                  
            <line class="bond" id="mol1bnd13" x1="97.86" x2="91.24" y1="16.27" y2="25.37"/>
                  
            <line class="bond" id="mol1bnd14" x1="74.4" x2="85.33" y1="23.89" y2="27.4"/>
                  
            <line class="bond" id="mol1bnd15" x1="24.54" x2="12.65" y1="16.27" y2="16.27"/>
                  
            <path class="atom" d="M91.18 3.98q.0 .76 -.26 1.33q-.26 .57 -.76 .88q-.5 .32 -1.24 .32q-.76 .0 -1.26 -.32q-.51 -.32 -.76 -.89q-.24 -.57 -.24 -1.33q.0 -.75 .24 -1.31q.25 -.57 .76 -.88q.51 -.32 1.27 -.32q.73 .0 1.23 .32q.5 .31 .76 .88q.26 .57 .26 1.33zM87.32 3.98q.0 .92 .39 1.46q.39 .53 1.22 .53q.84 .0 1.22 -.53q.39 -.54 .39 -1.46q.0 -.93 -.39 -1.45q-.38 -.52 -1.21 -.52q-.83 .0 -1.23 .52q-.39 .52 -.39 1.45z" fill="#FF0D0D" id="mol1atm10" stroke="none"/>
                  
            <path class="atom" d="M91.18 28.55q.0 .76 -.26 1.33q-.26 .57 -.76 .88q-.5 .32 -1.24 .32q-.76 .0 -1.26 -.32q-.51 -.32 -.76 -.89q-.24 -.57 -.24 -1.33q.0 -.75 .24 -1.31q.25 -.57 .76 -.88q.51 -.32 1.27 -.32q.73 .0 1.23 .32q.5 .31 .76 .88q.26 .57 .26 1.33zM87.32 28.55q.0 .92 .39 1.46q.39 .53 1.22 .53q.84 .0 1.22 -.53q.39 -.54 .39 -1.46q.0 -.93 -.39 -1.45q-.38 -.52 -1.21 -.52q-.83 .0 -1.23 .52q-.39 .52 -.39 1.45z" fill="#FF0D0D" id="mol1atm12" stroke="none"/>
                  
            <g class="atom" id="mol1atm13">
                        
                <path d="M11.25 18.72h-.72l-2.62 -4.07h-.03q.01 .24 .03 .6q.02 .36 .02 .73v2.74h-.57v-4.9h.71l2.61 4.05h.03q-.01 -.11 -.02 -.33q-.01 -.22 -.02 -.48q-.01 -.26 -.01 -.48v-2.77h.58v4.9z" stroke="none"/>
                        
                <path d="M4.3 18.72h-.62v-2.29h-2.51v2.29h-.61v-4.9h.61v2.07h2.51v-2.07h.62v4.9z" stroke="none"/>
                        
                <path d="M6.81 20.21h-1.94v-.3l.77 -.78q.22 -.22 .37 -.39q.15 -.18 .23 -.34q.08 -.17 .08 -.36q.0 -.24 -.15 -.37q-.14 -.13 -.37 -.13q-.21 .0 -.38 .08q-.16 .08 -.33 .21l-.19 -.24q.17 -.15 .39 -.25q.23 -.1 .51 -.1q.41 .0 .65 .21q.24 .21 .24 .58q.0 .23 -.1 .43q-.09 .2 -.26 .4q-.17 .2 -.39 .42l-.61 .6v.02h1.49v.33z" stroke="none"/>
                      
            </g>
                
            <line class="hi" id="mol1bnd11" stroke="#FF0D0D" x1="85.33" x2="79.86500000000001" y1="5.14" y2="6.895"/>
            <line class="hi" id="mol1bnd12" stroke="#FF0D0D" x1="91.24" x2="94.55" y1="7.17" y2="11.719999999999999"/>
            <line class="hi" id="mol1bnd13" stroke="#FF0D0D" x1="91.24" x2="94.55" y1="25.37" y2="20.82"/>
            <line class="hi" id="mol1bnd14" stroke="#FF0D0D" x1="85.33" x2="79.86500000000001" y1="27.4" y2="25.645"/>
            <line class="hi" id="mol1bnd15" stroke="#3050F8" x1="12.65" x2="18.595" y1="16.27" y2="16.27"/>
            <line class="hi" id="mol1bnd15" stroke="#3050F8" x1="12.65" x2="18.595" y1="16.27" y2="16.27"/>
        </g>
          
    </g>
    
</svg>
