<svg xmlns="http://www.w3.org/2000/svg" xmlns:xlink="http://www.w3.org/1999/xlink" height="40.32mm" version="1.2" viewBox="0 0 110.65 40.32" width="110.65mm">
      
    <desc>Generated by the Chemistry Development Kit (http://github.com/cdk)</desc>
      
    <g fill="#FF0D0D" stroke="#000000" stroke-linecap="round" stroke-linejoin="round" stroke-width=".7">
            
        <rect fill="#FFFFFF" height="41.0" stroke="none" width="111.0" x=".0" y=".0"/>
            
        <g class="mol" id="mol1">
                  
            <line class="bond" id="mol1bnd1" x1="77.14" x2="77.13" y1="31.34" y2="16.1"/>
                  
            <line class="bond" id="mol1bnd2" x1="77.13" x2="63.93" y1="16.1" y2="8.49"/>
                  
            <line class="bond" id="mol1bnd3" x1="63.93" x2="50.73" y1="8.49" y2="16.11"/>
                  
            <g class="bond" id="mol1bnd4">
                        
                <line x1="50.73" x2="37.32" y1="16.11" y2="8.39"/>
                        
                <line x1="48.3" x2="37.34" y1="17.52" y2="11.21"/>
                      
            </g>
                  
            <line class="bond" id="mol1bnd5" x1="37.32" x2="24.22" y1="8.39" y2="16.11"/>
                  
            <g class="bond" id="mol1bnd6">
                        
                <line x1="24.22" x2="24.22" y1="16.11" y2="31.56"/>
                        
                <line x1="26.65" x2="26.65" y1="17.51" y2="30.16"/>
                      
            </g>
                  
            <line class="bond" id="mol1bnd7" x1="24.22" x2="37.32" y1="31.56" y2="39.28"/>
                  
            <g class="bond" id="mol1bnd8">
                        
                <line x1="37.32" x2="50.73" y1="39.28" y2="31.56"/>
                        
                <line x1="37.34" x2="48.3" y1="36.46" y2="30.15"/>
                      
            </g>
                  
            <line class="bond" id="mol1bnd9" x1="50.73" x2="50.73" y1="16.11" y2="31.56"/>
                  
            <line class="bond" id="mol1bnd10" x1="24.22" x2="13.59" y1="31.56" y2="34.9"/>
                  
            <line class="bond" id="mol1bnd11" x1="7.54" x2="1.05" y1="32.93" y2="24.75"/>
                  
            <line class="bond" id="mol1bnd12" x1="1.05" x2="7.52" y1="24.75" y2="14.93"/>
                  
            <line class="bond" id="mol1bnd13" x1="24.22" x2="13.29" y1="16.11" y2="12.75"/>
                  
            <line class="bond" id="mol1bnd14" x1="77.13" x2="87.17" y1="16.1" y2="10.29"/>
                  
            <line class="bond" id="mol1bnd15" x1="93.48" x2="100.24" y1="10.29" y2="14.19"/>
                  
            <path class="atom" d="M12.25 36.03q.0 .76 -.26 1.33q-.26 .57 -.76 .88q-.5 .32 -1.24 .32q-.76 .0 -1.26 -.32q-.51 -.32 -.76 -.89q-.24 -.57 -.24 -1.33q.0 -.75 .24 -1.31q.25 -.57 .76 -.88q.51 -.32 1.27 -.32q.73 .0 1.23 .32q.5 .31 .76 .88q.26 .57 .26 1.33zM8.39 36.03q.0 .92 .39 1.46q.39 .53 1.22 .53q.84 .0 1.22 -.53q.39 -.54 .39 -1.46q.0 -.93 -.39 -1.45q-.38 -.52 -1.21 -.52q-.83 .0 -1.23 .52q-.39 .52 -.39 1.45z" id="mol1atm10" stroke="none"/>
                  
            <path class="atom" d="M11.95 11.64q.0 .76 -.26 1.33q-.26 .57 -.76 .88q-.5 .32 -1.24 .32q-.76 .0 -1.26 -.32q-.51 -.32 -.76 -.89q-.24 -.57 -.24 -1.33q.0 -.75 .24 -1.31q.25 -.57 .76 -.88q.51 -.32 1.27 -.32q.73 .0 1.23 .32q.5 .31 .76 .88q.26 .57 .26 1.33zM8.08 11.64q.0 .92 .39 1.46q.39 .53 1.22 .53q.84 .0 1.22 -.53q.39 -.54 .39 -1.46q.0 -.93 -.39 -1.45q-.38 -.52 -1.21 -.52q-.83 .0 -1.23 .52q-.39 .52 -.39 1.45z" id="mol1atm12" stroke="none"/>
                  
            <g class="atom" id="mol1atm13">
                        
                <path d="M92.27 10.92h-.72l-2.62 -4.07h-.03q.01 .24 .03 .6q.02 .36 .02 .73v2.74h-.57v-4.9h.71l2.61 4.05h.03q-.01 -.11 -.02 -.33q-.01 -.22 -.02 -.48q-.01 -.26 -.01 -.48v-2.77h.58v4.9z" fill="#3050F8" stroke="none"/>
                        
                <path d="M92.13 5.46h-.62v-2.29h-2.51v2.29h-.61v-4.9h.61v2.07h2.51v-2.07h.62v4.9z" fill="#3050F8" stroke="none"/>
                      
            </g>
                  
            <g class="atom" id="mol1atm14">
                        
                <path d="M105.79 16.08q.0 .76 -.26 1.33q-.26 .57 -.76 .88q-.5 .32 -1.24 .32q-.76 .0 -1.26 -.32q-.51 -.32 -.76 -.89q-.24 -.57 -.24 -1.33q.0 -.75 .24 -1.31q.25 -.57 .76 -.88q.51 -.32 1.27 -.32q.73 .0 1.23 .32q.5 .31 .76 .88q.26 .57 .26 1.33zM101.92 16.08q.0 .92 .39 1.46q.39 .53 1.22 .53q.84 .0 1.22 -.53q.39 -.54 .39 -1.46q.0 -.93 -.39 -1.45q-.38 -.52 -1.21 -.52q-.83 .0 -1.23 .52q-.39 .52 -.39 1.45z" stroke="none"/>
                        
                <path d="M110.09 18.53h-.62v-2.29h-2.51v2.29h-.61v-4.9h.61v2.07h2.51v-2.07h.62v4.9z" stroke="none"/>
                      
            </g>
                
            <line class="hi" id="mol1bnd10" stroke="#FF0D0D" x1="13.59" x2="18.905" y1="34.9" y2="33.23"/>
            <line class="hi" id="mol1bnd11" stroke="#FF0D0D" x1="7.54" x2="4.295" y1="32.93" y2="28.84"/>
            <line class="hi" id="mol1bnd12" stroke="#FF0D0D" x1="7.52" x2="4.285" y1="14.93" y2="19.84"/>
            <line class="hi" id="mol1bnd13" stroke="#FF0D0D" x1="13.29" x2="18.755" y1="12.75" y2="14.43"/>
            <line class="hi" id="mol1bnd14" stroke="#3050F8" x1="87.17" x2="82.15" y1="10.29" y2="13.195"/>
            <line class="hi" id="mol1bnd14" stroke="#3050F8" x1="87.17" x2="82.15" y1="10.29" y2="13.195"/>
            <line class="hi" id="mol1bnd15" stroke="#3050F8" x1="93.48" x2="96.86" y1="10.29" y2="12.239999999999998"/>
            <line class="hi" id="mol1bnd15" stroke="#3050F8" x1="93.48" x2="96.86" y1="10.29" y2="12.239999999999998"/>
            <line class="hi" id="mol1bnd15" stroke="#FF0D0D" x1="100.24" x2="96.86" y1="14.19" y2="12.239999999999998"/>
        </g>
          
    </g>
    
</svg>
