<svg xmlns="http://www.w3.org/2000/svg" xmlns:xlink="http://www.w3.org/1999/xlink" height="95.81mm" version="1.2" viewBox="0 0 77.78 95.81" width="77.78mm">
      
    <desc>Generated by the Chemistry Development Kit (http://github.com/cdk)</desc>
      
    <g fill="#3050F8" stroke="#000000" stroke-linecap="round" stroke-linejoin="round" stroke-width=".7">
            
        <rect fill="#FFFFFF" height="96.0" stroke="none" width="78.0" x=".0" y=".0"/>
            
        <g class="mol" id="mol1">
                  
            <line class="bond" id="mol1bnd1" x1="25.85" x2="23.33" y1="94.83" y2="83.79"/>
                  
            <line class="bond" id="mol1bnd2" x1="19.16" x2="7.63" y1="79.2" y2="76.52"/>
                  
            <line class="bond" id="mol1bnd3" x1="7.63" x2="1.03" y1="76.52" y2="62.8"/>
                  
            <line class="bond" id="mol1bnd4" x1="1.03" x2="5.84" y1="62.8" y2="52.8"/>
                  
            <g class="bond" id="mol1bnd5">
                        
                <line x1="22.46" x2="10.94" y1="45.63" y2="48.32"/>
                        
                <line x1="21.86" x2="11.49" y1="48.28" y2="50.69"/>
                      
                <line class="hi" stroke="#3050F8" x1="10.94" x2="16.7" y1="48.32" y2="46.975"/>
                <line class="hi" stroke="#3050F8" x1="11.49" x2="16.675" y1="50.69" y2="49.485"/>
            </g>
                  
            <line class="bond" id="mol1bnd6" x1="22.46" x2="34.35" y1="45.63" y2="55.18"/>
                  
            <g class="bond" id="mol1bnd7">
                        
                <line x1="34.35" x2="34.35" y1="55.18" y2="70.42"/>
                        
                <line x1="36.79" x2="36.79" y1="56.59" y2="69.01"/>
                      
            </g>
                  
            <line class="bond" id="mol1bnd8" x1="25.5" x2="34.35" y1="77.54" y2="70.42"/>
                  
            <line class="bond" id="mol1bnd9" x1="34.35" x2="47.56" y1="70.42" y2="78.04"/>
                  
            <g class="bond" id="mol1bnd10">
                        
                <line x1="47.56" x2="60.77" y1="78.04" y2="70.42"/>
                        
                <line x1="47.56" x2="58.33" y1="75.23" y2="69.01"/>
                      
            </g>
                  
            <line class="bond" id="mol1bnd11" x1="60.77" x2="60.77" y1="70.42" y2="55.18"/>
                  
            <g class="bond" id="mol1bnd12">
                        
                <line x1="60.77" x2="47.56" y1="55.18" y2="47.56"/>
                        
                <line x1="58.33" x2="47.56" y1="56.59" y2="50.38"/>
                      
            </g>
                  
            <line class="bond" id="mol1bnd13" x1="34.35" x2="47.56" y1="55.18" y2="47.56"/>
                  
            <line class="bond" id="mol1bnd14" x1="60.77" x2="71.01" y1="55.18" y2="49.27"/>
                  
            <line class="bond" id="mol1bnd15" x1="22.46" x2="25.85" y1="45.63" y2="30.77"/>
                  
            <g class="bond" id="mol1bnd16">
                        
                <line x1="14.67" x2="25.85" y1="20.41" y2="30.77"/>
                        
                <line x1="17.36" x2="26.48" y1="19.58" y2="28.03"/>
                      
            </g>
                  
            <line class="bond" id="mol1bnd17" x1="14.67" x2="18.05" y1="20.41" y2="5.55"/>
                  
            <g class="bond" id="mol1bnd18">
                        
                <line x1="32.62" x2="18.05" y1="1.05" y2="5.55"/>
                        
                <line x1="32.0" x2="20.12" y1="3.8" y2="7.47"/>
                      
            </g>
                  
            <line class="bond" id="mol1bnd19" x1="32.62" x2="43.81" y1="1.05" y2="11.42"/>
                  
            <g class="bond" id="mol1bnd20">
                        
                <line x1="40.42" x2="43.81" y1="26.28" y2="11.42"/>
                        
                <line x1="38.36" x2="41.12" y1="24.36" y2="12.25"/>
                      
            </g>
                  
            <line class="bond" id="mol1bnd21" x1="25.85" x2="40.42" y1="30.77" y2="26.28"/>
                  
            <path class="atom" d="M24.41 82.42h-.72l-2.62 -4.07h-.03q.01 .24 .03 .6q.02 .36 .02 .73v2.74h-.57v-4.9h.71l2.61 4.05h.03q-.01 -.11 -.02 -.33q-.01 -.22 -.02 -.48q-.01 -.26 -.01 -.48v-2.77h.58v4.9z" id="mol1atm2" stroke="none"/>
                  
            <path class="atom" d="M9.57 51.54h-.72l-2.62 -4.07h-.03q.01 .24 .03 .6q.02 .36 .02 .73v2.74h-.57v-4.9h.71l2.61 4.05h.03q-.01 -.11 -.02 -.33q-.01 -.22 -.02 -.48q-.01 -.26 -.01 -.48v-2.77h.58v4.9z" id="mol1atm5" stroke="none"/>
                  
            <path class="atom" d="M74.46 45.58q-.79 .0 -1.24 .53q-.45 .52 -.45 1.45q.0 .91 .42 1.45q.42 .53 1.27 .53q.32 .0 .61 -.05q.29 -.06 .57 -.14v.54q-.27 .1 -.57 .15q-.29 .05 -.7 .05q-.74 .0 -1.25 -.31q-.5 -.31 -.75 -.88q-.25 -.57 -.25 -1.34q.0 -.74 .27 -1.31q.27 -.57 .8 -.88q.53 -.32 1.28 -.32q.78 .0 1.35 .29l-.24 .52q-.23 -.1 -.51 -.18q-.27 -.08 -.61 -.08zM77.22 50.01h-.6v-5.21h.6v5.21z" fill="#1FF01F" id="mol1atm13" stroke="none"/>
                
            <line class="hi" id="mol1bnd1" stroke="#3050F8" x1="23.33" x2="24.59" y1="83.79" y2="89.31"/>
            <line class="hi" id="mol1bnd2" stroke="#3050F8" x1="19.16" x2="13.395" y1="79.2" y2="77.86"/>
            <line class="hi" id="mol1bnd4" stroke="#3050F8" x1="5.84" x2="3.435" y1="52.8" y2="57.8"/>
            <line class="hi" id="mol1bnd8" stroke="#3050F8" x1="25.5" x2="29.925" y1="77.54" y2="73.98"/>
            <line class="hi" id="mol1bnd14" stroke="#1FF01F" x1="71.01" x2="65.89" y1="49.27" y2="52.225"/>
        </g>
          
    </g>
    
</svg>
