<svg xmlns="http://www.w3.org/2000/svg" xmlns:xlink="http://www.w3.org/1999/xlink" height="66.1mm" version="1.2" viewBox="0 0 51.49 66.1" width="51.49mm">
      
    <desc>Generated by the Chemistry Development Kit (http://github.com/cdk)</desc>
      
    <g fill="#3050F8" stroke="#000000" stroke-linecap="round" stroke-linejoin="round" stroke-width=".7">
            
        <rect fill="#FFFFFF" height="67.0" stroke="none" width="52.0" x=".0" y=".0"/>
            
        <g class="mol" id="mol1">
                  
            <line class="bond" id="mol1bnd1" x1="50.51" x2="35.68" y1="44.61" y2="41.11"/>
                  
            <line class="bond" id="mol1bnd2" x1="35.68" x2="22.47" y1="41.11" y2="48.73"/>
                  
            <line class="bond" id="mol1bnd3" x1="22.47" x2="9.26" y1="48.73" y2="41.11"/>
                  
            <line class="bond" id="mol1bnd4" x1="9.26" x2="1.04" y1="41.11" y2="56.15"/>
                  
            <line class="bond" id="mol1bnd5" x1="1.04" x2="14.24" y1="56.15" y2="49.95"/>
                  
            <line class="bond" id="mol1bnd6" x1="14.24" x2="28.16" y1="49.95" y2="56.15"/>
                  
            <line class="bond" id="mol1bnd7" x1="35.68" x2="28.16" y1="41.11" y2="56.15"/>
                  
            <line class="bond" id="mol1bnd8" x1="14.24" x2="14.24" y1="49.95" y2="34.71"/>
                  
            <line class="bond" id="mol1bnd9" x1="14.24" x2="22.47" y1="34.71" y2="18.25"/>
                  
            <line class="bond" id="mol1bnd10" x1="22.47" x2="9.26" y1="18.25" y2="25.87"/>
                  
            <line class="bond" id="mol1bnd11" x1="9.26" x2="9.26" y1="41.11" y2="25.87"/>
                  
            <line class="bond" id="mol1bnd12" x1="22.47" x2="35.68" y1="18.25" y2="25.87"/>
                  
            <line class="bond" id="mol1bnd13" x1="35.68" x2="35.68" y1="41.11" y2="25.87"/>
                  
            <line class="bond" id="mol1bnd14" x1="22.47" x2="22.47" y1="18.25" y2="7.19"/>
                  
            <line class="bond" id="mol1bnd15" x1="14.24" x2="14.39" y1="49.95" y2="65.19"/>
                  
            <g class="atom" id="mol1atm12">
                        
                <path d="M24.41 5.46h-.72l-2.62 -4.07h-.03q.01 .24 .03 .6q.02 .36 .02 .73v2.74h-.57v-4.9h.71l2.61 4.05h.03q-.01 -.11 -.02 -.33q-.01 -.22 -.02 -.48q-.01 -.26 -.01 -.48v-2.77h.58v4.9z" stroke="none"/>
                        
                <path d="M28.72 5.46h-.62v-2.29h-2.51v2.29h-.61v-4.9h.61v2.07h2.51v-2.07h.62v4.9z" stroke="none"/>
                        
                <path d="M31.22 6.95h-1.94v-.3l.77 -.78q.22 -.22 .37 -.39q.15 -.18 .23 -.34q.08 -.17 .08 -.36q.0 -.24 -.15 -.37q-.14 -.13 -.37 -.13q-.21 .0 -.38 .08q-.16 .08 -.33 .21l-.19 -.24q.17 -.15 .39 -.25q.23 -.1 .51 -.1q.41 .0 .65 .21q.24 .21 .24 .58q.0 .23 -.1 .43q-.09 .2 -.26 .4q-.17 .2 -.39 .42l-.61 .6v.02h1.49v.33z" stroke="none"/>
                      
            </g>
                
            <line class="hi" id="mol1bnd14" stroke="#3050F8" x1="22.47" x2="22.47" y1="7.190000000000001" y2="12.72"/>
            <line class="hi" id="mol1bnd14" stroke="#3050F8" x1="22.47" x2="22.47" y1="7.190000000000001" y2="12.72"/>
        </g>
          
    </g>
    
</svg>
