<svg xmlns="http://www.w3.org/2000/svg" xmlns:xlink="http://www.w3.org/1999/xlink" height="50.04mm" version="1.2" viewBox="0 0 94.17 50.04" width="94.17mm">
      
    <desc>Generated by the Chemistry Development Kit (http://github.com/cdk)</desc>
      
    <g fill="#3050F8" stroke="#000000" stroke-linecap="round" stroke-linejoin="round" stroke-width=".7">
            
        <rect fill="#FFFFFF" height="51.0" stroke="none" width="95.0" x=".0" y=".0"/>
            
        <g class="mol" id="mol1">
                  
            <line class="bond" id="mol1bnd1" x1="93.13" x2="83.11" y1="18.27" y2="24.1"/>
                  
            <line class="bond" id="mol1bnd2" x1="76.81" x2="66.73" y1="24.13" y2="18.37"/>
                  
            <line class="bond" id="mol1bnd3" x1="66.73" x2="53.57" y1="18.37" y2="26.04"/>
                  
            <line class="bond" id="mol1bnd4" x1="53.57" x2="53.77" y1="26.04" y2="41.28"/>
                  
            <line class="bond" id="mol1bnd5" x1="53.77" x2="40.66" y1="41.28" y2="49.0"/>
                  
            <line class="bond" id="mol1bnd6" x1="40.66" x2="27.46" y1="49.0" y2="41.28"/>
                  
            <g class="bond" id="mol1bnd7">
                        
                <line x1="14.25" x2="27.46" y1="49.0" y2="41.28"/>
                        
                <line x1="14.25" x2="25.02" y1="46.18" y2="39.88"/>
                      
            </g>
                  
            <line class="bond" id="mol1bnd8" x1="14.25" x2="1.04" y1="49.0" y2="41.28"/>
                  
            <g class="bond" id="mol1bnd9">
                        
                <line x1="1.04" x2="1.04" y1="26.25" y2="41.28"/>
                        
                <line x1="3.48" x2="3.48" y1="27.64" y2="39.88"/>
                      
            </g>
                  
            <line class="bond" id="mol1bnd10" x1="1.04" x2="13.94" y1="26.25" y2="18.63"/>
                  
            <g class="bond" id="mol1bnd11">
                        
                <line x1="27.46" x2="13.94" y1="26.25" y2="18.63"/>
                        
                <line x1="25.02" x2="13.97" y1="27.67" y2="21.44"/>
                      
            </g>
                  
            <line class="bond" id="mol1bnd12" x1="27.46" x2="27.46" y1="41.28" y2="26.25"/>
                  
            <line class="bond" id="mol1bnd13" x1="27.46" x2="40.36" y1="26.25" y2="18.32"/>
                  
            <line class="bond" id="mol1bnd14" x1="53.57" x2="40.36" y1="26.04" y2="18.32"/>
                  
            <g class="bond" id="mol1bnd15">
                        
                <line x1="39.15" x2="39.02" y1="19.06" y2="7.02"/>
                        
                <line x1="41.59" x2="41.45" y1="19.04" y2="6.99"/>
                      
                <line class="hi" stroke="#FF0D0D" x1="39.02" x2="39.085" y1="7.02" y2="13.04"/>
                <line class="hi" stroke="#FF0D0D" x1="41.45" x2="41.52" y1="6.99" y2="13.015"/>
            </g>
                  
            <g class="atom" id="mol1atm2">
                        
                <path d="M81.9 28.39h-.72l-2.62 -4.07h-.03q.01 .24 .03 .6q.02 .36 .02 .73v2.74h-.57v-4.9h.71l2.61 4.05h.03q-.01 -.11 -.02 -.33q-.01 -.22 -.02 -.48q-.01 -.26 -.01 -.48v-2.77h.58v4.9z" stroke="none"/>
                        
                <path d="M81.77 33.85h-.62v-2.29h-2.51v2.29h-.61v-4.9h.61v2.07h2.51v-2.07h.62v4.9z" stroke="none"/>
                      
            </g>
                  
            <path class="atom" d="M42.45 3.08q.0 .76 -.26 1.33q-.26 .57 -.76 .88q-.5 .32 -1.24 .32q-.76 .0 -1.26 -.32q-.51 -.32 -.76 -.89q-.24 -.57 -.24 -1.33q.0 -.75 .24 -1.31q.25 -.57 .76 -.88q.51 -.32 1.27 -.32q.73 .0 1.23 .32q.5 .31 .76 .88q.26 .57 .26 1.33zM38.59 3.08q.0 .92 .39 1.46q.39 .53 1.22 .53q.84 .0 1.22 -.53q.39 -.54 .39 -1.46q.0 -.93 -.39 -1.45q-.38 -.52 -1.21 -.52q-.83 .0 -1.23 .52q-.39 .52 -.39 1.45z" fill="#FF0D0D" id="mol1atm14" stroke="none"/>
                
            <line class="hi" id="mol1bnd1" stroke="#3050F8" x1="83.11" x2="88.12" y1="24.1" y2="21.185000000000002"/>
            <line class="hi" id="mol1bnd2" stroke="#3050F8" x1="76.81" x2="71.77000000000001" y1="24.13" y2="21.25"/>
        </g>
          
    </g>
    
</svg>
