<svg xmlns="http://www.w3.org/2000/svg" xmlns:xlink="http://www.w3.org/1999/xlink" height="55.41mm" version="1.2" viewBox="0 0 81.23 55.41" width="81.23mm">
      
    <desc>Generated by the Chemistry Development Kit (http://github.com/cdk)</desc>
      
    <g fill="#000000" stroke="#000000" stroke-linecap="round" stroke-linejoin="round" stroke-width=".7">
            
        <rect fill="#FFFFFF" height="56.0" stroke="none" width="82.0" x=".0" y=".0"/>
            
        <g class="mol" id="mol1">
                  
            <g class="bond" id="mol1bnd1">
                        
                <line x1="53.46" x2="54.16" y1="23.89" y2="23.89"/>
                        
                <line x1="53.17" x2="54.45" y1="21.35" y2="21.35"/>
                        
                <line x1="52.88" x2="54.74" y1="18.81" y2="18.81"/>
                        
                <line x1="52.58" x2="55.03" y1="16.27" y2="16.27"/>
                        
                <line x1="52.29" x2="55.33" y1="13.74" y2="13.74"/>
                        
                <line x1="52.0" x2="55.62" y1="11.2" y2="11.2"/>
                        
                <line x1="51.71" x2="55.91" y1="8.66" y2="8.66"/>
                      
            </g>
                  
            <line class="bond" id="mol1bnd2" x1="53.81" x2="40.62" y1="23.89" y2="31.51"/>
                  
            <line class="bond" id="mol1bnd3" x1="40.62" x2="40.62" y1="31.51" y2="42.82"/>
                  
            <line class="bond" id="mol1bnd4" x1="43.9" x2="53.82" y1="48.64" y2="54.37"/>
                  
            <line class="bond" id="mol1bnd5" x1="53.82" x2="67.01" y1="54.37" y2="46.75"/>
                  
            <line class="bond" id="mol1bnd6" x1="67.01" x2="67.0" y1="46.75" y2="35.36"/>
                  
            <line class="bond" id="mol1bnd7" x1="53.81" x2="63.85" y1="23.89" y2="29.69"/>
                  
            <line class="bond" id="mol1bnd8" x1="70.16" x2="80.19" y1="29.69" y2="23.9"/>
                  
            <path class="bond" d="M40.44 31.81l.35 -.61l-13.37 -9.91v2.6l-2.25 1.3z" id="mol1bnd9" stroke="none"/>
                  
            <g class="bond" id="mol1bnd10">
                        
                <line x1="14.23" x2="27.42" y1="31.52" y2="23.89"/>
                        
                <line x1="14.23" x2="24.99" y1="28.7" y2="22.48"/>
                      
            </g>
                  
            <line class="bond" id="mol1bnd11" x1="14.23" x2="1.04" y1="31.52" y2="23.9"/>
                  
            <g class="bond" id="mol1bnd12">
                        
                <line x1="1.04" x2="1.04" y1="8.66" y2="23.9"/>
                        
                <line x1="3.48" x2="3.48" y1="10.07" y2="22.5"/>
                      
            </g>
                  
            <line class="bond" id="mol1bnd13" x1="1.04" x2="14.24" y1="8.66" y2="1.04"/>
                  
            <g class="bond" id="mol1bnd14">
                        
                <line x1="27.43" x2="14.24" y1="8.65" y2="1.04"/>
                        
                <line x1="24.99" x2="14.24" y1="10.06" y2="3.85"/>
                      
            </g>
                  
            <line class="bond" id="mol1bnd15" x1="27.42" x2="27.43" y1="23.89" y2="8.65"/>
                  
            <path class="atom" d="M42.88 46.74q.0 .76 -.26 1.33q-.26 .57 -.76 .88q-.5 .32 -1.24 .32q-.76 .0 -1.26 -.32q-.51 -.32 -.76 -.89q-.24 -.57 -.24 -1.33q.0 -.75 .24 -1.31q.25 -.57 .76 -.88q.51 -.32 1.27 -.32q.73 .0 1.23 .32q.5 .31 .76 .88q.26 .57 .26 1.33zM39.02 46.74q.0 .92 .39 1.46q.39 .53 1.22 .53q.84 .0 1.22 -.53q.39 -.54 .39 -1.46q.0 -.93 -.39 -1.45q-.38 -.52 -1.21 -.52q-.83 .0 -1.23 .52q-.39 .52 -.39 1.45z" fill="#FF0D0D" id="mol1atm4" stroke="none"/>
                  
            <path class="atom" d="M68.94 33.96h-.72l-2.62 -4.07h-.03q.01 .24 .03 .6q.02 .36 .02 .73v2.74h-.57v-4.9h.71l2.61 4.05h.03q-.01 -.11 -.02 -.33q-.01 -.22 -.02 -.48q-.01 -.26 -.01 -.48v-2.77h.58v4.9z" fill="#3050F8" id="mol1atm7" stroke="none"/>
                
            <line class="hi" id="mol1bnd3" stroke="#FF0D0D" x1="40.62" x2="40.62" y1="42.82" y2="37.165"/>
            <line class="hi" id="mol1bnd4" stroke="#FF0D0D" x1="43.9" x2="48.86" y1="48.64" y2="51.504999999999995"/>
            <line class="hi" id="mol1bnd6" stroke="#3050F8" x1="67.0" x2="67.005" y1="35.36" y2="41.055"/>
            <line class="hi" id="mol1bnd7" stroke="#3050F8" x1="63.85" x2="58.83" y1="29.69" y2="26.79"/>
            <line class="hi" id="mol1bnd8" stroke="#3050F8" x1="70.16" x2="75.175" y1="29.69" y2="26.795"/>
        </g>
          
    </g>
    
</svg>
