<svg xmlns="http://www.w3.org/2000/svg" xmlns:xlink="http://www.w3.org/1999/xlink" height="95.49mm" version="1.2" viewBox="0 0 81.29 95.49" width="81.29mm">
      
    <desc>Generated by the Chemistry Development Kit (http://github.com/cdk)</desc>
      
    <g fill="#FF0D0D" stroke="#000000" stroke-linecap="round" stroke-linejoin="round" stroke-width=".7">
            
        <rect fill="#FFFFFF" height="96.0" stroke="none" width="82.0" x=".0" y=".0"/>
            
        <g class="mol" id="mol1">
                  
            <line class="bond" id="mol1bnd1" x1="1.04" x2="10.95" y1="63.97" y2="69.7"/>
                  
            <line class="bond" id="mol1bnd2" x1="17.52" x2="27.43" y1="69.7" y2="63.97"/>
                  
            <g class="bond" id="mol1bnd3">
                        
                <line x1="27.43" x2="27.43" y1="48.73" y2="63.97"/>
                        
                <line x1="29.87" x2="29.87" y1="50.14" y2="62.56"/>
                      
            </g>
                  
            <line class="bond" id="mol1bnd4" x1="27.43" x2="40.64" y1="48.73" y2="41.11"/>
                  
            <g class="bond" id="mol1bnd5">
                        
                <line x1="53.85" x2="40.64" y1="48.73" y2="41.11"/>
                        
                <line x1="51.41" x2="40.64" y1="50.14" y2="43.92"/>
                      
            </g>
                  
            <line class="bond" id="mol1bnd6" x1="53.85" x2="53.85" y1="48.73" y2="63.97"/>
                  
            <g class="bond" id="mol1bnd7">
                        
                <line x1="40.64" x2="53.85" y1="71.59" y2="63.97"/>
                        
                <line x1="40.64" x2="51.41" y1="68.77" y2="62.56"/>
                      
            </g>
                  
            <line class="bond" id="mol1bnd8" x1="27.43" x2="40.64" y1="63.97" y2="71.59"/>
                  
            <line class="bond" id="mol1bnd9" x1="40.64" x2="40.64" y1="71.59" y2="82.91"/>
                  
            <line class="bond" id="mol1bnd10" x1="43.92" x2="53.84" y1="88.72" y2="94.45"/>
                  
            <line class="bond" id="mol1bnd11" x1="53.85" x2="63.76" y1="63.97" y2="69.7"/>
                  
            <line class="bond" id="mol1bnd12" x1="70.33" x2="80.25" y1="69.7" y2="63.97"/>
                  
            <line class="bond" id="mol1bnd13" x1="40.64" x2="40.64" y1="41.11" y2="25.87"/>
                  
            <line class="bond" id="mol1bnd14" x1="40.64" x2="27.44" y1="25.87" y2="18.25"/>
                  
            <line class="bond" id="mol1bnd15" x1="27.44" x2="27.44" y1="18.25" y2="7.19"/>
                  
            <path class="atom" d="M16.5 71.59q.0 .76 -.26 1.33q-.26 .57 -.76 .88q-.5 .32 -1.24 .32q-.76 .0 -1.26 -.32q-.51 -.32 -.76 -.89q-.24 -.57 -.24 -1.33q.0 -.75 .24 -1.31q.25 -.57 .76 -.88q.51 -.32 1.27 -.32q.73 .0 1.23 .32q.5 .31 .76 .88q.26 .57 .26 1.33zM12.63 71.59q.0 .92 .39 1.46q.39 .53 1.22 .53q.84 .0 1.22 -.53q.39 -.54 .39 -1.46q.0 -.93 -.39 -1.45q-.38 -.52 -1.21 -.52q-.83 .0 -1.23 .52q-.39 .52 -.39 1.45z" id="mol1atm2" stroke="none"/>
                  
            <path class="atom" d="M42.9 86.83q.0 .76 -.26 1.33q-.26 .57 -.76 .88q-.5 .32 -1.24 .32q-.76 .0 -1.26 -.32q-.51 -.32 -.76 -.89q-.24 -.57 -.24 -1.33q.0 -.75 .24 -1.31q.25 -.57 .76 -.88q.51 -.32 1.27 -.32q.73 .0 1.23 .32q.5 .31 .76 .88q.26 .57 .26 1.33zM39.04 86.83q.0 .92 .39 1.46q.39 .53 1.22 .53q.84 .0 1.22 -.53q.39 -.54 .39 -1.46q.0 -.93 -.39 -1.45q-.38 -.52 -1.21 -.52q-.83 .0 -1.23 .52q-.39 .52 -.39 1.45z" id="mol1atm9" stroke="none"/>
                  
            <path class="atom" d="M69.31 71.59q.0 .76 -.26 1.33q-.26 .57 -.76 .88q-.5 .32 -1.24 .32q-.76 .0 -1.26 -.32q-.51 -.32 -.76 -.89q-.24 -.57 -.24 -1.33q.0 -.75 .24 -1.31q.25 -.57 .76 -.88q.51 -.32 1.27 -.32q.73 .0 1.23 .32q.5 .31 .76 .88q.26 .57 .26 1.33zM65.44 71.59q.0 .92 .39 1.46q.39 .53 1.22 .53q.84 .0 1.22 -.53q.39 -.54 .39 -1.46q.0 -.93 -.39 -1.45q-.38 -.52 -1.21 -.52q-.83 .0 -1.23 .52q-.39 .52 -.39 1.45z" id="mol1atm11" stroke="none"/>
                  
            <g class="atom" id="mol1atm15">
                        
                <path d="M29.39 5.46h-.72l-2.62 -4.07h-.03q.01 .24 .03 .6q.02 .36 .02 .73v2.74h-.57v-4.9h.71l2.61 4.05h.03q-.01 -.11 -.02 -.33q-.01 -.22 -.02 -.48q-.01 -.26 -.01 -.48v-2.77h.58v4.9z" fill="#3050F8" stroke="none"/>
                        
                <path d="M33.69 5.46h-.62v-2.29h-2.51v2.29h-.61v-4.9h.61v2.07h2.51v-2.07h.62v4.9z" fill="#3050F8" stroke="none"/>
                        
                <path d="M36.2 6.95h-1.94v-.3l.77 -.78q.22 -.22 .37 -.39q.15 -.18 .23 -.34q.08 -.17 .08 -.36q.0 -.24 -.15 -.37q-.14 -.13 -.37 -.13q-.21 .0 -.38 .08q-.16 .08 -.33 .21l-.19 -.24q.17 -.15 .39 -.25q.23 -.1 .51 -.1q.41 .0 .65 .21q.24 .21 .24 .58q.0 .23 -.1 .43q-.09 .2 -.26 .4q-.17 .2 -.39 .42l-.61 .6v.02h1.49v.33z" fill="#3050F8" stroke="none"/>
                      
            </g>
                
            <line class="hi" id="mol1bnd1" stroke="#FF0D0D" x1="10.95" x2="5.994999999999999" y1="69.7" y2="66.83500000000001"/>
            <line class="hi" id="mol1bnd2" stroke="#FF0D0D" x1="17.52" x2="22.475" y1="69.7" y2="66.83500000000001"/>
            <line class="hi" id="mol1bnd9" stroke="#FF0D0D" x1="40.64" x2="40.64" y1="82.91" y2="77.25"/>
            <line class="hi" id="mol1bnd10" stroke="#FF0D0D" x1="43.92" x2="48.88" y1="88.72" y2="91.58500000000001"/>
            <line class="hi" id="mol1bnd11" stroke="#FF0D0D" x1="63.76" x2="58.805" y1="69.7" y2="66.83500000000001"/>
            <line class="hi" id="mol1bnd12" stroke="#FF0D0D" x1="70.33" x2="75.28999999999999" y1="69.7" y2="66.83500000000001"/>
            <line class="hi" id="mol1bnd15" stroke="#3050F8" x1="27.44" x2="27.44" y1="7.190000000000001" y2="12.72"/>
            <line class="hi" id="mol1bnd15" stroke="#3050F8" x1="27.44" x2="27.44" y1="7.190000000000001" y2="12.72"/>
        </g>
          
    </g>
    
</svg>
