<svg xmlns="http://www.w3.org/2000/svg" xmlns:xlink="http://www.w3.org/1999/xlink" height="104.85mm" version="1.2" viewBox="0 0 97.84 104.85" width="97.84mm">
      
    <desc>Generated by the Chemistry Development Kit (http://github.com/cdk)</desc>
      
    <g fill="#FF0D0D" stroke="#000000" stroke-linecap="round" stroke-linejoin="round" stroke-width=".7">
            
        <rect fill="#FFFFFF" height="105.0" stroke="none" width="98.0" x=".0" y=".0"/>
            
        <g class="mol" id="mol1">
                  
            <line class="bond" id="mol1bnd1" x1="27.55" x2="27.51" y1="103.94" y2="88.7"/>
                  
            <g class="bond" id="mol1bnd2">
                        
                <line x1="14.29" x2="27.51" y1="81.11" y2="88.7"/>
                        
                <line x1="16.72" x2="27.51" y1="79.69" y2="85.88"/>
                      
            </g>
                  
            <line class="bond" id="mol1bnd3" x1="14.29" x2="14.25" y1="81.11" y2="65.87"/>
                  
            <g class="bond" id="mol1bnd4">
                        
                <line x1="27.44" x2="14.25" y1="58.22" y2="65.87"/>
                        
                <line x1="27.45" x2="16.69" y1="61.03" y2="67.27"/>
                      
            </g>
                  
            <line class="bond" id="mol1bnd5" x1="27.44" x2="40.67" y1="58.22" y2="65.81"/>
                  
            <g class="bond" id="mol1bnd6">
                        
                <line x1="40.7" x2="40.67" y1="81.05" y2="65.81"/>
                        
                <line x1="38.26" x2="38.23" y1="79.64" y2="67.22"/>
                      
            </g>
                  
            <line class="bond" id="mol1bnd7" x1="27.51" x2="40.7" y1="88.7" y2="81.05"/>
                  
            <line class="bond" id="mol1bnd8" x1="40.67" x2="50.57" y1="65.81" y2="60.06"/>
                  
            <line class="bond" id="mol1bnd9" x1="53.84" x2="53.81" y1="54.23" y2="42.91"/>
                  
            <line class="bond" id="mol1bnd10" x1="53.81" x2="66.99" y1="42.91" y2="35.26"/>
                  
            <line class="bond" id="mol1bnd11" x1="66.99" x2="80.84" y1="35.26" y2="41.44"/>
                  
            <line class="bond" id="mol1bnd12" x1="80.84" x2="88.16" y1="41.44" y2="33.31"/>
                  
            <line class="bond" id="mol1bnd13" x1="88.92" x2="83.44" y1="26.45" y2="16.99"/>
                  
            <g class="bond" id="mol1bnd14">
                        
                <line x1="81.97" x2="86.94" y1="17.29" y2="6.2"/>
                        
                <line x1="84.19" x2="89.17" y1="18.29" y2="7.19"/>
                      
                <line class="hi" stroke="#FF0D0D" x1="86.94" x2="84.455" y1="6.199999999999999" y2="11.745"/>
                <line class="hi" stroke="#FF0D0D" x1="89.17" x2="86.68" y1="7.190000000000001" y2="12.74"/>
            </g>
                  
            <line class="bond" id="mol1bnd15" x1="83.44" x2="72.13" y1="16.99" y2="19.32"/>
                  
            <line class="bond" id="mol1bnd16" x1="66.99" x2="68.11" y1="35.26" y2="23.99"/>
                  
            <line class="bond" id="mol1bnd17" x1="14.25" x2="1.04" y1="65.87" y2="58.28"/>
                  
            <path class="atom" d="M56.11 58.15q.0 .76 -.26 1.33q-.26 .57 -.76 .88q-.5 .32 -1.24 .32q-.76 .0 -1.26 -.32q-.51 -.32 -.76 -.89q-.24 -.57 -.24 -1.33q.0 -.75 .24 -1.31q.25 -.57 .76 -.88q.51 -.32 1.27 -.32q.73 .0 1.23 .32q.5 .31 .76 .88q.26 .57 .26 1.33zM52.24 58.15q.0 .92 .39 1.46q.39 .53 1.22 .53q.84 .0 1.22 -.53q.39 -.54 .39 -1.46q.0 -.93 -.39 -1.45q-.38 -.52 -1.21 -.52q-.83 .0 -1.23 .52q-.39 .52 -.39 1.45z" id="mol1atm8" stroke="none"/>
                  
            <g class="atom" id="mol1atm12">
                        
                <path d="M92.98 32.56h-.72l-2.62 -4.07h-.03q.01 .24 .03 .6q.02 .36 .02 .73v2.74h-.57v-4.9h.71l2.61 4.05h.03q-.01 -.11 -.02 -.33q-.01 -.22 -.02 -.48q-.01 -.26 -.01 -.48v-2.77h.58v4.9z" fill="#3050F8" stroke="none"/>
                        
                <path d="M97.28 32.56h-.62v-2.29h-2.51v2.29h-.61v-4.9h.61v2.07h2.51v-2.07h.62v4.9z" fill="#3050F8" stroke="none"/>
                      
            </g>
                  
            <path class="atom" d="M91.93 3.08q.0 .76 -.26 1.33q-.26 .57 -.76 .88q-.5 .32 -1.24 .32q-.76 .0 -1.26 -.32q-.51 -.32 -.76 -.89q-.24 -.57 -.24 -1.33q.0 -.75 .24 -1.31q.25 -.57 .76 -.88q.51 -.32 1.27 -.32q.73 .0 1.23 .32q.5 .31 .76 .88q.26 .57 .26 1.33zM88.07 3.08q.0 .92 .39 1.46q.39 .53 1.22 .53q.84 .0 1.22 -.53q.39 -.54 .39 -1.46q.0 -.93 -.39 -1.45q-.38 -.52 -1.21 -.52q-.83 .0 -1.23 .52q-.39 .52 -.39 1.45z" id="mol1atm14" stroke="none"/>
                  
            <path class="atom" d="M70.75 20.07q.0 .76 -.26 1.33q-.26 .57 -.76 .88q-.5 .32 -1.24 .32q-.76 .0 -1.26 -.32q-.51 -.32 -.76 -.89q-.24 -.57 -.24 -1.33q.0 -.75 .24 -1.31q.25 -.57 .76 -.88q.51 -.32 1.27 -.32q.73 .0 1.23 .32q.5 .31 .76 .88q.26 .57 .26 1.33zM66.89 20.07q.0 .92 .39 1.46q.39 .53 1.22 .53q.84 .0 1.22 -.53q.39 -.54 .39 -1.46q.0 -.93 -.39 -1.45q-.38 -.52 -1.21 -.52q-.83 .0 -1.23 .52q-.39 .52 -.39 1.45z" id="mol1atm15" stroke="none"/>
                
            <line class="hi" id="mol1bnd8" stroke="#FF0D0D" x1="50.57" x2="45.620000000000005" y1="60.06" y2="62.935"/>
            <line class="hi" id="mol1bnd9" stroke="#FF0D0D" x1="53.84" x2="53.825" y1="54.23" y2="48.56999999999999"/>
            <line class="hi" id="mol1bnd12" stroke="#3050F8" x1="88.16" x2="84.5" y1="33.31" y2="37.375"/>
            <line class="hi" id="mol1bnd13" stroke="#3050F8" x1="88.92" x2="86.18" y1="26.45" y2="21.72"/>
            <line class="hi" id="mol1bnd15" stroke="#FF0D0D" x1="72.13" x2="77.785" y1="19.32" y2="18.155"/>
            <line class="hi" id="mol1bnd16" stroke="#FF0D0D" x1="68.11" x2="67.55" y1="23.99" y2="29.625"/>
        </g>
          
    </g>
    
</svg>
