<svg xmlns="http://www.w3.org/2000/svg" xmlns:xlink="http://www.w3.org/1999/xlink" height="57.36mm" version="1.2" viewBox="0 0 107.66 57.36" width="107.66mm">
      
    <desc>Generated by the Chemistry Development Kit (http://github.com/cdk)</desc>
      
    <g fill="#3050F8" stroke="#000000" stroke-linecap="round" stroke-linejoin="round" stroke-width=".7">
            
        <rect fill="#FFFFFF" height="58.0" stroke="none" width="108.0" x=".0" y=".0"/>
            
        <g class="mol" id="mol1">
                  
            <line class="bond" id="mol1bnd1" x1="106.62" x2="93.43" y1="56.32" y2="48.71"/>
                  
            <g class="bond" id="mol1bnd2">
                        
                <line x1="80.23" x2="93.43" y1="56.32" y2="48.71"/>
                        
                <line x1="80.23" x2="90.99" y1="53.51" y2="47.3"/>
                      
            </g>
                  
            <line class="bond" id="mol1bnd3" x1="80.23" x2="67.03" y1="56.32" y2="48.71"/>
                  
            <g class="bond" id="mol1bnd4">
                        
                <line x1="67.03" x2="67.03" y1="33.47" y2="48.71"/>
                        
                <line x1="69.47" x2="69.47" y1="34.88" y2="47.3"/>
                      
            </g>
                  
            <line class="bond" id="mol1bnd5" x1="67.03" x2="80.23" y1="33.47" y2="25.86"/>
                  
            <g class="bond" id="mol1bnd6">
                        
                <line x1="93.43" x2="80.23" y1="33.47" y2="25.86"/>
                        
                <line x1="90.99" x2="80.23" y1="34.88" y2="28.67"/>
                      
            </g>
                  
            <line class="bond" id="mol1bnd7" x1="93.43" x2="93.43" y1="48.71" y2="33.47"/>
                  
            <line class="bond" id="mol1bnd8" x1="67.03" x2="56.99" y1="33.47" y2="27.68"/>
                  
            <line class="bond" id="mol1bnd9" x1="53.84" x2="53.84" y1="22.01" y2="10.63"/>
                  
            <g class="bond" id="mol1bnd10">
                        
                <line x1="53.84" x2="43.79" y1="10.63" y2="4.83"/>
                        
                <line x1="51.4" x2="42.58" y1="12.03" y2="6.94"/>
                      
                <line class="hi" stroke="#3050F8" x1="43.79" x2="48.815" y1="4.83" y2="7.73"/>
                <line class="hi" stroke="#3050F8" x1="42.58" x2="46.989999999999995" y1="6.94" y2="9.485"/>
            </g>
                  
            <line class="bond" id="mol1bnd11" x1="37.49" x2="27.44" y1="4.83" y2="10.63"/>
                  
            <g class="bond" id="mol1bnd12">
                        
                <line x1="27.44" x2="14.24" y1="10.63" y2="3.01"/>
                        
                <line x1="25.0" x2="14.24" y1="12.03" y2="5.82"/>
                      
            </g>
                  
            <line class="bond" id="mol1bnd13" x1="14.24" x2="1.04" y1="3.01" y2="10.63"/>
                  
            <g class="bond" id="mol1bnd14">
                        
                <line x1="1.04" x2="1.04" y1="10.63" y2="25.86"/>
                        
                <line x1="3.48" x2="3.48" y1="12.03" y2="24.45"/>
                      
            </g>
                  
            <line class="bond" id="mol1bnd15" x1="1.04" x2="14.24" y1="25.86" y2="33.47"/>
                  
            <g class="bond" id="mol1bnd16">
                        
                <line x1="14.24" x2="27.44" y1="33.47" y2="25.86"/>
                        
                <line x1="14.24" x2="25.0" y1="30.66" y2="24.45"/>
                      
            </g>
                  
            <line class="bond" id="mol1bnd17" x1="27.44" x2="27.44" y1="10.63" y2="25.86"/>
                  
            <line class="bond" id="mol1bnd18" x1="27.44" x2="40.64" y1="25.86" y2="33.47"/>
                  
            <line class="bond" id="mol1bnd19" x1="50.69" x2="40.64" y1="27.68" y2="33.47"/>
                  
            <g class="bond" id="mol1bnd20">
                        
                <line x1="41.86" x2="41.86" y1="32.77" y2="44.78"/>
                        
                <line x1="39.42" x2="39.42" y1="32.77" y2="44.78"/>
                      
                <line class="hi" stroke="#FF0D0D" x1="41.86" x2="41.86" y1="44.78" y2="38.775000000000006"/>
                <line class="hi" stroke="#FF0D0D" x1="39.42" x2="39.42" y1="44.78" y2="38.775000000000006"/>
            </g>
                  
            <line class="bond" id="mol1bnd21" x1="53.84" x2="67.03" y1="10.63" y2="3.01"/>
                  
            <line class="bond" id="mol1bnd22" x1="67.03" x2="53.84" y1="48.71" y2="56.32"/>
                  
            <path class="atom" d="M55.78 28.31h-.72l-2.62 -4.07h-.03q.01 .24 .03 .6q.02 .36 .02 .73v2.74h-.57v-4.9h.71l2.61 4.05h.03q-.01 -.11 -.02 -.33q-.01 -.22 -.02 -.48q-.01 -.26 -.01 -.48v-2.77h.58v4.9z" id="mol1atm8" stroke="none"/>
                  
            <path class="atom" d="M42.58 5.46h-.72l-2.62 -4.07h-.03q.01 .24 .03 .6q.02 .36 .02 .73v2.74h-.57v-4.9h.71l2.61 4.05h.03q-.01 -.11 -.02 -.33q-.01 -.22 -.02 -.48q-.01 -.26 -.01 -.48v-2.77h.58v4.9z" id="mol1atm10" stroke="none"/>
                  
            <path class="atom" d="M42.9 48.7q.0 .76 -.26 1.33q-.26 .57 -.76 .88q-.5 .32 -1.24 .32q-.76 .0 -1.26 -.32q-.51 -.32 -.76 -.89q-.24 -.57 -.24 -1.33q.0 -.75 .24 -1.31q.25 -.57 .76 -.88q.51 -.32 1.27 -.32q.73 .0 1.23 .32q.5 .31 .76 .88q.26 .57 .26 1.33zM39.04 48.7q.0 .92 .39 1.46q.39 .53 1.22 .53q.84 .0 1.22 -.53q.39 -.54 .39 -1.46q.0 -.93 -.39 -1.45q-.38 -.52 -1.21 -.52q-.83 .0 -1.23 .52q-.39 .52 -.39 1.45z" fill="#FF0D0D" id="mol1atm18" stroke="none"/>
                
            <line class="hi" id="mol1bnd8" stroke="#3050F8" x1="56.99" x2="62.010000000000005" y1="27.68" y2="30.575"/>
            <line class="hi" id="mol1bnd9" stroke="#3050F8" x1="53.84" x2="53.84" y1="22.01" y2="16.32"/>
            <line class="hi" id="mol1bnd11" stroke="#3050F8" x1="37.49" x2="32.465" y1="4.83" y2="7.73"/>
            <line class="hi" id="mol1bnd19" stroke="#3050F8" x1="50.69" x2="45.665" y1="27.68" y2="30.575"/>
        </g>
          
    </g>
    
</svg>
