<svg xmlns="http://www.w3.org/2000/svg" xmlns:xlink="http://www.w3.org/1999/xlink" height="51.76mm" version="1.2" viewBox="0 0 121.07 51.76" width="121.07mm">
      
    <desc>Generated by the Chemistry Development Kit (http://github.com/cdk)</desc>
      
    <g fill="#FF0D0D" stroke="#000000" stroke-linecap="round" stroke-linejoin="round" stroke-width=".7">
            
        <rect fill="#FFFFFF" height="52.0" stroke="none" width="122.0" x=".0" y=".0"/>
            
        <g class="mol" id="mol1">
                  
            <line class="bond" id="mol1bnd1" x1="120.03" x2="109.99" y1="2.96" y2="8.76"/>
                  
            <line class="bond" id="mol1bnd2" x1="103.68" x2="93.62" y1="8.76" y2="2.96"/>
                  
            <line class="bond" id="mol1bnd3" x1="93.62" x2="80.42" y1="2.96" y2="10.58"/>
                  
            <line class="bond" id="mol1bnd4" x1="80.42" x2="80.42" y1="10.58" y2="21.97"/>
                  
            <line class="bond" id="mol1bnd5" x1="83.57" x2="93.62" y1="27.64" y2="33.44"/>
                  
            <line class="bond" id="mol1bnd6" x1="93.62" x2="106.83" y1="33.44" y2="25.82"/>
                  
            <line class="bond" id="mol1bnd7" x1="106.83" x2="106.83" y1="14.43" y2="25.82"/>
                  
            <line class="bond" id="mol1bnd8" x1="77.26" x2="67.22" y1="27.64" y2="33.44"/>
                  
            <g class="bond" id="mol1bnd9">
                        
                <line x1="68.44" x2="68.44" y1="32.74" y2="44.76"/>
                        
                <line x1="66.0" x2="66.0" y1="32.74" y2="44.76"/>
                      
                <line class="hi" stroke="#FF0D0D" x1="68.44" x2="68.44" y1="44.76" y2="38.75"/>
                <line class="hi" stroke="#FF0D0D" x1="66.0" x2="66.0" y1="44.76" y2="38.75"/>
            </g>
                  
            <line class="bond" id="mol1bnd10" x1="67.22" x2="54.02" y1="33.44" y2="25.82"/>
                  
            <g class="bond" id="mol1bnd11">
                        
                <line x1="40.86" x2="54.02" y1="33.51" y2="25.82"/>
                        
                <line x1="40.83" x2="51.59" y1="30.7" y2="24.42"/>
                      
            </g>
                  
            <line class="bond" id="mol1bnd12" x1="40.86" x2="27.77" y1="33.51" y2="26.21"/>
                  
            <g class="bond" id="mol1bnd13">
                        
                <line x1="27.43" x2="27.77" y1="10.52" y2="26.21"/>
                        
                <line x1="29.9" x2="30.18" y1="11.91" y2="24.76"/>
                      
            </g>
                  
            <line class="bond" id="mol1bnd14" x1="27.43" x2="40.59" y1="10.52" y2="2.84"/>
                  
            <g class="bond" id="mol1bnd15">
                        
                <line x1="54.09" x2="40.59" y1="10.84" y2="2.84"/>
                        
                <line x1="51.65" x2="40.58" y1="12.22" y2="5.67"/>
                      
            </g>
                  
            <line class="bond" id="mol1bnd16" x1="54.02" x2="54.09" y1="25.82" y2="10.84"/>
                  
            <line class="bond" id="mol1bnd17" x1="27.43" x2="17.43" y1="10.52" y2="4.93"/>
                  
            <line class="bond" id="mol1bnd18" x1="10.88" x2="1.04" y1="5.02" y2="10.88"/>
                  
            <path class="atom" d="M108.77 13.03h-.72l-2.62 -4.07h-.03q.01 .24 .03 .6q.02 .36 .02 .73v2.74h-.57v-4.9h.71l2.61 4.05h.03q-.01 -.11 -.02 -.33q-.01 -.22 -.02 -.48q-.01 -.26 -.01 -.48v-2.77h.58v4.9z" fill="#3050F8" id="mol1atm2" stroke="none"/>
                  
            <path class="atom" d="M82.36 28.27h-.72l-2.62 -4.07h-.03q.01 .24 .03 .6q.02 .36 .02 .73v2.74h-.57v-4.9h.71l2.61 4.05h.03q-.01 -.11 -.02 -.33q-.01 -.22 -.02 -.48q-.01 -.26 -.01 -.48v-2.77h.58v4.9z" fill="#3050F8" id="mol1atm5" stroke="none"/>
                  
            <path class="atom" d="M69.48 48.68q.0 .76 -.26 1.33q-.26 .57 -.76 .88q-.5 .32 -1.24 .32q-.76 .0 -1.26 -.32q-.51 -.32 -.76 -.89q-.24 -.57 -.24 -1.33q.0 -.75 .24 -1.31q.25 -.57 .76 -.88q.51 -.32 1.27 -.32q.73 .0 1.23 .32q.5 .31 .76 .88q.26 .57 .26 1.33zM65.62 48.68q.0 .92 .39 1.46q.39 .53 1.22 .53q.84 .0 1.22 -.53q.39 -.54 .39 -1.46q.0 -.93 -.39 -1.45q-.38 -.52 -1.21 -.52q-.83 .0 -1.23 .52q-.39 .52 -.39 1.45z" id="mol1atm9" stroke="none"/>
                  
            <path class="atom" d="M16.39 3.08q.0 .76 -.26 1.33q-.26 .57 -.76 .88q-.5 .32 -1.24 .32q-.76 .0 -1.26 -.32q-.51 -.32 -.76 -.89q-.24 -.57 -.24 -1.33q.0 -.75 .24 -1.31q.25 -.57 .76 -.88q.51 -.32 1.27 -.32q.73 .0 1.23 .32q.5 .31 .76 .88q.26 .57 .26 1.33zM12.53 3.08q.0 .92 .39 1.46q.39 .53 1.22 .53q.84 .0 1.22 -.53q.39 -.54 .39 -1.46q.0 -.93 -.39 -1.45q-.38 -.52 -1.21 -.52q-.83 .0 -1.23 .52q-.39 .52 -.39 1.45z" id="mol1atm16" stroke="none"/>
                
            <line class="hi" id="mol1bnd1" stroke="#3050F8" x1="109.99" x2="115.00999999999999" y1="8.76" y2="5.859999999999999"/>
            <line class="hi" id="mol1bnd2" stroke="#3050F8" x1="103.68" x2="98.65" y1="8.76" y2="5.859999999999999"/>
            <line class="hi" id="mol1bnd4" stroke="#3050F8" x1="80.42" x2="80.42" y1="21.97" y2="16.275"/>
            <line class="hi" id="mol1bnd5" stroke="#3050F8" x1="83.57" x2="88.595" y1="27.64" y2="30.54"/>
            <line class="hi" id="mol1bnd7" stroke="#3050F8" x1="106.83" x2="106.83" y1="14.43" y2="20.125"/>
            <line class="hi" id="mol1bnd8" stroke="#3050F8" x1="77.26" x2="72.24000000000001" y1="27.64" y2="30.54"/>
            <line class="hi" id="mol1bnd17" stroke="#FF0D0D" x1="17.43" x2="22.43" y1="4.93" y2="7.725"/>
            <line class="hi" id="mol1bnd18" stroke="#FF0D0D" x1="10.88" x2="5.960000000000001" y1="5.02" y2="7.95"/>
        </g>
          
    </g>
    
</svg>
