<svg xmlns="http://www.w3.org/2000/svg" xmlns:xlink="http://www.w3.org/1999/xlink" height="104.66mm" version="1.2" viewBox="0 0 82.9 104.66" width="82.9mm">
      
    <desc>Generated by the Chemistry Development Kit (http://github.com/cdk)</desc>
      
    <g fill="#3050F8" stroke="#000000" stroke-linecap="round" stroke-linejoin="round" stroke-width=".7">
            
        <rect fill="#FFFFFF" height="105.0" stroke="none" width="83.0" x=".0" y=".0"/>
            
        <g class="mol" id="mol1">
                  
            <line class="bond" id="mol1bnd1" x1="33.45" x2="47.94" y1="7.22" y2="11.95"/>
                  
            <g class="bond" id="mol1bnd2">
                        
                <line x1="57.16" x2="47.94" y1="5.24" y2="11.95"/>
                        
                <line x1="58.6" x2="50.8" y1="7.22" y2="12.88"/>
                      
                <line class="hi" stroke="#3050F8" x1="57.16" x2="52.55" y1="5.24" y2="8.594999999999999"/>
                <line class="hi" stroke="#3050F8" x1="58.6" x2="54.7" y1="7.22" y2="10.05"/>
            </g>
                  
            <line class="bond" id="mol1bnd3" x1="63.31" x2="72.63" y1="5.23" y2="11.95"/>
                  
            <g class="bond" id="mol1bnd4">
                        
                <line x1="67.85" x2="72.63" y1="26.48" y2="11.95"/>
                        
                <line x1="66.09" x2="69.76" y1="24.04" y2="12.88"/>
                      
            </g>
                  
            <line class="bond" id="mol1bnd5" x1="67.85" x2="55.95" y1="26.48" y2="26.48"/>
                  
            <line class="bond" id="mol1bnd6" x1="47.94" x2="51.4" y1="11.95" y2="22.7"/>
                  
            <line class="bond" id="mol1bnd7" x1="49.68" x2="41.84" y1="29.41" y2="37.25"/>
                  
            <g class="bond" id="mol1bnd8">
                        
                <line x1="43.57" x2="41.84" y1="50.66" y2="37.25"/>
                        
                <line x1="40.97" x2="39.59" y1="49.59" y2="38.82"/>
                      
            </g>
                  
            <line class="bond" id="mol1bnd9" x1="43.57" x2="31.48" y1="50.66" y2="60.01"/>
                  
            <g class="bond" id="mol1bnd10">
                        
                <line x1="17.46" x2="31.48" y1="54.11" y2="60.01"/>
                        
                <line x1="19.69" x2="31.11" y1="52.41" y2="57.21"/>
                      
            </g>
                  
            <line class="bond" id="mol1bnd11" x1="17.46" x2="15.43" y1="54.11" y2="39.08"/>
                  
            <g class="bond" id="mol1bnd12">
                        
                <line x1="27.52" x2="15.43" y1="29.73" y2="39.08"/>
                        
                <line x1="27.77" x2="18.03" y1="32.62" y2="40.15"/>
                      
            </g>
                  
            <line class="bond" id="mol1bnd13" x1="41.84" x2="27.52" y1="37.25" y2="29.73"/>
                  
            <line class="bond" id="mol1bnd14" x1="17.46" x2="6.77" y1="54.11" y2="62.3"/>
                  
            <line class="bond" id="mol1bnd15" x1="43.57" x2="56.78" y1="50.66" y2="58.28"/>
                  
            <g class="bond" id="mol1bnd16">
                        
                <line x1="56.78" x2="68.22" y1="58.28" y2="55.2"/>
                        
                <line x1="57.12" x2="67.59" y1="55.66" y2="52.85"/>
                      
                <line class="hi" stroke="#3050F8" x1="68.22" x2="62.5" y1="55.2" y2="56.74"/>
                <line class="hi" stroke="#3050F8" x1="67.59" x2="62.355000000000004" y1="52.85" y2="54.254999999999995"/>
            </g>
                  
            <line class="bond" id="mol1bnd17" x1="72.54" x2="75.47" y1="50.52" y2="39.69"/>
                  
            <line class="bond" id="mol1bnd18" x1="67.85" x2="75.47" y1="26.48" y2="39.69"/>
                  
            <line class="bond" id="mol1bnd19" x1="56.78" x2="54.8" y1="58.28" y2="73.39"/>
                  
            <g class="bond" id="mol1bnd20">
                        
                <line x1="54.8" x2="40.8" y1="73.39" y2="79.22"/>
                        
                <line x1="54.43" x2="43.04" y1="76.18" y2="80.93"/>
                      
            </g>
                  
            <line class="bond" id="mol1bnd21" x1="40.8" x2="38.8" y1="79.22" y2="94.33"/>
                  
            <g class="bond" id="mol1bnd22">
                        
                <line x1="38.8" x2="50.79" y1="94.33" y2="103.61"/>
                        
                <line x1="41.4" x2="51.17" y1="93.26" y2="100.81"/>
                      
            </g>
                  
            <line class="bond" id="mol1bnd23" x1="50.79" x2="64.89" y1="103.61" y2="97.79"/>
                  
            <g class="bond" id="mol1bnd24">
                        
                <line x1="64.89" x2="66.89" y1="97.79" y2="82.68"/>
                        
                <line x1="62.65" x2="64.29" y1="96.07" y2="83.76"/>
                      
            </g>
                  
            <line class="bond" id="mol1bnd25" x1="54.8" x2="66.89" y1="73.39" y2="82.68"/>
                  
            <line class="bond" id="mol1bnd26" x1="66.89" x2="78.32" y1="82.68" y2="77.96"/>
                  
            <path class="atom" d="M62.17 5.46h-.72l-2.62 -4.07h-.03q.01 .24 .03 .6q.02 .36 .02 .73v2.74h-.57v-4.9h.71l2.61 4.05h.03q-.01 -.11 -.02 -.33q-.01 -.22 -.02 -.48q-.01 -.26 -.01 -.48v-2.77h.58v4.9z" id="mol1atm3" stroke="none"/>
                  
            <path class="atom" d="M54.55 28.93h-.72l-2.62 -4.07h-.03q.01 .24 .03 .6q.02 .36 .02 .73v2.74h-.57v-4.9h.71l2.61 4.05h.03q-.01 -.11 -.02 -.33q-.01 -.22 -.02 -.48q-.01 -.26 -.01 -.48v-2.77h.58v4.9z" id="mol1atm6" stroke="none"/>
                  
            <path class="atom" d="M2.91 61.57q-.79 .0 -1.24 .53q-.45 .52 -.45 1.45q.0 .91 .42 1.45q.42 .53 1.27 .53q.32 .0 .61 -.05q.29 -.06 .57 -.14v.54q-.27 .1 -.57 .15q-.29 .05 -.7 .05q-.74 .0 -1.25 -.31q-.5 -.31 -.75 -.88q-.25 -.57 -.25 -1.34q.0 -.74 .27 -1.31q.27 -.57 .8 -.88q.53 -.32 1.28 -.32q.78 .0 1.35 .29l-.24 .52q-.23 -.1 -.51 -.18q-.27 -.08 -.61 -.08zM5.66 65.99h-.6v-5.21h.6v5.21z" fill="#1FF01F" id="mol1atm13" stroke="none"/>
                  
            <path class="atom" d="M73.45 56.77h-.72l-2.62 -4.07h-.03q.01 .24 .03 .6q.02 .36 .02 .73v2.74h-.57v-4.9h.71l2.61 4.05h.03q-.01 -.11 -.02 -.33q-.01 -.22 -.02 -.48q-.01 -.26 -.01 -.48v-2.77h.58v4.9z" id="mol1atm15" stroke="none"/>
                  
            <path class="atom" d="M80.22 79.31h-.61v-4.9h2.73v.54h-2.12v1.74h1.99v.54h-1.99v2.08z" fill="#90E050" id="mol1atm23" stroke="none"/>
                
            <line class="hi" id="mol1bnd3" stroke="#3050F8" x1="63.31" x2="67.97" y1="5.23" y2="8.59"/>
            <line class="hi" id="mol1bnd5" stroke="#3050F8" x1="55.95" x2="61.9" y1="26.48" y2="26.48"/>
            <line class="hi" id="mol1bnd6" stroke="#3050F8" x1="51.4" x2="49.67" y1="22.7" y2="17.325"/>
            <line class="hi" id="mol1bnd7" stroke="#3050F8" x1="49.68" x2="45.760000000000005" y1="29.41" y2="33.33"/>
            <line class="hi" id="mol1bnd14" stroke="#1FF01F" x1="6.77" x2="12.115" y1="62.3" y2="58.205"/>
            <line class="hi" id="mol1bnd17" stroke="#3050F8" x1="72.54" x2="74.005" y1="50.52" y2="45.105000000000004"/>
            <line class="hi" id="mol1bnd26" stroke="#90E050" x1="78.32" x2="72.60499999999999" y1="77.96" y2="80.32"/>
        </g>
          
    </g>
    
</svg>
