<svg xmlns="http://www.w3.org/2000/svg" xmlns:xlink="http://www.w3.org/1999/xlink" height="83.73mm" version="1.2" viewBox="0 0 92.55 83.73" width="92.55mm">
      
    <desc>Generated by the Chemistry Development Kit (http://github.com/cdk)</desc>
      
    <g fill="#3050F8" stroke="#000000" stroke-linecap="round" stroke-linejoin="round" stroke-width=".7">
            
        <rect fill="#FFFFFF" height="84.0" stroke="none" width="93.0" x=".0" y=".0"/>
            
        <g class="mol" id="mol1">
                  
            <line class="bond" id="mol1bnd1" x1="86.09" x2="81.34" y1="1.0" y2="15.48"/>
                  
            <line class="bond" id="mol1bnd2" x1="81.34" x2="91.5" y1="15.48" y2="26.84"/>
                  
            <line class="bond" id="mol1bnd3" x1="81.34" x2="69.73" y1="15.48" y2="17.91"/>
                  
            <line class="bond" id="mol1bnd4" x1="63.54" x2="56.26" y1="15.38" y2="7.24"/>
                  
            <line class="bond" id="mol1bnd5" x1="65.18" x2="61.66" y1="22.38" y2="33.08"/>
                  
            <line class="bond" id="mol1bnd6" x1="61.66" x2="46.74" y1="33.08" y2="36.19"/>
                  
            <line class="bond" id="mol1bnd7" x1="46.74" x2="41.98" y1="36.19" y2="50.67"/>
                  
            <g class="bond" id="mol1bnd8">
                        
                <line x1="50.92" x2="41.98" y1="62.97" y2="50.67"/>
                        
                <line x1="47.91" x2="41.05" y1="62.97" y2="53.53"/>
                      
            </g>
                  
            <line class="bond" id="mol1bnd9" x1="50.92" x2="44.59" y1="62.97" y2="71.68"/>
                  
            <line class="bond" id="mol1bnd10" x1="38.71" x2="27.45" y1="74.18" y2="70.48"/>
                  
            <g class="bond" id="mol1bnd11">
                        
                <line x1="14.25" x2="27.45" y1="78.1" y2="70.48"/>
                        
                <line x1="14.25" x2="25.03" y1="75.28" y2="69.07"/>
                      
            </g>
                  
            <line class="bond" id="mol1bnd12" x1="14.25" x2="1.04" y1="78.1" y2="70.38"/>
                  
            <g class="bond" id="mol1bnd13">
                        
                <line x1="1.14" x2="1.04" y1="55.14" y2="70.38"/>
                        
                <line x1="3.57" x2="3.49" y1="56.57" y2="68.99"/>
                      
            </g>
                  
            <line class="bond" id="mol1bnd14" x1="1.14" x2="14.35" y1="55.14" y2="47.62"/>
                  
            <g class="bond" id="mol1bnd15">
                        
                <line x1="27.56" x2="14.35" y1="55.24" y2="47.62"/>
                        
                <line x1="25.11" x2="14.34" y1="56.65" y2="50.43"/>
                      
            </g>
                  
            <line class="bond" id="mol1bnd16" x1="27.45" x2="27.56" y1="70.48" y2="55.24"/>
                  
            <line class="bond" id="mol1bnd17" x1="41.98" x2="27.56" y1="50.67" y2="55.24"/>
                  
            <path class="atom" d="M68.36 21.05h-.72l-2.62 -4.07h-.03q.01 .24 .03 .6q.02 .36 .02 .73v2.74h-.57v-4.9h.71l2.61 4.05h.03q-.01 -.11 -.02 -.33q-.01 -.22 -.02 -.48q-.01 -.26 -.01 -.48v-2.77h.58v4.9z" id="mol1atm4" stroke="none"/>
                  
            <g class="atom" id="mol1atm10">
                        
                <path d="M43.92 77.71h-.72l-2.62 -4.07h-.03q.01 .24 .03 .6q.02 .36 .02 .73v2.74h-.57v-4.9h.71l2.61 4.05h.03q-.01 -.11 -.02 -.33q-.01 -.22 -.02 -.48q-.01 -.26 -.01 -.48v-2.77h.58v4.9z" stroke="none"/>
                        
                <path d="M43.79 83.17h-.62v-2.29h-2.51v2.29h-.61v-4.9h.61v2.07h2.51v-2.07h.62v4.9z" stroke="none"/>
                      
            </g>
                
            <line class="hi" id="mol1bnd3" stroke="#3050F8" x1="69.73" x2="75.535" y1="17.91" y2="16.695"/>
            <line class="hi" id="mol1bnd4" stroke="#3050F8" x1="63.54" x2="59.9" y1="15.38" y2="11.31"/>
            <line class="hi" id="mol1bnd5" stroke="#3050F8" x1="65.18" x2="63.42" y1="22.38" y2="27.729999999999997"/>
            <line class="hi" id="mol1bnd9" stroke="#3050F8" x1="44.59" x2="47.755" y1="71.68" y2="67.325"/>
            <line class="hi" id="mol1bnd10" stroke="#3050F8" x1="38.71" x2="33.08" y1="74.18" y2="72.33000000000001"/>
        </g>
          
    </g>
    
</svg>
