<svg xmlns="http://www.w3.org/2000/svg" xmlns:xlink="http://www.w3.org/1999/xlink" height="57.51mm" version="1.2" viewBox="0 0 138.87 57.51" width="138.87mm">
      
    <desc>Generated by the Chemistry Development Kit (http://github.com/cdk)</desc>
      
    <g fill="#3050F8" stroke="#000000" stroke-linecap="round" stroke-linejoin="round" stroke-width=".7">
            
        <rect fill="#FFFFFF" height="58.0" stroke="none" width="139.0" x=".0" y=".0"/>
            
        <g class="mol" id="mol1">
                  
            <line class="bond" id="mol1bnd1" x1="29.24" x2="16.03" y1="48.85" y2="56.47"/>
                  
            <line class="bond" id="mol1bnd2" x1="16.03" x2="6.1" y1="56.47" y2="50.74"/>
                  
            <line class="bond" id="mol1bnd3" x1="2.82" x2="2.82" y1="44.93" y2="33.61"/>
                  
            <line class="bond" id="mol1bnd4" x1="2.82" x2="16.03" y1="33.61" y2="25.99"/>
                  
            <line class="bond" id="mol1bnd5" x1="16.03" x2="26.08" y1="25.99" y2="31.79"/>
                  
            <line class="bond" id="mol1bnd6" x1="29.24" x2="29.24" y1="48.85" y2="37.46"/>
                  
            <line class="bond" id="mol1bnd7" x1="32.39" x2="42.43" y1="31.79" y2="25.99"/>
                  
            <line class="bond" id="mol1bnd8" x1="42.43" x2="55.63" y1="25.99" y2="33.61"/>
                  
            <line class="bond" id="mol1bnd9" x1="55.63" x2="65.68" y1="33.61" y2="27.8"/>
                  
            <line class="bond" id="mol1bnd10" x1="71.98" x2="82.03" y1="27.8" y2="33.6"/>
                  
            <g class="bond" id="mol1bnd11">
                        
                <line x1="83.25" x2="83.25" y1="32.9" y2="44.92"/>
                        
                <line x1="80.81" x2="80.81" y1="32.9" y2="44.92"/>
                      
                <line class="hi" stroke="#FF0D0D" x1="83.25" x2="83.25" y1="44.92" y2="38.91"/>
                <line class="hi" stroke="#FF0D0D" x1="80.81" x2="80.81" y1="44.92" y2="38.91"/>
            </g>
                  
            <line class="bond" id="mol1bnd12" x1="82.03" x2="95.23" y1="33.6" y2="25.98"/>
                  
            <g class="bond" id="mol1bnd13">
                        
                <line x1="95.23" x2="108.29" y1="25.98" y2="33.49"/>
                        
                <line x1="97.67" x2="108.29" y1="24.57" y2="30.68"/>
                      
            </g>
                  
            <line class="bond" id="mol1bnd14" x1="108.29" x2="121.53" y1="33.49" y2="25.94"/>
                  
            <g class="bond" id="mol1bnd15">
                        
                <line x1="121.53" x2="121.78" y1="25.94" y2="10.82"/>
                        
                <line x1="119.11" x2="119.32" y1="24.51" y2="12.21"/>
                      
            </g>
                  
            <line class="bond" id="mol1bnd16" x1="121.78" x2="108.48" y1="10.82" y2="3.09"/>
                  
            <g class="bond" id="mol1bnd17">
                        
                <line x1="108.48" x2="95.24" y1="3.09" y2="10.64"/>
                        
                <line x1="108.47" x2="97.68" y1="5.9" y2="12.06"/>
                      
            </g>
                  
            <line class="bond" id="mol1bnd18" x1="95.23" x2="95.24" y1="25.98" y2="10.64"/>
                  
            <line class="bond" id="mol1bnd19" x1="121.78" x2="132.09" y1="10.82" y2="5.0"/>
                  
            <path class="atom" d="M5.08 48.85q.0 .76 -.26 1.33q-.26 .57 -.76 .88q-.5 .32 -1.24 .32q-.76 .0 -1.26 -.32q-.51 -.32 -.76 -.89q-.24 -.57 -.24 -1.33q.0 -.75 .24 -1.31q.25 -.57 .76 -.88q.51 -.32 1.27 -.32q.73 .0 1.23 .32q.5 .31 .76 .88q.26 .57 .26 1.33zM1.21 48.85q.0 .92 .39 1.46q.39 .53 1.22 .53q.84 .0 1.22 -.53q.39 -.54 .39 -1.46q.0 -.93 -.39 -1.45q-.38 -.52 -1.21 -.52q-.83 .0 -1.23 .52q-.39 .52 -.39 1.45z" fill="#FF0D0D" id="mol1atm3" stroke="none"/>
                  
            <path class="atom" d="M31.18 36.06h-.72l-2.62 -4.07h-.03q.01 .24 .03 .6q.02 .36 .02 .73v2.74h-.57v-4.9h.71l2.61 4.05h.03q-.01 -.11 -.02 -.33q-.01 -.22 -.02 -.48q-.01 -.26 -.01 -.48v-2.77h.58v4.9z" id="mol1atm6" stroke="none"/>
                  
            <g class="atom" id="mol1atm9">
                        
                <path d="M70.77 28.43h-.72l-2.62 -4.07h-.03q.01 .24 .03 .6q.02 .36 .02 .73v2.74h-.57v-4.9h.71l2.61 4.05h.03q-.01 -.11 -.02 -.33q-.01 -.22 -.02 -.48q-.01 -.26 -.01 -.48v-2.77h.58v4.9z" stroke="none"/>
                        
                <path d="M70.63 22.97h-.62v-2.29h-2.51v2.29h-.61v-4.9h.61v2.07h2.51v-2.07h.62v4.9z" stroke="none"/>
                      
            </g>
                  
            <path class="atom" d="M84.29 48.84q.0 .76 -.26 1.33q-.26 .57 -.76 .88q-.5 .32 -1.24 .32q-.76 .0 -1.26 -.32q-.51 -.32 -.76 -.89q-.24 -.57 -.24 -1.33q.0 -.75 .24 -1.31q.25 -.57 .76 -.88q.51 -.32 1.27 -.32q.73 .0 1.23 .32q.5 .31 .76 .88q.26 .57 .26 1.33zM80.43 48.84q.0 .92 .39 1.46q.39 .53 1.22 .53q.84 .0 1.22 -.53q.39 -.54 .39 -1.46q.0 -.93 -.39 -1.45q-.38 -.52 -1.21 -.52q-.83 .0 -1.23 .52q-.39 .52 -.39 1.45z" fill="#FF0D0D" id="mol1atm11" stroke="none"/>
                  
            <path class="atom" d="M135.55 1.35q-.79 .0 -1.24 .53q-.45 .52 -.45 1.45q.0 .91 .42 1.45q.42 .53 1.27 .53q.32 .0 .61 -.05q.29 -.06 .57 -.14v.54q-.27 .1 -.57 .15q-.29 .05 -.7 .05q-.74 .0 -1.25 -.31q-.5 -.31 -.75 -.88q-.25 -.57 -.25 -1.34q.0 -.74 .27 -1.31q.27 -.57 .8 -.88q.53 -.32 1.28 -.32q.78 .0 1.35 .29l-.24 .52q-.23 -.1 -.51 -.18q-.27 -.08 -.61 -.08zM138.31 5.77h-.6v-5.21h.6v5.21z" fill="#1FF01F" id="mol1atm18" stroke="none"/>
                
            <line class="hi" id="mol1bnd2" stroke="#FF0D0D" x1="6.1" x2="11.065000000000001" y1="50.74" y2="53.605000000000004"/>
            <line class="hi" id="mol1bnd3" stroke="#FF0D0D" x1="2.82" x2="2.82" y1="44.93" y2="39.269999999999996"/>
            <line class="hi" id="mol1bnd5" stroke="#3050F8" x1="26.08" x2="21.055" y1="31.79" y2="28.89"/>
            <line class="hi" id="mol1bnd6" stroke="#3050F8" x1="29.24" x2="29.24" y1="37.46" y2="43.155"/>
            <line class="hi" id="mol1bnd7" stroke="#3050F8" x1="32.39" x2="37.41" y1="31.79" y2="28.89"/>
            <line class="hi" id="mol1bnd9" stroke="#3050F8" x1="65.68" x2="60.655" y1="27.8" y2="30.705"/>
            <line class="hi" id="mol1bnd9" stroke="#3050F8" x1="65.68" x2="60.655" y1="27.8" y2="30.705"/>
            <line class="hi" id="mol1bnd10" stroke="#3050F8" x1="71.98" x2="77.005" y1="27.8" y2="30.700000000000003"/>
            <line class="hi" id="mol1bnd10" stroke="#3050F8" x1="71.98" x2="77.005" y1="27.8" y2="30.700000000000003"/>
            <line class="hi" id="mol1bnd19" stroke="#1FF01F" x1="132.09" x2="126.935" y1="5.0" y2="7.91"/>
        </g>
          
    </g>
    
</svg>
