<svg xmlns="http://www.w3.org/2000/svg" xmlns:xlink="http://www.w3.org/1999/xlink" height="58.25mm" version="1.2" viewBox="0 0 93.06 58.25" width="93.06mm">
      
    <desc>Generated by the Chemistry Development Kit (http://github.com/cdk)</desc>
      
    <g fill="#FF0D0D" stroke="#000000" stroke-linecap="round" stroke-linejoin="round" stroke-width=".7">
            
        <rect fill="#FFFFFF" height="59.0" stroke="none" width="94.0" x=".0" y=".0"/>
            
        <g class="mol" id="mol1">
                  
            <line class="bond" id="mol1bnd1" x1="40.18" x2="45.39" y1="1.01" y2="15.33"/>
                  
            <line class="bond" id="mol1bnd2" x1="45.39" x2="57.08" y1="15.33" y2="17.39"/>
                  
            <line class="bond" id="mol1bnd3" x1="61.77" x2="65.61" y1="21.75" y2="32.3"/>
                  
            <line class="bond" id="mol1bnd4" x1="65.61" x2="78.82" y1="32.3" y2="24.68"/>
                  
            <line class="bond" id="mol1bnd5" x1="78.82" x2="92.02" y1="24.68" y2="32.3"/>
                  
            <line class="bond" id="mol1bnd6" x1="92.02" x2="92.02" y1="32.3" y2="47.54"/>
                  
            <line class="bond" id="mol1bnd7" x1="92.02" x2="78.82" y1="47.54" y2="55.16"/>
                  
            <line class="bond" id="mol1bnd8" x1="78.82" x2="65.61" y1="55.16" y2="47.54"/>
                  
            <line class="bond" id="mol1bnd9" x1="65.61" x2="65.61" y1="32.3" y2="47.54"/>
                  
            <g class="bond" id="mol1bnd10">
                        
                <line x1="66.83" x2="56.3" y1="48.25" y2="54.33"/>
                        
                <line x1="65.61" x2="55.08" y1="46.13" y2="52.22"/>
                      
                <line class="hi" stroke="#FF0D0D" x1="56.3" x2="61.565" y1="54.33" y2="51.29"/>
                <line class="hi" stroke="#FF0D0D" x1="55.08" x2="60.345" y1="52.22" y2="49.175"/>
            </g>
                  
            <line class="bond" id="mol1bnd11" x1="65.61" x2="50.6" y1="32.3" y2="34.95"/>
                  
            <g class="bond" id="mol1bnd12">
                        
                <line x1="50.6" x2="40.8" y1="34.95" y2="23.27"/>
                        
                <line x1="47.83" x2="39.84" y1="35.44" y2="25.92"/>
                      
            </g>
                  
            <line class="bond" id="mol1bnd13" x1="40.8" x2="25.79" y1="23.27" y2="25.93"/>
                  
            <g class="bond" id="mol1bnd14">
                        
                <line x1="25.79" x2="20.64" y1="25.93" y2="40.19"/>
                        
                <line x1="27.6" x2="23.41" y1="28.08" y2="39.7"/>
                      
            </g>
                  
            <line class="bond" id="mol1bnd15" x1="20.64" x2="30.44" y1="40.19" y2="51.86"/>
                  
            <g class="bond" id="mol1bnd16">
                        
                <line x1="30.44" x2="45.38" y1="51.86" y2="49.27"/>
                        
                <line x1="31.41" x2="43.57" y1="49.22" y2="47.11"/>
                      
            </g>
                  
            <line class="bond" id="mol1bnd17" x1="50.6" x2="45.38" y1="34.95" y2="49.27"/>
                  
            <line class="bond" id="mol1bnd18" x1="25.79" x2="18.52" y1="25.93" y2="17.29"/>
                  
            <line class="bond" id="mol1bnd19" x1="12.33" x2=".97" y1="14.92" y2="16.94"/>
                  
            <g class="atom" id="mol1atm3">
                        
                <path d="M62.34 20.43h-.72l-2.62 -4.07h-.03q.01 .24 .03 .6q.02 .36 .02 .73v2.74h-.57v-4.9h.71l2.61 4.05h.03q-.01 -.11 -.02 -.33q-.01 -.22 -.02 -.48q-.01 -.26 -.01 -.48v-2.77h.58v4.9z" fill="#3050F8" stroke="none"/>
                        
                <path d="M66.64 20.43h-.62v-2.29h-2.51v2.29h-.61v-4.9h.61v2.07h2.51v-2.07h.62v4.9z" fill="#3050F8" stroke="none"/>
                      
            </g>
                  
            <path class="atom" d="M54.67 55.16q.0 .76 -.26 1.33q-.26 .57 -.76 .88q-.5 .32 -1.24 .32q-.76 .0 -1.26 -.32q-.51 -.32 -.76 -.89q-.24 -.57 -.24 -1.33q.0 -.75 .24 -1.31q.25 -.57 .76 -.88q.51 -.32 1.27 -.32q.73 .0 1.23 .32q.5 .31 .76 .88q.26 .57 .26 1.33zM50.81 55.16q.0 .92 .39 1.46q.39 .53 1.22 .53q.84 .0 1.22 -.53q.39 -.54 .39 -1.46q.0 -.93 -.39 -1.45q-.38 -.52 -1.21 -.52q-.83 .0 -1.23 .52q-.39 .52 -.39 1.45z" id="mol1atm10" stroke="none"/>
                  
            <path class="atom" d="M18.23 14.27q.0 .76 -.26 1.33q-.26 .57 -.76 .88q-.5 .32 -1.24 .32q-.76 .0 -1.26 -.32q-.51 -.32 -.76 -.89q-.24 -.57 -.24 -1.33q.0 -.75 .24 -1.31q.25 -.57 .76 -.88q.51 -.32 1.27 -.32q.73 .0 1.23 .32q.5 .31 .76 .88q.26 .57 .26 1.33zM14.37 14.27q.0 .92 .39 1.46q.39 .53 1.22 .53q.84 .0 1.22 -.53q.39 -.54 .39 -1.46q.0 -.93 -.39 -1.45q-.38 -.52 -1.21 -.52q-.83 .0 -1.23 .52q-.39 .52 -.39 1.45z" id="mol1atm17" stroke="none"/>
                
            <line class="hi" id="mol1bnd2" stroke="#3050F8" x1="57.08" x2="51.235" y1="17.39" y2="16.36"/>
            <line class="hi" id="mol1bnd3" stroke="#3050F8" x1="61.77" x2="63.69" y1="21.75" y2="27.025"/>
            <line class="hi" id="mol1bnd3" stroke="#3050F8" x1="61.91546218467395" x2="63.69" y1="22.14964220008076" y2="27.025"/>
            <line class="hi" id="mol1bnd18" stroke="#FF0D0D" x1="18.52" x2="22.155" y1="17.29" y2="21.61"/>
            <line class="hi" id="mol1bnd19" stroke="#FF0D0D" x1="12.33" x2="6.65" y1="14.92" y2="15.93"/>
        </g>
          
    </g>
    
</svg>
