<svg xmlns="http://www.w3.org/2000/svg" xmlns:xlink="http://www.w3.org/1999/xlink" height="47.06mm" version="1.2" viewBox="0 0 93.06 47.06" width="93.06mm">
      
    <desc>Generated by the Chemistry Development Kit (http://github.com/cdk)</desc>
      
    <g fill="#FF0D0D" stroke="#000000" stroke-linecap="round" stroke-linejoin="round" stroke-width=".7">
            
        <rect fill="#FFFFFF" height="48.0" stroke="none" width="94.0" x=".0" y=".0"/>
            
        <g class="mol" id="mol1">
                  
            <line class="bond" id="mol1bnd1" x1="45.39" x2="57.08" y1="4.14" y2="6.21"/>
                  
            <line class="bond" id="mol1bnd2" x1="61.77" x2="65.61" y1="10.56" y2="21.11"/>
                  
            <line class="bond" id="mol1bnd3" x1="65.61" x2="78.82" y1="21.11" y2="13.49"/>
                  
            <line class="bond" id="mol1bnd4" x1="78.82" x2="92.02" y1="13.49" y2="21.11"/>
                  
            <line class="bond" id="mol1bnd5" x1="92.02" x2="92.02" y1="21.11" y2="36.35"/>
                  
            <line class="bond" id="mol1bnd6" x1="92.02" x2="78.82" y1="36.35" y2="43.97"/>
                  
            <line class="bond" id="mol1bnd7" x1="78.82" x2="65.61" y1="43.97" y2="36.35"/>
                  
            <line class="bond" id="mol1bnd8" x1="65.61" x2="65.61" y1="21.11" y2="36.35"/>
                  
            <g class="bond" id="mol1bnd9">
                        
                <line x1="66.83" x2="56.3" y1="37.06" y2="43.14"/>
                        
                <line x1="65.61" x2="55.08" y1="34.95" y2="41.03"/>
                      
                <line class="hi" stroke="#FF0D0D" x1="56.3" x2="61.565" y1="43.14" y2="40.1"/>
                <line class="hi" stroke="#FF0D0D" x1="55.08" x2="60.345" y1="41.03" y2="37.99"/>
            </g>
                  
            <line class="bond" id="mol1bnd10" x1="65.61" x2="50.6" y1="21.11" y2="23.76"/>
                  
            <g class="bond" id="mol1bnd11">
                        
                <line x1="50.6" x2="40.8" y1="23.76" y2="12.09"/>
                        
                <line x1="47.83" x2="39.84" y1="24.25" y2="14.73"/>
                      
            </g>
                  
            <line class="bond" id="mol1bnd12" x1="40.8" x2="25.79" y1="12.09" y2="14.74"/>
                  
            <g class="bond" id="mol1bnd13">
                        
                <line x1="25.79" x2="20.64" y1="14.74" y2="29.0"/>
                        
                <line x1="27.6" x2="23.41" y1="16.89" y2="28.51"/>
                      
            </g>
                  
            <line class="bond" id="mol1bnd14" x1="20.64" x2="30.44" y1="29.0" y2="40.67"/>
                  
            <g class="bond" id="mol1bnd15">
                        
                <line x1="30.44" x2="45.38" y1="40.67" y2="38.09"/>
                        
                <line x1="31.41" x2="43.57" y1="38.03" y2="35.93"/>
                      
            </g>
                  
            <line class="bond" id="mol1bnd16" x1="50.6" x2="45.38" y1="23.76" y2="38.09"/>
                  
            <line class="bond" id="mol1bnd17" x1="25.79" x2="18.52" y1="14.74" y2="6.11"/>
                  
            <line class="bond" id="mol1bnd18" x1="12.33" x2=".97" y1="3.73" y2="5.75"/>
                  
            <g class="atom" id="mol1atm2">
                        
                <path d="M62.34 9.24h-.72l-2.62 -4.07h-.03q.01 .24 .03 .6q.02 .36 .02 .73v2.74h-.57v-4.9h.71l2.61 4.05h.03q-.01 -.11 -.02 -.33q-.01 -.22 -.02 -.48q-.01 -.26 -.01 -.48v-2.77h.58v4.9z" fill="#3050F8" stroke="none"/>
                        
                <path d="M66.64 9.24h-.62v-2.29h-2.51v2.29h-.61v-4.9h.61v2.07h2.51v-2.07h.62v4.9z" fill="#3050F8" stroke="none"/>
                      
            </g>
                  
            <path class="atom" d="M54.67 43.97q.0 .76 -.26 1.33q-.26 .57 -.76 .88q-.5 .32 -1.24 .32q-.76 .0 -1.26 -.32q-.51 -.32 -.76 -.89q-.24 -.57 -.24 -1.33q.0 -.75 .24 -1.31q.25 -.57 .76 -.88q.51 -.32 1.27 -.32q.73 .0 1.23 .32q.5 .31 .76 .88q.26 .57 .26 1.33zM50.81 43.97q.0 .92 .39 1.46q.39 .53 1.22 .53q.84 .0 1.22 -.53q.39 -.54 .39 -1.46q.0 -.93 -.39 -1.45q-.38 -.52 -1.21 -.52q-.83 .0 -1.23 .52q-.39 .52 -.39 1.45z" id="mol1atm9" stroke="none"/>
                  
            <path class="atom" d="M18.23 3.08q.0 .76 -.26 1.33q-.26 .57 -.76 .88q-.5 .32 -1.24 .32q-.76 .0 -1.26 -.32q-.51 -.32 -.76 -.89q-.24 -.57 -.24 -1.33q.0 -.75 .24 -1.31q.25 -.57 .76 -.88q.51 -.32 1.27 -.32q.73 .0 1.23 .32q.5 .31 .76 .88q.26 .57 .26 1.33zM14.37 3.08q.0 .92 .39 1.46q.39 .53 1.22 .53q.84 .0 1.22 -.53q.39 -.54 .39 -1.46q.0 -.93 -.39 -1.45q-.38 -.52 -1.21 -.52q-.83 .0 -1.23 .52q-.39 .52 -.39 1.45z" id="mol1atm16" stroke="none"/>
                
            <line class="hi" id="mol1bnd1" stroke="#3050F8" x1="57.08" x2="51.235" y1="6.21" y2="5.175"/>
            <line class="hi" id="mol1bnd2" stroke="#3050F8" x1="61.77" x2="63.69" y1="10.56" y2="15.835"/>
            <line class="hi" id="mol1bnd2" stroke="#3050F8" x1="61.91546218467395" x2="63.69" y1="10.959642200080761" y2="15.835"/>
            <line class="hi" id="mol1bnd17" stroke="#FF0D0D" x1="18.52" x2="22.155" y1="6.110000000000001" y2="10.425"/>
            <line class="hi" id="mol1bnd18" stroke="#FF0D0D" x1="12.33" x2="6.65" y1="3.73" y2="4.74"/>
        </g>
          
    </g>
    
</svg>
