<svg xmlns="http://www.w3.org/2000/svg" xmlns:xlink="http://www.w3.org/1999/xlink" height="65.65mm" version="1.2" viewBox="0 0 120.8 65.65" width="120.8mm">
      
    <desc>Generated by the Chemistry Development Kit (http://github.com/cdk)</desc>
      
    <g fill="#FF0D0D" stroke="#000000" stroke-linecap="round" stroke-linejoin="round" stroke-width=".7">
            
        <rect fill="#FFFFFF" height="66.0" stroke="none" width="121.0" x=".0" y=".0"/>
            
        <g class="mol" id="mol1">
                  
            <line class="bond" id="mol1bnd1" x1="119.76" x2="106.56" y1="18.31" y2="25.93"/>
                  
            <line class="bond" id="mol1bnd2" x1="106.56" x2="93.36" y1="25.93" y2="18.32"/>
                  
            <line class="bond" id="mol1bnd3" x1="93.36" x2="80.16" y1="18.32" y2="25.94"/>
                  
            <line class="bond" id="mol1bnd4" x1="80.16" x2="66.97" y1="25.94" y2="18.32"/>
                  
            <g class="bond" id="mol1bnd5">
                        
                <line x1="65.75" x2="65.74" y1="19.03" y2="7.0"/>
                        
                <line x1="68.18" x2="68.18" y1="19.02" y2="7.0"/>
                      
                <line class="hi" stroke="#FF0D0D" x1="65.74" x2="65.745" y1="7.0" y2="13.015"/>
                <line class="hi" stroke="#FF0D0D" x1="68.18" x2="68.18" y1="7.0" y2="13.01"/>
            </g>
                  
            <line class="bond" id="mol1bnd6" x1="66.97" x2="53.77" y1="18.32" y2="25.94"/>
                  
            <g class="bond" id="mol1bnd7">
                        
                <line x1="53.77" x2="40.56" y1="25.94" y2="18.32"/>
                        
                <line x1="51.33" x2="40.57" y1="27.35" y2="21.14"/>
                      
            </g>
                  
            <line class="bond" id="mol1bnd8" x1="40.56" x2="27.45" y1="18.32" y2="25.94"/>
                  
            <g class="bond" id="mol1bnd9">
                        
                <line x1="27.45" x2="14.25" y1="25.94" y2="18.32"/>
                        
                <line x1="25.02" x2="14.25" y1="27.35" y2="21.14"/>
                      
            </g>
                  
            <line class="bond" id="mol1bnd10" x1="14.25" x2="1.04" y1="18.32" y2="25.94"/>
                  
            <g class="bond" id="mol1bnd11">
                        
                <line x1="1.04" x2="1.04" y1="25.94" y2="41.18"/>
                        
                <line x1="3.48" x2="3.48" y1="27.35" y2="39.77"/>
                      
            </g>
                  
            <line class="bond" id="mol1bnd12" x1="1.04" x2="14.25" y1="41.18" y2="48.8"/>
                  
            <g class="bond" id="mol1bnd13">
                        
                <line x1="14.25" x2="27.45" y1="48.8" y2="41.18"/>
                        
                <line x1="14.25" x2="25.02" y1="45.99" y2="39.77"/>
                      
            </g>
                  
            <line class="bond" id="mol1bnd14" x1="27.45" x2="27.45" y1="25.94" y2="41.18"/>
                  
            <line class="bond" id="mol1bnd15" x1="27.45" x2="40.56" y1="41.18" y2="48.8"/>
                  
            <g class="bond" id="mol1bnd16">
                        
                <line x1="40.56" x2="53.77" y1="48.8" y2="41.18"/>
                        
                <line x1="40.57" x2="51.33" y1="45.99" y2="39.77"/>
                      
            </g>
                  
            <line class="bond" id="mol1bnd17" x1="53.77" x2="53.77" y1="25.94" y2="41.18"/>
                  
            <line class="bond" id="mol1bnd18" x1="80.16" x2="80.17" y1="25.94" y2="37.33"/>
                  
            <line class="bond" id="mol1bnd19" x1="83.24" x2="92.46" y1="43.41" y2="50.12"/>
                  
            <line class="bond" id="mol1bnd20" x1="92.46" x2="87.79" y1="50.12" y2="64.65"/>
                  
            <line class="bond" id="mol1bnd21" x1="87.79" x2="72.55" y1="64.65" y2="64.65"/>
                  
            <line class="bond" id="mol1bnd22" x1="72.55" x2="67.88" y1="64.65" y2="50.12"/>
                  
            <line class="bond" id="mol1bnd23" x1="77.09" x2="67.88" y1="43.41" y2="50.12"/>
                  
            <path class="atom" d="M69.22 3.08q.0 .76 -.26 1.33q-.26 .57 -.76 .88q-.5 .32 -1.24 .32q-.76 .0 -1.26 -.32q-.51 -.32 -.76 -.89q-.24 -.57 -.24 -1.33q.0 -.75 .24 -1.31q.25 -.57 .76 -.88q.51 -.32 1.27 -.32q.73 .0 1.23 .32q.5 .31 .76 .88q.26 .57 .26 1.33zM65.36 3.08q.0 .92 .39 1.46q.39 .53 1.22 .53q.84 .0 1.22 -.53q.39 -.54 .39 -1.46q.0 -.93 -.39 -1.45q-.38 -.52 -1.21 -.52q-.83 .0 -1.23 .52q-.39 .52 -.39 1.45z" id="mol1atm6" stroke="none"/>
                  
            <path class="atom" d="M82.11 43.63h-.72l-2.62 -4.07h-.03q.01 .24 .03 .6q.02 .36 .02 .73v2.74h-.57v-4.9h.71l2.61 4.05h.03q-.01 -.11 -.02 -.33q-.01 -.22 -.02 -.48q-.01 -.26 -.01 -.48v-2.77h.58v4.9z" fill="#3050F8" id="mol1atm17" stroke="none"/>
                
            <line class="hi" id="mol1bnd18" stroke="#3050F8" x1="80.17" x2="80.16499999999999" y1="37.33" y2="31.634999999999998"/>
            <line class="hi" id="mol1bnd19" stroke="#3050F8" x1="83.24" x2="87.85" y1="43.41" y2="46.765"/>
            <line class="hi" id="mol1bnd23" stroke="#3050F8" x1="77.09" x2="72.485" y1="43.41" y2="46.765"/>
        </g>
          
    </g>
    
</svg>
