<svg xmlns="http://www.w3.org/2000/svg" xmlns:xlink="http://www.w3.org/1999/xlink" height="49.72mm" version="1.2" viewBox="0 0 126.99 49.72" width="126.99mm">
      
    <desc>Generated by the Chemistry Development Kit (http://github.com/cdk)</desc>
      
    <g fill="#FF0D0D" stroke="#000000" stroke-linecap="round" stroke-linejoin="round" stroke-width=".7">
            
        <rect fill="#FFFFFF" height="50.0" stroke="none" width="127.0" x=".0" y=".0"/>
            
        <g class="mol" id="mol1">
                  
            <g class="bond" id="mol1bnd1">
                        
                <line x1="93.11" x2="93.81" y1="16.15" y2="16.15"/>
                        
                <line x1="92.86" x2="94.06" y1="13.97" y2="13.97"/>
                        
                <line x1="92.61" x2="94.31" y1="11.8" y2="11.8"/>
                        
                <line x1="92.36" x2="94.56" y1="9.62" y2="9.62"/>
                        
                <line x1="92.11" x2="94.81" y1="7.44" y2="7.44"/>
                        
                <line x1="91.86" x2="95.06" y1="5.26" y2="5.26"/>
                        
                <line x1="91.61" x2="95.31" y1="3.09" y2="3.09"/>
                        
                <line x1="91.36" x2="95.56" y1=".91" y2=".91"/>
                      
            </g>
                  
            <line class="bond" id="mol1bnd2" x1="93.46" x2="80.27" y1="16.15" y2="23.77"/>
                  
            <g class="bond" id="mol1bnd3">
                        
                <line x1="80.27" x2="67.06" y1="23.77" y2="16.15"/>
                        
                <line x1="77.83" x2="67.06" y1="25.18" y2="18.97"/>
                      
            </g>
                  
            <line class="bond" id="mol1bnd4" x1="67.06" x2="53.85" y1="16.15" y2="23.77"/>
                  
            <g class="bond" id="mol1bnd5">
                        
                <line x1="53.85" x2="53.85" y1="23.77" y2="39.01"/>
                        
                <line x1="56.29" x2="56.29" y1="25.18" y2="37.6"/>
                      
            </g>
                  
            <line class="bond" id="mol1bnd6" x1="53.85" x2="67.06" y1="39.01" y2="46.63"/>
                  
            <g class="bond" id="mol1bnd7">
                        
                <line x1="67.06" x2="80.27" y1="46.63" y2="39.01"/>
                        
                <line x1="67.06" x2="77.83" y1="43.82" y2="37.6"/>
                      
            </g>
                  
            <line class="bond" id="mol1bnd8" x1="80.27" x2="80.27" y1="23.77" y2="39.01"/>
                  
            <line class="bond" id="mol1bnd9" x1="53.85" x2="40.64" y1="39.01" y2="46.63"/>
                  
            <g class="bond" id="mol1bnd10">
                        
                <line x1="27.43" x2="40.64" y1="39.01" y2="46.63"/>
                        
                <line x1="29.87" x2="40.64" y1="37.6" y2="43.82"/>
                      
            </g>
                  
            <line class="bond" id="mol1bnd11" x1="27.43" x2="27.43" y1="39.01" y2="23.77"/>
                  
            <g class="bond" id="mol1bnd12">
                        
                <line x1="40.64" x2="27.43" y1="16.15" y2="23.77"/>
                        
                <line x1="40.64" x2="29.87" y1="18.97" y2="25.18"/>
                      
            </g>
                  
            <line class="bond" id="mol1bnd13" x1="53.85" x2="40.64" y1="23.77" y2="16.15"/>
                  
            <line class="bond" id="mol1bnd14" x1="27.43" x2="17.52" y1="39.01" y2="44.74"/>
                  
            <line class="bond" id="mol1bnd15" x1="10.95" x2="1.04" y1="44.74" y2="39.02"/>
                  
            <line class="bond" id="mol1bnd16" x1="93.46" x2="106.66" y1="16.15" y2="23.77"/>
                  
            <g class="bond" id="mol1bnd17">
                        
                <line x1="107.88" x2="107.88" y1="23.06" y2="35.09"/>
                        
                <line x1="105.44" x2="105.45" y1="23.06" y2="35.09"/>
                      
                <line class="hi" stroke="#FF0D0D" x1="107.88" x2="107.88" y1="35.09" y2="29.075000000000003"/>
                <line class="hi" stroke="#FF0D0D" x1="105.45" x2="105.445" y1="35.09" y2="29.075000000000003"/>
            </g>
                  
            <line class="bond" id="mol1bnd18" x1="106.66" x2="116.58" y1="23.77" y2="18.04"/>
                  
            <path class="atom" d="M16.5 46.63q.0 .76 -.26 1.33q-.26 .57 -.76 .88q-.5 .32 -1.24 .32q-.76 .0 -1.26 -.32q-.51 -.32 -.76 -.89q-.24 -.57 -.24 -1.33q.0 -.75 .24 -1.31q.25 -.57 .76 -.88q.51 -.32 1.27 -.32q.73 .0 1.23 .32q.5 .31 .76 .88q.26 .57 .26 1.33zM12.63 46.63q.0 .92 .39 1.46q.39 .53 1.22 .53q.84 .0 1.22 -.53q.39 -.54 .39 -1.46q.0 -.93 -.39 -1.45q-.38 -.52 -1.21 -.52q-.83 .0 -1.23 .52q-.39 .52 -.39 1.45z" id="mol1atm13" stroke="none"/>
                  
            <path class="atom" d="M108.92 39.01q.0 .76 -.26 1.33q-.26 .57 -.76 .88q-.5 .32 -1.24 .32q-.76 .0 -1.26 -.32q-.51 -.32 -.76 -.89q-.24 -.57 -.24 -1.33q.0 -.75 .24 -1.31q.25 -.57 .76 -.88q.51 -.32 1.27 -.32q.73 .0 1.23 .32q.5 .31 .76 .88q.26 .57 .26 1.33zM105.06 39.01q.0 .92 .39 1.46q.39 .53 1.22 .53q.84 .0 1.22 -.53q.39 -.54 .39 -1.46q.0 -.93 -.39 -1.45q-.38 -.52 -1.21 -.52q-.83 .0 -1.23 .52q-.39 .52 -.39 1.45z" id="mol1atm16" stroke="none"/>
                  
            <g class="atom" id="mol1atm17">
                        
                <path d="M122.12 16.14q.0 .76 -.26 1.33q-.26 .57 -.76 .88q-.5 .32 -1.24 .32q-.76 .0 -1.26 -.32q-.51 -.32 -.76 -.89q-.24 -.57 -.24 -1.33q.0 -.75 .24 -1.31q.25 -.57 .76 -.88q.51 -.32 1.27 -.32q.73 .0 1.23 .32q.5 .31 .76 .88q.26 .57 .26 1.33zM118.26 16.14q.0 .92 .39 1.46q.39 .53 1.22 .53q.84 .0 1.22 -.53q.39 -.54 .39 -1.46q.0 -.93 -.39 -1.45q-.38 -.52 -1.21 -.52q-.83 .0 -1.23 .52q-.39 .52 -.39 1.45z" stroke="none"/>
                        
                <path d="M126.43 18.6h-.62v-2.29h-2.51v2.29h-.61v-4.9h.61v2.07h2.51v-2.07h.62v4.9z" stroke="none"/>
                      
            </g>
                
            <line class="hi" id="mol1bnd14" stroke="#FF0D0D" x1="17.52" x2="22.475" y1="44.74" y2="41.875"/>
            <line class="hi" id="mol1bnd15" stroke="#FF0D0D" x1="10.95" x2="5.994999999999999" y1="44.74" y2="41.88"/>
            <line class="hi" id="mol1bnd18" stroke="#FF0D0D" x1="116.58" x2="111.62" y1="18.04" y2="20.905"/>
        </g>
          
    </g>
    
</svg>
