<svg xmlns="http://www.w3.org/2000/svg" xmlns:xlink="http://www.w3.org/1999/xlink" height="59.93mm" version="1.2" viewBox="0 0 65.86 59.93" width="65.86mm">
      
    <desc>Generated by the Chemistry Development Kit (http://github.com/cdk)</desc>
      
    <g fill="#3050F8" stroke="#000000" stroke-linecap="round" stroke-linejoin="round" stroke-width=".7">
            
        <rect fill="#FFFFFF" height="60.0" stroke="none" width="66.0" x=".0" y=".0"/>
            
        <g class="mol" id="mol1">
                  
            <g class="bond" id="mol1bnd1">
                        
                <line x1="1.04" x2="11.09" y1="49.3" y2="55.1"/>
                        
                <line x1="3.48" x2="12.3" y1="47.89" y2="52.99"/>
                      
                <line class="hi" stroke="#3050F8" x1="11.09" x2="6.0649999999999995" y1="55.1" y2="52.2"/>
                <line class="hi" stroke="#3050F8" x1="12.3" x2="7.890000000000001" y1="52.99" y2="50.44"/>
            </g>
                  
            <line class="bond" id="mol1bnd2" x1="1.04" x2="1.04" y1="49.3" y2="34.07"/>
                  
            <g class="bond" id="mol1bnd3">
                        
                <line x1="14.24" x2="1.04" y1="26.45" y2="34.07"/>
                        
                <line x1="14.24" x2="3.48" y1="29.27" y2="35.48"/>
                      
            </g>
                  
            <line class="bond" id="mol1bnd4" x1="14.24" x2="27.44" y1="26.45" y2="34.07"/>
                  
            <g class="bond" id="mol1bnd5">
                        
                <line x1="27.44" x2="27.44" y1="49.3" y2="34.07"/>
                        
                <line x1="25.0" x2="25.0" y1="47.89" y2="35.48"/>
                      
            </g>
                  
            <line class="bond" id="mol1bnd6" x1="17.39" x2="27.44" y1="55.1" y2="49.3"/>
                  
            <line class="bond" id="mol1bnd7" x1="27.44" x2="40.63" y1="34.07" y2="26.45"/>
                  
            <line class="bond" id="mol1bnd8" x1="40.63" x2="41.86" y1="26.45" y2="15.11"/>
                  
            <line class="bond" id="mol1bnd9" x1="39.3" x2="30.97" y1="8.57" y2="1.05"/>
                  
            <line class="bond" id="mol1bnd10" x1="45.59" x2="57.14" y1="10.56" y2="8.11"/>
                  
            <line class="bond" id="mol1bnd11" x1="57.14" x2="64.8" y1="8.11" y2="21.3"/>
                  
            <line class="bond" id="mol1bnd12" x1="64.8" x2="54.61" y1="21.3" y2="32.62"/>
                  
            <line class="bond" id="mol1bnd13" x1="40.63" x2="54.61" y1="26.45" y2="32.62"/>
                  
            <path class="atom" d="M16.18 59.37h-.72l-2.62 -4.07h-.03q.01 .24 .03 .6q.02 .36 .02 .73v2.74h-.57v-4.9h.71l2.61 4.05h.03q-.01 -.11 -.02 -.33q-.01 -.22 -.02 -.48q-.01 -.26 -.01 -.48v-2.77h.58v4.9z" id="mol1atm1" stroke="none"/>
                  
            <path class="atom" d="M44.22 13.72h-.72l-2.62 -4.07h-.03q.01 .24 .03 .6q.02 .36 .02 .73v2.74h-.57v-4.9h.71l2.61 4.05h.03q-.01 -.11 -.02 -.33q-.01 -.22 -.02 -.48q-.01 -.26 -.01 -.48v-2.77h.58v4.9z" id="mol1atm8" stroke="none"/>
                
            <line class="hi" id="mol1bnd6" stroke="#3050F8" x1="17.39" x2="22.415" y1="55.1" y2="52.2"/>
            <line class="hi" id="mol1bnd8" stroke="#3050F8" x1="41.86" x2="41.245000000000005" y1="15.11" y2="20.78"/>
            <line class="hi" id="mol1bnd9" stroke="#3050F8" x1="39.3" x2="35.135" y1="8.57" y2="4.8100000000000005"/>
            <line class="hi" id="mol1bnd10" stroke="#3050F8" x1="45.59" x2="51.365" y1="10.56" y2="9.335"/>
        </g>
          
    </g>
    
</svg>
