<svg xmlns="http://www.w3.org/2000/svg" xmlns:xlink="http://www.w3.org/1999/xlink" height="91.48mm" version="1.2" viewBox="0 0 111.32 91.48" width="111.32mm">
      
    <desc>Generated by the Chemistry Development Kit (http://github.com/cdk)</desc>
      
    <g fill="#FF0D0D" stroke="#000000" stroke-linecap="round" stroke-linejoin="round" stroke-width=".7">
            
        <rect fill="#FFFFFF" height="92.0" stroke="none" width="112.0" x=".0" y=".0"/>
            
        <g class="mol" id="mol1">
                  
            <g class="bond" id="mol1bnd1">
                        
                <line x1="65.08" x2="54.01" y1="11.41" y2="1.05"/>
                        
                <line x1="62.39" x2="53.37" y1="12.24" y2="3.8"/>
                      
            </g>
                  
            <line class="bond" id="mol1bnd2" x1="54.01" x2="39.43" y1="1.05" y2="5.53"/>
                  
            <g class="bond" id="mol1bnd3">
                        
                <line x1="39.43" x2="36.02" y1="5.53" y2="20.38"/>
                        
                <line x1="41.49" x2="38.71" y1="7.44" y2="19.55"/>
                      
            </g>
                  
            <line class="bond" id="mol1bnd4" x1="36.02" x2="47.19" y1="20.38" y2="30.76"/>
                  
            <g class="bond" id="mol1bnd5">
                        
                <line x1="47.19" x2="61.67" y1="30.76" y2="26.27"/>
                        
                <line x1="47.81" x2="59.61" y1="28.01" y2="24.35"/>
                      
            </g>
                  
            <line class="bond" id="mol1bnd6" x1="65.08" x2="61.67" y1="11.41" y2="26.27"/>
                  
            <line class="bond" id="mol1bnd7" x1="47.19" x2="43.8" y1="30.76" y2="45.62"/>
                  
            <g class="bond" id="mol1bnd8">
                        
                <line x1="43.8" x2="32.27" y1="45.62" y2="48.31"/>
                        
                <line x1="43.2" x2="32.83" y1="48.26" y2="50.68"/>
                      
                <line class="hi" stroke="#3050F8" x1="32.27" x2="38.035" y1="48.31" y2="46.965"/>
                <line class="hi" stroke="#3050F8" x1="32.83" x2="38.015" y1="50.68" y2="49.47"/>
            </g>
                  
            <line class="bond" id="mol1bnd9" x1="27.18" x2="22.37" y1="52.79" y2="62.79"/>
                  
            <line class="bond" id="mol1bnd10" x1="22.37" x2="28.97" y1="62.79" y2="76.51"/>
                  
            <g class="bond" id="mol1bnd11">
                        
                <line x1="30.29" x2="22.86" y1="76.81" y2="86.08"/>
                        
                <line x1="28.38" x2="20.96" y1="75.29" y2="84.56"/>
                      
                <line class="hi" stroke="#FF0D0D" x1="22.86" x2="26.575" y1="86.08" y2="81.445"/>
                <line class="hi" stroke="#FF0D0D" x1="20.96" x2="24.67" y1="84.56" y2="79.92500000000001"/>
            </g>
                  
            <line class="bond" id="mol1bnd12" x1="28.97" x2="40.5" y1="76.51" y2="79.19"/>
                  
            <line class="bond" id="mol1bnd13" x1="46.84" x2="55.69" y1="77.53" y2="70.41"/>
                  
            <g class="bond" id="mol1bnd14">
                        
                <line x1="55.69" x2="55.69" y1="55.17" y2="70.41"/>
                        
                <line x1="58.13" x2="58.13" y1="56.58" y2="69.0"/>
                      
            </g>
                  
            <line class="bond" id="mol1bnd15" x1="43.8" x2="55.69" y1="45.62" y2="55.17"/>
                  
            <line class="bond" id="mol1bnd16" x1="55.69" x2="68.9" y1="55.17" y2="47.55"/>
                  
            <g class="bond" id="mol1bnd17">
                        
                <line x1="82.11" x2="68.9" y1="55.17" y2="47.55"/>
                        
                <line x1="79.67" x2="68.9" y1="56.58" y2="50.37"/>
                      
            </g>
                  
            <line class="bond" id="mol1bnd18" x1="82.11" x2="82.11" y1="55.17" y2="70.41"/>
                  
            <g class="bond" id="mol1bnd19">
                        
                <line x1="68.9" x2="82.11" y1="78.03" y2="70.41"/>
                        
                <line x1="68.9" x2="79.67" y1="75.22" y2="69.0"/>
                      
            </g>
                  
            <line class="bond" id="mol1bnd20" x1="55.69" x2="68.9" y1="70.41" y2="78.03"/>
                  
            <line class="bond" id="mol1bnd21" x1="82.11" x2="92.15" y1="55.17" y2="49.37"/>
                  
            <g class="bond" id="mol1bnd22">
                        
                <line x1="99.6" x2="105.83" y1="48.62" y2="52.22"/>
                        
                <line x1="98.38" x2="104.61" y1="50.73" y2="54.33"/>
                      
                <line class="hi" stroke="#3050F8" x1="99.6" x2="102.715" y1="48.62" y2="50.42"/>
                <line class="hi" stroke="#3050F8" x1="99.6" x2="102.715" y1="48.62" y2="50.42"/>
                <line class="hi" stroke="#FF0D0D" x1="105.83" x2="102.715" y1="52.22" y2="50.42"/>
                <line class="hi" stroke="#3050F8" x1="98.38" x2="101.495" y1="50.73" y2="52.53"/>
                <line class="hi" stroke="#3050F8" x1="98.38" x2="101.495" y1="50.73" y2="52.53"/>
                <line class="hi" stroke="#FF0D0D" x1="104.61" x2="101.495" y1="54.33" y2="52.53"/>
            </g>
                  
            <line class="bond" id="mol1bnd23" x1="95.3" x2="95.3" y1="43.33" y2="36.23"/>
                  
            <line class="bond" id="mol1bnd24" x1="22.37" x2="10.78" y1="62.79" y2="62.79"/>
                  
            <line class="bond" id="mol1bnd25" x1="36.02" x2="24.07" y1="20.38" y2="24.05"/>
                  
            <path class="atom" d="M30.91 51.53h-.72l-2.62 -4.07h-.03q.01 .24 .03 .6q.02 .36 .02 .73v2.74h-.57v-4.9h.71l2.61 4.05h.03q-.01 -.11 -.02 -.33q-.01 -.22 -.02 -.48q-.01 -.26 -.01 -.48v-2.77h.58v4.9z" fill="#3050F8" id="mol1atm8" stroke="none"/>
                  
            <path class="atom" d="M21.7 88.4q.0 .76 -.26 1.33q-.26 .57 -.76 .88q-.5 .32 -1.24 .32q-.76 .0 -1.26 -.32q-.51 -.32 -.76 -.89q-.24 -.57 -.24 -1.33q.0 -.75 .24 -1.31q.25 -.57 .76 -.88q.51 -.32 1.27 -.32q.73 .0 1.23 .32q.5 .31 .76 .88q.26 .57 .26 1.33zM17.84 88.4q.0 .92 .39 1.46q.39 .53 1.22 .53q.84 .0 1.22 -.53q.39 -.54 .39 -1.46q.0 -.93 -.39 -1.45q-.38 -.52 -1.21 -.52q-.83 .0 -1.23 .52q-.39 .52 -.39 1.45z" id="mol1atm11" stroke="none"/>
                  
            <g class="atom" id="mol1atm12">
                        
                <path d="M45.74 82.41h-.72l-2.62 -4.07h-.03q.01 .24 .03 .6q.02 .36 .02 .73v2.74h-.57v-4.9h.71l2.61 4.05h.03q-.01 -.11 -.02 -.33q-.01 -.22 -.02 -.48q-.01 -.26 -.01 -.48v-2.77h.58v4.9z" fill="#3050F8" stroke="none"/>
                        
                <path d="M45.61 87.87h-.62v-2.29h-2.51v2.29h-.61v-4.9h.61v2.07h2.51v-2.07h.62v4.9z" fill="#3050F8" stroke="none"/>
                      
            </g>
                  
            <g class="atom" id="mol1atm19">
                        
                <path d="M97.24 50.0h-.72l-2.62 -4.07h-.03q.01 .24 .03 .6q.02 .36 .02 .73v2.74h-.57v-4.9h.71l2.61 4.05h.03q-.01 -.11 -.02 -.33q-.01 -.22 -.02 -.48q-.01 -.26 -.01 -.48v-2.77h.58v4.9z" fill="#3050F8" stroke="none"/>
                        
                <path d="M98.92 44.95h.82v.29h-.82v.85h-.3v-.85h-.82v-.29h.82v-.85h.3v.85z" fill="#3050F8" stroke="none"/>
                      
            </g>
                  
            <path class="atom" d="M110.76 55.16q.0 .76 -.26 1.33q-.26 .57 -.76 .88q-.5 .32 -1.24 .32q-.76 .0 -1.26 -.32q-.51 -.32 -.76 -.89q-.24 -.57 -.24 -1.33q.0 -.75 .24 -1.31q.25 -.57 .76 -.88q.51 -.32 1.27 -.32q.73 .0 1.23 .32q.5 .31 .76 .88q.26 .57 .26 1.33zM106.9 55.16q.0 .92 .39 1.46q.39 .53 1.22 .53q.84 .0 1.22 -.53q.39 -.54 .39 -1.46q.0 -.93 -.39 -1.45q-.38 -.52 -1.21 -.52q-.83 .0 -1.23 .52q-.39 .52 -.39 1.45z" id="mol1atm20" stroke="none"/>
                  
            <g class="atom" id="mol1atm21">
                        
                <path d="M97.56 32.31q.0 .76 -.26 1.33q-.26 .57 -.76 .88q-.5 .32 -1.24 .32q-.76 .0 -1.26 -.32q-.51 -.32 -.76 -.89q-.24 -.57 -.24 -1.33q.0 -.75 .24 -1.31q.25 -.57 .76 -.88q.51 -.32 1.27 -.32q.73 .0 1.23 .32q.5 .31 .76 .88q.26 .57 .26 1.33zM93.7 32.31q.0 .92 .39 1.46q.39 .53 1.22 .53q.84 .0 1.22 -.53q.39 -.54 .39 -1.46q.0 -.93 -.39 -1.45q-.38 -.52 -1.21 -.52q-.83 .0 -1.23 .52q-.39 .52 -.39 1.45z" stroke="none"/>
                        
                <path d="M100.05 29.64v.29h-1.93v-.29h1.93z" stroke="none"/>
                      
            </g>
                  
            <g class="atom" id="mol1atm22">
                        
                <path d="M9.38 62.79q.0 .76 -.26 1.33q-.26 .57 -.76 .88q-.5 .32 -1.24 .32q-.76 .0 -1.26 -.32q-.51 -.32 -.76 -.89q-.24 -.57 -.24 -1.33q.0 -.75 .24 -1.31q.25 -.57 .76 -.88q.51 -.32 1.27 -.32q.73 .0 1.23 .32q.5 .31 .76 .88q.26 .57 .26 1.33zM5.52 62.79q.0 .92 .39 1.46q.39 .53 1.22 .53q.84 .0 1.22 -.53q.39 -.54 .39 -1.46q.0 -.93 -.39 -1.45q-.38 -.52 -1.21 -.52q-.83 .0 -1.23 .52q-.39 .52 -.39 1.45z" stroke="none"/>
                        
                <path d="M4.3 65.24h-.62v-2.29h-2.51v2.29h-.61v-4.9h.61v2.07h2.51v-2.07h.62v4.9z" stroke="none"/>
                      
            </g>
                  
            <path class="atom" d="M20.7 27.3h-.61v-4.9h2.73v.54h-2.12v1.74h1.99v.54h-1.99v2.08z" fill="#90E050" id="mol1atm23" stroke="none"/>
                
            <line class="hi" id="mol1bnd9" stroke="#3050F8" x1="27.18" x2="24.775" y1="52.79" y2="57.79"/>
            <line class="hi" id="mol1bnd12" stroke="#3050F8" x1="40.5" x2="34.735" y1="79.19" y2="77.85"/>
            <line class="hi" id="mol1bnd13" stroke="#3050F8" x1="46.84" x2="51.265" y1="77.53" y2="73.97"/>
            <line class="hi" id="mol1bnd21" stroke="#3050F8" x1="92.15" x2="87.13" y1="49.37" y2="52.269999999999996"/>
            <line class="hi" id="mol1bnd23" stroke="#3050F8" x1="95.3" x2="95.3" y1="43.33" y2="39.78"/>
            <line class="hi" id="mol1bnd23" stroke="#3050F8" x1="95.3" x2="95.3" y1="43.33" y2="39.78"/>
            <line class="hi" id="mol1bnd23" stroke="#FF0D0D" x1="95.3" x2="95.3" y1="36.23" y2="39.78"/>
            <line class="hi" id="mol1bnd24" stroke="#FF0D0D" x1="10.78" x2="16.575" y1="62.79" y2="62.79"/>
            <line class="hi" id="mol1bnd24" stroke="#FF0D0D" x1="10.78" x2="16.575" y1="62.79" y2="62.79"/>
            <line class="hi" id="mol1bnd25" stroke="#90E050" x1="24.07" x2="30.045" y1="24.05" y2="22.215"/>
        </g>
          
    </g>
    
</svg>
