<svg xmlns="http://www.w3.org/2000/svg" xmlns:xlink="http://www.w3.org/1999/xlink" height="67.27mm" version="1.2" viewBox="0 0 162.26 67.27" width="162.26mm">
      
    <desc>Generated by the Chemistry Development Kit (http://github.com/cdk)</desc>
      
    <g fill="#FF0D0D" stroke="#000000" stroke-linecap="round" stroke-linejoin="round" stroke-width=".7">
            
        <rect fill="#FFFFFF" height="68.0" stroke="none" width="163.0" x=".0" y=".0"/>
            
        <g class="mol" id="mol1">
                  
            <line class="bond" id="mol1bnd1" x1="161.22" x2="148.02" y1="41.35" y2="48.96"/>
                  
            <line class="bond" id="mol1bnd2" x1="148.02" x2="137.97" y1="48.96" y2="43.16"/>
                  
            <line class="bond" id="mol1bnd3" x1="134.82" x2="134.82" y1="37.49" y2="26.1"/>
                  
            <line class="bond" id="mol1bnd4" x1="134.82" x2="148.02" y1="26.1" y2="18.48"/>
                  
            <line class="bond" id="mol1bnd5" x1="131.67" x2="121.62" y1="43.16" y2="48.96"/>
                  
            <line class="bond" id="mol1bnd6" x1="121.62" x2="108.42" y1="48.96" y2="41.34"/>
                  
            <line class="bond" id="mol1bnd7" x1="108.42" x2="118.22" y1="41.34" y2="29.67"/>
                  
            <line class="bond" id="mol1bnd8" x1="108.42" x2="98.63" y1="41.34" y2="29.66"/>
                  
            <line class="bond" id="mol1bnd9" x1="108.42" x2="95.23" y1="41.34" y2="48.96"/>
                  
            <line class="bond" id="mol1bnd10" x1="95.23" x2="85.3" y1="48.96" y2="43.23"/>
                  
            <line class="bond" id="mol1bnd11" x1="78.75" x2="68.83" y1="43.23" y2="48.95"/>
                  
            <g class="bond" id="mol1bnd12">
                        
                <line x1="70.05" x2="70.05" y1="48.25" y2="60.27"/>
                        
                <line x1="67.61" x2="67.61" y1="48.25" y2="60.27"/>
                      
                <line class="hi" stroke="#FF0D0D" x1="70.05" x2="70.05" y1="60.27" y2="54.260000000000005"/>
                <line class="hi" stroke="#FF0D0D" x1="67.61" x2="67.61" y1="60.27" y2="54.260000000000005"/>
            </g>
                  
            <line class="bond" id="mol1bnd13" x1="68.83" x2="55.63" y1="48.95" y2="41.33"/>
                  
            <g class="bond" id="mol1bnd14">
                        
                <line x1="55.63" x2="55.63" y1="41.33" y2="26.09"/>
                        
                <line x1="53.19" x2="53.19" y1="39.92" y2="27.5"/>
                      
            </g>
                  
            <line class="bond" id="mol1bnd15" x1="55.63" x2="42.42" y1="26.09" y2="18.47"/>
                  
            <g class="bond" id="mol1bnd16">
                        
                <line x1="42.42" x2="29.22" y1="18.47" y2="26.09"/>
                        
                <line x1="42.42" x2="31.65" y1="21.28" y2="27.5"/>
                      
            </g>
                  
            <line class="bond" id="mol1bnd17" x1="29.22" x2="29.22" y1="26.09" y2="41.33"/>
                  
            <g class="bond" id="mol1bnd18">
                        
                <line x1="29.22" x2="42.42" y1="41.33" y2="48.95"/>
                        
                <line x1="31.65" x2="42.42" y1="39.92" y2="46.13"/>
                      
            </g>
                  
            <line class="bond" id="mol1bnd19" x1="55.63" x2="42.42" y1="41.33" y2="48.95"/>
                  
            <line class="bond" id="mol1bnd20" x1="29.22" x2="19.71" y1="26.09" y2="20.6"/>
                  
            <g class="bond" id="mol1bnd21">
                        
                <line x1="13.47" x2="6.71" y1="21.34" y2="25.25"/>
                        
                <line x1="12.26" x2="5.49" y1="19.23" y2="23.14"/>
                      
                <line class="hi" stroke="#3050F8" x1="13.47" x2="10.09" y1="21.34" y2="23.295"/>
                <line class="hi" stroke="#FF0D0D" x1="6.71" x2="10.09" y1="25.25" y2="23.295"/>
                <line class="hi" stroke="#3050F8" x1="12.26" x2="8.875" y1="19.23" y2="21.185000000000002"/>
                <line class="hi" stroke="#FF0D0D" x1="5.49" x2="8.875" y1="23.14" y2="21.185000000000002"/>
            </g>
                  
            <line class="bond" id="mol1bnd22" x1="16.02" x2="16.02" y1="14.25" y2="7.15"/>
                  
            <path class="atom" d="M136.76 43.79h-.72l-2.62 -4.07h-.03q.01 .24 .03 .6q.02 .36 .02 .73v2.74h-.57v-4.9h.71l2.61 4.05h.03q-.01 -.11 -.02 -.33q-.01 -.22 -.02 -.48q-.01 -.26 -.01 -.48v-2.77h.58v4.9z" fill="#3050F8" id="mol1atm3" stroke="none"/>
                  
            <path class="atom" d="M84.29 41.33q.0 .76 -.26 1.33q-.26 .57 -.76 .88q-.5 .32 -1.24 .32q-.76 .0 -1.26 -.32q-.51 -.32 -.76 -.89q-.24 -.57 -.24 -1.33q.0 -.75 .24 -1.31q.25 -.57 .76 -.88q.51 -.32 1.27 -.32q.73 .0 1.23 .32q.5 .31 .76 .88q.26 .57 .26 1.33zM80.42 41.33q.0 .92 .39 1.46q.39 .53 1.22 .53q.84 .0 1.22 -.53q.39 -.54 .39 -1.46q.0 -.93 -.39 -1.45q-.38 -.52 -1.21 -.52q-.83 .0 -1.23 .52q-.39 .52 -.39 1.45z" id="mol1atm11" stroke="none"/>
                  
            <path class="atom" d="M71.09 64.19q.0 .76 -.26 1.33q-.26 .57 -.76 .88q-.5 .32 -1.24 .32q-.76 .0 -1.26 -.32q-.51 -.32 -.76 -.89q-.24 -.57 -.24 -1.33q.0 -.75 .24 -1.31q.25 -.57 .76 -.88q.51 -.32 1.27 -.32q.73 .0 1.23 .32q.5 .31 .76 .88q.26 .57 .26 1.33zM67.22 64.19q.0 .92 .39 1.46q.39 .53 1.22 .53q.84 .0 1.22 -.53q.39 -.54 .39 -1.46q.0 -.93 -.39 -1.45q-.38 -.52 -1.21 -.52q-.83 .0 -1.23 .52q-.39 .52 -.39 1.45z" id="mol1atm13" stroke="none"/>
                  
            <g class="atom" id="mol1atm20">
                        
                <path d="M17.96 20.92h-.72l-2.62 -4.07h-.03q.01 .24 .03 .6q.02 .36 .02 .73v2.74h-.57v-4.9h.71l2.61 4.05h.03q-.01 -.11 -.02 -.33q-.01 -.22 -.02 -.48q-.01 -.26 -.01 -.48v-2.77h.58v4.9z" fill="#3050F8" stroke="none"/>
                        
                <path d="M19.64 15.87h.82v.29h-.82v.85h-.3v-.85h-.82v-.29h.82v-.85h.3v.85z" fill="#3050F8" stroke="none"/>
                      
            </g>
                  
            <path class="atom" d="M5.08 26.08q.0 .76 -.26 1.33q-.26 .57 -.76 .88q-.5 .32 -1.24 .32q-.76 .0 -1.26 -.32q-.51 -.32 -.76 -.89q-.24 -.57 -.24 -1.33q.0 -.75 .24 -1.31q.25 -.57 .76 -.88q.51 -.32 1.27 -.32q.73 .0 1.23 .32q.5 .31 .76 .88q.26 .57 .26 1.33zM1.21 26.08q.0 .92 .39 1.46q.39 .53 1.22 .53q.84 .0 1.22 -.53q.39 -.54 .39 -1.46q.0 -.93 -.39 -1.45q-.38 -.52 -1.21 -.52q-.83 .0 -1.23 .52q-.39 .52 -.39 1.45z" id="mol1atm21" stroke="none"/>
                  
            <g class="atom" id="mol1atm22">
                        
                <path d="M18.28 3.22q.0 .76 -.26 1.33q-.26 .57 -.76 .88q-.5 .32 -1.24 .32q-.76 .0 -1.26 -.32q-.51 -.32 -.76 -.89q-.24 -.57 -.24 -1.33q.0 -.75 .24 -1.31q.25 -.57 .76 -.88q.51 -.32 1.27 -.32q.73 .0 1.23 .32q.5 .31 .76 .88q.26 .57 .26 1.33zM14.42 3.22q.0 .92 .39 1.46q.39 .53 1.22 .53q.84 .0 1.22 -.53q.39 -.54 .39 -1.46q.0 -.93 -.39 -1.45q-.38 -.52 -1.21 -.52q-.83 .0 -1.23 .52q-.39 .52 -.39 1.45z" stroke="none"/>
                        
                <path d="M20.77 .56v.29h-1.93v-.29h1.93z" stroke="none"/>
                      
            </g>
                
            <line class="hi" id="mol1bnd2" stroke="#3050F8" x1="137.97" x2="142.995" y1="43.16" y2="46.06"/>
            <line class="hi" id="mol1bnd3" stroke="#3050F8" x1="134.82" x2="134.82" y1="37.49" y2="31.795"/>
            <line class="hi" id="mol1bnd5" stroke="#3050F8" x1="131.67" x2="126.645" y1="43.16" y2="46.06"/>
            <line class="hi" id="mol1bnd10" stroke="#FF0D0D" x1="85.3" x2="90.265" y1="43.23" y2="46.095"/>
            <line class="hi" id="mol1bnd11" stroke="#FF0D0D" x1="78.75" x2="73.78999999999999" y1="43.23" y2="46.09"/>
            <line class="hi" id="mol1bnd20" stroke="#3050F8" x1="19.71" x2="24.465" y1="20.6" y2="23.345"/>
            <line class="hi" id="mol1bnd20" stroke="#3050F8" x1="19.71" x2="24.465" y1="20.6" y2="23.345"/>
            <line class="hi" id="mol1bnd22" stroke="#3050F8" x1="16.02" x2="16.02" y1="14.25" y2="10.7"/>
            <line class="hi" id="mol1bnd22" stroke="#3050F8" x1="16.02" x2="16.02" y1="14.25" y2="10.7"/>
            <line class="hi" id="mol1bnd22" stroke="#FF0D0D" x1="16.02" x2="16.02" y1="7.15" y2="10.7"/>
        </g>
          
    </g>
    
</svg>
