<svg xmlns="http://www.w3.org/2000/svg" xmlns:xlink="http://www.w3.org/1999/xlink" height="36.89mm" version="1.2" viewBox="0 0 49.04 36.89" width="49.04mm">
      
    <desc>Generated by the Chemistry Development Kit (http://github.com/cdk)</desc>
      
    <g fill="#FF0D0D" stroke="#000000" stroke-linecap="round" stroke-linejoin="round" stroke-width=".7">
            
        <rect fill="#FFFFFF" height="37.0" stroke="none" width="50.0" x=".0" y=".0"/>
            
        <g class="mol" id="mol1">
                  
            <line class="bond" id="mol1bnd1" x1="14.75" x2="29.99" y1="18.57" y2="18.57"/>
                  
            <line class="bond" id="mol1bnd2" x1="29.99" x2="29.99" y1="18.57" y2="7.25"/>
                  
            <line class="bond" id="mol1bnd3" x1="29.99" x2="29.99" y1="18.57" y2="29.87"/>
                  
            <line class="bond" id="mol1bnd4" x1="29.99" x2="41.97" y1="18.57" y2="18.57"/>
                  
            <line class="bond" id="mol1bnd5" x1="14.75" x2="9.09" y1="18.57" y2="28.36"/>
                  
            <line class="bond" id="mol1bnd6" x1="14.75" x2="9.09" y1="18.57" y2="8.78"/>
                  
            <path class="atom" d="M30.48 1.35q-.79 .0 -1.24 .53q-.45 .52 -.45 1.45q.0 .91 .42 1.45q.42 .53 1.27 .53q.32 .0 .61 -.05q.29 -.06 .57 -.14v.54q-.27 .1 -.57 .15q-.29 .05 -.7 .05q-.74 .0 -1.25 -.31q-.5 -.31 -.75 -.88q-.25 -.57 -.25 -1.34q.0 -.74 .27 -1.31q.27 -.57 .8 -.88q.53 -.32 1.28 -.32q.78 .0 1.35 .29l-.24 .52q-.23 -.1 -.51 -.18q-.27 -.08 -.61 -.08zM33.24 5.77h-.6v-5.21h.6v5.21z" fill="#1FF01F" id="mol1atm3" stroke="none"/>
                  
            <path class="atom" d="M30.48 31.83q-.79 .0 -1.24 .53q-.45 .52 -.45 1.45q.0 .91 .42 1.45q.42 .53 1.27 .53q.32 .0 .61 -.05q.29 -.06 .57 -.14v.54q-.27 .1 -.57 .15q-.29 .05 -.7 .05q-.74 .0 -1.25 -.31q-.5 -.31 -.75 -.88q-.25 -.57 -.25 -1.34q.0 -.74 .27 -1.31q.27 -.57 .8 -.88q.53 -.32 1.28 -.32q.78 .0 1.35 .29l-.24 .52q-.23 -.1 -.51 -.18q-.27 -.08 -.61 -.08zM33.24 36.25h-.6v-5.21h.6v5.21z" fill="#1FF01F" id="mol1atm4" stroke="none"/>
                  
            <path class="atom" d="M45.72 16.59q-.79 .0 -1.24 .53q-.45 .52 -.45 1.45q.0 .91 .42 1.45q.42 .53 1.27 .53q.32 .0 .61 -.05q.29 -.06 .57 -.14v.54q-.27 .1 -.57 .15q-.29 .05 -.7 .05q-.74 .0 -1.25 -.31q-.5 -.31 -.75 -.88q-.25 -.57 -.25 -1.34q.0 -.74 .27 -1.31q.27 -.57 .8 -.88q.53 -.32 1.28 -.32q.78 .0 1.35 .29l-.24 .52q-.23 -.1 -.51 -.18q-.27 -.08 -.61 -.08zM48.48 21.01h-.6v-5.21h.6v5.21z" fill="#1FF01F" id="mol1atm5" stroke="none"/>
                  
            <g class="atom" id="mol1atm6">
                        
                <path d="M9.38 31.76q.0 .76 -.26 1.33q-.26 .57 -.76 .88q-.5 .32 -1.24 .32q-.76 .0 -1.26 -.32q-.51 -.32 -.76 -.89q-.24 -.57 -.24 -1.33q.0 -.75 .24 -1.31q.25 -.57 .76 -.88q.51 -.32 1.27 -.32q.73 .0 1.23 .32q.5 .31 .76 .88q.26 .57 .26 1.33zM5.52 31.76q.0 .92 .39 1.46q.39 .53 1.22 .53q.84 .0 1.22 -.53q.39 -.54 .39 -1.46q.0 -.93 -.39 -1.45q-.38 -.52 -1.21 -.52q-.83 .0 -1.23 .52q-.39 .52 -.39 1.45z" stroke="none"/>
                        
                <path d="M4.3 34.22h-.62v-2.29h-2.51v2.29h-.61v-4.9h.61v2.07h2.51v-2.07h.62v4.9z" stroke="none"/>
                      
            </g>
                  
            <g class="atom" id="mol1atm7">
                        
                <path d="M9.38 5.37q.0 .76 -.26 1.33q-.26 .57 -.76 .88q-.5 .32 -1.24 .32q-.76 .0 -1.26 -.32q-.51 -.32 -.76 -.89q-.24 -.57 -.24 -1.33q.0 -.75 .24 -1.31q.25 -.57 .76 -.88q.51 -.32 1.27 -.32q.73 .0 1.23 .32q.5 .31 .76 .88q.26 .57 .26 1.33zM5.52 5.37q.0 .92 .39 1.46q.39 .53 1.22 .53q.84 .0 1.22 -.53q.39 -.54 .39 -1.46q.0 -.93 -.39 -1.45q-.38 -.52 -1.21 -.52q-.83 .0 -1.23 .52q-.39 .52 -.39 1.45z" stroke="none"/>
                        
                <path d="M4.3 7.82h-.62v-2.29h-2.51v2.29h-.61v-4.9h.61v2.07h2.51v-2.07h.62v4.9z" stroke="none"/>
                      
            </g>
                
            <line class="hi" id="mol1bnd2" stroke="#1FF01F" x1="29.99" x2="29.99" y1="7.25" y2="12.91"/>
            <line class="hi" id="mol1bnd3" stroke="#1FF01F" x1="29.99" x2="29.99" y1="29.87" y2="24.22"/>
            <line class="hi" id="mol1bnd4" stroke="#1FF01F" x1="41.97" x2="35.98" y1="18.57" y2="18.57"/>
            <line class="hi" id="mol1bnd5" stroke="#FF0D0D" x1="9.09" x2="11.92" y1="28.36" y2="23.465"/>
            <line class="hi" id="mol1bnd5" stroke="#FF0D0D" x1="9.09" x2="11.92" y1="28.36" y2="23.465"/>
            <line class="hi" id="mol1bnd6" stroke="#FF0D0D" x1="9.09" x2="11.92" y1="8.78" y2="13.675"/>
            <line class="hi" id="mol1bnd6" stroke="#FF0D0D" x1="9.09" x2="11.92" y1="8.78" y2="13.675"/>
        </g>
          
    </g>
    
</svg>
