<svg xmlns="http://www.w3.org/2000/svg" xmlns:xlink="http://www.w3.org/1999/xlink" height="100.37mm" version="1.2" viewBox="0 0 138.14 100.37" width="138.14mm">
      
    <desc>Generated by the Chemistry Development Kit (http://github.com/cdk)</desc>
      
    <g fill="#FF0D0D" stroke="#000000" stroke-linecap="round" stroke-linejoin="round" stroke-width=".7">
            
        <rect fill="#FFFFFF" height="101.0" stroke="none" width="139.0" x=".0" y=".0"/>
            
        <g class="mol" id="mol1">
                  
            <line class="bond" id="mol1bnd1" x1=".98" x2="4.14" y1=".98" y2="15.88"/>
                  
            <line class="bond" id="mol1bnd2" x1="4.14" x2="15.05" y1="15.88" y2="19.43"/>
                  
            <line class="bond" id="mol1bnd3" x1="19.46" x2="21.81" y1="24.48" y2="35.5"/>
                  
            <g class="bond" id="mol1bnd4">
                        
                <line x1="23.14" x2="14.19" y1="35.93" y2="44.0"/>
                        
                <line x1="21.51" x2="12.56" y1="34.12" y2="42.19"/>
                      
                <line class="hi" stroke="#FF0D0D" x1="14.19" x2="18.665" y1="44.0" y2="39.965"/>
                <line class="hi" stroke="#FF0D0D" x1="12.56" x2="17.035" y1="42.19" y2="38.155"/>
            </g>
                  
            <line class="bond" id="mol1bnd5" x1="21.81" x2="36.3" y1="35.5" y2="40.21"/>
                  
            <line class="bond" id="mol1bnd6" x1="36.3" x2="38.66" y1="40.21" y2="51.3"/>
                  
            <line class="bond" id="mol1bnd7" x1="42.74" x2="53.96" y1="56.18" y2="59.83"/>
                  
            <g class="bond" id="mol1bnd8">
                        
                <line x1="53.96" x2="62.39" y1="59.83" y2="52.24"/>
                        
                <line x1="53.38" x2="60.76" y1="57.07" y2="50.43"/>
                      
                <line class="hi" stroke="#FF0D0D" x1="62.39" x2="58.175" y1="52.24" y2="56.035"/>
                <line class="hi" stroke="#FF0D0D" x1="60.76" x2="57.07" y1="50.43" y2="53.75"/>
            </g>
                  
            <path class="bond" d="M56.79 74.81l.68 -.15l-1.58 -16.57l-1.93 1.74l-2.47 -.8z" fill="#000000" id="mol1bnd9" stroke="none"/>
                  
            <line class="bond" id="mol1bnd10" x1="57.13" x2="46.94" y1="74.73" y2="86.13"/>
                  
            <line class="bond" id="mol1bnd11" x1="46.94" x2="54.56" y1="86.13" y2="99.33"/>
                  
            <line class="bond" id="mol1bnd12" x1="54.56" x2="69.47" y1="99.33" y2="96.11"/>
                  
            <line class="bond" id="mol1bnd13" x1="69.47" x2="70.67" y1="96.11" y2="84.84"/>
                  
            <line class="bond" id="mol1bnd14" x1="57.13" x2="67.85" y1="74.73" y2="79.55"/>
                  
            <line class="bond" id="mol1bnd15" x1="74.23" x2="84.28" y1="79.18" y2="73.4"/>
                  
            <g class="bond" id="mol1bnd16">
                        
                <line x1="83.06" x2="83.09" y1="74.1" y2="62.08"/>
                        
                <line x1="85.5" x2="85.53" y1="74.11" y2="62.09"/>
                      
                <line class="hi" stroke="#FF0D0D" x1="83.09" x2="83.075" y1="62.08" y2="68.09"/>
                <line class="hi" stroke="#FF0D0D" x1="85.53" x2="85.515" y1="62.09" y2="68.1"/>
            </g>
                  
            <line class="bond" id="mol1bnd17" x1="84.28" x2="97.47" y1="73.4" y2="81.05"/>
                  
            <line class="bond" id="mol1bnd18" x1="97.47" x2="110.68" y1="81.05" y2="73.45"/>
                  
            <g class="bond" id="mol1bnd19">
                        
                <line x1="110.71" x2="110.68" y1="58.21" y2="73.45"/>
                        
                <line x1="113.14" x2="113.12" y1="59.62" y2="72.05"/>
                      
            </g>
                  
            <line class="bond" id="mol1bnd20" x1="110.71" x2="123.92" y1="58.21" y2="50.61"/>
                  
            <g class="bond" id="mol1bnd21">
                        
                <line x1="137.11" x2="123.92" y1="58.27" y2="50.61"/>
                        
                <line x1="134.67" x2="123.91" y1="59.67" y2="53.43"/>
                      
            </g>
                  
            <line class="bond" id="mol1bnd22" x1="137.11" x2="137.08" y1="58.27" y2="73.51"/>
                  
            <g class="bond" id="mol1bnd23">
                        
                <line x1="123.87" x2="137.08" y1="81.11" y2="73.51"/>
                        
                <line x1="123.87" x2="134.65" y1="78.29" y2="72.1"/>
                      
            </g>
                  
            <line class="bond" id="mol1bnd24" x1="110.68" x2="123.87" y1="73.45" y2="81.11"/>
                  
            <path class="atom" d="M20.9 20.59q.0 .76 -.26 1.33q-.26 .57 -.76 .88q-.5 .32 -1.24 .32q-.76 .0 -1.26 -.32q-.51 -.32 -.76 -.89q-.24 -.57 -.24 -1.33q.0 -.75 .24 -1.31q.25 -.57 .76 -.88q.51 -.32 1.27 -.32q.73 .0 1.23 .32q.5 .31 .76 .88q.26 .57 .26 1.33zM17.03 20.59q.0 .92 .39 1.46q.39 .53 1.22 .53q.84 .0 1.22 -.53q.39 -.54 .39 -1.46q.0 -.93 -.39 -1.45q-.38 -.52 -1.21 -.52q-.83 .0 -1.23 .52q-.39 .52 -.39 1.45z" id="mol1atm3" stroke="none"/>
                  
            <path class="atom" d="M12.74 45.69q.0 .76 -.26 1.33q-.26 .57 -.76 .88q-.5 .32 -1.24 .32q-.76 .0 -1.26 -.32q-.51 -.32 -.76 -.89q-.24 -.57 -.24 -1.33q.0 -.75 .24 -1.31q.25 -.57 .76 -.88q.51 -.32 1.27 -.32q.73 .0 1.23 .32q.5 .31 .76 .88q.26 .57 .26 1.33zM8.88 45.69q.0 .92 .39 1.46q.39 .53 1.22 .53q.84 .0 1.22 -.53q.39 -.54 .39 -1.46q.0 -.93 -.39 -1.45q-.38 -.52 -1.21 -.52q-.83 .0 -1.23 .52q-.39 .52 -.39 1.45z" id="mol1atm5" stroke="none"/>
                  
            <g class="atom" id="mol1atm7">
                        
                <path d="M41.41 57.57h-.72l-2.62 -4.07h-.03q.01 .24 .03 .6q.02 .36 .02 .73v2.74h-.57v-4.9h.71l2.61 4.05h.03q-.01 -.11 -.02 -.33q-.01 -.22 -.02 -.48q-.01 -.26 -.01 -.48v-2.77h.58v4.9z" fill="#3050F8" stroke="none"/>
                        
                <path d="M36.97 57.57h-.62v-2.29h-2.51v2.29h-.61v-4.9h.61v2.07h2.51v-2.07h.62v4.9z" fill="#3050F8" stroke="none"/>
                      
            </g>
                  
            <path class="atom" d="M66.73 48.72q.0 .76 -.26 1.33q-.26 .57 -.76 .88q-.5 .32 -1.24 .32q-.76 .0 -1.26 -.32q-.51 -.32 -.76 -.89q-.24 -.57 -.24 -1.33q.0 -.75 .24 -1.31q.25 -.57 .76 -.88q.51 -.32 1.27 -.32q.73 .0 1.23 .32q.5 .31 .76 .88q.26 .57 .26 1.33zM62.87 48.72q.0 .92 .39 1.46q.39 .53 1.22 .53q.84 .0 1.22 -.53q.39 -.54 .39 -1.46q.0 -.93 -.39 -1.45q-.38 -.52 -1.21 -.52q-.83 .0 -1.23 .52q-.39 .52 -.39 1.45z" id="mol1atm9" stroke="none"/>
                  
            <path class="atom" d="M73.01 83.45h-.72l-2.62 -4.07h-.03q.01 .24 .03 .6q.02 .36 .02 .73v2.74h-.57v-4.9h.71l2.61 4.05h.03q-.01 -.11 -.02 -.33q-.01 -.22 -.02 -.48q-.01 -.26 -.01 -.48v-2.77h.58v4.9z" fill="#3050F8" id="mol1atm14" stroke="none"/>
                  
            <path class="atom" d="M86.57 58.16q.0 .76 -.26 1.33q-.26 .57 -.76 .88q-.5 .32 -1.24 .32q-.76 .0 -1.26 -.32q-.51 -.32 -.76 -.89q-.24 -.57 -.24 -1.33q.0 -.75 .24 -1.31q.25 -.57 .76 -.88q.51 -.32 1.27 -.32q.73 .0 1.23 .32q.5 .31 .76 .88q.26 .57 .26 1.33zM82.71 58.16q.0 .92 .39 1.46q.39 .53 1.22 .53q.84 .0 1.22 -.53q.39 -.54 .39 -1.46q.0 -.93 -.39 -1.45q-.38 -.52 -1.21 -.52q-.83 .0 -1.23 .52q-.39 .52 -.39 1.45z" id="mol1atm16" stroke="none"/>
                
            <line class="hi" id="mol1bnd2" stroke="#FF0D0D" x1="15.05" x2="9.595" y1="19.43" y2="17.655"/>
            <line class="hi" id="mol1bnd3" stroke="#FF0D0D" x1="19.46" x2="20.634999999999998" y1="24.48" y2="29.990000000000002"/>
            <line class="hi" id="mol1bnd6" stroke="#3050F8" x1="38.66" x2="37.48" y1="51.3" y2="45.754999999999995"/>
            <line class="hi" id="mol1bnd6" stroke="#3050F8" x1="38.66" x2="37.48" y1="51.3" y2="45.754999999999995"/>
            <line class="hi" id="mol1bnd7" stroke="#3050F8" x1="42.74" x2="48.35" y1="56.18" y2="58.004999999999995"/>
            <line class="hi" id="mol1bnd7" stroke="#3050F8" x1="42.74" x2="48.35" y1="56.18" y2="58.004999999999995"/>
            <line class="hi" id="mol1bnd13" stroke="#3050F8" x1="70.67" x2="70.07" y1="84.84" y2="90.475"/>
            <line class="hi" id="mol1bnd14" stroke="#3050F8" x1="67.85" x2="62.489999999999995" y1="79.55" y2="77.14"/>
            <line class="hi" id="mol1bnd15" stroke="#3050F8" x1="74.23" x2="79.255" y1="79.18" y2="76.29"/>
        </g>
          
    </g>
    
</svg>
