<svg xmlns="http://www.w3.org/2000/svg" xmlns:xlink="http://www.w3.org/1999/xlink" height="82.48mm" version="1.2" viewBox="0 0 97.04 82.48" width="97.04mm">
      
    <desc>Generated by the Chemistry Development Kit (http://github.com/cdk)</desc>
      
    <g fill="#3050F8" stroke="#000000" stroke-linecap="round" stroke-linejoin="round" stroke-width=".7">
            
        <rect fill="#FFFFFF" height="83.0" stroke="none" width="98.0" x=".0" y=".0"/>
            
        <g class="mol" id="mol1">
                  
            <line class="bond" id="mol1bnd1" x1="69.61" x2="60.11" y1="1.05" y2="12.97"/>
                  
            <line class="bond" id="mol1bnd2" x1="60.11" x2="44.88" y1="12.97" y2="12.28"/>
                  
            <line class="bond" id="mol1bnd3" x1="44.88" x2="40.94" y1="12.28" y2="22.79"/>
                  
            <line class="bond" id="mol1bnd4" x1="36.22" x2="24.67" y1="27.31" y2="29.94"/>
                  
            <line class="bond" id="mol1bnd5" x1="24.67" x2="18.06" y1="29.94" y2="43.67"/>
                  
            <g class="bond" id="mol1bnd6">
                        
                <line x1="18.65" x2="6.48" y1="44.89" y2="44.89"/>
                        
                <line x1="18.65" x2="6.48" y1="42.45" y2="42.45"/>
                      
                <line class="hi" stroke="#FF0D0D" x1="6.48" x2="12.565" y1="44.89" y2="44.89"/>
                <line class="hi" stroke="#FF0D0D" x1="6.48" x2="12.565" y1="42.45" y2="42.45"/>
            </g>
                  
            <line class="bond" id="mol1bnd7" x1="18.06" x2="22.88" y1="43.67" y2="53.69"/>
                  
            <line class="bond" id="mol1bnd8" x1="27.98" x2="39.53" y1="58.16" y2="60.8"/>
                  
            <g class="bond" id="mol1bnd9">
                        
                <line x1="51.44" x2="39.53" y1="51.29" y2="60.8"/>
                        
                <line x1="51.86" x2="42.15" y1="54.08" y2="61.82"/>
                      
            </g>
                  
            <line class="bond" id="mol1bnd10" x1="51.44" x2="51.44" y1="51.29" y2="36.05"/>
                  
            <line class="bond" id="mol1bnd11" x1="42.56" x2="51.44" y1="28.97" y2="36.05"/>
                  
            <line class="bond" id="mol1bnd12" x1="51.44" x2="60.98" y1="36.05" y2="29.76"/>
                  
            <line class="bond" id="mol1bnd13" x1="60.11" x2="63.1" y1="12.97" y2="23.79"/>
                  
            <line class="bond" id="mol1bnd14" x1="51.44" x2="69.16" y1="36.05" y2="45.59"/>
                  
            <g class="bond" id="mol1bnd15">
                        
                <line x1="82.13" x2="69.16" y1="37.57" y2="45.59"/>
                        
                <line x1="82.21" x2="71.64" y1="40.38" y2="46.92"/>
                      
            </g>
                  
            <line class="bond" id="mol1bnd16" x1="82.13" x2="95.55" y1="37.57" y2="44.79"/>
                  
            <g class="bond" id="mol1bnd17">
                        
                <line x1="96.0" x2="95.55" y1="60.03" y2="44.79"/>
                        
                <line x1="93.52" x2="93.15" y1="58.7" y2="46.27"/>
                      
            </g>
                  
            <line class="bond" id="mol1bnd18" x1="96.0" x2="83.03" y1="60.03" y2="68.05"/>
                  
            <g class="bond" id="mol1bnd19">
                        
                <line x1="69.61" x2="83.03" y1="60.83" y2="68.05"/>
                        
                <line x1="72.01" x2="82.95" y1="59.35" y2="65.24"/>
                      
                <line class="hi" stroke="#1FF01F" x1="83.03" x2="76.32" y1="68.05" y2="64.44"/>
            </g>
                  
            <line class="bond" id="mol1bnd20" x1="69.16" x2="69.61" y1="45.59" y2="60.83"/>
                  
            <line class="bond" id="mol1bnd21" x1="51.44" x2="65.63" y1="51.29" y2="56.86"/>
                  
            <g class="bond" id="mol1bnd22">
                        
                <line x1="67.9" x2="65.63" y1="71.93" y2="56.86"/>
                        
                <line x1="65.28" x2="63.43" y1="70.9" y2="58.62"/>
                      
            </g>
                  
            <line class="bond" id="mol1bnd23" x1="67.9" x2="55.99" y1="71.93" y2="81.43"/>
                  
            <g class="bond" id="mol1bnd24">
                        
                <line x1="41.8" x2="55.99" y1="75.87" y2="81.43"/>
                        
                <line x1="44.0" x2="55.57" y1="74.11" y2="78.65"/>
                      
            </g>
                  
            <line class="bond" id="mol1bnd25" x1="39.53" x2="41.8" y1="60.8" y2="75.87"/>
                  
            <line class="bond" id="mol1bnd26" x1="67.9" x2="78.93" y1="71.93" y2="76.26"/>
                  
            <path class="atom" d="M41.47 29.0h-.72l-2.62 -4.07h-.03q.01 .24 .03 .6q.02 .36 .02 .73v2.74h-.57v-4.9h.71l2.61 4.05h.03q-.01 -.11 -.02 -.33q-.01 -.22 -.02 -.48q-.01 -.26 -.01 -.48v-2.77h.58v4.9z" id="mol1atm4" stroke="none"/>
                  
            <path class="atom" d="M5.08 43.67q.0 .76 -.26 1.33q-.26 .57 -.76 .88q-.5 .32 -1.24 .32q-.76 .0 -1.26 -.32q-.51 -.32 -.76 -.89q-.24 -.57 -.24 -1.33q.0 -.75 .24 -1.31q.25 -.57 .76 -.88q.51 -.32 1.27 -.32q.73 .0 1.23 .32q.5 .31 .76 .88q.26 .57 .26 1.33zM1.21 43.67q.0 .92 .39 1.46q.39 .53 1.22 .53q.84 .0 1.22 -.53q.39 -.54 .39 -1.46q.0 -.93 -.39 -1.45q-.38 -.52 -1.21 -.52q-.83 .0 -1.23 .52q-.39 .52 -.39 1.45z" fill="#FF0D0D" id="mol1atm7" stroke="none"/>
                  
            <g class="atom" id="mol1atm8">
                        
                <path d="M26.61 59.85h-.72l-2.62 -4.07h-.03q.01 .24 .03 .6q.02 .36 .02 .73v2.74h-.57v-4.9h.71l2.61 4.05h.03q-.01 -.11 -.02 -.33q-.01 -.22 -.02 -.48q-.01 -.26 -.01 -.48v-2.77h.58v4.9z" stroke="none"/>
                        
                <path d="M22.17 59.85h-.62v-2.29h-2.51v2.29h-.61v-4.9h.61v2.07h2.51v-2.07h.62v4.9z" stroke="none"/>
                      
            </g>
                  
            <path class="atom" d="M66.42 27.65q.0 .76 -.26 1.33q-.26 .57 -.76 .88q-.5 .32 -1.24 .32q-.76 .0 -1.26 -.32q-.51 -.32 -.76 -.89q-.24 -.57 -.24 -1.33q.0 -.75 .24 -1.31q.25 -.57 .76 -.88q.51 -.32 1.27 -.32q.73 .0 1.23 .32q.5 .31 .76 .88q.26 .57 .26 1.33zM62.56 27.65q.0 .92 .39 1.46q.39 .53 1.22 .53q.84 .0 1.22 -.53q.39 -.54 .39 -1.46q.0 -.93 -.39 -1.45q-.38 -.52 -1.21 -.52q-.83 .0 -1.23 .52q-.39 .52 -.39 1.45z" fill="#FF0D0D" id="mol1atm12" stroke="none"/>
                  
            <path class="atom" d="M82.58 75.52q-.79 .0 -1.24 .53q-.45 .52 -.45 1.45q.0 .91 .42 1.45q.42 .53 1.27 .53q.32 .0 .61 -.05q.29 -.06 .57 -.14v.54q-.27 .1 -.57 .15q-.29 .05 -.7 .05q-.74 .0 -1.25 -.31q-.5 -.31 -.75 -.88q-.25 -.57 -.25 -1.34q.0 -.74 .27 -1.31q.27 -.57 .8 -.88q.53 -.32 1.28 -.32q.78 .0 1.35 .29l-.24 .52q-.23 -.1 -.51 -.18q-.27 -.08 -.61 -.08zM85.34 79.95h-.6v-5.21h.6v5.21z" fill="#1FF01F" id="mol1atm23" stroke="none"/>
                
            <line class="hi" id="mol1bnd3" stroke="#3050F8" x1="40.94" x2="42.91" y1="22.79" y2="17.535"/>
            <line class="hi" id="mol1bnd4" stroke="#3050F8" x1="36.22" x2="30.445" y1="27.31" y2="28.625"/>
            <line class="hi" id="mol1bnd7" stroke="#3050F8" x1="22.88" x2="20.47" y1="53.69" y2="48.68"/>
            <line class="hi" id="mol1bnd7" stroke="#3050F8" x1="22.88" x2="20.47" y1="53.69" y2="48.68"/>
            <line class="hi" id="mol1bnd8" stroke="#3050F8" x1="27.98" x2="33.755" y1="58.16" y2="59.48"/>
            <line class="hi" id="mol1bnd8" stroke="#3050F8" x1="27.98" x2="33.755" y1="58.16" y2="59.48"/>
            <line class="hi" id="mol1bnd11" stroke="#3050F8" x1="42.56" x2="47.0" y1="28.97" y2="32.51"/>
            <line class="hi" id="mol1bnd12" stroke="#FF0D0D" x1="60.98" x2="56.209999999999994" y1="29.76" y2="32.905"/>
            <line class="hi" id="mol1bnd13" stroke="#FF0D0D" x1="63.1" x2="61.605000000000004" y1="23.79" y2="18.38"/>
            <line class="hi" id="mol1bnd18" stroke="#1FF01F" x1="83.03" x2="89.515" y1="68.05" y2="64.03999999999999"/>
            <line class="hi" id="mol1bnd26" stroke="#1FF01F" x1="78.93" x2="73.415" y1="76.26" y2="74.095"/>
        </g>
          
    </g>
    
</svg>
