<svg xmlns="http://www.w3.org/2000/svg" xmlns:xlink="http://www.w3.org/1999/xlink" height="63.45mm" version="1.2" viewBox="0 0 82.12 63.45" width="82.12mm">
      
    <desc>Generated by the Chemistry Development Kit (http://github.com/cdk)</desc>
      
    <g fill="#FF0D0D" stroke="#000000" stroke-linecap="round" stroke-linejoin="round" stroke-width=".7">
            
        <rect fill="#FFFFFF" height="64.0" stroke="none" width="83.0" x=".0" y=".0"/>
            
        <g class="mol" id="mol1">
                  
            <line class="bond" id="mol1bnd1" x1="29.9" x2="22.28" y1="10.14" y2="23.34"/>
                  
            <line class="bond" id="mol1bnd2" x1="22.28" x2="32.44" y1="23.34" y2="34.6"/>
                  
            <line class="bond" id="mol1bnd3" x1="32.44" x2="43.19" y1="34.6" y2="29.89"/>
                  
            <line class="bond" id="mol1bnd4" x1="45.99" x2="44.73" y1="24.63" y2="13.31"/>
                  
            <line class="bond" id="mol1bnd5" x1="29.9" x2="44.73" y1="10.14" y2="13.31"/>
                  
            <g class="bond" id="mol1bnd6">
                        
                <line x1="43.26" x2="52.32" y1="12.99" y2="4.8"/>
                        
                <line x1="44.9" x2="53.96" y1="14.8" y2="6.6"/>
                      
                <line class="hi" stroke="#FF0D0D" x1="52.32" x2="47.79" y1="4.799999999999999" y2="8.895"/>
                <line class="hi" stroke="#FF0D0D" x1="53.96" x2="49.43" y1="6.6" y2="10.7"/>
            </g>
                  
            <line class="bond" id="mol1bnd7" x1="49.57" x2="59.61" y1="30.3" y2="36.09"/>
                  
            <line class="bond" id="mol1bnd8" x1="59.61" x2="59.61" y1="36.09" y2="51.33"/>
                  
            <g class="bond" id="mol1bnd9">
                        
                <line x1="60.83" x2="50.3" y1="52.04" y2="58.12"/>
                        
                <line x1="59.61" x2="49.09" y1="49.93" y2="56.01"/>
                      
                <line class="hi" stroke="#FF0D0D" x1="50.3" x2="55.565" y1="58.12" y2="55.08"/>
                <line class="hi" stroke="#FF0D0D" x1="49.09" x2="54.35" y1="56.01" y2="52.97"/>
            </g>
                  
            <line class="bond" id="mol1bnd10" x1="59.61" x2="69.66" y1="51.33" y2="57.13"/>
                  
            <line class="bond" id="mol1bnd11" x1="22.28" x2="10.78" y1="23.34" y2="24.55"/>
                  
            <path class="atom" d="M48.36 30.92h-.72l-2.62 -4.07h-.03q.01 .24 .03 .6q.02 .36 .02 .73v2.74h-.57v-4.9h.71l2.61 4.05h.03q-.01 -.11 -.02 -.33q-.01 -.22 -.02 -.48q-.01 -.26 -.01 -.48v-2.77h.58v4.9z" fill="#3050F8" id="mol1atm4" stroke="none"/>
                  
            <path class="atom" d="M58.29 3.08q.0 .76 -.26 1.33q-.26 .57 -.76 .88q-.5 .32 -1.24 .32q-.76 .0 -1.26 -.32q-.51 -.32 -.76 -.89q-.24 -.57 -.24 -1.33q.0 -.75 .24 -1.31q.25 -.57 .76 -.88q.51 -.32 1.27 -.32q.73 .0 1.23 .32q.5 .31 .76 .88q.26 .57 .26 1.33zM54.43 3.08q.0 .92 .39 1.46q.39 .53 1.22 .53q.84 .0 1.22 -.53q.39 -.54 .39 -1.46q.0 -.93 -.39 -1.45q-.38 -.52 -1.21 -.52q-.83 .0 -1.23 .52q-.39 .52 -.39 1.45z" id="mol1atm6" stroke="none"/>
                  
            <path class="atom" d="M48.68 58.95q.0 .76 -.26 1.33q-.26 .57 -.76 .88q-.5 .32 -1.24 .32q-.76 .0 -1.26 -.32q-.51 -.32 -.76 -.89q-.24 -.57 -.24 -1.33q.0 -.75 .24 -1.31q.25 -.57 .76 -.88q.51 -.32 1.27 -.32q.73 .0 1.23 .32q.5 .31 .76 .88q.26 .57 .26 1.33zM44.81 58.95q.0 .92 .39 1.46q.39 .53 1.22 .53q.84 .0 1.22 -.53q.39 -.54 .39 -1.46q.0 -.93 -.39 -1.45q-.38 -.52 -1.21 -.52q-.83 .0 -1.23 .52q-.39 .52 -.39 1.45z" id="mol1atm9" stroke="none"/>
                  
            <g class="atom" id="mol1atm10">
                        
                <path d="M74.75 61.4h-.72l-2.62 -4.07h-.03q.01 .24 .03 .6q.02 .36 .02 .73v2.74h-.57v-4.9h.71l2.61 4.05h.03q-.01 -.11 -.02 -.33q-.01 -.22 -.02 -.48q-.01 -.26 -.01 -.48v-2.77h.58v4.9z" fill="#3050F8" stroke="none"/>
                        
                <path d="M79.06 61.4h-.62v-2.29h-2.51v2.29h-.61v-4.9h.61v2.07h2.51v-2.07h.62v4.9z" fill="#3050F8" stroke="none"/>
                        
                <path d="M81.56 62.89h-1.94v-.3l.77 -.78q.22 -.22 .37 -.39q.15 -.18 .23 -.34q.08 -.17 .08 -.36q.0 -.24 -.15 -.37q-.14 -.13 -.37 -.13q-.21 .0 -.38 .08q-.16 .08 -.33 .21l-.19 -.24q.17 -.15 .39 -.25q.23 -.1 .51 -.1q.41 .0 .65 .21q.24 .21 .24 .58q.0 .23 -.1 .43q-.09 .2 -.26 .4q-.17 .2 -.39 .42l-.61 .6v.02h1.49v.33z" fill="#3050F8" stroke="none"/>
                      
            </g>
                  
            <g class="atom" id="mol1atm11">
                        
                <path d="M9.38 24.94q.0 .76 -.26 1.33q-.26 .57 -.76 .88q-.5 .32 -1.24 .32q-.76 .0 -1.26 -.32q-.51 -.32 -.76 -.89q-.24 -.57 -.24 -1.33q.0 -.75 .24 -1.31q.25 -.57 .76 -.88q.51 -.32 1.27 -.32q.73 .0 1.23 .32q.5 .31 .76 .88q.26 .57 .26 1.33zM5.52 24.94q.0 .92 .39 1.46q.39 .53 1.22 .53q.84 .0 1.22 -.53q.39 -.54 .39 -1.46q.0 -.93 -.39 -1.45q-.38 -.52 -1.21 -.52q-.83 .0 -1.23 .52q-.39 .52 -.39 1.45z" stroke="none"/>
                        
                <path d="M4.3 27.39h-.62v-2.29h-2.51v2.29h-.61v-4.9h.61v2.07h2.51v-2.07h.62v4.9z" stroke="none"/>
                      
            </g>
                
            <line class="hi" id="mol1bnd3" stroke="#3050F8" x1="43.19" x2="37.815" y1="29.89" y2="32.245000000000005"/>
            <line class="hi" id="mol1bnd4" stroke="#3050F8" x1="45.99" x2="45.36" y1="24.63" y2="18.97"/>
            <line class="hi" id="mol1bnd7" stroke="#3050F8" x1="49.57" x2="54.59" y1="30.3" y2="33.195"/>
            <line class="hi" id="mol1bnd10" stroke="#3050F8" x1="69.66" x2="64.63499999999999" y1="57.13" y2="54.230000000000004"/>
            <line class="hi" id="mol1bnd11" stroke="#FF0D0D" x1="10.78" x2="16.53" y1="24.55" y2="23.945"/>
            <line class="hi" id="mol1bnd11" stroke="#FF0D0D" x1="10.78" x2="16.53" y1="24.55" y2="23.945"/>
        </g>
          
    </g>
    
</svg>
