<svg xmlns="http://www.w3.org/2000/svg" xmlns:xlink="http://www.w3.org/1999/xlink" height="82.32mm" version="1.2" viewBox="0 0 80.09 82.32" width="80.09mm">
      
    <desc>Generated by the Chemistry Development Kit (http://github.com/cdk)</desc>
      
    <g fill="#FF0D0D" stroke="#000000" stroke-linecap="round" stroke-linejoin="round" stroke-width=".7">
            
        <rect fill="#FFFFFF" height="83.0" stroke="none" width="81.0" x=".0" y=".0"/>
            
        <g class="mol" id="mol1">
                  
            <line class="bond" id="mol1bnd1" x1="79.07" x2="74.67" y1="70.31" y2="60.04"/>
                  
            <line class="bond" id="mol1bnd2" x1="73.14" x2="73.37" y1="52.45" y2="41.16"/>
                  
            <line class="bond" id="mol1bnd3" x1="73.37" x2="46.65" y1="41.16" y2="41.16"/>
                  
            <path class="bond" d="M33.27 48.48l.35 .61l18.89 -8.27h-5.25h-3.51z" fill="#000000" id="mol1bnd4" stroke="none"/>
                  
            <line class="bond" id="mol1bnd5" x1="33.44" x2="20.34" y1="48.78" y2="56.3"/>
                  
            <line class="bond" id="mol1bnd6" x1="20.34" x2="20.34" y1="56.3" y2="71.64"/>
                  
            <g class="bond" id="mol1bnd7">
                        
                <line x1="21.55" x2="11.01" y1="72.35" y2="78.41"/>
                        
                <line x1="20.34" x2="9.8" y1="70.23" y2="76.3"/>
                      
                <line class="hi" stroke="#FF0D0D" x1="11.01" x2="16.28" y1="78.41" y2="75.38"/>
                <line class="hi" stroke="#FF0D0D" x1="9.8" x2="15.07" y1="76.3" y2="73.265"/>
            </g>
                  
            <line class="bond" id="mol1bnd8" x1="20.34" x2="33.44" y1="71.64" y2="79.26"/>
                  
            <line class="bond" id="mol1bnd9" x1="33.44" x2="46.65" y1="79.26" y2="71.64"/>
                  
            <line class="bond" id="mol1bnd10" x1="46.65" x2="46.65" y1="71.64" y2="56.3"/>
                  
            <line class="bond" id="mol1bnd11" x1="33.44" x2="46.65" y1="48.78" y2="56.3"/>
                  
            <line class="bond" id="mol1bnd12" x1="46.65" x2="59.86" y1="56.3" y2="48.78"/>
                  
            <path class="bond" d="M60.03 48.48l-.35 .61l9.39 6.88l.83 -1.46l.83 -1.46z" fill="#000000" id="mol1bnd13" stroke="none"/>
                  
            <line class="bond" id="mol1bnd14" x1="59.86" x2="59.86" y1="48.78" y2="33.54"/>
                  
            <line class="bond" id="mol1bnd15" x1="59.86" x2="46.65" y1="33.54" y2="25.82"/>
                  
            <g class="bond" id="mol1bnd16">
                        
                <line x1="33.44" x2="46.65" y1="33.54" y2="25.82"/>
                        
                <line x1="33.45" x2="44.21" y1="30.71" y2="24.42"/>
                      
            </g>
                  
            <g class="bond" id="mol1bnd17">
                        
                <line x1="33.09" x2="33.79" y1="48.78" y2="48.78"/>
                        
                <line x1="32.84" x2="34.04" y1="46.6" y2="46.6"/>
                        
                <line x1="32.59" x2="34.29" y1="44.43" y2="44.43"/>
                        
                <line x1="32.34" x2="34.54" y1="42.25" y2="42.25"/>
                        
                <line x1="32.09" x2="34.79" y1="40.07" y2="40.07"/>
                        
                <line x1="31.84" x2="35.04" y1="37.9" y2="37.9"/>
                        
                <line x1="31.59" x2="35.29" y1="35.72" y2="35.72"/>
                        
                <line x1="31.34" x2="35.54" y1="33.54" y2="33.54"/>
                      
            </g>
                  
            <line class="bond" id="mol1bnd18" x1="33.44" x2="20.34" y1="33.54" y2="25.82"/>
                  
            <g class="bond" id="mol1bnd19">
                        
                <line x1="20.34" x2="20.34" y1="10.68" y2="25.82"/>
                        
                <line x1="22.77" x2="22.77" y1="12.08" y2="24.43"/>
                      
            </g>
                  
            <line class="bond" id="mol1bnd20" x1="20.34" x2="33.44" y1="10.68" y2="3.06"/>
                  
            <g class="bond" id="mol1bnd21">
                        
                <line x1="46.65" x2="33.44" y1="10.68" y2="3.06"/>
                        
                <line x1="44.21" x2="33.45" y1="12.09" y2="5.88"/>
                      
            </g>
                  
            <line class="bond" id="mol1bnd22" x1="46.65" x2="46.65" y1="25.82" y2="10.68"/>
                  
            <line class="bond" id="mol1bnd23" x1="20.34" x2="10.4" y1="10.68" y2="4.97"/>
                  
            <line class="bond" id="mol1bnd24" x1="20.34" x2="12.69" y1="25.82" y2="37.09"/>
                  
            <g class="bond" id="mol1bnd25">
                        
                <line stroke="#000000" x1="20.04" x2="20.63" y1="56.48" y2="56.12"/>
                        
                <line stroke="#FF0D0D" x1="18.62" x2="19.59" y1="54.6" y2="54.01"/>
                        
                <line stroke="#FF0D0D" x1="17.2" x2="18.54" y1="52.73" y2="51.9"/>
                        
                <line stroke="#FF0D0D" x1="15.78" x2="17.5" y1="50.85" y2="49.79"/>
                        
                <line stroke="#FF0D0D" x1="14.37" x2="16.45" y1="48.97" y2="47.68"/>
                        
                <line stroke="#FF0D0D" x1="12.95" x2="15.4" y1="47.09" y2="45.57"/>
                        
                <line stroke="#FF0D0D" x1="11.53" x2="14.36" y1="45.21" y2="43.46"/>
                      
            </g>
                  
            <path class="bond" d="M46.83 56.0l-.35 .61l9.24 6.89l.84 -1.44l.84 -1.44z" fill="#000000" id="mol1bnd26" stroke="none"/>
                  
            <path class="atom" d="M75.01 58.75h-.72l-2.62 -4.07h-.03q.01 .24 .03 .6q.02 .36 .02 .73v2.74h-.57v-4.9h.71l2.61 4.05h.03q-.01 -.11 -.02 -.33q-.01 -.22 -.02 -.48q-.01 -.26 -.01 -.48v-2.77h.58v4.9z" fill="#3050F8" id="mol1atm2" stroke="none"/>
                  
            <path class="atom" d="M9.38 79.24q.0 .76 -.26 1.33q-.26 .57 -.76 .88q-.5 .32 -1.24 .32q-.76 .0 -1.26 -.32q-.51 -.32 -.76 -.89q-.24 -.57 -.24 -1.33q.0 -.75 .24 -1.31q.25 -.57 .76 -.88q.51 -.32 1.27 -.32q.73 .0 1.23 .32q.5 .31 .76 .88q.26 .57 .26 1.33zM5.52 79.24q.0 .92 .39 1.46q.39 .53 1.22 .53q.84 .0 1.22 -.53q.39 -.54 .39 -1.46q.0 -.93 -.39 -1.45q-.38 -.52 -1.21 -.52q-.83 .0 -1.23 .52q-.39 .52 -.39 1.45z" id="mol1atm8" stroke="none"/>
                  
            <g class="atom" id="mol1atm20">
                        
                <path d="M9.38 3.08q.0 .76 -.26 1.33q-.26 .57 -.76 .88q-.5 .32 -1.24 .32q-.76 .0 -1.26 -.32q-.51 -.32 -.76 -.89q-.24 -.57 -.24 -1.33q.0 -.75 .24 -1.31q.25 -.57 .76 -.88q.51 -.32 1.27 -.32q.73 .0 1.23 .32q.5 .31 .76 .88q.26 .57 .26 1.33zM5.52 3.08q.0 .92 .39 1.46q.39 .53 1.22 .53q.84 .0 1.22 -.53q.39 -.54 .39 -1.46q.0 -.93 -.39 -1.45q-.38 -.52 -1.21 -.52q-.83 .0 -1.23 .52q-.39 .52 -.39 1.45z" stroke="none"/>
                        
                <path d="M4.3 5.53h-.62v-2.29h-2.51v2.29h-.61v-4.9h.61v2.07h2.51v-2.07h.62v4.9z" stroke="none"/>
                      
            </g>
                  
            <path class="atom" d="M12.74 40.35q.0 .76 -.26 1.33q-.26 .57 -.76 .88q-.5 .32 -1.24 .32q-.76 .0 -1.26 -.32q-.51 -.32 -.76 -.89q-.24 -.57 -.24 -1.33q.0 -.75 .24 -1.31q.25 -.57 .76 -.88q.51 -.32 1.27 -.32q.73 .0 1.23 .32q.5 .31 .76 .88q.26 .57 .26 1.33zM8.88 40.35q.0 .92 .39 1.46q.39 .53 1.22 .53q.84 .0 1.22 -.53q.39 -.54 .39 -1.46q.0 -.93 -.39 -1.45q-.38 -.52 -1.21 -.52q-.83 .0 -1.23 .52q-.39 .52 -.39 1.45z" id="mol1atm21" stroke="none"/>
                  
            <g class="atom" id="mol1atm22">
                        
                <path d="M62.08 63.96q.0 .76 -.26 1.33q-.26 .57 -.76 .88q-.5 .32 -1.24 .32q-.76 .0 -1.26 -.32q-.51 -.32 -.76 -.89q-.24 -.57 -.24 -1.33q.0 -.75 .24 -1.31q.25 -.57 .76 -.88q.51 -.32 1.27 -.32q.73 .0 1.23 .32q.5 .31 .76 .88q.26 .57 .26 1.33zM58.22 63.96q.0 .92 .39 1.46q.39 .53 1.22 .53q.84 .0 1.22 -.53q.39 -.54 .39 -1.46q.0 -.93 -.39 -1.45q-.38 -.52 -1.21 -.52q-.83 .0 -1.23 .52q-.39 .52 -.39 1.45z" stroke="none"/>
                        
                <path d="M66.39 66.41h-.62v-2.29h-2.51v2.29h-.61v-4.9h.61v2.07h2.51v-2.07h.62v4.9z" stroke="none"/>
                      
            </g>
                
            <line class="hi" id="mol1bnd1" stroke="#3050F8" x1="74.67" x2="76.87" y1="60.04" y2="65.175"/>
            <line class="hi" id="mol1bnd2" stroke="#3050F8" x1="73.14" x2="73.255" y1="52.45" y2="46.805"/>
            <line class="hi" id="mol1bnd23" stroke="#FF0D0D" x1="10.4" x2="15.370000000000001" y1="4.97" y2="7.824999999999999"/>
            <line class="hi" id="mol1bnd23" stroke="#FF0D0D" x1="10.4" x2="15.370000000000001" y1="4.97" y2="7.824999999999999"/>
            <line class="hi" id="mol1bnd24" stroke="#FF0D0D" x1="12.69" x2="16.515" y1="37.09" y2="31.455000000000002"/>
        </g>
          
    </g>
    
</svg>
