<svg xmlns="http://www.w3.org/2000/svg" xmlns:xlink="http://www.w3.org/1999/xlink" height="122.89mm" version="1.2" viewBox="0 0 132.64 122.89" width="132.64mm">
      
    <desc>Generated by the Chemistry Development Kit (http://github.com/cdk)</desc>
      
    <g fill="#3050F8" stroke="#000000" stroke-linecap="round" stroke-linejoin="round" stroke-width=".7">
            
        <rect fill="#FFFFFF" height="123.0" stroke="none" width="133.0" x=".0" y=".0"/>
            
        <g class="mol" id="mol1">
                  
            <line class="bond" id="mol1bnd1" x1="61.61" x2="58.46" y1="121.92" y2="107.01"/>
                  
            <line class="bond" id="mol1bnd2" x1="58.46" x2="43.97" y1="107.01" y2="102.28"/>
                  
            <line class="bond" id="mol1bnd3" x1="58.46" x2="69.8" y1="107.01" y2="96.82"/>
                  
            <line class="bond" id="mol1bnd4" x1="69.8" x2="66.65" y1="96.82" y2="81.91"/>
                  
            <line class="bond" id="mol1bnd5" x1="66.65" x2="77.99" y1="81.91" y2="71.73"/>
                  
            <g class="bond" id="mol1bnd6">
                        
                <line x1="77.7" x2="89.27" y1="70.35" y2="74.13"/>
                        
                <line x1="76.94" x2="88.51" y1="72.67" y2="76.45"/>
                      
                <line class="hi" stroke="#FF0D0D" x1="89.27" x2="83.485" y1="74.13" y2="72.24"/>
                <line class="hi" stroke="#FF0D0D" x1="88.51" x2="82.725" y1="76.45" y2="74.56"/>
            </g>
                  
            <line class="bond" id="mol1bnd7" x1="77.99" x2="74.84" y1="71.73" y2="56.82"/>
                  
            <line class="bond" id="mol1bnd8" x1="74.84" x2="86.18" y1="56.82" y2="46.64"/>
                  
            <line class="bond" id="mol1bnd9" x1="86.18" x2="101.1" y1="46.64" y2="49.86"/>
                  
            <g class="bond" id="mol1bnd10">
                        
                <line x1="101.1" x2="108.73" y1="49.86" y2="63.06"/>
                        
                <line x1="103.92" x2="110.13" y1="49.86" y2="60.62"/>
                      
            </g>
                  
            <line class="bond" id="mol1bnd11" x1="108.73" x2="123.97" y1="63.06" y2="63.07"/>
                  
            <g class="bond" id="mol1bnd12">
                        
                <line x1="123.97" x2="131.6" y1="63.07" y2="49.87"/>
                        
                <line x1="122.57" x2="128.78" y1="60.63" y2="49.87"/>
                      
            </g>
                  
            <line class="bond" id="mol1bnd13" x1="131.6" x2="123.97" y1="49.87" y2="36.67"/>
                  
            <g class="bond" id="mol1bnd14">
                        
                <line x1="123.97" x2="108.72" y1="36.67" y2="36.66"/>
                        
                <line x1="122.56" x2="110.13" y1="39.1" y2="39.1"/>
                      
            </g>
                  
            <line class="bond" id="mol1bnd15" x1="101.1" x2="108.72" y1="49.86" y2="36.66"/>
                  
            <line class="bond" id="mol1bnd16" x1="108.72" x2="98.48" y1="36.66" y2="25.35"/>
                  
            <g class="bond" id="mol1bnd17">
                        
                <line x1="97.1" x2="99.62" y1="25.96" y2="14.07"/>
                        
                <line x1="99.49" x2="102.0" y1="26.46" y2="14.58"/>
                      
                <line class="hi" stroke="#FF0D0D" x1="99.62" x2="98.36" y1="14.07" y2="20.015"/>
                <line class="hi" stroke="#FF0D0D" x1="102.0" x2="100.745" y1="14.58" y2="20.52"/>
            </g>
                  
            <line class="bond" id="mol1bnd18" x1="98.48" x2="87.81" y1="25.35" y2="30.09"/>
                  
            <line class="bond" id="mol1bnd19" x1="86.18" x2="84.99" y1="46.64" y2="35.36"/>
                  
            <line class="bond" id="mol1bnd20" x1="81.43" x2="71.39" y1="29.7" y2="23.9"/>
                  
            <g class="bond" id="mol1bnd21">
                        
                <line x1="61.34" x2="71.39" y1="29.7" y2="23.9"/>
                        
                <line x1="60.12" x2="68.95" y1="27.59" y2="22.49"/>
                      
                <line class="hi" stroke="#3050F8" x1="61.34" x2="66.36500000000001" y1="29.7" y2="26.799999999999997"/>
                <line class="hi" stroke="#3050F8" x1="60.12" x2="64.535" y1="27.59" y2="25.04"/>
            </g>
                  
            <line class="bond" id="mol1bnd22" x1="55.03" x2="44.97" y1="29.7" y2="23.9"/>
                  
            <g class="bond" id="mol1bnd23">
                        
                <line x1="44.97" x2="44.97" y1="8.66" y2="23.9"/>
                        
                <line x1="47.41" x2="47.41" y1="10.07" y2="22.49"/>
                      
            </g>
                  
            <line class="bond" id="mol1bnd24" x1="44.97" x2="58.18" y1="8.66" y2="1.04"/>
                  
            <g class="bond" id="mol1bnd25">
                        
                <line x1="71.39" x2="58.18" y1="8.66" y2="1.04"/>
                        
                <line x1="68.95" x2="58.18" y1="10.07" y2="3.85"/>
                      
            </g>
                  
            <line class="bond" id="mol1bnd26" x1="71.39" x2="71.39" y1="23.9" y2="8.66"/>
                  
            <line class="bond" id="mol1bnd27" x1="44.97" x2="31.77" y1="8.66" y2="1.04"/>
                  
            <g class="bond" id="mol1bnd28">
                        
                <line x1="31.77" x2="18.56" y1="1.04" y2="8.66"/>
                        
                <line x1="31.77" x2="21.0" y1="3.85" y2="10.07"/>
                      
            </g>
                  
            <line class="bond" id="mol1bnd29" x1="18.56" x2="18.56" y1="8.66" y2="23.9"/>
                  
            <g class="bond" id="mol1bnd30">
                        
                <line x1="18.56" x2="28.61" y1="23.9" y2="29.7"/>
                        
                <line x1="21.0" x2="29.83" y1="22.49" y2="27.59"/>
                      
                <line class="hi" stroke="#3050F8" x1="28.61" x2="23.585" y1="29.7" y2="26.799999999999997"/>
                <line class="hi" stroke="#3050F8" x1="29.83" x2="25.415" y1="27.59" y2="25.04"/>
            </g>
                  
            <line class="bond" id="mol1bnd31" x1="44.97" x2="34.92" y1="23.9" y2="29.7"/>
                  
            <line class="bond" id="mol1bnd32" x1="18.56" x2="6.87" y1="23.9" y2="30.65"/>
                  
            <path class="atom" d="M94.74 76.46q.0 .76 -.26 1.33q-.26 .57 -.76 .88q-.5 .32 -1.24 .32q-.76 .0 -1.26 -.32q-.51 -.32 -.76 -.89q-.24 -.57 -.24 -1.33q.0 -.75 .24 -1.31q.25 -.57 .76 -.88q.51 -.32 1.27 -.32q.73 .0 1.23 .32q.5 .31 .76 .88q.26 .57 .26 1.33zM90.87 76.46q.0 .92 .39 1.46q.39 .53 1.22 .53q.84 .0 1.22 -.53q.39 -.54 .39 -1.46q.0 -.93 -.39 -1.45q-.38 -.52 -1.21 -.52q-.83 .0 -1.23 .52q-.39 .52 -.39 1.45z" fill="#FF0D0D" id="mol1atm7" stroke="none"/>
                  
            <path class="atom" d="M103.89 10.43q.0 .76 -.26 1.33q-.26 .57 -.76 .88q-.5 .32 -1.24 .32q-.76 .0 -1.26 -.32q-.51 -.32 -.76 -.89q-.24 -.57 -.24 -1.33q.0 -.75 .24 -1.31q.25 -.57 .76 -.88q.51 -.32 1.27 -.32q.73 .0 1.23 .32q.5 .31 .76 .88q.26 .57 .26 1.33zM100.03 10.43q.0 .92 .39 1.46q.39 .53 1.22 .53q.84 .0 1.22 -.53q.39 -.54 .39 -1.46q.0 -.93 -.39 -1.45q-.38 -.52 -1.21 -.52q-.83 .0 -1.23 .52q-.39 .52 -.39 1.45z" fill="#FF0D0D" id="mol1atm17" stroke="none"/>
                  
            <path class="atom" d="M86.53 33.97h-.72l-2.62 -4.07h-.03q.01 .24 .03 .6q.02 .36 .02 .73v2.74h-.57v-4.9h.71l2.61 4.05h.03q-.01 -.11 -.02 -.33q-.01 -.22 -.02 -.48q-.01 -.26 -.01 -.48v-2.77h.58v4.9z" id="mol1atm18" stroke="none"/>
                  
            <path class="atom" d="M60.12 33.97h-.72l-2.62 -4.07h-.03q.01 .24 .03 .6q.02 .36 .02 .73v2.74h-.57v-4.9h.71l2.61 4.05h.03q-.01 -.11 -.02 -.33q-.01 -.22 -.02 -.48q-.01 -.26 -.01 -.48v-2.77h.58v4.9z" id="mol1atm20" stroke="none"/>
                  
            <path class="atom" d="M33.71 33.97h-.72l-2.62 -4.07h-.03q.01 .24 .03 .6q.02 .36 .02 .73v2.74h-.57v-4.9h.71l2.61 4.05h.03q-.01 -.11 -.02 -.33q-.01 -.22 -.02 -.48q-.01 -.26 -.01 -.48v-2.77h.58v4.9z" id="mol1atm28" stroke="none"/>
                  
            <path class="atom" d="M2.91 29.7q-.79 .0 -1.24 .53q-.45 .52 -.45 1.45q.0 .91 .42 1.45q.42 .53 1.27 .53q.32 .0 .61 -.05q.29 -.06 .57 -.14v.54q-.27 .1 -.57 .15q-.29 .05 -.7 .05q-.74 .0 -1.25 -.31q-.5 -.31 -.75 -.88q-.25 -.57 -.25 -1.34q.0 -.74 .27 -1.31q.27 -.57 .8 -.88q.53 -.32 1.28 -.32q.78 .0 1.35 .29l-.24 .52q-.23 -.1 -.51 -.18q-.27 -.08 -.61 -.08zM5.66 34.13h-.6v-5.21h.6v5.21z" fill="#1FF01F" id="mol1atm29" stroke="none"/>
                
            <line class="hi" id="mol1bnd18" stroke="#3050F8" x1="87.81" x2="93.14500000000001" y1="30.09" y2="27.72"/>
            <line class="hi" id="mol1bnd19" stroke="#3050F8" x1="84.99" x2="85.58500000000001" y1="35.36" y2="41.0"/>
            <line class="hi" id="mol1bnd20" stroke="#3050F8" x1="81.43" x2="76.41" y1="29.7" y2="26.799999999999997"/>
            <line class="hi" id="mol1bnd22" stroke="#3050F8" x1="55.03" x2="50.0" y1="29.7" y2="26.799999999999997"/>
            <line class="hi" id="mol1bnd31" stroke="#3050F8" x1="34.92" x2="39.945" y1="29.7" y2="26.799999999999997"/>
            <line class="hi" id="mol1bnd32" stroke="#1FF01F" x1="6.870000000000001" x2="12.715" y1="30.65" y2="27.275"/>
        </g>
          
    </g>
    
</svg>
