<svg xmlns="http://www.w3.org/2000/svg" xmlns:xlink="http://www.w3.org/1999/xlink" height="86.06mm" version="1.2" viewBox="0 0 104.49 86.06" width="104.49mm">
      
    <desc>Generated by the Chemistry Development Kit (http://github.com/cdk)</desc>
      
    <g fill="#FF0D0D" stroke="#000000" stroke-linecap="round" stroke-linejoin="round" stroke-width=".7">
            
        <rect fill="#FFFFFF" height="87.0" stroke="none" width="105.0" x=".0" y=".0"/>
            
        <g class="mol" id="mol1">
                  
            <g class="bond" id="mol1bnd1">
                        
                <line x1="55.98" x2="55.28" y1="46.35" y2="46.35"/>
                        
                <line x1="56.27" x2="54.99" y1="48.89" y2="48.89"/>
                        
                <line x1="56.57" x2="54.7" y1="51.43" y2="51.43"/>
                        
                <line x1="56.86" x2="54.41" y1="53.97" y2="53.97"/>
                        
                <line x1="57.15" x2="54.12" y1="56.51" y2="56.51"/>
                        
                <line x1="57.44" x2="53.83" y1="59.05" y2="59.05"/>
                        
                <line x1="57.73" x2="53.53" y1="61.59" y2="61.59"/>
                      
            </g>
                  
            <line class="bond" id="mol1bnd2" x1="55.63" x2="42.43" y1="46.35" y2="38.74"/>
                  
            <line class="bond" id="mol1bnd3" x1="42.43" x2="32.39" y1="38.74" y2="44.54"/>
                  
            <line class="bond" id="mol1bnd4" x1="29.24" x2="29.24" y1="50.21" y2="61.6"/>
                  
            <line class="bond" id="mol1bnd5" x1="29.24" x2="16.03" y1="61.6" y2="69.22"/>
                  
            <line class="bond" id="mol1bnd6" x1="16.03" x2="6.1" y1="69.22" y2="63.49"/>
                  
            <line class="bond" id="mol1bnd7" x1="2.82" x2="2.82" y1="57.68" y2="46.36"/>
                  
            <line class="bond" id="mol1bnd8" x1="2.82" x2="16.03" y1="46.36" y2="38.74"/>
                  
            <line class="bond" id="mol1bnd9" x1="26.08" x2="16.03" y1="44.54" y2="38.74"/>
                  
            <line class="bond" id="mol1bnd10" x1="55.63" x2="68.83" y1="46.35" y2="38.73"/>
                  
            <line class="bond" id="mol1bnd11" x1="68.83" x2="78.62" y1="38.73" y2="27.06"/>
                  
            <g class="bond" id="mol1bnd12">
                        
                <line x1="73.4" x2="78.62" y1="12.73" y2="27.06"/>
                        
                <line x1="76.17" x2="80.43" y1="13.22" y2="24.9"/>
                      
            </g>
                  
            <line class="bond" id="mol1bnd13" x1="73.4" x2="83.19" y1="12.73" y2="1.05"/>
                  
            <g class="bond" id="mol1bnd14">
                        
                <line x1="98.21" x2="83.19" y1="3.7" y2="1.05"/>
                        
                <line x1="96.4" x2="84.16" y1="5.86" y2="3.7"/>
                      
            </g>
                  
            <line class="bond" id="mol1bnd15" x1="98.21" x2="103.43" y1="3.7" y2="18.03"/>
                  
            <g class="bond" id="mol1bnd16">
                        
                <line x1="93.64" x2="103.43" y1="29.71" y2="18.03"/>
                        
                <line x1="92.68" x2="100.66" y1="27.06" y2="17.54"/>
                      
            </g>
                  
            <line class="bond" id="mol1bnd17" x1="78.62" x2="93.64" y1="27.06" y2="29.71"/>
                  
            <line class="bond" id="mol1bnd18" x1="68.83" x2="59.03" y1="38.73" y2="27.06"/>
                  
            <g class="bond" id="mol1bnd19">
                        
                <line x1="44.02" x2="59.03" y1="29.71" y2="27.06"/>
                        
                <line x1="44.98" x2="57.22" y1="27.07" y2="24.9"/>
                      
            </g>
                  
            <line class="bond" id="mol1bnd20" x1="44.02" x2="34.22" y1="29.71" y2="18.04"/>
                  
            <g class="bond" id="mol1bnd21">
                        
                <line x1="39.43" x2="34.22" y1="3.71" y2="18.04"/>
                        
                <line x1="41.24" x2="36.99" y1="5.87" y2="17.55"/>
                      
            </g>
                  
            <line class="bond" id="mol1bnd22" x1="39.43" x2="54.45" y1="3.71" y2="1.06"/>
                  
            <g class="bond" id="mol1bnd23">
                        
                <line x1="64.25" x2="54.45" y1="12.73" y2="1.06"/>
                        
                <line x1="61.48" x2="53.49" y1="13.22" y2="3.7"/>
                      
            </g>
                  
            <line class="bond" id="mol1bnd24" x1="59.03" x2="64.25" y1="27.06" y2="12.73"/>
                  
            <line class="bond" id="mol1bnd25" x1="68.83" x2="82.03" y1="38.73" y2="46.35"/>
                  
            <g class="bond" id="mol1bnd26">
                        
                <line x1="80.81" x2="91.33" y1="45.65" y2="39.57"/>
                        
                <line x1="82.03" x2="92.55" y1="47.76" y2="41.68"/>
                      
                <line class="hi" stroke="#FF0D0D" x1="91.33" x2="86.07" y1="39.57" y2="42.61"/>
                <line class="hi" stroke="#FF0D0D" x1="92.55" x2="87.28999999999999" y1="41.68" y2="44.72"/>
            </g>
                  
            <line class="bond" id="mol1bnd27" x1="82.03" x2="82.03" y1="46.35" y2="57.74"/>
                  
            <line class="bond" id="mol1bnd28" x1="78.96" x2="69.74" y1="63.83" y2="70.53"/>
                  
            <line class="bond" id="mol1bnd29" x1="69.74" x2="74.41" y1="70.53" y2="85.06"/>
                  
            <line class="bond" id="mol1bnd30" x1="74.41" x2="89.65" y1="85.06" y2="85.06"/>
                  
            <line class="bond" id="mol1bnd31" x1="89.65" x2="94.33" y1="85.06" y2="70.53"/>
                  
            <line class="bond" id="mol1bnd32" x1="85.1" x2="94.33" y1="63.82" y2="70.53"/>
                  
            <path class="atom" d="M31.18 48.81h-.72l-2.62 -4.07h-.03q.01 .24 .03 .6q.02 .36 .02 .73v2.74h-.57v-4.9h.71l2.61 4.05h.03q-.01 -.11 -.02 -.33q-.01 -.22 -.02 -.48q-.01 -.26 -.01 -.48v-2.77h.58v4.9z" fill="#3050F8" id="mol1atm4" stroke="none"/>
                  
            <path class="atom" d="M5.08 61.6q.0 .76 -.26 1.33q-.26 .57 -.76 .88q-.5 .32 -1.24 .32q-.76 .0 -1.26 -.32q-.51 -.32 -.76 -.89q-.24 -.57 -.24 -1.33q.0 -.75 .24 -1.31q.25 -.57 .76 -.88q.51 -.32 1.27 -.32q.73 .0 1.23 .32q.5 .31 .76 .88q.26 .57 .26 1.33zM1.21 61.6q.0 .92 .39 1.46q.39 .53 1.22 .53q.84 .0 1.22 -.53q.39 -.54 .39 -1.46q.0 -.93 -.39 -1.45q-.38 -.52 -1.21 -.52q-.83 .0 -1.23 .52q-.39 .52 -.39 1.45z" id="mol1atm7" stroke="none"/>
                  
            <path class="atom" d="M97.48 38.72q.0 .76 -.26 1.33q-.26 .57 -.76 .88q-.5 .32 -1.24 .32q-.76 .0 -1.26 -.32q-.51 -.32 -.76 -.89q-.24 -.57 -.24 -1.33q.0 -.75 .24 -1.31q.25 -.57 .76 -.88q.51 -.32 1.27 -.32q.73 .0 1.23 .32q.5 .31 .76 .88q.26 .57 .26 1.33zM93.62 38.72q.0 .92 .39 1.46q.39 .53 1.22 .53q.84 .0 1.22 -.53q.39 -.54 .39 -1.46q.0 -.93 -.39 -1.45q-.38 -.52 -1.21 -.52q-.83 .0 -1.23 .52q-.39 .52 -.39 1.45z" id="mol1atm24" stroke="none"/>
                  
            <path class="atom" d="M83.97 64.04h-.72l-2.62 -4.07h-.03q.01 .24 .03 .6q.02 .36 .02 .73v2.74h-.57v-4.9h.71l2.61 4.05h.03q-.01 -.11 -.02 -.33q-.01 -.22 -.02 -.48q-.01 -.26 -.01 -.48v-2.77h.58v4.9z" fill="#3050F8" id="mol1atm25" stroke="none"/>
                
            <line class="hi" id="mol1bnd3" stroke="#3050F8" x1="32.39" x2="37.41" y1="44.54" y2="41.64"/>
            <line class="hi" id="mol1bnd4" stroke="#3050F8" x1="29.24" x2="29.24" y1="50.21" y2="55.905"/>
            <line class="hi" id="mol1bnd6" stroke="#FF0D0D" x1="6.1" x2="11.065000000000001" y1="63.49" y2="66.355"/>
            <line class="hi" id="mol1bnd7" stroke="#FF0D0D" x1="2.82" x2="2.82" y1="57.68" y2="52.019999999999996"/>
            <line class="hi" id="mol1bnd9" stroke="#3050F8" x1="26.08" x2="21.055" y1="44.54" y2="41.64"/>
            <line class="hi" id="mol1bnd27" stroke="#3050F8" x1="82.03" x2="82.03" y1="57.74" y2="52.045"/>
            <line class="hi" id="mol1bnd28" stroke="#3050F8" x1="78.96" x2="74.35" y1="63.83" y2="67.18"/>
            <line class="hi" id="mol1bnd32" stroke="#3050F8" x1="85.1" x2="89.715" y1="63.82" y2="67.175"/>
        </g>
          
    </g>
    
</svg>
