<svg xmlns="http://www.w3.org/2000/svg" xmlns:xlink="http://www.w3.org/1999/xlink" height="102.9mm" version="1.2" viewBox="0 0 117.93 102.9" width="117.93mm">
      
    <desc>Generated by the Chemistry Development Kit (http://github.com/cdk)</desc>
      
    <g fill="#FF0D0D" stroke="#000000" stroke-linecap="round" stroke-linejoin="round" stroke-width=".7">
            
        <rect fill="#FFFFFF" height="103.0" stroke="none" width="118.0" x=".0" y=".0"/>
            
        <g class="mol" id="mol1">
                  
            <line class="bond" id="mol1bnd1" x1="1.07" x2="1.07" y1="31.32" y2="16.08"/>
                  
            <line class="bond" id="mol1bnd2" x1="1.07" x2="11.11" y1="16.08" y2="10.29"/>
                  
            <line class="bond" id="mol1bnd3" x1="17.41" x2="27.45" y1="10.29" y2="16.1"/>
                  
            <line class="bond" id="mol1bnd4" x1="27.45" x2="27.45" y1="16.1" y2="31.34"/>
                  
            <line class="bond" id="mol1bnd5" x1="27.45" x2="14.26" y1="31.34" y2="38.95"/>
                  
            <line class="bond" id="mol1bnd6" x1="1.07" x2="14.26" y1="31.32" y2="38.95"/>
                  
            <g class="bond" id="mol1bnd7">
                        
                <line x1="14.61" x2="13.91" y1="38.95" y2="38.95"/>
                        
                <line x1="14.9" x2="13.62" y1="41.49" y2="41.49"/>
                        
                <line x1="15.19" x2="13.33" y1="44.03" y2="44.03"/>
                        
                <line x1="15.48" x2="13.03" y1="46.57" y2="46.57"/>
                        
                <line x1="15.77" x2="12.74" y1="49.11" y2="49.1"/>
                        
                <line x1="16.06" x2="12.45" y1="51.64" y2="51.64"/>
                        
                <line x1="16.35" x2="12.15" y1="54.18" y2="54.18"/>
                      
            </g>
                  
            <g class="bond" id="mol1bnd8">
                        
                <line x1="27.44" x2="14.25" y1="61.81" y2="54.18"/>
                        
                <line x1="25.0" x2="14.25" y1="63.21" y2="57.0"/>
                      
            </g>
                  
            <line class="bond" id="mol1bnd9" x1="27.44" x2="27.42" y1="61.81" y2="77.05"/>
                  
            <g class="bond" id="mol1bnd10">
                        
                <line x1="14.22" x2="27.42" y1="84.66" y2="77.05"/>
                        
                <line x1="14.23" x2="24.99" y1="81.85" y2="75.64"/>
                      
            </g>
                  
            <line class="bond" id="mol1bnd11" x1="14.22" x2="1.04" y1="84.66" y2="77.04"/>
                  
            <g class="bond" id="mol1bnd12">
                        
                <line x1="1.05" x2="1.04" y1="61.8" y2="77.04"/>
                        
                <line x1="3.49" x2="3.48" y1="63.21" y2="75.63"/>
                      
            </g>
                  
            <line class="bond" id="mol1bnd13" x1="14.25" x2="1.05" y1="54.18" y2="61.8"/>
                  
            <line class="bond" id="mol1bnd14" x1="14.22" x2="14.22" y1="84.66" y2="96.04"/>
                  
            <path class="bond" d="M27.63 31.04l-.35 .61l11.74 8.65l1.97 -1.14l2.25 -1.3z" fill="#000000" id="mol1bnd15" stroke="none"/>
                  
            <line class="bond" id="mol1bnd16" x1="40.64" x2="50.55" y1="38.96" y2="33.24"/>
                  
            <line class="bond" id="mol1bnd17" x1="57.11" x2="67.03" y1="33.24" y2="38.96"/>
                  
            <g class="bond" id="mol1bnd18">
                        
                <line x1="80.23" x2="67.03" y1="31.35" y2="38.96"/>
                        
                <line x1="80.23" x2="69.46" y1="34.16" y2="40.37"/>
                      
            </g>
                  
            <line class="bond" id="mol1bnd19" x1="80.23" x2="93.43" y1="31.35" y2="38.96"/>
                  
            <g class="bond" id="mol1bnd20">
                        
                <line x1="93.43" x2="93.43" y1="54.19" y2="38.96"/>
                        
                <line x1="90.99" x2="90.99" y1="52.78" y2="40.37"/>
                      
            </g>
                  
            <line class="bond" id="mol1bnd21" x1="93.43" x2="80.23" y1="54.19" y2="61.81"/>
                  
            <g class="bond" id="mol1bnd22">
                        
                <line x1="67.03" x2="80.23" y1="54.19" y2="61.81"/>
                        
                <line x1="69.46" x2="80.23" y1="52.78" y2="58.99"/>
                      
            </g>
                  
            <line class="bond" id="mol1bnd23" x1="67.03" x2="67.03" y1="38.96" y2="54.19"/>
                  
            <line class="bond" id="mol1bnd24" x1="93.43" x2="104.36" y1="54.19" y2="57.71"/>
                  
            <line class="bond" id="mol1bnd25" x1="110.27" x2="116.88" y1="55.68" y2="46.58"/>
                  
            <line class="bond" id="mol1bnd26" x1="116.88" x2="110.26" y1="46.58" y2="37.47"/>
                  
            <line class="bond" id="mol1bnd27" x1="93.43" x2="104.36" y1="38.96" y2="35.45"/>
                  
            <g class="atom" id="mol1atm3">
                        
                <path d="M16.2 10.92h-.72l-2.62 -4.07h-.03q.01 .24 .03 .6q.02 .36 .02 .73v2.74h-.57v-4.9h.71l2.61 4.05h.03q-.01 -.11 -.02 -.33q-.01 -.22 -.02 -.48q-.01 -.26 -.01 -.48v-2.77h.58v4.9z" fill="#3050F8" stroke="none"/>
                        
                <path d="M16.06 5.46h-.62v-2.29h-2.51v2.29h-.61v-4.9h.61v2.07h2.51v-2.07h.62v4.9z" fill="#3050F8" stroke="none"/>
                      
            </g>
                  
            <path class="atom" d="M13.46 102.34h-.61v-4.9h2.73v.54h-2.12v1.74h1.99v.54h-1.99v2.08z" fill="#90E050" id="mol1atm13" stroke="none"/>
                  
            <path class="atom" d="M56.1 31.34q.0 .76 -.26 1.33q-.26 .57 -.76 .88q-.5 .32 -1.24 .32q-.76 .0 -1.26 -.32q-.51 -.32 -.76 -.89q-.24 -.57 -.24 -1.33q.0 -.75 .24 -1.31q.25 -.57 .76 -.88q.51 -.32 1.27 -.32q.73 .0 1.23 .32q.5 .31 .76 .88q.26 .57 .26 1.33zM52.23 31.34q.0 .92 .39 1.46q.39 .53 1.22 .53q.84 .0 1.22 -.53q.39 -.54 .39 -1.46q.0 -.93 -.39 -1.45q-.38 -.52 -1.21 -.52q-.83 .0 -1.23 .52q-.39 .52 -.39 1.45z" id="mol1atm15" stroke="none"/>
                  
            <path class="atom" d="M110.21 58.86q.0 .76 -.26 1.33q-.26 .57 -.76 .88q-.5 .32 -1.24 .32q-.76 .0 -1.26 -.32q-.51 -.32 -.76 -.89q-.24 -.57 -.24 -1.33q.0 -.75 .24 -1.31q.25 -.57 .76 -.88q.51 -.32 1.27 -.32q.73 .0 1.23 .32q.5 .31 .76 .88q.26 .57 .26 1.33zM106.34 58.86q.0 .92 .39 1.46q.39 .53 1.22 .53q.84 .0 1.22 -.53q.39 -.54 .39 -1.46q.0 -.93 -.39 -1.45q-.38 -.52 -1.21 -.52q-.83 .0 -1.23 .52q-.39 .52 -.39 1.45z" id="mol1atm22" stroke="none"/>
                  
            <path class="atom" d="M110.21 34.29q.0 .76 -.26 1.33q-.26 .57 -.76 .88q-.5 .32 -1.24 .32q-.76 .0 -1.26 -.32q-.51 -.32 -.76 -.89q-.24 -.57 -.24 -1.33q.0 -.75 .24 -1.31q.25 -.57 .76 -.88q.51 -.32 1.27 -.32q.73 .0 1.23 .32q.5 .31 .76 .88q.26 .57 .26 1.33zM106.34 34.29q.0 .92 .39 1.46q.39 .53 1.22 .53q.84 .0 1.22 -.53q.39 -.54 .39 -1.46q.0 -.93 -.39 -1.45q-.38 -.52 -1.21 -.52q-.83 .0 -1.23 .52q-.39 .52 -.39 1.45z" id="mol1atm24" stroke="none"/>
                
            <line class="hi" id="mol1bnd2" stroke="#3050F8" x1="11.11" x2="6.09" y1="10.29" y2="13.184999999999999"/>
            <line class="hi" id="mol1bnd2" stroke="#3050F8" x1="11.11" x2="6.09" y1="10.29" y2="13.184999999999999"/>
            <line class="hi" id="mol1bnd3" stroke="#3050F8" x1="17.41" x2="22.43" y1="10.29" y2="13.195"/>
            <line class="hi" id="mol1bnd3" stroke="#3050F8" x1="17.41" x2="22.43" y1="10.29" y2="13.195"/>
            <line class="hi" id="mol1bnd14" stroke="#90E050" x1="14.22" x2="14.22" y1="96.04" y2="90.35"/>
            <line class="hi" id="mol1bnd16" stroke="#FF0D0D" x1="50.55" x2="45.595" y1="33.24" y2="36.1"/>
            <line class="hi" id="mol1bnd17" stroke="#FF0D0D" x1="57.11" x2="62.07" y1="33.24" y2="36.1"/>
            <line class="hi" id="mol1bnd24" stroke="#FF0D0D" x1="104.36" x2="98.89500000000001" y1="57.71" y2="55.95"/>
            <line class="hi" id="mol1bnd25" stroke="#FF0D0D" x1="110.27" x2="113.57499999999999" y1="55.68" y2="51.129999999999995"/>
            <line class="hi" id="mol1bnd26" stroke="#FF0D0D" x1="110.26" x2="113.57" y1="37.47" y2="42.025"/>
            <line class="hi" id="mol1bnd27" stroke="#FF0D0D" x1="104.36" x2="98.89500000000001" y1="35.45" y2="37.205"/>
        </g>
          
    </g>
    
</svg>
