<svg xmlns="http://www.w3.org/2000/svg" xmlns:xlink="http://www.w3.org/1999/xlink" height="55.14mm" version="1.2" viewBox="0 0 92.98 55.14" width="92.98mm">
      
    <desc>Generated by the Chemistry Development Kit (http://github.com/cdk)</desc>
      
    <g fill="#3050F8" stroke="#000000" stroke-linecap="round" stroke-linejoin="round" stroke-width=".7">
            
        <rect fill="#FFFFFF" height="56.0" stroke="none" width="93.0" x=".0" y=".0"/>
            
        <g class="mol" id="mol1">
                  
            <g class="bond" id="mol1bnd1">
                        
                <line x1="1.05" x2="4.26" y1="11.29" y2="26.2"/>
                        
                <line x1="3.73" x2="6.35" y1="12.15" y2="24.31"/>
                      
            </g>
                  
            <line class="bond" id="mol1bnd2" x1="4.26" x2="18.76" y1="26.2" y2="30.87"/>
                  
            <g class="bond" id="mol1bnd3">
                        
                <line x1="18.76" x2="30.07" y1="30.87" y2="20.64"/>
                        
                <line x1="18.17" x2="27.39" y1="28.12" y2="19.77"/>
                      
            </g>
                  
            <line class="bond" id="mol1bnd4" x1="30.07" x2="26.86" y1="20.64" y2="5.73"/>
                  
            <g class="bond" id="mol1bnd5">
                        
                <line x1="26.86" x2="12.36" y1="5.73" y2="1.05"/>
                        
                <line x1="24.78" x2="12.95" y1="7.62" y2="3.81"/>
                      
            </g>
                  
            <line class="bond" id="mol1bnd6" x1="1.05" x2="12.36" y1="11.29" y2="1.05"/>
                  
            <line class="bond" id="mol1bnd7" x1="30.07" x2="44.57" y1="20.64" y2="25.31"/>
                  
            <line class="bond" id="mol1bnd8" x1="44.57" x2="49.25" y1="25.31" y2="39.74"/>
                  
            <g class="bond" id="mol1bnd9">
                        
                <line x1="50.75" x2="43.59" y1="39.74" y2="49.59"/>
                        
                <line x1="48.78" x2="41.61" y1="38.3" y2="48.16"/>
                      
                <line class="hi" stroke="#FF0D0D" x1="43.59" x2="47.17" y1="49.59" y2="44.665000000000006"/>
                <line class="hi" stroke="#FF0D0D" x1="41.61" x2="45.195" y1="48.16" y2="43.23"/>
            </g>
                  
            <line class="bond" id="mol1bnd10" x1="49.25" x2="61.14" y1="39.74" y2="39.74"/>
                  
            <g class="bond" id="mol1bnd11">
                        
                <line x1="65.71" x2="69.16" y1="35.95" y2="25.31"/>
                        
                <line x1="63.39" x2="66.3" y1="35.2" y2="26.23"/>
                      
                <line class="hi" stroke="#3050F8" x1="65.71" x2="67.435" y1="35.95" y2="30.630000000000003"/>
                <line class="hi" stroke="#3050F8" x1="63.39" x2="64.845" y1="35.2" y2="30.715000000000003"/>
            </g>
                  
            <line class="bond" id="mol1bnd12" x1="69.16" x2="59.95" y1="25.31" y2="18.53"/>
                  
            <line class="bond" id="mol1bnd13" x1="44.57" x2="53.78" y1="25.31" y2="18.54"/>
                  
            <line class="bond" id="mol1bnd14" x1="69.16" x2="80.39" y1="25.31" y2="21.69"/>
                  
            <path class="atom" d="M42.54 52.06q.0 .76 -.26 1.33q-.26 .57 -.76 .88q-.5 .32 -1.24 .32q-.76 .0 -1.26 -.32q-.51 -.32 -.76 -.89q-.24 -.57 -.24 -1.33q.0 -.75 .24 -1.31q.25 -.57 .76 -.88q.51 -.32 1.27 -.32q.73 .0 1.23 .32q.5 .31 .76 .88q.26 .57 .26 1.33zM38.68 52.06q.0 .92 .39 1.46q.39 .53 1.22 .53q.84 .0 1.22 -.53q.39 -.54 .39 -1.46q.0 -.93 -.39 -1.45q-.38 -.52 -1.21 -.52q-.83 .0 -1.23 .52q-.39 .52 -.39 1.45z" fill="#FF0D0D" id="mol1atm9" stroke="none"/>
                  
            <path class="atom" d="M66.43 42.19h-.72l-2.62 -4.07h-.03q.01 .24 .03 .6q.02 .36 .02 .73v2.74h-.57v-4.9h.71l2.61 4.05h.03q-.01 -.11 -.02 -.33q-.01 -.22 -.02 -.48q-.01 -.26 -.01 -.48v-2.77h.58v4.9z" id="mol1atm10" stroke="none"/>
                  
            <path class="atom" d="M59.12 16.26q.0 .76 -.26 1.33q-.26 .57 -.76 .88q-.5 .32 -1.24 .32q-.76 .0 -1.26 -.32q-.51 -.32 -.76 -.89q-.24 -.57 -.24 -1.33q.0 -.75 .24 -1.31q.25 -.57 .76 -.88q.51 -.32 1.27 -.32q.73 .0 1.23 .32q.5 .31 .76 .88q.26 .57 .26 1.33zM55.26 16.26q.0 .92 .39 1.46q.39 .53 1.22 .53q.84 .0 1.22 -.53q.39 -.54 .39 -1.46q.0 -.93 -.39 -1.45q-.38 -.52 -1.21 -.52q-.83 .0 -1.23 .52q-.39 .52 -.39 1.45z" fill="#FF0D0D" id="mol1atm12" stroke="none"/>
                  
            <g class="atom" id="mol1atm13">
                        
                <path d="M85.61 23.09h-.72l-2.62 -4.07h-.03q.01 .24 .03 .6q.02 .36 .02 .73v2.74h-.57v-4.9h.71l2.61 4.05h.03q-.01 -.11 -.02 -.33q-.01 -.22 -.02 -.48q-.01 -.26 -.01 -.48v-2.77h.58v4.9z" stroke="none"/>
                        
                <path d="M89.91 23.09h-.62v-2.29h-2.51v2.29h-.61v-4.9h.61v2.07h2.51v-2.07h.62v4.9z" stroke="none"/>
                        
                <path d="M92.42 24.58h-1.94v-.3l.77 -.78q.22 -.22 .37 -.39q.15 -.18 .23 -.34q.08 -.17 .08 -.36q.0 -.24 -.15 -.37q-.14 -.13 -.37 -.13q-.21 .0 -.38 .08q-.16 .08 -.33 .21l-.19 -.24q.17 -.15 .39 -.25q.23 -.1 .51 -.1q.41 .0 .65 .21q.24 .21 .24 .58q.0 .23 -.1 .43q-.09 .2 -.26 .4q-.17 .2 -.39 .42l-.61 .6v.02h1.49v.33z" stroke="none"/>
                      
            </g>
                
            <line class="hi" id="mol1bnd10" stroke="#3050F8" x1="61.14" x2="55.195" y1="39.74" y2="39.74"/>
            <line class="hi" id="mol1bnd12" stroke="#FF0D0D" x1="59.95" x2="64.555" y1="18.53" y2="21.92"/>
            <line class="hi" id="mol1bnd13" stroke="#FF0D0D" x1="53.78" x2="49.175" y1="18.54" y2="21.924999999999997"/>
            <line class="hi" id="mol1bnd14" stroke="#3050F8" x1="80.39" x2="74.775" y1="21.69" y2="23.5"/>
        </g>
          
    </g>
    
</svg>
