<svg xmlns="http://www.w3.org/2000/svg" xmlns:xlink="http://www.w3.org/1999/xlink" height="77.76mm" version="1.2" viewBox="0 0 126.88 77.76" width="126.88mm">
      
    <desc>Generated by the Chemistry Development Kit (http://github.com/cdk)</desc>
      
    <g fill="#FF0D0D" stroke="#000000" stroke-linecap="round" stroke-linejoin="round" stroke-width=".7">
            
        <rect fill="#FFFFFF" height="78.0" stroke="none" width="127.0" x=".0" y=".0"/>
            
        <g class="mol" id="mol1">
                  
            <line class="bond" id="mol1bnd1" x1="10.77" x2="22.23" y1="66.21" y2="64.66"/>
                  
            <g class="bond" id="mol1bnd2">
                        
                <line x1="28.0" x2="22.23" y1="50.56" y2="64.66"/>
                        
                <line x1="29.73" x2="25.02" y1="52.78" y2="64.28"/>
                      
            </g>
                  
            <line class="bond" id="mol1bnd3" x1="28.0" x2="43.1" y1="50.56" y2="48.5"/>
                  
            <line class="bond" id="mol1bnd4" x1="43.1" x2="45.15" y1="48.5" y2="33.38"/>
                  
            <line class="bond" id="mol1bnd5" x1="45.15" x2="31.96" y1="33.38" y2="25.74"/>
                  
            <line class="bond" id="mol1bnd6" x1="45.15" x2="57.52" y1="33.38" y2="51.78"/>
                  
            <line class="bond" id="mol1bnd7" x1="57.52" x2="47.46" y1="51.78" y2="69.2"/>
                  
            <line class="bond" id="mol1bnd8" x1="57.52" x2="79.64" y1="51.78" y2="53.29"/>
                  
            <line class="bond" id="mol1bnd9" x1="79.64" x2="67.57" y1="53.29" y2="62.62"/>
                  
            <line class="bond" id="mol1bnd10" x1="67.57" x2="52.44" y1="62.62" y2="60.58"/>
                  
            <g class="bond" id="mol1bnd11">
                        
                <line x1="52.44" x2="43.1" y1="60.58" y2="48.5"/>
                        
                <line x1="49.65" x2="42.04" y1="60.96" y2="51.11"/>
                      
            </g>
                  
            <line class="bond" id="mol1bnd12" x1="52.44" x2="46.65" y1="60.58" y2="74.67"/>
                  
            <g class="bond" id="mol1bnd13">
                        
                <line x1="31.55" x2="46.65" y1="76.71" y2="74.67"/>
                        
                <line x1="32.61" x2="44.92" y1="74.11" y2="72.45"/>
                      
            </g>
                  
            <line class="bond" id="mol1bnd14" x1="22.23" x2="31.55" y1="64.66" y2="76.71"/>
                  
            <line class="bond" id="mol1bnd15" x1="79.64" x2="81.13" y1="53.29" y2="42.09"/>
                  
            <line class="bond" id="mol1bnd16" x1="84.93" x2="96.36" y1="37.38" y2="34.33"/>
                  
            <line class="bond" id="mol1bnd17" x1="96.36" x2="100.34" y1="34.33" y2="19.62"/>
                  
            <g class="bond" id="mol1bnd18">
                        
                <line x1="100.34" x2="115.06" y1="19.62" y2="15.7"/>
                        
                <line x1="102.32" x2="114.33" y1="21.62" y2="18.42"/>
                      
            </g>
                  
            <line class="bond" id="mol1bnd19" x1="115.06" x2="119.03" y1="15.7" y2=".99"/>
                  
            <line class="bond" id="mol1bnd20" x1="115.06" x2="125.82" y1="15.7" y2="26.5"/>
                  
            <line class="bond" id="mol1bnd21" x1="78.92" x2="72.35" y1="34.69" y2="26.09"/>
                  
            <line class="bond" id="mol1bnd22" x1="72.35" x2="57.18" y1="26.09" y2="24.13"/>
                  
            <line class="bond" id="mol1bnd23" x1="45.15" x2="57.18" y1="33.38" y2="24.13"/>
                  
            <g class="atom" id="mol1atm1">
                        
                <path d="M9.38 66.7q.0 .76 -.26 1.33q-.26 .57 -.76 .88q-.5 .32 -1.24 .32q-.76 .0 -1.26 -.32q-.51 -.32 -.76 -.89q-.24 -.57 -.24 -1.33q.0 -.75 .24 -1.31q.25 -.57 .76 -.88q.51 -.32 1.27 -.32q.73 .0 1.23 .32q.5 .31 .76 .88q.26 .57 .26 1.33zM5.52 66.7q.0 .92 .39 1.46q.39 .53 1.22 .53q.84 .0 1.22 -.53q.39 -.54 .39 -1.46q.0 -.93 -.39 -1.45q-.38 -.52 -1.21 -.52q-.83 .0 -1.23 .52q-.39 .52 -.39 1.45z" stroke="none"/>
                        
                <path d="M4.3 69.15h-.62v-2.29h-2.51v2.29h-.61v-4.9h.61v2.07h2.51v-2.07h.62v4.9z" stroke="none"/>
                      
            </g>
                  
            <path class="atom" d="M83.58 40.7h-.72l-2.62 -4.07h-.03q.01 .24 .03 .6q.02 .36 .02 .73v2.74h-.57v-4.9h.71l2.61 4.05h.03q-.01 -.11 -.02 -.33q-.01 -.22 -.02 -.48q-.01 -.26 -.01 -.48v-2.77h.58v4.9z" fill="#3050F8" id="mol1atm14" stroke="none"/>
                
            <line class="hi" id="mol1bnd1" stroke="#FF0D0D" x1="10.77" x2="16.5" y1="66.21" y2="65.435"/>
            <line class="hi" id="mol1bnd1" stroke="#FF0D0D" x1="10.77" x2="16.5" y1="66.21" y2="65.435"/>
            <line class="hi" id="mol1bnd15" stroke="#3050F8" x1="81.13" x2="80.38499999999999" y1="42.09" y2="47.69"/>
            <line class="hi" id="mol1bnd16" stroke="#3050F8" x1="84.93" x2="90.64500000000001" y1="37.38" y2="35.855000000000004"/>
            <line class="hi" id="mol1bnd21" stroke="#3050F8" x1="78.92" x2="75.63499999999999" y1="34.69" y2="30.39"/>
        </g>
          
    </g>
    
</svg>
