<svg xmlns="http://www.w3.org/2000/svg" xmlns:xlink="http://www.w3.org/1999/xlink" height="34.54mm" version="1.2" viewBox="0 0 76.35 34.54" width="76.35mm">
      
    <desc>Generated by the Chemistry Development Kit (http://github.com/cdk)</desc>
      
    <g fill="#3050F8" stroke="#000000" stroke-linecap="round" stroke-linejoin="round" stroke-width=".7">
            
        <rect fill="#FFFFFF" height="35.0" stroke="none" width="77.0" x=".0" y=".0"/>
            
        <g class="mol" id="mol1">
                  
            <line class="bond" id="mol1bnd1" x1="22.51" x2="35.71" y1="10.63" y2="3.01"/>
                  
            <line class="bond" id="mol1bnd2" x1="35.71" x2="48.91" y1="3.01" y2="10.63"/>
                  
            <g class="bond" id="mol1bnd3">
                        
                <line x1="62.11" x2="48.91" y1="3.0" y2="10.63"/>
                        
                <line x1="62.11" x2="51.34" y1="5.82" y2="12.04"/>
                      
            </g>
                  
            <line class="bond" id="mol1bnd4" x1="62.11" x2="75.31" y1="3.0" y2="10.62"/>
                  
            <g class="bond" id="mol1bnd5">
                        
                <line x1="75.3" x2="75.31" y1="25.87" y2="10.62"/>
                        
                <line x1="72.86" x2="72.87" y1="24.46" y2="12.03"/>
                      
            </g>
                  
            <line class="bond" id="mol1bnd6" x1="75.3" x2="62.1" y1="25.87" y2="33.5"/>
                  
            <g class="bond" id="mol1bnd7">
                        
                <line x1="48.9" x2="62.1" y1="25.88" y2="33.5"/>
                        
                <line x1="51.34" x2="62.1" y1="24.47" y2="30.68"/>
                      
            </g>
                  
            <line class="bond" id="mol1bnd8" x1="48.91" x2="48.9" y1="10.63" y2="25.88"/>
                  
            <line class="bond" id="mol1bnd9" x1="22.51" x2="12.46" y1="10.63" y2="4.83"/>
                  
            <g class="atom" id="mol1atm9">
                        
                <path d="M11.25 5.46h-.72l-2.62 -4.07h-.03q.01 .24 .03 .6q.02 .36 .02 .73v2.74h-.57v-4.9h.71l2.61 4.05h.03q-.01 -.11 -.02 -.33q-.01 -.22 -.02 -.48q-.01 -.26 -.01 -.48v-2.77h.58v4.9z" stroke="none"/>
                        
                <path d="M4.3 5.46h-.62v-2.29h-2.51v2.29h-.61v-4.9h.61v2.07h2.51v-2.07h.62v4.9z" stroke="none"/>
                        
                <path d="M6.81 6.95h-1.94v-.3l.77 -.78q.22 -.22 .37 -.39q.15 -.18 .23 -.34q.08 -.17 .08 -.36q.0 -.24 -.15 -.37q-.14 -.13 -.37 -.13q-.21 .0 -.38 .08q-.16 .08 -.33 .21l-.19 -.24q.17 -.15 .39 -.25q.23 -.1 .51 -.1q.41 .0 .65 .21q.24 .21 .24 .58q.0 .23 -.1 .43q-.09 .2 -.26 .4q-.17 .2 -.39 .42l-.61 .6v.02h1.49v.33z" stroke="none"/>
                      
            </g>
                
            <line class="hi" id="mol1bnd9" stroke="#3050F8" x1="12.46" x2="17.485" y1="4.83" y2="7.73"/>
            <line class="hi" id="mol1bnd9" stroke="#3050F8" x1="12.46" x2="17.485" y1="4.83" y2="7.73"/>
        </g>
          
    </g>
    
</svg>
