<svg xmlns="http://www.w3.org/2000/svg" xmlns:xlink="http://www.w3.org/1999/xlink" height="91.97mm" version="1.2" viewBox="0 0 101.99 91.97" width="101.99mm">
      
    <desc>Generated by the Chemistry Development Kit (http://github.com/cdk)</desc>
      
    <g fill="#3050F8" stroke="#000000" stroke-linecap="round" stroke-linejoin="round" stroke-width=".7">
            
        <rect fill="#FFFFFF" height="92.0" stroke="none" width="102.0" x=".0" y=".0"/>
            
        <g class="mol" id="mol1">
                  
            <line class="bond" id="mol1bnd1" x1="101.01" x2="86.09" y1="6.13" y2="9.24"/>
                  
            <line class="bond" id="mol1bnd2" x1="86.09" x2="81.34" y1="9.24" y2="23.72"/>
                  
            <line class="bond" id="mol1bnd3" x1="81.34" x2="69.73" y1="23.72" y2="26.15"/>
                  
            <line class="bond" id="mol1bnd4" x1="65.18" x2="61.66" y1="30.62" y2="41.32"/>
                  
            <line class="bond" id="mol1bnd5" x1="61.66" x2="46.74" y1="41.32" y2="44.44"/>
                  
            <line class="bond" id="mol1bnd6" x1="46.74" x2="41.98" y1="44.44" y2="58.91"/>
                  
            <g class="bond" id="mol1bnd7">
                        
                <line x1="50.92" x2="41.98" y1="71.21" y2="58.91"/>
                        
                <line x1="47.91" x2="41.05" y1="71.21" y2="61.77"/>
                      
            </g>
                  
            <line class="bond" id="mol1bnd8" x1="50.92" x2="44.59" y1="71.21" y2="79.92"/>
                  
            <line class="bond" id="mol1bnd9" x1="38.71" x2="27.45" y1="82.43" y2="78.73"/>
                  
            <g class="bond" id="mol1bnd10">
                        
                <line x1="14.25" x2="27.45" y1="86.35" y2="78.73"/>
                        
                <line x1="14.25" x2="25.03" y1="83.53" y2="77.31"/>
                      
            </g>
                  
            <line class="bond" id="mol1bnd11" x1="14.25" x2="1.04" y1="86.35" y2="78.62"/>
                  
            <g class="bond" id="mol1bnd12">
                        
                <line x1="1.14" x2="1.04" y1="63.38" y2="78.62"/>
                        
                <line x1="3.57" x2="3.49" y1="64.81" y2="77.23"/>
                      
            </g>
                  
            <line class="bond" id="mol1bnd13" x1="1.14" x2="14.35" y1="63.38" y2="55.87"/>
                  
            <g class="bond" id="mol1bnd14">
                        
                <line x1="27.56" x2="14.35" y1="63.49" y2="55.87"/>
                        
                <line x1="25.11" x2="14.34" y1="64.89" y2="58.68"/>
                      
            </g>
                  
            <line class="bond" id="mol1bnd15" x1="27.45" x2="27.56" y1="78.73" y2="63.49"/>
                  
            <line class="bond" id="mol1bnd16" x1="41.98" x2="27.56" y1="58.91" y2="63.49"/>
                  
            <line class="bond" id="mol1bnd17" x1="63.54" x2="56.26" y1="23.63" y2="15.48"/>
                  
            <line class="bond" id="mol1bnd18" x1="56.26" x2="61.02" y1="15.48" y2="1.0"/>
                  
            <line class="bond" id="mol1bnd19" x1="56.26" x2="41.34" y1="15.48" y2="18.6"/>
                  
            <path class="atom" d="M68.36 29.29h-.72l-2.62 -4.07h-.03q.01 .24 .03 .6q.02 .36 .02 .73v2.74h-.57v-4.9h.71l2.61 4.05h.03q-.01 -.11 -.02 -.33q-.01 -.22 -.02 -.48q-.01 -.26 -.01 -.48v-2.77h.58v4.9z" id="mol1atm4" stroke="none"/>
                  
            <g class="atom" id="mol1atm9">
                        
                <path d="M43.92 85.95h-.72l-2.62 -4.07h-.03q.01 .24 .03 .6q.02 .36 .02 .73v2.74h-.57v-4.9h.71l2.61 4.05h.03q-.01 -.11 -.02 -.33q-.01 -.22 -.02 -.48q-.01 -.26 -.01 -.48v-2.77h.58v4.9z" stroke="none"/>
                        
                <path d="M43.79 91.41h-.62v-2.29h-2.51v2.29h-.61v-4.9h.61v2.07h2.51v-2.07h.62v4.9z" stroke="none"/>
                      
            </g>
                
            <line class="hi" id="mol1bnd3" stroke="#3050F8" x1="69.73" x2="75.535" y1="26.15" y2="24.935"/>
            <line class="hi" id="mol1bnd4" stroke="#3050F8" x1="65.18" x2="63.42" y1="30.62" y2="35.97"/>
            <line class="hi" id="mol1bnd8" stroke="#3050F8" x1="44.59" x2="47.755" y1="79.92" y2="75.565"/>
            <line class="hi" id="mol1bnd9" stroke="#3050F8" x1="38.71" x2="33.08" y1="82.43" y2="80.58000000000001"/>
            <line class="hi" id="mol1bnd17" stroke="#3050F8" x1="63.54" x2="59.9" y1="23.63" y2="19.555"/>
        </g>
          
    </g>
    
</svg>
