<svg xmlns="http://www.w3.org/2000/svg" xmlns:xlink="http://www.w3.org/1999/xlink" height="67.04mm" version="1.2" viewBox="0 0 58.95 67.04" width="58.95mm">
      
    <desc>Generated by the Chemistry Development Kit (http://github.com/cdk)</desc>
      
    <g fill="#3050F8" stroke="#000000" stroke-linecap="round" stroke-linejoin="round" stroke-width=".7">
            
        <rect fill="#FFFFFF" height="68.0" stroke="none" width="59.0" x=".0" y=".0"/>
            
        <g class="mol" id="mol1">
                  
            <line class="bond" id="mol1bnd1" x1="21.63" x2="36.87" y1="1.0" y2="1.0"/>
                  
            <line class="bond" id="mol1bnd2" x1="36.87" x2="41.64" y1="1.0" y2="15.53"/>
                  
            <g class="bond" id="mol1bnd3">
                        
                <line x1="41.17" x2="52.92" y1="14.1" y2="17.91"/>
                        
                <line x1="40.42" x2="52.17" y1="16.41" y2="20.23"/>
                      
                <line class="hi" stroke="#FF0D0D" x1="52.92" x2="47.045" y1="17.91" y2="16.005"/>
                <line class="hi" stroke="#FF0D0D" x1="52.17" x2="46.295" y1="20.23" y2="18.32"/>
            </g>
                  
            <line class="bond" id="mol1bnd4" x1="41.64" x2="32.32" y1="15.53" y2="22.25"/>
                  
            <line class="bond" id="mol1bnd5" x1="26.17" x2="16.95" y1="22.24" y2="15.53"/>
                  
            <line class="bond" id="mol1bnd6" x1="21.63" x2="16.95" y1="1.0" y2="15.53"/>
                  
            <line class="bond" id="mol1bnd7" x1="29.24" x2="29.22" y1="28.32" y2="39.71"/>
                  
            <line class="bond" id="mol1bnd8" x1="29.22" x2="16.0" y1="39.71" y2="47.31"/>
                  
            <g class="bond" id="mol1bnd9">
                        
                <line x1="16.0" x2="5.48" y1="48.71" y2="42.61"/>
                        
                <line x1="17.22" x2="6.7" y1="46.6" y2="40.5"/>
                      
                <line class="hi" stroke="#FF0D0D" x1="5.48" x2="10.74" y1="42.61" y2="45.66"/>
                <line class="hi" stroke="#FF0D0D" x1="6.699999999999999" x2="11.959999999999999" y1="40.5" y2="43.55"/>
            </g>
                  
            <line class="bond" id="mol1bnd10" x1="16.0" x2="15.98" y1="47.31" y2="58.7"/>
                  
            <path class="atom" d="M58.39 20.24q.0 .76 -.26 1.33q-.26 .57 -.76 .88q-.5 .32 -1.24 .32q-.76 .0 -1.26 -.32q-.51 -.32 -.76 -.89q-.24 -.57 -.24 -1.33q.0 -.75 .24 -1.31q.25 -.57 .76 -.88q.51 -.32 1.27 -.32q.73 .0 1.23 .32q.5 .31 .76 .88q.26 .57 .26 1.33zM54.53 20.24q.0 .92 .39 1.46q.39 .53 1.22 .53q.84 .0 1.22 -.53q.39 -.54 .39 -1.46q.0 -.93 -.39 -1.45q-.38 -.52 -1.21 -.52q-.83 .0 -1.23 .52q-.39 .52 -.39 1.45z" fill="#FF0D0D" id="mol1atm4" stroke="none"/>
                  
            <path class="atom" d="M31.19 26.92h-.72l-2.62 -4.07h-.03q.01 .24 .03 .6q.02 .36 .02 .73v2.74h-.57v-4.9h.71l2.61 4.05h.03q-.01 -.11 -.02 -.33q-.01 -.22 -.02 -.48q-.01 -.26 -.01 -.48v-2.77h.58v4.9z" id="mol1atm5" stroke="none"/>
                  
            <path class="atom" d="M5.08 39.66q.0 .76 -.26 1.33q-.26 .57 -.76 .88q-.5 .32 -1.24 .32q-.76 .0 -1.26 -.32q-.51 -.32 -.76 -.89q-.24 -.57 -.24 -1.33q.0 -.75 .24 -1.31q.25 -.57 .76 -.88q.51 -.32 1.27 -.32q.73 .0 1.23 .32q.5 .31 .76 .88q.26 .57 .26 1.33zM1.21 39.66q.0 .92 .39 1.46q.39 .53 1.22 .53q.84 .0 1.22 -.53q.39 -.54 .39 -1.46q.0 -.93 -.39 -1.45q-.38 -.52 -1.21 -.52q-.83 .0 -1.23 .52q-.39 .52 -.39 1.45z" fill="#FF0D0D" id="mol1atm9" stroke="none"/>
                  
            <g class="atom" id="mol1atm10">
                        
                <path d="M17.91 65.0h-.72l-2.62 -4.07h-.03q.01 .24 .03 .6q.02 .36 .02 .73v2.74h-.57v-4.9h.71l2.61 4.05h.03q-.01 -.11 -.02 -.33q-.01 -.22 -.02 -.48q-.01 -.26 -.01 -.48v-2.77h.58v4.9z" stroke="none"/>
                        
                <path d="M22.22 65.0h-.62v-2.29h-2.51v2.29h-.61v-4.9h.61v2.07h2.51v-2.07h.62v4.9z" stroke="none"/>
                        
                <path d="M24.72 66.48h-1.94v-.3l.77 -.78q.22 -.22 .37 -.39q.15 -.18 .23 -.34q.08 -.17 .08 -.36q.0 -.24 -.15 -.37q-.14 -.13 -.37 -.13q-.21 .0 -.38 .08q-.16 .08 -.33 .21l-.19 -.24q.17 -.15 .39 -.25q.23 -.1 .51 -.1q.41 .0 .65 .21q.24 .21 .24 .58q.0 .23 -.1 .43q-.09 .2 -.26 .4q-.17 .2 -.39 .42l-.61 .6v.02h1.49v.33z" stroke="none"/>
                      
            </g>
                
            <line class="hi" id="mol1bnd4" stroke="#3050F8" x1="32.32" x2="36.980000000000004" y1="22.25" y2="18.89"/>
            <line class="hi" id="mol1bnd5" stroke="#3050F8" x1="26.17" x2="21.560000000000002" y1="22.24" y2="18.884999999999998"/>
            <line class="hi" id="mol1bnd7" stroke="#3050F8" x1="29.24" x2="29.229999999999997" y1="28.32" y2="34.015"/>
            <line class="hi" id="mol1bnd10" stroke="#3050F8" x1="15.98" x2="15.99" y1="58.7" y2="53.005"/>
        </g>
          
    </g>
    
</svg>
