<svg xmlns="http://www.w3.org/2000/svg" xmlns:xlink="http://www.w3.org/1999/xlink" height="262.05mm" version="1.2" viewBox="0 0 161.11 262.05" width="161.11mm">
      
    <desc>Generated by the Chemistry Development Kit (http://github.com/cdk)</desc>
      
    <g fill="#FF0D0D" stroke="#000000" stroke-linecap="round" stroke-linejoin="round" stroke-width=".7">
            
        <rect fill="#FFFFFF" height="263.0" stroke="none" width="162.0" x=".0" y=".0"/>
            
        <g class="mol" id="mol1">
                  
            <line class="bond" id="mol1bnd1" x1="160.07" x2="160.07" y1=".91" y2="16.15"/>
                  
            <line class="bond" id="mol1bnd2" x1="160.07" x2="146.87" y1="16.15" y2="23.77"/>
                  
            <line class="bond" id="mol1bnd3" x1="146.87" x2="146.87" y1="23.77" y2="39.01"/>
                  
            <line class="bond" id="mol1bnd4" x1="146.87" x2="133.67" y1="39.01" y2="46.63"/>
                  
            <line class="bond" id="mol1bnd5" x1="133.67" x2="133.67" y1="46.63" y2="61.87"/>
                  
            <line class="bond" id="mol1bnd6" x1="133.67" x2="120.47" y1="61.87" y2="69.49"/>
                  
            <line class="bond" id="mol1bnd7" x1="120.47" x2="120.47" y1="69.49" y2="84.73"/>
                  
            <line class="bond" id="mol1bnd8" x1="120.47" x2="107.27" y1="84.73" y2="92.35"/>
                  
            <line class="bond" id="mol1bnd9" x1="107.27" x2="107.27" y1="92.35" y2="107.59"/>
                  
            <line class="bond" id="mol1bnd10" x1="107.27" x2="94.08" y1="107.59" y2="115.21"/>
                  
            <line class="bond" id="mol1bnd11" x1="94.08" x2="94.08" y1="115.21" y2="130.45"/>
                  
            <line class="bond" id="mol1bnd12" x1="94.08" x2="80.88" y1="130.45" y2="138.07"/>
                  
            <line class="bond" id="mol1bnd13" x1="80.88" x2="80.88" y1="138.07" y2="153.31"/>
                  
            <g class="bond" id="mol1bnd14">
                        
                <line x1="80.88" x2="91.4" y1="151.9" y2="157.98"/>
                        
                <line x1="79.66" x2="90.18" y1="154.01" y2="160.09"/>
                      
                <line class="hi" stroke="#FF0D0D" x1="91.4" x2="86.14" y1="157.98" y2="154.94"/>
                <line class="hi" stroke="#FF0D0D" x1="90.18" x2="84.92" y1="160.09" y2="157.05"/>
            </g>
                  
            <line class="bond" id="mol1bnd15" x1="80.88" x2="70.96" y1="153.31" y2="159.04"/>
                  
            <path class="bond" d="M67.33 176.17h.7l1.3 -11.32h-1.65h-1.65z" fill="#000000" id="mol1bnd16" stroke="none"/>
                  
            <line class="bond" id="mol1bnd17" x1="67.68" x2="54.47" y1="176.17" y2="183.79"/>
                  
            <line class="bond" id="mol1bnd18" x1="54.47" x2="54.47" y1="183.79" y2="199.03"/>
                  
            <line class="bond" id="mol1bnd19" x1="54.47" x2="67.68" y1="199.03" y2="206.65"/>
                  
            <g class="bond" id="mol1bnd20">
                        
                <line x1="67.44" x2="67.92" y1="206.91" y2="206.39"/>
                        
                <line x1="67.62" x2="68.49" y1="209.63" y2="208.69"/>
                        
                <line x1="67.79" x2="69.06" y1="212.35" y2="210.98"/>
                        
                <line x1="67.96" x2="69.63" y1="215.07" y2="213.27"/>
                        
                <line x1="68.14" x2="70.2" y1="217.79" y2="215.56"/>
                        
                <line x1="68.31" x2="70.77" y1="220.51" y2="217.85"/>
                        
                <line x1="68.49" x2="71.34" y1="223.23" y2="220.15"/>
                      
            </g>
                  
            <g class="bond" id="mol1bnd21">
                        
                <line x1="59.55" x2="69.92" y1="232.86" y2="221.69"/>
                        
                <line x1="58.56" x2="67.33" y1="230.35" y2="220.89"/>
                      
            </g>
                  
            <line class="bond" id="mol1bnd22" x1="59.55" x2="44.31" y1="232.86" y2="231.75"/>
                  
            <line class="bond" id="mol1bnd23" x1="44.31" x2="35.78" y1="231.75" y2="219.15"/>
                  
            <line class="bond" id="mol1bnd24" x1="35.78" x2="40.25" y1="219.15" y2="204.52"/>
                  
            <line class="bond" id="mol1bnd25" x1="54.47" x2="40.25" y1="199.03" y2="204.52"/>
                  
            <path class="bond" d="M40.05 204.8l.4 -.57l-11.19 -9.93l-1.71 1.27l-1.84 1.37z" fill="#000000" id="mol1bnd26" stroke="none"/>
                  
            <g class="bond" id="mol1bnd27">
                        
                <line x1="27.85" x2="15.56" y1="195.78" y2="204.92"/>
                        
                <line x1="27.89" x2="18.45" y1="198.79" y2="205.81"/>
                      
            </g>
                  
            <line class="bond" id="mol1bnd28" x1="15.56" x2="20.54" y1="204.92" y2="219.35"/>
                  
            <line class="bond" id="mol1bnd29" x1="35.78" x2="20.54" y1="219.15" y2="219.35"/>
                  
            <g class="bond" id="mol1bnd30">
                        
                <line x1="22.04" x2="15.04" y1="219.33" y2="229.3"/>
                        
                <line x1="20.05" x2="13.04" y1="217.93" y2="227.9"/>
                      
                <line class="hi" stroke="#FF0D0D" x1="15.04" x2="18.54" y1="229.3" y2="224.315"/>
                <line class="hi" stroke="#FF0D0D" x1="13.04" x2="16.545" y1="227.9" y2="222.91500000000002"/>
            </g>
                  
            <line class="bond" id="mol1bnd31" x1="15.56" x2="1.0" y1="204.92" y2="200.43"/>
                  
            <path class="bond" d="M36.09 219.31l-.62 -.32l-6.38 9.42l1.46 .76l1.46 .76z" fill="#000000" id="mol1bnd32" stroke="none"/>
                  
            <line class="bond" id="mol1bnd33" x1="59.55" x2="65.13" y1="232.86" y2="247.04"/>
                  
            <line class="bond" id="mol1bnd34" x1="65.13" x2="58.1" y1="247.04" y2="255.88"/>
                  
            <line class="bond" id="mol1bnd35" x1="67.68" x2="80.89" y1="206.65" y2="199.03"/>
                  
            <line class="bond" id="mol1bnd36" x1="80.89" x2="80.89" y1="199.03" y2="183.79"/>
                  
            <line class="bond" id="mol1bnd37" x1="67.68" x2="80.89" y1="176.17" y2="183.79"/>
                  
            <line class="bond" id="mol1bnd38" x1="80.89" x2="94.1" y1="183.79" y2="191.41"/>
                  
            <path class="bond" d="M80.71 198.73l.35 .61l14.43 -6.26l-1.4 -1.67l-1.97 -1.14z" fill="#000000" id="mol1bnd39" stroke="none"/>
                  
            <line class="bond" id="mol1bnd40" x1="94.1" x2="103.89" y1="191.41" y2="203.09"/>
                  
            <line class="bond" id="mol1bnd41" x1="94.1" x2="103.89" y1="191.41" y2="179.73"/>
                  
            <g class="bond" id="mol1bnd42">
                        
                <line stroke="#000000" x1="80.58" x2="81.19" y1="183.62" y2="183.96"/>
                        
                <line stroke="#FF0D0D" x1="81.46" x2="82.5" y1="181.6" y2="182.2"/>
                        
                <line stroke="#FF0D0D" x1="82.33" x2="83.8" y1="179.59" y2="180.44"/>
                        
                <line stroke="#FF0D0D" x1="83.2" x2="85.1" y1="177.58" y2="178.68"/>
                        
                <line stroke="#FF0D0D" x1="84.07" x2="86.41" y1="175.57" y2="176.92"/>
                        
                <line stroke="#FF0D0D" x1="84.94" x2="87.71" y1="173.56" y2="175.16"/>
                      
            </g>
                  
            <line class="bond" id="mol1bnd43" x1="92.16" x2="103.74" y1="170.59" y2="170.58"/>
                  
            <g class="bond" id="mol1bnd44">
                        
                <line x1="102.34" x2="108.33" y1="170.58" y2="160.19"/>
                        
                <line x1="104.45" x2="110.45" y1="171.8" y2="161.41"/>
                      
                <line class="hi" stroke="#FF0D0D" x1="108.33" x2="105.33500000000001" y1="160.19" y2="165.385"/>
                <line class="hi" stroke="#FF0D0D" x1="110.45" x2="107.45" y1="161.41" y2="166.60500000000002"/>
            </g>
                  
            <line class="bond" id="mol1bnd45" x1="103.74" x2="111.37" y1="170.58" y2="183.78"/>
                  
            <g class="bond" id="mol1bnd46">
                        
                <line stroke="#000000" x1="54.27" x2="54.67" y1="199.32" y2="198.74"/>
                        
                <line stroke="#FF0D0D" x1="52.34" x2="53.02" y1="198.29" y2="197.3"/>
                        
                <line stroke="#FF0D0D" x1="50.4" x2="51.36" y1="197.27" y2="195.87"/>
                        
                <line stroke="#FF0D0D" x1="48.46" x2="49.71" y1="196.24" y2="194.43"/>
                        
                <line stroke="#FF0D0D" x1="46.53" x2="48.06" y1="195.22" y2="192.99"/>
                        
                <line stroke="#FF0D0D" x1="44.59" x2="46.4" y1="194.19" y2="191.55"/>
                      
            </g>
                  
            <g class="bond" id="mol1bnd47">
                        
                <line x1="54.3" x2="54.65" y1="184.09" y2="183.49"/>
                        
                <line x1="52.29" x2="52.89" y1="183.22" y2="182.18"/>
                        
                <line x1="50.28" x2="51.13" y1="182.35" y2="180.88"/>
                        
                <line x1="48.27" x2="49.37" y1="181.48" y2="179.57"/>
                        
                <line x1="46.26" x2="47.61" y1="180.6" y2="178.27"/>
                        
                <line x1="44.25" x2="45.85" y1="179.73" y2="176.96"/>
                        
                <line x1="42.24" x2="44.09" y1="178.86" y2="175.65"/>
                        
                <line x1="40.22" x2="42.33" y1="177.99" y2="174.35"/>
                      
            </g>
                  
            <path class="atom" d="M96.34 160.93q.0 .76 -.26 1.33q-.26 .57 -.76 .88q-.5 .32 -1.24 .32q-.76 .0 -1.26 -.32q-.51 -.32 -.76 -.89q-.24 -.57 -.24 -1.33q.0 -.75 .24 -1.31q.25 -.57 .76 -.88q.51 -.32 1.27 -.32q.73 .0 1.23 .32q.5 .31 .76 .88q.26 .57 .26 1.33zM92.47 160.93q.0 .92 .39 1.46q.39 .53 1.22 .53q.84 .0 1.22 -.53q.39 -.54 .39 -1.46q.0 -.93 -.39 -1.45q-.38 -.52 -1.21 -.52q-.83 .0 -1.23 .52q-.39 .52 -.39 1.45z" id="mol1atm15" stroke="none"/>
                  
            <path class="atom" d="M69.94 160.93q.0 .76 -.26 1.33q-.26 .57 -.76 .88q-.5 .32 -1.24 .32q-.76 .0 -1.26 -.32q-.51 -.32 -.76 -.89q-.24 -.57 -.24 -1.33q.0 -.75 .24 -1.31q.25 -.57 .76 -.88q.51 -.32 1.27 -.32q.73 .0 1.23 .32q.5 .31 .76 .88q.26 .57 .26 1.33zM66.08 160.93q.0 .92 .39 1.46q.39 .53 1.22 .53q.84 .0 1.22 -.53q.39 -.54 .39 -1.46q.0 -.93 -.39 -1.45q-.38 -.52 -1.21 -.52q-.83 .0 -1.23 .52q-.39 .52 -.39 1.45z" id="mol1atm16" stroke="none"/>
                  
            <path class="atom" d="M14.03 231.82q.0 .76 -.26 1.33q-.26 .57 -.76 .88q-.5 .32 -1.24 .32q-.76 .0 -1.26 -.32q-.51 -.32 -.76 -.89q-.24 -.57 -.24 -1.33q.0 -.75 .24 -1.31q.25 -.57 .76 -.88q.51 -.32 1.27 -.32q.73 .0 1.23 .32q.5 .31 .76 .88q.26 .57 .26 1.33zM10.17 231.82q.0 .92 .39 1.46q.39 .53 1.22 .53q.84 .0 1.22 -.53q.39 -.54 .39 -1.46q.0 -.93 -.39 -1.45q-.38 -.52 -1.21 -.52q-.83 .0 -1.23 .52q-.39 .52 -.39 1.45z" id="mol1atm29" stroke="none"/>
                  
            <g class="atom" id="mol1atm31">
                        
                <path d="M30.99 232.65q.0 .76 -.26 1.33q-.26 .57 -.76 .88q-.5 .32 -1.24 .32q-.76 .0 -1.26 -.32q-.51 -.32 -.76 -.89q-.24 -.57 -.24 -1.33q.0 -.75 .24 -1.31q.25 -.57 .76 -.88q.51 -.32 1.27 -.32q.73 .0 1.23 .32q.5 .31 .76 .88q.26 .57 .26 1.33zM27.12 232.65q.0 .92 .39 1.46q.39 .53 1.22 .53q.84 .0 1.22 -.53q.39 -.54 .39 -1.46q.0 -.93 -.39 -1.45q-.38 -.52 -1.21 -.52q-.83 .0 -1.23 .52q-.39 .52 -.39 1.45z" stroke="none"/>
                        
                <path d="M25.91 235.11h-.62v-2.29h-2.51v2.29h-.61v-4.9h.61v2.07h2.51v-2.07h.62v4.9z" stroke="none"/>
                      
            </g>
                  
            <g class="atom" id="mol1atm33">
                        
                <path d="M57.9 258.97q.0 .76 -.26 1.33q-.26 .57 -.76 .88q-.5 .32 -1.24 .32q-.76 .0 -1.26 -.32q-.51 -.32 -.76 -.89q-.24 -.57 -.24 -1.33q.0 -.75 .24 -1.31q.25 -.57 .76 -.88q.51 -.32 1.27 -.32q.73 .0 1.23 .32q.5 .31 .76 .88q.26 .57 .26 1.33zM54.04 258.97q.0 .92 .39 1.46q.39 .53 1.22 .53q.84 .0 1.22 -.53q.39 -.54 .39 -1.46q.0 -.93 -.39 -1.45q-.38 -.52 -1.21 -.52q-.83 .0 -1.23 .52q-.39 .52 -.39 1.45z" stroke="none"/>
                        
                <path d="M52.82 261.42h-.62v-2.29h-2.51v2.29h-.61v-4.9h.61v2.07h2.51v-2.07h.62v4.9z" stroke="none"/>
                      
            </g>
                  
            <path class="atom" d="M90.76 170.59q.0 .76 -.26 1.33q-.26 .57 -.76 .88q-.5 .32 -1.24 .32q-.76 .0 -1.26 -.32q-.51 -.32 -.76 -.89q-.24 -.57 -.24 -1.33q.0 -.75 .24 -1.31q.25 -.57 .76 -.88q.51 -.32 1.27 -.32q.73 .0 1.23 .32q.5 .31 .76 .88q.26 .57 .26 1.33zM86.9 170.59q.0 .92 .39 1.46q.39 .53 1.22 .53q.84 .0 1.22 -.53q.39 -.54 .39 -1.46q.0 -.93 -.39 -1.45q-.38 -.52 -1.21 -.52q-.83 .0 -1.23 .52q-.39 .52 -.39 1.45z" id="mol1atm39" stroke="none"/>
                  
            <path class="atom" d="M113.62 157.38q.0 .76 -.26 1.33q-.26 .57 -.76 .88q-.5 .32 -1.24 .32q-.76 .0 -1.26 -.32q-.51 -.32 -.76 -.89q-.24 -.57 -.24 -1.33q.0 -.75 .24 -1.31q.25 -.57 .76 -.88q.51 -.32 1.27 -.32q.73 .0 1.23 .32q.5 .31 .76 .88q.26 .57 .26 1.33zM109.76 157.38q.0 .92 .39 1.46q.39 .53 1.22 .53q.84 .0 1.22 -.53q.39 -.54 .39 -1.46q.0 -.93 -.39 -1.45q-.38 -.52 -1.21 -.52q-.83 .0 -1.23 .52q-.39 .52 -.39 1.45z" id="mol1atm41" stroke="none"/>
                  
            <g class="atom" id="mol1atm43">
                        
                <path d="M44.16 190.41q.0 .76 -.26 1.33q-.26 .57 -.76 .88q-.5 .32 -1.24 .32q-.76 .0 -1.26 -.32q-.51 -.32 -.76 -.89q-.24 -.57 -.24 -1.33q.0 -.75 .24 -1.31q.25 -.57 .76 -.88q.51 -.32 1.27 -.32q.73 .0 1.23 .32q.5 .31 .76 .88q.26 .57 .26 1.33zM40.3 190.41q.0 .92 .39 1.46q.39 .53 1.22 .53q.84 .0 1.22 -.53q.39 -.54 .39 -1.46q.0 -.93 -.39 -1.45q-.38 -.52 -1.21 -.52q-.83 .0 -1.23 .52q-.39 .52 -.39 1.45z" stroke="none"/>
                        
                <path d="M39.08 192.86h-.62v-2.29h-2.51v2.29h-.61v-4.9h.61v2.07h2.51v-2.07h.62v4.9z" stroke="none"/>
                      
            </g>
                
            <line class="hi" id="mol1bnd15" stroke="#FF0D0D" x1="70.96" x2="75.91999999999999" y1="159.04" y2="156.175"/>
            <line class="hi" id="mol1bnd34" stroke="#FF0D0D" x1="58.1" x2="61.614999999999995" y1="255.88" y2="251.45999999999998"/>
            <line class="hi" id="mol1bnd34" stroke="#FF0D0D" x1="58.1" x2="61.614999999999995" y1="255.88" y2="251.45999999999998"/>
            <line class="hi" id="mol1bnd43" stroke="#FF0D0D" x1="92.16" x2="97.94999999999999" y1="170.59" y2="170.585"/>
        </g>
          
    </g>
    
</svg>
