<svg xmlns="http://www.w3.org/2000/svg" xmlns:xlink="http://www.w3.org/1999/xlink" height="48.33mm" version="1.2" viewBox="0 0 131.81 48.33" width="131.81mm">
      
    <desc>Generated by the Chemistry Development Kit (http://github.com/cdk)</desc>
      
    <g fill="#3050F8" stroke="#000000" stroke-linecap="round" stroke-linejoin="round" stroke-width=".7">
            
        <rect fill="#FFFFFF" height="49.0" stroke="none" width="132.0" x=".0" y=".0"/>
            
        <g class="mol" id="mol1">
                  
            <line class="bond" id="mol1bnd1" x1="130.78" x2="117.59" y1="24.46" y2="16.81"/>
                  
            <line class="bond" id="mol1bnd2" x1="117.59" x2="117.62" y1="16.81" y2="1.57"/>
                  
            <line class="bond" id="mol1bnd3" x1="117.59" x2="107.53" y1="16.81" y2="22.59"/>
                  
            <line class="bond" id="mol1bnd4" x1="101.23" x2="91.2" y1="22.58" y2="16.76"/>
                  
            <line class="bond" id="mol1bnd5" x1="91.2" x2="77.98" y1="16.76" y2="24.36"/>
                  
            <line class="bond" id="mol1bnd6" x1="77.98" x2="67.95" y1="24.36" y2="18.54"/>
                  
            <line class="bond" id="mol1bnd7" x1="61.64" x2="51.59" y1="18.52" y2="24.3"/>
                  
            <g class="bond" id="mol1bnd8">
                        
                <line x1="52.81" x2="52.78" y1="23.6" y2="35.62"/>
                        
                <line x1="50.37" x2="50.34" y1="23.6" y2="35.62"/>
                      
                <line class="hi" stroke="#FF0D0D" x1="52.78" x2="52.795" y1="35.62" y2="29.61"/>
                <line class="hi" stroke="#FF0D0D" x1="50.34" x2="50.355000000000004" y1="35.62" y2="29.61"/>
            </g>
                  
            <line class="bond" id="mol1bnd9" x1="51.59" x2="38.4" y1="24.3" y2="16.66"/>
                  
            <line class="bond" id="mol1bnd10" x1="38.4" x2="28.34" y1="16.66" y2="22.44"/>
                  
            <line class="bond" id="mol1bnd11" x1="24.78" x2="23.59" y1="28.09" y2="39.37"/>
                  
            <line class="bond" id="mol1bnd12" x1="23.59" x2="8.67" y1="39.37" y2="42.59"/>
                  
            <line class="bond" id="mol1bnd13" x1="8.67" x2="1.05" y1="42.59" y2="29.39"/>
                  
            <line class="bond" id="mol1bnd14" x1="1.05" x2="11.25" y1="29.39" y2="17.99"/>
                  
            <line class="bond" id="mol1bnd15" x1="21.97" x2="11.25" y1="22.81" y2="17.99"/>
                  
            <g class="bond" id="mol1bnd16">
                        
                <line x1="10.24" x2="7.72" y1="19.11" y2="7.23"/>
                        
                <line x1="12.63" x2="10.1" y1="18.61" y2="6.72"/>
                      
                <line class="hi" stroke="#FF0D0D" x1="7.72" x2="8.98" y1="7.23" y2="13.17"/>
                <line class="hi" stroke="#FF0D0D" x1="10.1" x2="11.365" y1="6.719999999999999" y2="12.665"/>
            </g>
                  
            <line class="bond" id="mol1bnd17" x1="104.37" x2="104.35" y1="28.26" y2="39.65"/>
                  
            <line class="bond" id="mol1bnd18" x1="104.35" x2="117.53" y1="39.65" y2="47.29"/>
                  
            <line class="bond" id="mol1bnd19" x1="104.35" x2="91.14" y1="39.65" y2="47.24"/>
                  
            <path class="atom" d="M106.32 26.86h-.72l-2.62 -4.07h-.03q.01 .24 .03 .6q.02 .36 .02 .73v2.74h-.57v-4.9h.71l2.61 4.05h.03q-.01 -.11 -.02 -.33q-.01 -.22 -.02 -.48q-.01 -.26 -.01 -.48v-2.77h.58v4.9z" id="mol1atm4" stroke="none"/>
                  
            <g class="atom" id="mol1atm7">
                        
                <path d="M66.74 19.16h-.72l-2.62 -4.07h-.03q.01 .24 .03 .6q.02 .36 .02 .73v2.74h-.57v-4.9h.71l2.61 4.05h.03q-.01 -.11 -.02 -.33q-.01 -.22 -.02 -.48q-.01 -.26 -.01 -.48v-2.77h.58v4.9z" stroke="none"/>
                        
                <path d="M66.6 13.7h-.62v-2.29h-2.51v2.29h-.61v-4.9h.61v2.07h2.51v-2.07h.62v4.9z" stroke="none"/>
                      
            </g>
                  
            <path class="atom" d="M53.82 39.54q.0 .76 -.26 1.33q-.26 .57 -.76 .88q-.5 .32 -1.24 .32q-.76 .0 -1.26 -.32q-.51 -.32 -.76 -.89q-.24 -.57 -.24 -1.33q.0 -.75 .24 -1.31q.25 -.57 .76 -.88q.51 -.32 1.27 -.32q.73 .0 1.23 .32q.5 .31 .76 .88q.26 .57 .26 1.33zM49.95 39.54q.0 .92 .39 1.46q.39 .53 1.22 .53q.84 .0 1.22 -.53q.39 -.54 .39 -1.46q.0 -.93 -.39 -1.45q-.38 -.52 -1.21 -.52q-.83 .0 -1.23 .52q-.39 .52 -.39 1.45z" fill="#FF0D0D" id="mol1atm9" stroke="none"/>
                  
            <path class="atom" d="M27.13 26.7h-.72l-2.62 -4.07h-.03q.01 .24 .03 .6q.02 .36 .02 .73v2.74h-.57v-4.9h.71l2.61 4.05h.03q-.01 -.11 -.02 -.33q-.01 -.22 -.02 -.48q-.01 -.26 -.01 -.48v-2.77h.58v4.9z" id="mol1atm11" stroke="none"/>
                  
            <path class="atom" d="M10.34 3.08q.0 .76 -.26 1.33q-.26 .57 -.76 .88q-.5 .32 -1.24 .32q-.76 .0 -1.26 -.32q-.51 -.32 -.76 -.89q-.24 -.57 -.24 -1.33q.0 -.75 .24 -1.31q.25 -.57 .76 -.88q.51 -.32 1.27 -.32q.73 .0 1.23 .32q.5 .31 .76 .88q.26 .57 .26 1.33zM6.48 3.08q.0 .92 .39 1.46q.39 .53 1.22 .53q.84 .0 1.22 -.53q.39 -.54 .39 -1.46q.0 -.93 -.39 -1.45q-.38 -.52 -1.21 -.52q-.83 .0 -1.23 .52q-.39 .52 -.39 1.45z" fill="#FF0D0D" id="mol1atm16" stroke="none"/>
                
            <line class="hi" id="mol1bnd3" stroke="#3050F8" x1="107.53" x2="112.56" y1="22.59" y2="19.7"/>
            <line class="hi" id="mol1bnd4" stroke="#3050F8" x1="101.23" x2="96.215" y1="22.58" y2="19.67"/>
            <line class="hi" id="mol1bnd6" stroke="#3050F8" x1="67.95" x2="72.965" y1="18.54" y2="21.45"/>
            <line class="hi" id="mol1bnd6" stroke="#3050F8" x1="67.95" x2="72.965" y1="18.54" y2="21.45"/>
            <line class="hi" id="mol1bnd7" stroke="#3050F8" x1="61.64" x2="56.615" y1="18.52" y2="21.41"/>
            <line class="hi" id="mol1bnd7" stroke="#3050F8" x1="61.64" x2="56.615" y1="18.52" y2="21.41"/>
            <line class="hi" id="mol1bnd10" stroke="#3050F8" x1="28.34" x2="33.37" y1="22.44" y2="19.55"/>
            <line class="hi" id="mol1bnd11" stroke="#3050F8" x1="24.78" x2="24.185000000000002" y1="28.09" y2="33.73"/>
            <line class="hi" id="mol1bnd15" stroke="#3050F8" x1="21.97" x2="16.61" y1="22.81" y2="20.4"/>
            <line class="hi" id="mol1bnd17" stroke="#3050F8" x1="104.37" x2="104.36" y1="28.26" y2="33.955"/>
        </g>
          
    </g>
    
</svg>
