<svg xmlns="http://www.w3.org/2000/svg" xmlns:xlink="http://www.w3.org/1999/xlink" height="36.57mm" version="1.2" viewBox="0 0 87.35 36.57" width="87.35mm">
      
    <desc>Generated by the Chemistry Development Kit (http://github.com/cdk)</desc>
      
    <g fill="#FF0D0D" stroke="#000000" stroke-linecap="round" stroke-linejoin="round" stroke-width=".7">
            
        <rect fill="#FFFFFF" height="37.0" stroke="none" width="88.0" x=".0" y=".0"/>
            
        <g class="mol" id="mol1">
                  
            <line class="bond" id="mol1bnd1" x1="86.31" x2="73.12" y1="33.49" y2="25.87"/>
                  
            <line class="bond" id="mol1bnd2" x1="73.12" x2="73.12" y1="25.87" y2="10.63"/>
                  
            <line class="bond" id="mol1bnd3" x1="73.12" x2="59.92" y1="25.87" y2="33.49"/>
                  
            <path class="bond" d="M46.9 25.57l-.35 .61l11.75 8.66l1.97 -1.14l2.25 -1.3z" fill="#000000" id="mol1bnd4" stroke="none"/>
                  
            <line class="bond" id="mol1bnd5" x1="46.72" x2="33.52" y1="25.87" y2="33.49"/>
                  
            <line class="bond" id="mol1bnd6" x1="33.52" x2="20.32" y1="33.49" y2="25.87"/>
                  
            <g class="bond" id="mol1bnd7">
                        
                <line x1="19.1" x2="19.1" y1="26.57" y2="14.55"/>
                        
                <line x1="21.54" x2="21.54" y1="26.57" y2="14.55"/>
                      
                <line class="hi" stroke="#FF0D0D" x1="19.1" x2="19.1" y1="14.55" y2="20.560000000000002"/>
                <line class="hi" stroke="#FF0D0D" x1="21.54" x2="21.54" y1="14.55" y2="20.560000000000002"/>
            </g>
                  
            <line class="bond" id="mol1bnd8" x1="20.32" x2="10.4" y1="25.87" y2="31.6"/>
                  
            <line class="bond" id="mol1bnd9" x1="46.72" x2="46.72" y1="25.87" y2="10.63"/>
                  
            <line class="bond" id="mol1bnd10" x1="46.72" x2="36.68" y1="10.63" y2="4.83"/>
                  
            <path class="atom" d="M22.58 10.63q.0 .76 -.26 1.33q-.26 .57 -.76 .88q-.5 .32 -1.24 .32q-.76 .0 -1.26 -.32q-.51 -.32 -.76 -.89q-.24 -.57 -.24 -1.33q.0 -.75 .24 -1.31q.25 -.57 .76 -.88q.51 -.32 1.27 -.32q.73 .0 1.23 .32q.5 .31 .76 .88q.26 .57 .26 1.33zM18.72 10.63q.0 .92 .39 1.46q.39 .53 1.22 .53q.84 .0 1.22 -.53q.39 -.54 .39 -1.46q.0 -.93 -.39 -1.45q-.38 -.52 -1.21 -.52q-.83 .0 -1.23 .52q-.39 .52 -.39 1.45z" id="mol1atm8" stroke="none"/>
                  
            <g class="atom" id="mol1atm9">
                        
                <path d="M9.38 33.49q.0 .76 -.26 1.33q-.26 .57 -.76 .88q-.5 .32 -1.24 .32q-.76 .0 -1.26 -.32q-.51 -.32 -.76 -.89q-.24 -.57 -.24 -1.33q.0 -.75 .24 -1.31q.25 -.57 .76 -.88q.51 -.32 1.27 -.32q.73 .0 1.23 .32q.5 .31 .76 .88q.26 .57 .26 1.33zM5.52 33.49q.0 .92 .39 1.46q.39 .53 1.22 .53q.84 .0 1.22 -.53q.39 -.54 .39 -1.46q.0 -.93 -.39 -1.45q-.38 -.52 -1.21 -.52q-.83 .0 -1.23 .52q-.39 .52 -.39 1.45z" stroke="none"/>
                        
                <path d="M4.3 35.94h-.62v-2.29h-2.51v2.29h-.61v-4.9h.61v2.07h2.51v-2.07h.62v4.9z" stroke="none"/>
                      
            </g>
                  
            <g class="atom" id="mol1atm11">
                        
                <path d="M35.46 5.46h-.72l-2.62 -4.07h-.03q.01 .24 .03 .6q.02 .36 .02 .73v2.74h-.57v-4.9h.71l2.61 4.05h.03q-.01 -.11 -.02 -.33q-.01 -.22 -.02 -.48q-.01 -.26 -.01 -.48v-2.77h.58v4.9z" fill="#3050F8" stroke="none"/>
                        
                <path d="M28.51 5.46h-.62v-2.29h-2.51v2.29h-.61v-4.9h.61v2.07h2.51v-2.07h.62v4.9z" fill="#3050F8" stroke="none"/>
                        
                <path d="M31.02 6.95h-1.94v-.3l.77 -.78q.22 -.22 .37 -.39q.15 -.18 .23 -.34q.08 -.17 .08 -.36q.0 -.24 -.15 -.37q-.14 -.13 -.37 -.13q-.21 .0 -.38 .08q-.16 .08 -.33 .21l-.19 -.24q.17 -.15 .39 -.25q.23 -.1 .51 -.1q.41 .0 .65 .21q.24 .21 .24 .58q.0 .23 -.1 .43q-.09 .2 -.26 .4q-.17 .2 -.39 .42l-.61 .6v.02h1.49v.33z" fill="#3050F8" stroke="none"/>
                      
            </g>
                
            <line class="hi" id="mol1bnd8" stroke="#FF0D0D" x1="10.4" x2="15.36" y1="31.6" y2="28.735"/>
            <line class="hi" id="mol1bnd8" stroke="#FF0D0D" x1="10.4" x2="15.36" y1="31.6" y2="28.735"/>
            <line class="hi" id="mol1bnd10" stroke="#3050F8" x1="36.68" x2="41.7" y1="4.83" y2="7.73"/>
            <line class="hi" id="mol1bnd10" stroke="#3050F8" x1="36.68" x2="41.7" y1="4.83" y2="7.73"/>
        </g>
          
    </g>
    
</svg>
