<svg xmlns="http://www.w3.org/2000/svg" xmlns:xlink="http://www.w3.org/1999/xlink" height="55.21mm" version="1.2" viewBox="0 0 183.18 55.21" width="183.18mm">
      
    <desc>Generated by the Chemistry Development Kit (http://github.com/cdk)</desc>
      
    <g fill="#1FF01F" stroke="#000000" stroke-linecap="round" stroke-linejoin="round" stroke-width=".7">
            
        <rect fill="#FFFFFF" height="56.0" stroke="none" width="184.0" x=".0" y=".0"/>
            
        <g class="mol" id="mol1">
                  
            <line class="bond" id="mol1bnd1" x1="53.83" x2="53.85" y1="8.6" y2="19.99"/>
                  
            <line class="bond" id="mol1bnd2" x1="57.01" x2="67.07" y1="25.65" y2="31.44"/>
                  
            <line class="bond" id="mol1bnd3" x1="67.07" x2="80.25" y1="31.44" y2="23.8"/>
                  
            <line class="bond" id="mol1bnd4" x1="80.25" x2="93.46" y1="23.8" y2="31.39"/>
                  
            <g class="bond" id="mol1bnd5">
                        
                <line x1="106.67" x2="93.46" y1="23.77" y2="31.39"/>
                        
                <line x1="106.67" x2="95.91" y1="26.58" y2="32.8"/>
                      
            </g>
                  
            <line class="bond" id="mol1bnd6" x1="106.67" x2="119.87" y1="23.77" y2="31.39"/>
                  
            <g class="bond" id="mol1bnd7">
                        
                <line x1="119.86" x2="119.87" y1="46.63" y2="31.39"/>
                        
                <line x1="117.42" x2="117.43" y1="45.22" y2="32.79"/>
                      
            </g>
                  
            <line class="bond" id="mol1bnd8" x1="119.86" x2="106.71" y1="46.63" y2="54.17"/>
                  
            <g class="bond" id="mol1bnd9">
                        
                <line x1="93.51" x2="106.71" y1="46.55" y2="54.17"/>
                        
                <line x1="95.94" x2="106.71" y1="45.14" y2="51.36"/>
                      
            </g>
                  
            <line class="bond" id="mol1bnd10" x1="93.46" x2="93.51" y1="31.39" y2="46.55"/>
                  
            <line class="bond" id="mol1bnd11" x1="119.87" x2="133.06" y1="31.39" y2="23.77"/>
                  
            <g class="bond" id="mol1bnd12">
                        
                <line x1="131.85" x2="131.85" y1="24.47" y2="12.45"/>
                        
                <line x1="134.28" x2="134.29" y1="24.47" y2="12.45"/>
                      
                <line class="hi" stroke="#FF0D0D" x1="131.85" x2="131.85" y1="12.45" y2="18.46"/>
                <line class="hi" stroke="#FF0D0D" x1="134.29" x2="134.285" y1="12.45" y2="18.46"/>
            </g>
                  
            <line class="bond" id="mol1bnd13" x1="133.06" x2="142.98" y1="23.77" y2="29.49"/>
                  
            <line class="bond" id="mol1bnd14" x1="149.54" x2="159.46" y1="29.5" y2="23.77"/>
                  
            <line class="bond" id="mol1bnd15" x1="50.7" x2="40.67" y1="25.67" y2="31.48"/>
                  
            <line class="bond" id="mol1bnd16" x1="40.67" x2="27.46" y1="31.48" y2="23.88"/>
                  
            <g class="bond" id="mol1bnd17">
                        
                <line x1="14.27" x2="27.46" y1="31.54" y2="23.88"/>
                        
                <line x1="14.26" x2="25.02" y1="28.72" y2="22.48"/>
                      
            </g>
                  
            <line class="bond" id="mol1bnd18" x1="14.27" x2="1.06" y1="31.54" y2="23.94"/>
                  
            <g class="bond" id="mol1bnd19">
                        
                <line x1="1.04" x2="1.06" y1="8.69" y2="23.94"/>
                        
                <line x1="3.48" x2="3.5" y1="10.09" y2="22.53"/>
                      
            </g>
                  
            <line class="bond" id="mol1bnd20" x1="1.04" x2="14.23" y1="8.69" y2="1.04"/>
                  
            <g class="bond" id="mol1bnd21">
                        
                <line x1="27.44" x2="14.23" y1="8.64" y2="1.04"/>
                        
                <line x1="25.0" x2="14.23" y1="10.05" y2="3.85"/>
                      
            </g>
                  
            <line class="bond" id="mol1bnd22" x1="27.46" x2="27.44" y1="23.88" y2="8.64"/>
                  
            <path class="atom" d="M55.8 26.29h-.72l-2.62 -4.07h-.03q.01 .24 .03 .6q.02 .36 .02 .73v2.74h-.57v-4.9h.71l2.61 4.05h.03q-.01 -.11 -.02 -.33q-.01 -.22 -.02 -.48q-.01 -.26 -.01 -.48v-2.77h.58v4.9z" fill="#3050F8" id="mol1atm2" stroke="none"/>
                  
            <path class="atom" d="M135.33 8.52q.0 .76 -.26 1.33q-.26 .57 -.76 .88q-.5 .32 -1.24 .32q-.76 .0 -1.26 -.32q-.51 -.32 -.76 -.89q-.24 -.57 -.24 -1.33q.0 -.75 .24 -1.31q.25 -.57 .76 -.88q.51 -.32 1.27 -.32q.73 .0 1.23 .32q.5 .31 .76 .88q.26 .57 .26 1.33zM131.46 8.52q.0 .92 .39 1.46q.39 .53 1.22 .53q.84 .0 1.22 -.53q.39 -.54 .39 -1.46q.0 -.93 -.39 -1.45q-.38 -.52 -1.21 -.52q-.83 .0 -1.23 .52q-.39 .52 -.39 1.45z" fill="#FF0D0D" id="mol1atm12" stroke="none"/>
                  
            <path class="atom" d="M148.52 31.39q.0 .76 -.26 1.33q-.26 .57 -.76 .88q-.5 .32 -1.24 .32q-.76 .0 -1.26 -.32q-.51 -.32 -.76 -.89q-.24 -.57 -.24 -1.33q.0 -.75 .24 -1.31q.25 -.57 .76 -.88q.51 -.32 1.27 -.32q.73 .0 1.23 .32q.5 .31 .76 .88q.26 .57 .26 1.33zM144.66 31.39q.0 .92 .39 1.46q.39 .53 1.22 .53q.84 .0 1.22 -.53q.39 -.54 .39 -1.46q.0 -.93 -.39 -1.45q-.38 -.52 -1.21 -.52q-.83 .0 -1.23 .52q-.39 .52 -.39 1.45z" fill="#FF0D0D" id="mol1atm13" stroke="none"/>
                  
            <g class="atom" id="mol1atm22">
                        
                <path d="M179.87 25.79q-.79 .0 -1.24 .53q-.45 .52 -.45 1.45q.0 .91 .42 1.45q.42 .53 1.27 .53q.32 .0 .61 -.05q.29 -.06 .57 -.14v.54q-.27 .1 -.57 .15q-.29 .05 -.7 .05q-.74 .0 -1.25 -.31q-.5 -.31 -.75 -.88q-.25 -.57 -.25 -1.34q.0 -.74 .27 -1.31q.27 -.57 .8 -.88q.53 -.32 1.28 -.32q.78 .0 1.35 .29l-.24 .52q-.23 -.1 -.51 -.18q-.27 -.08 -.61 -.08zM182.62 30.21h-.6v-5.21h.6v5.21z" stroke="none"/>
                        
                <path d="M176.96 30.21h-.62v-2.29h-2.51v2.29h-.61v-4.9h.61v2.07h2.51v-2.07h.62v4.9z" stroke="none"/>
                      
            </g>
                
            <line class="hi" id="mol1bnd1" stroke="#3050F8" x1="53.85" x2="53.84" y1="19.99" y2="14.294999999999998"/>
            <line class="hi" id="mol1bnd2" stroke="#3050F8" x1="57.01" x2="62.03999999999999" y1="25.65" y2="28.545"/>
            <line class="hi" id="mol1bnd13" stroke="#FF0D0D" x1="142.98" x2="138.01999999999998" y1="29.49" y2="26.63"/>
            <line class="hi" id="mol1bnd14" stroke="#FF0D0D" x1="149.54" x2="154.5" y1="29.5" y2="26.634999999999998"/>
            <line class="hi" id="mol1bnd15" stroke="#3050F8" x1="50.7" x2="45.685" y1="25.67" y2="28.575000000000003"/>
        </g>
          
    </g>
    
</svg>
