<svg xmlns="http://www.w3.org/2000/svg" xmlns:xlink="http://www.w3.org/1999/xlink" height="40.0mm" version="1.2" viewBox="0 0 81.27 40.0" width="81.27mm">
      
    <desc>Generated by the Chemistry Development Kit (http://github.com/cdk)</desc>
      
    <g fill="#3050F8" stroke="#000000" stroke-linecap="round" stroke-linejoin="round" stroke-width=".7">
            
        <rect fill="#FFFFFF" height="40.0" stroke="none" width="82.0" x=".0" y=".0"/>
            
        <g class="mol" id="mol1">
                  
            <line class="bond" id="mol1bnd1" x1="27.43" x2="27.43" y1="31.33" y2="16.09"/>
                  
            <line class="bond" id="mol1bnd2" x1="27.43" x2="40.63" y1="16.09" y2="8.47"/>
                  
            <line class="bond" id="mol1bnd3" x1="40.63" x2="53.83" y1="8.47" y2="16.09"/>
                  
            <line class="bond" id="mol1bnd4" x1="53.83" x2="67.03" y1="16.09" y2="8.46"/>
                  
            <line class="bond" id="mol1bnd5" x1="67.03" x2="80.23" y1="8.46" y2="16.08"/>
                  
            <line class="bond" id="mol1bnd6" x1="80.23" x2="80.23" y1="16.08" y2="31.33"/>
                  
            <line class="bond" id="mol1bnd7" x1="80.23" x2="67.02" y1="31.33" y2="38.96"/>
                  
            <line class="bond" id="mol1bnd8" x1="67.02" x2="53.83" y1="38.96" y2="31.34"/>
                  
            <line class="bond" id="mol1bnd9" x1="53.83" x2="53.83" y1="16.09" y2="31.34"/>
                  
            <line class="bond" id="mol1bnd10" x1="27.43" x2="17.39" y1="16.09" y2="10.29"/>
                  
            <line class="bond" id="mol1bnd11" x1="11.08" x2="1.04" y1="10.29" y2="16.09"/>
                  
            <g class="atom" id="mol1atm10">
                        
                <path d="M16.18 10.92h-.72l-2.62 -4.07h-.03q.01 .24 .03 .6q.02 .36 .02 .73v2.74h-.57v-4.9h.71l2.61 4.05h.03q-.01 -.11 -.02 -.33q-.01 -.22 -.02 -.48q-.01 -.26 -.01 -.48v-2.77h.58v4.9z" stroke="none"/>
                        
                <path d="M16.04 5.46h-.62v-2.29h-2.51v2.29h-.61v-4.9h.61v2.07h2.51v-2.07h.62v4.9z" stroke="none"/>
                      
            </g>
                
            <line class="hi" id="mol1bnd10" stroke="#3050F8" x1="17.39" x2="22.41" y1="10.29" y2="13.19"/>
            <line class="hi" id="mol1bnd10" stroke="#3050F8" x1="17.39" x2="22.41" y1="10.29" y2="13.19"/>
            <line class="hi" id="mol1bnd11" stroke="#3050F8" x1="11.08" x2="6.0600000000000005" y1="10.29" y2="13.19"/>
            <line class="hi" id="mol1bnd11" stroke="#3050F8" x1="11.08" x2="6.0600000000000005" y1="10.29" y2="13.19"/>
        </g>
          
    </g>
    
</svg>
