<svg xmlns="http://www.w3.org/2000/svg" xmlns:xlink="http://www.w3.org/1999/xlink" height="49.43mm" version="1.2" viewBox="0 0 81.38 49.43" width="81.38mm">
      
    <desc>Generated by the Chemistry Development Kit (http://github.com/cdk)</desc>
      
    <g fill="#FF0D0D" stroke="#000000" stroke-linecap="round" stroke-linejoin="round" stroke-width=".7">
            
        <rect fill="#FFFFFF" height="50.0" stroke="none" width="82.0" x=".0" y=".0"/>
            
        <g class="mol" id="mol1">
                  
            <line class="bond" id="mol1bnd1" x1="80.33" x2="67.31" y1="22.61" y2="30.51"/>
                  
            <line class="bond" id="mol1bnd2" x1="67.31" x2="67.64" y1="30.51" y2="45.75"/>
                  
            <line class="bond" id="mol1bnd3" x1="67.31" x2="53.94" y1="30.51" y2="23.19"/>
                  
            <g class="bond" id="mol1bnd4">
                        
                <line x1="40.94" x2="53.94" y1="31.11" y2="23.19"/>
                        
                <line x1="40.85" x2="51.48" y1="28.31" y2="21.83"/>
                      
            </g>
                  
            <line class="bond" id="mol1bnd5" x1="40.94" x2="27.43" y1="31.11" y2="24.0"/>
                  
            <g class="bond" id="mol1bnd6">
                        
                <line x1="27.43" x2="27.43" y1="8.56" y2="24.0"/>
                        
                <line x1="29.87" x2="29.87" y1="9.97" y2="22.53"/>
                      
            </g>
                  
            <line class="bond" id="mol1bnd7" x1="27.43" x2="40.53" y1="8.56" y2="1.04"/>
                  
            <g class="bond" id="mol1bnd8">
                        
                <line x1="53.64" x2="40.53" y1="8.15" y2="1.04"/>
                        
                <line x1="51.23" x2="40.57" y1="9.62" y2="3.83"/>
                      
            </g>
                  
            <line class="bond" id="mol1bnd9" x1="53.94" x2="53.64" y1="23.19" y2="8.15"/>
                  
            <line class="bond" id="mol1bnd10" x1="27.43" x2="14.38" y1="24.0" y2="31.88"/>
                  
            <line class="bond" id="mol1bnd11" x1="14.38" x2="1.04" y1="31.88" y2="24.52"/>
                  
            <line class="bond" id="mol1bnd12" x1="14.38" x2="14.68" y1="31.88" y2="47.11"/>
                  
            <line class="bond" id="mol1bnd13" x1="40.94" x2="41.3" y1="31.11" y2="42.42"/>
                  
            <g class="atom" id="mol1atm13">
                        
                <path d="M43.68 46.34q.0 .76 -.26 1.33q-.26 .57 -.76 .88q-.5 .32 -1.24 .32q-.76 .0 -1.26 -.32q-.51 -.32 -.76 -.89q-.24 -.57 -.24 -1.33q.0 -.75 .24 -1.31q.25 -.57 .76 -.88q.51 -.32 1.27 -.32q.73 .0 1.23 .32q.5 .31 .76 .88q.26 .57 .26 1.33zM39.81 46.34q.0 .92 .39 1.46q.39 .53 1.22 .53q.84 .0 1.22 -.53q.39 -.54 .39 -1.46q.0 -.93 -.39 -1.45q-.38 -.52 -1.21 -.52q-.83 .0 -1.23 .52q-.39 .52 -.39 1.45z" stroke="none"/>
                        
                <path d="M47.98 48.79h-.62v-2.29h-2.51v2.29h-.61v-4.9h.61v2.07h2.51v-2.07h.62v4.9z" stroke="none"/>
                      
            </g>
                
            <line class="hi" id="mol1bnd13" stroke="#FF0D0D" x1="41.3" x2="41.12" y1="42.42" y2="36.765"/>
        </g>
          
    </g>
    
</svg>
