<svg xmlns="http://www.w3.org/2000/svg" xmlns:xlink="http://www.w3.org/1999/xlink" height="73.75mm" version="1.2" viewBox="0 0 105.44 73.75" width="105.44mm">
      
    <desc>Generated by the Chemistry Development Kit (http://github.com/cdk)</desc>
      
    <g fill="#FF0D0D" stroke="#000000" stroke-linecap="round" stroke-linejoin="round" stroke-width=".7">
            
        <rect fill="#FFFFFF" height="74.0" stroke="none" width="106.0" x=".0" y=".0"/>
            
        <g class="mol" id="mol1">
                  
            <line class="bond" id="mol1bnd1" x1="1.04" x2="14.24" y1="23.9" y2="31.52"/>
                  
            <g class="bond" id="mol1bnd2">
                        
                <line x1="27.44" x2="14.24" y1="23.9" y2="31.52"/>
                        
                <line x1="27.44" x2="16.68" y1="26.72" y2="32.93"/>
                      
            </g>
                  
            <line class="bond" id="mol1bnd3" x1="27.44" x2="40.65" y1="23.9" y2="31.52"/>
                  
            <g class="bond" id="mol1bnd4">
                        
                <line x1="40.65" x2="40.65" y1="46.76" y2="31.52"/>
                        
                <line x1="38.22" x2="38.21" y1="45.35" y2="32.93"/>
                      
            </g>
                  
            <line class="bond" id="mol1bnd5" x1="40.65" x2="27.45" y1="46.76" y2="54.38"/>
                  
            <g class="bond" id="mol1bnd6">
                        
                <line x1="14.24" x2="27.45" y1="46.76" y2="54.38"/>
                        
                <line x1="16.68" x2="27.45" y1="45.35" y2="51.57"/>
                      
            </g>
                  
            <line class="bond" id="mol1bnd7" x1="14.24" x2="14.24" y1="31.52" y2="46.76"/>
                  
            <line class="bond" id="mol1bnd8" x1="40.65" x2="53.85" y1="46.76" y2="54.38"/>
                  
            <g class="bond" id="mol1bnd9">
                        
                <line x1="55.07" x2="55.07" y1="53.67" y2="65.7"/>
                        
                <line x1="52.63" x2="52.63" y1="53.67" y2="65.7"/>
                      
                <line class="hi" stroke="#FF0D0D" x1="55.07" x2="55.07" y1="65.7" y2="59.685"/>
                <line class="hi" stroke="#FF0D0D" x1="52.63" x2="52.63" y1="65.7" y2="59.685"/>
            </g>
                  
            <line class="bond" id="mol1bnd10" x1="53.85" x2="67.05" y1="54.38" y2="46.76"/>
                  
            <line class="bond" id="mol1bnd11" x1="67.05" x2="67.05" y1="46.76" y2="31.52"/>
                  
            <g class="bond" id="mol1bnd12">
                        
                <line x1="53.84" x2="67.05" y1="23.9" y2="31.52"/>
                        
                <line x1="56.28" x2="67.05" y1="22.49" y2="28.7"/>
                      
            </g>
                  
            <line class="bond" id="mol1bnd13" x1="53.84" x2="53.84" y1="23.9" y2="8.66"/>
                  
            <g class="bond" id="mol1bnd14">
                        
                <line x1="67.05" x2="53.84" y1="1.04" y2="8.66"/>
                        
                <line x1="67.05" x2="56.28" y1="3.85" y2="10.07"/>
                      
            </g>
                  
            <line class="bond" id="mol1bnd15" x1="67.05" x2="80.26" y1="1.04" y2="8.66"/>
                  
            <g class="bond" id="mol1bnd16">
                        
                <line x1="80.26" x2="80.26" y1="23.9" y2="8.66"/>
                        
                <line x1="77.82" x2="77.82" y1="22.49" y2="10.07"/>
                      
            </g>
                  
            <line class="bond" id="mol1bnd17" x1="67.05" x2="80.26" y1="31.52" y2="23.9"/>
                  
            <line class="bond" id="mol1bnd18" x1="67.05" x2="77.1" y1="46.76" y2="52.56"/>
                  
            <line class="bond" id="mol1bnd19" x1="83.47" x2="94.14" y1="52.95" y2="48.2"/>
                  
            <line class="bond" id="mol1bnd20" x1="94.14" x2="104.38" y1="48.2" y2="59.51"/>
                  
            <line class="bond" id="mol1bnd21" x1="104.38" x2="96.76" y1="59.51" y2="72.71"/>
                  
            <line class="bond" id="mol1bnd22" x1="96.76" x2="81.85" y1="72.71" y2="69.5"/>
                  
            <line class="bond" id="mol1bnd23" x1="80.66" x2="81.85" y1="58.22" y2="69.5"/>
                  
            <path class="atom" d="M56.11 69.62q.0 .76 -.26 1.33q-.26 .57 -.76 .88q-.5 .32 -1.24 .32q-.76 .0 -1.26 -.32q-.51 -.32 -.76 -.89q-.24 -.57 -.24 -1.33q.0 -.75 .24 -1.31q.25 -.57 .76 -.88q.51 -.32 1.27 -.32q.73 .0 1.23 .32q.5 .31 .76 .88q.26 .57 .26 1.33zM52.25 69.62q.0 .92 .39 1.46q.39 .53 1.22 .53q.84 .0 1.22 -.53q.39 -.54 .39 -1.46q.0 -.93 -.39 -1.45q-.38 -.52 -1.21 -.52q-.83 .0 -1.23 .52q-.39 .52 -.39 1.45z" id="mol1atm9" stroke="none"/>
                  
            <path class="atom" d="M82.19 56.83h-.72l-2.62 -4.07h-.03q.01 .24 .03 .6q.02 .36 .02 .73v2.74h-.57v-4.9h.71l2.61 4.05h.03q-.01 -.11 -.02 -.33q-.01 -.22 -.02 -.48q-.01 -.26 -.01 -.48v-2.77h.58v4.9z" fill="#3050F8" id="mol1atm17" stroke="none"/>
                
            <line class="hi" id="mol1bnd18" stroke="#3050F8" x1="77.1" x2="72.07499999999999" y1="52.56" y2="49.66"/>
            <line class="hi" id="mol1bnd19" stroke="#3050F8" x1="83.47" x2="88.805" y1="52.95" y2="50.575"/>
            <line class="hi" id="mol1bnd23" stroke="#3050F8" x1="80.66" x2="81.255" y1="58.22" y2="63.86"/>
        </g>
          
    </g>
    
</svg>
