<svg xmlns="http://www.w3.org/2000/svg" xmlns:xlink="http://www.w3.org/1999/xlink" height="161.41mm" version="1.2" viewBox="0 0 87.86 161.41" width="87.86mm">
      
    <desc>Generated by the Chemistry Development Kit (http://github.com/cdk)</desc>
      
    <g fill="#FF0D0D" stroke="#000000" stroke-linecap="round" stroke-linejoin="round" stroke-width=".7">
            
        <rect fill="#FFFFFF" height="162.0" stroke="none" width="88.0" x=".0" y=".0"/>
            
        <g class="mol" id="mol1">
                  
            <line class="bond" id="mol1bnd1" x1="7.92" x2="14.52" y1="66.8" y2="53.05"/>
                  
            <line class="bond" id="mol1bnd2" x1="14.52" x2="26.39" y1="53.05" y2="52.14"/>
                  
            <line class="bond" id="mol1bnd3" x1="32.19" x2="38.33" y1="55.49" y2="64.46"/>
                  
            <line class="bond" id="mol1bnd4" x1="38.33" x2="31.73" y1="64.46" y2="78.21"/>
                  
            <line class="bond" id="mol1bnd5" x1="31.73" x2="19.86" y1="78.21" y2="79.12"/>
                  
            <line class="bond" id="mol1bnd6" x1="7.92" x2="14.06" y1="66.8" y2="75.77"/>
                  
            <line class="bond" id="mol1bnd7" x1="14.75" x2="9.94" y1="83.09" y2="93.12"/>
                  
            <line class="bond" id="mol1bnd8" x1="9.94" x2="18.55" y1="93.12" y2="105.69"/>
                  
            <line class="bond" id="mol1bnd9" x1="18.55" x2="13.67" y1="105.69" y2="115.88"/>
                  
            <line class="bond" id="mol1bnd10" x1="14.18" x2="20.57" y1="122.68" y2="132.01"/>
                  
            <line class="bond" id="mol1bnd11" x1="20.57" x2="13.98" y1="132.01" y2="145.76"/>
                  
            <line class="bond" id="mol1bnd12" x1="13.98" x2="20.36" y1="145.76" y2="155.08"/>
                  
            <line class="bond" id="mol1bnd13" x1="31.5" x2="36.31" y1="48.17" y2="38.14"/>
                  
            <g class="bond" id="mol1bnd14">
                        
                <line x1="36.31" x2="48.21" y1="38.14" y2="38.14"/>
                        
                <line x1="37.48" x2="48.21" y1="35.7" y2="35.7"/>
                      
                <line class="hi" stroke="#3050F8" x1="48.21" x2="42.260000000000005" y1="38.14" y2="38.14"/>
                <line class="hi" stroke="#3050F8" x1="48.21" x2="42.845" y1="35.7" y2="35.7"/>
            </g>
                  
            <line class="bond" id="mol1bnd15" x1="54.37" x2="61.1" y1="34.63" y2="26.25"/>
                  
            <g class="bond" id="mol1bnd16">
                        
                <line x1="61.1" x2="75.63" y1="26.25" y2="30.72"/>
                        
                <line x1="63.16" x2="75.0" y1="24.33" y2="27.98"/>
                      
            </g>
                  
            <line class="bond" id="mol1bnd17" x1="75.63" x2="86.81" y1="30.72" y2="20.36"/>
                  
            <g class="bond" id="mol1bnd18">
                        
                <line x1="86.81" x2="83.35" y1="20.36" y2="5.53"/>
                        
                <line x1="84.11" x2="81.29" y1="19.53" y2="7.44"/>
                      
            </g>
                  
            <line class="bond" id="mol1bnd19" x1="83.35" x2="68.82" y1="5.53" y2="1.05"/>
                  
            <g class="bond" id="mol1bnd20">
                        
                <line x1="68.82" x2="57.65" y1="1.05" y2="11.42"/>
                        
                <line x1="69.45" x2="60.34" y1="3.8" y2="12.24"/>
                      
            </g>
                  
            <line class="bond" id="mol1bnd21" x1="61.1" x2="57.65" y1="26.25" y2="11.42"/>
                  
            <line class="bond" id="mol1bnd22" x1="57.65" x2="46.74" y1="11.42" y2="6.16"/>
                  
            <line class="bond" id="mol1bnd23" x1="41.14" x2="30.21" y1="6.16" y2="11.42"/>
                  
            <g class="bond" id="mol1bnd24">
                        
                <line x1="30.21" x2="19.04" y1="11.42" y2="1.05"/>
                        
                <line x1="27.52" x2="18.41" y1="12.24" y2="3.8"/>
                      
            </g>
                  
            <line class="bond" id="mol1bnd25" x1="19.04" x2="4.51" y1="1.05" y2="5.53"/>
                  
            <g class="bond" id="mol1bnd26">
                        
                <line x1="4.51" x2="1.05" y1="5.53" y2="20.36"/>
                        
                <line x1="6.57" x2="3.75" y1="7.44" y2="19.53"/>
                      
            </g>
                  
            <line class="bond" id="mol1bnd27" x1="1.05" x2="12.23" y1="20.36" y2="30.72"/>
                  
            <g class="bond" id="mol1bnd28">
                        
                <line x1="12.23" x2="26.76" y1="30.72" y2="26.25"/>
                        
                <line x1="12.86" x2="24.7" y1="27.98" y2="24.33"/>
                      
            </g>
                  
            <line class="bond" id="mol1bnd29" x1="30.21" x2="26.76" y1="11.42" y2="26.25"/>
                  
            <line class="bond" id="mol1bnd30" x1="36.31" x2="26.76" y1="38.14" y2="26.25"/>
                  
            <path class="atom" d="M31.66 54.33h-.72l-2.62 -4.07h-.03q.01 .24 .03 .6q.02 .36 .02 .73v2.74h-.57v-4.9h.71l2.61 4.05h.03q-.01 -.11 -.02 -.33q-.01 -.22 -.02 -.48q-.01 -.26 -.01 -.48v-2.77h.58v4.9z" fill="#3050F8" id="mol1atm3" stroke="none"/>
                  
            <path class="atom" d="M18.47 81.83h-.72l-2.62 -4.07h-.03q.01 .24 .03 .6q.02 .36 .02 .73v2.74h-.57v-4.9h.71l2.61 4.05h.03q-.01 -.11 -.02 -.33q-.01 -.22 -.02 -.48q-.01 -.26 -.01 -.48v-2.77h.58v4.9z" fill="#3050F8" id="mol1atm6" stroke="none"/>
                  
            <path class="atom" d="M14.22 119.43q.0 .76 -.26 1.33q-.26 .57 -.76 .88q-.5 .32 -1.24 .32q-.76 .0 -1.26 -.32q-.51 -.32 -.76 -.89q-.24 -.57 -.24 -1.33q.0 -.75 .24 -1.31q.25 -.57 .76 -.88q.51 -.32 1.27 -.32q.73 .0 1.23 .32q.5 .31 .76 .88q.26 .57 .26 1.33zM10.36 119.43q.0 .92 .39 1.46q.39 .53 1.22 .53q.84 .0 1.22 -.53q.39 -.54 .39 -1.46q.0 -.93 -.39 -1.45q-.38 -.52 -1.21 -.52q-.83 .0 -1.23 .52q-.39 .52 -.39 1.45z" id="mol1atm9" stroke="none"/>
                  
            <g class="atom" id="mol1atm12">
                        
                <path d="M24.85 158.33q.0 .76 -.26 1.33q-.26 .57 -.76 .88q-.5 .32 -1.24 .32q-.76 .0 -1.26 -.32q-.51 -.32 -.76 -.89q-.24 -.57 -.24 -1.33q.0 -.75 .24 -1.31q.25 -.57 .76 -.88q.51 -.32 1.27 -.32q.73 .0 1.23 .32q.5 .31 .76 .88q.26 .57 .26 1.33zM20.98 158.33q.0 .92 .39 1.46q.39 .53 1.22 .53q.84 .0 1.22 -.53q.39 -.54 .39 -1.46q.0 -.93 -.39 -1.45q-.38 -.52 -1.21 -.52q-.83 .0 -1.23 .52q-.39 .52 -.39 1.45z" stroke="none"/>
                        
                <path d="M29.15 160.78h-.62v-2.29h-2.51v2.29h-.61v-4.9h.61v2.07h2.51v-2.07h.62v4.9z" stroke="none"/>
                      
            </g>
                  
            <path class="atom" d="M53.49 40.59h-.72l-2.62 -4.07h-.03q.01 .24 .03 .6q.02 .36 .02 .73v2.74h-.57v-4.9h.71l2.61 4.05h.03q-.01 -.11 -.02 -.33q-.01 -.22 -.02 -.48q-.01 -.26 -.01 -.48v-2.77h.58v4.9z" fill="#3050F8" id="mol1atm14" stroke="none"/>
                  
            <path class="atom" d="M45.47 5.95q.0 .65 -.48 1.02q-.47 .36 -1.27 .36q-.42 .0 -.77 -.07q-.35 -.06 -.58 -.17v-.59q.24 .11 .61 .2q.37 .09 .76 .09q.55 .0 .83 -.21q.28 -.21 .28 -.58q.0 -.24 -.11 -.4q-.1 -.17 -.35 -.31q-.25 -.14 -.7 -.3q-.63 -.23 -.95 -.55q-.32 -.33 -.32 -.9q.0 -.39 .2 -.67q.2 -.28 .55 -.43q.36 -.15 .82 -.15q.4 .0 .74 .08q.34 .07 .61 .2l-.2 .53q-.25 -.11 -.55 -.18q-.3 -.08 -.63 -.08q-.46 .0 -.69 .2q-.23 .2 -.23 .52q.0 .24 .1 .41q.11 .17 .34 .3q.23 .13 .63 .28q.43 .15 .73 .34q.3 .18 .45 .43q.15 .25 .15 .64z" fill="#C6C62C" id="mol1atm21" stroke="none"/>
                
            <line class="hi" id="mol1bnd2" stroke="#3050F8" x1="26.39" x2="20.455" y1="52.14" y2="52.595"/>
            <line class="hi" id="mol1bnd3" stroke="#3050F8" x1="32.19" x2="35.26" y1="55.49" y2="59.974999999999994"/>
            <line class="hi" id="mol1bnd5" stroke="#3050F8" x1="19.86" x2="25.795" y1="79.12" y2="78.66499999999999"/>
            <line class="hi" id="mol1bnd6" stroke="#3050F8" x1="14.06" x2="10.99" y1="75.77" y2="71.285"/>
            <line class="hi" id="mol1bnd7" stroke="#3050F8" x1="14.75" x2="12.344999999999999" y1="83.09" y2="88.105"/>
            <line class="hi" id="mol1bnd9" stroke="#FF0D0D" x1="13.67" x2="16.11" y1="115.88" y2="110.785"/>
            <line class="hi" id="mol1bnd10" stroke="#FF0D0D" x1="14.18" x2="17.375" y1="122.68" y2="127.345"/>
            <line class="hi" id="mol1bnd12" stroke="#FF0D0D" x1="20.36" x2="17.17" y1="155.08" y2="150.42000000000002"/>
            <line class="hi" id="mol1bnd13" stroke="#3050F8" x1="31.5" x2="33.905" y1="48.17" y2="43.155"/>
            <line class="hi" id="mol1bnd15" stroke="#3050F8" x1="54.37" x2="57.735" y1="34.63" y2="30.44"/>
            <line class="hi" id="mol1bnd22" stroke="#C6C62C" x1="46.74" x2="52.195" y1="6.16" y2="8.79"/>
            <line class="hi" id="mol1bnd23" stroke="#C6C62C" x1="41.14" x2="35.675" y1="6.16" y2="8.79"/>
        </g>
          
    </g>
    
</svg>
