<svg xmlns="http://www.w3.org/2000/svg" xmlns:xlink="http://www.w3.org/1999/xlink" height="66.74mm" version="1.2" viewBox="0 0 71.9 66.74" width="71.9mm">
      
    <desc>Generated by the Chemistry Development Kit (http://github.com/cdk)</desc>
      
    <g fill="#3050F8" stroke="#000000" stroke-linecap="round" stroke-linejoin="round" stroke-width=".7">
            
        <rect fill="#FFFFFF" height="67.0" stroke="none" width="72.0" x=".0" y=".0"/>
            
        <g class="mol" id="mol1">
                  
            <line class="bond" id="mol1bnd1" x1="65.64" x2="70.85" y1="3.7" y2="18.02"/>
                  
            <line class="bond" id="mol1bnd2" x1="70.85" x2="61.05" y1="18.02" y2="29.7"/>
                  
            <line class="bond" id="mol1bnd3" x1="61.05" x2="46.05" y1="29.7" y2="27.05"/>
                  
            <line class="bond" id="mol1bnd4" x1="46.05" x2="40.85" y1="27.05" y2="12.73"/>
                  
            <line class="bond" id="mol1bnd5" x1="40.85" x2="50.64" y1="12.73" y2="1.05"/>
                  
            <line class="bond" id="mol1bnd6" x1="65.64" x2="50.64" y1="3.7" y2="1.05"/>
                  
            <line class="bond" id="mol1bnd7" x1="46.05" x2="31.05" y1="27.05" y2="29.7"/>
                  
            <g class="bond" id="mol1bnd8">
                        
                <line x1="25.84" x2="31.05" y1="44.02" y2="29.7"/>
                        
                <line x1="24.03" x2="28.28" y1="41.86" y2="30.19"/>
                      
            </g>
                  
            <line class="bond" id="mol1bnd9" x1="25.84" x2="10.84" y1="44.02" y2="46.66"/>
                  
            <g class="bond" id="mol1bnd10">
                        
                <line x1="1.05" x2="10.84" y1="34.98" y2="46.66"/>
                        
                <line x1="3.83" x2="11.81" y1="34.5" y2="44.02"/>
                      
            </g>
                  
            <line class="bond" id="mol1bnd11" x1="1.05" x2="6.26" y1="34.98" y2="20.66"/>
                  
            <g class="bond" id="mol1bnd12">
                        
                <line x1="21.26" x2="6.26" y1="18.02" y2="20.66"/>
                        
                <line x1="20.3" x2="8.07" y1="20.66" y2="22.82"/>
                      
            </g>
                  
            <line class="bond" id="mol1bnd13" x1="31.05" x2="21.26" y1="29.7" y2="18.02"/>
                  
            <line class="bond" id="mol1bnd14" x1="46.05" x2="46.05" y1="27.05" y2="38.44"/>
                  
            <line class="bond" id="mol1bnd15" x1="49.13" x2="58.34" y1="44.52" y2="51.22"/>
                  
            <line class="bond" id="mol1bnd16" x1="58.34" x2="53.67" y1="51.22" y2="65.74"/>
                  
            <line class="bond" id="mol1bnd17" x1="53.67" x2="38.44" y1="65.74" y2="65.74"/>
                  
            <line class="bond" id="mol1bnd18" x1="38.44" x2="33.77" y1="65.74" y2="51.22"/>
                  
            <line class="bond" id="mol1bnd19" x1="42.98" x2="33.77" y1="44.52" y2="51.22"/>
                  
            <path class="atom" d="M48.0 44.74h-.72l-2.62 -4.07h-.03q.01 .24 .03 .6q.02 .36 .02 .73v2.74h-.57v-4.9h.71l2.61 4.05h.03q-.01 -.11 -.02 -.33q-.01 -.22 -.02 -.48q-.01 -.26 -.01 -.48v-2.77h.58v4.9z" id="mol1atm13" stroke="none"/>
                
            <line class="hi" id="mol1bnd14" stroke="#3050F8" x1="46.05" x2="46.05" y1="38.44" y2="32.745"/>
            <line class="hi" id="mol1bnd15" stroke="#3050F8" x1="49.13" x2="53.735" y1="44.52" y2="47.870000000000005"/>
            <line class="hi" id="mol1bnd19" stroke="#3050F8" x1="42.98" x2="38.375" y1="44.52" y2="47.870000000000005"/>
        </g>
          
    </g>
    
</svg>
