<svg xmlns="http://www.w3.org/2000/svg" xmlns:xlink="http://www.w3.org/1999/xlink" height="110.43mm" version="1.2" viewBox="0 0 107.2 110.43" width="107.2mm">
      
    <desc>Generated by the Chemistry Development Kit (http://github.com/cdk)</desc>
      
    <g fill="#1FF01F" stroke="#000000" stroke-linecap="round" stroke-linejoin="round" stroke-width=".7">
            
        <rect fill="#FFFFFF" height="111.0" stroke="none" width="108.0" x=".0" y=".0"/>
            
        <g class="mol" id="mol1">
                  
            <line class="bond" id="mol1bnd1" x1="31.64" x2="31.67" y1="109.52" y2="93.25"/>
                  
            <g class="bond" id="mol1bnd2">
                        
                <line stroke="#000000" x1="14.78" x2="14.63" y1="85.4" y2="86.08"/>
                        
                <line stroke="#3050F8" x1="16.95" x2="16.71" y1="85.64" y2="86.76"/>
                        
                <line stroke="#3050F8" x1="19.11" x2="18.78" y1="85.89" y2="87.43"/>
                        
                <line stroke="#3050F8" x1="21.28" x2="20.86" y1="86.13" y2="88.1"/>
                        
                <line stroke="#3050F8" x1="23.45" x2="22.93" y1="86.37" y2="88.77"/>
                        
                <line stroke="#3050F8" x1="25.61" x2="25.01" y1="86.62" y2="89.44"/>
                        
                <line stroke="#3050F8" x1="27.78" x2="27.08" y1="86.86" y2="90.11"/>
                      
            </g>
                  
            <line class="bond" id="mol1bnd3" x1="14.71" x2="24.15" y1="85.74" y2="97.63"/>
                  
            <line class="bond" id="mol1bnd4" x1="24.15" x2="39.39" y1="97.63" y2="97.63"/>
                  
            <line class="bond" id="mol1bnd5" x1="39.39" x2="48.94" y1="97.63" y2="85.74"/>
                  
            <g class="bond" id="mol1bnd6">
                        
                <line stroke="#000000" x1="49.02" x2="48.87" y1="86.09" y2="85.4"/>
                        
                <line stroke="#3050F8" x1="46.9" x2="46.67" y1="86.76" y2="85.64"/>
                        
                <line stroke="#3050F8" x1="44.79" x2="44.46" y1="87.43" y2="85.89"/>
                        
                <line stroke="#3050F8" x1="42.68" x2="42.26" y1="88.1" y2="86.13"/>
                        
                <line stroke="#3050F8" x1="40.56" x2="40.05" y1="88.77" y2="86.37"/>
                        
                <line stroke="#3050F8" x1="38.45" x2="37.85" y1="89.44" y2="86.62"/>
                        
                <line stroke="#3050F8" x1="36.33" x2="35.65" y1="90.11" y2="86.86"/>
                      
            </g>
                  
            <line class="bond" id="mol1bnd7" x1="48.94" x2="45.49" y1="85.74" y2="70.91"/>
                  
            <line class="bond" id="mol1bnd8" x1="45.49" x2="31.77" y1="70.91" y2="64.31"/>
                  
            <line class="bond" id="mol1bnd9" x1="31.77" x2="18.06" y1="64.31" y2="70.91"/>
                  
            <line class="bond" id="mol1bnd10" x1="14.71" x2="18.06" y1="85.74" y2="70.91"/>
                  
            <g class="bond" id="mol1bnd11">
                        
                <line x1="31.42" x2="32.12" y1="64.31" y2="64.31"/>
                        
                <line x1="31.17" x2="32.37" y1="62.13" y2="62.13"/>
                        
                <line x1="30.92" x2="32.62" y1="59.95" y2="59.95"/>
                        
                <line x1="30.67" x2="32.87" y1="57.77" y2="57.77"/>
                        
                <line x1="30.42" x2="33.12" y1="55.6" y2="55.6"/>
                        
                <line x1="30.17" x2="33.37" y1="53.42" y2="53.42"/>
                        
                <line x1="29.92" x2="33.62" y1="51.24" y2="51.24"/>
                        
                <line x1="29.67" x2="33.87" y1="49.07" y2="49.07"/>
                      
            </g>
                  
            <g class="bond" id="mol1bnd12">
                        
                <line x1="18.57" x2="31.77" y1="41.44" y2="49.07"/>
                        
                <line x1="21.01" x2="31.77" y1="40.03" y2="46.25"/>
                      
            </g>
                  
            <line class="bond" id="mol1bnd13" x1="18.57" x2="18.56" y1="41.44" y2="26.19"/>
                  
            <g class="bond" id="mol1bnd14">
                        
                <line x1="31.76" x2="18.56" y1="18.57" y2="26.19"/>
                        
                <line x1="31.76" x2="21.0" y1="21.38" y2="27.6"/>
                      
            </g>
                  
            <line class="bond" id="mol1bnd15" x1="31.76" x2="44.96" y1="18.57" y2="26.19"/>
                  
            <g class="bond" id="mol1bnd16">
                        
                <line x1="44.97" x2="44.96" y1="41.44" y2="26.19"/>
                        
                <line x1="42.53" x2="42.53" y1="40.04" y2="27.6"/>
                      
            </g>
                  
            <line class="bond" id="mol1bnd17" x1="31.77" x2="44.97" y1="49.07" y2="41.44"/>
                  
            <line class="bond" id="mol1bnd18" x1="31.76" x2="31.76" y1="18.57" y2="7.25"/>
                  
            <line class="bond" id="mol1bnd19" x1="18.56" x2="6.87" y1="26.19" y2="19.45"/>
                  
            <g class="bond" id="mol1bnd20">
                        
                <line x1="45.27" x2="45.71" y1="70.64" y2="71.18"/>
                        
                <line x1="47.07" x2="47.87" y1="68.82" y2="69.82"/>
                        
                <line x1="48.87" x2="50.04" y1="67.0" y2="68.46"/>
                        
                <line x1="50.67" x2="52.2" y1="65.19" y2="67.1"/>
                        
                <line x1="52.47" x2="54.37" y1="63.37" y2="65.74"/>
                        
                <line x1="54.27" x2="56.53" y1="61.56" y2="64.38"/>
                        
                <line x1="56.07" x2="58.7" y1="59.74" y2="63.02"/>
                      
            </g>
                  
            <g class="bond" id="mol1bnd21">
                        
                <line x1="57.38" x2="55.68" y1="61.38" y2="50.22"/>
                        
                <line x1="59.58" x2="58.09" y1="59.62" y2="49.85"/>
                      
                <line class="hi" stroke="#FF0D0D" x1="55.68" x2="56.53" y1="50.22" y2="55.8"/>
                <line class="hi" stroke="#FF0D0D" x1="58.09" x2="58.835" y1="49.85" y2="54.735"/>
            </g>
                  
            <line class="bond" id="mol1bnd22" x1="57.38" x2="68.06" y1="61.38" y2="65.54"/>
                  
            <line class="bond" id="mol1bnd23" x1="74.59" x2="83.48" y1="64.51" y2="57.39"/>
                  
            <path class="atom" d="M33.61 91.85h-.72l-2.62 -4.07h-.03q.01 .24 .03 .6q.02 .36 .02 .73v2.74h-.57v-4.9h.71l2.61 4.05h.03q-.01 -.11 -.02 -.33q-.01 -.22 -.02 -.48q-.01 -.26 -.01 -.48v-2.77h.58v4.9z" fill="#3050F8" id="mol1atm2" stroke="none"/>
                  
            <path class="atom" d="M32.25 1.35q-.79 .0 -1.24 .53q-.45 .52 -.45 1.45q.0 .91 .42 1.45q.42 .53 1.27 .53q.32 .0 .61 -.05q.29 -.06 .57 -.14v.54q-.27 .1 -.57 .15q-.29 .05 -.7 .05q-.74 .0 -1.25 -.31q-.5 -.31 -.75 -.88q-.25 -.57 -.25 -1.34q.0 -.74 .27 -1.31q.27 -.57 .8 -.88q.53 -.32 1.28 -.32q.78 .0 1.35 .29l-.24 .52q-.23 -.1 -.51 -.18q-.27 -.08 -.61 -.08zM35.01 5.77h-.6v-5.21h.6v5.21z" id="mol1atm16" stroke="none"/>
                  
            <path class="atom" d="M2.91 16.76q-.79 .0 -1.24 .53q-.45 .52 -.45 1.45q.0 .91 .42 1.45q.42 .53 1.27 .53q.32 .0 .61 -.05q.29 -.06 .57 -.14v.54q-.27 .1 -.57 .15q-.29 .05 -.7 .05q-.74 .0 -1.25 -.31q-.5 -.31 -.75 -.88q-.25 -.57 -.25 -1.34q.0 -.74 .27 -1.31q.27 -.57 .8 -.88q.53 -.32 1.28 -.32q.78 .0 1.35 .29l-.24 .52q-.23 -.1 -.51 -.18q-.27 -.08 -.61 -.08zM5.66 21.18h-.6v-5.21h.6v5.21z" id="mol1atm17" stroke="none"/>
                  
            <path class="atom" d="M58.54 46.13q.0 .76 -.26 1.33q-.26 .57 -.76 .88q-.5 .32 -1.24 .32q-.76 .0 -1.26 -.32q-.51 -.32 -.76 -.89q-.24 -.57 -.24 -1.33q.0 -.75 .24 -1.31q.25 -.57 .76 -.88q.51 -.32 1.27 -.32q.73 .0 1.23 .32q.5 .31 .76 .88q.26 .57 .26 1.33zM54.68 46.13q.0 .92 .39 1.46q.39 .53 1.22 .53q.84 .0 1.22 -.53q.39 -.54 .39 -1.46q.0 -.93 -.39 -1.45q-.38 -.52 -1.21 -.52q-.83 .0 -1.23 .52q-.39 .52 -.39 1.45z" fill="#FF0D0D" id="mol1atm19" stroke="none"/>
                  
            <path class="atom" d="M73.84 66.91q.0 .76 -.26 1.33q-.26 .57 -.76 .88q-.5 .32 -1.24 .32q-.76 .0 -1.26 -.32q-.51 -.32 -.76 -.89q-.24 -.57 -.24 -1.33q.0 -.75 .24 -1.31q.25 -.57 .76 -.88q.51 -.32 1.27 -.32q.73 .0 1.23 .32q.5 .31 .76 .88q.26 .57 .26 1.33zM69.98 66.91q.0 .92 .39 1.46q.39 .53 1.22 .53q.84 .0 1.22 -.53q.39 -.54 .39 -1.46q.0 -.93 -.39 -1.45q-.38 -.52 -1.21 -.52q-.83 .0 -1.23 .52q-.39 .52 -.39 1.45z" fill="#FF0D0D" id="mol1atm20" stroke="none"/>
                  
            <g class="atom" id="mol1atm22">
                        
                <path d="M103.88 54.61q-.79 .0 -1.24 .53q-.45 .52 -.45 1.45q.0 .91 .42 1.45q.42 .53 1.27 .53q.32 .0 .61 -.05q.29 -.06 .57 -.14v.54q-.27 .1 -.57 .15q-.29 .05 -.7 .05q-.74 .0 -1.25 -.31q-.5 -.31 -.75 -.88q-.25 -.57 -.25 -1.34q.0 -.74 .27 -1.31q.27 -.57 .8 -.88q.53 -.32 1.28 -.32q.78 .0 1.35 .29l-.24 .52q-.23 -.1 -.51 -.18q-.27 -.08 -.61 -.08zM106.64 59.03h-.6v-5.21h.6v5.21z" stroke="none"/>
                        
                <path d="M100.97 59.03h-.62v-2.29h-2.51v2.29h-.61v-4.9h.61v2.07h2.51v-2.07h.62v4.9z" stroke="none"/>
                      
            </g>
                
            <line class="hi" id="mol1bnd1" stroke="#3050F8" x1="31.67" x2="31.655" y1="93.25" y2="101.38499999999999"/>
            <line class="hi" id="mol1bnd4" stroke="#3050F8" x1="33.61" x2="31.77" y1="97.63" y2="97.63"/>
            <line class="hi" id="mol1bnd18" stroke="#1FF01F" x1="31.76" x2="31.76" y1="7.25" y2="12.91"/>
            <line class="hi" id="mol1bnd19" stroke="#1FF01F" x1="6.870000000000001" x2="12.715" y1="19.45" y2="22.82"/>
            <line class="hi" id="mol1bnd22" stroke="#FF0D0D" x1="68.06" x2="62.72" y1="65.54" y2="63.46000000000001"/>
            <line class="hi" id="mol1bnd23" stroke="#FF0D0D" x1="74.59" x2="79.035" y1="64.51" y2="60.95"/>
        </g>
          
    </g>
    
</svg>
