<svg xmlns="http://www.w3.org/2000/svg" xmlns:xlink="http://www.w3.org/1999/xlink" height="87.98mm" version="1.2" viewBox="0 0 141.82 87.98" width="141.82mm">
      
    <desc>Generated by the Chemistry Development Kit (http://github.com/cdk)</desc>
      
    <g fill="#FF0D0D" stroke="#000000" stroke-linecap="round" stroke-linejoin="round" stroke-width=".7">
            
        <rect fill="#FFFFFF" height="88.0" stroke="none" width="142.0" x=".0" y=".0"/>
            
        <g class="mol" id="mol1">
                  
            <line class="bond" id="mol1bnd1" x1="140.77" x2="130.97" y1="23.26" y2="34.94"/>
                  
            <line class="bond" id="mol1bnd2" x1="130.97" x2="115.96" y1="34.94" y2="32.29"/>
                  
            <g class="bond" id="mol1bnd3">
                        
                <line x1="115.06" x2="110.97" y1="33.37" y2="22.14"/>
                        
                <line x1="117.35" x2="113.26" y1="32.54" y2="21.31"/>
                      
                <line class="hi" stroke="#FF0D0D" x1="110.97" x2="113.015" y1="22.14" y2="27.755"/>
                <line class="hi" stroke="#FF0D0D" x1="113.26" x2="115.305" y1="21.31" y2="26.924999999999997"/>
            </g>
                  
            <line class="bond" id="mol1bnd4" x1="115.96" x2="109.01" y1="32.29" y2="40.58"/>
                  
            <line class="bond" id="mol1bnd5" x1="107.54" x2="111.38" y1="47.74" y2="58.29"/>
                  
            <g class="bond" id="mol1bnd6">
                        
                <line x1="111.38" x2="101.58" y1="58.29" y2="69.97"/>
                        
                <line x1="112.35" x2="104.35" y1="60.94" y2="70.46"/>
                      
            </g>
                  
            <line class="bond" id="mol1bnd7" x1="101.58" x2="106.79" y1="69.97" y2="84.29"/>
                  
            <g class="bond" id="mol1bnd8">
                        
                <line x1="106.79" x2="121.81" y1="84.29" y2="86.93"/>
                        
                <line x1="108.6" x2="120.85" y1="82.13" y2="84.29"/>
                      
            </g>
                  
            <line class="bond" id="mol1bnd9" x1="121.81" x2="131.62" y1="86.93" y2="75.25"/>
                  
            <g class="bond" id="mol1bnd10">
                        
                <line x1="131.62" x2="126.4" y1="75.25" y2="60.93"/>
                        
                <line x1="128.84" x2="124.59" y1="74.76" y2="63.09"/>
                      
            </g>
                  
            <line class="bond" id="mol1bnd11" x1="111.38" x2="126.4" y1="58.29" y2="60.93"/>
                  
            <line class="bond" id="mol1bnd12" x1="102.85" x2="91.16" y1="43.38" y2="41.32"/>
                  
            <line class="bond" id="mol1bnd13" x1="91.16" x2="77.96" y1="41.32" y2="33.7"/>
                  
            <line class="bond" id="mol1bnd14" x1="77.96" x2="64.76" y1="33.7" y2="41.32"/>
                  
            <line class="bond" id="mol1bnd15" x1="64.76" x2="64.76" y1="41.32" y2="52.72"/>
                  
            <line class="bond" id="mol1bnd16" x1="67.92" x2="77.97" y1="58.39" y2="64.19"/>
                  
            <line class="bond" id="mol1bnd17" x1="77.97" x2="91.17" y1="64.19" y2="56.57"/>
                  
            <line class="bond" id="mol1bnd18" x1="91.16" x2="91.17" y1="41.32" y2="56.57"/>
                  
            <line class="bond" id="mol1bnd19" x1="61.61" x2="51.57" y1="58.39" y2="64.18"/>
                  
            <line class="bond" id="mol1bnd20" x1="51.57" x2="38.37" y1="64.18" y2="56.56"/>
                  
            <line class="bond" id="mol1bnd21" x1="38.37" x2="25.17" y1="56.56" y2="64.18"/>
                  
            <g class="bond" id="mol1bnd22">
                        
                <line x1="25.17" x2="11.24" y1="64.18" y2="57.95"/>
                        
                <line x1="22.56" x2="11.86" y1="65.69" y2="60.91"/>
                      
            </g>
                  
            <line class="bond" id="mol1bnd23" x1="11.24" x2="1.05" y1="57.95" y2="69.29"/>
                  
            <g class="bond" id="mol1bnd24">
                        
                <line x1="1.05" x2="8.74" y1="69.29" y2="82.48"/>
                        
                <line x1="4.06" x2="9.96" y1="69.6" y2="79.72"/>
                      
            </g>
                  
            <line class="bond" id="mol1bnd25" x1="8.74" x2="20.72" y1="82.48" y2="79.92"/>
                  
            <line class="bond" id="mol1bnd26" x1="25.17" x2="24.01" y1="64.18" y2="75.39"/>
                  
            <line class="bond" id="mol1bnd27" x1="91.16" x2="96.37" y1="41.32" y2="27.0"/>
                  
            <line class="bond" id="mol1bnd28" x1="96.37" x2="89.12" y1="27.0" y2="18.36"/>
                  
            <line class="bond" id="mol1bnd29" x1="87.95" x2="91.79" y1="11.58" y2="1.01"/>
                  
            <path class="atom" d="M113.01 17.97q.0 .76 -.26 1.33q-.26 .57 -.76 .88q-.5 .32 -1.24 .32q-.76 .0 -1.26 -.32q-.51 -.32 -.76 -.89q-.24 -.57 -.24 -1.33q.0 -.75 .24 -1.31q.25 -.57 .76 -.88q.51 -.32 1.27 -.32q.73 .0 1.23 .32q.5 .31 .76 .88q.26 .57 .26 1.33zM109.15 17.97q.0 .92 .39 1.46q.39 .53 1.22 .53q.84 .0 1.22 -.53q.39 -.54 .39 -1.46q.0 -.93 -.39 -1.45q-.38 -.52 -1.21 -.52q-.83 .0 -1.23 .52q-.39 .52 -.39 1.45z" id="mol1atm4" stroke="none"/>
                  
            <path class="atom" d="M108.11 46.42h-.72l-2.62 -4.07h-.03q.01 .24 .03 .6q.02 .36 .02 .73v2.74h-.57v-4.9h.71l2.61 4.05h.03q-.01 -.11 -.02 -.33q-.01 -.22 -.02 -.48q-.01 -.26 -.01 -.48v-2.77h.58v4.9z" fill="#3050F8" id="mol1atm5" stroke="none"/>
                  
            <path class="atom" d="M66.71 59.01h-.72l-2.62 -4.07h-.03q.01 .24 .03 .6q.02 .36 .02 .73v2.74h-.57v-4.9h.71l2.61 4.05h.03q-.01 -.11 -.02 -.33q-.01 -.22 -.02 -.48q-.01 -.26 -.01 -.48v-2.77h.58v4.9z" fill="#3050F8" id="mol1atm15" stroke="none"/>
                  
            <path class="atom" d="M25.15 80.44q.0 .65 -.48 1.02q-.47 .36 -1.27 .36q-.42 .0 -.77 -.07q-.35 -.06 -.58 -.17v-.59q.24 .11 .61 .2q.37 .09 .76 .09q.55 .0 .83 -.21q.28 -.21 .28 -.58q.0 -.24 -.11 -.4q-.1 -.17 -.35 -.31q-.25 -.14 -.7 -.3q-.63 -.23 -.95 -.55q-.32 -.33 -.32 -.9q.0 -.39 .2 -.67q.2 -.28 .55 -.43q.36 -.15 .82 -.15q.4 .0 .74 .08q.34 .07 .61 .2l-.2 .53q-.25 -.11 -.55 -.18q-.3 -.08 -.63 -.08q-.46 .0 -.69 .2q-.23 .2 -.23 .52q.0 .24 .1 .41q.11 .17 .34 .3q.23 .13 .63 .28q.43 .15 .73 .34q.3 .18 .45 .43q.15 .25 .15 .64z" fill="#C6C62C" id="mol1atm24" stroke="none"/>
                  
            <path class="atom" d="M88.84 15.33q.0 .76 -.26 1.33q-.26 .57 -.76 .88q-.5 .32 -1.24 .32q-.76 .0 -1.26 -.32q-.51 -.32 -.76 -.89q-.24 -.57 -.24 -1.33q.0 -.75 .24 -1.31q.25 -.57 .76 -.88q.51 -.32 1.27 -.32q.73 .0 1.23 .32q.5 .31 .76 .88q.26 .57 .26 1.33zM84.98 15.33q.0 .92 .39 1.46q.39 .53 1.22 .53q.84 .0 1.22 -.53q.39 -.54 .39 -1.46q.0 -.93 -.39 -1.45q-.38 -.52 -1.21 -.52q-.83 .0 -1.23 .52q-.39 .52 -.39 1.45z" id="mol1atm26" stroke="none"/>
                
            <line class="hi" id="mol1bnd4" stroke="#3050F8" x1="109.01" x2="112.485" y1="40.58" y2="36.435"/>
            <line class="hi" id="mol1bnd5" stroke="#3050F8" x1="107.54" x2="109.46000000000001" y1="47.74" y2="53.015"/>
            <line class="hi" id="mol1bnd12" stroke="#3050F8" x1="102.85" x2="97.005" y1="43.38" y2="42.35"/>
            <line class="hi" id="mol1bnd15" stroke="#3050F8" x1="64.76" x2="64.76" y1="52.72" y2="47.019999999999996"/>
            <line class="hi" id="mol1bnd16" stroke="#3050F8" x1="67.92" x2="72.945" y1="58.39" y2="61.29"/>
            <line class="hi" id="mol1bnd19" stroke="#3050F8" x1="61.61" x2="56.59" y1="58.39" y2="61.285000000000004"/>
            <line class="hi" id="mol1bnd25" stroke="#C6C62C" x1="20.72" x2="14.73" y1="79.92" y2="81.2"/>
            <line class="hi" id="mol1bnd26" stroke="#C6C62C" x1="24.01" x2="24.590000000000003" y1="75.39" y2="69.785"/>
            <line class="hi" id="mol1bnd28" stroke="#FF0D0D" x1="89.12" x2="92.745" y1="18.36" y2="22.68"/>
            <line class="hi" id="mol1bnd29" stroke="#FF0D0D" x1="87.95" x2="89.87" y1="11.58" y2="6.295"/>
        </g>
          
    </g>
    
</svg>
