<svg xmlns="http://www.w3.org/2000/svg" xmlns:xlink="http://www.w3.org/1999/xlink" height="175.18mm" version="1.2" viewBox="0 0 186.86 175.18" width="186.86mm">
      
    <desc>Generated by the Chemistry Development Kit (http://github.com/cdk)</desc>
      
    <g fill="#3050F8" stroke="#000000" stroke-linecap="round" stroke-linejoin="round" stroke-width=".7">
            
        <rect fill="#FFFFFF" height="176.0" stroke="none" width="187.0" x=".0" y=".0"/>
            
        <g class="mol" id="mol1">
                  
            <line class="bond" id="mol1bnd1" x1="40.64" x2="53.84" y1="170.7" y2="163.08"/>
                  
            <g class="bond" id="mol1bnd2">
                        
                <line x1="53.84" x2="53.84" y1="151.68" y2="163.08"/>
                        
                <line x1="56.28" x2="56.28" y1="151.68" y2="161.67"/>
                      
                <line class="hi" stroke="#3050F8" x1="53.84" x2="53.84" y1="151.68" y2="157.38"/>
                <line class="hi" stroke="#3050F8" x1="56.28" x2="56.28" y1="151.68" y2="156.675"/>
            </g>
                  
            <line class="bond" id="mol1bnd3" x1="56.99" x2="67.04" y1="146.01" y2="140.2"/>
                  
            <g class="bond" id="mol1bnd4">
                        
                <line x1="80.24" x2="67.04" y1="147.82" y2="140.2"/>
                        
                <line x1="77.8" x2="67.04" y1="149.22" y2="143.02"/>
                      
            </g>
                  
            <line class="bond" id="mol1bnd5" x1="80.24" x2="80.24" y1="147.82" y2="163.06"/>
                  
            <g class="bond" id="mol1bnd6">
                        
                <line x1="70.19" x2="80.24" y1="168.87" y2="163.06"/>
                        
                <line x1="68.97" x2="77.8" y1="166.76" y2="161.66"/>
                      
                <line class="hi" stroke="#3050F8" x1="70.19" x2="75.215" y1="168.87" y2="165.965"/>
                <line class="hi" stroke="#3050F8" x1="68.97" x2="73.38499999999999" y1="166.76" y2="164.20999999999998"/>
            </g>
                  
            <line class="bond" id="mol1bnd7" x1="53.84" x2="63.89" y1="163.08" y2="168.88"/>
                  
            <line class="bond" id="mol1bnd8" x1="80.24" x2="90.29" y1="163.06" y2="168.86"/>
                  
            <line class="bond" id="mol1bnd9" x1="80.24" x2="93.44" y1="147.82" y2="140.19"/>
                  
            <line class="bond" id="mol1bnd10" x1="93.44" x2="93.43" y1="140.19" y2="128.8"/>
                  
            <line class="bond" id="mol1bnd11" x1="96.59" x2="106.63" y1="123.13" y2="117.33"/>
                  
            <g class="bond" id="mol1bnd12">
                        
                <line x1="105.41" x2="105.41" y1="118.03" y2="101.39"/>
                        
                <line x1="107.85" x2="107.85" y1="118.03" y2="101.39"/>
                      
            </g>
                  
            <line class="bond" id="mol1bnd13" x1="106.63" x2="96.19" y1="102.09" y2="96.06"/>
                  
            <line class="bond" id="mol1bnd14" x1="93.43" x2="93.43" y1="90.55" y2="83.15"/>
                  
            <line class="bond" id="mol1bnd15" x1="90.71" x2="80.23" y1="77.67" y2="71.62"/>
                  
            <g class="bond" id="mol1bnd16">
                        
                <line x1="79.01" x2="79.01" y1="72.32" y2="55.67"/>
                        
                <line x1="81.45" x2="81.44" y1="72.32" y2="55.67"/>
                      
            </g>
                  
            <line class="bond" id="mol1bnd17" x1="80.23" x2="90.27" y1="56.38" y2="50.57"/>
                  
            <line class="bond" id="mol1bnd18" x1="96.58" x2="106.62" y1="50.57" y2="56.37"/>
                  
            <g class="bond" id="mol1bnd19">
                        
                <line x1="106.62" x2="116.54" y1="56.37" y2="50.64"/>
                        
                <line x1="106.62" x2="115.32" y1="53.56" y2="48.53"/>
                      
                <line class="hi" stroke="#FF0D0D" x1="116.54" x2="111.58000000000001" y1="50.64" y2="53.504999999999995"/>
                <line class="hi" stroke="#FF0D0D" x1="115.32" x2="110.97" y1="48.53" y2="51.045"/>
            </g>
                  
            <line class="bond" id="mol1bnd20" x1="93.42" x2="93.42" y1="44.9" y2="33.51"/>
                  
            <line class="bond" id="mol1bnd21" x1="93.42" x2="106.62" y1="33.51" y2="25.89"/>
                  
            <g class="bond" id="mol1bnd22">
                        
                <line x1="106.62" x2="119.82" y1="25.89" y2="33.51"/>
                        
                <line x1="109.06" x2="119.82" y1="24.48" y2="30.69"/>
                      
            </g>
                  
            <line class="bond" id="mol1bnd23" x1="119.82" x2="129.87" y1="33.51" y2="27.7"/>
                  
            <g class="bond" id="mol1bnd24">
                        
                <line x1="133.02" x2="133.02" y1="22.02" y2="10.63"/>
                        
                <line x1="130.58" x2="130.58" y1="22.02" y2="12.03"/>
                      
                <line class="hi" stroke="#3050F8" x1="133.02" x2="133.02" y1="22.02" y2="16.325"/>
                <line class="hi" stroke="#3050F8" x1="130.58" x2="130.58" y1="22.02" y2="17.025"/>
            </g>
                  
            <line class="bond" id="mol1bnd25" x1="133.02" x2="122.97" y1="10.63" y2="4.83"/>
                  
            <g class="bond" id="mol1bnd26">
                        
                <line x1="116.66" x2="106.62" y1="4.83" y2="10.64"/>
                        
                <line x1="117.89" x2="109.06" y1="6.94" y2="12.05"/>
                      
                <line class="hi" stroke="#3050F8" x1="116.66" x2="111.64" y1="4.83" y2="7.735"/>
                <line class="hi" stroke="#3050F8" x1="117.89" x2="113.475" y1="6.94" y2="9.495000000000001"/>
            </g>
                  
            <line class="bond" id="mol1bnd27" x1="106.62" x2="106.62" y1="25.89" y2="10.64"/>
                  
            <line class="bond" id="mol1bnd28" x1="106.62" x2="96.57" y1="10.64" y2="4.85"/>
                  
            <line class="bond" id="mol1bnd29" x1="133.02" x2="146.21" y1="10.63" y2="3.0"/>
                  
            <line class="bond" id="mol1bnd30" x1="80.23" x2="67.03" y1="56.38" y2="48.76"/>
                  
            <line class="bond" id="mol1bnd31" x1="80.23" x2="67.03" y1="71.62" y2="79.24"/>
                  
            <line class="bond" id="mol1bnd32" x1="67.03" x2="53.83" y1="79.24" y2="71.62"/>
                  
            <line class="bond" id="mol1bnd33" x1="53.83" x2="43.91" y1="71.62" y2="77.35"/>
                  
            <line class="bond" id="mol1bnd34" x1="37.35" x2="27.43" y1="77.35" y2="71.62"/>
                  
            <g class="bond" id="mol1bnd35">
                        
                <line x1="26.22" x2="26.21" y1="72.33" y2="60.31"/>
                        
                <line x1="28.65" x2="28.65" y1="72.33" y2="60.3"/>
                      
                <line class="hi" stroke="#FF0D0D" x1="26.21" x2="26.215" y1="60.31" y2="66.32"/>
                <line class="hi" stroke="#FF0D0D" x1="28.65" x2="28.65" y1="60.3" y2="66.315"/>
            </g>
                  
            <line class="bond" id="mol1bnd36" x1="27.43" x2="14.24" y1="71.62" y2="79.25"/>
                  
            <line class="bond" id="mol1bnd37" x1="14.24" x2="1.04" y1="79.25" y2="71.63"/>
                  
            <line class="bond" id="mol1bnd38" x1="14.24" x2="14.24" y1="79.25" y2="94.49"/>
                  
            <line class="bond" id="mol1bnd39" x1="106.63" x2="119.83" y1="102.09" y2="94.47"/>
                  
            <line class="bond" id="mol1bnd40" x1="119.83" x2="133.03" y1="94.47" y2="102.09"/>
                  
            <line class="bond" id="mol1bnd41" x1="133.03" x2="142.94" y1="102.09" y2="96.36"/>
                  
            <line class="bond" id="mol1bnd42" x1="149.5" x2="159.42" y1="96.36" y2="102.08"/>
                  
            <g class="bond" id="mol1bnd43">
                        
                <line x1="160.64" x2="160.64" y1="101.38" y2="113.4"/>
                        
                <line x1="158.2" x2="158.2" y1="101.38" y2="113.4"/>
                      
                <line class="hi" stroke="#FF0D0D" x1="160.64" x2="160.64" y1="113.4" y2="107.39"/>
                <line class="hi" stroke="#FF0D0D" x1="158.2" x2="158.2" y1="113.4" y2="107.39"/>
            </g>
                  
            <line class="bond" id="mol1bnd44" x1="159.42" x2="172.62" y1="102.08" y2="94.46"/>
                  
            <line class="bond" id="mol1bnd45" x1="172.62" x2="185.82" y1="94.46" y2="102.08"/>
                  
            <line class="bond" id="mol1bnd46" x1="172.62" x2="172.62" y1="94.46" y2="79.22"/>
                  
            <line class="bond" id="mol1bnd47" x1="106.63" x2="119.83" y1="117.33" y2="124.95"/>
                  
            <line class="bond" id="mol1bnd48" x1="90.28" x2="80.23" y1="123.13" y2="117.34"/>
                  
            <g class="bond" id="mol1bnd49">
                        
                <line x1="80.23" x2="70.32" y1="117.34" y2="123.06"/>
                        
                <line x1="80.24" x2="71.54" y1="120.15" y2="125.18"/>
                      
                <line class="hi" stroke="#FF0D0D" x1="70.32" x2="75.275" y1="123.06" y2="120.2"/>
                <line class="hi" stroke="#FF0D0D" x1="71.54" x2="75.89" y1="125.18" y2="122.665"/>
            </g>
                  
            <path class="atom" d="M55.78 150.28h-.72l-2.62 -4.07h-.03q.01 .24 .03 .6q.02 .36 .02 .73v2.74h-.57v-4.9h.71l2.61 4.05h.03q-.01 -.11 -.02 -.33q-.01 -.22 -.02 -.48q-.01 -.26 -.01 -.48v-2.77h.58v4.9z" id="mol1atm3" stroke="none"/>
                  
            <path class="atom" d="M68.98 173.15h-.72l-2.62 -4.07h-.03q.01 .24 .03 .6q.02 .36 .02 .73v2.74h-.57v-4.9h.71l2.61 4.05h.03q-.01 -.11 -.02 -.33q-.01 -.22 -.02 -.48q-.01 -.26 -.01 -.48v-2.77h.58v4.9z" id="mol1atm7" stroke="none"/>
                  
            <g class="atom" id="mol1atm8">
                        
                <path d="M95.38 173.13h-.72l-2.62 -4.07h-.03q.01 .24 .03 .6q.02 .36 .02 .73v2.74h-.57v-4.9h.71l2.61 4.05h.03q-.01 -.11 -.02 -.33q-.01 -.22 -.02 -.48q-.01 -.26 -.01 -.48v-2.77h.58v4.9z" stroke="none"/>
                        
                <path d="M99.69 173.13h-.62v-2.29h-2.51v2.29h-.61v-4.9h.61v2.07h2.51v-2.07h.62v4.9z" stroke="none"/>
                        
                <path d="M102.19 174.62h-1.94v-.3l.77 -.78q.22 -.22 .37 -.39q.15 -.18 .23 -.34q.08 -.17 .08 -.36q.0 -.24 -.15 -.37q-.14 -.13 -.37 -.13q-.21 .0 -.38 .08q-.16 .08 -.33 .21l-.19 -.24q.17 -.15 .39 -.25q.23 -.1 .51 -.1q.41 .0 .65 .21q.24 .21 .24 .58q.0 .23 -.1 .43q-.09 .2 -.26 .4q-.17 .2 -.39 .42l-.61 .6v.02h1.49v.33z" stroke="none"/>
                      
            </g>
                  
            <path class="atom" d="M95.38 127.4h-.72l-2.62 -4.07h-.03q.01 .24 .03 .6q.02 .36 .02 .73v2.74h-.57v-4.9h.71l2.61 4.05h.03q-.01 -.11 -.02 -.33q-.01 -.22 -.02 -.48q-.01 -.26 -.01 -.48v-2.77h.58v4.9z" id="mol1atm10" stroke="none"/>
                  
            <path class="atom" d="M94.97 95.61q.0 .65 -.48 1.02q-.47 .36 -1.27 .36q-.42 .0 -.77 -.07q-.35 -.06 -.58 -.17v-.59q.24 .11 .61 .2q.37 .09 .76 .09q.55 .0 .83 -.21q.28 -.21 .28 -.58q.0 -.24 -.11 -.4q-.1 -.17 -.35 -.31q-.25 -.14 -.7 -.3q-.63 -.23 -.95 -.55q-.32 -.33 -.32 -.9q.0 -.39 .2 -.67q.2 -.28 .55 -.43q.36 -.15 .82 -.15q.4 .0 .74 .08q.34 .07 .61 .2l-.2 .53q-.25 -.11 -.55 -.18q-.3 -.08 -.63 -.08q-.46 .0 -.69 .2q-.23 .2 -.23 .52q.0 .24 .1 .41q.11 .17 .34 .3q.23 .13 .63 .28q.43 .15 .73 .34q.3 .18 .45 .43q.15 .25 .15 .64z" fill="#C6C62C" id="mol1atm13" stroke="none"/>
                  
            <path class="atom" d="M94.97 80.37q.0 .65 -.48 1.02q-.47 .36 -1.27 .36q-.42 .0 -.77 -.07q-.35 -.06 -.58 -.17v-.59q.24 .11 .61 .2q.37 .09 .76 .09q.55 .0 .83 -.21q.28 -.21 .28 -.58q.0 -.24 -.11 -.4q-.1 -.17 -.35 -.31q-.25 -.14 -.7 -.3q-.63 -.23 -.95 -.55q-.32 -.33 -.32 -.9q.0 -.39 .2 -.67q.2 -.28 .55 -.43q.36 -.15 .82 -.15q.4 .0 .74 .08q.34 .07 .61 .2l-.2 .53q-.25 -.11 -.55 -.18q-.3 -.08 -.63 -.08q-.46 .0 -.69 .2q-.23 .2 -.23 .52q.0 .24 .1 .41q.11 .17 .34 .3q.23 .13 .63 .28q.43 .15 .73 .34q.3 .18 .45 .43q.15 .25 .15 .64z" fill="#C6C62C" id="mol1atm14" stroke="none"/>
                  
            <path class="atom" d="M95.36 51.2h-.72l-2.62 -4.07h-.03q.01 .24 .03 .6q.02 .36 .02 .73v2.74h-.57v-4.9h.71l2.61 4.05h.03q-.01 -.11 -.02 -.33q-.01 -.22 -.02 -.48q-.01 -.26 -.01 -.48v-2.77h.58v4.9z" id="mol1atm17" stroke="none"/>
                  
            <path class="atom" d="M121.47 47.69q.0 .76 -.26 1.33q-.26 .57 -.76 .88q-.5 .32 -1.24 .32q-.76 .0 -1.26 -.32q-.51 -.32 -.76 -.89q-.24 -.57 -.24 -1.33q.0 -.75 .24 -1.31q.25 -.57 .76 -.88q.51 -.32 1.27 -.32q.73 .0 1.23 .32q.5 .31 .76 .88q.26 .57 .26 1.33zM117.6 47.69q.0 .92 .39 1.46q.39 .53 1.22 .53q.84 .0 1.22 -.53q.39 -.54 .39 -1.46q.0 -.93 -.39 -1.45q-.38 -.52 -1.21 -.52q-.83 .0 -1.23 .52q-.39 .52 -.39 1.45z" fill="#FF0D0D" id="mol1atm19" stroke="none"/>
                  
            <path class="atom" d="M134.96 28.32h-.72l-2.62 -4.07h-.03q.01 .24 .03 .6q.02 .36 .02 .73v2.74h-.57v-4.9h.71l2.61 4.05h.03q-.01 -.11 -.02 -.33q-.01 -.22 -.02 -.48q-.01 -.26 -.01 -.48v-2.77h.58v4.9z" id="mol1atm23" stroke="none"/>
                  
            <path class="atom" d="M121.76 5.46h-.72l-2.62 -4.07h-.03q.01 .24 .03 .6q.02 .36 .02 .73v2.74h-.57v-4.9h.71l2.61 4.05h.03q-.01 -.11 -.02 -.33q-.01 -.22 -.02 -.48q-.01 -.26 -.01 -.48v-2.77h.58v4.9z" id="mol1atm25" stroke="none"/>
                  
            <g class="atom" id="mol1atm27">
                        
                <path d="M95.36 5.48h-.72l-2.62 -4.07h-.03q.01 .24 .03 .6q.02 .36 .02 .73v2.74h-.57v-4.9h.71l2.61 4.05h.03q-.01 -.11 -.02 -.33q-.01 -.22 -.02 -.48q-.01 -.26 -.01 -.48v-2.77h.58v4.9z" stroke="none"/>
                        
                <path d="M88.41 5.48h-.62v-2.29h-2.51v2.29h-.61v-4.9h.61v2.07h2.51v-2.07h.62v4.9z" stroke="none"/>
                        
                <path d="M90.91 6.97h-1.94v-.3l.77 -.78q.22 -.22 .37 -.39q.15 -.18 .23 -.34q.08 -.17 .08 -.36q.0 -.24 -.15 -.37q-.14 -.13 -.37 -.13q-.21 .0 -.38 .08q-.16 .08 -.33 .21l-.19 -.24q.17 -.15 .39 -.25q.23 -.1 .51 -.1q.41 .0 .65 .21q.24 .21 .24 .58q.0 .23 -.1 .43q-.09 .2 -.26 .4q-.17 .2 -.39 .42l-.61 .6v.02h1.49v.33z" stroke="none"/>
                      
            </g>
                  
            <path class="atom" d="M42.89 79.24q.0 .76 -.26 1.33q-.26 .57 -.76 .88q-.5 .32 -1.24 .32q-.76 .0 -1.26 -.32q-.51 -.32 -.76 -.89q-.24 -.57 -.24 -1.33q.0 -.75 .24 -1.31q.25 -.57 .76 -.88q.51 -.32 1.27 -.32q.73 .0 1.23 .32q.5 .31 .76 .88q.26 .57 .26 1.33zM39.03 79.24q.0 .92 .39 1.46q.39 .53 1.22 .53q.84 .0 1.22 -.53q.39 -.54 .39 -1.46q.0 -.93 -.39 -1.45q-.38 -.52 -1.21 -.52q-.83 .0 -1.23 .52q-.39 .52 -.39 1.45z" fill="#FF0D0D" id="mol1atm32" stroke="none"/>
                  
            <path class="atom" d="M29.69 56.38q.0 .76 -.26 1.33q-.26 .57 -.76 .88q-.5 .32 -1.24 .32q-.76 .0 -1.26 -.32q-.51 -.32 -.76 -.89q-.24 -.57 -.24 -1.33q.0 -.75 .24 -1.31q.25 -.57 .76 -.88q.51 -.32 1.27 -.32q.73 .0 1.23 .32q.5 .31 .76 .88q.26 .57 .26 1.33zM25.83 56.38q.0 .92 .39 1.46q.39 .53 1.22 .53q.84 .0 1.22 -.53q.39 -.54 .39 -1.46q.0 -.93 -.39 -1.45q-.38 -.52 -1.21 -.52q-.83 .0 -1.23 .52q-.39 .52 -.39 1.45z" fill="#FF0D0D" id="mol1atm34" stroke="none"/>
                  
            <path class="atom" d="M148.48 94.46q.0 .76 -.26 1.33q-.26 .57 -.76 .88q-.5 .32 -1.24 .32q-.76 .0 -1.26 -.32q-.51 -.32 -.76 -.89q-.24 -.57 -.24 -1.33q.0 -.75 .24 -1.31q.25 -.57 .76 -.88q.51 -.32 1.27 -.32q.73 .0 1.23 .32q.5 .31 .76 .88q.26 .57 .26 1.33zM144.62 94.46q.0 .92 .39 1.46q.39 .53 1.22 .53q.84 .0 1.22 -.53q.39 -.54 .39 -1.46q.0 -.93 -.39 -1.45q-.38 -.52 -1.21 -.52q-.83 .0 -1.23 .52q-.39 .52 -.39 1.45z" fill="#FF0D0D" id="mol1atm40" stroke="none"/>
                  
            <path class="atom" d="M161.68 117.32q.0 .76 -.26 1.33q-.26 .57 -.76 .88q-.5 .32 -1.24 .32q-.76 .0 -1.26 -.32q-.51 -.32 -.76 -.89q-.24 -.57 -.24 -1.33q.0 -.75 .24 -1.31q.25 -.57 .76 -.88q.51 -.32 1.27 -.32q.73 .0 1.23 .32q.5 .31 .76 .88q.26 .57 .26 1.33zM157.82 117.32q.0 .92 .39 1.46q.39 .53 1.22 .53q.84 .0 1.22 -.53q.39 -.54 .39 -1.46q.0 -.93 -.39 -1.45q-.38 -.52 -1.21 -.52q-.83 .0 -1.23 .52q-.39 .52 -.39 1.45z" fill="#FF0D0D" id="mol1atm42" stroke="none"/>
                  
            <path class="atom" d="M69.91 126.01q.0 .76 -.26 1.33q-.26 .57 -.76 .88q-.5 .32 -1.24 .32q-.76 .0 -1.26 -.32q-.51 -.32 -.76 -.89q-.24 -.57 -.24 -1.33q.0 -.75 .24 -1.31q.25 -.57 .76 -.88q.51 -.32 1.27 -.32q.73 .0 1.23 .32q.5 .31 .76 .88q.26 .57 .26 1.33zM66.04 126.01q.0 .92 .39 1.46q.39 .53 1.22 .53q.84 .0 1.22 -.53q.39 -.54 .39 -1.46q.0 -.93 -.39 -1.45q-.38 -.52 -1.21 -.52q-.83 .0 -1.23 .52q-.39 .52 -.39 1.45z" fill="#FF0D0D" id="mol1atm48" stroke="none"/>
                
            <line class="hi" id="mol1bnd3" stroke="#3050F8" x1="56.99" x2="62.015" y1="146.01" y2="143.105"/>
            <line class="hi" id="mol1bnd7" stroke="#3050F8" x1="63.89" x2="58.865" y1="168.88" y2="165.98000000000002"/>
            <line class="hi" id="mol1bnd8" stroke="#3050F8" x1="90.29" x2="85.265" y1="168.86" y2="165.96"/>
            <line class="hi" id="mol1bnd10" stroke="#3050F8" x1="93.43" x2="93.435" y1="128.8" y2="134.495"/>
            <line class="hi" id="mol1bnd11" stroke="#3050F8" x1="96.59" x2="101.61" y1="123.13" y2="120.22999999999999"/>
            <line class="hi" id="mol1bnd13" stroke="#C6C62C" x1="96.19" x2="101.41" y1="96.06" y2="99.075"/>
            <line class="hi" id="mol1bnd14" stroke="#C6C62C" x1="93.43" x2="93.43" y1="90.55" y2="86.85"/>
            <line class="hi" id="mol1bnd14" stroke="#C6C62C" x1="93.43" x2="93.43" y1="83.15" y2="86.85"/>
            <line class="hi" id="mol1bnd15" stroke="#C6C62C" x1="90.71" x2="85.47" y1="77.67" y2="74.64500000000001"/>
            <line class="hi" id="mol1bnd17" stroke="#3050F8" x1="90.27" x2="85.25" y1="50.57" y2="53.475"/>
            <line class="hi" id="mol1bnd18" stroke="#3050F8" x1="96.58" x2="101.6" y1="50.57" y2="53.47"/>
            <line class="hi" id="mol1bnd20" stroke="#3050F8" x1="93.42" x2="93.42" y1="44.9" y2="39.205"/>
            <line class="hi" id="mol1bnd23" stroke="#3050F8" x1="129.87" x2="124.845" y1="27.7" y2="30.604999999999997"/>
            <line class="hi" id="mol1bnd25" stroke="#3050F8" x1="122.97" x2="127.995" y1="4.83" y2="7.73"/>
            <line class="hi" id="mol1bnd28" stroke="#3050F8" x1="96.57" x2="101.595" y1="4.85" y2="7.745"/>
            <line class="hi" id="mol1bnd28" stroke="#3050F8" x1="96.57" x2="101.595" y1="4.85" y2="7.745"/>
            <line class="hi" id="mol1bnd33" stroke="#FF0D0D" x1="43.91" x2="48.87" y1="77.35" y2="74.485"/>
            <line class="hi" id="mol1bnd34" stroke="#FF0D0D" x1="37.35" x2="32.39" y1="77.35" y2="74.485"/>
            <line class="hi" id="mol1bnd41" stroke="#FF0D0D" x1="142.94" x2="137.985" y1="96.36" y2="99.225"/>
            <line class="hi" id="mol1bnd42" stroke="#FF0D0D" x1="149.5" x2="154.45999999999998" y1="96.36" y2="99.22"/>
            <line class="hi" id="mol1bnd48" stroke="#3050F8" x1="90.28" x2="85.255" y1="123.13" y2="120.235"/>
        </g>
          
    </g>
    
</svg>
