<svg xmlns="http://www.w3.org/2000/svg" xmlns:xlink="http://www.w3.org/1999/xlink" height="55.34mm" version="1.2" viewBox="0 0 113.77 55.34" width="113.77mm">
      
    <desc>Generated by the Chemistry Development Kit (http://github.com/cdk)</desc>
      
    <g fill="#FF0D0D" stroke="#000000" stroke-linecap="round" stroke-linejoin="round" stroke-width=".7">
            
        <rect fill="#FFFFFF" height="56.0" stroke="none" width="114.0" x=".0" y=".0"/>
            
        <g class="mol" id="mol1">
                  
            <line class="bond" id="mol1bnd1" x1="73.14" x2="59.94" y1="1.04" y2="8.66"/>
                  
            <g class="bond" id="mol1bnd2">
                        
                <line x1="60.24" x2="59.63" y1="23.72" y2="24.07"/>
                        
                <line x1="60.46" x2="59.42" y1="21.42" y2="22.02"/>
                        
                <line x1="60.67" x2="59.2" y1="19.12" y2="19.97"/>
                        
                <line x1="60.89" x2="58.99" y1="16.81" y2="17.91"/>
                        
                <line x1="61.11" x2="58.77" y1="14.51" y2="15.86"/>
                        
                <line x1="61.32" x2="58.55" y1="12.21" y2="13.81"/>
                        
                <line x1="61.54" x2="58.34" y1="9.91" y2="11.76"/>
                        
                <line x1="61.76" x2="58.12" y1="7.61" y2="9.71"/>
                      
            </g>
                  
            <line class="bond" id="mol1bnd3" x1="59.94" x2="46.74" y1="23.9" y2="31.51"/>
                  
            <g class="bond" id="mol1bnd4">
                        
                <line x1="46.74" x2="33.54" y1="31.51" y2="23.89"/>
                        
                <line x1="44.3" x2="33.54" y1="32.92" y2="26.71"/>
                      
            </g>
                  
            <line class="bond" id="mol1bnd5" x1="33.54" x2="20.34" y1="23.89" y2="31.52"/>
                  
            <g class="bond" id="mol1bnd6">
                        
                <line x1="20.34" x2="20.38" y1="31.52" y2="46.68"/>
                        
                <line x1="22.78" x2="22.82" y1="32.93" y2="45.27"/>
                      
            </g>
                  
            <line class="bond" id="mol1bnd7" x1="20.38" x2="33.58" y1="46.68" y2="54.3"/>
                  
            <g class="bond" id="mol1bnd8">
                        
                <line x1="33.58" x2="46.73" y1="54.3" y2="46.76"/>
                        
                <line x1="33.58" x2="44.29" y1="51.49" y2="45.35"/>
                      
            </g>
                  
            <line class="bond" id="mol1bnd9" x1="46.74" x2="46.73" y1="31.51" y2="46.76"/>
                  
            <line class="bond" id="mol1bnd10" x1="20.34" x2="10.4" y1="31.52" y2="25.81"/>
                  
            <line class="bond" id="mol1bnd11" x1="59.94" x2="73.13" y1="23.9" y2="31.52"/>
                  
            <g class="bond" id="mol1bnd12">
                        
                <line x1="73.48" x2="72.78" y1="31.52" y2="31.52"/>
                        
                <line x1="73.73" x2="72.53" y1="33.7" y2="33.7"/>
                        
                <line x1="73.98" x2="72.28" y1="35.87" y2="35.87"/>
                        
                <line x1="74.23" x2="72.03" y1="38.05" y2="38.05"/>
                        
                <line x1="74.48" x2="71.78" y1="40.23" y2="40.23"/>
                        
                <line x1="74.73" x2="71.53" y1="42.4" y2="42.4"/>
                        
                <line x1="74.98" x2="71.28" y1="44.58" y2="44.58"/>
                        
                <line x1="75.23" x2="71.03" y1="46.76" y2="46.76"/>
                      
            </g>
                  
            <line class="bond" id="mol1bnd13" x1="73.13" x2="86.33" y1="31.52" y2="23.9"/>
                  
            <line class="bond" id="mol1bnd14" x1="86.33" x2="96.38" y1="23.9" y2="29.7"/>
                  
            <line class="bond" id="mol1bnd15" x1="102.68" x2="112.73" y1="29.7" y2="23.9"/>
                  
            <line class="bond" id="mol1bnd16" x1="99.53" x2="99.53" y1="35.37" y2="46.76"/>
                  
            <g class="atom" id="mol1atm10">
                        
                <path d="M9.38 23.92q.0 .76 -.26 1.33q-.26 .57 -.76 .88q-.5 .32 -1.24 .32q-.76 .0 -1.26 -.32q-.51 -.32 -.76 -.89q-.24 -.57 -.24 -1.33q.0 -.75 .24 -1.31q.25 -.57 .76 -.88q.51 -.32 1.27 -.32q.73 .0 1.23 .32q.5 .31 .76 .88q.26 .57 .26 1.33zM5.52 23.92q.0 .92 .39 1.46q.39 .53 1.22 .53q.84 .0 1.22 -.53q.39 -.54 .39 -1.46q.0 -.93 -.39 -1.45q-.38 -.52 -1.21 -.52q-.83 .0 -1.23 .52q-.39 .52 -.39 1.45z" stroke="none"/>
                        
                <path d="M4.3 26.37h-.62v-2.29h-2.51v2.29h-.61v-4.9h.61v2.07h2.51v-2.07h.62v4.9z" stroke="none"/>
                      
            </g>
                  
            <path class="atom" d="M101.47 33.97h-.72l-2.62 -4.07h-.03q.01 .24 .03 .6q.02 .36 .02 .73v2.74h-.57v-4.9h.71l2.61 4.05h.03q-.01 -.11 -.02 -.33q-.01 -.22 -.02 -.48q-.01 -.26 -.01 -.48v-2.77h.58v4.9z" fill="#3050F8" id="mol1atm14" stroke="none"/>
                
            <line class="hi" id="mol1bnd10" stroke="#FF0D0D" x1="10.4" x2="15.370000000000001" y1="25.81" y2="28.665"/>
            <line class="hi" id="mol1bnd10" stroke="#FF0D0D" x1="10.4" x2="15.370000000000001" y1="25.81" y2="28.665"/>
            <line class="hi" id="mol1bnd14" stroke="#3050F8" x1="96.38" x2="91.35499999999999" y1="29.7" y2="26.799999999999997"/>
            <line class="hi" id="mol1bnd15" stroke="#3050F8" x1="102.68" x2="107.70500000000001" y1="29.7" y2="26.799999999999997"/>
            <line class="hi" id="mol1bnd16" stroke="#3050F8" x1="99.53" x2="99.53" y1="35.37" y2="41.065"/>
        </g>
          
    </g>
    
</svg>
