<svg xmlns="http://www.w3.org/2000/svg" xmlns:xlink="http://www.w3.org/1999/xlink" height="39.04mm" version="1.2" viewBox="0 0 61.88 39.04" width="61.88mm">
      
    <desc>Generated by the Chemistry Development Kit (http://github.com/cdk)</desc>
      
    <g fill="#3050F8" stroke="#000000" stroke-linecap="round" stroke-linejoin="round" stroke-width=".7">
            
        <rect fill="#FFFFFF" height="40.0" stroke="none" width="62.0" x=".0" y=".0"/>
            
        <g class="mol" id="mol1">
                  
            <line class="bond" id="mol1bnd1" x1="60.76" x2="49.42" y1="1.05" y2="11.24"/>
                  
            <line class="bond" id="mol1bnd2" x1="49.42" x2="34.93" y1="11.24" y2="6.51"/>
                  
            <line class="bond" id="mol1bnd3" x1="34.93" x2="23.59" y1="6.51" y2="16.69"/>
                  
            <g class="bond" id="mol1bnd4">
                        
                <line x1="23.59" x2="8.67" y1="16.69" y2="13.48"/>
                        
                <line x1="21.35" x2="9.9" y1="18.71" y2="16.24"/>
                      
            </g>
                  
            <line class="bond" id="mol1bnd5" x1="8.67" x2="1.05" y1="13.48" y2="26.68"/>
                  
            <g class="bond" id="mol1bnd6">
                        
                <line x1="1.05" x2="11.3" y1="26.68" y2="37.99"/>
                        
                <line x1="4.05" x2="11.92" y1="26.36" y2="35.04"/>
                      
            </g>
                  
            <line class="bond" id="mol1bnd7" x1="11.3" x2="22.38" y1="37.99" y2="33.06"/>
                  
            <line class="bond" id="mol1bnd8" x1="23.59" x2="24.78" y1="16.69" y2="27.9"/>
                  
            <line class="bond" id="mol1bnd9" x1="49.42" x2="51.76" y1="11.24" y2="22.33"/>
                  
            <path class="atom" d="M26.73 32.95q.0 .65 -.48 1.02q-.47 .36 -1.27 .36q-.42 .0 -.77 -.07q-.35 -.06 -.58 -.17v-.59q.24 .11 .61 .2q.37 .09 .76 .09q.55 .0 .83 -.21q.28 -.21 .28 -.58q.0 -.24 -.11 -.4q-.1 -.17 -.35 -.31q-.25 -.14 -.7 -.3q-.63 -.23 -.95 -.55q-.32 -.33 -.32 -.9q.0 -.39 .2 -.67q.2 -.28 .55 -.43q.36 -.15 .82 -.15q.4 .0 .74 .08q.34 .07 .61 .2l-.2 .53q-.25 -.11 -.55 -.18q-.3 -.08 -.63 -.08q-.46 .0 -.69 .2q-.23 .2 -.23 .52q.0 .24 .1 .41q.11 .17 .34 .3q.23 .13 .63 .28q.43 .15 .73 .34q.3 .18 .45 .43q.15 .25 .15 .64z" fill="#C6C62C" id="mol1atm8" stroke="none"/>
                  
            <g class="atom" id="mol1atm9">
                        
                <path d="M54.51 28.6h-.72l-2.62 -4.07h-.03q.01 .24 .03 .6q.02 .36 .02 .73v2.74h-.57v-4.9h.71l2.61 4.05h.03q-.01 -.11 -.02 -.33q-.01 -.22 -.02 -.48q-.01 -.26 -.01 -.48v-2.77h.58v4.9z" stroke="none"/>
                        
                <path d="M58.82 28.6h-.62v-2.29h-2.51v2.29h-.61v-4.9h.61v2.07h2.51v-2.07h.62v4.9z" stroke="none"/>
                        
                <path d="M61.32 30.09h-1.94v-.3l.77 -.78q.22 -.22 .37 -.39q.15 -.18 .23 -.34q.08 -.17 .08 -.36q.0 -.24 -.15 -.37q-.14 -.13 -.37 -.13q-.21 .0 -.38 .08q-.16 .08 -.33 .21l-.19 -.24q.17 -.15 .39 -.25q.23 -.1 .51 -.1q.41 .0 .65 .21q.24 .21 .24 .58q.0 .23 -.1 .43q-.09 .2 -.26 .4q-.17 .2 -.39 .42l-.61 .6v.02h1.49v.33z" stroke="none"/>
                      
            </g>
                
            <line class="hi" id="mol1bnd7" stroke="#C6C62C" x1="22.38" x2="16.84" y1="33.06" y2="35.525000000000006"/>
            <line class="hi" id="mol1bnd8" stroke="#C6C62C" x1="24.78" x2="24.185000000000002" y1="27.9" y2="22.295"/>
            <line class="hi" id="mol1bnd9" stroke="#3050F8" x1="51.76" x2="50.59" y1="22.33" y2="16.785"/>
        </g>
          
    </g>
    
</svg>
