<svg xmlns="http://www.w3.org/2000/svg" xmlns:xlink="http://www.w3.org/1999/xlink" height="78.28mm" version="1.2" viewBox="0 0 83.06 78.28" width="83.06mm">
      
    <desc>Generated by the Chemistry Development Kit (http://github.com/cdk)</desc>
      
    <g fill="#FF0D0D" stroke="#000000" stroke-linecap="round" stroke-linejoin="round" stroke-width=".7">
            
        <rect fill="#FFFFFF" height="79.0" stroke="none" width="84.0" x=".0" y=".0"/>
            
        <g class="mol" id="mol1">
                  
            <line class="bond" id="mol1bnd1" x1="82.03" x2="68.83" y1="23.89" y2="31.51"/>
                  
            <line class="bond" id="mol1bnd2" x1="68.83" x2="55.63" y1="31.51" y2="23.9"/>
                  
            <line class="bond" id="mol1bnd3" x1="55.63" x2="42.43" y1="23.9" y2="31.52"/>
                  
            <g class="bond" id="mol1bnd4">
                        
                <line x1="42.43" x2="42.43" y1="46.76" y2="31.52"/>
                        
                <line x1="39.99" x2="39.99" y1="45.35" y2="32.93"/>
                      
            </g>
                  
            <line class="bond" id="mol1bnd5" x1="42.43" x2="29.22" y1="46.76" y2="54.38"/>
                  
            <g class="bond" id="mol1bnd6">
                        
                <line x1="16.02" x2="29.22" y1="46.76" y2="54.38"/>
                        
                <line x1="18.45" x2="29.22" y1="45.35" y2="51.56"/>
                      
            </g>
                  
            <line class="bond" id="mol1bnd7" x1="16.02" x2="16.02" y1="46.76" y2="31.52"/>
                  
            <g class="bond" id="mol1bnd8">
                        
                <line x1="29.22" x2="16.02" y1="23.9" y2="31.52"/>
                        
                <line x1="29.22" x2="18.45" y1="26.71" y2="32.93"/>
                      
            </g>
                  
            <line class="bond" id="mol1bnd9" x1="42.43" x2="29.22" y1="31.52" y2="23.9"/>
                  
            <line class="bond" id="mol1bnd10" x1="29.22" x2="29.22" y1="23.9" y2="12.58"/>
                  
            <line class="bond" id="mol1bnd11" x1="25.94" x2="16.03" y1="6.76" y2="1.04"/>
                  
            <line class="bond" id="mol1bnd12" x1="16.02" x2="6.1" y1="46.76" y2="52.49"/>
                  
            <line class="bond" id="mol1bnd13" x1="2.82" x2="2.82" y1="58.3" y2="69.62"/>
                  
            <line class="bond" id="mol1bnd14" x1="29.22" x2="29.22" y1="54.38" y2="65.7"/>
                  
            <line class="bond" id="mol1bnd15" x1="25.94" x2="16.03" y1="71.51" y2="77.24"/>
                  
            <line class="bond" id="mol1bnd16" x1="68.83" x2="68.83" y1="31.51" y2="42.9"/>
                  
            <path class="atom" d="M31.48 8.66q.0 .76 -.26 1.33q-.26 .57 -.76 .88q-.5 .32 -1.24 .32q-.76 .0 -1.26 -.32q-.51 -.32 -.76 -.89q-.24 -.57 -.24 -1.33q.0 -.75 .24 -1.31q.25 -.57 .76 -.88q.51 -.32 1.27 -.32q.73 .0 1.23 .32q.5 .31 .76 .88q.26 .57 .26 1.33zM27.62 8.66q.0 .92 .39 1.46q.39 .53 1.22 .53q.84 .0 1.22 -.53q.39 -.54 .39 -1.46q.0 -.93 -.39 -1.45q-.38 -.52 -1.21 -.52q-.83 .0 -1.23 .52q-.39 .52 -.39 1.45z" id="mol1atm10" stroke="none"/>
                  
            <path class="atom" d="M5.08 54.38q.0 .76 -.26 1.33q-.26 .57 -.76 .88q-.5 .32 -1.24 .32q-.76 .0 -1.26 -.32q-.51 -.32 -.76 -.89q-.24 -.57 -.24 -1.33q.0 -.75 .24 -1.31q.25 -.57 .76 -.88q.51 -.32 1.27 -.32q.73 .0 1.23 .32q.5 .31 .76 .88q.26 .57 .26 1.33zM1.21 54.38q.0 .92 .39 1.46q.39 .53 1.22 .53q.84 .0 1.22 -.53q.39 -.54 .39 -1.46q.0 -.93 -.39 -1.45q-.38 -.52 -1.21 -.52q-.83 .0 -1.23 .52q-.39 .52 -.39 1.45z" id="mol1atm12" stroke="none"/>
                  
            <path class="atom" d="M31.48 69.62q.0 .76 -.26 1.33q-.26 .57 -.76 .88q-.5 .32 -1.24 .32q-.76 .0 -1.26 -.32q-.51 -.32 -.76 -.89q-.24 -.57 -.24 -1.33q.0 -.75 .24 -1.31q.25 -.57 .76 -.88q.51 -.32 1.27 -.32q.73 .0 1.23 .32q.5 .31 .76 .88q.26 .57 .26 1.33zM27.62 69.62q.0 .92 .39 1.46q.39 .53 1.22 .53q.84 .0 1.22 -.53q.39 -.54 .39 -1.46q.0 -.93 -.39 -1.45q-.38 -.52 -1.21 -.52q-.83 .0 -1.23 .52q-.39 .52 -.39 1.45z" id="mol1atm14" stroke="none"/>
                  
            <g class="atom" id="mol1atm16">
                        
                <path d="M70.77 49.2h-.72l-2.62 -4.07h-.03q.01 .24 .03 .6q.02 .36 .02 .73v2.74h-.57v-4.9h.71l2.61 4.05h.03q-.01 -.11 -.02 -.33q-.01 -.22 -.02 -.48q-.01 -.26 -.01 -.48v-2.77h.58v4.9z" fill="#3050F8" stroke="none"/>
                        
                <path d="M75.08 49.2h-.62v-2.29h-2.51v2.29h-.61v-4.9h.61v2.07h2.51v-2.07h.62v4.9z" fill="#3050F8" stroke="none"/>
                        
                <path d="M77.58 50.69h-1.94v-.3l.77 -.78q.22 -.22 .37 -.39q.15 -.18 .23 -.34q.08 -.17 .08 -.36q.0 -.24 -.15 -.37q-.14 -.13 -.37 -.13q-.21 .0 -.38 .08q-.16 .08 -.33 .21l-.19 -.24q.17 -.15 .39 -.25q.23 -.1 .51 -.1q.41 .0 .65 .21q.24 .21 .24 .58q.0 .23 -.1 .43q-.09 .2 -.26 .4q-.17 .2 -.39 .42l-.61 .6v.02h1.49v.33z" fill="#3050F8" stroke="none"/>
                      
            </g>
                
            <line class="hi" id="mol1bnd10" stroke="#FF0D0D" x1="29.22" x2="29.22" y1="12.58" y2="18.24"/>
            <line class="hi" id="mol1bnd11" stroke="#FF0D0D" x1="25.94" x2="20.985" y1="6.76" y2="3.9"/>
            <line class="hi" id="mol1bnd12" stroke="#FF0D0D" x1="6.1" x2="11.059999999999999" y1="52.49" y2="49.625"/>
            <line class="hi" id="mol1bnd13" stroke="#FF0D0D" x1="2.82" x2="2.82" y1="58.3" y2="63.96"/>
            <line class="hi" id="mol1bnd14" stroke="#FF0D0D" x1="29.22" x2="29.22" y1="65.7" y2="60.040000000000006"/>
            <line class="hi" id="mol1bnd15" stroke="#FF0D0D" x1="25.94" x2="20.985" y1="71.51" y2="74.375"/>
            <line class="hi" id="mol1bnd16" stroke="#3050F8" x1="68.83" x2="68.83" y1="42.9" y2="37.205"/>
        </g>
          
    </g>
    
</svg>
