<svg xmlns="http://www.w3.org/2000/svg" xmlns:xlink="http://www.w3.org/1999/xlink" height="64.17mm" version="1.2" viewBox="0 0 83.92 64.17" width="83.92mm">
      
    <desc>Generated by the Chemistry Development Kit (http://github.com/cdk)</desc>
      
    <g fill="#FF0D0D" stroke="#000000" stroke-linecap="round" stroke-linejoin="round" stroke-width=".7">
            
        <rect fill="#FFFFFF" height="65.0" stroke="none" width="84.0" x=".0" y=".0"/>
            
        <g class="mol" id="mol1">
                  
            <line class="bond" id="mol1bnd1" x1="30.07" x2="40.11" y1="1.04" y2="6.84"/>
                  
            <line class="bond" id="mol1bnd2" x1="46.42" x2="56.47" y1="6.84" y2="1.04"/>
                  
            <line class="bond" id="mol1bnd3" x1="43.27" x2="43.27" y1="12.51" y2="23.9"/>
                  
            <path class="bond" d="M56.29 31.83l.35 -.61l-13.72 -10.12v2.6v2.27z" fill="#000000" id="mol1bnd4" stroke="none"/>
                  
            <line class="bond" id="mol1bnd5" x1="56.46" x2="69.67" y1="31.52" y2="23.9"/>
                  
            <line class="bond" id="mol1bnd6" x1="69.67" x2="82.88" y1="23.9" y2="31.52"/>
                  
            <line class="bond" id="mol1bnd7" x1="82.88" x2="82.88" y1="31.52" y2="46.76"/>
                  
            <line class="bond" id="mol1bnd8" x1="82.88" x2="69.67" y1="46.76" y2="54.38"/>
                  
            <line class="bond" id="mol1bnd9" x1="69.67" x2="56.46" y1="54.38" y2="46.76"/>
                  
            <line class="bond" id="mol1bnd10" x1="56.46" x2="56.46" y1="31.52" y2="46.76"/>
                  
            <g class="bond" id="mol1bnd11">
                        
                <line x1="56.4" x2="56.52" y1="47.11" y2="46.42"/>
                        
                <line x1="53.85" x2="54.07" y1="46.95" y2="45.69"/>
                        
                <line x1="51.3" x2="51.62" y1="46.8" y2="44.96"/>
                        
                <line x1="48.75" x2="49.17" y1="46.65" y2="44.23"/>
                        
                <line x1="46.19" x2="46.72" y1="46.49" y2="43.51"/>
                        
                <line x1="43.64" x2="44.27" y1="46.34" y2="42.78"/>
                        
                <line x1="41.09" x2="41.82" y1="46.19" y2="42.05"/>
                      
            </g>
                  
            <g class="bond" id="mol1bnd12">
                        
                <line x1="41.45" x2="36.24" y1="44.12" y2="29.8"/>
                        
                <line x1="38.68" x2="34.43" y1="43.63" y2="31.96"/>
                      
            </g>
                  
            <line class="bond" id="mol1bnd13" x1="36.24" x2="21.22" y1="29.8" y2="27.16"/>
                  
            <g class="bond" id="mol1bnd14">
                        
                <line x1="21.22" x2="11.51" y1="27.16" y2="38.8"/>
                        
                <line x1="22.19" x2="14.28" y1="29.81" y2="39.29"/>
                      
            </g>
                  
            <line class="bond" id="mol1bnd15" x1="11.51" x2="16.73" y1="38.8" y2="53.12"/>
                  
            <g class="bond" id="mol1bnd16">
                        
                <line x1="16.73" x2="31.65" y1="53.12" y2="55.8"/>
                        
                <line x1="18.54" x2="30.69" y1="50.97" y2="53.15"/>
                      
            </g>
                  
            <line class="bond" id="mol1bnd17" x1="41.45" x2="31.65" y1="44.12" y2="55.8"/>
                  
            <line class="bond" id="mol1bnd18" x1="21.22" x2="17.35" y1="27.16" y2="16.59"/>
                  
            <line class="bond" id="mol1bnd19" x1="12.34" x2=".96" y1="12.21" y2="10.23"/>
                  
            <path class="bond" d="M56.79 46.88l-.66 -.24l-5.06 10.13l1.54 .56l1.54 .56z" fill="#000000" id="mol1bnd20" stroke="none"/>
                  
            <path class="atom" d="M45.21 11.11h-.72l-2.62 -4.07h-.03q.01 .24 .03 .6q.02 .36 .02 .73v2.74h-.57v-4.9h.71l2.61 4.05h.03q-.01 -.11 -.02 -.33q-.01 -.22 -.02 -.48q-.01 -.26 -.01 -.48v-2.77h.58v4.9z" fill="#3050F8" id="mol1atm2" stroke="none"/>
                  
            <path class="atom" d="M18.24 12.85q.0 .76 -.26 1.33q-.26 .57 -.76 .88q-.5 .32 -1.24 .32q-.76 .0 -1.26 -.32q-.51 -.32 -.76 -.89q-.24 -.57 -.24 -1.33q.0 -.75 .24 -1.31q.25 -.57 .76 -.88q.51 -.32 1.27 -.32q.73 .0 1.23 .32q.5 .31 .76 .88q.26 .57 .26 1.33zM14.37 12.85q.0 .92 .39 1.46q.39 .53 1.22 .53q.84 .0 1.22 -.53q.39 -.54 .39 -1.46q.0 -.93 -.39 -1.45q-.38 -.52 -1.21 -.52q-.83 .0 -1.23 .52q-.39 .52 -.39 1.45z" id="mol1atm17" stroke="none"/>
                  
            <g class="atom" id="mol1atm19">
                        
                <path d="M53.51 61.08q.0 .76 -.26 1.33q-.26 .57 -.76 .88q-.5 .32 -1.24 .32q-.76 .0 -1.26 -.32q-.51 -.32 -.76 -.89q-.24 -.57 -.24 -1.33q.0 -.75 .24 -1.31q.25 -.57 .76 -.88q.51 -.32 1.27 -.32q.73 .0 1.23 .32q.5 .31 .76 .88q.26 .57 .26 1.33zM49.65 61.08q.0 .92 .39 1.46q.39 .53 1.22 .53q.84 .0 1.22 -.53q.39 -.54 .39 -1.46q.0 -.93 -.39 -1.45q-.38 -.52 -1.21 -.52q-.83 .0 -1.23 .52q-.39 .52 -.39 1.45z" stroke="none"/>
                        
                <path d="M48.43 63.53h-.62v-2.29h-2.51v2.29h-.61v-4.9h.61v2.07h2.51v-2.07h.62v4.9z" stroke="none"/>
                      
            </g>
                
            <line class="hi" id="mol1bnd1" stroke="#3050F8" x1="40.11" x2="35.09" y1="6.84" y2="3.94"/>
            <line class="hi" id="mol1bnd2" stroke="#3050F8" x1="46.42" x2="51.445" y1="6.84" y2="3.94"/>
            <line class="hi" id="mol1bnd3" stroke="#3050F8" x1="43.27" x2="43.27" y1="12.51" y2="18.205"/>
            <line class="hi" id="mol1bnd18" stroke="#FF0D0D" x1="17.35" x2="19.285" y1="16.59" y2="21.875"/>
            <line class="hi" id="mol1bnd19" stroke="#FF0D0D" x1="12.34" x2="6.65" y1="12.21" y2="11.22"/>
        </g>
          
    </g>
    
</svg>
