<svg xmlns="http://www.w3.org/2000/svg" xmlns:xlink="http://www.w3.org/1999/xlink" height="72.97mm" version="1.2" viewBox="0 0 110.49 72.97" width="110.49mm">
      
    <desc>Generated by the Chemistry Development Kit (http://github.com/cdk)</desc>
      
    <g fill="#1FF01F" stroke="#000000" stroke-linecap="round" stroke-linejoin="round" stroke-width=".7">
            
        <rect fill="#FFFFFF" height="73.0" stroke="none" width="111.0" x=".0" y=".0"/>
            
        <g class="mol" id="mol1">
                  
            <line class="bond" id="mol1bnd1" x1="1.04" x2="11.09" y1="18.62" y2="24.4"/>
                  
            <line class="bond" id="mol1bnd2" x1="17.4" x2="27.43" y1="24.39" y2="18.57"/>
                  
            <path class="bond" d="M13.92 41.46h.7l1.29 -11.39h-1.66h-1.66z" fill="#000000" id="mol1bnd3" stroke="none"/>
                  
            <line class="bond" id="mol1bnd4" x1="14.27" x2="1.17" y1="41.46" y2="49.08"/>
                  
            <line class="bond" id="mol1bnd5" x1="1.17" x2="1.17" y1="49.08" y2="64.32"/>
                  
            <line class="bond" id="mol1bnd6" x1="1.17" x2="14.27" y1="64.32" y2="71.94"/>
                  
            <line class="bond" id="mol1bnd7" x1="14.27" x2="27.48" y1="71.94" y2="64.32"/>
                  
            <line class="bond" id="mol1bnd8" x1="27.48" x2="27.48" y1="64.32" y2="49.08"/>
                  
            <line class="bond" id="mol1bnd9" x1="14.27" x2="27.48" y1="41.46" y2="49.08"/>
                  
            <g class="bond" id="mol1bnd10">
                        
                <line stroke="#000000" x1="27.31" x2="27.66" y1="48.77" y2="49.38"/>
                        
                <line stroke="#3050F8" x1="29.36" x2="30.0" y1="47.25" y2="48.36"/>
                        
                <line stroke="#3050F8" x1="31.41" x2="32.35" y1="45.73" y2="47.34"/>
                        
                <line stroke="#3050F8" x1="33.47" x2="34.69" y1="44.2" y2="46.33"/>
                        
                <line stroke="#3050F8" x1="35.52" x2="37.04" y1="42.68" y2="45.31"/>
                      
            </g>
                  
            <line class="bond" id="mol1bnd11" x1="40.68" x2="40.68" y1="37.6" y2="26.21"/>
                  
            <line class="bond" id="mol1bnd12" x1="43.83" x2="53.88" y1="43.27" y2="49.07"/>
                  
            <g class="bond" id="mol1bnd13">
                        
                <line x1="55.1" x2="55.1" y1="48.37" y2="60.39"/>
                        
                <line x1="52.66" x2="52.66" y1="48.37" y2="60.39"/>
                      
                <line class="hi" stroke="#FF0D0D" x1="55.1" x2="55.1" y1="60.39" y2="54.379999999999995"/>
                <line class="hi" stroke="#FF0D0D" x1="52.66" x2="52.66" y1="60.39" y2="54.379999999999995"/>
            </g>
                  
            <line class="bond" id="mol1bnd14" x1="53.88" x2="67.08" y1="49.07" y2="41.45"/>
                  
            <g class="bond" id="mol1bnd15">
                        
                <line x1="67.08" x2="67.08" y1="26.2" y2="41.45"/>
                        
                <line x1="69.51" x2="69.51" y1="27.61" y2="40.04"/>
                      
            </g>
                  
            <line class="bond" id="mol1bnd16" x1="67.08" x2="80.28" y1="26.2" y2="18.57"/>
                  
            <g class="bond" id="mol1bnd17">
                        
                <line x1="93.48" x2="80.28" y1="26.18" y2="18.57"/>
                        
                <line x1="91.04" x2="80.28" y1="27.59" y2="21.38"/>
                      
            </g>
                  
            <line class="bond" id="mol1bnd18" x1="93.48" x2="93.48" y1="26.18" y2="41.43"/>
                  
            <g class="bond" id="mol1bnd19">
                        
                <line x1="80.28" x2="93.48" y1="49.07" y2="41.43"/>
                        
                <line x1="80.28" x2="91.04" y1="46.25" y2="40.03"/>
                      
            </g>
                  
            <line class="bond" id="mol1bnd20" x1="67.08" x2="80.28" y1="41.45" y2="49.07"/>
                  
            <line class="bond" id="mol1bnd21" x1="93.48" x2="103.72" y1="26.18" y2="20.27"/>
                  
            <line class="bond" id="mol1bnd22" x1="80.28" x2="80.27" y1="18.57" y2="7.25"/>
                  
            <path class="atom" d="M16.19 28.67h-.72l-2.62 -4.07h-.03q.01 .24 .03 .6q.02 .36 .02 .73v2.74h-.57v-4.9h.71l2.61 4.05h.03q-.01 -.11 -.02 -.33q-.01 -.22 -.02 -.48q-.01 -.26 -.01 -.48v-2.77h.58v4.9z" fill="#3050F8" id="mol1atm2" stroke="none"/>
                  
            <path class="atom" d="M42.62 43.9h-.72l-2.62 -4.07h-.03q.01 .24 .03 .6q.02 .36 .02 .73v2.74h-.57v-4.9h.71l2.61 4.05h.03q-.01 -.11 -.02 -.33q-.01 -.22 -.02 -.48q-.01 -.26 -.01 -.48v-2.77h.58v4.9z" fill="#3050F8" id="mol1atm10" stroke="none"/>
                  
            <path class="atom" d="M56.14 64.31q.0 .76 -.26 1.33q-.26 .57 -.76 .88q-.5 .32 -1.24 .32q-.76 .0 -1.26 -.32q-.51 -.32 -.76 -.89q-.24 -.57 -.24 -1.33q.0 -.75 .24 -1.31q.25 -.57 .76 -.88q.51 -.32 1.27 -.32q.73 .0 1.23 .32q.5 .31 .76 .88q.26 .57 .26 1.33zM52.28 64.31q.0 .92 .39 1.46q.39 .53 1.22 .53q.84 .0 1.22 -.53q.39 -.54 .39 -1.46q.0 -.93 -.39 -1.45q-.38 -.52 -1.21 -.52q-.83 .0 -1.23 .52q-.39 .52 -.39 1.45z" fill="#FF0D0D" id="mol1atm13" stroke="none"/>
                  
            <path class="atom" d="M107.17 16.59q-.79 .0 -1.24 .53q-.45 .52 -.45 1.45q.0 .91 .42 1.45q.42 .53 1.27 .53q.32 .0 .61 -.05q.29 -.06 .57 -.14v.54q-.27 .1 -.57 .15q-.29 .05 -.7 .05q-.74 .0 -1.25 -.31q-.5 -.31 -.75 -.88q-.25 -.57 -.25 -1.34q.0 -.74 .27 -1.31q.27 -.57 .8 -.88q.53 -.32 1.28 -.32q.78 .0 1.35 .29l-.24 .52q-.23 -.1 -.51 -.18q-.27 -.08 -.61 -.08zM109.93 21.01h-.6v-5.21h.6v5.21z" id="mol1atm20" stroke="none"/>
                  
            <path class="atom" d="M80.76 1.35q-.79 .0 -1.24 .53q-.45 .52 -.45 1.45q.0 .91 .42 1.45q.42 .53 1.27 .53q.32 .0 .61 -.05q.29 -.06 .57 -.14v.54q-.27 .1 -.57 .15q-.29 .05 -.7 .05q-.74 .0 -1.25 -.31q-.5 -.31 -.75 -.88q-.25 -.57 -.25 -1.34q.0 -.74 .27 -1.31q.27 -.57 .8 -.88q.53 -.32 1.28 -.32q.78 .0 1.35 .29l-.24 .52q-.23 -.1 -.51 -.18q-.27 -.08 -.61 -.08zM83.52 5.77h-.6v-5.21h.6v5.21z" id="mol1atm21" stroke="none"/>
                
            <line class="hi" id="mol1bnd1" stroke="#3050F8" x1="11.09" x2="6.0649999999999995" y1="24.4" y2="21.509999999999998"/>
            <line class="hi" id="mol1bnd2" stroke="#3050F8" x1="17.4" x2="22.415" y1="24.39" y2="21.48"/>
            <line class="hi" id="mol1bnd11" stroke="#3050F8" x1="40.68" x2="40.68" y1="37.6" y2="31.905"/>
            <line class="hi" id="mol1bnd12" stroke="#3050F8" x1="43.83" x2="48.855000000000004" y1="43.27" y2="46.17"/>
            <line class="hi" id="mol1bnd21" stroke="#1FF01F" x1="103.72" x2="98.6" y1="20.27" y2="23.225"/>
            <line class="hi" id="mol1bnd22" stroke="#1FF01F" x1="80.27" x2="80.275" y1="7.25" y2="12.91"/>
        </g>
          
    </g>
    
</svg>
