<svg xmlns="http://www.w3.org/2000/svg" xmlns:xlink="http://www.w3.org/1999/xlink" height="95.54mm" version="1.2" viewBox="0 0 248.76 95.54" width="248.76mm">
      
    <desc>Generated by the Chemistry Development Kit (http://github.com/cdk)</desc>
      
    <g fill="#FF0D0D" stroke="#000000" stroke-linecap="round" stroke-linejoin="round" stroke-width=".7">
            
        <rect fill="#FFFFFF" height="96.0" stroke="none" width="249.0" x=".0" y=".0"/>
            
        <g class="mol" id="mol1">
                  
            <line class="bond" id="mol1bnd1" x1="171.88" x2="167.15" y1="77.98" y2="63.49"/>
                  
            <line class="bond" id="mol1bnd2" x1="167.15" x2="152.24" y1="63.49" y2="60.34"/>
                  
            <line class="bond" id="mol1bnd3" x1="152.24" x2="147.51" y1="60.34" y2="45.85"/>
                  
            <g class="bond" id="mol1bnd4">
                        
                <line x1="147.51" x2="153.85" y1="45.85" y2="37.14"/>
                        
                <line x1="146.58" x2="151.88" y1="42.99" y2="35.71"/>
                      
                <line class="hi" stroke="#3050F8" x1="153.85" x2="150.68" y1="37.14" y2="41.495000000000005"/>
                <line class="hi" stroke="#3050F8" x1="151.88" x2="149.23000000000002" y1="35.71" y2="39.35"/>
            </g>
                  
            <line class="bond" id="mol1bnd5" x1="153.87" x2="150.1" y1="29.98" y2="24.75"/>
                  
            <line class="bond" id="mol1bnd6" x1="144.24" x2="132.99" y1="22.24" y2="25.94"/>
                  
            <g class="bond" id="mol1bnd7">
                        
                <line x1="132.99" x2="132.99" y1="41.18" y2="25.94"/>
                        
                <line x1="130.55" x2="130.55" y1="39.78" y2="27.35"/>
                      
            </g>
                  
            <line class="bond" id="mol1bnd8" x1="147.51" x2="132.99" y1="45.85" y2="41.18"/>
                  
            <line class="bond" id="mol1bnd9" x1="132.99" x2="123.03" y1="41.18" y2="46.97"/>
                  
            <g class="bond" id="mol1bnd10">
                        
                <line x1="106.57" x2="116.72" y1="41.18" y2="46.99"/>
                        
                <line x1="109.01" x2="117.94" y1="39.77" y2="44.88"/>
                      
                <line class="hi" stroke="#3050F8" x1="116.72" x2="111.645" y1="46.99" y2="44.085"/>
                <line class="hi" stroke="#3050F8" x1="117.94" x2="113.475" y1="44.88" y2="42.325"/>
            </g>
                  
            <line class="bond" id="mol1bnd11" x1="106.57" x2="106.57" y1="41.18" y2="29.79"/>
                  
            <line class="bond" id="mol1bnd12" x1="109.72" x2="119.78" y1="24.12" y2="18.32"/>
                  
            <line class="bond" id="mol1bnd13" x1="132.99" x2="119.78" y1="25.94" y2="18.32"/>
                  
            <g class="bond" id="mol1bnd14">
                        
                <line x1="118.56" x2="118.56" y1="19.02" y2="7.0"/>
                        
                <line x1="121.0" x2="121.0" y1="19.02" y2="7.0"/>
                      
                <line class="hi" stroke="#FF0D0D" x1="118.56" x2="118.56" y1="7.0" y2="13.01"/>
                <line class="hi" stroke="#FF0D0D" x1="121.0" x2="121.0" y1="7.0" y2="13.01"/>
            </g>
                  
            <line class="bond" id="mol1bnd15" x1="106.57" x2="93.39" y1="41.18" y2="48.83"/>
                  
            <g class="bond" id="mol1bnd16">
                        
                <line x1="93.41" x2="93.39" y1="64.07" y2="48.83"/>
                        
                <line x1="90.97" x2="90.95" y1="62.67" y2="50.24"/>
                      
            </g>
                  
            <line class="bond" id="mol1bnd17" x1="93.41" x2="80.22" y1="64.07" y2="71.73"/>
                  
            <g class="bond" id="mol1bnd18">
                        
                <line x1="67.01" x2="80.22" y1="64.13" y2="71.73"/>
                        
                <line x1="69.45" x2="80.22" y1="62.72" y2="68.91"/>
                      
            </g>
                  
            <line class="bond" id="mol1bnd19" x1="67.01" x2="66.98" y1="64.13" y2="48.89"/>
                  
            <g class="bond" id="mol1bnd20">
                        
                <line x1="80.17" x2="66.98" y1="41.23" y2="48.89"/>
                        
                <line x1="80.18" x2="69.42" y1="44.05" y2="50.29"/>
                      
            </g>
                  
            <line class="bond" id="mol1bnd21" x1="93.39" x2="80.17" y1="48.83" y2="41.23"/>
                  
            <line class="bond" id="mol1bnd22" x1="66.98" x2="56.53" y1="48.89" y2="42.88"/>
                  
            <g class="bond" id="mol1bnd23">
                        
                <line x1="55.18" x2="60.07" y1="37.7" y2="31.86"/>
                        
                <line x1="57.06" x2="61.94" y1="39.26" y2="33.42"/>
                      
                <line class="hi" stroke="#C6C62C" x1="55.18" x2="57.625" y1="37.7" y2="34.78"/>
                <line class="hi" stroke="#FF0D0D" x1="60.07" x2="57.625" y1="31.86" y2="34.78"/>
                <line class="hi" stroke="#C6C62C" x1="57.06" x2="59.5" y1="39.26" y2="36.34"/>
                <line class="hi" stroke="#FF0D0D" x1="61.94" x2="59.5" y1="33.42" y2="36.34"/>
            </g>
                  
            <g class="bond" id="mol1bnd24">
                        
                <line x1="50.49" x2="45.57" y1="39.29" y2="33.45"/>
                        
                <line x1="52.36" x2="47.43" y1="37.72" y2="31.88"/>
                      
                <line class="hi" stroke="#C6C62C" x1="50.49" x2="48.03" y1="39.29" y2="36.370000000000005"/>
                <line class="hi" stroke="#FF0D0D" x1="45.57" x2="48.03" y1="33.45" y2="36.370000000000005"/>
                <line class="hi" stroke="#C6C62C" x1="52.36" x2="49.894999999999996" y1="37.72" y2="34.8"/>
                <line class="hi" stroke="#FF0D0D" x1="47.43" x2="49.894999999999996" y1="31.88" y2="34.8"/>
            </g>
                  
            <line class="bond" id="mol1bnd25" x1="51.03" x2="43.74" y1="42.88" y2="47.11"/>
                  
            <line class="bond" id="mol1bnd26" x1="40.6" x2="40.62" y1="52.79" y2="64.19"/>
                  
            <line class="bond" id="mol1bnd27" x1="40.62" x2="27.44" y1="64.19" y2="71.83"/>
                  
            <line class="bond" id="mol1bnd28" x1="27.44" x2="17.38" y1="71.83" y2="66.04"/>
                  
            <line class="bond" id="mol1bnd29" x1="14.21" x2="14.19" y1="60.38" y2="48.98"/>
                  
            <line class="bond" id="mol1bnd30" x1="14.19" x2="27.37" y1="48.98" y2="41.34"/>
                  
            <line class="bond" id="mol1bnd31" x1="37.43" x2="27.37" y1="47.12" y2="41.34"/>
                  
            <line class="bond" id="mol1bnd32" x1="11.07" x2="1.04" y1="66.06" y2="71.88"/>
                  
            <line class="bond" id="mol1bnd33" x1="93.41" x2="103.34" y1="64.07" y2="69.78"/>
                  
            <line class="bond" id="mol1bnd34" x1="106.63" x2="106.65" y1="75.59" y2="86.91"/>
                  
            <line class="bond" id="mol1bnd35" x1="106.65" x2="119.87" y1="86.91" y2="94.5"/>
                  
            <line class="bond" id="mol1bnd36" x1="148.74" x2="152.22" y1="17.38" y2="6.67"/>
                  
            <line class="bond" id="mol1bnd37" x1="221.14" x2="207.94" y1="56.41" y2="64.03"/>
                  
            <g class="bond" id="mol1bnd38">
                        
                <line x1="209.16" x2="209.16" y1="63.33" y2="75.35"/>
                        
                <line x1="206.72" x2="206.72" y1="63.33" y2="75.35"/>
                      
                <line class="hi" stroke="#FF0D0D" x1="209.16" x2="209.16" y1="75.35" y2="69.34"/>
                <line class="hi" stroke="#FF0D0D" x1="206.72" x2="206.72" y1="75.35" y2="69.34"/>
            </g>
                  
            <line class="bond" id="mol1bnd39" x1="207.94" x2="198.02" y1="64.03" y2="58.3"/>
                  
            <line class="bond" id="mol1bnd40" x1="221.14" x2="221.14" y1="56.41" y2="41.17"/>
                  
            <line class="bond" id="mol1bnd41" x1="221.14" x2="207.94" y1="41.17" y2="33.55"/>
                  
            <line class="bond" id="mol1bnd42" x1="207.94" x2="207.94" y1="33.55" y2="18.31"/>
                  
            <g class="bond" id="mol1bnd43">
                        
                <line x1="206.72" x2="217.25" y1="17.61" y2="11.53"/>
                        
                <line x1="207.94" x2="218.47" y1="19.72" y2="13.64"/>
                      
                <line class="hi" stroke="#FF0D0D" x1="217.25" x2="211.985" y1="11.53" y2="14.57"/>
                <line class="hi" stroke="#FF0D0D" x1="218.47" x2="213.20499999999998" y1="13.64" y2="16.68"/>
            </g>
                  
            <line class="bond" id="mol1bnd44" x1="207.94" x2="198.02" y1="18.31" y2="12.58"/>
                  
            <line class="bond" id="mol1bnd45" x1="221.14" x2="236.14" y1="41.17" y2="43.82"/>
                  
            <g class="bond" id="mol1bnd46">
                        
                <line x1="234.76" x2="242.46" y1="43.57" y2="34.4"/>
                        
                <line x1="236.63" x2="244.33" y1="45.14" y2="35.96"/>
                      
                <line class="hi" stroke="#FF0D0D" x1="242.46" x2="238.61" y1="34.4" y2="38.985"/>
                <line class="hi" stroke="#FF0D0D" x1="244.33" x2="240.48000000000002" y1="35.96" y2="40.55"/>
            </g>
                  
            <line class="bond" id="mol1bnd47" x1="236.14" x2="239.99" y1="43.82" y2="54.39"/>
                  
            <line class="bond" id="mol1bnd48" x1="221.14" x2="224.98" y1="41.17" y2="30.6"/>
                  
            <path class="atom" d="M158.4 36.01h-.72l-2.62 -4.07h-.03q.01 .24 .03 .6q.02 .36 .02 .73v2.74h-.57v-4.9h.71l2.61 4.05h.03q-.01 -.11 -.02 -.33q-.01 -.22 -.02 -.48q-.01 -.26 -.01 -.48v-2.77h.58v4.9z" fill="#3050F8" id="mol1atm5" stroke="none"/>
                  
            <path class="atom" d="M149.46 23.62h-.72l-2.62 -4.07h-.03q.01 .24 .03 .6q.02 .36 .02 .73v2.74h-.57v-4.9h.71l2.61 4.05h.03q-.01 -.11 -.02 -.33q-.01 -.22 -.02 -.48q-.01 -.26 -.01 -.48v-2.77h.58v4.9z" fill="#3050F8" id="mol1atm6" stroke="none"/>
                  
            <path class="atom" d="M121.82 51.25h-.72l-2.62 -4.07h-.03q.01 .24 .03 .6q.02 .36 .02 .73v2.74h-.57v-4.9h.71l2.61 4.05h.03q-.01 -.11 -.02 -.33q-.01 -.22 -.02 -.48q-.01 -.26 -.01 -.48v-2.77h.58v4.9z" fill="#3050F8" id="mol1atm9" stroke="none"/>
                  
            <g class="atom" id="mol1atm11">
                        
                <path d="M108.51 28.39h-.72l-2.62 -4.07h-.03q.01 .24 .03 .6q.02 .36 .02 .73v2.74h-.57v-4.9h.71l2.61 4.05h.03q-.01 -.11 -.02 -.33q-.01 -.22 -.02 -.48q-.01 -.26 -.01 -.48v-2.77h.58v4.9z" fill="#3050F8" stroke="none"/>
                        
                <path d="M104.07 28.39h-.62v-2.29h-2.51v2.29h-.61v-4.9h.61v2.07h2.51v-2.07h.62v4.9z" fill="#3050F8" stroke="none"/>
                      
            </g>
                  
            <path class="atom" d="M122.04 3.08q.0 .76 -.26 1.33q-.26 .57 -.76 .88q-.5 .32 -1.24 .32q-.76 .0 -1.26 -.32q-.51 -.32 -.76 -.89q-.24 -.57 -.24 -1.33q.0 -.75 .24 -1.31q.25 -.57 .76 -.88q.51 -.32 1.27 -.32q.73 .0 1.23 .32q.5 .31 .76 .88q.26 .57 .26 1.33zM118.17 3.08q.0 .92 .39 1.46q.39 .53 1.22 .53q.84 .0 1.22 -.53q.39 -.54 .39 -1.46q.0 -.93 -.39 -1.45q-.38 -.52 -1.21 -.52q-.83 .0 -1.23 .52q-.39 .52 -.39 1.45z" id="mol1atm13" stroke="none"/>
                  
            <path class="atom" d="M55.32 42.43q.0 .65 -.48 1.02q-.47 .36 -1.27 .36q-.42 .0 -.77 -.07q-.35 -.06 -.58 -.17v-.59q.24 .11 .61 .2q.37 .09 .76 .09q.55 .0 .83 -.21q.28 -.21 .28 -.58q.0 -.24 -.11 -.4q-.1 -.17 -.35 -.31q-.25 -.14 -.7 -.3q-.63 -.23 -.95 -.55q-.32 -.33 -.32 -.9q.0 -.39 .2 -.67q.2 -.28 .55 -.43q.36 -.15 .82 -.15q.4 .0 .74 .08q.34 .07 .61 .2l-.2 .53q-.25 -.11 -.55 -.18q-.3 -.08 -.63 -.08q-.46 .0 -.69 .2q-.23 .2 -.23 .52q.0 .24 .1 .41q.11 .17 .34 .3q.23 .13 .63 .28q.43 .15 .73 .34q.3 .18 .45 .43q.15 .25 .15 .64z" fill="#C6C62C" id="mol1atm20" stroke="none"/>
                  
            <path class="atom" d="M65.8 29.59q.0 .76 -.26 1.33q-.26 .57 -.76 .88q-.5 .32 -1.24 .32q-.76 .0 -1.26 -.32q-.51 -.32 -.76 -.89q-.24 -.57 -.24 -1.33q.0 -.75 .24 -1.31q.25 -.57 .76 -.88q.51 -.32 1.27 -.32q.73 .0 1.23 .32q.5 .31 .76 .88q.26 .57 .26 1.33zM61.94 29.59q.0 .92 .39 1.46q.39 .53 1.22 .53q.84 .0 1.22 -.53q.39 -.54 .39 -1.46q.0 -.93 -.39 -1.45q-.38 -.52 -1.21 -.52q-.83 .0 -1.23 .52q-.39 .52 -.39 1.45z" id="mol1atm21" stroke="none"/>
                  
            <path class="atom" d="M46.21 29.63q.0 .76 -.26 1.33q-.26 .57 -.76 .88q-.5 .32 -1.24 .32q-.76 .0 -1.26 -.32q-.51 -.32 -.76 -.89q-.24 -.57 -.24 -1.33q.0 -.75 .24 -1.31q.25 -.57 .76 -.88q.51 -.32 1.27 -.32q.73 .0 1.23 .32q.5 .31 .76 .88q.26 .57 .26 1.33zM42.35 29.63q.0 .92 .39 1.46q.39 .53 1.22 .53q.84 .0 1.22 -.53q.39 -.54 .39 -1.46q.0 -.93 -.39 -1.45q-.38 -.52 -1.21 -.52q-.83 .0 -1.23 .52q-.39 .52 -.39 1.45z" id="mol1atm22" stroke="none"/>
                  
            <path class="atom" d="M42.53 51.39h-.72l-2.62 -4.07h-.03q.01 .24 .03 .6q.02 .36 .02 .73v2.74h-.57v-4.9h.71l2.61 4.05h.03q-.01 -.11 -.02 -.33q-.01 -.22 -.02 -.48q-.01 -.26 -.01 -.48v-2.77h.58v4.9z" fill="#3050F8" id="mol1atm23" stroke="none"/>
                  
            <path class="atom" d="M16.16 66.68h-.72l-2.62 -4.07h-.03q.01 .24 .03 .6q.02 .36 .02 .73v2.74h-.57v-4.9h.71l2.61 4.05h.03q-.01 -.11 -.02 -.33q-.01 -.22 -.02 -.48q-.01 -.26 -.01 -.48v-2.77h.58v4.9z" fill="#3050F8" id="mol1atm26" stroke="none"/>
                  
            <path class="atom" d="M108.88 71.66q.0 .76 -.26 1.33q-.26 .57 -.76 .88q-.5 .32 -1.24 .32q-.76 .0 -1.26 -.32q-.51 -.32 -.76 -.89q-.24 -.57 -.24 -1.33q.0 -.75 .24 -1.31q.25 -.57 .76 -.88q.51 -.32 1.27 -.32q.73 .0 1.23 .32q.5 .31 .76 .88q.26 .57 .26 1.33zM105.02 71.66q.0 .92 .39 1.46q.39 .53 1.22 .53q.84 .0 1.22 -.53q.39 -.54 .39 -1.46q.0 -.93 -.39 -1.45q-.38 -.52 -1.21 -.52q-.83 .0 -1.23 .52q-.39 .52 -.39 1.45z" id="mol1atm30" stroke="none"/>
                  
            <path class="atom" d="M210.2 79.27q.0 .76 -.26 1.33q-.26 .57 -.76 .88q-.5 .32 -1.24 .32q-.76 .0 -1.26 -.32q-.51 -.32 -.76 -.89q-.24 -.57 -.24 -1.33q.0 -.75 .24 -1.31q.25 -.57 .76 -.88q.51 -.32 1.27 -.32q.73 .0 1.23 .32q.5 .31 .76 .88q.26 .57 .26 1.33zM206.33 79.27q.0 .92 .39 1.46q.39 .53 1.22 .53q.84 .0 1.22 -.53q.39 -.54 .39 -1.46q.0 -.93 -.39 -1.45q-.38 -.52 -1.21 -.52q-.83 .0 -1.23 .52q-.39 .52 -.39 1.45z" id="mol1atm36" stroke="none"/>
                  
            <g class="atom" id="mol1atm37">
                        
                <path d="M197.0 56.41q.0 .76 -.26 1.33q-.26 .57 -.76 .88q-.5 .32 -1.24 .32q-.76 .0 -1.26 -.32q-.51 -.32 -.76 -.89q-.24 -.57 -.24 -1.33q.0 -.75 .24 -1.31q.25 -.57 .76 -.88q.51 -.32 1.27 -.32q.73 .0 1.23 .32q.5 .31 .76 .88q.26 .57 .26 1.33zM193.14 56.41q.0 .92 .39 1.46q.39 .53 1.22 .53q.84 .0 1.22 -.53q.39 -.54 .39 -1.46q.0 -.93 -.39 -1.45q-.38 -.52 -1.21 -.52q-.83 .0 -1.23 .52q-.39 .52 -.39 1.45z" stroke="none"/>
                        
                <path d="M191.92 58.86h-.62v-2.29h-2.51v2.29h-.61v-4.9h.61v2.07h2.51v-2.07h.62v4.9z" stroke="none"/>
                      
            </g>
                  
            <path class="atom" d="M223.4 10.69q.0 .76 -.26 1.33q-.26 .57 -.76 .88q-.5 .32 -1.24 .32q-.76 .0 -1.26 -.32q-.51 -.32 -.76 -.89q-.24 -.57 -.24 -1.33q.0 -.75 .24 -1.31q.25 -.57 .76 -.88q.51 -.32 1.27 -.32q.73 .0 1.23 .32q.5 .31 .76 .88q.26 .57 .26 1.33zM219.53 10.69q.0 .92 .39 1.46q.39 .53 1.22 .53q.84 .0 1.22 -.53q.39 -.54 .39 -1.46q.0 -.93 -.39 -1.45q-.38 -.52 -1.21 -.52q-.83 .0 -1.23 .52q-.39 .52 -.39 1.45z" id="mol1atm41" stroke="none"/>
                  
            <g class="atom" id="mol1atm42">
                        
                <path d="M197.0 10.69q.0 .76 -.26 1.33q-.26 .57 -.76 .88q-.5 .32 -1.24 .32q-.76 .0 -1.26 -.32q-.51 -.32 -.76 -.89q-.24 -.57 -.24 -1.33q.0 -.75 .24 -1.31q.25 -.57 .76 -.88q.51 -.32 1.27 -.32q.73 .0 1.23 .32q.5 .31 .76 .88q.26 .57 .26 1.33zM193.14 10.69q.0 .92 .39 1.46q.39 .53 1.22 .53q.84 .0 1.22 -.53q.39 -.54 .39 -1.46q.0 -.93 -.39 -1.45q-.38 -.52 -1.21 -.52q-.83 .0 -1.23 .52q-.39 .52 -.39 1.45z" stroke="none"/>
                        
                <path d="M191.92 13.14h-.62v-2.29h-2.51v2.29h-.61v-4.9h.61v2.07h2.51v-2.07h.62v4.9z" stroke="none"/>
                      
            </g>
                  
            <path class="atom" d="M248.2 32.14q.0 .76 -.26 1.33q-.26 .57 -.76 .88q-.5 .32 -1.24 .32q-.76 .0 -1.26 -.32q-.51 -.32 -.76 -.89q-.24 -.57 -.24 -1.33q.0 -.75 .24 -1.31q.25 -.57 .76 -.88q.51 -.32 1.27 -.32q.73 .0 1.23 .32q.5 .31 .76 .88q.26 .57 .26 1.33zM244.34 32.14q.0 .92 .39 1.46q.39 .53 1.22 .53q.84 .0 1.22 -.53q.39 -.54 .39 -1.46q.0 -.93 -.39 -1.45q-.38 -.52 -1.21 -.52q-.83 .0 -1.23 .52q-.39 .52 -.39 1.45z" id="mol1atm44" stroke="none"/>
                  
            <g class="atom" id="mol1atm45">
                        
                <path d="M243.62 58.14q.0 .76 -.26 1.33q-.26 .57 -.76 .88q-.5 .32 -1.24 .32q-.76 .0 -1.26 -.32q-.51 -.32 -.76 -.89q-.24 -.57 -.24 -1.33q.0 -.75 .24 -1.31q.25 -.57 .76 -.88q.51 -.32 1.27 -.32q.73 .0 1.23 .32q.5 .31 .76 .88q.26 .57 .26 1.33zM239.75 58.14q.0 .92 .39 1.46q.39 .53 1.22 .53q.84 .0 1.22 -.53q.39 -.54 .39 -1.46q.0 -.93 -.39 -1.45q-.38 -.52 -1.21 -.52q-.83 .0 -1.23 .52q-.39 .52 -.39 1.45z" stroke="none"/>
                        
                <path d="M247.92 60.59h-.62v-2.29h-2.51v2.29h-.61v-4.9h.61v2.07h2.51v-2.07h.62v4.9z" stroke="none"/>
                      
            </g>
                  
            <g class="atom" id="mol1atm46">
                        
                <path d="M228.61 26.85q.0 .76 -.26 1.33q-.26 .57 -.76 .88q-.5 .32 -1.24 .32q-.76 .0 -1.26 -.32q-.51 -.32 -.76 -.89q-.24 -.57 -.24 -1.33q.0 -.75 .24 -1.31q.25 -.57 .76 -.88q.51 -.32 1.27 -.32q.73 .0 1.23 .32q.5 .31 .76 .88q.26 .57 .26 1.33zM224.74 26.85q.0 .92 .39 1.46q.39 .53 1.22 .53q.84 .0 1.22 -.53q.39 -.54 .39 -1.46q.0 -.93 -.39 -1.45q-.38 -.52 -1.21 -.52q-.83 .0 -1.23 .52q-.39 .52 -.39 1.45z" stroke="none"/>
                        
                <path d="M232.91 29.3h-.62v-2.29h-2.51v2.29h-.61v-4.9h.61v2.07h2.51v-2.07h.62v4.9z" stroke="none"/>
                      
            </g>
                
            <line class="hi" id="mol1bnd5" stroke="#3050F8" x1="153.87" x2="151.985" y1="29.98" y2="27.365000000000002"/>
            <line class="hi" id="mol1bnd5" stroke="#3050F8" x1="150.1" x2="151.985" y1="24.75" y2="27.365000000000002"/>
            <line class="hi" id="mol1bnd6" stroke="#3050F8" x1="144.24" x2="138.615" y1="22.24" y2="24.09"/>
            <line class="hi" id="mol1bnd9" stroke="#3050F8" x1="123.03" x2="128.01" y1="46.97" y2="44.075"/>
            <line class="hi" id="mol1bnd11" stroke="#3050F8" x1="106.57" x2="106.57" y1="29.79" y2="35.485"/>
            <line class="hi" id="mol1bnd11" stroke="#3050F8" x1="106.57" x2="106.57" y1="29.79" y2="35.485"/>
            <line class="hi" id="mol1bnd12" stroke="#3050F8" x1="109.72" x2="114.75" y1="24.12" y2="21.22"/>
            <line class="hi" id="mol1bnd12" stroke="#3050F8" x1="109.72" x2="114.75" y1="24.12" y2="21.22"/>
            <line class="hi" id="mol1bnd22" stroke="#C6C62C" x1="56.53" x2="61.755" y1="42.88" y2="45.885000000000005"/>
            <line class="hi" id="mol1bnd25" stroke="#C6C62C" x1="51.03" x2="47.385000000000005" y1="42.88" y2="44.995000000000005"/>
            <line class="hi" id="mol1bnd25" stroke="#3050F8" x1="43.74" x2="47.385000000000005" y1="47.11" y2="44.995000000000005"/>
            <line class="hi" id="mol1bnd26" stroke="#3050F8" x1="40.6" x2="40.61" y1="52.79" y2="58.489999999999995"/>
            <line class="hi" id="mol1bnd28" stroke="#3050F8" x1="17.38" x2="22.41" y1="66.04" y2="68.935"/>
            <line class="hi" id="mol1bnd29" stroke="#3050F8" x1="14.21" x2="14.2" y1="60.38" y2="54.68"/>
            <line class="hi" id="mol1bnd31" stroke="#3050F8" x1="37.43" x2="32.4" y1="47.12" y2="44.230000000000004"/>
            <line class="hi" id="mol1bnd32" stroke="#3050F8" x1="11.07" x2="6.055" y1="66.06" y2="68.97"/>
            <line class="hi" id="mol1bnd33" stroke="#FF0D0D" x1="103.34" x2="98.375" y1="69.78" y2="66.925"/>
            <line class="hi" id="mol1bnd34" stroke="#FF0D0D" x1="106.63" x2="106.64" y1="75.59" y2="81.25"/>
            <line class="hi" id="mol1bnd36" stroke="#3050F8" x1="148.74" x2="150.48000000000002" y1="17.38" y2="12.024999999999999"/>
            <line class="hi" id="mol1bnd39" stroke="#FF0D0D" x1="198.02" x2="202.98000000000002" y1="58.3" y2="61.165"/>
            <line class="hi" id="mol1bnd39" stroke="#FF0D0D" x1="198.02" x2="202.98000000000002" y1="58.3" y2="61.165"/>
            <line class="hi" id="mol1bnd44" stroke="#FF0D0D" x1="198.02" x2="202.98000000000002" y1="12.58" y2="15.445"/>
            <line class="hi" id="mol1bnd44" stroke="#FF0D0D" x1="198.02" x2="202.98000000000002" y1="12.58" y2="15.445"/>
            <line class="hi" id="mol1bnd47" stroke="#FF0D0D" x1="239.99" x2="238.065" y1="54.39" y2="49.105000000000004"/>
            <line class="hi" id="mol1bnd48" stroke="#FF0D0D" x1="224.98" x2="223.06" y1="30.6" y2="35.885000000000005"/>
        </g>
          
    </g>
    
</svg>
