<svg xmlns="http://www.w3.org/2000/svg" xmlns:xlink="http://www.w3.org/1999/xlink" height="70.51mm" version="1.2" viewBox="0 0 94.53 70.51" width="94.53mm">
      
    <desc>Generated by the Chemistry Development Kit (http://github.com/cdk)</desc>
      
    <g fill="#FF0D0D" stroke="#000000" stroke-linecap="round" stroke-linejoin="round" stroke-width=".7">
            
        <rect fill="#FFFFFF" height="71.0" stroke="none" width="95.0" x=".0" y=".0"/>
            
        <g class="mol" id="mol1">
                  
            <line class="bond" id="mol1bnd1" x1="93.52" x2="93.49" y1="69.6" y2="54.36"/>
                  
            <line class="bond" id="mol1bnd2" x1="93.49" x2="83.56" y1="54.36" y2="48.64"/>
                  
            <line class="bond" id="mol1bnd3" x1="80.27" x2="80.26" y1="42.84" y2="31.52"/>
                  
            <g class="bond" id="mol1bnd4">
                        
                <line x1="80.26" x2="93.36" y1="31.52" y2="23.9"/>
                        
                <line x1="80.25" x2="90.92" y1="28.7" y2="22.5"/>
                      
            </g>
                  
            <line class="bond" id="mol1bnd5" x1="93.36" x2="93.36" y1="23.9" y2="8.66"/>
                  
            <g class="bond" id="mol1bnd6">
                        
                <line x1="93.36" x2="80.26" y1="8.66" y2="1.04"/>
                        
                <line x1="90.92" x2="80.25" y1="10.06" y2="3.86"/>
                      
            </g>
                  
            <line class="bond" id="mol1bnd7" x1="80.26" x2="67.05" y1="1.04" y2="8.66"/>
                  
            <g class="bond" id="mol1bnd8">
                        
                <line x1="67.05" x2="67.05" y1="8.66" y2="23.9"/>
                        
                <line x1="69.49" x2="69.49" y1="10.07" y2="22.49"/>
                      
            </g>
                  
            <line class="bond" id="mol1bnd9" x1="80.26" x2="67.05" y1="31.52" y2="23.9"/>
                  
            <line class="bond" id="mol1bnd10" x1="67.05" x2="57.13" y1="23.9" y2="29.63"/>
                  
            <line class="bond" id="mol1bnd11" x1="50.57" x2="40.65" y1="29.63" y2="23.9"/>
                  
            <line class="bond" id="mol1bnd12" x1="40.65" x2="27.45" y1="23.9" y2="31.52"/>
                  
            <line class="bond" id="mol1bnd13" x1="27.45" x2="27.45" y1="31.52" y2="46.76"/>
                  
            <line class="bond" id="mol1bnd14" x1="27.45" x2="17.4" y1="46.76" y2="52.57"/>
                  
            <line class="bond" id="mol1bnd15" x1="11.09" x2="1.04" y1="52.57" y2="46.76"/>
                  
            <line class="bond" id="mol1bnd16" x1="1.04" x2="1.04" y1="46.76" y2="31.52"/>
                  
            <line class="bond" id="mol1bnd17" x1="1.04" x2="10.96" y1="31.52" y2="25.8"/>
                  
            <line class="bond" id="mol1bnd18" x1="27.45" x2="17.52" y1="31.52" y2="25.79"/>
                  
            <path class="atom" d="M82.54 46.76q.0 .76 -.26 1.33q-.26 .57 -.76 .88q-.5 .32 -1.24 .32q-.76 .0 -1.26 -.32q-.51 -.32 -.76 -.89q-.24 -.57 -.24 -1.33q.0 -.75 .24 -1.31q.25 -.57 .76 -.88q.51 -.32 1.27 -.32q.73 .0 1.23 .32q.5 .31 .76 .88q.26 .57 .26 1.33zM78.68 46.76q.0 .92 .39 1.46q.39 .53 1.22 .53q.84 .0 1.22 -.53q.39 -.54 .39 -1.46q.0 -.93 -.39 -1.45q-.38 -.52 -1.21 -.52q-.83 .0 -1.23 .52q-.39 .52 -.39 1.45z" id="mol1atm3" stroke="none"/>
                  
            <path class="atom" d="M56.11 31.52q.0 .76 -.26 1.33q-.26 .57 -.76 .88q-.5 .32 -1.24 .32q-.76 .0 -1.26 -.32q-.51 -.32 -.76 -.89q-.24 -.57 -.24 -1.33q.0 -.75 .24 -1.31q.25 -.57 .76 -.88q.51 -.32 1.27 -.32q.73 .0 1.23 .32q.5 .31 .76 .88q.26 .57 .26 1.33zM52.25 31.52q.0 .92 .39 1.46q.39 .53 1.22 .53q.84 .0 1.22 -.53q.39 -.54 .39 -1.46q.0 -.93 -.39 -1.45q-.38 -.52 -1.21 -.52q-.83 .0 -1.23 .52q-.39 .52 -.39 1.45z" id="mol1atm10" stroke="none"/>
                  
            <g class="atom" id="mol1atm14">
                        
                <path d="M16.19 56.83h-.72l-2.62 -4.07h-.03q.01 .24 .03 .6q.02 .36 .02 .73v2.74h-.57v-4.9h.71l2.61 4.05h.03q-.01 -.11 -.02 -.33q-.01 -.22 -.02 -.48q-.01 -.26 -.01 -.48v-2.77h.58v4.9z" fill="#3050F8" stroke="none"/>
                        
                <path d="M16.05 62.3h-.62v-2.29h-2.51v2.29h-.61v-4.9h.61v2.07h2.51v-2.07h.62v4.9z" fill="#3050F8" stroke="none"/>
                      
            </g>
                  
            <path class="atom" d="M16.51 23.9q.0 .76 -.26 1.33q-.26 .57 -.76 .88q-.5 .32 -1.24 .32q-.76 .0 -1.26 -.32q-.51 -.32 -.76 -.89q-.24 -.57 -.24 -1.33q.0 -.75 .24 -1.31q.25 -.57 .76 -.88q.51 -.32 1.27 -.32q.73 .0 1.23 .32q.5 .31 .76 .88q.26 .57 .26 1.33zM12.64 23.9q.0 .92 .39 1.46q.39 .53 1.22 .53q.84 .0 1.22 -.53q.39 -.54 .39 -1.46q.0 -.93 -.39 -1.45q-.38 -.52 -1.21 -.52q-.83 .0 -1.23 .52q-.39 .52 -.39 1.45z" id="mol1atm17" stroke="none"/>
                
            <line class="hi" id="mol1bnd2" stroke="#FF0D0D" x1="83.56" x2="88.525" y1="48.64" y2="51.5"/>
            <line class="hi" id="mol1bnd3" stroke="#FF0D0D" x1="80.27" x2="80.265" y1="42.84" y2="37.18"/>
            <line class="hi" id="mol1bnd10" stroke="#FF0D0D" x1="57.13" x2="62.09" y1="29.63" y2="26.765"/>
            <line class="hi" id="mol1bnd11" stroke="#FF0D0D" x1="50.57" x2="45.61" y1="29.63" y2="26.765"/>
            <line class="hi" id="mol1bnd14" stroke="#3050F8" x1="17.4" x2="22.424999999999997" y1="52.57" y2="49.665"/>
            <line class="hi" id="mol1bnd15" stroke="#3050F8" x1="11.09" x2="6.0649999999999995" y1="52.57" y2="49.665"/>
            <line class="hi" id="mol1bnd17" stroke="#FF0D0D" x1="10.96" x2="6.0" y1="25.8" y2="28.66"/>
            <line class="hi" id="mol1bnd18" stroke="#FF0D0D" x1="17.52" x2="22.485" y1="25.79" y2="28.655"/>
        </g>
          
    </g>
    
</svg>
