<svg xmlns="http://www.w3.org/2000/svg" xmlns:xlink="http://www.w3.org/1999/xlink" height="51.27mm" version="1.2" viewBox="0 0 260.75 51.27" width="260.75mm">
      
    <desc>Generated by the Chemistry Development Kit (http://github.com/cdk)</desc>
      
    <g fill="#FF0D0D" stroke="#000000" stroke-linecap="round" stroke-linejoin="round" stroke-width=".7">
            
        <rect fill="#FFFFFF" height="52.0" stroke="none" width="261.0" x=".0" y=".0"/>
            
        <g class="mol" id="mol1">
                  
            <g class="bond" id="mol1bnd1">
                        
                <line x1="53.49" x2="54.19" y1="23.91" y2="23.91"/>
                        
                <line x1="53.19" x2="54.48" y1="21.37" y2="21.37"/>
                        
                <line x1="52.9" x2="54.77" y1="18.83" y2="18.83"/>
                        
                <line x1="52.61" x2="55.06" y1="16.29" y2="16.29"/>
                        
                <line x1="52.32" x2="55.35" y1="13.75" y2="13.75"/>
                        
                <line x1="52.03" x2="55.64" y1="11.21" y2="11.21"/>
                        
                <line x1="51.74" x2="55.94" y1="8.67" y2="8.67"/>
                      
            </g>
                  
            <line class="bond" id="mol1bnd2" x1="53.84" x2="40.64" y1="23.91" y2="31.53"/>
                  
            <line class="bond" id="mol1bnd3" x1="40.64" x2="27.44" y1="31.53" y2="23.91"/>
                  
            <g class="bond" id="mol1bnd4">
                        
                <line x1="14.24" x2="27.44" y1="31.54" y2="23.91"/>
                        
                <line x1="14.24" x2="25.0" y1="28.72" y2="22.5"/>
                      
            </g>
                  
            <line class="bond" id="mol1bnd5" x1="14.24" x2="1.04" y1="31.54" y2="23.92"/>
                  
            <g class="bond" id="mol1bnd6">
                        
                <line x1="1.04" x2="1.04" y1="8.67" y2="23.92"/>
                        
                <line x1="3.48" x2="3.48" y1="10.07" y2="22.51"/>
                      
            </g>
                  
            <line class="bond" id="mol1bnd7" x1="1.04" x2="14.25" y1="8.67" y2="1.04"/>
                  
            <g class="bond" id="mol1bnd8">
                        
                <line x1="27.44" x2="14.25" y1="8.66" y2="1.04"/>
                        
                <line x1="25.01" x2="14.25" y1="10.07" y2="3.85"/>
                      
            </g>
                  
            <line class="bond" id="mol1bnd9" x1="27.44" x2="27.44" y1="23.91" y2="8.66"/>
                  
            <line class="bond" id="mol1bnd10" x1="53.84" x2="63.88" y1="23.91" y2="29.71"/>
                  
            <line class="bond" id="mol1bnd11" x1="70.19" x2="80.23" y1="29.71" y2="23.91"/>
                  
            <g class="bond" id="mol1bnd12">
                        
                <line x1="79.01" x2="79.01" y1="24.61" y2="12.59"/>
                        
                <line x1="81.45" x2="81.45" y1="24.61" y2="12.59"/>
                      
                <line class="hi" stroke="#FF0D0D" x1="79.01" x2="79.01" y1="12.59" y2="18.6"/>
                <line class="hi" stroke="#FF0D0D" x1="81.45" x2="81.45" y1="12.59" y2="18.6"/>
            </g>
                  
            <line class="bond" id="mol1bnd13" x1="80.23" x2="93.43" y1="23.91" y2="31.53"/>
                  
            <line class="bond" id="mol1bnd14" x1="93.43" x2="106.63" y1="31.53" y2="23.91"/>
                  
            <line class="bond" id="mol1bnd15" x1="106.63" x2="119.83" y1="23.91" y2="31.53"/>
                  
            <line class="bond" id="mol1bnd16" x1="119.83" x2="133.03" y1="31.53" y2="23.91"/>
                  
            <line class="bond" id="mol1bnd17" x1="133.03" x2="146.22" y1="23.91" y2="31.53"/>
                  
            <line class="bond" id="mol1bnd18" x1="146.22" x2="156.27" y1="31.53" y2="25.73"/>
                  
            <g class="bond" id="mol1bnd19">
                        
                <line stroke="#000000" x1="93.78" x2="93.08" y1="31.53" y2="31.53"/>
                        
                <line stroke="#3050F8" x1="94.07" x2="92.79" y1="34.07" y2="34.07"/>
                        
                <line stroke="#3050F8" x1="94.36" x2="92.5" y1="36.61" y2="36.61"/>
                        
                <line stroke="#3050F8" x1="94.66" x2="92.21" y1="39.15" y2="39.15"/>
                        
                <line stroke="#3050F8" x1="94.95" x2="91.91" y1="41.69" y2="41.69"/>
                      
            </g>
                  
            <line class="bond" id="mol1bnd20" x1="182.28" x2="192.74" y1="35.33" y2="29.3"/>
                  
            <g class="bond" id="mol1bnd21">
                        
                <line x1="197.57" x2="204.79" y1="25.1" y2="20.93"/>
                        
                <line x1="198.79" x2="206.01" y1="27.21" y2="23.04"/>
                      
                <line class="hi" stroke="#C6C62C" x1="197.57" x2="201.18" y1="25.1" y2="23.015"/>
                <line class="hi" stroke="#FF0D0D" x1="204.79" x2="201.18" y1="20.93" y2="23.015"/>
                <line class="hi" stroke="#C6C62C" x1="198.79" x2="202.39999999999998" y1="27.21" y2="25.125"/>
                <line class="hi" stroke="#FF0D0D" x1="206.01" x2="202.39999999999998" y1="23.04" y2="25.125"/>
            </g>
                  
            <g class="bond" id="mol1bnd22">
                        
                <line x1="192.53" x2="188.77" y1="25.04" y2="18.53"/>
                        
                <line x1="194.64" x2="190.88" y1="23.82" y2="17.31"/>
                      
                <line class="hi" stroke="#C6C62C" x1="192.53" x2="190.65" y1="25.04" y2="21.785"/>
                <line class="hi" stroke="#FF0D0D" x1="188.77" x2="190.65" y1="18.53" y2="21.785"/>
                <line class="hi" stroke="#C6C62C" x1="194.64" x2="192.76" y1="23.82" y2="20.564999999999998"/>
                <line class="hi" stroke="#FF0D0D" x1="190.88" x2="192.76" y1="17.31" y2="20.564999999999998"/>
            </g>
                  
            <line class="bond" id="mol1bnd23" x1="197.37" x2="201.13" y1="30.99" y2="37.5"/>
                  
            <line class="bond" id="mol1bnd24" x1="231.54" x2="241.99" y1="35.33" y2="29.3"/>
                  
            <g class="bond" id="mol1bnd25">
                        
                <line x1="246.82" x2="254.04" y1="25.1" y2="20.93"/>
                        
                <line x1="248.04" x2="255.26" y1="27.21" y2="23.04"/>
                      
                <line class="hi" stroke="#C6C62C" x1="246.82" x2="250.43" y1="25.1" y2="23.015"/>
                <line class="hi" stroke="#FF0D0D" x1="254.04" x2="250.43" y1="20.93" y2="23.015"/>
                <line class="hi" stroke="#C6C62C" x1="248.04" x2="251.64999999999998" y1="27.21" y2="25.125"/>
                <line class="hi" stroke="#FF0D0D" x1="255.26" x2="251.64999999999998" y1="23.04" y2="25.125"/>
            </g>
                  
            <g class="bond" id="mol1bnd26">
                        
                <line x1="241.79" x2="238.03" y1="25.04" y2="18.53"/>
                        
                <line x1="243.9" x2="240.14" y1="23.82" y2="17.31"/>
                      
                <line class="hi" stroke="#C6C62C" x1="241.79" x2="239.91" y1="25.04" y2="21.785"/>
                <line class="hi" stroke="#FF0D0D" x1="238.03" x2="239.91" y1="18.53" y2="21.785"/>
                <line class="hi" stroke="#C6C62C" x1="243.9" x2="242.01999999999998" y1="23.82" y2="20.564999999999998"/>
                <line class="hi" stroke="#FF0D0D" x1="240.14" x2="242.01999999999998" y1="17.31" y2="20.564999999999998"/>
            </g>
                  
            <line class="bond" id="mol1bnd27" x1="246.63" x2="250.39" y1="30.99" y2="37.5"/>
                  
            <g class="atom" id="mol1atm10">
                        
                <path d="M68.97 33.98h-.72l-2.62 -4.07h-.03q.01 .24 .03 .6q.02 .36 .02 .73v2.74h-.57v-4.9h.71l2.61 4.05h.03q-.01 -.11 -.02 -.33q-.01 -.22 -.02 -.48q-.01 -.26 -.01 -.48v-2.77h.58v4.9z" fill="#3050F8" stroke="none"/>
                        
                <path d="M68.84 39.44h-.62v-2.29h-2.51v2.29h-.61v-4.9h.61v2.07h2.51v-2.07h.62v4.9z" fill="#3050F8" stroke="none"/>
                      
            </g>
                  
            <path class="atom" d="M82.49 8.66q.0 .76 -.26 1.33q-.26 .57 -.76 .88q-.5 .32 -1.24 .32q-.76 .0 -1.26 -.32q-.51 -.32 -.76 -.89q-.24 -.57 -.24 -1.33q.0 -.75 .24 -1.31q.25 -.57 .76 -.88q.51 -.32 1.27 -.32q.73 .0 1.23 .32q.5 .31 .76 .88q.26 .57 .26 1.33zM78.63 8.66q.0 .92 .39 1.46q.39 .53 1.22 .53q.84 .0 1.22 -.53q.39 -.54 .39 -1.46q.0 -.93 -.39 -1.45q-.38 -.52 -1.21 -.52q-.83 .0 -1.23 .52q-.39 .52 -.39 1.45z" id="mol1atm12" stroke="none"/>
                  
            <g class="atom" id="mol1atm18">
                        
                <path d="M161.36 26.36h-.72l-2.62 -4.07h-.03q.01 .24 .03 .6q.02 .36 .02 .73v2.74h-.57v-4.9h.71l2.61 4.05h.03q-.01 -.11 -.02 -.33q-.01 -.22 -.02 -.48q-.01 -.26 -.01 -.48v-2.77h.58v4.9z" fill="#3050F8" stroke="none"/>
                        
                <path d="M165.67 26.36h-.62v-2.29h-2.51v2.29h-.61v-4.9h.61v2.07h2.51v-2.07h.62v4.9z" fill="#3050F8" stroke="none"/>
                        
                <path d="M168.17 27.85h-1.94v-.3l.77 -.78q.22 -.22 .37 -.39q.15 -.18 .23 -.34q.08 -.17 .08 -.36q.0 -.24 -.15 -.37q-.14 -.13 -.37 -.13q-.21 .0 -.38 .08q-.16 .08 -.33 .21l-.19 -.24q.17 -.15 .39 -.25q.23 -.1 .51 -.1q.41 .0 .65 .21q.24 .21 .24 .58q.0 .23 -.1 .43q-.09 .2 -.26 .4q-.17 .2 -.39 .42l-.61 .6v.02h1.49v.33z" fill="#3050F8" stroke="none"/>
                      
            </g>
                  
            <g class="atom" id="mol1atm19">
                        
                <path d="M95.37 49.22h-.72l-2.62 -4.07h-.03q.01 .24 .03 .6q.02 .36 .02 .73v2.74h-.57v-4.9h.71l2.61 4.05h.03q-.01 -.11 -.02 -.33q-.01 -.22 -.02 -.48q-.01 -.26 -.01 -.48v-2.77h.58v4.9z" fill="#3050F8" stroke="none"/>
                        
                <path d="M99.68 49.22h-.62v-2.29h-2.51v2.29h-.61v-4.9h.61v2.07h2.51v-2.07h.62v4.9z" fill="#3050F8" stroke="none"/>
                        
                <path d="M102.18 50.71h-1.94v-.3l.77 -.78q.22 -.22 .37 -.39q.15 -.18 .23 -.34q.08 -.17 .08 -.36q.0 -.24 -.15 -.37q-.14 -.13 -.37 -.13q-.21 .0 -.38 .08q-.16 .08 -.33 .21l-.19 -.24q.17 -.15 .39 -.25q.23 -.1 .51 -.1q.41 .0 .65 .21q.24 .21 .24 .58q.0 .23 -.1 .43q-.09 .2 -.26 .4q-.17 .2 -.39 .42l-.61 .6v.02h1.49v.33z" fill="#3050F8" stroke="none"/>
                      
            </g>
                  
            <path class="atom" d="M197.02 28.85q.0 .65 -.48 1.02q-.47 .36 -1.27 .36q-.42 .0 -.77 -.07q-.35 -.06 -.58 -.17v-.59q.24 .11 .61 .2q.37 .09 .76 .09q.55 .0 .83 -.21q.28 -.21 .28 -.58q.0 -.24 -.11 -.4q-.1 -.17 -.35 -.31q-.25 -.14 -.7 -.3q-.63 -.23 -.95 -.55q-.32 -.33 -.32 -.9q.0 -.39 .2 -.67q.2 -.28 .55 -.43q.36 -.15 .82 -.15q.4 .0 .74 .08q.34 .07 .61 .2l-.2 .53q-.25 -.11 -.55 -.18q-.3 -.08 -.63 -.08q-.46 .0 -.69 .2q-.23 .2 -.23 .52q.0 .24 .1 .41q.11 .17 .34 .3q.23 .13 .63 .28q.43 .15 .73 .34q.3 .18 .45 .43q.15 .25 .15 .64z" fill="#C6C62C" id="mol1atm21" stroke="none"/>
                  
            <path class="atom" d="M210.94 20.09q.0 .76 -.26 1.33q-.26 .57 -.76 .88q-.5 .32 -1.24 .32q-.76 .0 -1.26 -.32q-.51 -.32 -.76 -.89q-.24 -.57 -.24 -1.33q.0 -.75 .24 -1.31q.25 -.57 .76 -.88q.51 -.32 1.27 -.32q.73 .0 1.23 .32q.5 .31 .76 .88q.26 .57 .26 1.33zM207.07 20.09q.0 .92 .39 1.46q.39 .53 1.22 .53q.84 .0 1.22 -.53q.39 -.54 .39 -1.46q.0 -.93 -.39 -1.45q-.38 -.52 -1.21 -.52q-.83 .0 -1.23 .52q-.39 .52 -.39 1.45z" id="mol1atm22" stroke="none"/>
                  
            <path class="atom" d="M190.12 14.51q.0 .76 -.26 1.33q-.26 .57 -.76 .88q-.5 .32 -1.24 .32q-.76 .0 -1.26 -.32q-.51 -.32 -.76 -.89q-.24 -.57 -.24 -1.33q.0 -.75 .24 -1.31q.25 -.57 .76 -.88q.51 -.32 1.27 -.32q.73 .0 1.23 .32q.5 .31 .76 .88q.26 .57 .26 1.33zM186.26 14.51q.0 .92 .39 1.46q.39 .53 1.22 .53q.84 .0 1.22 -.53q.39 -.54 .39 -1.46q.0 -.93 -.39 -1.45q-.38 -.52 -1.21 -.52q-.83 .0 -1.23 .52q-.39 .52 -.39 1.45z" id="mol1atm23" stroke="none"/>
                  
            <g class="atom" id="mol1atm24">
                        
                <path d="M205.36 40.91q.0 .76 -.26 1.33q-.26 .57 -.76 .88q-.5 .32 -1.24 .32q-.76 .0 -1.26 -.32q-.51 -.32 -.76 -.89q-.24 -.57 -.24 -1.33q.0 -.75 .24 -1.31q.25 -.57 .76 -.88q.51 -.32 1.27 -.32q.73 .0 1.23 .32q.5 .31 .76 .88q.26 .57 .26 1.33zM201.5 40.91q.0 .92 .39 1.46q.39 .53 1.22 .53q.84 .0 1.22 -.53q.39 -.54 .39 -1.46q.0 -.93 -.39 -1.45q-.38 -.52 -1.21 -.52q-.83 .0 -1.23 .52q-.39 .52 -.39 1.45z" stroke="none"/>
                        
                <path d="M209.67 43.36h-.62v-2.29h-2.51v2.29h-.61v-4.9h.61v2.07h2.51v-2.07h.62v4.9z" stroke="none"/>
                      
            </g>
                  
            <path class="atom" d="M246.28 28.85q.0 .65 -.48 1.02q-.47 .36 -1.27 .36q-.42 .0 -.77 -.07q-.35 -.06 -.58 -.17v-.59q.24 .11 .61 .2q.37 .09 .76 .09q.55 .0 .83 -.21q.28 -.21 .28 -.58q.0 -.24 -.11 -.4q-.1 -.17 -.35 -.31q-.25 -.14 -.7 -.3q-.63 -.23 -.95 -.55q-.32 -.33 -.32 -.9q.0 -.39 .2 -.67q.2 -.28 .55 -.43q.36 -.15 .82 -.15q.4 .0 .74 .08q.34 .07 .61 .2l-.2 .53q-.25 -.11 -.55 -.18q-.3 -.08 -.63 -.08q-.46 .0 -.69 .2q-.23 .2 -.23 .52q.0 .24 .1 .41q.11 .17 .34 .3q.23 .13 .63 .28q.43 .15 .73 .34q.3 .18 .45 .43q.15 .25 .15 .64z" fill="#C6C62C" id="mol1atm26" stroke="none"/>
                  
            <path class="atom" d="M260.19 20.09q.0 .76 -.26 1.33q-.26 .57 -.76 .88q-.5 .32 -1.24 .32q-.76 .0 -1.26 -.32q-.51 -.32 -.76 -.89q-.24 -.57 -.24 -1.33q.0 -.75 .24 -1.31q.25 -.57 .76 -.88q.51 -.32 1.27 -.32q.73 .0 1.23 .32q.5 .31 .76 .88q.26 .57 .26 1.33zM256.33 20.09q.0 .92 .39 1.46q.39 .53 1.22 .53q.84 .0 1.22 -.53q.39 -.54 .39 -1.46q.0 -.93 -.39 -1.45q-.38 -.52 -1.21 -.52q-.83 .0 -1.23 .52q-.39 .52 -.39 1.45z" id="mol1atm27" stroke="none"/>
                  
            <path class="atom" d="M239.38 14.51q.0 .76 -.26 1.33q-.26 .57 -.76 .88q-.5 .32 -1.24 .32q-.76 .0 -1.26 -.32q-.51 -.32 -.76 -.89q-.24 -.57 -.24 -1.33q.0 -.75 .24 -1.31q.25 -.57 .76 -.88q.51 -.32 1.27 -.32q.73 .0 1.23 .32q.5 .31 .76 .88q.26 .57 .26 1.33zM235.51 14.51q.0 .92 .39 1.46q.39 .53 1.22 .53q.84 .0 1.22 -.53q.39 -.54 .39 -1.46q.0 -.93 -.39 -1.45q-.38 -.52 -1.21 -.52q-.83 .0 -1.23 .52q-.39 .52 -.39 1.45z" id="mol1atm28" stroke="none"/>
                  
            <g class="atom" id="mol1atm29">
                        
                <path d="M254.62 40.91q.0 .76 -.26 1.33q-.26 .57 -.76 .88q-.5 .32 -1.24 .32q-.76 .0 -1.26 -.32q-.51 -.32 -.76 -.89q-.24 -.57 -.24 -1.33q.0 -.75 .24 -1.31q.25 -.57 .76 -.88q.51 -.32 1.27 -.32q.73 .0 1.23 .32q.5 .31 .76 .88q.26 .57 .26 1.33zM250.75 40.91q.0 .92 .39 1.46q.39 .53 1.22 .53q.84 .0 1.22 -.53q.39 -.54 .39 -1.46q.0 -.93 -.39 -1.45q-.38 -.52 -1.21 -.52q-.83 .0 -1.23 .52q-.39 .52 -.39 1.45z" stroke="none"/>
                        
                <path d="M258.92 43.36h-.62v-2.29h-2.51v2.29h-.61v-4.9h.61v2.07h2.51v-2.07h.62v4.9z" stroke="none"/>
                      
            </g>
                
            <line class="hi" id="mol1bnd10" stroke="#3050F8" x1="63.88" x2="58.86" y1="29.71" y2="26.810000000000002"/>
            <line class="hi" id="mol1bnd11" stroke="#3050F8" x1="70.19" x2="75.21000000000001" y1="29.71" y2="26.810000000000002"/>
            <line class="hi" id="mol1bnd18" stroke="#3050F8" x1="156.27" x2="151.245" y1="25.73" y2="28.630000000000003"/>
            <line class="hi" id="mol1bnd20" stroke="#C6C62C" x1="192.74" x2="187.51" y1="29.3" y2="32.315"/>
            <line class="hi" id="mol1bnd23" stroke="#C6C62C" x1="197.37" x2="199.25" y1="30.99" y2="34.245"/>
            <line class="hi" id="mol1bnd23" stroke="#FF0D0D" x1="201.13" x2="199.25" y1="37.5" y2="34.245"/>
            <line class="hi" id="mol1bnd24" stroke="#C6C62C" x1="241.99" x2="236.765" y1="29.3" y2="32.315"/>
            <line class="hi" id="mol1bnd27" stroke="#C6C62C" x1="246.63" x2="248.51" y1="30.99" y2="34.245"/>
            <line class="hi" id="mol1bnd27" stroke="#FF0D0D" x1="250.39" x2="248.51" y1="37.5" y2="34.245"/>
        </g>
          
    </g>
    
</svg>
