<svg xmlns="http://www.w3.org/2000/svg" xmlns:xlink="http://www.w3.org/1999/xlink" height="57.46mm" version="1.2" viewBox="0 0 150.06 57.46" width="150.06mm">
      
    <desc>Generated by the Chemistry Development Kit (http://github.com/cdk)</desc>
      
    <g fill="#FF0D0D" stroke="#000000" stroke-linecap="round" stroke-linejoin="round" stroke-width=".7">
            
        <rect fill="#FFFFFF" height="58.0" stroke="none" width="151.0" x=".0" y=".0"/>
            
        <g class="mol" id="mol1">
                  
            <line class="bond" id="mol1bnd1" x1="53.84" x2="40.63" y1="1.04" y2="8.66"/>
                  
            <line class="bond" id="mol1bnd2" x1="40.63" x2="40.63" y1="8.66" y2="23.9"/>
                  
            <line class="bond" id="mol1bnd3" x1="40.63" x2="50.68" y1="23.9" y2="29.7"/>
                  
            <line class="bond" id="mol1bnd4" x1="56.99" x2="67.04" y1="29.7" y2="23.9"/>
                  
            <g class="bond" id="mol1bnd5">
                        
                <line x1="77.09" x2="67.04" y1="29.7" y2="23.9"/>
                        
                <line x1="78.31" x2="69.48" y1="27.59" y2="22.49"/>
                      
                <line class="hi" stroke="#3050F8" x1="77.09" x2="72.065" y1="29.7" y2="26.799999999999997"/>
                <line class="hi" stroke="#3050F8" x1="78.31" x2="73.89500000000001" y1="27.59" y2="25.04"/>
            </g>
                  
            <path class="bond" d="M84.01 29.34c.27 .47 1.02 .67 1.49 .4c.47 -.27 .67 -1.02 .4 -1.49c-.27 -.47 -.07 -1.21 .4 -1.49c.47 -.27 1.21 -.07 1.49 .4c.27 .47 1.02 .67 1.49 .4c.47 -.27 .67 -1.02 .4 -1.49c-.27 -.47 -.07 -1.21 .4 -1.49" fill="none" id="mol1bnd6" stroke="#000000" stroke-width=".7"/>
                  
            <g class="bond" id="mol1bnd7">
                        
                <line x1="94.86" x2="99.76" y1="20.32" y2="14.48"/>
                        
                <line x1="96.73" x2="101.62" y1="21.88" y2="16.05"/>
                      
                <line class="hi" stroke="#C6C62C" x1="94.86" x2="97.31" y1="20.32" y2="17.4"/>
                <line class="hi" stroke="#FF0D0D" x1="99.76" x2="97.31" y1="14.48" y2="17.4"/>
                <line class="hi" stroke="#C6C62C" x1="96.73" x2="99.17500000000001" y1="21.88" y2="18.965"/>
                <line class="hi" stroke="#FF0D0D" x1="101.62" x2="99.17500000000001" y1="16.05" y2="18.965"/>
            </g>
                  
            <g class="bond" id="mol1bnd8">
                        
                <line x1="90.16" x2="85.25" y1="21.89" y2="16.04"/>
                        
                <line x1="92.03" x2="87.12" y1="20.33" y2="14.47"/>
                      
                <line class="hi" stroke="#C6C62C" x1="90.16" x2="87.705" y1="21.89" y2="18.965"/>
                <line class="hi" stroke="#FF0D0D" x1="85.25" x2="87.705" y1="16.04" y2="18.965"/>
                <line class="hi" stroke="#C6C62C" x1="92.03" x2="89.575" y1="20.33" y2="17.4"/>
                <line class="hi" stroke="#FF0D0D" x1="87.12" x2="89.575" y1="14.47" y2="17.4"/>
            </g>
                  
            <line class="bond" id="mol1bnd9" x1="96.2" x2="106.64" y1="25.49" y2="31.52"/>
                  
            <g class="bond" id="mol1bnd10">
                        
                <line x1="119.85" x2="106.64" y1="23.9" y2="31.52"/>
                        
                <line x1="119.85" x2="109.08" y1="26.72" y2="32.93"/>
                      
            </g>
                  
            <line class="bond" id="mol1bnd11" x1="119.85" x2="133.05" y1="23.9" y2="31.52"/>
                  
            <g class="bond" id="mol1bnd12">
                        
                <line x1="133.05" x2="133.05" y1="46.76" y2="31.52"/>
                        
                <line x1="130.62" x2="130.62" y1="45.36" y2="32.93"/>
                      
            </g>
                  
            <line class="bond" id="mol1bnd13" x1="133.05" x2="119.85" y1="46.76" y2="54.38"/>
                  
            <g class="bond" id="mol1bnd14">
                        
                <line x1="106.64" x2="119.85" y1="46.76" y2="54.38"/>
                        
                <line x1="109.08" x2="119.85" y1="45.36" y2="51.57"/>
                      
            </g>
                  
            <line class="bond" id="mol1bnd15" x1="106.64" x2="106.64" y1="31.52" y2="46.76"/>
                  
            <line class="bond" id="mol1bnd16" x1="133.05" x2="143.31" y1="46.76" y2="52.69"/>
                  
            <line class="bond" id="mol1bnd17" x1="67.04" x2="67.04" y1="23.9" y2="8.66"/>
                  
            <line class="bond" id="mol1bnd18" x1="53.84" x2="67.04" y1="1.04" y2="8.66"/>
                  
            <line class="bond" id="mol1bnd19" x1="53.84" x2="53.84" y1="35.37" y2="46.76"/>
                  
            <line class="bond" id="mol1bnd20" x1="53.84" x2="40.64" y1="46.76" y2="54.38"/>
                  
            <line class="bond" id="mol1bnd21" x1="40.64" x2="27.44" y1="54.38" y2="46.76"/>
                  
            <g class="bond" id="mol1bnd22">
                        
                <line x1="14.24" x2="27.44" y1="54.39" y2="46.76"/>
                        
                <line x1="14.24" x2="25.0" y1="51.57" y2="45.35"/>
                      
            </g>
                  
            <line class="bond" id="mol1bnd23" x1="14.24" x2="1.04" y1="54.39" y2="46.77"/>
                  
            <g class="bond" id="mol1bnd24">
                        
                <line x1="1.04" x2="1.04" y1="31.52" y2="46.77"/>
                        
                <line x1="3.48" x2="3.48" y1="32.93" y2="45.36"/>
                      
            </g>
                  
            <line class="bond" id="mol1bnd25" x1="1.04" x2="14.25" y1="31.52" y2="23.89"/>
                  
            <g class="bond" id="mol1bnd26">
                        
                <line x1="27.44" x2="14.25" y1="31.51" y2="23.89"/>
                        
                <line x1="25.01" x2="14.25" y1="32.92" y2="26.71"/>
                      
            </g>
                  
            <line class="bond" id="mol1bnd27" x1="27.44" x2="27.44" y1="46.76" y2="31.51"/>
                  
            <path class="atom" d="M55.78 33.97h-.72l-2.62 -4.07h-.03q.01 .24 .03 .6q.02 .36 .02 .73v2.74h-.57v-4.9h.71l2.61 4.05h.03q-.01 -.11 -.02 -.33q-.01 -.22 -.02 -.48q-.01 -.26 -.01 -.48v-2.77h.58v4.9z" fill="#3050F8" id="mol1atm4" stroke="none"/>
                  
            <path class="atom" d="M82.18 33.97h-.72l-2.62 -4.07h-.03q.01 .24 .03 .6q.02 .36 .02 .73v2.74h-.57v-4.9h.71l2.61 4.05h.03q-.01 -.11 -.02 -.33q-.01 -.22 -.02 -.48q-.01 -.26 -.01 -.48v-2.77h.58v4.9z" fill="#3050F8" id="mol1atm6" stroke="none"/>
                  
            <path class="atom" d="M94.99 25.04q.0 .65 -.48 1.02q-.47 .36 -1.27 .36q-.42 .0 -.77 -.07q-.35 -.06 -.58 -.17v-.59q.24 .11 .61 .2q.37 .09 .76 .09q.55 .0 .83 -.21q.28 -.21 .28 -.58q.0 -.24 -.11 -.4q-.1 -.17 -.35 -.31q-.25 -.14 -.7 -.3q-.63 -.23 -.95 -.55q-.32 -.33 -.32 -.9q.0 -.39 .2 -.67q.2 -.28 .55 -.43q.36 -.15 .82 -.15q.4 .0 .74 .08q.34 .07 .61 .2l-.2 .53q-.25 -.11 -.55 -.18q-.3 -.08 -.63 -.08q-.46 .0 -.69 .2q-.23 .2 -.23 .52q.0 .24 .1 .41q.11 .17 .34 .3q.23 .13 .63 .28q.43 .15 .73 .34q.3 .18 .45 .43q.15 .25 .15 .64z" fill="#C6C62C" id="mol1atm7" stroke="none"/>
                  
            <path class="atom" d="M105.5 12.23q.0 .76 -.26 1.33q-.26 .57 -.76 .88q-.5 .32 -1.24 .32q-.76 .0 -1.26 -.32q-.51 -.32 -.76 -.89q-.24 -.57 -.24 -1.33q.0 -.75 .24 -1.31q.25 -.57 .76 -.88q.51 -.32 1.27 -.32q.73 .0 1.23 .32q.5 .31 .76 .88q.26 .57 .26 1.33zM101.63 12.23q.0 .92 .39 1.46q.39 .53 1.22 .53q.84 .0 1.22 -.53q.39 -.54 .39 -1.46q.0 -.93 -.39 -1.45q-.38 -.52 -1.21 -.52q-.83 .0 -1.23 .52q-.39 .52 -.39 1.45z" id="mol1atm8" stroke="none"/>
                  
            <path class="atom" d="M85.91 12.22q.0 .76 -.26 1.33q-.26 .57 -.76 .88q-.5 .32 -1.24 .32q-.76 .0 -1.26 -.32q-.51 -.32 -.76 -.89q-.24 -.57 -.24 -1.33q.0 -.75 .24 -1.31q.25 -.57 .76 -.88q.51 -.32 1.27 -.32q.73 .0 1.23 .32q.5 .31 .76 .88q.26 .57 .26 1.33zM82.04 12.22q.0 .92 .39 1.46q.39 .53 1.22 .53q.84 .0 1.22 -.53q.39 -.54 .39 -1.46q.0 -.93 -.39 -1.45q-.38 -.52 -1.21 -.52q-.83 .0 -1.23 .52q-.39 .52 -.39 1.45z" id="mol1atm9" stroke="none"/>
                  
            <path class="atom" d="M146.74 52.41q-.79 .0 -1.24 .53q-.45 .52 -.45 1.45q.0 .91 .42 1.45q.42 .53 1.27 .53q.32 .0 .61 -.05q.29 -.06 .57 -.14v.54q-.27 .1 -.57 .15q-.29 .05 -.7 .05q-.74 .0 -1.25 -.31q-.5 -.31 -.75 -.88q-.25 -.57 -.25 -1.34q.0 -.74 .27 -1.31q.27 -.57 .8 -.88q.53 -.32 1.28 -.32q.78 .0 1.35 .29l-.24 .52q-.23 -.1 -.51 -.18q-.27 -.08 -.61 -.08zM149.5 56.83h-.6v-5.21h.6v5.21z" fill="#1FF01F" id="mol1atm16" stroke="none"/>
                
            <line class="hi" id="mol1bnd3" stroke="#3050F8" x1="50.68" x2="45.655" y1="29.7" y2="26.799999999999997"/>
            <line class="hi" id="mol1bnd4" stroke="#3050F8" x1="56.99" x2="62.015" y1="29.7" y2="26.799999999999997"/>
            <line class="hi" id="mol1bnd9" stroke="#C6C62C" x1="96.2" x2="101.42" y1="25.49" y2="28.505"/>
            <line class="hi" id="mol1bnd16" stroke="#1FF01F" x1="143.31" x2="138.18" y1="52.69" y2="49.724999999999994"/>
            <line class="hi" id="mol1bnd19" stroke="#3050F8" x1="53.84" x2="53.84" y1="35.37" y2="41.065"/>
        </g>
          
    </g>
    
</svg>
