<svg xmlns="http://www.w3.org/2000/svg" xmlns:xlink="http://www.w3.org/1999/xlink" height="95.8mm" version="1.2" viewBox="0 0 65.04 95.8" width="65.04mm">
      
    <desc>Generated by the Chemistry Development Kit (http://github.com/cdk)</desc>
      
    <g fill="#3050F8" stroke="#000000" stroke-linecap="round" stroke-linejoin="round" stroke-width=".7">
            
        <rect fill="#FFFFFF" height="96.0" stroke="none" width="66.0" x=".0" y=".0"/>
            
        <g class="mol" id="mol1">
                  
            <line class="bond" id="mol1bnd1" x1="58.32" x2="53.6" y1="59.79" y2="45.3"/>
                  
            <g class="bond" id="mol1bnd2">
                        
                <line x1="53.6" x2="59.93" y1="45.3" y2="36.59"/>
                        
                <line x1="52.66" x2="57.96" y1="42.44" y2="35.16"/>
                      
                <line class="hi" stroke="#3050F8" x1="59.93" x2="56.765" y1="36.59" y2="40.945"/>
                <line class="hi" stroke="#3050F8" x1="57.96" x2="55.31" y1="35.16" y2="38.8"/>
            </g>
                  
            <line class="bond" id="mol1bnd3" x1="59.93" x2="56.2" y1="29.43" y2="24.3"/>
                  
            <line class="bond" id="mol1bnd4" x1="50.32" x2="39.07" y1="21.77" y2="25.39"/>
                  
            <g class="bond" id="mol1bnd5">
                        
                <line x1="39.07" x2="39.07" y1="25.39" y2="40.63"/>
                        
                <line x1="41.51" x2="41.51" y1="27.17" y2="38.85"/>
                      
            </g>
                  
            <line class="bond" id="mol1bnd6" x1="53.6" x2="39.07" y1="45.3" y2="40.63"/>
                  
            <line class="bond" id="mol1bnd7" x1="39.07" x2="27.18" y1="40.63" y2="50.18"/>
                  
            <g class="bond" id="mol1bnd8">
                        
                <line x1="15.65" x2="27.18" y1="47.49" y2="50.18"/>
                        
                <line x1="16.21" x2="26.58" y1="45.12" y2="47.54"/>
                      
                <line class="hi" stroke="#3050F8" x1="15.65" x2="21.415" y1="47.49" y2="48.835"/>
                <line class="hi" stroke="#3050F8" x1="16.21" x2="21.395" y1="45.12" y2="46.33"/>
            </g>
                  
            <line class="bond" id="mol1bnd9" x1="10.56" x2="5.74" y1="43.01" y2="33.01"/>
                  
            <line class="bond" id="mol1bnd10" x1="5.74" x2="12.35" y1="33.01" y2="19.29"/>
                  
            <g class="bond" id="mol1bnd11">
                        
                <line x1="11.76" x2="4.34" y1="20.51" y2="11.24"/>
                        
                <line x1="13.66" x2="6.24" y1="18.99" y2="9.72"/>
                      
                <line class="hi" stroke="#FF0D0D" x1="4.34" x2="8.05" y1="11.24" y2="15.875"/>
                <line class="hi" stroke="#FF0D0D" x1="6.24" x2="9.95" y1="9.72" y2="14.355"/>
            </g>
                  
            <line class="bond" id="mol1bnd12" x1="12.35" x2="23.88" y1="19.29" y2="16.61"/>
                  
            <line class="bond" id="mol1bnd13" x1="39.07" x2="30.21" y1="25.39" y2="18.27"/>
                  
            <line class="bond" id="mol1bnd14" x1="28.05" x2="30.57" y1="12.02" y2=".98"/>
                  
            <line class="bond" id="mol1bnd15" x1="27.18" x2="30.57" y1="50.18" y2="65.04"/>
                  
            <g class="bond" id="mol1bnd16">
                        
                <line x1="45.05" x2="30.57" y1="69.53" y2="65.04"/>
                        
                <line x1="42.98" x2="31.19" y1="71.45" y2="67.79"/>
                      
            </g>
                  
            <line class="bond" id="mol1bnd17" x1="45.05" x2="48.46" y1="69.53" y2="84.39"/>
                  
            <g class="bond" id="mol1bnd18">
                        
                <line x1="37.39" x2="48.46" y1="94.75" y2="84.39"/>
                        
                <line x1="36.75" x2="45.77" y1="92.0" y2="83.56"/>
                      
            </g>
                  
            <line class="bond" id="mol1bnd19" x1="37.39" x2="22.81" y1="94.75" y2="90.27"/>
                  
            <g class="bond" id="mol1bnd20">
                        
                <line x1="19.4" x2="22.81" y1="75.42" y2="90.27"/>
                        
                <line x1="22.09" x2="24.87" y1="76.25" y2="88.36"/>
                      
            </g>
                  
            <line class="bond" id="mol1bnd21" x1="30.57" x2="19.4" y1="65.04" y2="75.42"/>
                  
            <line class="bond" id="mol1bnd22" x1="19.4" x2="7.4" y1="75.42" y2="71.74"/>
                  
            <line class="bond" id="mol1bnd23" x1="54.83" x2="58.32" y1="16.93" y2="6.23"/>
                  
            <path class="atom" d="M64.48 35.46h-.72l-2.62 -4.07h-.03q.01 .24 .03 .6q.02 .36 .02 .73v2.74h-.57v-4.9h.71l2.61 4.05h.03q-.01 -.11 -.02 -.33q-.01 -.22 -.02 -.48q-.01 -.26 -.01 -.48v-2.77h.58v4.9z" id="mol1atm3" stroke="none"/>
                  
            <path class="atom" d="M55.54 23.16h-.72l-2.62 -4.07h-.03q.01 .24 .03 .6q.02 .36 .02 .73v2.74h-.57v-4.9h.71l2.61 4.05h.03q-.01 -.11 -.02 -.33q-.01 -.22 -.02 -.48q-.01 -.26 -.01 -.48v-2.77h.58v4.9z" id="mol1atm4" stroke="none"/>
                  
            <path class="atom" d="M14.29 49.17h-.72l-2.62 -4.07h-.03q.01 .24 .03 .6q.02 .36 .02 .73v2.74h-.57v-4.9h.71l2.61 4.05h.03q-.01 -.11 -.02 -.33q-.01 -.22 -.02 -.48q-.01 -.26 -.01 -.48v-2.77h.58v4.9z" id="mol1atm8" stroke="none"/>
                  
            <path class="atom" d="M5.08 7.4q.0 .76 -.26 1.33q-.26 .57 -.76 .88q-.5 .32 -1.24 .32q-.76 .0 -1.26 -.32q-.51 -.32 -.76 -.89q-.24 -.57 -.24 -1.33q.0 -.75 .24 -1.31q.25 -.57 .76 -.88q.51 -.32 1.27 -.32q.73 .0 1.23 .32q.5 .31 .76 .88q.26 .57 .26 1.33zM1.21 7.4q.0 .92 .39 1.46q.39 .53 1.22 .53q.84 .0 1.22 -.53q.39 -.54 .39 -1.46q.0 -.93 -.39 -1.45q-.38 -.52 -1.21 -.52q-.83 .0 -1.23 .52q-.39 .52 -.39 1.45z" fill="#FF0D0D" id="mol1atm11" stroke="none"/>
                  
            <path class="atom" d="M29.12 18.29h-.72l-2.62 -4.07h-.03q.01 .24 .03 .6q.02 .36 .02 .73v2.74h-.57v-4.9h.71l2.61 4.05h.03q-.01 -.11 -.02 -.33q-.01 -.22 -.02 -.48q-.01 -.26 -.01 -.48v-2.77h.58v4.9z" id="mol1atm12" stroke="none"/>
                  
            <path class="atom" d="M4.08 73.39h-.61v-4.9h2.73v.54h-2.12v1.74h1.99v.54h-1.99v2.08z" fill="#90E050" id="mol1atm20" stroke="none"/>
                
            <line class="hi" id="mol1bnd3" stroke="#3050F8" x1="59.93" x2="58.065" y1="29.43" y2="26.865000000000002"/>
            <line class="hi" id="mol1bnd3" stroke="#3050F8" x1="56.2" x2="58.065" y1="24.3" y2="26.865000000000002"/>
            <line class="hi" id="mol1bnd4" stroke="#3050F8" x1="50.32" x2="44.695" y1="21.77" y2="23.58"/>
            <line class="hi" id="mol1bnd9" stroke="#3050F8" x1="10.56" x2="8.15" y1="43.01" y2="38.01"/>
            <line class="hi" id="mol1bnd12" stroke="#3050F8" x1="23.88" x2="18.115" y1="16.61" y2="17.95"/>
            <line class="hi" id="mol1bnd13" stroke="#3050F8" x1="30.21" x2="34.64" y1="18.27" y2="21.83"/>
            <line class="hi" id="mol1bnd14" stroke="#3050F8" x1="28.05" x2="29.310000000000002" y1="12.02" y2="6.5"/>
            <line class="hi" id="mol1bnd22" stroke="#90E050" x1="7.4" x2="13.399999999999999" y1="71.74" y2="73.58"/>
            <line class="hi" id="mol1bnd23" stroke="#3050F8" x1="54.83" x2="56.575" y1="16.93" y2="11.58"/>
        </g>
          
    </g>
    
</svg>
