<svg xmlns="http://www.w3.org/2000/svg" xmlns:xlink="http://www.w3.org/1999/xlink" height="81.28mm" version="1.2" viewBox="0 0 126.01 81.28" width="126.01mm">
      
    <desc>Generated by the Chemistry Development Kit (http://github.com/cdk)</desc>
      
    <g fill="#3050F8" stroke="#000000" stroke-linecap="round" stroke-linejoin="round" stroke-width=".7">
            
        <rect fill="#FFFFFF" height="82.0" stroke="none" width="127.0" x=".0" y=".0"/>
            
        <g class="mol" id="mol1">
                  
            <line class="bond" id="mol1bnd1" x1="125.1" x2="109.86" y1="64.99" y2="64.99"/>
                  
            <g class="bond" id="mol1bnd2">
                        
                <line x1="102.23" x2="109.86" y1="78.19" y2="64.99"/>
                        
                <line x1="100.82" x2="107.04" y1="75.75" y2="64.99"/>
                      
            </g>
                  
            <line class="bond" id="mol1bnd3" x1="102.23" x2="86.98" y1="78.19" y2="78.2"/>
                  
            <g class="bond" id="mol1bnd4">
                        
                <line x1="79.36" x2="86.98" y1="65.0" y2="78.2"/>
                        
                <line x1="82.18" x2="88.39" y1="65.0" y2="75.76"/>
                      
            </g>
                  
            <line class="bond" id="mol1bnd5" x1="79.36" x2="86.99" y1="65.0" y2="51.8"/>
                  
            <g class="bond" id="mol1bnd6">
                        
                <line x1="102.24" x2="86.99" y1="51.79" y2="51.8"/>
                        
                <line x1="100.83" x2="88.4" y1="54.23" y2="54.23"/>
                      
            </g>
                  
            <line class="bond" id="mol1bnd7" x1="109.86" x2="102.24" y1="64.99" y2="51.79"/>
                  
            <line class="bond" id="mol1bnd8" x1="79.36" x2="64.12" y1="65.0" y2="65.0"/>
                  
            <g class="bond" id="mol1bnd9">
                        
                <line x1="64.12" x2="55.18" y1="65.0" y2="52.71"/>
                        
                <line x1="61.11" x2="54.25" y1="65.0" y2="55.57"/>
                      
            </g>
                  
            <line class="bond" id="mol1bnd10" x1="55.18" x2="43.92" y1="52.71" y2="56.33"/>
                  
            <line class="bond" id="mol1bnd11" x1="37.5" x2="27.44" y1="55.56" y2="49.76"/>
                  
            <g class="bond" id="mol1bnd12">
                        
                <line x1="27.44" x2="14.24" y1="49.76" y2="57.38"/>
                        
                <line x1="27.44" x2="16.67" y1="52.58" y2="58.79"/>
                      
            </g>
                  
            <line class="bond" id="mol1bnd13" x1="14.24" x2="14.24" y1="57.38" y2="72.62"/>
                  
            <g class="bond" id="mol1bnd14">
                        
                <line x1="14.24" x2="27.44" y1="72.62" y2="80.24"/>
                        
                <line x1="16.67" x2="27.44" y1="71.21" y2="77.43"/>
                      
            </g>
                  
            <line class="bond" id="mol1bnd15" x1="27.44" x2="40.65" y1="80.24" y2="72.62"/>
                  
            <line class="bond" id="mol1bnd16" x1="40.65" x2="40.65" y1="61.23" y2="72.62"/>
                  
            <g class="bond" id="mol1bnd17">
                        
                <line x1="40.65" x2="51.91" y1="72.62" y2="76.24"/>
                        
                <line x1="43.09" x2="52.65" y1="70.84" y2="73.92"/>
                      
                <line class="hi" stroke="#3050F8" x1="51.91" x2="46.28" y1="76.24" y2="74.43"/>
                <line class="hi" stroke="#3050F8" x1="52.65" x2="47.870000000000005" y1="73.92" y2="72.38"/>
            </g>
                  
            <line class="bond" id="mol1bnd18" x1="64.12" x2="57.79" y1="65.0" y2="73.71"/>
                  
            <line class="bond" id="mol1bnd19" x1="14.24" x2="1.04" y1="57.38" y2="49.76"/>
                  
            <line class="bond" id="mol1bnd20" x1="55.18" x2="59.91" y1="52.71" y2="38.22"/>
                  
            <line class="bond" id="mol1bnd21" x1="59.91" x2="49.72" y1="38.22" y2="26.88"/>
                  
            <g class="bond" id="mol1bnd22">
                        
                <line x1="50.66" x2="38.69" y1="27.93" y2="30.46"/>
                        
                <line x1="50.16" x2="38.19" y1="25.54" y2="28.07"/>
                      
                <line class="hi" stroke="#FF0D0D" x1="38.69" x2="44.675" y1="30.46" y2="29.195"/>
                <line class="hi" stroke="#FF0D0D" x1="38.19" x2="44.175" y1="28.07" y2="26.805"/>
            </g>
                  
            <line class="bond" id="mol1bnd23" x1="49.72" x2="53.22" y1="26.88" y2="16.17"/>
                  
            <line class="bond" id="mol1bnd24" x1="51.57" x2="44.27" y1="9.19" y2="1.05"/>
                  
            <line class="bond" id="mol1bnd25" x1="57.76" x2="69.36" y1="11.69" y2="9.24"/>
                  
            <path class="atom" d="M42.59 59.83h-.72l-2.62 -4.07h-.03q.01 .24 .03 .6q.02 .36 .02 .73v2.74h-.57v-4.9h.71l2.61 4.05h.03q-.01 -.11 -.02 -.33q-.01 -.22 -.02 -.48q-.01 -.26 -.01 -.48v-2.77h.58v4.9z" id="mol1atm10" stroke="none"/>
                  
            <path class="atom" d="M57.12 79.74h-.72l-2.62 -4.07h-.03q.01 .24 .03 .6q.02 .36 .02 .73v2.74h-.57v-4.9h.71l2.61 4.05h.03q-.01 -.11 -.02 -.33q-.01 -.22 -.02 -.48q-.01 -.26 -.01 -.48v-2.77h.58v4.9z" id="mol1atm16" stroke="none"/>
                  
            <path class="atom" d="M37.07 30.03q.0 .76 -.26 1.33q-.26 .57 -.76 .88q-.5 .32 -1.24 .32q-.76 .0 -1.26 -.32q-.51 -.32 -.76 -.89q-.24 -.57 -.24 -1.33q.0 -.75 .24 -1.31q.25 -.57 .76 -.88q.51 -.32 1.27 -.32q.73 .0 1.23 .32q.5 .31 .76 .88q.26 .57 .26 1.33zM33.21 30.03q.0 .92 .39 1.46q.39 .53 1.22 .53q.84 .0 1.22 -.53q.39 -.54 .39 -1.46q.0 -.93 -.39 -1.45q-.38 -.52 -1.21 -.52q-.83 .0 -1.23 .52q-.39 .52 -.39 1.45z" fill="#FF0D0D" id="mol1atm20" stroke="none"/>
                  
            <path class="atom" d="M56.39 14.84h-.72l-2.62 -4.07h-.03q.01 .24 .03 .6q.02 .36 .02 .73v2.74h-.57v-4.9h.71l2.61 4.05h.03q-.01 -.11 -.02 -.33q-.01 -.22 -.02 -.48q-.01 -.26 -.01 -.48v-2.77h.58v4.9z" id="mol1atm21" stroke="none"/>
                
            <line class="hi" id="mol1bnd10" stroke="#3050F8" x1="43.92" x2="49.55" y1="56.33" y2="54.519999999999996"/>
            <line class="hi" id="mol1bnd11" stroke="#3050F8" x1="37.5" x2="32.47" y1="55.56" y2="52.66"/>
            <line class="hi" id="mol1bnd16" stroke="#3050F8" x1="40.65" x2="40.65" y1="61.23" y2="66.925"/>
            <line class="hi" id="mol1bnd18" stroke="#3050F8" x1="57.79" x2="60.955" y1="73.71" y2="69.35499999999999"/>
            <line class="hi" id="mol1bnd23" stroke="#3050F8" x1="53.22" x2="51.47" y1="16.17" y2="21.525"/>
            <line class="hi" id="mol1bnd24" stroke="#3050F8" x1="51.57" x2="47.92" y1="9.19" y2="5.12"/>
            <line class="hi" id="mol1bnd25" stroke="#3050F8" x1="57.76" x2="63.56" y1="11.69" y2="10.465"/>
        </g>
          
    </g>
    
</svg>
