<svg xmlns="http://www.w3.org/2000/svg" xmlns:xlink="http://www.w3.org/1999/xlink" height="139.35mm" version="1.2" viewBox="0 0 102.45 139.35" width="102.45mm">
      
    <desc>Generated by the Chemistry Development Kit (http://github.com/cdk)</desc>
      
    <g fill="#3050F8" stroke="#000000" stroke-linecap="round" stroke-linejoin="round" stroke-width=".7">
            
        <rect fill="#FFFFFF" height="140.0" stroke="none" width="103.0" x=".0" y=".0"/>
            
        <g class="mol" id="mol1">
                  
            <line class="bond" id="mol1bnd1" x1="101.43" x2="94.71" y1="138.32" y2="124.64"/>
                  
            <line class="bond" id="mol1bnd2" x1="94.71" x2="79.51" y1="124.64" y2="123.61"/>
                  
            <g class="bond" id="mol1bnd3">
                        
                <line x1="80.91" x2="74.22" y1="123.7" y2="133.68"/>
                        
                <line x1="78.89" x2="72.2" y1="122.35" y2="132.32"/>
                      
                <line class="hi" stroke="#FF0D0D" x1="74.22" x2="77.565" y1="133.68" y2="128.69"/>
                <line class="hi" stroke="#FF0D0D" x1="72.2" x2="75.545" y1="132.32" y2="127.335"/>
            </g>
                  
            <line class="bond" id="mol1bnd4" x1="79.51" x2="74.61" y1="123.61" y2="113.63"/>
                  
            <line class="bond" id="mol1bnd5" x1="74.73" x2="79.91" y1="106.24" y2="96.41"/>
                  
            <g class="bond" id="mol1bnd6">
                        
                <line x1="79.91" x2="69.24" y1="96.41" y2="85.44"/>
                        
                <line x1="76.92" x2="68.77" y1="96.85" y2="88.46"/>
                      
            </g>
                  
            <line class="bond" id="mol1bnd7" x1="69.24" x2="69.24" y1="85.44" y2="70.2"/>
                  
            <line class="bond" id="mol1bnd8" x1="69.24" x2="56.03" y1="70.2" y2="62.38"/>
                  
            <line class="bond" id="mol1bnd9" x1="56.03" x2="42.92" y1="62.38" y2="69.9"/>
                  
            <g class="bond" id="mol1bnd10">
                        
                <line x1="29.71" x2="42.92" y1="61.97" y2="69.9"/>
                        
                <line x1="32.16" x2="42.95" y1="60.6" y2="67.07"/>
                      
            </g>
                  
            <line class="bond" id="mol1bnd11" x1="29.71" x2="29.82" y1="61.97" y2="46.83"/>
                  
            <line class="bond" id="mol1bnd12" x1="29.82" x2="42.92" y1="46.83" y2="39.42"/>
                  
            <line class="bond" id="mol1bnd13" x1="42.92" x2="52.88" y1="39.42" y2="45.21"/>
                  
            <g class="bond" id="mol1bnd14">
                        
                <line stroke="#000000" x1="55.68" x2="56.38" y1="62.38" y2="62.38"/>
                        
                <line stroke="#3050F8" x1="55.43" x2="56.63" y1="60.19" y2="60.19"/>
                        
                <line stroke="#3050F8" x1="55.18" x2="56.88" y1="58.0" y2="58.0"/>
                        
                <line stroke="#3050F8" x1="54.93" x2="57.13" y1="55.8" y2="55.8"/>
                        
                <line stroke="#3050F8" x1="54.68" x2="57.38" y1="53.61" y2="53.61"/>
                        
                <line stroke="#3050F8" x1="54.43" x2="57.63" y1="51.42" y2="51.42"/>
                      
            </g>
                  
            <line class="bond" id="mol1bnd15" x1="59.18" x2="69.24" y1="45.22" y2="39.44"/>
                  
            <path class="bond" d="M29.64 47.14l.35 -.6l-13.3 -10.02l-.02 2.6l-2.26 1.28z" fill="#000000" id="mol1bnd16" stroke="none"/>
                  
            <g class="bond" id="mol1bnd17">
                        
                <line x1="16.68" x2="6.71" y1="39.11" y2="44.76"/>
                        
                <line x1="14.25" x2="5.51" y1="37.69" y2="42.64"/>
                      
                <line class="hi" stroke="#FF0D0D" x1="6.710000000000001" x2="11.695" y1="44.76" y2="41.935"/>
                <line class="hi" stroke="#FF0D0D" x1="5.51" x2="9.879999999999999" y1="42.64" y2="40.165"/>
            </g>
                  
            <line class="bond" id="mol1bnd18" x1="16.68" x2="16.76" y1="39.11" y2="27.72"/>
                  
            <line class="bond" id="mol1bnd19" x1="13.65" x2="3.65" y1="22.02" y2="16.15"/>
                  
            <line class="bond" id="mol1bnd20" x1="3.65" x2="3.77" y1="16.15" y2=".91"/>
                  
            <line class="bond" id="mol1bnd21" x1="19.95" x2="30.05" y1="22.08" y2="16.35"/>
                  
            <line class="bond" id="mol1bnd22" x1="30.05" x2="30.17" y1="16.35" y2="1.12"/>
                  
            <line class="bond" id="mol1bnd23" x1="42.92" x2="42.92" y1="69.9" y2="85.44"/>
                  
            <g class="bond" id="mol1bnd24">
                        
                <line x1="56.13" x2="42.92" y1="92.45" y2="85.44"/>
                        
                <line x1="53.85" x2="43.08" y1="94.0" y2="88.29"/>
                      
            </g>
                  
            <line class="bond" id="mol1bnd25" x1="69.24" x2="56.13" y1="85.44" y2="92.45"/>
                  
            <line class="bond" id="mol1bnd26" x1="56.13" x2="57.76" y1="92.45" y2="107.29"/>
                  
            <line class="bond" id="mol1bnd27" x1="69.47" x2="57.76" y1="109.34" y2="107.29"/>
                  
            <g class="bond" id="mol1bnd28">
                        
                <line x1="45.06" x2="57.76" y1="115.82" y2="107.29"/>
                        
                <line x1="44.85" x2="55.17" y1="113.02" y2="106.08"/>
                      
            </g>
                  
            <line class="bond" id="mol1bnd29" x1="45.06" x2="31.34" y1="115.82" y2="109.32"/>
                  
            <g class="bond" id="mol1bnd30">
                        
                <line x1="30.22" x2="31.34" y1="94.08" y2="109.32"/>
                        
                <line x1="32.76" x2="33.67" y1="95.3" y2="107.72"/>
                      
            </g>
                  
            <line class="bond" id="mol1bnd31" x1="42.92" x2="30.22" y1="85.44" y2="94.08"/>
                  
            <path class="atom" d="M73.27 136.26q.0 .76 -.26 1.33q-.26 .57 -.76 .88q-.5 .32 -1.24 .32q-.76 .0 -1.26 -.32q-.51 -.32 -.76 -.89q-.24 -.57 -.24 -1.33q.0 -.75 .24 -1.31q.25 -.57 .76 -.88q.51 -.32 1.27 -.32q.73 .0 1.23 .32q.5 .31 .76 .88q.26 .57 .26 1.33zM69.41 136.26q.0 .92 .39 1.46q.39 .53 1.22 .53q.84 .0 1.22 -.53q.39 -.54 .39 -1.46q.0 -.93 -.39 -1.45q-.38 -.52 -1.21 -.52q-.83 .0 -1.23 .52q-.39 .52 -.39 1.45z" fill="#FF0D0D" id="mol1atm4" stroke="none"/>
                  
            <path class="atom" d="M74.73 112.38h-.72l-2.62 -4.07h-.03q.01 .24 .03 .6q.02 .36 .02 .73v2.74h-.57v-4.9h.71l2.61 4.05h.03q-.01 -.11 -.02 -.33q-.01 -.22 -.02 -.48q-.01 -.26 -.01 -.48v-2.77h.58v4.9z" id="mol1atm5" stroke="none"/>
                  
            <path class="atom" d="M57.97 49.49h-.72l-2.62 -4.07h-.03q.01 .24 .03 .6q.02 .36 .02 .73v2.74h-.57v-4.9h.71l2.61 4.05h.03q-.01 -.11 -.02 -.33q-.01 -.22 -.02 -.48q-.01 -.26 -.01 -.48v-2.77h.58v4.9z" id="mol1atm14" stroke="none"/>
                  
            <path class="atom" d="M5.08 45.57q.0 .76 -.26 1.33q-.26 .57 -.76 .88q-.5 .32 -1.24 .32q-.76 .0 -1.26 -.32q-.51 -.32 -.76 -.89q-.24 -.57 -.24 -1.33q.0 -.75 .24 -1.31q.25 -.57 .76 -.88q.51 -.32 1.27 -.32q.73 .0 1.23 .32q.5 .31 .76 .88q.26 .57 .26 1.33zM1.21 45.57q.0 .92 .39 1.46q.39 .53 1.22 .53q.84 .0 1.22 -.53q.39 -.54 .39 -1.46q.0 -.93 -.39 -1.45q-.38 -.52 -1.21 -.52q-.83 .0 -1.23 .52q-.39 .52 -.39 1.45z" fill="#FF0D0D" id="mol1atm17" stroke="none"/>
                  
            <path class="atom" d="M18.73 26.32h-.72l-2.62 -4.07h-.03q.01 .24 .03 .6q.02 .36 .02 .73v2.74h-.57v-4.9h.71l2.61 4.05h.03q-.01 -.11 -.02 -.33q-.01 -.22 -.02 -.48q-.01 -.26 -.01 -.48v-2.77h.58v4.9z" id="mol1atm18" stroke="none"/>
                
            <line class="hi" id="mol1bnd4" stroke="#3050F8" x1="74.61" x2="77.06" y1="113.63" y2="118.62"/>
            <line class="hi" id="mol1bnd5" stroke="#3050F8" x1="74.73" x2="77.32" y1="106.24" y2="101.32499999999999"/>
            <line class="hi" id="mol1bnd13" stroke="#3050F8" x1="52.88" x2="47.900000000000006" y1="45.21" y2="42.315"/>
            <line class="hi" id="mol1bnd15" stroke="#3050F8" x1="59.18" x2="64.21" y1="45.22" y2="42.33"/>
            <line class="hi" id="mol1bnd18" stroke="#3050F8" x1="16.76" x2="16.72" y1="27.72" y2="33.415"/>
            <line class="hi" id="mol1bnd19" stroke="#3050F8" x1="13.65" x2="8.65" y1="22.02" y2="19.085"/>
            <line class="hi" id="mol1bnd21" stroke="#3050F8" x1="19.95" x2="25.0" y1="22.08" y2="19.215"/>
            <line class="hi" id="mol1bnd27" stroke="#3050F8" x1="69.47" x2="63.614999999999995" y1="109.34" y2="108.315"/>
        </g>
          
    </g>
    
</svg>
