<svg xmlns="http://www.w3.org/2000/svg" xmlns:xlink="http://www.w3.org/1999/xlink" height="93.27mm" version="1.2" viewBox="0 0 85.66 93.27" width="85.66mm">
      
    <desc>Generated by the Chemistry Development Kit (http://github.com/cdk)</desc>
      
    <g fill="#3050F8" stroke="#000000" stroke-linecap="round" stroke-linejoin="round" stroke-width=".7">
            
        <rect fill="#FFFFFF" height="94.0" stroke="none" width="86.0" x=".0" y=".0"/>
            
        <g class="mol" id="mol1">
                  
            <line class="bond" id="mol1bnd1" x1="58.6" x2="58.48" y1="92.36" y2="77.12"/>
                  
            <line class="bond" id="mol1bnd2" x1="58.48" x2="48.37" y1="77.12" y2="71.4"/>
                  
            <line class="bond" id="mol1bnd3" x1="45.18" x2="45.09" y1="65.76" y2="54.37"/>
                  
            <line class="bond" id="mol1bnd4" x1="45.09" x2="31.83" y1="54.37" y2="46.86"/>
                  
            <line class="bond" id="mol1bnd5" x1="31.83" x2="31.7" y1="46.86" y2="31.62"/>
                  
            <g class="bond" id="mol1bnd6">
                        
                <line x1="31.7" x2="44.87" y1="31.62" y2="23.87"/>
                        
                <line x1="31.67" x2="42.41" y1="28.81" y2="22.49"/>
                      
            </g>
                  
            <line class="bond" id="mol1bnd7" x1="44.87" x2="44.61" y1="23.87" y2="8.63"/>
                  
            <g class="bond" id="mol1bnd8">
                        
                <line x1="44.61" x2="31.37" y1="8.63" y2="1.04"/>
                        
                <line x1="42.19" x2="31.39" y1="10.06" y2="3.86"/>
                      
            </g>
                  
            <line class="bond" id="mol1bnd9" x1="31.37" x2="18.19" y1="1.04" y2="8.89"/>
                  
            <g class="bond" id="mol1bnd10">
                        
                <line x1="18.19" x2="18.46" y1="8.89" y2="24.13"/>
                        
                <line x1="20.66" x2="20.87" y1="10.26" y2="22.69"/>
                      
            </g>
                  
            <line class="bond" id="mol1bnd11" x1="31.7" x2="18.46" y1="31.62" y2="24.13"/>
                  
            <line class="bond" id="mol1bnd12" x1="18.46" x2="6.87" y1="24.13" y2="31.03"/>
                  
            <line class="bond" id="mol1bnd13" x1="45.09" x2="58.22" y1="54.37" y2="46.64"/>
                  
            <g class="bond" id="mol1bnd14">
                        
                <line x1="58.09" x2="58.22" y1="31.39" y2="46.64"/>
                        
                <line x1="60.54" x2="60.65" y1="32.78" y2="45.21"/>
                      
            </g>
                  
            <line class="bond" id="mol1bnd15" x1="58.09" x2="71.22" y1="31.39" y2="23.66"/>
                  
            <g class="bond" id="mol1bnd16">
                        
                <line x1="84.49" x2="71.22" y1="31.18" y2="23.66"/>
                        
                <line x1="82.06" x2="71.25" y1="32.61" y2="26.48"/>
                      
            </g>
                  
            <line class="bond" id="mol1bnd17" x1="84.49" x2="84.62" y1="31.18" y2="46.43"/>
                  
            <g class="bond" id="mol1bnd18">
                        
                <line x1="71.49" x2="84.62" y1="54.16" y2="46.43"/>
                        
                <line x1="71.46" x2="82.17" y1="51.34" y2="45.04"/>
                      
            </g>
                  
            <line class="bond" id="mol1bnd19" x1="58.22" x2="71.49" y1="46.64" y2="54.16"/>
                  
            <g class="atom" id="mol1atm3">
                        
                <path d="M47.16 72.06h-.72l-2.62 -4.07h-.03q.01 .24 .03 .6q.02 .36 .02 .73v2.74h-.57v-4.9h.71l2.61 4.05h.03q-.01 -.11 -.02 -.33q-.01 -.22 -.02 -.48q-.01 -.26 -.01 -.48v-2.77h.58v4.9z" stroke="none"/>
                        
                <path d="M42.71 72.06h-.62v-2.29h-2.51v2.29h-.61v-4.9h.61v2.07h2.51v-2.07h.62v4.9z" stroke="none"/>
                      
            </g>
                  
            <path class="atom" d="M2.91 30.1q-.79 .0 -1.24 .53q-.45 .52 -.45 1.45q.0 .91 .42 1.45q.42 .53 1.27 .53q.32 .0 .61 -.05q.29 -.06 .57 -.14v.54q-.27 .1 -.57 .15q-.29 .05 -.7 .05q-.74 .0 -1.25 -.31q-.5 -.31 -.75 -.88q-.25 -.57 -.25 -1.34q.0 -.74 .27 -1.31q.27 -.57 .8 -.88q.53 -.32 1.28 -.32q.78 .0 1.35 .29l-.24 .52q-.23 -.1 -.51 -.18q-.27 -.08 -.61 -.08zM5.66 34.53h-.6v-5.21h.6v5.21z" fill="#1FF01F" id="mol1atm12" stroke="none"/>
                
            <line class="hi" id="mol1bnd2" stroke="#3050F8" x1="48.37" x2="53.425" y1="71.4" y2="74.26"/>
            <line class="hi" id="mol1bnd2" stroke="#3050F8" x1="48.37" x2="53.425" y1="71.4" y2="74.26"/>
            <line class="hi" id="mol1bnd3" stroke="#3050F8" x1="45.18" x2="45.135000000000005" y1="65.76" y2="60.065"/>
            <line class="hi" id="mol1bnd3" stroke="#3050F8" x1="45.18" x2="45.135000000000005" y1="65.76" y2="60.065"/>
            <line class="hi" id="mol1bnd12" stroke="#1FF01F" x1="6.870000000000001" x2="12.665000000000001" y1="31.03" y2="27.58"/>
        </g>
          
    </g>
    
</svg>
