<svg xmlns="http://www.w3.org/2000/svg" xmlns:xlink="http://www.w3.org/1999/xlink" height="78.24mm" version="1.2" viewBox="0 0 81.25 78.24" width="81.25mm">
      
    <desc>Generated by the Chemistry Development Kit (http://github.com/cdk)</desc>
      
    <g fill="#3050F8" stroke="#000000" stroke-linecap="round" stroke-linejoin="round" stroke-width=".7">
            
        <rect fill="#FFFFFF" height="79.0" stroke="none" width="82.0" x=".0" y=".0"/>
            
        <g class="mol" id="mol1">
                  
            <line class="bond" id="mol1bnd1" x1="14.24" x2="1.04" y1="77.2" y2="69.58"/>
                  
            <line class="bond" id="mol1bnd2" x1="1.04" x2="1.04" y1="69.58" y2="54.35"/>
                  
            <line class="bond" id="mol1bnd3" x1="1.04" x2="11.09" y1="54.35" y2="48.55"/>
                  
            <line class="bond" id="mol1bnd4" x1="17.39" x2="27.44" y1="48.55" y2="54.35"/>
                  
            <line class="bond" id="mol1bnd5" x1="27.44" x2="27.44" y1="54.35" y2="69.58"/>
                  
            <line class="bond" id="mol1bnd6" x1="14.24" x2="27.44" y1="77.2" y2="69.58"/>
                  
            <line class="bond" id="mol1bnd7" x1="27.44" x2="40.63" y1="54.35" y2="46.73"/>
                  
            <line class="bond" id="mol1bnd8" x1="40.63" x2="53.82" y1="46.73" y2="54.35"/>
                  
            <g class="bond" id="mol1bnd9">
                        
                <line x1="67.02" x2="53.82" y1="46.72" y2="54.35"/>
                        
                <line x1="67.02" x2="56.26" y1="49.54" y2="55.75"/>
                      
            </g>
                  
            <line class="bond" id="mol1bnd10" x1="67.02" x2="80.21" y1="46.72" y2="54.33"/>
                  
            <g class="bond" id="mol1bnd11">
                        
                <line x1="80.21" x2="80.21" y1="69.57" y2="54.33"/>
                        
                <line x1="77.77" x2="77.77" y1="68.17" y2="55.74"/>
                      
            </g>
                  
            <line class="bond" id="mol1bnd12" x1="80.21" x2="67.01" y1="69.57" y2="77.2"/>
                  
            <g class="bond" id="mol1bnd13">
                        
                <line x1="53.82" x2="67.01" y1="69.59" y2="77.2"/>
                        
                <line x1="56.26" x2="67.01" y1="68.18" y2="74.38"/>
                      
            </g>
                  
            <line class="bond" id="mol1bnd14" x1="53.82" x2="53.82" y1="54.35" y2="69.59"/>
                  
            <line class="bond" id="mol1bnd15" x1="40.63" x2="40.63" y1="46.73" y2="31.5"/>
                  
            <g class="bond" id="mol1bnd16">
                        
                <line x1="27.42" x2="40.63" y1="23.89" y2="31.5"/>
                        
                <line x1="29.86" x2="40.63" y1="22.48" y2="28.69"/>
                      
            </g>
                  
            <line class="bond" id="mol1bnd17" x1="27.42" x2="27.42" y1="23.89" y2="8.66"/>
                  
            <g class="bond" id="mol1bnd18">
                        
                <line x1="40.62" x2="27.42" y1="1.04" y2="8.66"/>
                        
                <line x1="40.62" x2="29.86" y1="3.85" y2="10.06"/>
                      
            </g>
                  
            <line class="bond" id="mol1bnd19" x1="40.62" x2="53.82" y1="1.04" y2="8.65"/>
                  
            <g class="bond" id="mol1bnd20">
                        
                <line x1="53.83" x2="53.82" y1="23.88" y2="8.65"/>
                        
                <line x1="51.39" x2="51.39" y1="22.48" y2="10.06"/>
                      
            </g>
                  
            <line class="bond" id="mol1bnd21" x1="40.63" x2="53.83" y1="31.5" y2="23.88"/>
                  
            <g class="atom" id="mol1atm4">
                        
                <path d="M16.18 49.18h-.72l-2.62 -4.07h-.03q.01 .24 .03 .6q.02 .36 .02 .73v2.74h-.57v-4.9h.71l2.61 4.05h.03q-.01 -.11 -.02 -.33q-.01 -.22 -.02 -.48q-.01 -.26 -.01 -.48v-2.77h.58v4.9z" stroke="none"/>
                        
                <path d="M16.04 43.72h-.62v-2.29h-2.51v2.29h-.61v-4.9h.61v2.07h2.51v-2.07h.62v4.9z" stroke="none"/>
                      
            </g>
                
            <line class="hi" id="mol1bnd3" stroke="#3050F8" x1="11.09" x2="6.0649999999999995" y1="48.55" y2="51.45"/>
            <line class="hi" id="mol1bnd3" stroke="#3050F8" x1="11.09" x2="6.0649999999999995" y1="48.55" y2="51.45"/>
            <line class="hi" id="mol1bnd4" stroke="#3050F8" x1="17.39" x2="22.415" y1="48.55" y2="51.45"/>
            <line class="hi" id="mol1bnd4" stroke="#3050F8" x1="17.39" x2="22.415" y1="48.55" y2="51.45"/>
        </g>
          
    </g>
    
</svg>
