<svg xmlns="http://www.w3.org/2000/svg" xmlns:xlink="http://www.w3.org/1999/xlink" height="70.51mm" version="1.2" viewBox="0 0 64.06 70.51" width="64.06mm">
      
    <desc>Generated by the Chemistry Development Kit (http://github.com/cdk)</desc>
      
    <g fill="#3050F8" stroke="#000000" stroke-linecap="round" stroke-linejoin="round" stroke-width=".7">
            
        <rect fill="#FFFFFF" height="71.0" stroke="none" width="65.0" x=".0" y=".0"/>
            
        <g class="mol" id="mol1">
                  
            <line class="bond" id="mol1bnd1" x1="22.47" x2="22.5" y1=".91" y2="16.15"/>
                  
            <line class="bond" id="mol1bnd2" x1="22.5" x2="35.71" y1="16.15" y2="23.75"/>
                  
            <line class="bond" id="mol1bnd3" x1="35.71" x2="35.73" y1="23.75" y2="38.99"/>
                  
            <g class="bond" id="mol1bnd4">
                        
                <line x1="35.73" x2="22.63" y1="38.99" y2="46.61"/>
                        
                <line x1="35.74" x2="25.07" y1="41.81" y2="48.01"/>
                      
            </g>
                  
            <line class="bond" id="mol1bnd5" x1="22.63" x2="22.63" y1="46.61" y2="61.85"/>
                  
            <g class="bond" id="mol1bnd6">
                        
                <line x1="22.63" x2="35.73" y1="61.85" y2="69.47"/>
                        
                <line x1="25.07" x2="35.74" y1="60.45" y2="66.65"/>
                      
            </g>
                  
            <line class="bond" id="mol1bnd7" x1="35.73" x2="48.94" y1="69.47" y2="61.85"/>
                  
            <g class="bond" id="mol1bnd8">
                        
                <line x1="48.94" x2="48.94" y1="61.85" y2="46.61"/>
                        
                <line x1="46.5" x2="46.5" y1="60.44" y2="48.02"/>
                      
            </g>
                  
            <line class="bond" id="mol1bnd9" x1="35.73" x2="48.94" y1="38.99" y2="46.61"/>
                  
            <line class="bond" id="mol1bnd10" x1="48.94" x2="59.56" y1="46.61" y2="40.48"/>
                  
            <line class="bond" id="mol1bnd11" x1="22.5" x2="12.46" y1="16.15" y2="21.97"/>
                  
            <path class="atom" d="M61.39 41.44h-.61v-4.9h2.73v.54h-2.12v1.74h1.99v.54h-1.99v2.08z" fill="#90E050" id="mol1atm10" stroke="none"/>
                  
            <g class="atom" id="mol1atm11">
                        
                <path d="M11.25 26.24h-.72l-2.62 -4.07h-.03q.01 .24 .03 .6q.02 .36 .02 .73v2.74h-.57v-4.9h.71l2.61 4.05h.03q-.01 -.11 -.02 -.33q-.01 -.22 -.02 -.48q-.01 -.26 -.01 -.48v-2.77h.58v4.9z" stroke="none"/>
                        
                <path d="M4.3 26.24h-.62v-2.29h-2.51v2.29h-.61v-4.9h.61v2.07h2.51v-2.07h.62v4.9z" stroke="none"/>
                        
                <path d="M6.81 27.73h-1.94v-.3l.77 -.78q.22 -.22 .37 -.39q.15 -.18 .23 -.34q.08 -.17 .08 -.36q.0 -.24 -.15 -.37q-.14 -.13 -.37 -.13q-.21 .0 -.38 .08q-.16 .08 -.33 .21l-.19 -.24q.17 -.15 .39 -.25q.23 -.1 .51 -.1q.41 .0 .65 .21q.24 .21 .24 .58q.0 .23 -.1 .43q-.09 .2 -.26 .4q-.17 .2 -.39 .42l-.61 .6v.02h1.49v.33z" stroke="none"/>
                      
            </g>
                
            <line class="hi" id="mol1bnd10" stroke="#90E050" x1="59.56" x2="54.25" y1="40.48" y2="43.545"/>
            <line class="hi" id="mol1bnd11" stroke="#3050F8" x1="12.46" x2="17.48" y1="21.97" y2="19.06"/>
        </g>
          
    </g>
    
</svg>
