<svg xmlns="http://www.w3.org/2000/svg" xmlns:xlink="http://www.w3.org/1999/xlink" height="32.3mm" version="1.2" viewBox="0 0 46.26 32.3" width="46.26mm">
      
    <desc>Generated by the Chemistry Development Kit (http://github.com/cdk)</desc>
      
    <g fill="#FF0D0D" stroke="#000000" stroke-linecap="round" stroke-linejoin="round" stroke-width=".7">
            
        <rect fill="#FFFFFF" height="33.0" stroke="none" width="47.0" x=".0" y=".0"/>
            
        <g class="mol" id="mol1">
                  
            <line class="bond" id="mol1bnd1" x1="22.37" x2="22.37" y1="31.39" y2="16.15"/>
                  
            <line class="bond" id="mol1bnd2" x1="22.37" x2="22.37" y1="16.15" y2=".91"/>
                  
            <line class="bond" id="mol1bnd3" x1="22.37" x2="37.61" y1="16.15" y2="16.15"/>
                  
            <line class="bond" id="mol1bnd4" x1="37.61" x2="45.23" y1="16.15" y2="2.95"/>
                  
            <line class="bond" id="mol1bnd5" x1="22.37" x2="10.78" y1="16.15" y2="16.15"/>
                  
            <g class="atom" id="mol1atm6">
                        
                <path d="M9.38 16.15q.0 .76 -.26 1.33q-.26 .57 -.76 .88q-.5 .32 -1.24 .32q-.76 .0 -1.26 -.32q-.51 -.32 -.76 -.89q-.24 -.57 -.24 -1.33q.0 -.75 .24 -1.31q.25 -.57 .76 -.88q.51 -.32 1.27 -.32q.73 .0 1.23 .32q.5 .31 .76 .88q.26 .57 .26 1.33zM5.52 16.15q.0 .92 .39 1.46q.39 .53 1.22 .53q.84 .0 1.22 -.53q.39 -.54 .39 -1.46q.0 -.93 -.39 -1.45q-.38 -.52 -1.21 -.52q-.83 .0 -1.23 .52q-.39 .52 -.39 1.45z" stroke="none"/>
                        
                <path d="M4.3 18.6h-.62v-2.29h-2.51v2.29h-.61v-4.9h.61v2.07h2.51v-2.07h.62v4.9z" stroke="none"/>
                      
            </g>
                
            <line class="hi" id="mol1bnd5" stroke="#FF0D0D" x1="10.78" x2="16.575" y1="16.15" y2="16.15"/>
            <line class="hi" id="mol1bnd5" stroke="#FF0D0D" x1="10.78" x2="16.575" y1="16.15" y2="16.15"/>
        </g>
          
    </g>
    
</svg>
