<svg xmlns="http://www.w3.org/2000/svg" xmlns:xlink="http://www.w3.org/1999/xlink" height="36.03mm" version="1.2" viewBox="0 0 89.56 36.03" width="89.56mm">
      
    <desc>Generated by the Chemistry Development Kit (http://github.com/cdk)</desc>
      
    <g fill="#3050F8" stroke="#000000" stroke-linecap="round" stroke-linejoin="round" stroke-width=".7">
            
        <rect fill="#FFFFFF" height="37.0" stroke="none" width="90.0" x=".0" y=".0"/>
            
        <g class="mol" id="mol1">
                  
            <line class="bond" id="mol1bnd1" x1="1.04" x2="14.24" y1="1.04" y2="8.66"/>
                  
            <g class="bond" id="mol1bnd2">
                        
                <line x1="27.44" x2="14.24" y1="1.04" y2="8.66"/>
                        
                <line x1="27.44" x2="16.67" y1="3.86" y2="10.07"/>
                      
            </g>
                  
            <line class="bond" id="mol1bnd3" x1="27.44" x2="40.65" y1="1.04" y2="8.66"/>
                  
            <g class="bond" id="mol1bnd4">
                        
                <line x1="40.65" x2="40.65" y1="23.9" y2="8.66"/>
                        
                <line x1="38.21" x2="38.21" y1="22.49" y2="10.07"/>
                      
            </g>
                  
            <line class="bond" id="mol1bnd5" x1="40.65" x2="27.44" y1="23.9" y2="31.52"/>
                  
            <g class="bond" id="mol1bnd6">
                        
                <line x1="14.24" x2="27.44" y1="23.9" y2="31.52"/>
                        
                <line x1="16.67" x2="27.44" y1="22.49" y2="28.71"/>
                      
            </g>
                  
            <line class="bond" id="mol1bnd7" x1="14.24" x2="14.24" y1="8.66" y2="23.9"/>
                  
            <line class="bond" id="mol1bnd8" x1="40.65" x2="53.85" y1="23.9" y2="31.52"/>
                  
            <line class="bond" id="mol1bnd9" x1="53.85" x2="67.05" y1="31.52" y2="23.9"/>
                  
            <g class="bond" id="mol1bnd10">
                        
                <line x1="65.83" x2="65.83" y1="24.61" y2="12.59"/>
                        
                <line x1="68.27" x2="68.27" y1="24.61" y2="12.59"/>
                      
                <line class="hi" stroke="#FF0D0D" x1="65.83" x2="65.83" y1="12.59" y2="18.6"/>
                <line class="hi" stroke="#FF0D0D" x1="68.27" x2="68.27" y1="12.59" y2="18.6"/>
            </g>
                  
            <line class="bond" id="mol1bnd11" x1="67.05" x2="77.09" y1="23.9" y2="29.71"/>
                  
            <path class="atom" d="M69.31 8.66q.0 .76 -.26 1.33q-.26 .57 -.76 .88q-.5 .32 -1.24 .32q-.76 .0 -1.26 -.32q-.51 -.32 -.76 -.89q-.24 -.57 -.24 -1.33q.0 -.75 .24 -1.31q.25 -.57 .76 -.88q.51 -.32 1.27 -.32q.73 .0 1.23 .32q.5 .31 .76 .88q.26 .57 .26 1.33zM65.45 8.66q.0 .92 .39 1.46q.39 .53 1.22 .53q.84 .0 1.22 -.53q.39 -.54 .39 -1.46q.0 -.93 -.39 -1.45q-.38 -.52 -1.21 -.52q-.83 .0 -1.23 .52q-.39 .52 -.39 1.45z" fill="#FF0D0D" id="mol1atm10" stroke="none"/>
                  
            <g class="atom" id="mol1atm11">
                        
                <path d="M82.19 33.98h-.72l-2.62 -4.07h-.03q.01 .24 .03 .6q.02 .36 .02 .73v2.74h-.57v-4.9h.71l2.61 4.05h.03q-.01 -.11 -.02 -.33q-.01 -.22 -.02 -.48q-.01 -.26 -.01 -.48v-2.77h.58v4.9z" stroke="none"/>
                        
                <path d="M86.49 33.98h-.62v-2.29h-2.51v2.29h-.61v-4.9h.61v2.07h2.51v-2.07h.62v4.9z" stroke="none"/>
                        
                <path d="M89.0 35.47h-1.94v-.3l.77 -.78q.22 -.22 .37 -.39q.15 -.18 .23 -.34q.08 -.17 .08 -.36q.0 -.24 -.15 -.37q-.14 -.13 -.37 -.13q-.21 .0 -.38 .08q-.16 .08 -.33 .21l-.19 -.24q.17 -.15 .39 -.25q.23 -.1 .51 -.1q.41 .0 .65 .21q.24 .21 .24 .58q.0 .23 -.1 .43q-.09 .2 -.26 .4q-.17 .2 -.39 .42l-.61 .6v.02h1.49v.33z" stroke="none"/>
                      
            </g>
                
            <line class="hi" id="mol1bnd11" stroke="#3050F8" x1="77.09" x2="72.07" y1="29.71" y2="26.805"/>
        </g>
          
    </g>
    
</svg>
