<svg xmlns="http://www.w3.org/2000/svg" xmlns:xlink="http://www.w3.org/1999/xlink" height="70.56mm" version="1.2" viewBox="0 0 147.29 70.56" width="147.29mm">
      
    <desc>Generated by the Chemistry Development Kit (http://github.com/cdk)</desc>
      
    <g fill="#FF0D0D" stroke="#000000" stroke-linecap="round" stroke-linejoin="round" stroke-width=".7">
            
        <rect fill="#FFFFFF" height="71.0" stroke="none" width="148.0" x=".0" y=".0"/>
            
        <g class="mol" id="mol1">
                  
            <line class="bond" id="mol1bnd1" x1="133.05" x2="119.85" y1="54.41" y2="46.79"/>
                  
            <g class="bond" id="mol1bnd2">
                        
                <line x1="106.65" x2="119.85" y1="54.41" y2="46.79"/>
                        
                <line x1="106.65" x2="117.42" y1="51.59" y2="45.38"/>
                      
            </g>
                  
            <line class="bond" id="mol1bnd3" x1="106.65" x2="93.44" y1="54.41" y2="46.79"/>
                  
            <g class="bond" id="mol1bnd4">
                        
                <line x1="93.44" x2="93.44" y1="31.55" y2="46.79"/>
                        
                <line x1="95.88" x2="95.88" y1="32.96" y2="45.38"/>
                      
            </g>
                  
            <line class="bond" id="mol1bnd5" x1="93.44" x2="106.65" y1="31.55" y2="23.93"/>
                  
            <g class="bond" id="mol1bnd6">
                        
                <line x1="119.85" x2="106.65" y1="31.55" y2="23.93"/>
                        
                <line x1="117.42" x2="106.65" y1="32.96" y2="26.75"/>
                      
            </g>
                  
            <line class="bond" id="mol1bnd7" x1="119.85" x2="119.85" y1="46.79" y2="31.55"/>
                  
            <line class="bond" id="mol1bnd8" x1="119.85" x2="129.77" y1="31.55" y2="25.82"/>
                  
            <line class="bond" id="mol1bnd9" x1="136.33" x2="146.25" y1="25.82" y2="31.55"/>
                  
            <line class="bond" id="mol1bnd10" x1="93.44" x2="80.24" y1="31.55" y2="23.93"/>
                  
            <line class="bond" id="mol1bnd11" x1="80.24" x2="67.04" y1="23.93" y2="31.55"/>
                  
            <line class="bond" id="mol1bnd12" x1="67.04" x2="57.0" y1="31.55" y2="25.74"/>
                  
            <line class="bond" id="mol1bnd13" x1="50.69" x2="40.64" y1="25.74" y2="31.54"/>
                  
            <line class="bond" id="mol1bnd14" x1="40.64" x2="27.45" y1="31.54" y2="23.92"/>
                  
            <g class="bond" id="mol1bnd15">
                        
                <line x1="27.45" x2="27.45" y1="23.92" y2="8.67"/>
                        
                <line x1="25.01" x2="25.01" y1="22.51" y2="10.08"/>
                      
            </g>
                  
            <line class="bond" id="mol1bnd16" x1="27.45" x2="14.25" y1="8.67" y2="1.04"/>
                  
            <g class="bond" id="mol1bnd17">
                        
                <line x1="14.25" x2="1.05" y1="1.04" y2="8.65"/>
                        
                <line x1="14.25" x2="3.49" y1="3.85" y2="10.06"/>
                      
            </g>
                  
            <line class="bond" id="mol1bnd18" x1="1.05" x2="1.05" y1="8.65" y2="23.9"/>
                  
            <g class="bond" id="mol1bnd19">
                        
                <line x1="1.05" x2="14.25" y1="23.9" y2="31.54"/>
                        
                <line x1="3.49" x2="14.25" y1="22.5" y2="28.72"/>
                      
            </g>
                  
            <line class="bond" id="mol1bnd20" x1="27.45" x2="14.25" y1="23.92" y2="31.54"/>
                  
            <line class="bond" id="mol1bnd21" x1="14.25" x2="14.24" y1="31.54" y2="42.85"/>
                  
            <line class="bond" id="mol1bnd22" x1="10.96" x2="1.04" y1="48.67" y2="54.39"/>
                  
            <line class="bond" id="mol1bnd23" x1="93.44" x2="83.52" y1="46.79" y2="52.52"/>
                  
            <line class="bond" id="mol1bnd24" x1="80.24" x2="80.24" y1="58.33" y2="69.65"/>
                  
            <path class="atom" d="M135.31 23.92q.0 .76 -.26 1.33q-.26 .57 -.76 .88q-.5 .32 -1.24 .32q-.76 .0 -1.26 -.32q-.51 -.32 -.76 -.89q-.24 -.57 -.24 -1.33q.0 -.75 .24 -1.31q.25 -.57 .76 -.88q.51 -.32 1.27 -.32q.73 .0 1.23 .32q.5 .31 .76 .88q.26 .57 .26 1.33zM131.45 23.92q.0 .92 .39 1.46q.39 .53 1.22 .53q.84 .0 1.22 -.53q.39 -.54 .39 -1.46q.0 -.93 -.39 -1.45q-.38 -.52 -1.21 -.52q-.83 .0 -1.23 .52q-.39 .52 -.39 1.45z" id="mol1atm8" stroke="none"/>
                  
            <g class="atom" id="mol1atm12">
                        
                <path d="M55.79 26.37h-.72l-2.62 -4.07h-.03q.01 .24 .03 .6q.02 .36 .02 .73v2.74h-.57v-4.9h.71l2.61 4.05h.03q-.01 -.11 -.02 -.33q-.01 -.22 -.02 -.48q-.01 -.26 -.01 -.48v-2.77h.58v4.9z" fill="#3050F8" stroke="none"/>
                        
                <path d="M55.65 20.91h-.62v-2.29h-2.51v2.29h-.61v-4.9h.61v2.07h2.51v-2.07h.62v4.9z" fill="#3050F8" stroke="none"/>
                      
            </g>
                  
            <path class="atom" d="M16.5 46.77q.0 .76 -.26 1.33q-.26 .57 -.76 .88q-.5 .32 -1.24 .32q-.76 .0 -1.26 -.32q-.51 -.32 -.76 -.89q-.24 -.57 -.24 -1.33q.0 -.75 .24 -1.31q.25 -.57 .76 -.88q.51 -.32 1.27 -.32q.73 .0 1.23 .32q.5 .31 .76 .88q.26 .57 .26 1.33zM12.64 46.77q.0 .92 .39 1.46q.39 .53 1.22 .53q.84 .0 1.22 -.53q.39 -.54 .39 -1.46q.0 -.93 -.39 -1.45q-.38 -.52 -1.21 -.52q-.83 .0 -1.23 .52q-.39 .52 -.39 1.45z" id="mol1atm20" stroke="none"/>
                  
            <path class="atom" d="M82.5 54.41q.0 .76 -.26 1.33q-.26 .57 -.76 .88q-.5 .32 -1.24 .32q-.76 .0 -1.26 -.32q-.51 -.32 -.76 -.89q-.24 -.57 -.24 -1.33q.0 -.75 .24 -1.31q.25 -.57 .76 -.88q.51 -.32 1.27 -.32q.73 .0 1.23 .32q.5 .31 .76 .88q.26 .57 .26 1.33zM78.64 54.41q.0 .92 .39 1.46q.39 .53 1.22 .53q.84 .0 1.22 -.53q.39 -.54 .39 -1.46q.0 -.93 -.39 -1.45q-.38 -.52 -1.21 -.52q-.83 .0 -1.23 .52q-.39 .52 -.39 1.45z" id="mol1atm22" stroke="none"/>
                
            <line class="hi" id="mol1bnd8" stroke="#FF0D0D" x1="129.77" x2="124.81" y1="25.82" y2="28.685000000000002"/>
            <line class="hi" id="mol1bnd9" stroke="#FF0D0D" x1="136.33" x2="141.29000000000002" y1="25.82" y2="28.685000000000002"/>
            <line class="hi" id="mol1bnd12" stroke="#3050F8" x1="57.0" x2="62.02" y1="25.74" y2="28.645"/>
            <line class="hi" id="mol1bnd12" stroke="#3050F8" x1="57.0" x2="62.02" y1="25.74" y2="28.645"/>
            <line class="hi" id="mol1bnd13" stroke="#3050F8" x1="50.69" x2="45.665" y1="25.74" y2="28.64"/>
            <line class="hi" id="mol1bnd13" stroke="#3050F8" x1="50.69" x2="45.665" y1="25.74" y2="28.64"/>
            <line class="hi" id="mol1bnd21" stroke="#FF0D0D" x1="14.24" x2="14.245000000000001" y1="42.85" y2="37.195"/>
            <line class="hi" id="mol1bnd22" stroke="#FF0D0D" x1="10.96" x2="6.0" y1="48.67" y2="51.53"/>
            <line class="hi" id="mol1bnd23" stroke="#FF0D0D" x1="83.52" x2="88.47999999999999" y1="52.52" y2="49.655"/>
            <line class="hi" id="mol1bnd24" stroke="#FF0D0D" x1="80.24" x2="80.24" y1="58.33" y2="63.99"/>
        </g>
          
    </g>
    
</svg>
