<svg xmlns="http://www.w3.org/2000/svg" xmlns:xlink="http://www.w3.org/1999/xlink" height="93.4mm" version="1.2" viewBox="0 0 120.9 93.4" width="120.9mm">
      
    <desc>Generated by the Chemistry Development Kit (http://github.com/cdk)</desc>
      
    <g fill="#FF0D0D" stroke="#000000" stroke-linecap="round" stroke-linejoin="round" stroke-width=".7">
            
        <rect fill="#FFFFFF" height="94.0" stroke="none" width="121.0" x=".0" y=".0"/>
            
        <g class="mol" id="mol1">
                  
            <line class="bond" id="mol1bnd1" x1="1.05" x2="10.97" y1="92.36" y2="86.64"/>
                  
            <line class="bond" id="mol1bnd2" x1="14.25" x2="14.25" y1="80.82" y2="69.5"/>
                  
            <g class="bond" id="mol1bnd3">
                        
                <line x1="14.25" x2="27.45" y1="69.5" y2="61.88"/>
                        
                <line x1="14.25" x2="25.02" y1="66.69" y2="60.47"/>
                      
            </g>
                  
            <line class="bond" id="mol1bnd4" x1="27.45" x2="27.45" y1="61.88" y2="46.64"/>
                  
            <g class="bond" id="mol1bnd5">
                        
                <line x1="27.45" x2="14.25" y1="46.64" y2="39.02"/>
                        
                <line x1="25.02" x2="14.25" y1="48.05" y2="41.84"/>
                      
            </g>
                  
            <line class="bond" id="mol1bnd6" x1="14.25" x2="1.04" y1="39.02" y2="46.64"/>
                  
            <g class="bond" id="mol1bnd7">
                        
                <line x1="1.04" x2="1.04" y1="46.64" y2="61.88"/>
                        
                <line x1="3.48" x2="3.48" y1="48.05" y2="60.47"/>
                      
            </g>
                  
            <line class="bond" id="mol1bnd8" x1="14.25" x2="1.04" y1="69.5" y2="61.88"/>
                  
            <line class="bond" id="mol1bnd9" x1="14.25" x2="14.25" y1="39.02" y2="27.7"/>
                  
            <line class="bond" id="mol1bnd10" x1="10.96" x2="1.05" y1="21.89" y2="16.16"/>
                  
            <line class="bond" id="mol1bnd11" x1="27.45" x2="40.65" y1="46.64" y2="39.02"/>
                  
            <line class="bond" id="mol1bnd12" x1="40.65" x2="53.85" y1="39.02" y2="46.64"/>
                  
            <line class="bond" id="mol1bnd13" x1="53.85" x2="63.89" y1="46.64" y2="40.84"/>
                  
            <line class="bond" id="mol1bnd14" x1="70.2" x2="80.25" y1="40.84" y2="46.63"/>
                  
            <line class="bond" id="mol1bnd15" x1="80.25" x2="93.44" y1="46.63" y2="39.01"/>
                  
            <g class="bond" id="mol1bnd16">
                        
                <line x1="93.44" x2="106.65" y1="39.01" y2="46.63"/>
                        
                <line x1="95.88" x2="106.65" y1="37.6" y2="43.82"/>
                      
            </g>
                  
            <line class="bond" id="mol1bnd17" x1="106.65" x2="119.86" y1="46.63" y2="39.01"/>
                  
            <g class="bond" id="mol1bnd18">
                        
                <line x1="119.86" x2="119.86" y1="39.01" y2="23.77"/>
                        
                <line x1="117.42" x2="117.42" y1="37.6" y2="25.18"/>
                      
            </g>
                  
            <line class="bond" id="mol1bnd19" x1="119.86" x2="106.65" y1="23.77" y2="16.15"/>
                  
            <g class="bond" id="mol1bnd20">
                        
                <line x1="106.65" x2="93.44" y1="16.15" y2="23.77"/>
                        
                <line x1="106.65" x2="95.88" y1="18.97" y2="25.18"/>
                      
            </g>
                  
            <line class="bond" id="mol1bnd21" x1="93.44" x2="93.44" y1="39.01" y2="23.77"/>
                  
            <line class="bond" id="mol1bnd22" x1="93.44" x2="83.52" y1="23.77" y2="18.04"/>
                  
            <line class="bond" id="mol1bnd23" x1="80.25" x2="80.25" y1="12.23" y2=".91"/>
                  
            <path class="atom" d="M16.51 84.74q.0 .76 -.26 1.33q-.26 .57 -.76 .88q-.5 .32 -1.24 .32q-.76 .0 -1.26 -.32q-.51 -.32 -.76 -.89q-.24 -.57 -.24 -1.33q.0 -.75 .24 -1.31q.25 -.57 .76 -.88q.51 -.32 1.27 -.32q.73 .0 1.23 .32q.5 .31 .76 .88q.26 .57 .26 1.33zM12.64 84.74q.0 .92 .39 1.46q.39 .53 1.22 .53q.84 .0 1.22 -.53q.39 -.54 .39 -1.46q.0 -.93 -.39 -1.45q-.38 -.52 -1.21 -.52q-.83 .0 -1.23 .52q-.39 .52 -.39 1.45z" id="mol1atm2" stroke="none"/>
                  
            <path class="atom" d="M16.51 23.78q.0 .76 -.26 1.33q-.26 .57 -.76 .88q-.5 .32 -1.24 .32q-.76 .0 -1.26 -.32q-.51 -.32 -.76 -.89q-.24 -.57 -.24 -1.33q.0 -.75 .24 -1.31q.25 -.57 .76 -.88q.51 -.32 1.27 -.32q.73 .0 1.23 .32q.5 .31 .76 .88q.26 .57 .26 1.33zM12.64 23.78q.0 .92 .39 1.46q.39 .53 1.22 .53q.84 .0 1.22 -.53q.39 -.54 .39 -1.46q.0 -.93 -.39 -1.45q-.38 -.52 -1.21 -.52q-.83 .0 -1.23 .52q-.39 .52 -.39 1.45z" id="mol1atm9" stroke="none"/>
                  
            <g class="atom" id="mol1atm13">
                        
                <path d="M68.99 41.47h-.72l-2.62 -4.07h-.03q.01 .24 .03 .6q.02 .36 .02 .73v2.74h-.57v-4.9h.71l2.61 4.05h.03q-.01 -.11 -.02 -.33q-.01 -.22 -.02 -.48q-.01 -.26 -.01 -.48v-2.77h.58v4.9z" fill="#3050F8" stroke="none"/>
                        
                <path d="M68.85 36.01h-.62v-2.29h-2.51v2.29h-.61v-4.9h.61v2.07h2.51v-2.07h.62v4.9z" fill="#3050F8" stroke="none"/>
                      
            </g>
                  
            <path class="atom" d="M82.51 16.15q.0 .76 -.26 1.33q-.26 .57 -.76 .88q-.5 .32 -1.24 .32q-.76 .0 -1.26 -.32q-.51 -.32 -.76 -.89q-.24 -.57 -.24 -1.33q.0 -.75 .24 -1.31q.25 -.57 .76 -.88q.51 -.32 1.27 -.32q.73 .0 1.23 .32q.5 .31 .76 .88q.26 .57 .26 1.33zM78.64 16.15q.0 .92 .39 1.46q.39 .53 1.22 .53q.84 .0 1.22 -.53q.39 -.54 .39 -1.46q.0 -.93 -.39 -1.45q-.38 -.52 -1.21 -.52q-.83 .0 -1.23 .52q-.39 .52 -.39 1.45z" id="mol1atm21" stroke="none"/>
                
            <line class="hi" id="mol1bnd1" stroke="#FF0D0D" x1="10.97" x2="6.010000000000001" y1="86.64" y2="89.5"/>
            <line class="hi" id="mol1bnd2" stroke="#FF0D0D" x1="14.25" x2="14.25" y1="80.82" y2="75.16"/>
            <line class="hi" id="mol1bnd9" stroke="#FF0D0D" x1="14.25" x2="14.25" y1="27.7" y2="33.36"/>
            <line class="hi" id="mol1bnd10" stroke="#FF0D0D" x1="10.96" x2="6.005000000000001" y1="21.89" y2="19.025"/>
            <line class="hi" id="mol1bnd13" stroke="#3050F8" x1="63.89" x2="58.870000000000005" y1="40.84" y2="43.74"/>
            <line class="hi" id="mol1bnd13" stroke="#3050F8" x1="63.89" x2="58.870000000000005" y1="40.84" y2="43.74"/>
            <line class="hi" id="mol1bnd14" stroke="#3050F8" x1="70.2" x2="75.225" y1="40.84" y2="43.735"/>
            <line class="hi" id="mol1bnd14" stroke="#3050F8" x1="70.2" x2="75.225" y1="40.84" y2="43.735"/>
            <line class="hi" id="mol1bnd22" stroke="#FF0D0D" x1="83.52" x2="88.47999999999999" y1="18.04" y2="20.905"/>
            <line class="hi" id="mol1bnd23" stroke="#FF0D0D" x1="80.25" x2="80.25" y1="12.23" y2="6.57"/>
        </g>
          
    </g>
    
</svg>
