<svg xmlns="http://www.w3.org/2000/svg" xmlns:xlink="http://www.w3.org/1999/xlink" height="78.31mm" version="1.2" viewBox="0 0 147.29 78.31" width="147.29mm">
      
    <desc>Generated by the Chemistry Development Kit (http://github.com/cdk)</desc>
      
    <g fill="#FF0D0D" stroke="#000000" stroke-linecap="round" stroke-linejoin="round" stroke-width=".7">
            
        <rect fill="#FFFFFF" height="79.0" stroke="none" width="148.0" x=".0" y=".0"/>
            
        <g class="mol" id="mol1">
                  
            <line class="bond" id="mol1bnd1" x1="1.04" x2="14.24" y1="31.51" y2="23.9"/>
                  
            <line class="bond" id="mol1bnd2" x1="14.24" x2="14.24" y1="23.9" y2="8.66"/>
                  
            <line class="bond" id="mol1bnd3" x1="14.24" x2="27.43" y1="23.9" y2="31.52"/>
                  
            <g class="bond" id="mol1bnd4">
                        
                <line x1="40.64" x2="27.43" y1="23.9" y2="31.52"/>
                        
                <line x1="40.64" x2="29.87" y1="26.71" y2="32.93"/>
                      
            </g>
                  
            <line class="bond" id="mol1bnd5" x1="40.64" x2="53.85" y1="23.9" y2="31.52"/>
                  
            <g class="bond" id="mol1bnd6">
                        
                <line x1="53.85" x2="53.85" y1="46.76" y2="31.52"/>
                        
                <line x1="51.41" x2="51.41" y1="45.35" y2="32.93"/>
                      
            </g>
                  
            <line class="bond" id="mol1bnd7" x1="53.85" x2="40.64" y1="46.76" y2="54.38"/>
                  
            <g class="bond" id="mol1bnd8">
                        
                <line x1="27.43" x2="40.64" y1="46.76" y2="54.38"/>
                        
                <line x1="29.87" x2="40.64" y1="45.35" y2="51.56"/>
                      
            </g>
                  
            <line class="bond" id="mol1bnd9" x1="27.43" x2="27.43" y1="31.52" y2="46.76"/>
                  
            <line class="bond" id="mol1bnd10" x1="40.64" x2="40.64" y1="54.38" y2="65.7"/>
                  
            <line class="bond" id="mol1bnd11" x1="43.92" x2="53.84" y1="71.51" y2="77.24"/>
                  
            <line class="bond" id="mol1bnd12" x1="53.85" x2="67.05" y1="46.76" y2="54.38"/>
                  
            <line class="bond" id="mol1bnd13" x1="67.05" x2="80.25" y1="54.38" y2="46.76"/>
                  
            <line class="bond" id="mol1bnd14" x1="80.25" x2="90.29" y1="46.76" y2="52.56"/>
                  
            <line class="bond" id="mol1bnd15" x1="96.6" x2="106.64" y1="52.56" y2="46.77"/>
                  
            <line class="bond" id="mol1bnd16" x1="106.64" x2="119.84" y1="46.77" y2="54.39"/>
                  
            <g class="bond" id="mol1bnd17">
                        
                <line x1="119.84" x2="119.84" y1="54.39" y2="69.64"/>
                        
                <line x1="122.28" x2="122.28" y1="55.8" y2="68.23"/>
                      
            </g>
                  
            <line class="bond" id="mol1bnd18" x1="119.84" x2="133.04" y1="69.64" y2="77.27"/>
                  
            <g class="bond" id="mol1bnd19">
                        
                <line x1="133.04" x2="146.24" y1="77.27" y2="69.65"/>
                        
                <line x1="133.04" x2="143.8" y1="74.45" y2="68.25"/>
                      
            </g>
                  
            <line class="bond" id="mol1bnd20" x1="146.24" x2="146.24" y1="69.65" y2="54.41"/>
                  
            <g class="bond" id="mol1bnd21">
                        
                <line x1="146.24" x2="133.04" y1="54.41" y2="46.77"/>
                        
                <line x1="143.8" x2="133.04" y1="55.81" y2="49.59"/>
                      
            </g>
                  
            <line class="bond" id="mol1bnd22" x1="119.84" x2="133.04" y1="54.39" y2="46.77"/>
                  
            <line class="bond" id="mol1bnd23" x1="133.04" x2="133.05" y1="46.77" y2="35.45"/>
                  
            <line class="bond" id="mol1bnd24" x1="136.33" x2="146.25" y1="29.64" y2="23.92"/>
                  
            <line class="bond" id="mol1bnd25" x1="40.64" x2="40.64" y1="23.9" y2="12.58"/>
                  
            <line class="bond" id="mol1bnd26" x1="37.36" x2="27.44" y1="6.76" y2="1.04"/>
                  
            <path class="atom" d="M42.9 69.62q.0 .76 -.26 1.33q-.26 .57 -.76 .88q-.5 .32 -1.24 .32q-.76 .0 -1.26 -.32q-.51 -.32 -.76 -.89q-.24 -.57 -.24 -1.33q.0 -.75 .24 -1.31q.25 -.57 .76 -.88q.51 -.32 1.27 -.32q.73 .0 1.23 .32q.5 .31 .76 .88q.26 .57 .26 1.33zM39.04 69.62q.0 .92 .39 1.46q.39 .53 1.22 .53q.84 .0 1.22 -.53q.39 -.54 .39 -1.46q.0 -.93 -.39 -1.45q-.38 -.52 -1.21 -.52q-.83 .0 -1.23 .52q-.39 .52 -.39 1.45z" id="mol1atm10" stroke="none"/>
                  
            <g class="atom" id="mol1atm14">
                        
                <path d="M95.38 56.83h-.72l-2.62 -4.07h-.03q.01 .24 .03 .6q.02 .36 .02 .73v2.74h-.57v-4.9h.71l2.61 4.05h.03q-.01 -.11 -.02 -.33q-.01 -.22 -.02 -.48q-.01 -.26 -.01 -.48v-2.77h.58v4.9z" fill="#3050F8" stroke="none"/>
                        
                <path d="M95.25 62.3h-.62v-2.29h-2.51v2.29h-.61v-4.9h.61v2.07h2.51v-2.07h.62v4.9z" fill="#3050F8" stroke="none"/>
                      
            </g>
                  
            <path class="atom" d="M135.31 31.53q.0 .76 -.26 1.33q-.26 .57 -.76 .88q-.5 .32 -1.24 .32q-.76 .0 -1.26 -.32q-.51 -.32 -.76 -.89q-.24 -.57 -.24 -1.33q.0 -.75 .24 -1.31q.25 -.57 .76 -.88q.51 -.32 1.27 -.32q.73 .0 1.23 .32q.5 .31 .76 .88q.26 .57 .26 1.33zM131.44 31.53q.0 .92 .39 1.46q.39 .53 1.22 .53q.84 .0 1.22 -.53q.39 -.54 .39 -1.46q.0 -.93 -.39 -1.45q-.38 -.52 -1.21 -.52q-.83 .0 -1.23 .52q-.39 .52 -.39 1.45z" id="mol1atm22" stroke="none"/>
                  
            <path class="atom" d="M42.9 8.66q.0 .76 -.26 1.33q-.26 .57 -.76 .88q-.5 .32 -1.24 .32q-.76 .0 -1.26 -.32q-.51 -.32 -.76 -.89q-.24 -.57 -.24 -1.33q.0 -.75 .24 -1.31q.25 -.57 .76 -.88q.51 -.32 1.27 -.32q.73 .0 1.23 .32q.5 .31 .76 .88q.26 .57 .26 1.33zM39.04 8.66q.0 .92 .39 1.46q.39 .53 1.22 .53q.84 .0 1.22 -.53q.39 -.54 .39 -1.46q.0 -.93 -.39 -1.45q-.38 -.52 -1.21 -.52q-.83 .0 -1.23 .52q-.39 .52 -.39 1.45z" id="mol1atm24" stroke="none"/>
                
            <line class="hi" id="mol1bnd10" stroke="#FF0D0D" x1="40.64" x2="40.64" y1="65.7" y2="60.040000000000006"/>
            <line class="hi" id="mol1bnd11" stroke="#FF0D0D" x1="43.92" x2="48.88" y1="71.51" y2="74.375"/>
            <line class="hi" id="mol1bnd14" stroke="#3050F8" x1="90.29" x2="85.27000000000001" y1="52.56" y2="49.66"/>
            <line class="hi" id="mol1bnd15" stroke="#3050F8" x1="96.6" x2="101.62" y1="52.56" y2="49.665000000000006"/>
            <line class="hi" id="mol1bnd23" stroke="#FF0D0D" x1="133.05" x2="133.04500000000002" y1="35.45" y2="41.11"/>
            <line class="hi" id="mol1bnd24" stroke="#FF0D0D" x1="136.33" x2="141.29000000000002" y1="29.64" y2="26.78"/>
            <line class="hi" id="mol1bnd25" stroke="#FF0D0D" x1="40.64" x2="40.64" y1="12.58" y2="18.24"/>
            <line class="hi" id="mol1bnd26" stroke="#FF0D0D" x1="37.36" x2="32.4" y1="6.76" y2="3.9"/>
        </g>
          
    </g>
    
</svg>
