<svg xmlns="http://www.w3.org/2000/svg" xmlns:xlink="http://www.w3.org/1999/xlink" height="76.17mm" version="1.2" viewBox="0 0 93.83 76.17" width="93.83mm">
      
    <desc>Generated by the Chemistry Development Kit (http://github.com/cdk)</desc>
      
    <g fill="#FF0D0D" stroke="#000000" stroke-linecap="round" stroke-linejoin="round" stroke-width=".7">
            
        <rect fill="#FFFFFF" height="77.0" stroke="none" width="94.0" x=".0" y=".0"/>
            
        <g class="mol" id="mol1">
                  
            <line class="bond" id="mol1bnd1" x1="9.31" x2="19.23" y1="25.94" y2="20.21"/>
                  
            <line class="bond" id="mol1bnd2" x1="25.78" x2="35.7" y1="20.21" y2="25.94"/>
                  
            <g class="bond" id="mol1bnd3">
                        
                <line x1="48.91" x2="35.7" y1="18.32" y2="25.94"/>
                        
                <line x1="48.91" x2="38.14" y1="21.14" y2="27.35"/>
                      
            </g>
                  
            <line class="bond" id="mol1bnd4" x1="48.91" x2="62.12" y1="18.32" y2="25.94"/>
                  
            <g class="bond" id="mol1bnd5">
                        
                <line x1="62.12" x2="62.12" y1="41.18" y2="25.94"/>
                        
                <line x1="59.68" x2="59.68" y1="39.77" y2="27.35"/>
                      
            </g>
                  
            <line class="bond" id="mol1bnd6" x1="62.12" x2="48.91" y1="41.18" y2="48.8"/>
                  
            <g class="bond" id="mol1bnd7">
                        
                <line x1="35.7" x2="48.91" y1="41.18" y2="48.8"/>
                        
                <line x1="38.14" x2="48.91" y1="39.77" y2="45.99"/>
                      
            </g>
                  
            <line class="bond" id="mol1bnd8" x1="35.7" x2="35.7" y1="25.94" y2="41.18"/>
                  
            <line class="bond" id="mol1bnd9" x1="35.7" x2="22.51" y1="41.18" y2="48.81"/>
                  
            <line class="bond" id="mol1bnd10" x1="22.51" x2="22.51" y1="48.81" y2="64.05"/>
                  
            <line class="bond" id="mol1bnd11" x1="22.51" x2="12.46" y1="64.05" y2="69.85"/>
                  
            <line class="bond" id="mol1bnd12" x1="62.12" x2="72.03" y1="41.18" y2="46.91"/>
                  
            <line class="bond" id="mol1bnd13" x1="78.59" x2="88.52" y1="46.91" y2="41.19"/>
                  
            <line class="bond" id="mol1bnd14" x1="62.12" x2="72.16" y1="25.94" y2="20.14"/>
                  
            <g class="bond" id="mol1bnd15">
                        
                <line x1="74.1" x2="74.1" y1="14.1" y2="7.0"/>
                        
                <line x1="76.53" x2="76.53" y1="14.1" y2="7.0"/>
                      
                <line class="hi" stroke="#3050F8" x1="74.1" x2="74.1" y1="14.1" y2="10.55"/>
                <line class="hi" stroke="#3050F8" x1="74.1" x2="74.1" y1="14.1" y2="10.55"/>
                <line class="hi" stroke="#FF0D0D" x1="74.1" x2="74.1" y1="7.0" y2="10.55"/>
                <line class="hi" stroke="#3050F8" x1="76.53" x2="76.53" y1="14.1" y2="10.55"/>
                <line class="hi" stroke="#3050F8" x1="76.53" x2="76.53" y1="14.1" y2="10.55"/>
                <line class="hi" stroke="#FF0D0D" x1="76.53" x2="76.53" y1="7.0" y2="10.55"/>
            </g>
                  
            <line class="bond" id="mol1bnd16" x1="79.01" x2="85.23" y1="20.45" y2="24.04"/>
                  
            <path class="atom" d="M24.77 18.32q.0 .76 -.26 1.33q-.26 .57 -.76 .88q-.5 .32 -1.24 .32q-.76 .0 -1.26 -.32q-.51 -.32 -.76 -.89q-.24 -.57 -.24 -1.33q.0 -.75 .24 -1.31q.25 -.57 .76 -.88q.51 -.32 1.27 -.32q.73 .0 1.23 .32q.5 .31 .76 .88q.26 .57 .26 1.33zM20.9 18.32q.0 .92 .39 1.46q.39 .53 1.22 .53q.84 .0 1.22 -.53q.39 -.54 .39 -1.46q.0 -.93 -.39 -1.45q-.38 -.52 -1.21 -.52q-.83 .0 -1.23 .52q-.39 .52 -.39 1.45z" id="mol1atm2" stroke="none"/>
                  
            <g class="atom" id="mol1atm11">
                        
                <path d="M11.25 74.12h-.72l-2.62 -4.07h-.03q.01 .24 .03 .6q.02 .36 .02 .73v2.74h-.57v-4.9h.71l2.61 4.05h.03q-.01 -.11 -.02 -.33q-.01 -.22 -.02 -.48q-.01 -.26 -.01 -.48v-2.77h.58v4.9z" fill="#3050F8" stroke="none"/>
                        
                <path d="M4.3 74.12h-.62v-2.29h-2.51v2.29h-.61v-4.9h.61v2.07h2.51v-2.07h.62v4.9z" fill="#3050F8" stroke="none"/>
                        
                <path d="M6.81 75.61h-1.94v-.3l.77 -.78q.22 -.22 .37 -.39q.15 -.18 .23 -.34q.08 -.17 .08 -.36q.0 -.24 -.15 -.37q-.14 -.13 -.37 -.13q-.21 .0 -.38 .08q-.16 .08 -.33 .21l-.19 -.24q.17 -.15 .39 -.25q.23 -.1 .51 -.1q.41 .0 .65 .21q.24 .21 .24 .58q.0 .23 -.1 .43q-.09 .2 -.26 .4q-.17 .2 -.39 .42l-.61 .6v.02h1.49v.33z" fill="#3050F8" stroke="none"/>
                      
            </g>
                  
            <path class="atom" d="M77.58 48.8q.0 .76 -.26 1.33q-.26 .57 -.76 .88q-.5 .32 -1.24 .32q-.76 .0 -1.26 -.32q-.51 -.32 -.76 -.89q-.24 -.57 -.24 -1.33q.0 -.75 .24 -1.31q.25 -.57 .76 -.88q.51 -.32 1.27 -.32q.73 .0 1.23 .32q.5 .31 .76 .88q.26 .57 .26 1.33zM73.71 48.8q.0 .92 .39 1.46q.39 .53 1.22 .53q.84 .0 1.22 -.53q.39 -.54 .39 -1.46q.0 -.93 -.39 -1.45q-.38 -.52 -1.21 -.52q-.83 .0 -1.23 .52q-.39 .52 -.39 1.45z" id="mol1atm12" stroke="none"/>
                  
            <g class="atom" id="mol1atm14">
                        
                <path d="M77.26 20.77h-.72l-2.62 -4.07h-.03q.01 .24 .03 .6q.02 .36 .02 .73v2.74h-.57v-4.9h.71l2.61 4.05h.03q-.01 -.11 -.02 -.33q-.01 -.22 -.02 -.48q-.01 -.26 -.01 -.48v-2.77h.58v4.9z" fill="#3050F8" stroke="none"/>
                        
                <path d="M78.93 15.73h.82v.29h-.82v.85h-.3v-.85h-.82v-.29h.82v-.85h.3v.85z" fill="#3050F8" stroke="none"/>
                      
            </g>
                  
            <path class="atom" d="M77.57 3.08q.0 .76 -.26 1.33q-.26 .57 -.76 .88q-.5 .32 -1.24 .32q-.76 .0 -1.26 -.32q-.51 -.32 -.76 -.89q-.24 -.57 -.24 -1.33q.0 -.75 .24 -1.31q.25 -.57 .76 -.88q.51 -.32 1.27 -.32q.73 .0 1.23 .32q.5 .31 .76 .88q.26 .57 .26 1.33zM73.71 3.08q.0 .92 .39 1.46q.39 .53 1.22 .53q.84 .0 1.22 -.53q.39 -.54 .39 -1.46q.0 -.93 -.39 -1.45q-.38 -.52 -1.21 -.52q-.83 .0 -1.23 .52q-.39 .52 -.39 1.45z" id="mol1atm15" stroke="none"/>
                  
            <g class="atom" id="mol1atm16">
                        
                <path d="M90.77 25.94q.0 .76 -.26 1.33q-.26 .57 -.76 .88q-.5 .32 -1.24 .32q-.76 .0 -1.26 -.32q-.51 -.32 -.76 -.89q-.24 -.57 -.24 -1.33q.0 -.75 .24 -1.31q.25 -.57 .76 -.88q.51 -.32 1.27 -.32q.73 .0 1.23 .32q.5 .31 .76 .88q.26 .57 .26 1.33zM86.91 25.94q.0 .92 .39 1.46q.39 .53 1.22 .53q.84 .0 1.22 -.53q.39 -.54 .39 -1.46q.0 -.93 -.39 -1.45q-.38 -.52 -1.21 -.52q-.83 .0 -1.23 .52q-.39 .52 -.39 1.45z" stroke="none"/>
                        
                <path d="M93.27 23.27v.29h-1.93v-.29h1.93z" stroke="none"/>
                      
            </g>
                
            <line class="hi" id="mol1bnd1" stroke="#FF0D0D" x1="19.23" x2="14.27" y1="20.21" y2="23.075000000000003"/>
            <line class="hi" id="mol1bnd2" stroke="#FF0D0D" x1="25.78" x2="30.740000000000002" y1="20.21" y2="23.075000000000003"/>
            <line class="hi" id="mol1bnd11" stroke="#3050F8" x1="12.46" x2="17.485" y1="69.85" y2="66.94999999999999"/>
            <line class="hi" id="mol1bnd12" stroke="#FF0D0D" x1="72.03" x2="67.075" y1="46.91" y2="44.045"/>
            <line class="hi" id="mol1bnd13" stroke="#FF0D0D" x1="78.59" x2="83.555" y1="46.91" y2="44.05"/>
            <line class="hi" id="mol1bnd14" stroke="#3050F8" x1="72.16" x2="67.14" y1="20.14" y2="23.04"/>
            <line class="hi" id="mol1bnd16" stroke="#3050F8" x1="79.01" x2="82.12" y1="20.45" y2="22.244999999999997"/>
            <line class="hi" id="mol1bnd16" stroke="#3050F8" x1="79.01" x2="82.12" y1="20.45" y2="22.244999999999997"/>
            <line class="hi" id="mol1bnd16" stroke="#FF0D0D" x1="85.23" x2="82.12" y1="24.04" y2="22.244999999999997"/>
        </g>
          
    </g>
    
</svg>
