<svg xmlns="http://www.w3.org/2000/svg" xmlns:xlink="http://www.w3.org/1999/xlink" height="39.84mm" version="1.2" viewBox="0 0 108.57 39.84" width="108.57mm">
      
    <desc>Generated by the Chemistry Development Kit (http://github.com/cdk)</desc>
      
    <g fill="#3050F8" stroke="#000000" stroke-linecap="round" stroke-linejoin="round" stroke-width=".7">
            
        <rect fill="#FFFFFF" height="40.0" stroke="none" width="109.0" x=".0" y=".0"/>
            
        <g class="mol" id="mol1">
                  
            <line class="bond" id="mol1bnd1" x1="1.04" x2="14.25" y1="8.52" y2="16.11"/>
                  
            <line class="bond" id="mol1bnd2" x1="14.25" x2="24.28" y1="16.11" y2="10.3"/>
                  
            <line class="bond" id="mol1bnd3" x1="30.59" x2="40.65" y1="10.29" y2="16.07"/>
                  
            <line class="bond" id="mol1bnd4" x1="40.65" x2="40.67" y1="16.07" y2="31.31"/>
                  
            <line class="bond" id="mol1bnd5" x1="40.65" x2="53.83" y1="16.07" y2="8.43"/>
                  
            <line class="bond" id="mol1bnd6" x1="53.83" x2="67.04" y1="8.43" y2="16.02"/>
                  
            <g class="bond" id="mol1bnd7">
                        
                <line x1="80.24" x2="67.04" y1="8.4" y2="16.02"/>
                        
                <line x1="80.25" x2="69.48" y1="11.21" y2="17.43"/>
                      
            </g>
                  
            <line class="bond" id="mol1bnd8" x1="80.24" x2="93.44" y1="8.4" y2="16.02"/>
                  
            <g class="bond" id="mol1bnd9">
                        
                <line x1="93.44" x2="93.44" y1="31.26" y2="16.02"/>
                        
                <line x1="91.0" x2="91.0" y1="29.85" y2="17.42"/>
                      
            </g>
                  
            <line class="bond" id="mol1bnd10" x1="93.44" x2="80.29" y1="31.26" y2="38.8"/>
                  
            <g class="bond" id="mol1bnd11">
                        
                <line x1="67.09" x2="80.29" y1="31.18" y2="38.8"/>
                        
                <line x1="69.52" x2="80.29" y1="29.77" y2="35.99"/>
                      
            </g>
                  
            <line class="bond" id="mol1bnd12" x1="67.04" x2="67.09" y1="16.02" y2="31.18"/>
                  
            <line class="bond" id="mol1bnd13" x1="93.44" x2="104.06" y1="16.02" y2="9.89"/>
                  
            <g class="atom" id="mol1atm3">
                        
                <path d="M29.38 10.92h-.72l-2.62 -4.07h-.03q.01 .24 .03 .6q.02 .36 .02 .73v2.74h-.57v-4.9h.71l2.61 4.05h.03q-.01 -.11 -.02 -.33q-.01 -.22 -.02 -.48q-.01 -.26 -.01 -.48v-2.77h.58v4.9z" stroke="none"/>
                        
                <path d="M29.24 5.46h-.62v-2.29h-2.51v2.29h-.61v-4.9h.61v2.07h2.51v-2.07h.62v4.9z" stroke="none"/>
                      
            </g>
                  
            <path class="atom" d="M105.89 10.85h-.61v-4.9h2.73v.54h-2.12v1.74h1.99v.54h-1.99v2.08z" fill="#90E050" id="mol1atm13" stroke="none"/>
                
            <line class="hi" id="mol1bnd2" stroke="#3050F8" x1="24.28" x2="19.265" y1="10.3" y2="13.205"/>
            <line class="hi" id="mol1bnd2" stroke="#3050F8" x1="24.28" x2="19.265" y1="10.3" y2="13.205"/>
            <line class="hi" id="mol1bnd3" stroke="#3050F8" x1="30.59" x2="35.62" y1="10.29" y2="13.18"/>
            <line class="hi" id="mol1bnd3" stroke="#3050F8" x1="30.59" x2="35.62" y1="10.29" y2="13.18"/>
            <line class="hi" id="mol1bnd13" stroke="#90E050" x1="104.06" x2="98.75" y1="9.89" y2="12.955"/>
        </g>
          
    </g>
    
</svg>
