<svg xmlns="http://www.w3.org/2000/svg" xmlns:xlink="http://www.w3.org/1999/xlink" height="39.84mm" version="1.2" viewBox="0 0 95.36 39.84" width="95.36mm">
      
    <desc>Generated by the Chemistry Development Kit (http://github.com/cdk)</desc>
      
    <g fill="#3050F8" stroke="#000000" stroke-linecap="round" stroke-linejoin="round" stroke-width=".7">
            
        <rect fill="#FFFFFF" height="40.0" stroke="none" width="96.0" x=".0" y=".0"/>
            
        <g class="mol" id="mol1">
                  
            <line class="bond" id="mol1bnd1" x1="27.46" x2="27.43" y1="31.31" y2="16.07"/>
                  
            <line class="bond" id="mol1bnd2" x1="27.43" x2="40.62" y1="16.07" y2="8.43"/>
                  
            <line class="bond" id="mol1bnd3" x1="40.62" x2="53.83" y1="8.43" y2="16.02"/>
                  
            <g class="bond" id="mol1bnd4">
                        
                <line x1="67.03" x2="53.83" y1="8.4" y2="16.02"/>
                        
                <line x1="67.03" x2="56.27" y1="11.21" y2="17.43"/>
                      
            </g>
                  
            <line class="bond" id="mol1bnd5" x1="67.03" x2="80.23" y1="8.4" y2="16.02"/>
                  
            <g class="bond" id="mol1bnd6">
                        
                <line x1="80.23" x2="80.23" y1="31.26" y2="16.02"/>
                        
                <line x1="77.79" x2="77.79" y1="29.85" y2="17.42"/>
                      
            </g>
                  
            <line class="bond" id="mol1bnd7" x1="80.23" x2="67.08" y1="31.26" y2="38.8"/>
                  
            <g class="bond" id="mol1bnd8">
                        
                <line x1="53.88" x2="67.08" y1="31.18" y2="38.8"/>
                        
                <line x1="56.31" x2="67.08" y1="29.77" y2="35.99"/>
                      
            </g>
                  
            <line class="bond" id="mol1bnd9" x1="53.83" x2="53.88" y1="16.02" y2="31.18"/>
                  
            <line class="bond" id="mol1bnd10" x1="80.23" x2="90.85" y1="16.02" y2="9.89"/>
                  
            <line class="bond" id="mol1bnd11" x1="27.43" x2="17.38" y1="16.07" y2="10.29"/>
                  
            <line class="bond" id="mol1bnd12" x1="11.07" x2="1.04" y1="10.3" y2="16.11"/>
                  
            <path class="atom" d="M92.68 10.85h-.61v-4.9h2.73v.54h-2.12v1.74h1.99v.54h-1.99v2.08z" fill="#90E050" id="mol1atm10" stroke="none"/>
                  
            <g class="atom" id="mol1atm11">
                        
                <path d="M16.16 10.92h-.72l-2.62 -4.07h-.03q.01 .24 .03 .6q.02 .36 .02 .73v2.74h-.57v-4.9h.71l2.61 4.05h.03q-.01 -.11 -.02 -.33q-.01 -.22 -.02 -.48q-.01 -.26 -.01 -.48v-2.77h.58v4.9z" stroke="none"/>
                        
                <path d="M16.03 5.46h-.62v-2.29h-2.51v2.29h-.61v-4.9h.61v2.07h2.51v-2.07h.62v4.9z" stroke="none"/>
                      
            </g>
                
            <line class="hi" id="mol1bnd10" stroke="#90E050" x1="90.85" x2="85.53999999999999" y1="9.89" y2="12.955"/>
            <line class="hi" id="mol1bnd11" stroke="#3050F8" x1="17.38" x2="22.405" y1="10.29" y2="13.18"/>
            <line class="hi" id="mol1bnd11" stroke="#3050F8" x1="17.38" x2="22.405" y1="10.29" y2="13.18"/>
            <line class="hi" id="mol1bnd12" stroke="#3050F8" x1="11.07" x2="6.055" y1="10.3" y2="13.205"/>
            <line class="hi" id="mol1bnd12" stroke="#3050F8" x1="11.07" x2="6.055" y1="10.3" y2="13.205"/>
        </g>
          
    </g>
    
</svg>
