<svg xmlns="http://www.w3.org/2000/svg" xmlns:xlink="http://www.w3.org/1999/xlink" height="95.27mm" version="1.2" viewBox="0 0 117.19 95.27" width="117.19mm">
      
    <desc>Generated by the Chemistry Development Kit (http://github.com/cdk)</desc>
      
    <g fill="#3050F8" stroke="#000000" stroke-linecap="round" stroke-linejoin="round" stroke-width=".7">
            
        <rect fill="#FFFFFF" height="96.0" stroke="none" width="118.0" x=".0" y=".0"/>
            
        <g class="mol" id="mol1">
                  
            <line class="bond" id="mol1bnd1" x1="16.02" x2="16.02" y1="21.07" y2="36.31"/>
                  
            <g class="bond" id="mol1bnd2">
                        
                <line x1="17.24" x2="6.71" y1="37.01" y2="43.09"/>
                        
                <line x1="16.02" x2="5.49" y1="34.9" y2="40.98"/>
                      
                <line class="hi" stroke="#FF0D0D" x1="6.710000000000001" x2="11.975" y1="43.09" y2="40.05"/>
                <line class="hi" stroke="#FF0D0D" x1="5.49" x2="10.754999999999999" y1="40.98" y2="37.94"/>
            </g>
                  
            <line class="bond" id="mol1bnd3" x1="16.02" x2="25.93" y1="36.31" y2="42.03"/>
                  
            <line class="bond" id="mol1bnd4" x1="29.22" x2="29.22" y1="47.85" y2="59.17"/>
                  
            <g class="bond" id="mol1bnd5">
                        
                <line x1="29.22" x2="16.01" y1="59.17" y2="66.79"/>
                        
                <line x1="29.22" x2="18.45" y1="61.98" y2="68.2"/>
                      
            </g>
                  
            <line class="bond" id="mol1bnd6" x1="16.01" x2="16.01" y1="66.79" y2="82.03"/>
                  
            <g class="bond" id="mol1bnd7">
                        
                <line x1="16.01" x2="29.22" y1="82.03" y2="89.65"/>
                        
                <line x1="18.45" x2="29.22" y1="80.62" y2="86.83"/>
                      
            </g>
                  
            <line class="bond" id="mol1bnd8" x1="29.22" x2="42.42" y1="89.65" y2="82.03"/>
                  
            <g class="bond" id="mol1bnd9">
                        
                <line x1="42.42" x2="42.42" y1="82.03" y2="66.79"/>
                        
                <line x1="39.99" x2="39.99" y1="80.62" y2="68.2"/>
                      
            </g>
                  
            <line class="bond" id="mol1bnd10" x1="29.22" x2="42.42" y1="59.17" y2="66.79"/>
                  
            <line class="bond" id="mol1bnd11" x1="42.42" x2="56.85" y1="66.79" y2="62.11"/>
                  
            <g class="bond" id="mol1bnd12">
                        
                <line x1="65.79" x2="56.85" y1="74.41" y2="62.11"/>
                        
                <line x1="62.78" x2="55.92" y1="74.41" y2="64.98"/>
                      
            </g>
                  
            <line class="bond" id="mol1bnd13" x1="65.79" x2="59.44" y1="74.41" y2="83.22"/>
                  
            <line class="bond" id="mol1bnd14" x1="42.42" x2="53.58" y1="82.03" y2="85.72"/>
                  
            <line class="bond" id="mol1bnd15" x1="56.85" x2="61.56" y1="62.11" y2="47.62"/>
                  
            <line class="bond" id="mol1bnd16" x1="61.56" x2="76.47" y1="47.62" y2="44.45"/>
                  
            <line class="bond" id="mol1bnd17" x1="76.47" x2="79.95" y1="44.45" y2="33.74"/>
                  
            <line class="bond" id="mol1bnd18" x1="84.49" x2="96.09" y1="29.26" y2="26.8"/>
                  
            <line class="bond" id="mol1bnd19" x1="96.09" x2="100.8" y1="26.8" y2="12.3"/>
                  
            <g class="bond" id="mol1bnd20">
                        
                <line x1="100.8" x2="115.71" y1="12.3" y2="9.14"/>
                        
                <line x1="102.69" x2="116.22" y1="14.4" y2="11.52"/>
                      
            </g>
                  
            <line class="bond" id="mol1bnd21" x1="78.31" x2="70.99" y1="26.76" y2="18.63"/>
                  
            <line class="bond" id="mol1bnd22" x1="70.99" x2="75.7" y1="18.63" y2="4.14"/>
                  
            <g class="bond" id="mol1bnd23">
                        
                <line x1="75.7" x2="90.61" y1="4.14" y2=".98"/>
                        
                <line x1="77.58" x2="91.11" y1="6.23" y2="3.36"/>
                      
            </g>
                  
            <path class="atom" d="M5.08 43.92q.0 .76 -.26 1.33q-.26 .57 -.76 .88q-.5 .32 -1.24 .32q-.76 .0 -1.26 -.32q-.51 -.32 -.76 -.89q-.24 -.57 -.24 -1.33q.0 -.75 .24 -1.31q.25 -.57 .76 -.88q.51 -.32 1.27 -.32q.73 .0 1.23 .32q.5 .31 .76 .88q.26 .57 .26 1.33zM1.21 43.92q.0 .92 .39 1.46q.39 .53 1.22 .53q.84 .0 1.22 -.53q.39 -.54 .39 -1.46q.0 -.93 -.39 -1.45q-.38 -.52 -1.21 -.52q-.83 .0 -1.23 .52q-.39 .52 -.39 1.45z" fill="#FF0D0D" id="mol1atm3" stroke="none"/>
                  
            <path class="atom" d="M31.47 43.92q.0 .76 -.26 1.33q-.26 .57 -.76 .88q-.5 .32 -1.24 .32q-.76 .0 -1.26 -.32q-.51 -.32 -.76 -.89q-.24 -.57 -.24 -1.33q.0 -.75 .24 -1.31q.25 -.57 .76 -.88q.51 -.32 1.27 -.32q.73 .0 1.23 .32q.5 .31 .76 .88q.26 .57 .26 1.33zM27.61 43.92q.0 .92 .39 1.46q.39 .53 1.22 .53q.84 .0 1.22 -.53q.39 -.54 .39 -1.46q.0 -.93 -.39 -1.45q-.38 -.52 -1.21 -.52q-.83 .0 -1.23 .52q-.39 .52 -.39 1.45z" fill="#FF0D0D" id="mol1atm4" stroke="none"/>
                  
            <g class="atom" id="mol1atm13">
                        
                <path d="M58.79 89.25h-.72l-2.62 -4.07h-.03q.01 .24 .03 .6q.02 .36 .02 .73v2.74h-.57v-4.9h.71l2.61 4.05h.03q-.01 -.11 -.02 -.33q-.01 -.22 -.02 -.48q-.01 -.26 -.01 -.48v-2.77h.58v4.9z" stroke="none"/>
                        
                <path d="M58.65 94.71h-.62v-2.29h-2.51v2.29h-.61v-4.9h.61v2.07h2.51v-2.07h.62v4.9z" stroke="none"/>
                      
            </g>
                  
            <path class="atom" d="M83.12 32.41h-.72l-2.62 -4.07h-.03q.01 .24 .03 .6q.02 .36 .02 .73v2.74h-.57v-4.9h.71l2.61 4.05h.03q-.01 -.11 -.02 -.33q-.01 -.22 -.02 -.48q-.01 -.26 -.01 -.48v-2.77h.58v4.9z" id="mol1atm16" stroke="none"/>
                
            <line class="hi" id="mol1bnd3" stroke="#FF0D0D" x1="25.93" x2="20.975" y1="42.03" y2="39.17"/>
            <line class="hi" id="mol1bnd4" stroke="#FF0D0D" x1="29.22" x2="29.22" y1="47.85" y2="53.510000000000005"/>
            <line class="hi" id="mol1bnd13" stroke="#3050F8" x1="59.44" x2="62.615" y1="83.22" y2="78.815"/>
            <line class="hi" id="mol1bnd14" stroke="#3050F8" x1="53.58" x2="48.0" y1="85.72" y2="83.875"/>
            <line class="hi" id="mol1bnd17" stroke="#3050F8" x1="79.95" x2="78.21000000000001" y1="33.74" y2="39.095"/>
            <line class="hi" id="mol1bnd18" stroke="#3050F8" x1="84.49" x2="90.28999999999999" y1="29.26" y2="28.03"/>
            <line class="hi" id="mol1bnd21" stroke="#3050F8" x1="78.31" x2="74.65" y1="26.76" y2="22.695"/>
        </g>
          
    </g>
    
</svg>
