<svg xmlns="http://www.w3.org/2000/svg" xmlns:xlink="http://www.w3.org/1999/xlink" height="52.18mm" version="1.2" viewBox="0 0 97.36 52.18" width="97.36mm">
      
    <desc>Generated by the Chemistry Development Kit (http://github.com/cdk)</desc>
      
    <g fill="#3050F8" stroke="#000000" stroke-linecap="round" stroke-linejoin="round" stroke-width=".7">
            
        <rect fill="#FFFFFF" height="53.0" stroke="none" width="98.0" x=".0" y=".0"/>
            
        <g class="mol" id="mol1">
                  
            <line class="bond" id="mol1bnd1" x1="27.36" x2="27.43" y1="11.06" y2="26.3"/>
                  
            <line class="bond" id="mol1bnd2" x1="27.43" x2="40.67" y1="26.3" y2="33.86"/>
                  
            <g class="bond" id="mol1bnd3">
                        
                <line x1="41.89" x2="41.95" y1="33.15" y2="45.17"/>
                        
                <line x1="39.45" x2="39.51" y1="33.16" y2="45.18"/>
                      
                <line class="hi" stroke="#FF0D0D" x1="41.95" x2="41.92" y1="45.17" y2="39.16"/>
                <line class="hi" stroke="#FF0D0D" x1="39.51" x2="39.480000000000004" y1="45.18" y2="39.17"/>
            </g>
                  
            <line class="bond" id="mol1bnd4" x1="40.67" x2="53.83" y1="33.86" y2="26.17"/>
                  
            <g class="bond" id="mol1bnd5">
                        
                <line x1="53.83" x2="66.93" y1="26.17" y2="33.62"/>
                        
                <line x1="56.26" x2="66.92" y1="24.75" y2="30.81"/>
                      
            </g>
                  
            <line class="bond" id="mol1bnd6" x1="66.93" x2="80.13" y1="33.62" y2="26.0"/>
                  
            <g class="bond" id="mol1bnd7">
                        
                <line x1="80.13" x2="80.31" y1="26.0" y2="10.88"/>
                        
                <line x1="77.71" x2="77.86" y1="24.59" y2="12.28"/>
                      
            </g>
                  
            <line class="bond" id="mol1bnd8" x1="80.31" x2="66.97" y1="10.88" y2="3.22"/>
                  
            <g class="bond" id="mol1bnd9">
                        
                <line x1="66.97" x2="53.77" y1="3.22" y2="10.84"/>
                        
                <line x1="66.98" x2="56.22" y1="6.03" y2="12.24"/>
                      
            </g>
                  
            <line class="bond" id="mol1bnd10" x1="53.83" x2="53.77" y1="26.17" y2="10.84"/>
                  
            <line class="bond" id="mol1bnd11" x1="80.31" x2="90.59" y1="10.88" y2="5.02"/>
                  
            <line class="bond" id="mol1bnd12" x1="27.43" x2="17.42" y1="26.3" y2="32.15"/>
                  
            <line class="bond" id="mol1bnd13" x1="11.12" x2="1.04" y1="32.19" y2="26.44"/>
                  
            <path class="atom" d="M43.01 49.1q.0 .76 -.26 1.33q-.26 .57 -.76 .88q-.5 .32 -1.24 .32q-.76 .0 -1.26 -.32q-.51 -.32 -.76 -.89q-.24 -.57 -.24 -1.33q.0 -.75 .24 -1.31q.25 -.57 .76 -.88q.51 -.32 1.27 -.32q.73 .0 1.23 .32q.5 .31 .76 .88q.26 .57 .26 1.33zM39.14 49.1q.0 .92 .39 1.46q.39 .53 1.22 .53q.84 .0 1.22 -.53q.39 -.54 .39 -1.46q.0 -.93 -.39 -1.45q-.38 -.52 -1.21 -.52q-.83 .0 -1.23 .52q-.39 .52 -.39 1.45z" fill="#FF0D0D" id="mol1atm4" stroke="none"/>
                  
            <path class="atom" d="M94.04 1.35q-.79 .0 -1.24 .53q-.45 .52 -.45 1.45q.0 .91 .42 1.45q.42 .53 1.27 .53q.32 .0 .61 -.05q.29 -.06 .57 -.14v.54q-.27 .1 -.57 .15q-.29 .05 -.7 .05q-.74 .0 -1.25 -.31q-.5 -.31 -.75 -.88q-.25 -.57 -.25 -1.34q.0 -.74 .27 -1.31q.27 -.57 .8 -.88q.53 -.32 1.28 -.32q.78 .0 1.35 .29l-.24 .52q-.23 -.1 -.51 -.18q-.27 -.08 -.61 -.08zM96.8 5.77h-.6v-5.21h.6v5.21z" fill="#1FF01F" id="mol1atm11" stroke="none"/>
                  
            <g class="atom" id="mol1atm12">
                        
                <path d="M16.21 36.44h-.72l-2.62 -4.07h-.03q.01 .24 .03 .6q.02 .36 .02 .73v2.74h-.57v-4.9h.71l2.61 4.05h.03q-.01 -.11 -.02 -.33q-.01 -.22 -.02 -.48q-.01 -.26 -.01 -.48v-2.77h.58v4.9z" stroke="none"/>
                        
                <path d="M16.08 41.9h-.62v-2.29h-2.51v2.29h-.61v-4.9h.61v2.07h2.51v-2.07h.62v4.9z" stroke="none"/>
                      
            </g>
                
            <line class="hi" id="mol1bnd11" stroke="#1FF01F" x1="90.59" x2="85.45" y1="5.02" y2="7.95"/>
            <line class="hi" id="mol1bnd12" stroke="#3050F8" x1="17.42" x2="22.425" y1="32.15" y2="29.225"/>
            <line class="hi" id="mol1bnd13" stroke="#3050F8" x1="11.12" x2="6.08" y1="32.19" y2="29.314999999999998"/>
        </g>
          
    </g>
    
</svg>
