<svg xmlns="http://www.w3.org/2000/svg" xmlns:xlink="http://www.w3.org/1999/xlink" height="95.51mm" version="1.2" viewBox="0 0 94.48 95.51" width="94.48mm">
      
    <desc>Generated by the Chemistry Development Kit (http://github.com/cdk)</desc>
      
    <g fill="#FF0D0D" stroke="#000000" stroke-linecap="round" stroke-linejoin="round" stroke-width=".7">
            
        <rect fill="#FFFFFF" height="96.0" stroke="none" width="95.0" x=".0" y=".0"/>
            
        <g class="mol" id="mol1">
                  
            <line class="bond" id="mol1bnd1" x1="1.04" x2="14.24" y1="31.53" y2="23.91"/>
                  
            <line class="bond" id="mol1bnd2" x1="14.24" x2="24.15" y1="23.91" y2="29.63"/>
                  
            <line class="bond" id="mol1bnd3" x1="30.71" x2="40.63" y1="29.63" y2="23.9"/>
                  
            <g class="bond" id="mol1bnd4">
                        
                <line x1="39.41" x2="39.41" y1="24.61" y2="12.58"/>
                        
                <line x1="41.85" x2="41.85" y1="24.61" y2="12.58"/>
                      
                <line class="hi" stroke="#FF0D0D" x1="39.41" x2="39.41" y1="12.58" y2="18.595"/>
                <line class="hi" stroke="#FF0D0D" x1="41.85" x2="41.85" y1="12.58" y2="18.595"/>
            </g>
                  
            <line class="bond" id="mol1bnd5" x1="40.63" x2="53.83" y1="23.9" y2="31.52"/>
                  
            <line class="bond" id="mol1bnd6" x1="53.83" x2="67.03" y1="31.52" y2="23.9"/>
                  
            <line class="bond" id="mol1bnd7" x1="67.03" x2="67.03" y1="23.9" y2="8.66"/>
                  
            <line class="bond" id="mol1bnd8" x1="67.03" x2="80.24" y1="8.66" y2="1.04"/>
                  
            <line class="bond" id="mol1bnd9" x1="80.24" x2="93.44" y1="1.04" y2="8.66"/>
                  
            <line class="bond" id="mol1bnd10" x1="93.44" x2="93.44" y1="8.66" y2="23.9"/>
                  
            <line class="bond" id="mol1bnd11" x1="93.44" x2="83.39" y1="23.9" y2="29.7"/>
                  
            <line class="bond" id="mol1bnd12" x1="67.03" x2="77.08" y1="23.9" y2="29.7"/>
                  
            <line class="bond" id="mol1bnd13" x1="53.83" x2="53.83" y1="31.52" y2="46.76"/>
                  
            <g class="bond" id="mol1bnd14">
                        
                <line x1="67.03" x2="53.83" y1="54.38" y2="46.76"/>
                        
                <line x1="64.59" x2="53.83" y1="55.79" y2="49.58"/>
                      
            </g>
                  
            <line class="bond" id="mol1bnd15" x1="67.03" x2="67.03" y1="54.38" y2="69.63"/>
                  
            <g class="bond" id="mol1bnd16">
                        
                <line x1="53.82" x2="67.03" y1="77.26" y2="69.63"/>
                        
                <line x1="53.82" x2="64.59" y1="74.44" y2="68.22"/>
                      
            </g>
                  
            <line class="bond" id="mol1bnd17" x1="53.82" x2="40.63" y1="77.26" y2="69.64"/>
                  
            <g class="bond" id="mol1bnd18">
                        
                <line x1="40.63" x2="40.63" y1="54.39" y2="69.64"/>
                        
                <line x1="43.07" x2="43.06" y1="55.8" y2="68.23"/>
                      
            </g>
                  
            <line class="bond" id="mol1bnd19" x1="53.83" x2="40.63" y1="46.76" y2="54.39"/>
                  
            <line class="bond" id="mol1bnd20" x1="53.82" x2="53.83" y1="77.26" y2="88.65"/>
                  
            <path class="atom" d="M29.69 31.52q.0 .76 -.26 1.33q-.26 .57 -.76 .88q-.5 .32 -1.24 .32q-.76 .0 -1.26 -.32q-.51 -.32 -.76 -.89q-.24 -.57 -.24 -1.33q.0 -.75 .24 -1.31q.25 -.57 .76 -.88q.51 -.32 1.27 -.32q.73 .0 1.23 .32q.5 .31 .76 .88q.26 .57 .26 1.33zM25.83 31.52q.0 .92 .39 1.46q.39 .53 1.22 .53q.84 .0 1.22 -.53q.39 -.54 .39 -1.46q.0 -.93 -.39 -1.45q-.38 -.52 -1.21 -.52q-.83 .0 -1.23 .52q-.39 .52 -.39 1.45z" id="mol1atm3" stroke="none"/>
                  
            <path class="atom" d="M42.89 8.66q.0 .76 -.26 1.33q-.26 .57 -.76 .88q-.5 .32 -1.24 .32q-.76 .0 -1.26 -.32q-.51 -.32 -.76 -.89q-.24 -.57 -.24 -1.33q.0 -.75 .24 -1.31q.25 -.57 .76 -.88q.51 -.32 1.27 -.32q.73 .0 1.23 .32q.5 .31 .76 .88q.26 .57 .26 1.33zM39.02 8.66q.0 .92 .39 1.46q.39 .53 1.22 .53q.84 .0 1.22 -.53q.39 -.54 .39 -1.46q.0 -.93 -.39 -1.45q-.38 -.52 -1.21 -.52q-.83 .0 -1.23 .52q-.39 .52 -.39 1.45z" id="mol1atm5" stroke="none"/>
                  
            <g class="atom" id="mol1atm12">
                        
                <path d="M82.18 33.97h-.72l-2.62 -4.07h-.03q.01 .24 .03 .6q.02 .36 .02 .73v2.74h-.57v-4.9h.71l2.61 4.05h.03q-.01 -.11 -.02 -.33q-.01 -.22 -.02 -.48q-.01 -.26 -.01 -.48v-2.77h.58v4.9z" fill="#3050F8" stroke="none"/>
                        
                <path d="M82.04 39.43h-.62v-2.29h-2.51v2.29h-.61v-4.9h.61v2.07h2.51v-2.07h.62v4.9z" fill="#3050F8" stroke="none"/>
                      
            </g>
                  
            <path class="atom" d="M53.07 94.95h-.61v-4.9h2.73v.54h-2.12v1.74h1.99v.54h-1.99v2.08z" fill="#90E050" id="mol1atm19" stroke="none"/>
                
            <line class="hi" id="mol1bnd2" stroke="#FF0D0D" x1="24.15" x2="19.195" y1="29.63" y2="26.77"/>
            <line class="hi" id="mol1bnd3" stroke="#FF0D0D" x1="30.71" x2="35.67" y1="29.63" y2="26.765"/>
            <line class="hi" id="mol1bnd11" stroke="#3050F8" x1="83.39" x2="88.41499999999999" y1="29.7" y2="26.799999999999997"/>
            <line class="hi" id="mol1bnd12" stroke="#3050F8" x1="77.08" x2="72.055" y1="29.7" y2="26.799999999999997"/>
            <line class="hi" id="mol1bnd20" stroke="#90E050" x1="53.83" x2="53.825" y1="88.65" y2="82.95500000000001"/>
        </g>
          
    </g>
    
</svg>
