<svg xmlns="http://www.w3.org/2000/svg" xmlns:xlink="http://www.w3.org/1999/xlink" height="83.97mm" version="1.2" viewBox="0 0 86.83 83.97" width="86.83mm">
      
    <desc>Generated by the Chemistry Development Kit (http://github.com/cdk)</desc>
      
    <g fill="#3050F8" stroke="#000000" stroke-linecap="round" stroke-linejoin="round" stroke-width=".7">
            
        <rect fill="#FFFFFF" height="84.0" stroke="none" width="87.0" x=".0" y=".0"/>
            
        <g class="mol" id="mol1">
                  
            <line class="bond" id="mol1bnd1" x1="85.83" x2="81.12" y1="1.0" y2="15.49"/>
                  
            <line class="bond" id="mol1bnd2" x1="81.12" x2="69.52" y1="15.49" y2="17.96"/>
                  
            <line class="bond" id="mol1bnd3" x1="63.34" x2="56.02" y1="15.46" y2="7.33"/>
                  
            <line class="bond" id="mol1bnd4" x1="64.98" x2="61.5" y1="22.44" y2="33.15"/>
                  
            <line class="bond" id="mol1bnd5" x1="61.5" x2="46.59" y1="33.15" y2="36.32"/>
                  
            <line class="bond" id="mol1bnd6" x1="46.59" x2="41.88" y1="36.32" y2="50.81"/>
                  
            <g class="bond" id="mol1bnd7">
                        
                <line x1="50.82" x2="41.88" y1="63.11" y2="50.81"/>
                        
                <line x1="47.81" x2="40.95" y1="63.11" y2="53.68"/>
                      
            </g>
                  
            <line class="bond" id="mol1bnd8" x1="50.82" x2="44.47" y1="63.11" y2="71.92"/>
                  
            <line class="bond" id="mol1bnd9" x1="38.61" x2="27.45" y1="74.42" y2="70.73"/>
                  
            <g class="bond" id="mol1bnd10">
                        
                <line x1="27.45" x2="27.45" y1="70.73" y2="55.49"/>
                        
                <line x1="25.02" x2="25.02" y1="69.32" y2="56.89"/>
                      
            </g>
                  
            <line class="bond" id="mol1bnd11" x1="41.88" x2="27.45" y1="50.81" y2="55.49"/>
                  
            <line class="bond" id="mol1bnd12" x1="27.45" x2="14.25" y1="55.49" y2="47.87"/>
                  
            <g class="bond" id="mol1bnd13">
                        
                <line x1="14.25" x2="1.04" y1="47.87" y2="55.49"/>
                        
                <line x1="14.25" x2="3.48" y1="50.68" y2="56.89"/>
                      
            </g>
                  
            <line class="bond" id="mol1bnd14" x1="1.04" x2="1.04" y1="55.49" y2="70.73"/>
                  
            <g class="bond" id="mol1bnd15">
                        
                <line x1="1.04" x2="14.25" y1="70.73" y2="78.35"/>
                        
                <line x1="3.48" x2="14.25" y1="69.32" y2="75.53"/>
                      
            </g>
                  
            <line class="bond" id="mol1bnd16" x1="27.45" x2="14.25" y1="70.73" y2="78.35"/>
                  
            <line class="bond" id="mol1bnd17" x1="14.25" x2="14.25" y1="47.87" y2="36.55"/>
                  
            <path class="atom" d="M68.15 21.11h-.72l-2.62 -4.07h-.03q.01 .24 .03 .6q.02 .36 .02 .73v2.74h-.57v-4.9h.71l2.61 4.05h.03q-.01 -.11 -.02 -.33q-.01 -.22 -.02 -.48q-.01 -.26 -.01 -.48v-2.77h.58v4.9z" id="mol1atm3" stroke="none"/>
                  
            <g class="atom" id="mol1atm9">
                        
                <path d="M43.82 77.95h-.72l-2.62 -4.07h-.03q.01 .24 .03 .6q.02 .36 .02 .73v2.74h-.57v-4.9h.71l2.61 4.05h.03q-.01 -.11 -.02 -.33q-.01 -.22 -.02 -.48q-.01 -.26 -.01 -.48v-2.77h.58v4.9z" stroke="none"/>
                        
                <path d="M43.69 83.41h-.62v-2.29h-2.51v2.29h-.61v-4.9h.61v2.07h2.51v-2.07h.62v4.9z" stroke="none"/>
                      
            </g>
                  
            <g class="atom" id="mol1atm16">
                        
                <path d="M16.51 32.62q.0 .76 -.26 1.33q-.26 .57 -.76 .88q-.5 .32 -1.24 .32q-.76 .0 -1.26 -.32q-.51 -.32 -.76 -.89q-.24 -.57 -.24 -1.33q.0 -.75 .24 -1.31q.25 -.57 .76 -.88q.51 -.32 1.27 -.32q.73 .0 1.23 .32q.5 .31 .76 .88q.26 .57 .26 1.33zM12.64 32.62q.0 .92 .39 1.46q.39 .53 1.22 .53q.84 .0 1.22 -.53q.39 -.54 .39 -1.46q.0 -.93 -.39 -1.45q-.38 -.52 -1.21 -.52q-.83 .0 -1.23 .52q-.39 .52 -.39 1.45z" fill="#FF0D0D" stroke="none"/>
                        
                <path d="M20.81 35.07h-.62v-2.29h-2.51v2.29h-.61v-4.9h.61v2.07h2.51v-2.07h.62v4.9z" fill="#FF0D0D" stroke="none"/>
                      
            </g>
                
            <line class="hi" id="mol1bnd2" stroke="#3050F8" x1="69.52" x2="75.32" y1="17.96" y2="16.725"/>
            <line class="hi" id="mol1bnd3" stroke="#3050F8" x1="63.34" x2="59.68000000000001" y1="15.46" y2="11.395"/>
            <line class="hi" id="mol1bnd4" stroke="#3050F8" x1="64.98" x2="63.24" y1="22.44" y2="27.795"/>
            <line class="hi" id="mol1bnd8" stroke="#3050F8" x1="44.47" x2="47.644999999999996" y1="71.92" y2="67.515"/>
            <line class="hi" id="mol1bnd9" stroke="#3050F8" x1="38.61" x2="33.03" y1="74.42" y2="72.575"/>
            <line class="hi" id="mol1bnd17" stroke="#FF0D0D" x1="14.25" x2="14.25" y1="36.55" y2="42.209999999999994"/>
            <line class="hi" id="mol1bnd17" stroke="#FF0D0D" x1="14.25" x2="14.25" y1="36.55" y2="42.209999999999994"/>
        </g>
          
    </g>
    
</svg>
