<svg xmlns="http://www.w3.org/2000/svg" xmlns:xlink="http://www.w3.org/1999/xlink" height="73.83mm" version="1.2" viewBox="0 0 97.04 73.83" width="97.04mm">
      
    <desc>Generated by the Chemistry Development Kit (http://github.com/cdk)</desc>
      
    <g fill="#FF0D0D" stroke="#000000" stroke-linecap="round" stroke-linejoin="round" stroke-width=".7">
            
        <rect fill="#FFFFFF" height="74.0" stroke="none" width="98.0" x=".0" y=".0"/>
            
        <g class="mol" id="mol1">
                  
            <line class="bond" id="mol1bnd1" x1="95.99" x2="88.62" y1="47.45" y2="38.91"/>
                  
            <line class="bond" id="mol1bnd2" x1="82.41" x2="71.07" y1="36.6" y2="38.75"/>
                  
            <g class="bond" id="mol1bnd3">
                        
                <line x1="71.07" x2="60.73" y1="38.75" y2="26.95"/>
                        
                <line x1="68.29" x2="59.81" y1="39.28" y2="29.61"/>
                      
            </g>
                  
            <line class="bond" id="mol1bnd4" x1="60.73" x2="46.01" y1="26.95" y2="29.77"/>
                  
            <g class="bond" id="mol1bnd5">
                        
                <line x1="46.01" x2="40.87" y1="29.77" y2="44.11"/>
                        
                <line x1="47.84" x2="43.63" y1="31.9" y2="43.63"/>
                      
            </g>
                  
            <line class="bond" id="mol1bnd6" x1="40.87" x2="50.44" y1="44.11" y2="55.64"/>
                  
            <g class="bond" id="mol1bnd7">
                        
                <line x1="50.44" x2="65.92" y1="55.64" y2="53.1"/>
                        
                <line x1="51.42" x2="64.11" y1="53.01" y2="50.92"/>
                      
            </g>
                  
            <line class="bond" id="mol1bnd8" x1="71.07" x2="65.92" y1="38.75" y2="53.1"/>
                  
            <line class="bond" id="mol1bnd9" x1="40.87" x2="25.86" y1="44.11" y2="46.76"/>
                  
            <line class="bond" id="mol1bnd10" x1="25.86" x2="31.07" y1="46.76" y2="61.09"/>
                  
            <line class="bond" id="mol1bnd11" x1="31.07" x2="21.27" y1="61.09" y2="72.77"/>
                  
            <line class="bond" id="mol1bnd12" x1="21.27" x2="6.27" y1="72.77" y2="70.13"/>
                  
            <line class="bond" id="mol1bnd13" x1="6.27" x2="1.05" y1="70.13" y2="55.8"/>
                  
            <line class="bond" id="mol1bnd14" x1="1.05" x2="10.85" y1="55.8" y2="44.11"/>
                  
            <line class="bond" id="mol1bnd15" x1="25.86" x2="10.85" y1="46.76" y2="44.11"/>
                  
            <line class="bond" id="mol1bnd16" x1="25.86" x2="25.86" y1="46.76" y2="35.37"/>
                  
            <line class="bond" id="mol1bnd17" x1="22.7" x2="12.65" y1="29.7" y2="23.9"/>
                  
            <line class="bond" id="mol1bnd18" x1="12.65" x2="12.65" y1="23.9" y2="8.66"/>
                  
            <line class="bond" id="mol1bnd19" x1="12.65" x2="25.86" y1="8.66" y2="1.04"/>
                  
            <line class="bond" id="mol1bnd20" x1="25.86" x2="39.07" y1="1.04" y2="8.66"/>
                  
            <line class="bond" id="mol1bnd21" x1="39.07" x2="39.07" y1="8.66" y2="23.9"/>
                  
            <line class="bond" id="mol1bnd22" x1="29.01" x2="39.07" y1="29.7" y2="23.9"/>
                  
            <path class="atom" d="M88.3 35.91q.0 .76 -.26 1.33q-.26 .57 -.76 .88q-.5 .32 -1.24 .32q-.76 .0 -1.26 -.32q-.51 -.32 -.76 -.89q-.24 -.57 -.24 -1.33q.0 -.75 .24 -1.31q.25 -.57 .76 -.88q.51 -.32 1.27 -.32q.73 .0 1.23 .32q.5 .31 .76 .88q.26 .57 .26 1.33zM84.44 35.91q.0 .92 .39 1.46q.39 .53 1.22 .53q.84 .0 1.22 -.53q.39 -.54 .39 -1.46q.0 -.93 -.39 -1.45q-.38 -.52 -1.21 -.52q-.83 .0 -1.23 .52q-.39 .52 -.39 1.45z" id="mol1atm2" stroke="none"/>
                  
            <path class="atom" d="M27.8 33.97h-.72l-2.62 -4.07h-.03q.01 .24 .03 .6q.02 .36 .02 .73v2.74h-.57v-4.9h.71l2.61 4.05h.03q-.01 -.11 -.02 -.33q-.01 -.22 -.02 -.48q-.01 -.26 -.01 -.48v-2.77h.58v4.9z" fill="#3050F8" id="mol1atm15" stroke="none"/>
                
            <line class="hi" id="mol1bnd1" stroke="#FF0D0D" x1="88.62" x2="92.305" y1="38.91" y2="43.18"/>
            <line class="hi" id="mol1bnd2" stroke="#FF0D0D" x1="82.41" x2="76.74" y1="36.6" y2="37.675"/>
            <line class="hi" id="mol1bnd16" stroke="#3050F8" x1="25.86" x2="25.86" y1="35.37" y2="41.065"/>
            <line class="hi" id="mol1bnd17" stroke="#3050F8" x1="22.7" x2="17.675" y1="29.7" y2="26.799999999999997"/>
            <line class="hi" id="mol1bnd22" stroke="#3050F8" x1="29.01" x2="34.04" y1="29.7" y2="26.799999999999997"/>
        </g>
          
    </g>
    
</svg>
