<svg xmlns="http://www.w3.org/2000/svg" xmlns:xlink="http://www.w3.org/1999/xlink" height="65.65mm" version="1.2" viewBox="0 0 131.16 65.65" width="131.16mm">
      
    <desc>Generated by the Chemistry Development Kit (http://github.com/cdk)</desc>
      
    <g fill="#FF0D0D" stroke="#000000" stroke-linecap="round" stroke-linejoin="round" stroke-width=".7">
            
        <rect fill="#FFFFFF" height="66.0" stroke="none" width="132.0" x=".0" y=".0"/>
            
        <g class="mol" id="mol1">
                  
            <line class="bond" id="mol1bnd1" x1="1.04" x2="14.24" y1="25.93" y2="18.31"/>
                  
            <line class="bond" id="mol1bnd2" x1="14.24" x2="27.43" y1="18.31" y2="25.93"/>
                  
            <line class="bond" id="mol1bnd3" x1="27.43" x2="40.63" y1="25.93" y2="18.32"/>
                  
            <line class="bond" id="mol1bnd4" x1="40.63" x2="53.83" y1="18.32" y2="25.94"/>
                  
            <line class="bond" id="mol1bnd5" x1="53.83" x2="67.03" y1="25.94" y2="18.32"/>
                  
            <g class="bond" id="mol1bnd6">
                        
                <line x1="65.81" x2="65.81" y1="19.02" y2="7.0"/>
                        
                <line x1="68.25" x2="68.25" y1="19.03" y2="7.0"/>
                      
                <line class="hi" stroke="#FF0D0D" x1="65.81" x2="65.81" y1="7.0" y2="13.01"/>
                <line class="hi" stroke="#FF0D0D" x1="68.25" x2="68.25" y1="7.0" y2="13.015"/>
            </g>
                  
            <line class="bond" id="mol1bnd7" x1="67.03" x2="80.23" y1="18.32" y2="25.94"/>
                  
            <g class="bond" id="mol1bnd8">
                        
                <line x1="93.44" x2="80.23" y1="18.32" y2="25.94"/>
                        
                <line x1="93.44" x2="82.67" y1="21.14" y2="27.35"/>
                      
            </g>
                  
            <line class="bond" id="mol1bnd9" x1="93.44" x2="106.64" y1="18.32" y2="25.94"/>
                  
            <g class="bond" id="mol1bnd10">
                        
                <line x1="106.64" x2="106.64" y1="41.18" y2="25.94"/>
                        
                <line x1="104.21" x2="104.21" y1="39.77" y2="27.35"/>
                      
            </g>
                  
            <line class="bond" id="mol1bnd11" x1="106.64" x2="121.17" y1="41.18" y2="45.86"/>
                  
            <line class="bond" id="mol1bnd12" x1="121.17" x2="130.11" y1="45.86" y2="33.56"/>
                  
            <line class="bond" id="mol1bnd13" x1="130.11" x2="121.17" y1="33.56" y2="21.27"/>
                  
            <line class="bond" id="mol1bnd14" x1="106.64" x2="121.17" y1="25.94" y2="21.27"/>
                  
            <line class="bond" id="mol1bnd15" x1="106.64" x2="93.44" y1="41.18" y2="48.8"/>
                  
            <g class="bond" id="mol1bnd16">
                        
                <line x1="80.23" x2="93.44" y1="41.18" y2="48.8"/>
                        
                <line x1="82.67" x2="93.44" y1="39.77" y2="45.99"/>
                      
            </g>
                  
            <line class="bond" id="mol1bnd17" x1="80.23" x2="80.23" y1="25.94" y2="41.18"/>
                  
            <line class="bond" id="mol1bnd18" x1="53.83" x2="53.83" y1="25.94" y2="37.33"/>
                  
            <line class="bond" id="mol1bnd19" x1="56.9" x2="66.12" y1="43.41" y2="50.12"/>
                  
            <line class="bond" id="mol1bnd20" x1="66.12" x2="61.44" y1="50.12" y2="64.65"/>
                  
            <line class="bond" id="mol1bnd21" x1="61.44" x2="46.2" y1="64.65" y2="64.65"/>
                  
            <line class="bond" id="mol1bnd22" x1="46.2" x2="41.53" y1="64.65" y2="50.12"/>
                  
            <line class="bond" id="mol1bnd23" x1="50.76" x2="41.53" y1="43.41" y2="50.12"/>
                  
            <path class="atom" d="M69.29 3.08q.0 .76 -.26 1.33q-.26 .57 -.76 .88q-.5 .32 -1.24 .32q-.76 .0 -1.26 -.32q-.51 -.32 -.76 -.89q-.24 -.57 -.24 -1.33q.0 -.75 .24 -1.31q.25 -.57 .76 -.88q.51 -.32 1.27 -.32q.73 .0 1.23 .32q.5 .31 .76 .88q.26 .57 .26 1.33zM65.43 3.08q.0 .92 .39 1.46q.39 .53 1.22 .53q.84 .0 1.22 -.53q.39 -.54 .39 -1.46q.0 -.93 -.39 -1.45q-.38 -.52 -1.21 -.52q-.83 .0 -1.23 .52q-.39 .52 -.39 1.45z" id="mol1atm7" stroke="none"/>
                  
            <path class="atom" d="M55.77 43.63h-.72l-2.62 -4.07h-.03q.01 .24 .03 .6q.02 .36 .02 .73v2.74h-.57v-4.9h.71l2.61 4.05h.03q-.01 -.11 -.02 -.33q-.01 -.22 -.02 -.48q-.01 -.26 -.01 -.48v-2.77h.58v4.9z" fill="#3050F8" id="mol1atm17" stroke="none"/>
                
            <line class="hi" id="mol1bnd18" stroke="#3050F8" x1="53.83" x2="53.83" y1="37.33" y2="31.634999999999998"/>
            <line class="hi" id="mol1bnd19" stroke="#3050F8" x1="56.9" x2="61.510000000000005" y1="43.41" y2="46.765"/>
            <line class="hi" id="mol1bnd23" stroke="#3050F8" x1="50.76" x2="46.144999999999996" y1="43.41" y2="46.765"/>
        </g>
          
    </g>
    
</svg>
