<svg xmlns="http://www.w3.org/2000/svg" xmlns:xlink="http://www.w3.org/1999/xlink" height="34.51mm" version="1.2" viewBox="0 0 89.03 34.51" width="89.03mm">
      
    <desc>Generated by the Chemistry Development Kit (http://github.com/cdk)</desc>
      
    <g fill="#3050F8" stroke="#000000" stroke-linecap="round" stroke-linejoin="round" stroke-width=".7">
            
        <rect fill="#FFFFFF" height="35.0" stroke="none" width="90.0" x=".0" y=".0"/>
            
        <g class="mol" id="mol1">
                  
            <line class="bond" id="mol1bnd1" x1="55.56" x2="64.49" y1="3.98" y2="16.27"/>
                  
            <line class="bond" id="mol1bnd2" x1="64.49" x2="55.56" y1="16.27" y2="28.56"/>
                  
            <line class="bond" id="mol1bnd3" x1="55.56" x2="41.04" y1="28.56" y2="23.89"/>
                  
            <g class="bond" id="mol1bnd4">
                        
                <line x1="41.04" x2="41.04" y1="23.89" y2="8.65"/>
                        
                <line x1="38.6" x2="38.6" y1="22.48" y2="10.06"/>
                      
            </g>
                  
            <line class="bond" id="mol1bnd5" x1="55.56" x2="41.04" y1="3.98" y2="8.65"/>
                  
            <line class="bond" id="mol1bnd6" x1="41.04" x2="27.83" y1="8.65" y2="1.04"/>
                  
            <g class="bond" id="mol1bnd7">
                        
                <line x1="27.83" x2="14.63" y1="1.04" y2="8.65"/>
                        
                <line x1="27.83" x2="17.07" y1="3.85" y2="10.06"/>
                      
            </g>
                  
            <line class="bond" id="mol1bnd8" x1="14.63" x2="14.63" y1="8.65" y2="23.89"/>
                  
            <g class="bond" id="mol1bnd9">
                        
                <line x1="14.63" x2="27.83" y1="23.89" y2="31.5"/>
                        
                <line x1="17.07" x2="27.83" y1="22.48" y2="28.69"/>
                      
            </g>
                  
            <line class="bond" id="mol1bnd10" x1="41.04" x2="27.83" y1="23.89" y2="31.5"/>
                  
            <line class="bond" id="mol1bnd11" x1="14.63" x2="3.54" y1="23.89" y2="30.29"/>
                  
            <line class="bond" id="mol1bnd12" x1="64.49" x2="76.38" y1="16.27" y2="16.27"/>
                  
            <path class="atom" d="M2.33 33.95h-1.77v-.36l.58 -.13v-3.92l-.58 -.14v-.36h1.77v.36l-.57 .14v3.92l.57 .13v.36z" fill="#940094" id="mol1atm10" stroke="none"/>
                  
            <g class="atom" id="mol1atm11">
                        
                <path d="M81.66 18.72h-.72l-2.62 -4.07h-.03q.01 .24 .03 .6q.02 .36 .02 .73v2.74h-.57v-4.9h.71l2.61 4.05h.03q-.01 -.11 -.02 -.33q-.01 -.22 -.02 -.48q-.01 -.26 -.01 -.48v-2.77h.58v4.9z" stroke="none"/>
                        
                <path d="M85.97 18.72h-.62v-2.29h-2.51v2.29h-.61v-4.9h.61v2.07h2.51v-2.07h.62v4.9z" stroke="none"/>
                        
                <path d="M88.47 20.21h-1.94v-.3l.77 -.78q.22 -.22 .37 -.39q.15 -.18 .23 -.34q.08 -.17 .08 -.36q.0 -.24 -.15 -.37q-.14 -.13 -.37 -.13q-.21 .0 -.38 .08q-.16 .08 -.33 .21l-.19 -.24q.17 -.15 .39 -.25q.23 -.1 .51 -.1q.41 .0 .65 .21q.24 .21 .24 .58q.0 .23 -.1 .43q-.09 .2 -.26 .4q-.17 .2 -.39 .42l-.61 .6v.02h1.49v.33z" stroke="none"/>
                      
            </g>
                
            <line class="hi" id="mol1bnd11" stroke="#940094" x1="3.540000000000001" x2="9.085" y1="30.29" y2="27.09"/>
            <line class="hi" id="mol1bnd12" stroke="#3050F8" x1="76.38" x2="70.435" y1="16.27" y2="16.27"/>
        </g>
          
    </g>
    
</svg>
