<svg xmlns="http://www.w3.org/2000/svg" xmlns:xlink="http://www.w3.org/1999/xlink" height="40.0mm" version="1.2" viewBox="0 0 104.77 40.0" width="104.77mm">
      
    <desc>Generated by the Chemistry Development Kit (http://github.com/cdk)</desc>
      
    <g fill="#3050F8" stroke="#000000" stroke-linecap="round" stroke-linejoin="round" stroke-width=".7">
            
        <rect fill="#FFFFFF" height="40.0" stroke="none" width="105.0" x=".0" y=".0"/>
            
        <g class="mol" id="mol1">
                  
            <line class="bond" id="mol1bnd1" x1="27.43" x2="27.43" y1="31.33" y2="16.09"/>
                  
            <line class="bond" id="mol1bnd2" x1="27.43" x2="40.63" y1="16.09" y2="8.48"/>
                  
            <line class="bond" id="mol1bnd3" x1="40.63" x2="53.83" y1="8.48" y2="16.1"/>
                  
            <g class="bond" id="mol1bnd4">
                        
                <line x1="67.04" x2="53.83" y1="8.48" y2="16.1"/>
                        
                <line x1="67.04" x2="56.27" y1="11.29" y2="17.51"/>
                      
            </g>
                  
            <line class="bond" id="mol1bnd5" x1="67.04" x2="80.25" y1="8.48" y2="16.1"/>
                  
            <g class="bond" id="mol1bnd6">
                        
                <line x1="80.25" x2="80.25" y1="31.34" y2="16.1"/>
                        
                <line x1="77.81" x2="77.81" y1="29.93" y2="17.51"/>
                      
            </g>
                  
            <line class="bond" id="mol1bnd7" x1="80.25" x2="67.04" y1="31.34" y2="38.96"/>
                  
            <g class="bond" id="mol1bnd8">
                        
                <line x1="53.83" x2="67.04" y1="31.34" y2="38.96"/>
                        
                <line x1="56.27" x2="67.04" y1="29.93" y2="36.14"/>
                      
            </g>
                  
            <line class="bond" id="mol1bnd9" x1="53.83" x2="53.83" y1="16.1" y2="31.34"/>
                  
            <line class="bond" id="mol1bnd10" x1="80.25" x2="91.18" y1="31.34" y2="34.86"/>
                  
            <line class="bond" id="mol1bnd11" x1="97.09" x2="103.72" y1="32.82" y2="23.72"/>
                  
            <line class="bond" id="mol1bnd12" x1="103.72" x2="94.78" y1="23.72" y2="11.42"/>
                  
            <line class="bond" id="mol1bnd13" x1="80.25" x2="94.78" y1="16.1" y2="11.42"/>
                  
            <line class="bond" id="mol1bnd14" x1="27.43" x2="17.39" y1="16.09" y2="10.29"/>
                  
            <line class="bond" id="mol1bnd15" x1="11.08" x2="1.04" y1="10.29" y2="16.09"/>
                  
            <path class="atom" d="M97.04 36.01q.0 .76 -.26 1.33q-.26 .57 -.76 .88q-.5 .32 -1.24 .32q-.76 .0 -1.26 -.32q-.51 -.32 -.76 -.89q-.24 -.57 -.24 -1.33q.0 -.75 .24 -1.31q.25 -.57 .76 -.88q.51 -.32 1.27 -.32q.73 .0 1.23 .32q.5 .31 .76 .88q.26 .57 .26 1.33zM93.17 36.01q.0 .92 .39 1.46q.39 .53 1.22 .53q.84 .0 1.22 -.53q.39 -.54 .39 -1.46q.0 -.93 -.39 -1.45q-.38 -.52 -1.21 -.52q-.83 .0 -1.23 .52q-.39 .52 -.39 1.45z" fill="#FF0D0D" id="mol1atm10" stroke="none"/>
                  
            <g class="atom" id="mol1atm13">
                        
                <path d="M16.18 10.92h-.72l-2.62 -4.07h-.03q.01 .24 .03 .6q.02 .36 .02 .73v2.74h-.57v-4.9h.71l2.61 4.05h.03q-.01 -.11 -.02 -.33q-.01 -.22 -.02 -.48q-.01 -.26 -.01 -.48v-2.77h.58v4.9z" stroke="none"/>
                        
                <path d="M16.04 5.46h-.62v-2.29h-2.51v2.29h-.61v-4.9h.61v2.07h2.51v-2.07h.62v4.9z" stroke="none"/>
                      
            </g>
                
            <line class="hi" id="mol1bnd10" stroke="#FF0D0D" x1="91.18" x2="85.715" y1="34.86" y2="33.1"/>
            <line class="hi" id="mol1bnd11" stroke="#FF0D0D" x1="97.09" x2="100.405" y1="32.82" y2="28.27"/>
            <line class="hi" id="mol1bnd14" stroke="#3050F8" x1="17.39" x2="22.41" y1="10.29" y2="13.19"/>
            <line class="hi" id="mol1bnd14" stroke="#3050F8" x1="17.39" x2="22.41" y1="10.29" y2="13.19"/>
            <line class="hi" id="mol1bnd15" stroke="#3050F8" x1="11.08" x2="6.0600000000000005" y1="10.29" y2="13.19"/>
            <line class="hi" id="mol1bnd15" stroke="#3050F8" x1="11.08" x2="6.0600000000000005" y1="10.29" y2="13.19"/>
        </g>
          
    </g>
    
</svg>
