<svg xmlns="http://www.w3.org/2000/svg" xmlns:xlink="http://www.w3.org/1999/xlink" height="65.59mm" version="1.2" viewBox="0 0 124.1 65.59" width="124.1mm">
      
    <desc>Generated by the Chemistry Development Kit (http://github.com/cdk)</desc>
      
    <g fill="#3050F8" stroke="#000000" stroke-linecap="round" stroke-linejoin="round" stroke-width=".7">
            
        <rect fill="#FFFFFF" height="66.0" stroke="none" width="125.0" x=".0" y=".0"/>
            
        <g class="mol" id="mol1">
                  
            <line class="bond" id="mol1bnd1" x1="123.05" x2="110.71" y1="22.84" y2="31.78"/>
                  
            <line class="bond" id="mol1bnd2" x1="110.71" x2="112.27" y1="31.78" y2="46.94"/>
                  
            <line class="bond" id="mol1bnd3" x1="110.71" x2="100.01" y1="31.78" y2="27.0"/>
                  
            <line class="bond" id="mol1bnd4" x1="96.4" x2="95.23" y1="21.72" y2="10.4"/>
                  
            <line class="bond" id="mol1bnd5" x1="93.72" x2="84.45" y1="27.78" y2="34.5"/>
                  
            <line class="bond" id="mol1bnd6" x1="84.45" x2="70.54" y1="34.5" y2="28.27"/>
                  
            <line class="bond" id="mol1bnd7" x1="70.54" x2="58.19" y1="28.27" y2="37.21"/>
                  
            <g class="bond" id="mol1bnd8">
                        
                <line x1="58.19" x2="58.19" y1="52.45" y2="37.21"/>
                        
                <line x1="55.76" x2="55.76" y1="50.67" y2="38.98"/>
                      
            </g>
                  
            <line class="bond" id="mol1bnd9" x1="58.19" x2="46.94" y1="52.45" y2="56.07"/>
                  
            <line class="bond" id="mol1bnd10" x1="41.06" x2="34.72" y1="53.54" y2="44.83"/>
                  
            <g class="bond" id="mol1bnd11">
                        
                <line x1="34.72" x2="43.67" y1="44.83" y2="32.43"/>
                        
                <line x1="33.58" x2="40.87" y1="42.25" y2="32.15"/>
                      
            </g>
                  
            <line class="bond" id="mol1bnd12" x1="58.19" x2="43.67" y1="37.21" y2="32.43"/>
                  
            <line class="bond" id="mol1bnd13" x1="43.67" x2="37.47" y1="32.43" y2="18.52"/>
                  
            <g class="bond" id="mol1bnd14">
                        
                <line x1="37.47" x2="22.33" y1="18.52" y2="16.99"/>
                        
                <line x1="35.82" x2="23.48" y1="20.8" y2="19.56"/>
                      
            </g>
                  
            <line class="bond" id="mol1bnd15" x1="22.33" x2="13.39" y1="16.99" y2="29.29"/>
                  
            <g class="bond" id="mol1bnd16">
                        
                <line x1="13.39" x2="19.59" y1="29.29" y2="43.2"/>
                        
                <line x1="16.19" x2="21.24" y1="29.58" y2="40.93"/>
                      
            </g>
                  
            <line class="bond" id="mol1bnd17" x1="34.72" x2="19.59" y1="44.83" y2="43.2"/>
                  
            <line class="bond" id="mol1bnd18" x1="22.33" x2="17.72" y1="16.99" y2="6.69"/>
                  
            <line class="bond" id="mol1bnd19" x1="12.45" x2=".94" y1="2.7" y2="1.52"/>
                  
            <path class="atom" d="M98.74 28.01h-.72l-2.62 -4.07h-.03q.01 .24 .03 .6q.02 .36 .02 .73v2.74h-.57v-4.9h.71l2.61 4.05h.03q-.01 -.11 -.02 -.33q-.01 -.22 -.02 -.48q-.01 -.26 -.01 -.48v-2.77h.58v4.9z" id="mol1atm4" stroke="none"/>
                  
            <g class="atom" id="mol1atm10">
                        
                <path d="M45.61 59.57h-.72l-2.62 -4.07h-.03q.01 .24 .03 .6q.02 .36 .02 .73v2.74h-.57v-4.9h.71l2.61 4.05h.03q-.01 -.11 -.02 -.33q-.01 -.22 -.02 -.48q-.01 -.26 -.01 -.48v-2.77h.58v4.9z" stroke="none"/>
                        
                <path d="M45.47 65.03h-.62v-2.29h-2.51v2.29h-.61v-4.9h.61v2.07h2.51v-2.07h.62v4.9z" stroke="none"/>
                      
            </g>
                  
            <path class="atom" d="M18.36 3.08q.0 .76 -.26 1.33q-.26 .57 -.76 .88q-.5 .32 -1.24 .32q-.76 .0 -1.26 -.32q-.51 -.32 -.76 -.89q-.24 -.57 -.24 -1.33q.0 -.75 .24 -1.31q.25 -.57 .76 -.88q.51 -.32 1.27 -.32q.73 .0 1.23 .32q.5 .31 .76 .88q.26 .57 .26 1.33zM14.5 3.08q.0 .92 .39 1.46q.39 .53 1.22 .53q.84 .0 1.22 -.53q.39 -.54 .39 -1.46q.0 -.93 -.39 -1.45q-.38 -.52 -1.21 -.52q-.83 .0 -1.23 .52q-.39 .52 -.39 1.45z" fill="#FF0D0D" id="mol1atm17" stroke="none"/>
                
            <line class="hi" id="mol1bnd3" stroke="#3050F8" x1="100.01" x2="105.36" y1="27.0" y2="29.39"/>
            <line class="hi" id="mol1bnd4" stroke="#3050F8" x1="96.4" x2="95.815" y1="21.72" y2="16.06"/>
            <line class="hi" id="mol1bnd5" stroke="#3050F8" x1="93.72" x2="89.08500000000001" y1="27.78" y2="31.14"/>
            <line class="hi" id="mol1bnd9" stroke="#3050F8" x1="46.94" x2="52.565" y1="56.07" y2="54.260000000000005"/>
            <line class="hi" id="mol1bnd10" stroke="#3050F8" x1="41.06" x2="37.89" y1="53.54" y2="49.185"/>
            <line class="hi" id="mol1bnd18" stroke="#FF0D0D" x1="17.72" x2="20.025" y1="6.690000000000001" y2="11.84"/>
            <line class="hi" id="mol1bnd19" stroke="#FF0D0D" x1="12.45" x2="6.694999999999999" y1="2.7" y2="2.1100000000000003"/>
        </g>
          
    </g>
    
</svg>
