<svg xmlns="http://www.w3.org/2000/svg" xmlns:xlink="http://www.w3.org/1999/xlink" height="150.86mm" version="1.2" viewBox="0 0 102.82 150.86" width="102.82mm">
      
    <desc>Generated by the Chemistry Development Kit (http://github.com/cdk)</desc>
      
    <g fill="#FF0D0D" stroke="#000000" stroke-linecap="round" stroke-linejoin="round" stroke-width=".7">
            
        <rect fill="#FFFFFF" height="151.0" stroke="none" width="103.0" x=".0" y=".0"/>
            
        <g class="mol" id="mol1">
                  
            <g class="bond" id="mol1bnd1">
                        
                <line x1="1.04" x2="1.04" y1="75.02" y2="90.26"/>
                        
                <line x1="3.48" x2="3.48" y1="76.43" y2="88.85"/>
                      
            </g>
                  
            <line class="bond" id="mol1bnd2" x1="1.04" x2="14.25" y1="90.26" y2="97.88"/>
                  
            <g class="bond" id="mol1bnd3">
                        
                <line x1="14.25" x2="27.45" y1="97.88" y2="90.26"/>
                        
                <line x1="14.25" x2="25.02" y1="95.06" y2="88.85"/>
                      
            </g>
                  
            <line class="bond" id="mol1bnd4" x1="27.45" x2="27.45" y1="90.26" y2="75.02"/>
                  
            <g class="bond" id="mol1bnd5">
                        
                <line x1="27.45" x2="14.25" y1="75.02" y2="67.4"/>
                        
                <line x1="25.02" x2="14.25" y1="76.43" y2="70.21"/>
                      
            </g>
                  
            <line class="bond" id="mol1bnd6" x1="1.04" x2="14.25" y1="75.02" y2="67.4"/>
                  
            <line class="bond" id="mol1bnd7" x1="27.45" x2="41.98" y1="75.02" y2="70.35"/>
                  
            <g class="bond" id="mol1bnd8">
                        
                <line x1="50.92" x2="41.98" y1="82.64" y2="70.35"/>
                        
                <line x1="47.91" x2="41.05" y1="82.64" y2="73.21"/>
                      
            </g>
                  
            <line class="bond" id="mol1bnd9" x1="50.92" x2="44.59" y1="82.64" y2="91.35"/>
                  
            <line class="bond" id="mol1bnd10" x1="27.45" x2="38.71" y1="90.26" y2="93.88"/>
                  
            <line class="bond" id="mol1bnd11" x1="43.22" x2="46.71" y1="98.71" y2="109.42"/>
                  
            <line class="bond" id="mol1bnd12" x1="46.71" x2="61.62" y1="109.42" y2="112.57"/>
                  
            <line class="bond" id="mol1bnd13" x1="61.62" x2="66.35" y1="112.57" y2="127.06"/>
                  
            <line class="bond" id="mol1bnd14" x1="66.35" x2="81.26" y1="127.06" y2="130.21"/>
                  
            <line class="bond" id="mol1bnd15" x1="81.26" x2="85.99" y1="130.21" y2="144.7"/>
                  
            <line class="bond" id="mol1bnd16" x1="85.99" x2="98.16" y1="144.7" y2="147.27"/>
                  
            <line class="bond" id="mol1bnd17" x1="41.98" x2="46.71" y1="70.35" y2="55.86"/>
                  
            <g class="bond" id="mol1bnd18">
                        
                <line x1="45.77" x2="57.74" y1="54.81" y2="52.28"/>
                        
                <line x1="46.27" x2="58.24" y1="57.2" y2="54.67"/>
                      
                <line class="hi" stroke="#FF0D0D" x1="57.74" x2="51.755" y1="52.28" y2="53.545"/>
                <line class="hi" stroke="#FF0D0D" x1="58.24" x2="52.255" y1="54.67" y2="55.935"/>
            </g>
                  
            <line class="bond" id="mol1bnd19" x1="46.71" x2="39.18" y1="55.86" y2="47.47"/>
                  
            <line class="bond" id="mol1bnd20" x1="37.77" x2="41.25" y1="40.71" y2="30.03"/>
                  
            <g class="bond" id="mol1bnd21">
                        
                <line x1="31.06" x2="41.25" y1="18.69" y2="30.03"/>
                        
                <line x1="33.82" x2="42.13" y1="18.11" y2="27.35"/>
                      
            </g>
                  
            <line class="bond" id="mol1bnd22" x1="31.06" x2="35.79" y1="18.69" y2="4.2"/>
                  
            <g class="bond" id="mol1bnd23">
                        
                <line x1="50.71" x2="35.79" y1="1.05" y2="4.2"/>
                        
                <line x1="49.83" x2="37.67" y1="3.73" y2="6.3"/>
                      
            </g>
                  
            <line class="bond" id="mol1bnd24" x1="50.71" x2="60.9" y1="1.05" y2="12.4"/>
                  
            <g class="bond" id="mol1bnd25">
                        
                <line x1="56.17" x2="60.9" y1="26.88" y2="12.4"/>
                        
                <line x1="54.29" x2="58.15" y1="24.79" y2="12.98"/>
                      
            </g>
                  
            <line class="bond" id="mol1bnd26" x1="41.25" x2="56.17" y1="30.03" y2="26.88"/>
                  
            <line class="bond" id="mol1bnd27" x1="56.17" x2="63.49" y1="26.88" y2="35.02"/>
                  
            <g class="bond" id="mol1bnd28">
                        
                <line x1="69.68" x2="81.29" y1="37.53" y2="35.08"/>
                        
                <line x1="69.17" x2="79.41" y1="35.14" y2="32.98"/>
                      
                <line class="hi" stroke="#3050F8" x1="69.68" x2="75.48500000000001" y1="37.53" y2="36.305"/>
                <line class="hi" stroke="#3050F8" x1="69.17" x2="74.28999999999999" y1="35.14" y2="34.06"/>
            </g>
                  
            <line class="bond" id="mol1bnd29" x1="81.29" x2="86.01" y1="35.08" y2="20.59"/>
                  
            <g class="bond" id="mol1bnd30">
                        
                <line x1="86.01" x2="75.82" y1="20.59" y2="9.25"/>
                        
                <line x1="83.26" x2="74.95" y1="21.17" y2="11.92"/>
                      
            </g>
                  
            <line class="bond" id="mol1bnd31" x1="60.9" x2="75.82" y1="12.4" y2="9.25"/>
                  
            <path class="atom" d="M43.92 97.38h-.72l-2.62 -4.07h-.03q.01 .24 .03 .6q.02 .36 .02 .73v2.74h-.57v-4.9h.71l2.61 4.05h.03q-.01 -.11 -.02 -.33q-.01 -.22 -.02 -.48q-.01 -.26 -.01 -.48v-2.77h.58v4.9z" fill="#3050F8" id="mol1atm9" stroke="none"/>
                  
            <path class="atom" d="M100.14 150.3h-.61v-4.9h2.73v.54h-2.12v1.74h1.99v.54h-1.99v2.08z" fill="#90E050" id="mol1atm15" stroke="none"/>
                  
            <path class="atom" d="M63.88 52.7q.0 .76 -.26 1.33q-.26 .57 -.76 .88q-.5 .32 -1.24 .32q-.76 .0 -1.26 -.32q-.51 -.32 -.76 -.89q-.24 -.57 -.24 -1.33q.0 -.75 .24 -1.31q.25 -.57 .76 -.88q.51 -.32 1.27 -.32q.73 .0 1.23 .32q.5 .31 .76 .88q.26 .57 .26 1.33zM60.02 52.7q.0 .92 .39 1.46q.39 .53 1.22 .53q.84 .0 1.22 -.53q.39 -.54 .39 -1.46q.0 -.93 -.39 -1.45q-.38 -.52 -1.21 -.52q-.83 .0 -1.23 .52q-.39 .52 -.39 1.45z" id="mol1atm17" stroke="none"/>
                  
            <path class="atom" d="M38.79 44.52q.0 .76 -.26 1.33q-.26 .57 -.76 .88q-.5 .32 -1.24 .32q-.76 .0 -1.26 -.32q-.51 -.32 -.76 -.89q-.24 -.57 -.24 -1.33q.0 -.75 .24 -1.31q.25 -.57 .76 -.88q.51 -.32 1.27 -.32q.73 .0 1.23 .32q.5 .31 .76 .88q.26 .57 .26 1.33zM34.92 44.52q.0 .92 .39 1.46q.39 .53 1.22 .53q.84 .0 1.22 -.53q.39 -.54 .39 -1.46q.0 -.93 -.39 -1.45q-.38 -.52 -1.21 -.52q-.83 .0 -1.23 .52q-.39 .52 -.39 1.45z" id="mol1atm18" stroke="none"/>
                  
            <path class="atom" d="M68.31 40.67h-.72l-2.62 -4.07h-.03q.01 .24 .03 .6q.02 .36 .02 .73v2.74h-.57v-4.9h.71l2.61 4.05h.03q-.01 -.11 -.02 -.33q-.01 -.22 -.02 -.48q-.01 -.26 -.01 -.48v-2.77h.58v4.9z" fill="#3050F8" id="mol1atm25" stroke="none"/>
                
            <line class="hi" id="mol1bnd9" stroke="#3050F8" x1="44.59" x2="47.755" y1="91.35" y2="86.995"/>
            <line class="hi" id="mol1bnd10" stroke="#3050F8" x1="38.71" x2="33.08" y1="93.88" y2="92.07"/>
            <line class="hi" id="mol1bnd11" stroke="#3050F8" x1="43.22" x2="44.965" y1="98.71" y2="104.065"/>
            <line class="hi" id="mol1bnd16" stroke="#90E050" x1="98.16" x2="92.07499999999999" y1="147.27" y2="145.985"/>
            <line class="hi" id="mol1bnd19" stroke="#FF0D0D" x1="39.18" x2="42.945" y1="47.47" y2="51.665"/>
            <line class="hi" id="mol1bnd20" stroke="#FF0D0D" x1="37.77" x2="39.510000000000005" y1="40.71" y2="35.370000000000005"/>
            <line class="hi" id="mol1bnd27" stroke="#3050F8" x1="63.49" x2="59.83" y1="35.02" y2="30.950000000000003"/>
        </g>
          
    </g>
    
</svg>
