<svg xmlns="http://www.w3.org/2000/svg" xmlns:xlink="http://www.w3.org/1999/xlink" height="63.21mm" version="1.2" viewBox="0 0 87.64 63.21" width="87.64mm">
      
    <desc>Generated by the Chemistry Development Kit (http://github.com/cdk)</desc>
      
    <g fill="#FF0D0D" stroke="#000000" stroke-linecap="round" stroke-linejoin="round" stroke-width=".7">
            
        <rect fill="#FFFFFF" height="64.0" stroke="none" width="88.0" x=".0" y=".0"/>
            
        <g class="mol" id="mol1">
                  
            <line class="bond" id="mol1bnd1" x1="1.05" x2="12.39" y1="56.13" y2="45.94"/>
                  
            <line class="bond" id="mol1bnd2" x1="12.39" x2="26.88" y1="45.94" y2="50.67"/>
                  
            <line class="bond" id="mol1bnd3" x1="26.88" x2="38.22" y1="50.67" y2="40.49"/>
                  
            <line class="bond" id="mol1bnd4" x1="38.22" x2="52.71" y1="40.49" y2="45.21"/>
                  
            <g class="bond" id="mol1bnd5">
                        
                <line x1="53.75" x2="56.23" y1="44.27" y2="55.98"/>
                        
                <line x1="51.37" x2="53.84" y1="44.78" y2="56.49"/>
                      
                <line class="hi" stroke="#FF0D0D" x1="56.23" x2="54.989999999999995" y1="55.98" y2="50.125"/>
                <line class="hi" stroke="#FF0D0D" x1="53.84" x2="52.605000000000004" y1="56.49" y2="50.635000000000005"/>
            </g>
                  
            <line class="bond" id="mol1bnd6" x1="52.71" x2="64.05" y1="45.21" y2="35.03"/>
                  
            <g class="bond" id="mol1bnd7">
                        
                <line x1="64.05" x2="78.96" y1="35.03" y2="38.25"/>
                        
                <line x1="66.28" x2="77.74" y1="33.02" y2="35.49"/>
                      
            </g>
                  
            <line class="bond" id="mol1bnd8" x1="78.96" x2="86.58" y1="38.25" y2="25.05"/>
                  
            <g class="bond" id="mol1bnd9">
                        
                <line x1="86.58" x2="76.34" y1="25.05" y2="13.74"/>
                        
                <line x1="83.58" x2="75.72" y1="25.37" y2="16.68"/>
                      
            </g>
                  
            <line class="bond" id="mol1bnd10" x1="76.34" x2="65.22" y1="13.74" y2="18.68"/>
                  
            <line class="bond" id="mol1bnd11" x1="64.05" x2="62.86" y1="35.03" y2="23.82"/>
                  
            <line class="bond" id="mol1bnd12" x1="38.22" x2="35.88" y1="40.49" y2="29.4"/>
                  
            <line class="bond" id="mol1bnd13" x1="31.85" x2="21.19" y1="24.14" y2="19.37"/>
                  
            <line class="bond" id="mol1bnd14" x1="21.19" x2="22.76" y1="19.37" y2="4.19"/>
                  
            <line class="bond" id="mol1bnd15" x1="22.76" x2="37.67" y1="4.19" y2="1.04"/>
                  
            <line class="bond" id="mol1bnd16" x1="37.67" x2="45.25" y1="1.04" y2="14.29"/>
                  
            <line class="bond" id="mol1bnd17" x1="37.95" x2="45.25" y1="22.38" y2="14.29"/>
                  
            <path class="atom" d="M58.12 60.12q.0 .76 -.26 1.33q-.26 .57 -.76 .88q-.5 .32 -1.24 .32q-.76 .0 -1.26 -.32q-.51 -.32 -.76 -.89q-.24 -.57 -.24 -1.33q.0 -.75 .24 -1.31q.25 -.57 .76 -.88q.51 -.32 1.27 -.32q.73 .0 1.23 .32q.5 .31 .76 .88q.26 .57 .26 1.33zM54.25 60.12q.0 .92 .39 1.46q.39 .53 1.22 .53q.84 .0 1.22 -.53q.39 -.54 .39 -1.46q.0 -.93 -.39 -1.45q-.38 -.52 -1.21 -.52q-.83 .0 -1.23 .52q-.39 .52 -.39 1.45z" id="mol1atm6" stroke="none"/>
                  
            <path class="atom" d="M63.99 21.05q.0 .65 -.48 1.02q-.47 .36 -1.27 .36q-.42 .0 -.77 -.07q-.35 -.06 -.58 -.17v-.59q.24 .11 .61 .2q.37 .09 .76 .09q.55 .0 .83 -.21q.28 -.21 .28 -.58q.0 -.24 -.11 -.4q-.1 -.17 -.35 -.31q-.25 -.14 -.7 -.3q-.63 -.23 -.95 -.55q-.32 -.33 -.32 -.9q.0 -.39 .2 -.67q.2 -.28 .55 -.43q.36 -.15 .82 -.15q.4 .0 .74 .08q.34 .07 .61 .2l-.2 .53q-.25 -.11 -.55 -.18q-.3 -.08 -.63 -.08q-.46 .0 -.69 .2q-.23 .2 -.23 .52q.0 .24 .1 .41q.11 .17 .34 .3q.23 .13 .63 .28q.43 .15 .73 .34q.3 .18 .45 .43q.15 .25 .15 .64z" fill="#C6C62C" id="mol1atm11" stroke="none"/>
                  
            <path class="atom" d="M37.01 28.03h-.72l-2.62 -4.07h-.03q.01 .24 .03 .6q.02 .36 .02 .73v2.74h-.57v-4.9h.71l2.61 4.05h.03q-.01 -.11 -.02 -.33q-.01 -.22 -.02 -.48q-.01 -.26 -.01 -.48v-2.77h.58v4.9z" fill="#3050F8" id="mol1atm12" stroke="none"/>
                
            <line class="hi" id="mol1bnd10" stroke="#C6C62C" x1="65.22" x2="70.78" y1="18.68" y2="16.21"/>
            <line class="hi" id="mol1bnd11" stroke="#C6C62C" x1="62.86" x2="63.455" y1="23.82" y2="29.425"/>
            <line class="hi" id="mol1bnd12" stroke="#3050F8" x1="35.88" x2="37.05" y1="29.4" y2="34.945"/>
            <line class="hi" id="mol1bnd13" stroke="#3050F8" x1="31.85" x2="26.520000000000003" y1="24.14" y2="21.755000000000003"/>
            <line class="hi" id="mol1bnd17" stroke="#3050F8" x1="37.95" x2="41.6" y1="22.38" y2="18.335"/>
        </g>
          
    </g>
    
</svg>
