<svg xmlns="http://www.w3.org/2000/svg" xmlns:xlink="http://www.w3.org/1999/xlink" height="72.27mm" version="1.2" viewBox="0 0 115.72 72.27" width="115.72mm">
      
    <desc>Generated by the Chemistry Development Kit (http://github.com/cdk)</desc>
      
    <g fill="#3050F8" stroke="#000000" stroke-linecap="round" stroke-linejoin="round" stroke-width=".7">
            
        <rect fill="#FFFFFF" height="73.0" stroke="none" width="116.0" x=".0" y=".0"/>
            
        <g class="mol" id="mol1">
                  
            <line class="bond" id="mol1bnd1" x1="101.32" x2="101.44" y1="25.87" y2="41.11"/>
                  
            <g class="bond" id="mol1bnd2">
                        
                <line x1="114.51" x2="101.44" y1="48.55" y2="41.11"/>
                        
                <line x1="112.09" x2="101.46" y1="49.98" y2="43.93"/>
                      
            </g>
                  
            <line class="bond" id="mol1bnd3" x1="114.51" x2="114.68" y1="48.55" y2="63.61"/>
                  
            <g class="bond" id="mol1bnd4">
                        
                <line x1="101.78" x2="114.68" y1="71.23" y2="63.61"/>
                        
                <line x1="101.73" x2="112.22" y1="68.43" y2="62.23"/>
                      
            </g>
                  
            <line class="bond" id="mol1bnd5" x1="101.78" x2="88.38" y1="71.23" y2="63.96"/>
                  
            <g class="bond" id="mol1bnd6">
                        
                <line x1="88.54" x2="88.38" y1="48.73" y2="63.96"/>
                        
                <line x1="90.96" x2="90.83" y1="50.13" y2="62.52"/>
                      
            </g>
                  
            <line class="bond" id="mol1bnd7" x1="101.44" x2="88.54" y1="41.11" y2="48.73"/>
                  
            <line class="bond" id="mol1bnd8" x1="88.54" x2="78.49" y1="48.73" y2="42.93"/>
                  
            <line class="bond" id="mol1bnd9" x1="75.34" x2="75.34" y1="37.26" y2="25.87"/>
                  
            <g class="bond" id="mol1bnd10">
                        
                <line x1="75.34" x2="65.29" y1="25.87" y2="20.07"/>
                        
                <line x1="72.9" x2="64.07" y1="27.28" y2="22.18"/>
                      
                <line class="hi" stroke="#3050F8" x1="65.29" x2="70.315" y1="20.07" y2="22.97"/>
                <line class="hi" stroke="#3050F8" x1="64.07" x2="68.485" y1="22.18" y2="24.73"/>
            </g>
                  
            <line class="bond" id="mol1bnd11" x1="58.98" x2="48.92" y1="20.07" y2="25.87"/>
                  
            <g class="bond" id="mol1bnd12">
                        
                <line x1="48.92" x2="48.92" y1="41.11" y2="25.87"/>
                        
                <line x1="46.49" x2="46.49" y1="39.7" y2="27.28"/>
                      
            </g>
                  
            <line class="bond" id="mol1bnd13" x1="48.92" x2="62.13" y1="41.11" y2="48.73"/>
                  
            <line class="bond" id="mol1bnd14" x1="72.19" x2="62.13" y1="42.93" y2="48.73"/>
                  
            <g class="bond" id="mol1bnd15">
                        
                <line x1="63.35" x2="63.35" y1="48.03" y2="60.05"/>
                        
                <line x1="60.91" x2="60.91" y1="48.03" y2="60.05"/>
                      
                <line class="hi" stroke="#FF0D0D" x1="63.35" x2="63.35" y1="60.05" y2="54.04"/>
                <line class="hi" stroke="#FF0D0D" x1="60.91" x2="60.91" y1="60.05" y2="54.04"/>
            </g>
                  
            <line class="bond" id="mol1bnd16" x1="48.92" x2="35.72" y1="41.11" y2="48.73"/>
                  
            <g class="bond" id="mol1bnd17">
                        
                <line x1="22.51" x2="35.72" y1="41.11" y2="48.73"/>
                        
                <line x1="24.95" x2="35.72" y1="39.7" y2="45.92"/>
                      
            </g>
                  
            <line class="bond" id="mol1bnd18" x1="22.51" x2="22.51" y1="41.11" y2="25.87"/>
                  
            <g class="bond" id="mol1bnd19">
                        
                <line x1="35.72" x2="22.51" y1="18.25" y2="25.87"/>
                        
                <line x1="35.72" x2="24.95" y1="21.07" y2="27.28"/>
                      
            </g>
                  
            <line class="bond" id="mol1bnd20" x1="48.92" x2="35.72" y1="25.87" y2="18.25"/>
                  
            <line class="bond" id="mol1bnd21" x1="22.51" x2="12.46" y1="41.11" y2="46.91"/>
                  
            <line class="bond" id="mol1bnd22" x1="75.34" x2="88.54" y1="25.87" y2="18.25"/>
                  
            <line class="bond" id="mol1bnd23" x1="88.54" x2="88.54" y1="18.25" y2="6.07"/>
                  
            <path class="atom" d="M77.28 43.56h-.72l-2.62 -4.07h-.03q.01 .24 .03 .6q.02 .36 .02 .73v2.74h-.57v-4.9h.71l2.61 4.05h.03q-.01 -.11 -.02 -.33q-.01 -.22 -.02 -.48q-.01 -.26 -.01 -.48v-2.77h.58v4.9z" id="mol1atm8" stroke="none"/>
                  
            <path class="atom" d="M64.07 20.7h-.72l-2.62 -4.07h-.03q.01 .24 .03 .6q.02 .36 .02 .73v2.74h-.57v-4.9h.71l2.61 4.05h.03q-.01 -.11 -.02 -.33q-.01 -.22 -.02 -.48q-.01 -.26 -.01 -.48v-2.77h.58v4.9z" id="mol1atm10" stroke="none"/>
                  
            <path class="atom" d="M64.39 63.97q.0 .76 -.26 1.33q-.26 .57 -.76 .88q-.5 .32 -1.24 .32q-.76 .0 -1.26 -.32q-.51 -.32 -.76 -.89q-.24 -.57 -.24 -1.33q.0 -.75 .24 -1.31q.25 -.57 .76 -.88q.51 -.32 1.27 -.32q.73 .0 1.23 .32q.5 .31 .76 .88q.26 .57 .26 1.33zM60.53 63.97q.0 .92 .39 1.46q.39 .53 1.22 .53q.84 .0 1.22 -.53q.39 -.54 .39 -1.46q.0 -.93 -.39 -1.45q-.38 -.52 -1.21 -.52q-.83 .0 -1.23 .52q-.39 .52 -.39 1.45z" fill="#FF0D0D" id="mol1atm14" stroke="none"/>
                  
            <g class="atom" id="mol1atm19">
                        
                <path d="M11.25 51.18h-.72l-2.62 -4.07h-.03q.01 .24 .03 .6q.02 .36 .02 .73v2.74h-.57v-4.9h.71l2.61 4.05h.03q-.01 -.11 -.02 -.33q-.01 -.22 -.02 -.48q-.01 -.26 -.01 -.48v-2.77h.58v4.9z" stroke="none"/>
                        
                <path d="M4.3 51.18h-.62v-2.29h-2.51v2.29h-.61v-4.9h.61v2.07h2.51v-2.07h.62v4.9z" stroke="none"/>
                        
                <path d="M6.81 52.67h-1.94v-.3l.77 -.78q.22 -.22 .37 -.39q.15 -.18 .23 -.34q.08 -.17 .08 -.36q.0 -.24 -.15 -.37q-.14 -.13 -.37 -.13q-.21 .0 -.38 .08q-.16 .08 -.33 .21l-.19 -.24q.17 -.15 .39 -.25q.23 -.1 .51 -.1q.41 .0 .65 .21q.24 .21 .24 .58q.0 .23 -.1 .43q-.09 .2 -.26 .4q-.17 .2 -.39 .42l-.61 .6v.02h1.49v.33z" stroke="none"/>
                      
            </g>
                  
            <path class="atom" d="M87.78 5.46h-.61v-4.9h2.73v.54h-2.12v1.74h1.99v.54h-1.99v2.08z" fill="#90E050" id="mol1atm21" stroke="none"/>
                
            <line class="hi" id="mol1bnd8" stroke="#3050F8" x1="78.49" x2="83.515" y1="42.93" y2="45.83"/>
            <line class="hi" id="mol1bnd9" stroke="#3050F8" x1="75.34" x2="75.34" y1="37.26" y2="31.564999999999998"/>
            <line class="hi" id="mol1bnd11" stroke="#3050F8" x1="58.98" x2="53.95" y1="20.07" y2="22.97"/>
            <line class="hi" id="mol1bnd14" stroke="#3050F8" x1="72.19" x2="67.16" y1="42.93" y2="45.83"/>
            <line class="hi" id="mol1bnd21" stroke="#3050F8" x1="12.46" x2="17.485" y1="46.91" y2="44.01"/>
            <line class="hi" id="mol1bnd23" stroke="#90E050" x1="88.54" x2="88.54" y1="6.07" y2="12.16"/>
        </g>
          
    </g>
    
</svg>
