<svg xmlns="http://www.w3.org/2000/svg" xmlns:xlink="http://www.w3.org/1999/xlink" height="11.74mm" version="1.2" viewBox="0 0 34.56 11.74" width="34.56mm">
      
    <desc>Generated by the Chemistry Development Kit (http://github.com/cdk)</desc>
      
    <g fill="#FF0D0D" stroke="#000000" stroke-linecap="round" stroke-linejoin="round" stroke-width=".7">
            
        <rect fill="#FFFFFF" height="12.0" stroke="none" width="35.0" x=".0" y=".0"/>
            
        <g class="mol" id="mol1">
                  
            <line class="bond" id="mol1bnd1" x1="33.52" x2="20.32" y1="8.66" y2="1.04"/>
                  
            <line class="bond" id="mol1bnd2" x1="20.32" x2="10.4" y1="1.04" y2="6.77"/>
                  
            <g class="atom" id="mol1atm3">
                        
                <path d="M9.38 8.66q.0 .76 -.26 1.33q-.26 .57 -.76 .88q-.5 .32 -1.24 .32q-.76 .0 -1.26 -.32q-.51 -.32 -.76 -.89q-.24 -.57 -.24 -1.33q.0 -.75 .24 -1.31q.25 -.57 .76 -.88q.51 -.32 1.27 -.32q.73 .0 1.23 .32q.5 .31 .76 .88q.26 .57 .26 1.33zM5.52 8.66q.0 .92 .39 1.46q.39 .53 1.22 .53q.84 .0 1.22 -.53q.39 -.54 .39 -1.46q.0 -.93 -.39 -1.45q-.38 -.52 -1.21 -.52q-.83 .0 -1.23 .52q-.39 .52 -.39 1.45z" stroke="none"/>
                        
                <path d="M4.3 11.11h-.62v-2.29h-2.51v2.29h-.61v-4.9h.61v2.07h2.51v-2.07h.62v4.9z" stroke="none"/>
                      
            </g>
                
            <line class="hi" id="mol1bnd2" stroke="#FF0D0D" x1="10.4" x2="15.36" y1="6.77" y2="3.905"/>
            <line class="hi" id="mol1bnd2" stroke="#FF0D0D" x1="10.4" x2="15.36" y1="6.77" y2="3.905"/>
        </g>
          
    </g>
    
</svg>
