<svg xmlns="http://www.w3.org/2000/svg" xmlns:xlink="http://www.w3.org/1999/xlink" height="48.05mm" version="1.2" viewBox="0 0 111.99 48.05" width="111.99mm">
      
    <desc>Generated by the Chemistry Development Kit (http://github.com/cdk)</desc>
      
    <g fill="#1FF01F" stroke="#000000" stroke-linecap="round" stroke-linejoin="round" stroke-width=".7">
            
        <rect fill="#FFFFFF" height="49.0" stroke="none" width="112.0" x=".0" y=".0"/>
            
        <g class="mol" id="mol1">
                  
            <line class="bond" id="mol1bnd1" x1="58.15" x2="58.15" y1="39.39" y2="24.15"/>
                  
            <line class="bond" id="mol1bnd2" x1="58.15" x2="71.35" y1="24.15" y2="16.53"/>
                  
            <line class="bond" id="mol1bnd3" x1="71.35" x2="84.55" y1="16.53" y2="24.15"/>
                  
            <g class="bond" id="mol1bnd4">
                        
                <line x1="97.75" x2="84.55" y1="16.52" y2="24.15"/>
                        
                <line x1="97.75" x2="86.99" y1="19.33" y2="25.55"/>
                      
            </g>
                  
            <line class="bond" id="mol1bnd5" x1="97.75" x2="110.95" y1="16.52" y2="24.14"/>
                  
            <g class="bond" id="mol1bnd6">
                        
                <line x1="110.95" x2="110.95" y1="39.39" y2="24.14"/>
                        
                <line x1="108.51" x2="108.51" y1="37.98" y2="25.55"/>
                      
            </g>
                  
            <line class="bond" id="mol1bnd7" x1="110.95" x2="97.74" y1="39.39" y2="47.01"/>
                  
            <g class="bond" id="mol1bnd8">
                        
                <line x1="84.55" x2="97.74" y1="39.39" y2="47.01"/>
                        
                <line x1="86.98" x2="97.74" y1="37.99" y2="44.2"/>
                      
            </g>
                  
            <line class="bond" id="mol1bnd9" x1="84.55" x2="84.55" y1="24.15" y2="39.39"/>
                  
            <line class="bond" id="mol1bnd10" x1="58.15" x2="48.11" y1="24.15" y2="18.35"/>
                  
            <g class="bond" id="mol1bnd11">
                        
                <line x1="41.8" x2="31.76" y1="18.35" y2="24.15"/>
                        
                <line x1="43.02" x2="34.2" y1="20.46" y2="25.55"/>
                      
                <line class="hi" stroke="#3050F8" x1="41.8" x2="36.78" y1="18.35" y2="21.25"/>
                <line class="hi" stroke="#3050F8" x1="43.02" x2="38.61" y1="20.46" y2="23.005000000000003"/>
            </g>
                  
            <path class="bond" d="M31.76 24.15c.24 -.41 .06 -1.06 -.35 -1.3c-.41 -.24 -1.06 -.06 -1.3 .35c-.24 .41 -.89 .59 -1.3 .35c-.41 -.24 -.59 -.89 -.35 -1.3c.24 -.41 .06 -1.06 -.35 -1.3c-.41 -.24 -1.06 -.06 -1.3 .35c-.24 .41 -.89 .59 -1.3 .35c-.41 -.24 -.59 -.89 -.35 -1.3c.24 -.41 .06 -1.06 -.35 -1.3c-.41 -.24 -1.06 -.06 -1.3 .35c-.24 .41 -.89 .59 -1.3 .35c-.41 -.24 -.59 -.89 -.35 -1.3c.24 -.41 .06 -1.06 -.35 -1.3c-.41 -.24 -1.06 -.06 -1.3 .35c-.24 .41 -.89 .59 -1.3 .35c-.41 -.24 -.59 -.89 -.35 -1.3" fill="none" id="mol1bnd12" stroke="#000000" stroke-width=".7"/>
                  
            <line class="bond" id="mol1bnd13" x1="18.56" x2="24.32" y1="16.53" y2="6.56"/>
                  
            <line class="bond" id="mol1bnd14" x1="18.56" x2="6.87" y1="16.53" y2="9.78"/>
                  
            <line class="bond" id="mol1bnd15" x1="18.56" x2="11.94" y1="16.53" y2="27.99"/>
                  
            <path class="atom" d="M46.9 18.98h-.72l-2.62 -4.07h-.03q.01 .24 .03 .6q.02 .36 .02 .73v2.74h-.57v-4.9h.71l2.61 4.05h.03q-.01 -.11 -.02 -.33q-.01 -.22 -.02 -.48q-.01 -.26 -.01 -.48v-2.77h.58v4.9z" fill="#3050F8" id="mol1atm10" stroke="none"/>
                  
            <path class="atom" d="M26.67 1.35q-.79 .0 -1.24 .53q-.45 .52 -.45 1.45q.0 .91 .42 1.45q.42 .53 1.27 .53q.32 .0 .61 -.05q.29 -.06 .57 -.14v.54q-.27 .1 -.57 .15q-.29 .05 -.7 .05q-.74 .0 -1.25 -.31q-.5 -.31 -.75 -.88q-.25 -.57 -.25 -1.34q.0 -.74 .27 -1.31q.27 -.57 .8 -.88q.53 -.32 1.28 -.32q.78 .0 1.35 .29l-.24 .52q-.23 -.1 -.51 -.18q-.27 -.08 -.61 -.08zM29.43 5.77h-.6v-5.21h.6v5.21z" id="mol1atm13" stroke="none"/>
                  
            <path class="atom" d="M2.91 7.09q-.79 .0 -1.24 .53q-.45 .52 -.45 1.45q.0 .91 .42 1.45q.42 .53 1.27 .53q.32 .0 .61 -.05q.29 -.06 .57 -.14v.54q-.27 .1 -.57 .15q-.29 .05 -.7 .05q-.74 .0 -1.25 -.31q-.5 -.31 -.75 -.88q-.25 -.57 -.25 -1.34q.0 -.74 .27 -1.31q.27 -.57 .8 -.88q.53 -.32 1.28 -.32q.78 .0 1.35 .29l-.24 .52q-.23 -.1 -.51 -.18q-.27 -.08 -.61 -.08zM5.66 11.51h-.6v-5.21h.6v5.21z" id="mol1atm14" stroke="none"/>
                  
            <path class="atom" d="M8.48 27.91q-.79 .0 -1.24 .53q-.45 .52 -.45 1.45q.0 .91 .42 1.45q.42 .53 1.27 .53q.32 .0 .61 -.05q.29 -.06 .57 -.14v.54q-.27 .1 -.57 .15q-.29 .05 -.7 .05q-.74 .0 -1.25 -.31q-.5 -.31 -.75 -.88q-.25 -.57 -.25 -1.34q.0 -.74 .27 -1.31q.27 -.57 .8 -.88q.53 -.32 1.28 -.32q.78 .0 1.35 .29l-.24 .52q-.23 -.1 -.51 -.18q-.27 -.08 -.61 -.08zM11.24 32.33h-.6v-5.21h.6v5.21z" id="mol1atm15" stroke="none"/>
                
            <line class="hi" id="mol1bnd10" stroke="#3050F8" x1="48.11" x2="53.129999999999995" y1="18.35" y2="21.25"/>
            <line class="hi" id="mol1bnd13" stroke="#1FF01F" x1="24.32" x2="21.439999999999998" y1="6.559999999999999" y2="11.545"/>
            <line class="hi" id="mol1bnd14" stroke="#1FF01F" x1="6.870000000000001" x2="12.715" y1="9.78" y2="13.155000000000001"/>
            <line class="hi" id="mol1bnd15" stroke="#1FF01F" x1="11.94" x2="15.25" y1="27.99" y2="22.259999999999998"/>
        </g>
          
    </g>
    
</svg>
