<svg xmlns="http://www.w3.org/2000/svg" xmlns:xlink="http://www.w3.org/1999/xlink" height="51.87mm" version="1.2" viewBox="0 0 105.57 51.87" width="105.57mm">
      
    <desc>Generated by the Chemistry Development Kit (http://github.com/cdk)</desc>
      
    <g fill="#FF0D0D" stroke="#000000" stroke-linecap="round" stroke-linejoin="round" stroke-width=".7">
            
        <rect fill="#FFFFFF" height="52.0" stroke="none" width="106.0" x=".0" y=".0"/>
            
        <g class="mol" id="mol1">
                  
            <line class="bond" id="mol1bnd1" x1="104.53" x2="94.68" y1="41.03" y2="46.86"/>
                  
            <line class="bond" id="mol1bnd2" x1="88.12" x2="78.14" y1="46.93" y2="41.32"/>
                  
            <g class="bond" id="mol1bnd3">
                        
                <line x1="78.14" x2="77.83" y1="41.32" y2="25.63"/>
                        
                <line x1="75.67" x2="75.42" y1="39.93" y2="27.08"/>
                      
            </g>
                  
            <line class="bond" id="mol1bnd4" x1="77.83" x2="64.76" y1="25.63" y2="18.31"/>
                  
            <g class="bond" id="mol1bnd5">
                        
                <line x1="64.76" x2="51.59" y1="18.31" y2="25.97"/>
                        
                <line x1="64.78" x2="54.01" y1="21.12" y2="27.38"/>
                      
            </g>
                  
            <line class="bond" id="mol1bnd6" x1="51.59" x2="51.48" y1="25.97" y2="40.95"/>
                  
            <g class="bond" id="mol1bnd7">
                        
                <line x1="51.48" x2="64.96" y1="40.95" y2="48.98"/>
                        
                <line x1="53.93" x2="64.98" y1="39.57" y2="46.15"/>
                      
            </g>
                  
            <line class="bond" id="mol1bnd8" x1="78.14" x2="64.96" y1="41.32" y2="48.98"/>
                  
            <line class="bond" id="mol1bnd9" x1="51.59" x2="38.4" y1="25.97" y2="18.32"/>
                  
            <g class="bond" id="mol1bnd10">
                        
                <line x1="37.18" x2="37.21" y1="19.02" y2="7.0"/>
                        
                <line x1="39.62" x2="39.64" y1="19.03" y2="7.0"/>
                      
                <line class="hi" stroke="#FF0D0D" x1="37.21" x2="37.195" y1="7.0" y2="13.01"/>
                <line class="hi" stroke="#FF0D0D" x1="39.64" x2="39.629999999999995" y1="7.0" y2="13.015"/>
            </g>
                  
            <line class="bond" id="mol1bnd11" x1="38.4" x2="28.34" y1="18.32" y2="24.1"/>
                  
            <line class="bond" id="mol1bnd12" x1="24.78" x2="23.59" y1="29.76" y2="41.03"/>
                  
            <line class="bond" id="mol1bnd13" x1="23.59" x2="8.67" y1="41.03" y2="44.25"/>
                  
            <line class="bond" id="mol1bnd14" x1="8.67" x2="1.05" y1="44.25" y2="31.05"/>
                  
            <line class="bond" id="mol1bnd15" x1="1.05" x2="11.25" y1="31.05" y2="19.65"/>
                  
            <line class="bond" id="mol1bnd16" x1="21.97" x2="11.25" y1="24.47" y2="19.65"/>
                  
            <g class="bond" id="mol1bnd17">
                        
                <line x1="10.24" x2="7.72" y1="20.78" y2="8.89"/>
                        
                <line x1="12.63" x2="10.1" y1="20.27" y2="8.38"/>
                      
                <line class="hi" stroke="#FF0D0D" x1="7.72" x2="8.98" y1="8.89" y2="14.835"/>
                <line class="hi" stroke="#FF0D0D" x1="10.1" x2="11.365" y1="8.38" y2="14.325"/>
            </g>
                  
            <path class="atom" d="M93.68 48.79q.0 .76 -.26 1.33q-.26 .57 -.76 .88q-.5 .32 -1.24 .32q-.76 .0 -1.26 -.32q-.51 -.32 -.76 -.89q-.24 -.57 -.24 -1.33q.0 -.75 .24 -1.31q.25 -.57 .76 -.88q.51 -.32 1.27 -.32q.73 .0 1.23 .32q.5 .31 .76 .88q.26 .57 .26 1.33zM89.82 48.79q.0 .92 .39 1.46q.39 .53 1.22 .53q.84 .0 1.22 -.53q.39 -.54 .39 -1.46q.0 -.93 -.39 -1.45q-.38 -.52 -1.21 -.52q-.83 .0 -1.23 .52q-.39 .52 -.39 1.45z" id="mol1atm2" stroke="none"/>
                  
            <path class="atom" d="M40.69 3.08q.0 .76 -.26 1.33q-.26 .57 -.76 .88q-.5 .32 -1.24 .32q-.76 .0 -1.26 -.32q-.51 -.32 -.76 -.89q-.24 -.57 -.24 -1.33q.0 -.75 .24 -1.31q.25 -.57 .76 -.88q.51 -.32 1.27 -.32q.73 .0 1.23 .32q.5 .31 .76 .88q.26 .57 .26 1.33zM36.83 3.08q.0 .92 .39 1.46q.39 .53 1.22 .53q.84 .0 1.22 -.53q.39 -.54 .39 -1.46q.0 -.93 -.39 -1.45q-.38 -.52 -1.21 -.52q-.83 .0 -1.23 .52q-.39 .52 -.39 1.45z" id="mol1atm10" stroke="none"/>
                  
            <path class="atom" d="M27.13 28.37h-.72l-2.62 -4.07h-.03q.01 .24 .03 .6q.02 .36 .02 .73v2.74h-.57v-4.9h.71l2.61 4.05h.03q-.01 -.11 -.02 -.33q-.01 -.22 -.02 -.48q-.01 -.26 -.01 -.48v-2.77h.58v4.9z" fill="#3050F8" id="mol1atm11" stroke="none"/>
                  
            <path class="atom" d="M10.34 4.74q.0 .76 -.26 1.33q-.26 .57 -.76 .88q-.5 .32 -1.24 .32q-.76 .0 -1.26 -.32q-.51 -.32 -.76 -.89q-.24 -.57 -.24 -1.33q.0 -.75 .24 -1.31q.25 -.57 .76 -.88q.51 -.32 1.27 -.32q.73 .0 1.23 .32q.5 .31 .76 .88q.26 .57 .26 1.33zM6.48 4.74q.0 .92 .39 1.46q.39 .53 1.22 .53q.84 .0 1.22 -.53q.39 -.54 .39 -1.46q.0 -.93 -.39 -1.45q-.38 -.52 -1.21 -.52q-.83 .0 -1.23 .52q-.39 .52 -.39 1.45z" id="mol1atm16" stroke="none"/>
                
            <line class="hi" id="mol1bnd1" stroke="#FF0D0D" x1="94.68" x2="99.605" y1="46.86" y2="43.945"/>
            <line class="hi" id="mol1bnd2" stroke="#FF0D0D" x1="88.12" x2="83.13" y1="46.93" y2="44.125"/>
            <line class="hi" id="mol1bnd11" stroke="#3050F8" x1="28.34" x2="33.37" y1="24.1" y2="21.21"/>
            <line class="hi" id="mol1bnd12" stroke="#3050F8" x1="24.78" x2="24.185000000000002" y1="29.76" y2="35.395"/>
            <line class="hi" id="mol1bnd16" stroke="#3050F8" x1="21.97" x2="16.61" y1="24.47" y2="22.06"/>
        </g>
          
    </g>
    
</svg>
