<svg xmlns="http://www.w3.org/2000/svg" xmlns:xlink="http://www.w3.org/1999/xlink" height="70.53mm" version="1.2" viewBox="0 0 107.67 70.53" width="107.67mm">
      
    <desc>Generated by the Chemistry Development Kit (http://github.com/cdk)</desc>
      
    <g fill="#3050F8" stroke="#000000" stroke-linecap="round" stroke-linejoin="round" stroke-width=".7">
            
        <rect fill="#FFFFFF" height="71.0" stroke="none" width="108.0" x=".0" y=".0"/>
            
        <g class="mol" id="mol1">
                  
            <line class="bond" id="mol1bnd1" x1="14.24" x2="14.25" y1=".91" y2="16.15"/>
                  
            <g class="bond" id="mol1bnd2">
                        
                <line x1="14.25" x2="1.04" y1="16.15" y2="23.78"/>
                        
                <line x1="14.25" x2="3.48" y1="18.97" y2="25.19"/>
                      
            </g>
                  
            <line class="bond" id="mol1bnd3" x1="1.04" x2="1.04" y1="23.78" y2="39.03"/>
                  
            <g class="bond" id="mol1bnd4">
                        
                <line x1="1.04" x2="14.24" y1="39.03" y2="46.65"/>
                        
                <line x1="3.48" x2="14.24" y1="37.62" y2="43.83"/>
                      
            </g>
                  
            <line class="bond" id="mol1bnd5" x1="14.24" x2="27.44" y1="46.65" y2="39.02"/>
                  
            <g class="bond" id="mol1bnd6">
                        
                <line x1="27.44" x2="27.44" y1="39.02" y2="23.77"/>
                        
                <line x1="25.0" x2="25.01" y1="37.61" y2="25.18"/>
                      
            </g>
                  
            <line class="bond" id="mol1bnd7" x1="14.25" x2="27.44" y1="16.15" y2="23.77"/>
                  
            <line class="bond" id="mol1bnd8" x1="27.44" x2="37.36" y1="23.77" y2="18.05"/>
                  
            <g class="bond" id="mol1bnd9">
                        
                <line stroke="#000000" x1="53.67" x2="54.02" y1="24.08" y2="23.47"/>
                        
                <line stroke="#FF0D0D" x1="51.32" x2="51.96" y1="23.06" y2="21.95"/>
                        
                <line stroke="#FF0D0D" x1="48.97" x2="49.91" y1="22.04" y2="20.43"/>
                        
                <line stroke="#FF0D0D" x1="46.63" x2="47.86" y1="21.02" y2="18.9"/>
                        
                <line stroke="#FF0D0D" x1="44.28" x2="45.8" y1="20.01" y2="17.38"/>
                      
            </g>
                  
            <line class="bond" id="mol1bnd10" x1="53.84" x2="67.04" y1="23.77" y2="16.16"/>
                  
            <line class="bond" id="mol1bnd11" x1="67.04" x2="80.24" y1="16.16" y2="23.78"/>
                  
            <line class="bond" id="mol1bnd12" x1="80.24" x2="90.28" y1="23.78" y2="17.98"/>
                  
            <line class="bond" id="mol1bnd13" x1="96.59" x2="106.63" y1="17.98" y2="23.78"/>
                  
            <line class="bond" id="mol1bnd14" x1="53.84" x2="53.84" y1="23.77" y2="39.01"/>
                  
            <g class="bond" id="mol1bnd15">
                        
                <line x1="67.05" x2="53.84" y1="46.64" y2="39.01"/>
                        
                <line x1="64.61" x2="53.84" y1="48.04" y2="41.83"/>
                      
            </g>
                  
            <line class="bond" id="mol1bnd16" x1="67.05" x2="67.04" y1="46.64" y2="61.88"/>
                  
            <g class="bond" id="mol1bnd17">
                        
                <line x1="53.83" x2="67.04" y1="69.49" y2="61.88"/>
                        
                <line x1="53.83" x2="64.6" y1="66.68" y2="60.47"/>
                      
            </g>
                  
            <line class="bond" id="mol1bnd18" x1="53.83" x2="40.63" y1="69.49" y2="61.87"/>
                  
            <g class="bond" id="mol1bnd19">
                        
                <line x1="40.63" x2="40.63" y1="46.63" y2="61.87"/>
                        
                <line x1="43.07" x2="43.07" y1="48.04" y2="60.46"/>
                      
            </g>
                  
            <line class="bond" id="mol1bnd20" x1="53.84" x2="40.63" y1="39.01" y2="46.63"/>
                  
            <path class="atom" d="M42.9 16.15q.0 .76 -.26 1.33q-.26 .57 -.76 .88q-.5 .32 -1.24 .32q-.76 .0 -1.26 -.32q-.51 -.32 -.76 -.89q-.24 -.57 -.24 -1.33q.0 -.75 .24 -1.31q.25 -.57 .76 -.88q.51 -.32 1.27 -.32q.73 .0 1.23 .32q.5 .31 .76 .88q.26 .57 .26 1.33zM39.04 16.15q.0 .92 .39 1.46q.39 .53 1.22 .53q.84 .0 1.22 -.53q.39 -.54 .39 -1.46q.0 -.93 -.39 -1.45q-.38 -.52 -1.21 -.52q-.83 .0 -1.23 .52q-.39 .52 -.39 1.45z" fill="#FF0D0D" id="mol1atm8" stroke="none"/>
                  
            <g class="atom" id="mol1atm12">
                        
                <path d="M95.38 18.61h-.72l-2.62 -4.07h-.03q.01 .24 .03 .6q.02 .36 .02 .73v2.74h-.57v-4.9h.71l2.61 4.05h.03q-.01 -.11 -.02 -.33q-.01 -.22 -.02 -.48q-.01 -.26 -.01 -.48v-2.77h.58v4.9z" stroke="none"/>
                        
                <path d="M95.24 13.15h-.62v-2.29h-2.51v2.29h-.61v-4.9h.61v2.07h2.51v-2.07h.62v4.9z" stroke="none"/>
                      
            </g>
                
            <line class="hi" id="mol1bnd8" stroke="#FF0D0D" x1="37.36" x2="32.4" y1="18.05" y2="20.91"/>
            <line class="hi" id="mol1bnd12" stroke="#3050F8" x1="90.28" x2="85.25999999999999" y1="17.98" y2="20.880000000000003"/>
            <line class="hi" id="mol1bnd12" stroke="#3050F8" x1="90.28" x2="85.25999999999999" y1="17.98" y2="20.880000000000003"/>
            <line class="hi" id="mol1bnd13" stroke="#3050F8" x1="96.59" x2="101.61" y1="17.98" y2="20.880000000000003"/>
            <line class="hi" id="mol1bnd13" stroke="#3050F8" x1="96.59" x2="101.61" y1="17.98" y2="20.880000000000003"/>
        </g>
          
    </g>
    
</svg>
