<svg xmlns="http://www.w3.org/2000/svg" xmlns:xlink="http://www.w3.org/1999/xlink" height="57.27mm" version="1.2" viewBox="0 0 68.29 57.27" width="68.29mm">
      
    <desc>Generated by the Chemistry Development Kit (http://github.com/cdk)</desc>
      
    <g fill="#3050F8" stroke="#000000" stroke-linecap="round" stroke-linejoin="round" stroke-width=".7">
            
        <rect fill="#FFFFFF" height="58.0" stroke="none" width="69.0" x=".0" y=".0"/>
            
        <g class="mol" id="mol1">
                  
            <line class="bond" id="mol1bnd1" x1="1.05" x2="10.85" y1="40.36" y2="28.69"/>
                  
            <line class="bond" id="mol1bnd2" x1="10.85" x2="25.86" y1="28.69" y2="31.33"/>
                  
            <line class="bond" id="mol1bnd3" x1="25.86" x2="25.86" y1="31.33" y2="16.09"/>
                  
            <g class="bond" id="mol1bnd4">
                        
                <line x1="25.86" x2="15.33" y1="17.5" y2="11.42"/>
                        
                <line x1="27.08" x2="16.54" y1="15.39" y2="9.3"/>
                      
                <line class="hi" stroke="#FF0D0D" x1="15.33" x2="20.595" y1="11.42" y2="14.46"/>
                <line class="hi" stroke="#FF0D0D" x1="16.54" x2="21.81" y1="9.3" y2="12.345"/>
            </g>
                  
            <line class="bond" id="mol1bnd5" x1="25.86" x2="35.91" y1="16.09" y2="10.29"/>
                  
            <line class="bond" id="mol1bnd6" x1="42.22" x2="52.27" y1="10.29" y2="16.09"/>
                  
            <g class="bond" id="mol1bnd7">
                        
                <line x1="51.05" x2="61.58" y1="15.39" y2="9.31"/>
                        
                <line x1="52.27" x2="62.8" y1="17.5" y2="11.42"/>
                      
                <line class="hi" stroke="#FF0D0D" x1="61.58" x2="56.315" y1="9.31" y2="12.350000000000001"/>
                <line class="hi" stroke="#FF0D0D" x1="62.8" x2="57.535" y1="11.42" y2="14.46"/>
            </g>
                  
            <line class="bond" id="mol1bnd8" x1="52.27" x2="52.27" y1="16.09" y2="27.48"/>
                  
            <line class="bond" id="mol1bnd9" x1="49.12" x2="39.06" y1="33.15" y2="38.95"/>
                  
            <line class="bond" id="mol1bnd10" x1="25.86" x2="39.06" y1="31.33" y2="38.95"/>
                  
            <g class="bond" id="mol1bnd11">
                        
                <line x1="40.28" x2="40.28" y1="38.25" y2="50.27"/>
                        
                <line x1="37.85" x2="37.85" y1="38.25" y2="50.27"/>
                      
                <line class="hi" stroke="#FF0D0D" x1="40.28" x2="40.28" y1="50.27" y2="44.260000000000005"/>
                <line class="hi" stroke="#FF0D0D" x1="37.85" x2="37.85" y1="50.27" y2="44.260000000000005"/>
            </g>
                  
            <line class="bond" id="mol1bnd12" x1="25.86" x2="20.65" y1="31.33" y2="45.65"/>
                  
            <line class="bond" id="mol1bnd13" x1="20.65" x2="5.64" y1="45.65" y2="48.3"/>
                  
            <path class="atom" d="M14.92 8.47q.0 .76 -.26 1.33q-.26 .57 -.76 .88q-.5 .32 -1.24 .32q-.76 .0 -1.26 -.32q-.51 -.32 -.76 -.89q-.24 -.57 -.24 -1.33q.0 -.75 .24 -1.31q.25 -.57 .76 -.88q.51 -.32 1.27 -.32q.73 .0 1.23 .32q.5 .31 .76 .88q.26 .57 .26 1.33zM11.06 8.47q.0 .92 .39 1.46q.39 .53 1.22 .53q.84 .0 1.22 -.53q.39 -.54 .39 -1.46q.0 -.93 -.39 -1.45q-.38 -.52 -1.21 -.52q-.83 .0 -1.23 .52q-.39 .52 -.39 1.45z" fill="#FF0D0D" id="mol1atm5" stroke="none"/>
                  
            <g class="atom" id="mol1atm6">
                        
                <path d="M41.01 10.92h-.72l-2.62 -4.07h-.03q.01 .24 .03 .6q.02 .36 .02 .73v2.74h-.57v-4.9h.71l2.61 4.05h.03q-.01 -.11 -.02 -.33q-.01 -.22 -.02 -.48q-.01 -.26 -.01 -.48v-2.77h.58v4.9z" stroke="none"/>
                        
                <path d="M40.87 5.46h-.62v-2.29h-2.51v2.29h-.61v-4.9h.61v2.07h2.51v-2.07h.62v4.9z" stroke="none"/>
                      
            </g>
                  
            <path class="atom" d="M67.73 8.47q.0 .76 -.26 1.33q-.26 .57 -.76 .88q-.5 .32 -1.24 .32q-.76 .0 -1.26 -.32q-.51 -.32 -.76 -.89q-.24 -.57 -.24 -1.33q.0 -.75 .24 -1.31q.25 -.57 .76 -.88q.51 -.32 1.27 -.32q.73 .0 1.23 .32q.5 .31 .76 .88q.26 .57 .26 1.33zM63.87 8.47q.0 .92 .39 1.46q.39 .53 1.22 .53q.84 .0 1.22 -.53q.39 -.54 .39 -1.46q.0 -.93 -.39 -1.45q-.38 -.52 -1.21 -.52q-.83 .0 -1.23 .52q-.39 .52 -.39 1.45z" fill="#FF0D0D" id="mol1atm8" stroke="none"/>
                  
            <g class="atom" id="mol1atm9">
                        
                <path d="M54.21 33.78h-.72l-2.62 -4.07h-.03q.01 .24 .03 .6q.02 .36 .02 .73v2.74h-.57v-4.9h.71l2.61 4.05h.03q-.01 -.11 -.02 -.33q-.01 -.22 -.02 -.48q-.01 -.26 -.01 -.48v-2.77h.58v4.9z" stroke="none"/>
                        
                <path d="M58.52 33.78h-.62v-2.29h-2.51v2.29h-.61v-4.9h.61v2.07h2.51v-2.07h.62v4.9z" stroke="none"/>
                      
            </g>
                  
            <path class="atom" d="M41.32 54.19q.0 .76 -.26 1.33q-.26 .57 -.76 .88q-.5 .32 -1.24 .32q-.76 .0 -1.26 -.32q-.51 -.32 -.76 -.89q-.24 -.57 -.24 -1.33q.0 -.75 .24 -1.31q.25 -.57 .76 -.88q.51 -.32 1.27 -.32q.73 .0 1.23 .32q.5 .31 .76 .88q.26 .57 .26 1.33zM37.46 54.19q.0 .92 .39 1.46q.39 .53 1.22 .53q.84 .0 1.22 -.53q.39 -.54 .39 -1.46q.0 -.93 -.39 -1.45q-.38 -.52 -1.21 -.52q-.83 .0 -1.23 .52q-.39 .52 -.39 1.45z" fill="#FF0D0D" id="mol1atm11" stroke="none"/>
                
            <line class="hi" id="mol1bnd5" stroke="#3050F8" x1="35.91" x2="30.884999999999998" y1="10.29" y2="13.19"/>
            <line class="hi" id="mol1bnd5" stroke="#3050F8" x1="35.91" x2="30.884999999999998" y1="10.29" y2="13.19"/>
            <line class="hi" id="mol1bnd6" stroke="#3050F8" x1="42.22" x2="47.245000000000005" y1="10.29" y2="13.19"/>
            <line class="hi" id="mol1bnd6" stroke="#3050F8" x1="42.22" x2="47.245000000000005" y1="10.29" y2="13.19"/>
            <line class="hi" id="mol1bnd8" stroke="#3050F8" x1="52.27" x2="52.27" y1="27.48" y2="21.785"/>
            <line class="hi" id="mol1bnd9" stroke="#3050F8" x1="49.12" x2="44.09" y1="33.15" y2="36.05"/>
        </g>
          
    </g>
    
</svg>
