<svg xmlns="http://www.w3.org/2000/svg" xmlns:xlink="http://www.w3.org/1999/xlink" height="139.46mm" version="1.2" viewBox="0 0 101.87 139.46" width="101.87mm">
      
    <desc>Generated by the Chemistry Development Kit (http://github.com/cdk)</desc>
      
    <g fill="#3050F8" stroke="#000000" stroke-linecap="round" stroke-linejoin="round" stroke-width=".7">
            
        <rect fill="#FFFFFF" height="140.0" stroke="none" width="102.0" x=".0" y=".0"/>
            
        <g class="mol" id="mol1">
                  
            <line class="bond" id="mol1bnd1" x1="100.9" x2="89.3" y1="130.22" y2="127.77"/>
                  
            <line class="bond" id="mol1bnd2" x1="83.11" x2="75.8" y1="130.27" y2="138.4"/>
                  
            <line class="bond" id="mol1bnd3" x1="84.75" x2="81.26" y1="123.29" y2="112.58"/>
                  
            <line class="bond" id="mol1bnd4" x1="81.26" x2="66.35" y1="112.58" y2="109.43"/>
                  
            <line class="bond" id="mol1bnd5" x1="66.35" x2="61.62" y1="109.43" y2="94.94"/>
                  
            <line class="bond" id="mol1bnd6" x1="61.62" x2="50.34" y1="94.94" y2="92.56"/>
                  
            <line class="bond" id="mol1bnd7" x1="45.46" x2="41.98" y1="87.97" y2="77.3"/>
                  
            <g class="bond" id="mol1bnd8">
                        
                <line x1="41.98" x2="48.32" y1="77.3" y2="68.59"/>
                        
                <line x1="41.05" x2="46.35" y1="74.44" y2="67.16"/>
                      
                <line class="hi" stroke="#3050F8" x1="48.32" x2="45.15" y1="68.59" y2="72.945"/>
                <line class="hi" stroke="#3050F8" x1="46.35" x2="43.7" y1="67.16" y2="70.8"/>
            </g>
                  
            <line class="bond" id="mol1bnd9" x1="48.32" x2="44.59" y1="61.43" y2="56.3"/>
                  
            <line class="bond" id="mol1bnd10" x1="38.71" x2="27.45" y1="53.77" y2="57.39"/>
                  
            <g class="bond" id="mol1bnd11">
                        
                <line x1="27.45" x2="14.25" y1="57.39" y2="49.77"/>
                        
                <line x1="25.02" x2="14.25" y1="58.8" y2="52.58"/>
                      
            </g>
                  
            <line class="bond" id="mol1bnd12" x1="14.25" x2="1.04" y1="49.77" y2="57.39"/>
                  
            <g class="bond" id="mol1bnd13">
                        
                <line x1="1.04" x2="1.04" y1="57.39" y2="72.63"/>
                        
                <line x1="3.48" x2="3.48" y1="58.8" y2="71.22"/>
                      
            </g>
                  
            <line class="bond" id="mol1bnd14" x1="1.04" x2="14.25" y1="72.63" y2="80.25"/>
                  
            <g class="bond" id="mol1bnd15">
                        
                <line x1="14.25" x2="27.45" y1="80.25" y2="72.63"/>
                        
                <line x1="14.25" x2="25.02" y1="77.43" y2="71.22"/>
                      
            </g>
                  
            <line class="bond" id="mol1bnd16" x1="27.45" x2="27.45" y1="57.39" y2="72.63"/>
                  
            <line class="bond" id="mol1bnd17" x1="41.98" x2="27.45" y1="77.3" y2="72.63"/>
                  
            <line class="bond" id="mol1bnd18" x1="43.22" x2="46.71" y1="48.93" y2="38.23"/>
                  
            <line class="bond" id="mol1bnd19" x1="46.71" x2="36.53" y1="38.23" y2="26.89"/>
                  
            <g class="bond" id="mol1bnd20">
                        
                <line x1="21.61" x2="36.53" y1="30.04" y2="26.89"/>
                        
                <line x1="22.48" x2="34.65" y1="27.37" y2="24.79"/>
                      
            </g>
                  
            <line class="bond" id="mol1bnd21" x1="21.61" x2="11.42" y1="30.04" y2="18.71"/>
                  
            <g class="bond" id="mol1bnd22">
                        
                <line x1="16.16" x2="11.42" y1="4.21" y2="18.71"/>
                        
                <line x1="18.04" x2="14.18" y1="6.31" y2="18.12"/>
                      
            </g>
                  
            <line class="bond" id="mol1bnd23" x1="16.16" x2="31.08" y1="4.21" y2="1.05"/>
                  
            <g class="bond" id="mol1bnd24">
                        
                <line x1="41.26" x2="31.08" y1="12.39" y2="1.05"/>
                        
                <line x1="38.51" x2="30.2" y1="12.97" y2="3.73"/>
                      
            </g>
                  
            <line class="bond" id="mol1bnd25" x1="36.53" x2="41.26" y1="26.89" y2="12.39"/>
                  
            <path class="atom" d="M87.93 129.52h-.72l-2.62 -4.07h-.03q.01 .24 .03 .6q.02 .36 .02 .73v2.74h-.57v-4.9h.71l2.61 4.05h.03q-.01 -.11 -.02 -.33q-.01 -.22 -.02 -.48q-.01 -.26 -.01 -.48v-2.77h.58v4.9z" id="mol1atm2" stroke="none"/>
                  
            <path class="atom" d="M48.97 91.79q.0 .76 -.26 1.33q-.26 .57 -.76 .88q-.5 .32 -1.24 .32q-.76 .0 -1.26 -.32q-.51 -.32 -.76 -.89q-.24 -.57 -.24 -1.33q.0 -.75 .24 -1.31q.25 -.57 .76 -.88q.51 -.32 1.27 -.32q.73 .0 1.23 .32q.5 .31 .76 .88q.26 .57 .26 1.33zM45.11 91.79q.0 .92 .39 1.46q.39 .53 1.22 .53q.84 .0 1.22 -.53q.39 -.54 .39 -1.46q.0 -.93 -.39 -1.45q-.38 -.52 -1.21 -.52q-.83 .0 -1.23 .52q-.39 .52 -.39 1.45z" fill="#FF0D0D" id="mol1atm7" stroke="none"/>
                  
            <path class="atom" d="M52.86 67.46h-.72l-2.62 -4.07h-.03q.01 .24 .03 .6q.02 .36 .02 .73v2.74h-.57v-4.9h.71l2.61 4.05h.03q-.01 -.11 -.02 -.33q-.01 -.22 -.02 -.48q-.01 -.26 -.01 -.48v-2.77h.58v4.9z" id="mol1atm9" stroke="none"/>
                  
            <path class="atom" d="M43.92 55.16h-.72l-2.62 -4.07h-.03q.01 .24 .03 .6q.02 .36 .02 .73v2.74h-.57v-4.9h.71l2.61 4.05h.03q-.01 -.11 -.02 -.33q-.01 -.22 -.02 -.48q-.01 -.26 -.01 -.48v-2.77h.58v4.9z" id="mol1atm10" stroke="none"/>
                
            <line class="hi" id="mol1bnd1" stroke="#3050F8" x1="89.3" x2="95.1" y1="127.77" y2="128.995"/>
            <line class="hi" id="mol1bnd2" stroke="#3050F8" x1="83.11" x2="79.455" y1="130.27" y2="134.335"/>
            <line class="hi" id="mol1bnd3" stroke="#3050F8" x1="84.75" x2="83.005" y1="123.29" y2="117.935"/>
            <line class="hi" id="mol1bnd6" stroke="#FF0D0D" x1="50.34" x2="55.980000000000004" y1="92.56" y2="93.75"/>
            <line class="hi" id="mol1bnd7" stroke="#FF0D0D" x1="45.46" x2="43.72" y1="87.97" y2="82.63499999999999"/>
            <line class="hi" id="mol1bnd9" stroke="#3050F8" x1="48.32" x2="46.455" y1="61.43" y2="58.864999999999995"/>
            <line class="hi" id="mol1bnd9" stroke="#3050F8" x1="44.59" x2="46.455" y1="56.3" y2="58.864999999999995"/>
            <line class="hi" id="mol1bnd10" stroke="#3050F8" x1="38.71" x2="33.08" y1="53.77" y2="55.58"/>
            <line class="hi" id="mol1bnd18" stroke="#3050F8" x1="43.22" x2="44.965" y1="48.93" y2="43.58"/>
        </g>
          
    </g>
    
</svg>
