<svg xmlns="http://www.w3.org/2000/svg" xmlns:xlink="http://www.w3.org/1999/xlink" height="70.53mm" version="1.2" viewBox="0 0 102.76 70.53" width="102.76mm">
      
    <desc>Generated by the Chemistry Development Kit (http://github.com/cdk)</desc>
      
    <g fill="#FF0D0D" stroke="#000000" stroke-linecap="round" stroke-linejoin="round" stroke-width=".7">
            
        <rect fill="#FFFFFF" height="71.0" stroke="none" width="103.0" x=".0" y=".0"/>
            
        <g class="mol" id="mol1">
                  
            <line class="bond" id="mol1bnd1" x1="14.24" x2="27.43" y1="16.15" y2="23.77"/>
                  
            <g class="bond" id="mol1bnd2">
                        
                <line x1="40.64" x2="27.43" y1="16.15" y2="23.77"/>
                        
                <line x1="40.64" x2="29.87" y1="18.97" y2="25.18"/>
                      
            </g>
                  
            <line class="bond" id="mol1bnd3" x1="40.64" x2="53.85" y1="16.15" y2="23.77"/>
                  
            <g class="bond" id="mol1bnd4">
                        
                <line x1="53.85" x2="53.85" y1="39.01" y2="23.77"/>
                        
                <line x1="51.41" x2="51.41" y1="37.6" y2="25.18"/>
                      
            </g>
                  
            <line class="bond" id="mol1bnd5" x1="53.85" x2="40.64" y1="39.01" y2="46.63"/>
                  
            <g class="bond" id="mol1bnd6">
                        
                <line x1="27.43" x2="40.64" y1="39.01" y2="46.63"/>
                        
                <line x1="29.87" x2="40.64" y1="37.6" y2="43.82"/>
                      
            </g>
                  
            <line class="bond" id="mol1bnd7" x1="27.43" x2="27.43" y1="23.77" y2="39.01"/>
                  
            <line class="bond" id="mol1bnd8" x1="27.43" x2="17.52" y1="39.01" y2="44.74"/>
                  
            <line class="bond" id="mol1bnd9" x1="10.95" x2="1.04" y1="44.74" y2="39.02"/>
                  
            <line class="bond" id="mol1bnd10" x1="53.85" x2="67.05" y1="39.01" y2="46.63"/>
                  
            <line class="bond" id="mol1bnd11" x1="67.05" x2="80.25" y1="46.63" y2="39.02"/>
                  
            <line class="bond" id="mol1bnd12" x1="80.25" x2="90.29" y1="39.02" y2="44.82"/>
                  
            <line class="bond" id="mol1bnd13" x1="67.05" x2="67.05" y1="46.63" y2="57.95"/>
                  
            <line class="bond" id="mol1bnd14" x1="70.32" x2="80.24" y1="63.77" y2="69.5"/>
                  
            <line class="bond" id="mol1bnd15" x1="53.85" x2="63.77" y1="23.77" y2="18.04"/>
                  
            <line class="bond" id="mol1bnd16" x1="67.05" x2="67.05" y1="12.23" y2=".91"/>
                  
            <path class="atom" d="M16.5 46.63q.0 .76 -.26 1.33q-.26 .57 -.76 .88q-.5 .32 -1.24 .32q-.76 .0 -1.26 -.32q-.51 -.32 -.76 -.89q-.24 -.57 -.24 -1.33q.0 -.75 .24 -1.31q.25 -.57 .76 -.88q.51 -.32 1.27 -.32q.73 .0 1.23 .32q.5 .31 .76 .88q.26 .57 .26 1.33zM12.63 46.63q.0 .92 .39 1.46q.39 .53 1.22 .53q.84 .0 1.22 -.53q.39 -.54 .39 -1.46q.0 -.93 -.39 -1.45q-.38 -.52 -1.21 -.52q-.83 .0 -1.23 .52q-.39 .52 -.39 1.45z" id="mol1atm8" stroke="none"/>
                  
            <g class="atom" id="mol1atm12">
                        
                <path d="M95.38 49.09h-.72l-2.62 -4.07h-.03q.01 .24 .03 .6q.02 .36 .02 .73v2.74h-.57v-4.9h.71l2.61 4.05h.03q-.01 -.11 -.02 -.33q-.01 -.22 -.02 -.48q-.01 -.26 -.01 -.48v-2.77h.58v4.9z" fill="#3050F8" stroke="none"/>
                        
                <path d="M99.69 49.09h-.62v-2.29h-2.51v2.29h-.61v-4.9h.61v2.07h2.51v-2.07h.62v4.9z" fill="#3050F8" stroke="none"/>
                        
                <path d="M102.2 50.58h-1.94v-.3l.77 -.78q.22 -.22 .37 -.39q.15 -.18 .23 -.34q.08 -.17 .08 -.36q.0 -.24 -.15 -.37q-.14 -.13 -.37 -.13q-.21 .0 -.38 .08q-.16 .08 -.33 .21l-.19 -.24q.17 -.15 .39 -.25q.23 -.1 .51 -.1q.41 .0 .65 .21q.24 .21 .24 .58q.0 .23 -.1 .43q-.09 .2 -.26 .4q-.17 .2 -.39 .42l-.61 .6v.02h1.49v.33z" fill="#3050F8" stroke="none"/>
                      
            </g>
                  
            <path class="atom" d="M69.3 61.87q.0 .76 -.26 1.33q-.26 .57 -.76 .88q-.5 .32 -1.24 .32q-.76 .0 -1.26 -.32q-.51 -.32 -.76 -.89q-.24 -.57 -.24 -1.33q.0 -.75 .24 -1.31q.25 -.57 .76 -.88q.51 -.32 1.27 -.32q.73 .0 1.23 .32q.5 .31 .76 .88q.26 .57 .26 1.33zM65.44 61.87q.0 .92 .39 1.46q.39 .53 1.22 .53q.84 .0 1.22 -.53q.39 -.54 .39 -1.46q.0 -.93 -.39 -1.45q-.38 -.52 -1.21 -.52q-.83 .0 -1.23 .52q-.39 .52 -.39 1.45z" id="mol1atm13" stroke="none"/>
                  
            <path class="atom" d="M69.31 16.15q.0 .76 -.26 1.33q-.26 .57 -.76 .88q-.5 .32 -1.24 .32q-.76 .0 -1.26 -.32q-.51 -.32 -.76 -.89q-.24 -.57 -.24 -1.33q.0 -.75 .24 -1.31q.25 -.57 .76 -.88q.51 -.32 1.27 -.32q.73 .0 1.23 .32q.5 .31 .76 .88q.26 .57 .26 1.33zM65.44 16.15q.0 .92 .39 1.46q.39 .53 1.22 .53q.84 .0 1.22 -.53q.39 -.54 .39 -1.46q.0 -.93 -.39 -1.45q-.38 -.52 -1.21 -.52q-.83 .0 -1.23 .52q-.39 .52 -.39 1.45z" id="mol1atm15" stroke="none"/>
                
            <line class="hi" id="mol1bnd8" stroke="#FF0D0D" x1="17.52" x2="22.475" y1="44.74" y2="41.875"/>
            <line class="hi" id="mol1bnd9" stroke="#FF0D0D" x1="10.95" x2="5.994999999999999" y1="44.74" y2="41.88"/>
            <line class="hi" id="mol1bnd12" stroke="#3050F8" x1="90.29" x2="85.27000000000001" y1="44.82" y2="41.92"/>
            <line class="hi" id="mol1bnd13" stroke="#FF0D0D" x1="67.05" x2="67.05" y1="57.95" y2="52.290000000000006"/>
            <line class="hi" id="mol1bnd14" stroke="#FF0D0D" x1="70.32" x2="75.28" y1="63.77" y2="66.635"/>
            <line class="hi" id="mol1bnd15" stroke="#FF0D0D" x1="63.77" x2="58.81" y1="18.04" y2="20.905"/>
            <line class="hi" id="mol1bnd16" stroke="#FF0D0D" x1="67.05" x2="67.05" y1="12.23" y2="6.57"/>
        </g>
          
    </g>
    
</svg>
