<svg xmlns="http://www.w3.org/2000/svg" xmlns:xlink="http://www.w3.org/1999/xlink" height="101.14mm" version="1.2" viewBox="0 0 160.46 101.14" width="160.46mm">
      
    <desc>Generated by the Chemistry Development Kit (http://github.com/cdk)</desc>
      
    <g fill="#3050F8" stroke="#000000" stroke-linecap="round" stroke-linejoin="round" stroke-width=".7">
            
        <rect fill="#FFFFFF" height="102.0" stroke="none" width="161.0" x=".0" y=".0"/>
            
        <g class="mol" id="mol1">
                  
            <line class="bond" id="mol1bnd1" x1="1.04" x2="14.24" y1="46.76" y2="54.38"/>
                  
            <line class="bond" id="mol1bnd2" x1="14.24" x2="27.43" y1="54.38" y2="46.76"/>
                  
            <line class="bond" id="mol1bnd3" x1="27.43" x2="40.63" y1="46.76" y2="54.38"/>
                  
            <g class="bond" id="mol1bnd4">
                        
                <line x1="41.85" x2="41.85" y1="53.67" y2="65.7"/>
                        
                <line x1="39.41" x2="39.41" y1="53.67" y2="65.7"/>
                      
                <line class="hi" stroke="#FF0D0D" x1="41.85" x2="41.85" y1="65.7" y2="59.685"/>
                <line class="hi" stroke="#FF0D0D" x1="39.41" x2="39.41" y1="65.7" y2="59.685"/>
            </g>
                  
            <line class="bond" id="mol1bnd5" x1="40.63" x2="50.68" y1="54.38" y2="48.58"/>
                  
            <line class="bond" id="mol1bnd6" x1="56.98" x2="67.03" y1="48.58" y2="54.38"/>
                  
            <line class="bond" id="mol1bnd7" x1="67.03" x2="67.02" y1="54.38" y2="69.63"/>
                  
            <line class="bond" id="mol1bnd8" x1="67.02" x2="80.22" y1="69.63" y2="77.25"/>
                  
            <line class="bond" id="mol1bnd9" x1="80.22" x2="90.27" y1="77.25" y2="71.44"/>
                  
            <line class="bond" id="mol1bnd10" x1="93.43" x2="93.43" y1="65.77" y2="54.37"/>
                  
            <line class="bond" id="mol1bnd11" x1="93.43" x2="80.23" y1="54.37" y2="46.75"/>
                  
            <line class="bond" id="mol1bnd12" x1="67.03" x2="80.23" y1="54.38" y2="46.75"/>
                  
            <line class="bond" id="mol1bnd13" x1="96.58" x2="106.62" y1="71.44" y2="77.24"/>
                  
            <line class="bond" id="mol1bnd14" x1="106.62" x2="119.82" y1="77.24" y2="69.62"/>
                  
            <line class="bond" id="mol1bnd15" x1="119.82" x2="133.02" y1="69.62" y2="77.24"/>
                  
            <g class="bond" id="mol1bnd16">
                        
                <line x1="146.22" x2="133.02" y1="69.61" y2="77.24"/>
                        
                <line x1="146.22" x2="135.46" y1="72.43" y2="78.65"/>
                      
            </g>
                  
            <line class="bond" id="mol1bnd17" x1="146.22" x2="159.42" y1="69.61" y2="77.23"/>
                  
            <g class="bond" id="mol1bnd18">
                        
                <line x1="159.42" x2="159.42" y1="92.48" y2="77.23"/>
                        
                <line x1="156.98" x2="156.98" y1="91.07" y2="78.64"/>
                      
            </g>
                  
            <line class="bond" id="mol1bnd19" x1="159.42" x2="146.21" y1="92.48" y2="100.11"/>
                  
            <g class="bond" id="mol1bnd20">
                        
                <line x1="133.02" x2="146.21" y1="92.49" y2="100.11"/>
                        
                <line x1="135.45" x2="146.21" y1="91.08" y2="97.29"/>
                      
            </g>
                  
            <line class="bond" id="mol1bnd21" x1="133.02" x2="133.02" y1="77.24" y2="92.49"/>
                  
            <line class="bond" id="mol1bnd22" x1="53.83" x2="53.83" y1="42.91" y2="31.52"/>
                  
            <g class="bond" id="mol1bnd23">
                        
                <line x1="53.83" x2="67.04" y1="31.52" y2="23.9"/>
                        
                <line x1="53.83" x2="64.6" y1="28.7" y2="22.49"/>
                      
            </g>
                  
            <line class="bond" id="mol1bnd24" x1="67.04" x2="67.04" y1="23.9" y2="8.66"/>
                  
            <g class="bond" id="mol1bnd25">
                        
                <line x1="67.04" x2="53.83" y1="8.66" y2="1.04"/>
                        
                <line x1="64.6" x2="53.83" y1="10.07" y2="3.85"/>
                      
            </g>
                  
            <line class="bond" id="mol1bnd26" x1="53.83" x2="40.62" y1="1.04" y2="8.66"/>
                  
            <g class="bond" id="mol1bnd27">
                        
                <line x1="40.62" x2="40.62" y1="8.66" y2="23.9"/>
                        
                <line x1="43.06" x2="43.06" y1="10.07" y2="22.49"/>
                      
            </g>
                  
            <line class="bond" id="mol1bnd28" x1="53.83" x2="40.62" y1="31.52" y2="23.9"/>
                  
            <path class="atom" d="M42.89 69.62q.0 .76 -.26 1.33q-.26 .57 -.76 .88q-.5 .32 -1.24 .32q-.76 .0 -1.26 -.32q-.51 -.32 -.76 -.89q-.24 -.57 -.24 -1.33q.0 -.75 .24 -1.31q.25 -.57 .76 -.88q.51 -.32 1.27 -.32q.73 .0 1.23 .32q.5 .31 .76 .88q.26 .57 .26 1.33zM39.03 69.62q.0 .92 .39 1.46q.39 .53 1.22 .53q.84 .0 1.22 -.53q.39 -.54 .39 -1.46q.0 -.93 -.39 -1.45q-.38 -.52 -1.21 -.52q-.83 .0 -1.23 .52q-.39 .52 -.39 1.45z" fill="#FF0D0D" id="mol1atm5" stroke="none"/>
                  
            <path class="atom" d="M55.77 49.21h-.72l-2.62 -4.07h-.03q.01 .24 .03 .6q.02 .36 .02 .73v2.74h-.57v-4.9h.71l2.61 4.05h.03q-.01 -.11 -.02 -.33q-.01 -.22 -.02 -.48q-.01 -.26 -.01 -.48v-2.77h.58v4.9z" id="mol1atm6" stroke="none"/>
                  
            <path class="atom" d="M95.37 72.07h-.72l-2.62 -4.07h-.03q.01 .24 .03 .6q.02 .36 .02 .73v2.74h-.57v-4.9h.71l2.61 4.05h.03q-.01 -.11 -.02 -.33q-.01 -.22 -.02 -.48q-.01 -.26 -.01 -.48v-2.77h.58v4.9z" id="mol1atm10" stroke="none"/>
                
            <line class="hi" id="mol1bnd5" stroke="#3050F8" x1="50.68" x2="45.655" y1="48.58" y2="51.480000000000004"/>
            <line class="hi" id="mol1bnd6" stroke="#3050F8" x1="56.98" x2="62.004999999999995" y1="48.58" y2="51.480000000000004"/>
            <line class="hi" id="mol1bnd9" stroke="#3050F8" x1="90.27" x2="85.245" y1="71.44" y2="74.345"/>
            <line class="hi" id="mol1bnd10" stroke="#3050F8" x1="93.43" x2="93.43" y1="65.77" y2="60.06999999999999"/>
            <line class="hi" id="mol1bnd13" stroke="#3050F8" x1="96.58" x2="101.6" y1="71.44" y2="74.34"/>
            <line class="hi" id="mol1bnd22" stroke="#3050F8" x1="53.83" x2="53.83" y1="42.91" y2="37.214999999999996"/>
        </g>
          
    </g>
    
</svg>
