<svg xmlns="http://www.w3.org/2000/svg" xmlns:xlink="http://www.w3.org/1999/xlink" height="95.81mm" version="1.2" viewBox="0 0 123.51 95.81" width="123.51mm">
      
    <desc>Generated by the Chemistry Development Kit (http://github.com/cdk)</desc>
      
    <g fill="#FF0D0D" stroke="#000000" stroke-linecap="round" stroke-linejoin="round" stroke-width=".7">
            
        <rect fill="#FFFFFF" height="96.0" stroke="none" width="124.0" x=".0" y=".0"/>
            
        <g class="mol" id="mol1">
                  
            <line class="bond" id="mol1bnd1" x1="71.58" x2="69.06" y1="94.83" y2="83.79"/>
                  
            <line class="bond" id="mol1bnd2" x1="71.23" x2="80.08" y1="77.54" y2="70.42"/>
                  
            <g class="bond" id="mol1bnd3">
                        
                <line x1="80.08" x2="80.08" y1="55.18" y2="70.42"/>
                        
                <line x1="82.52" x2="82.52" y1="56.59" y2="69.01"/>
                      
            </g>
                  
            <line class="bond" id="mol1bnd4" x1="80.08" x2="93.29" y1="55.18" y2="47.56"/>
                  
            <g class="bond" id="mol1bnd5">
                        
                <line x1="106.5" x2="93.29" y1="55.18" y2="47.56"/>
                        
                <line x1="104.06" x2="93.29" y1="56.59" y2="50.38"/>
                      
            </g>
                  
            <line class="bond" id="mol1bnd6" x1="106.5" x2="106.5" y1="55.18" y2="70.42"/>
                  
            <g class="bond" id="mol1bnd7">
                        
                <line x1="93.29" x2="106.5" y1="78.04" y2="70.42"/>
                        
                <line x1="93.29" x2="104.06" y1="75.23" y2="69.01"/>
                      
            </g>
                  
            <line class="bond" id="mol1bnd8" x1="80.08" x2="93.29" y1="70.42" y2="78.04"/>
                  
            <line class="bond" id="mol1bnd9" x1="106.5" x2="116.74" y1="55.18" y2="49.27"/>
                  
            <line class="bond" id="mol1bnd10" x1="80.08" x2="68.2" y1="55.18" y2="45.63"/>
                  
            <g class="bond" id="mol1bnd11">
                        
                <line x1="68.2" x2="56.67" y1="45.63" y2="48.32"/>
                        
                <line x1="67.59" x2="57.22" y1="48.28" y2="50.69"/>
                      
                <line class="hi" stroke="#3050F8" x1="56.67" x2="62.435" y1="48.32" y2="46.975"/>
                <line class="hi" stroke="#3050F8" x1="57.22" x2="62.405" y1="50.69" y2="49.485"/>
            </g>
                  
            <line class="bond" id="mol1bnd12" x1="51.58" x2="46.76" y1="52.8" y2="62.8"/>
                  
            <line class="bond" id="mol1bnd13" x1="46.76" x2="53.36" y1="62.8" y2="76.52"/>
                  
            <line class="bond" id="mol1bnd14" x1="64.89" x2="53.36" y1="79.2" y2="76.52"/>
                  
            <g class="bond" id="mol1bnd15">
                        
                <line x1="54.68" x2="47.26" y1="76.83" y2="86.09"/>
                        
                <line x1="52.78" x2="45.35" y1="75.3" y2="84.57"/>
                      
                <line class="hi" stroke="#FF0D0D" x1="47.26" x2="50.97" y1="86.09" y2="81.46000000000001"/>
                <line class="hi" stroke="#FF0D0D" x1="45.35" x2="49.065" y1="84.57" y2="79.935"/>
            </g>
                  
            <line class="bond" id="mol1bnd16" x1="46.76" x2="35.18" y1="62.8" y2="62.8"/>
                  
            <line class="bond" id="mol1bnd17" x1="29.55" x2="23.9" y1="59.39" y2="49.6"/>
                  
            <g class="bond" id="mol1bnd18">
                        
                <line x1="22.49" x2="28.49" y1="49.6" y2="39.21"/>
                        
                <line x1="24.6" x2="30.6" y1="50.82" y2="40.43"/>
                      
                <line class="hi" stroke="#FF0D0D" x1="28.49" x2="25.49" y1="39.21" y2="44.405"/>
                <line class="hi" stroke="#FF0D0D" x1="30.6" x2="27.6" y1="40.43" y2="45.625"/>
            </g>
                  
            <line class="bond" id="mol1bnd19" x1="23.9" x2="12.0" y1="49.6" y2="49.6"/>
                  
            <line class="bond" id="mol1bnd20" x1="6.54" x2="1.04" y1="45.94" y2="36.41"/>
                  
            <line class="bond" id="mol1bnd21" x1="6.54" x2="1.04" y1="53.27" y2="62.8"/>
                  
            <line class="bond" id="mol1bnd22" x1="68.2" x2="71.58" y1="45.63" y2="30.77"/>
                  
            <g class="bond" id="mol1bnd23">
                        
                <line x1="60.4" x2="71.58" y1="20.41" y2="30.77"/>
                        
                <line x1="63.09" x2="72.21" y1="19.58" y2="28.03"/>
                      
            </g>
                  
            <line class="bond" id="mol1bnd24" x1="60.4" x2="63.78" y1="20.41" y2="5.55"/>
                  
            <g class="bond" id="mol1bnd25">
                        
                <line x1="78.35" x2="63.78" y1="1.05" y2="5.55"/>
                        
                <line x1="77.73" x2="65.85" y1="3.8" y2="7.47"/>
                      
            </g>
                  
            <line class="bond" id="mol1bnd26" x1="78.35" x2="89.54" y1="1.05" y2="11.42"/>
                  
            <g class="bond" id="mol1bnd27">
                        
                <line x1="86.15" x2="89.54" y1="26.28" y2="11.42"/>
                        
                <line x1="84.09" x2="86.85" y1="24.36" y2="12.25"/>
                      
            </g>
                  
            <line class="bond" id="mol1bnd28" x1="71.58" x2="86.15" y1="30.77" y2="26.28"/>
                  
            <path class="atom" d="M70.14 82.42h-.72l-2.62 -4.07h-.03q.01 .24 .03 .6q.02 .36 .02 .73v2.74h-.57v-4.9h.71l2.61 4.05h.03q-.01 -.11 -.02 -.33q-.01 -.22 -.02 -.48q-.01 -.26 -.01 -.48v-2.77h.58v4.9z" fill="#3050F8" id="mol1atm2" stroke="none"/>
                  
            <path class="atom" d="M120.19 45.58q-.79 .0 -1.24 .53q-.45 .52 -.45 1.45q.0 .91 .42 1.45q.42 .53 1.27 .53q.32 .0 .61 -.05q.29 -.06 .57 -.14v.54q-.27 .1 -.57 .15q-.29 .05 -.7 .05q-.74 .0 -1.25 -.31q-.5 -.31 -.75 -.88q-.25 -.57 -.25 -1.34q.0 -.74 .27 -1.31q.27 -.57 .8 -.88q.53 -.32 1.28 -.32q.78 .0 1.35 .29l-.24 .52q-.23 -.1 -.51 -.18q-.27 -.08 -.61 -.08zM122.95 50.01h-.6v-5.21h.6v5.21z" fill="#1FF01F" id="mol1atm9" stroke="none"/>
                  
            <path class="atom" d="M55.3 51.54h-.72l-2.62 -4.07h-.03q.01 .24 .03 .6q.02 .36 .02 .73v2.74h-.57v-4.9h.71l2.61 4.05h.03q-.01 -.11 -.02 -.33q-.01 -.22 -.02 -.48q-.01 -.26 -.01 -.48v-2.77h.58v4.9z" fill="#3050F8" id="mol1atm11" stroke="none"/>
                  
            <path class="atom" d="M46.09 88.41q.0 .76 -.26 1.33q-.26 .57 -.76 .88q-.5 .32 -1.24 .32q-.76 .0 -1.26 -.32q-.51 -.32 -.76 -.89q-.24 -.57 -.24 -1.33q.0 -.75 .24 -1.31q.25 -.57 .76 -.88q.51 -.32 1.27 -.32q.73 .0 1.23 .32q.5 .31 .76 .88q.26 .57 .26 1.33zM42.23 88.41q.0 .92 .39 1.46q.39 .53 1.22 .53q.84 .0 1.22 -.53q.39 -.54 .39 -1.46q.0 -.93 -.39 -1.45q-.38 -.52 -1.21 -.52q-.83 .0 -1.23 .52q-.39 .52 -.39 1.45z" id="mol1atm14" stroke="none"/>
                  
            <path class="atom" d="M33.78 62.8q.0 .76 -.26 1.33q-.26 .57 -.76 .88q-.5 .32 -1.24 .32q-.76 .0 -1.26 -.32q-.51 -.32 -.76 -.89q-.24 -.57 -.24 -1.33q.0 -.75 .24 -1.31q.25 -.57 .76 -.88q.51 -.32 1.27 -.32q.73 .0 1.23 .32q.5 .31 .76 .88q.26 .57 .26 1.33zM29.91 62.8q.0 .92 .39 1.46q.39 .53 1.22 .53q.84 .0 1.22 -.53q.39 -.54 .39 -1.46q.0 -.93 -.39 -1.45q-.38 -.52 -1.21 -.52q-.83 .0 -1.23 .52q-.39 .52 -.39 1.45z" id="mol1atm15" stroke="none"/>
                  
            <path class="atom" d="M33.78 36.4q.0 .76 -.26 1.33q-.26 .57 -.76 .88q-.5 .32 -1.24 .32q-.76 .0 -1.26 -.32q-.51 -.32 -.76 -.89q-.24 -.57 -.24 -1.33q.0 -.75 .24 -1.31q.25 -.57 .76 -.88q.51 -.32 1.27 -.32q.73 .0 1.23 .32q.5 .31 .76 .88q.26 .57 .26 1.33zM29.91 36.4q.0 .92 .39 1.46q.39 .53 1.22 .53q.84 .0 1.22 -.53q.39 -.54 .39 -1.46q.0 -.93 -.39 -1.45q-.38 -.52 -1.21 -.52q-.83 .0 -1.23 .52q-.39 .52 -.39 1.45z" id="mol1atm17" stroke="none"/>
                  
            <path class="atom" d="M10.6 52.05h-.72l-2.62 -4.07h-.03q.01 .24 .03 .6q.02 .36 .02 .73v2.74h-.57v-4.9h.71l2.61 4.05h.03q-.01 -.11 -.02 -.33q-.01 -.22 -.02 -.48q-.01 -.26 -.01 -.48v-2.77h.58v4.9z" fill="#3050F8" id="mol1atm18" stroke="none"/>
                
            <line class="hi" id="mol1bnd1" stroke="#3050F8" x1="69.06" x2="70.32" y1="83.79" y2="89.31"/>
            <line class="hi" id="mol1bnd2" stroke="#3050F8" x1="71.23" x2="75.655" y1="77.54" y2="73.98"/>
            <line class="hi" id="mol1bnd9" stroke="#1FF01F" x1="116.74" x2="111.62" y1="49.27" y2="52.225"/>
            <line class="hi" id="mol1bnd12" stroke="#3050F8" x1="51.58" x2="49.17" y1="52.8" y2="57.8"/>
            <line class="hi" id="mol1bnd14" stroke="#3050F8" x1="64.89" x2="59.125" y1="79.2" y2="77.86"/>
            <line class="hi" id="mol1bnd16" stroke="#FF0D0D" x1="35.18" x2="40.97" y1="62.8" y2="62.8"/>
            <line class="hi" id="mol1bnd17" stroke="#FF0D0D" x1="29.55" x2="26.725" y1="59.39" y2="54.495000000000005"/>
            <line class="hi" id="mol1bnd19" stroke="#3050F8" x1="12.0" x2="17.95" y1="49.6" y2="49.6"/>
            <line class="hi" id="mol1bnd20" stroke="#3050F8" x1="6.54" x2="3.79" y1="45.94" y2="41.175"/>
            <line class="hi" id="mol1bnd21" stroke="#3050F8" x1="6.54" x2="3.79" y1="53.27" y2="58.035"/>
        </g>
          
    </g>
    
</svg>
