<svg xmlns="http://www.w3.org/2000/svg" xmlns:xlink="http://www.w3.org/1999/xlink" height="68.07mm" version="1.2" viewBox="0 0 67.07 68.07" width="67.07mm">
      
    <desc>Generated by the Chemistry Development Kit (http://github.com/cdk)</desc>
      
    <g stroke="#000000" stroke-linecap="round" stroke-linejoin="round" stroke-width=".7">
            
        <rect fill="#FFFFFF" height="69.0" stroke="none" width="68.0" x=".0" y=".0"/>
            
        <g class="mol" id="mol1">
                  
            <line class="bond" id="mol1bnd1" x1="31.5" x2="23.89" y1="40.64" y2="53.83"/>
                  
            <g class="bond" id="mol1bnd2">
                        
                <line x1="31.5" x2="23.89" y1="67.03" y2="53.83"/>
                        
                <line x1="32.91" x2="26.7" y1="64.59" y2="53.83"/>
                      
            </g>
                  
            <line class="bond" id="mol1bnd3" x1="31.5" x2="46.73" y1="67.03" y2="67.03"/>
                  
            <line class="bond" id="mol1bnd4" x1="46.73" x2="54.35" y1="67.03" y2="53.83"/>
                  
            <line class="bond" id="mol1bnd5" x1="54.35" x2="46.73" y1="53.83" y2="40.63"/>
                  
            <g class="bond" id="mol1bnd6">
                        
                <line x1="54.35" x2="46.73" y1="27.43" y2="40.63"/>
                        
                <line x1="51.53" x2="45.32" y1="27.43" y2="38.19"/>
                      
            </g>
                  
            <line class="bond" id="mol1bnd7" x1="54.35" x2="46.73" y1="27.43" y2="14.23"/>
                  
            <line class="bond" id="mol1bnd8" x1="46.73" x2="31.5" y1="14.23" y2="14.23"/>
                  
            <g class="bond" id="mol1bnd9">
                        
                <line x1="31.5" x2="23.89" y1="14.23" y2="27.43"/>
                        
                <line x1="32.91" x2="26.32" y1="16.67" y2="28.08"/>
                      
            </g>
                  
            <line class="bond" id="mol1bnd10" x1="23.89" x2="1.04" y1="27.43" y2="40.63"/>
                  
            <line class="bond" id="mol1bnd11" x1="1.04" x2="8.65" y1="40.63" y2="53.83"/>
                  
            <line class="bond" id="mol1bnd12" x1="23.89" x2="8.65" y1="53.83" y2="53.83"/>
                  
            <line class="bond" id="mol1bnd13" x1="31.5" x2="23.88" y1="14.23" y2="1.04"/>
                  
            <line class="bond" id="mol1bnd14" x1="54.35" x2="66.02" y1="53.83" y2="63.62"/>
                  
            <line class="bond" id="mol1bnd15" x1="54.35" x2="66.02" y1="53.83" y2="44.04"/>
                
        </g>
          
    </g>
    
</svg>
