<svg xmlns="http://www.w3.org/2000/svg" xmlns:xlink="http://www.w3.org/1999/xlink" height="29.43mm" version="1.2" viewBox="0 0 35.57 29.43" width="35.57mm">
      
    <desc>Generated by the Chemistry Development Kit (http://github.com/cdk)</desc>
      
    <g fill="#1FF01F" stroke="#000000" stroke-linecap="round" stroke-linejoin="round" stroke-width=".7">
            
        <rect fill="#FFFFFF" height="30.0" stroke="none" width="36.0" x=".0" y=".0"/>
            
        <g class="mol" id="mol1">
                  
            <line class="bond" id="mol1bnd1" x1="18.56" x2="28.81" y1="18.57" y2="24.49"/>
                  
            <line class="bond" id="mol1bnd2" x1="18.56" x2="6.87" y1="18.57" y2="25.31"/>
                  
            <line class="bond" id="mol1bnd3" x1="18.56" x2="18.56" y1="18.57" y2="7.25"/>
                  
            <path class="atom" d="M32.25 24.21q-.79 .0 -1.24 .53q-.45 .52 -.45 1.45q.0 .91 .42 1.45q.42 .53 1.27 .53q.32 .0 .61 -.05q.29 -.06 .57 -.14v.54q-.27 .1 -.57 .15q-.29 .05 -.7 .05q-.74 .0 -1.25 -.31q-.5 -.31 -.75 -.88q-.25 -.57 -.25 -1.34q.0 -.74 .27 -1.31q.27 -.57 .8 -.88q.53 -.32 1.28 -.32q.78 .0 1.35 .29l-.24 .52q-.23 -.1 -.51 -.18q-.27 -.08 -.61 -.08zM35.01 28.63h-.6v-5.21h.6v5.21z" id="mol1atm2" stroke="none"/>
                  
            <path class="atom" d="M2.91 24.37q-.79 .0 -1.24 .53q-.45 .52 -.45 1.45q.0 .91 .42 1.45q.42 .53 1.27 .53q.32 .0 .61 -.05q.29 -.06 .57 -.14v.54q-.27 .1 -.57 .15q-.29 .05 -.7 .05q-.74 .0 -1.25 -.31q-.5 -.31 -.75 -.88q-.25 -.57 -.25 -1.34q.0 -.74 .27 -1.31q.27 -.57 .8 -.88q.53 -.32 1.28 -.32q.78 .0 1.35 .29l-.24 .52q-.23 -.1 -.51 -.18q-.27 -.08 -.61 -.08zM5.66 28.8h-.6v-5.21h.6v5.21z" id="mol1atm3" stroke="none"/>
                  
            <path class="atom" d="M19.05 1.35q-.79 .0 -1.24 .53q-.45 .52 -.45 1.45q.0 .91 .42 1.45q.42 .53 1.27 .53q.32 .0 .61 -.05q.29 -.06 .57 -.14v.54q-.27 .1 -.57 .15q-.29 .05 -.7 .05q-.74 .0 -1.25 -.31q-.5 -.31 -.75 -.88q-.25 -.57 -.25 -1.34q.0 -.74 .27 -1.31q.27 -.57 .8 -.88q.53 -.32 1.28 -.32q.78 .0 1.35 .29l-.24 .52q-.23 -.1 -.51 -.18q-.27 -.08 -.61 -.08zM21.81 5.77h-.6v-5.21h.6v5.21z" id="mol1atm4" stroke="none"/>
                
            <line class="hi" id="mol1bnd1" stroke="#1FF01F" x1="28.81" x2="23.685" y1="24.49" y2="21.53"/>
            <line class="hi" id="mol1bnd2" stroke="#1FF01F" x1="6.870000000000001" x2="12.715" y1="25.31" y2="21.939999999999998"/>
            <line class="hi" id="mol1bnd3" stroke="#1FF01F" x1="18.56" x2="18.56" y1="7.25" y2="12.91"/>
        </g>
          
    </g>
    
</svg>
