<svg xmlns="http://www.w3.org/2000/svg" xmlns:xlink="http://www.w3.org/1999/xlink" height="112.43mm" version="1.2" viewBox="0 0 112.82 112.43" width="112.82mm">
      
    <desc>Generated by the Chemistry Development Kit (http://github.com/cdk)</desc>
      
    <g fill="#FF0D0D" stroke="#000000" stroke-linecap="round" stroke-linejoin="round" stroke-width=".7">
            
        <rect fill="#FFFFFF" height="113.0" stroke="none" width="113.0" x=".0" y=".0"/>
            
        <g class="mol" id="mol1">
                  
            <line class="bond" id="mol1bnd1" x1="1.04" x2="11.08" y1="94.11" y2="88.31"/>
                  
            <line class="bond" id="mol1bnd2" x1="14.24" x2="14.24" y1="82.64" y2="71.25"/>
                  
            <line class="bond" id="mol1bnd3" x1="14.24" x2="27.44" y1="71.25" y2="63.63"/>
                  
            <g class="bond" id="mol1bnd4">
                        
                <line x1="26.22" x2="26.22" y1="64.34" y2="52.31"/>
                        
                <line x1="28.66" x2="28.66" y1="64.34" y2="52.31"/>
                      
                <line class="hi" stroke="#FF0D0D" x1="26.22" x2="26.22" y1="52.31" y2="58.325"/>
                <line class="hi" stroke="#FF0D0D" x1="28.66" x2="28.66" y1="52.31" y2="58.325"/>
            </g>
                  
            <line class="bond" id="mol1bnd5" x1="27.44" x2="37.5" y1="63.63" y2="69.43"/>
                  
            <g class="bond" id="mol1bnd6">
                        
                <line stroke="#000000" x1="40.3" x2="41.0" y1="86.49" y2="86.49"/>
                        
                <line stroke="#3050F8" x1="40.05" x2="41.25" y1="84.32" y2="84.32"/>
                        
                <line stroke="#3050F8" x1="39.8" x2="41.5" y1="82.14" y2="82.14"/>
                        
                <line stroke="#3050F8" x1="39.55" x2="41.75" y1="79.96" y2="79.96"/>
                        
                <line stroke="#3050F8" x1="39.3" x2="42.0" y1="77.78" y2="77.78"/>
                        
                <line stroke="#3050F8" x1="39.05" x2="42.25" y1="75.61" y2="75.61"/>
                      
            </g>
                  
            <line class="bond" id="mol1bnd7" x1="40.65" x2="27.44" y1="86.49" y2="94.11"/>
                  
            <line class="bond" id="mol1bnd8" x1="17.39" x2="27.44" y1="88.31" y2="94.11"/>
                  
            <g class="bond" id="mol1bnd9">
                        
                <line x1="28.66" x2="28.66" y1="93.41" y2="105.43"/>
                        
                <line x1="26.22" x2="26.22" y1="93.41" y2="105.43"/>
                      
                <line class="hi" stroke="#FF0D0D" x1="28.66" x2="28.66" y1="105.43" y2="99.42"/>
                <line class="hi" stroke="#FF0D0D" x1="26.22" x2="26.22" y1="105.43" y2="99.42"/>
            </g>
                  
            <line class="bond" id="mol1bnd10" x1="40.65" x2="53.76" y1="86.49" y2="94.11"/>
                  
            <line class="bond" id="mol1bnd11" x1="53.76" x2="66.97" y1="94.11" y2="86.49"/>
                  
            <g class="bond" id="mol1bnd12">
                        
                <line x1="66.97" x2="66.97" y1="86.49" y2="71.25"/>
                        
                <line x1="64.53" x2="64.53" y1="85.08" y2="72.66"/>
                      
            </g>
                  
            <line class="bond" id="mol1bnd13" x1="66.97" x2="53.76" y1="71.25" y2="63.63"/>
                  
            <line class="bond" id="mol1bnd14" x1="43.8" x2="53.76" y1="69.42" y2="63.63"/>
                  
            <g class="bond" id="mol1bnd15">
                        
                <line x1="53.41" x2="54.11" y1="63.63" y2="63.63"/>
                        
                <line x1="53.11" x2="54.4" y1="61.09" y2="61.09"/>
                        
                <line x1="52.82" x2="54.68" y1="58.55" y2="58.55"/>
                        
                <line x1="52.52" x2="54.97" y1="56.01" y2="56.01"/>
                        
                <line x1="52.22" x2="55.26" y1="53.48" y2="53.47"/>
                        
                <line x1="51.93" x2="55.54" y1="50.94" y2="50.93"/>
                        
                <line x1="51.63" x2="55.83" y1="48.4" y2="48.39"/>
                      
            </g>
                  
            <g class="bond" id="mol1bnd16">
                        
                <line x1="53.73" x2="67.12" y1="48.39" y2="40.62"/>
                        
                <line x1="53.73" x2="64.66" y1="45.58" y2="39.23"/>
                      
            </g>
                  
            <line class="bond" id="mol1bnd17" x1="67.12" x2="66.97" y1="40.62" y2="25.41"/>
                  
            <g class="bond" id="mol1bnd18">
                        
                <line x1="66.97" x2="53.58" y1="25.41" y2="17.71"/>
                        
                <line x1="64.54" x2="53.57" y1="26.83" y2="20.51"/>
                      
            </g>
                  
            <line class="bond" id="mol1bnd19" x1="53.58" x2="40.35" y1="17.71" y2="25.21"/>
                  
            <g class="bond" id="mol1bnd20">
                        
                <line x1="40.35" x2="40.35" y1="25.21" y2="40.69"/>
                        
                <line x1="42.79" x2="42.79" y1="26.63" y2="39.28"/>
                      
            </g>
                  
            <line class="bond" id="mol1bnd21" x1="53.73" x2="40.35" y1="48.39" y2="40.69"/>
                  
            <line class="bond" id="mol1bnd22" x1="53.58" x2="55.95" y1="17.71" y2="7.04"/>
                  
            <line class="bond" id="mol1bnd23" x1="60.45" x2="71.04" y1="2.61" y2="1.03"/>
                  
            <line class="bond" id="mol1bnd24" x1="71.04" x2="76.32" y1="1.03" y2="11.53"/>
                  
            <line class="bond" id="mol1bnd25" x1="66.97" x2="75.22" y1="25.41" y2="17.72"/>
                  
            <line class="bond" id="mol1bnd26" x1="66.97" x2="78.22" y1="71.25" y2="67.55"/>
                  
            <line class="bond" id="mol1bnd27" x1="84.08" x2="90.44" y1="70.06" y2="78.87"/>
                  
            <g class="bond" id="mol1bnd28">
                        
                <line x1="105.57" x2="90.44" y1="80.4" y2="78.87"/>
                        
                <line x1="103.92" x2="91.58" y1="82.68" y2="81.44"/>
                      
            </g>
                  
            <line class="bond" id="mol1bnd29" x1="105.57" x2="111.77" y1="80.4" y2="94.32"/>
                  
            <g class="bond" id="mol1bnd30">
                        
                <line x1="102.83" x2="111.77" y1="106.71" y2="94.32"/>
                        
                <line x1="101.68" x2="108.97" y1="104.14" y2="94.03"/>
                      
            </g>
                  
            <line class="bond" id="mol1bnd31" x1="102.83" x2="87.69" y1="106.71" y2="105.09"/>
                  
            <g class="bond" id="mol1bnd32">
                        
                <line x1="81.49" x2="87.69" y1="91.17" y2="105.09"/>
                        
                <line x1="84.29" x2="89.35" y1="91.46" y2="102.81"/>
                      
            </g>
                  
            <line class="bond" id="mol1bnd33" x1="66.97" x2="81.49" y1="86.49" y2="91.17"/>
                  
            <line class="bond" id="mol1bnd34" x1="90.44" x2="81.49" y1="78.87" y2="91.17"/>
                  
            <path class="atom" d="M16.18 88.94h-.72l-2.62 -4.07h-.03q.01 .24 .03 .6q.02 .36 .02 .73v2.74h-.57v-4.9h.71l2.61 4.05h.03q-.01 -.11 -.02 -.33q-.01 -.22 -.02 -.48q-.01 -.26 -.01 -.48v-2.77h.58v4.9z" fill="#3050F8" id="mol1atm2" stroke="none"/>
                  
            <path class="atom" d="M29.7 48.39q.0 .76 -.26 1.33q-.26 .57 -.76 .88q-.5 .32 -1.24 .32q-.76 .0 -1.26 -.32q-.51 -.32 -.76 -.89q-.24 -.57 -.24 -1.33q.0 -.75 .24 -1.31q.25 -.57 .76 -.88q.51 -.32 1.27 -.32q.73 .0 1.23 .32q.5 .31 .76 .88q.26 .57 .26 1.33zM25.84 48.39q.0 .92 .39 1.46q.39 .53 1.22 .53q.84 .0 1.22 -.53q.39 -.54 .39 -1.46q.0 -.93 -.39 -1.45q-.38 -.52 -1.21 -.52q-.83 .0 -1.23 .52q-.39 .52 -.39 1.45z" id="mol1atm5" stroke="none"/>
                  
            <path class="atom" d="M42.59 73.7h-.72l-2.62 -4.07h-.03q.01 .24 .03 .6q.02 .36 .02 .73v2.74h-.57v-4.9h.71l2.61 4.05h.03q-.01 -.11 -.02 -.33q-.01 -.22 -.02 -.48q-.01 -.26 -.01 -.48v-2.77h.58v4.9z" fill="#3050F8" id="mol1atm6" stroke="none"/>
                  
            <path class="atom" d="M29.7 109.35q.0 .76 -.26 1.33q-.26 .57 -.76 .88q-.5 .32 -1.24 .32q-.76 .0 -1.26 -.32q-.51 -.32 -.76 -.89q-.24 -.57 -.24 -1.33q.0 -.75 .24 -1.31q.25 -.57 .76 -.88q.51 -.32 1.27 -.32q.73 .0 1.23 .32q.5 .31 .76 .88q.26 .57 .26 1.33zM25.84 109.35q.0 .92 .39 1.46q.39 .53 1.22 .53q.84 .0 1.22 -.53q.39 -.54 .39 -1.46q.0 -.93 -.39 -1.45q-.38 -.52 -1.21 -.52q-.83 .0 -1.23 .52q-.39 .52 -.39 1.45z" id="mol1atm9" stroke="none"/>
                  
            <path class="atom" d="M59.07 3.15q.0 .76 -.26 1.33q-.26 .57 -.76 .88q-.5 .32 -1.24 .32q-.76 .0 -1.26 -.32q-.51 -.32 -.76 -.89q-.24 -.57 -.24 -1.33q.0 -.75 .24 -1.31q.25 -.57 .76 -.88q.51 -.32 1.27 -.32q.73 .0 1.23 .32q.5 .31 .76 .88q.26 .57 .26 1.33zM55.2 3.15q.0 .92 .39 1.46q.39 .53 1.22 .53q.84 .0 1.22 -.53q.39 -.54 .39 -1.46q.0 -.93 -.39 -1.45q-.38 -.52 -1.21 -.52q-.83 .0 -1.23 .52q-.39 .52 -.39 1.45z" id="mol1atm20" stroke="none"/>
                  
            <path class="atom" d="M80.35 15.05q.0 .76 -.26 1.33q-.26 .57 -.76 .88q-.5 .32 -1.24 .32q-.76 .0 -1.26 -.32q-.51 -.32 -.76 -.89q-.24 -.57 -.24 -1.33q.0 -.75 .24 -1.31q.25 -.57 .76 -.88q.51 -.32 1.27 -.32q.73 .0 1.23 .32q.5 .31 .76 .88q.26 .57 .26 1.33zM76.49 15.05q.0 .92 .39 1.46q.39 .53 1.22 .53q.84 .0 1.22 -.53q.39 -.54 .39 -1.46q.0 -.93 -.39 -1.45q-.38 -.52 -1.21 -.52q-.83 .0 -1.23 .52q-.39 .52 -.39 1.45z" id="mol1atm22" stroke="none"/>
                  
            <g class="atom" id="mol1atm23">
                        
                <path d="M83.44 68.93h-.72l-2.62 -4.07h-.03q.01 .24 .03 .6q.02 .36 .02 .73v2.74h-.57v-4.9h.71l2.61 4.05h.03q-.01 -.11 -.02 -.33q-.01 -.22 -.02 -.48q-.01 -.26 -.01 -.48v-2.77h.58v4.9z" fill="#3050F8" stroke="none"/>
                        
                <path d="M83.3 63.47h-.62v-2.29h-2.51v2.29h-.61v-4.9h.61v2.07h2.51v-2.07h.62v4.9z" fill="#3050F8" stroke="none"/>
                      
            </g>
                
            <line class="hi" id="mol1bnd1" stroke="#3050F8" x1="11.079999999999998" x2="6.0600000000000005" y1="88.31" y2="91.21000000000001"/>
            <line class="hi" id="mol1bnd2" stroke="#3050F8" x1="14.24" x2="14.24" y1="82.64" y2="76.945"/>
            <line class="hi" id="mol1bnd5" stroke="#3050F8" x1="37.5" x2="32.47" y1="69.43" y2="66.53"/>
            <line class="hi" id="mol1bnd8" stroke="#3050F8" x1="17.39" x2="22.415" y1="88.31" y2="91.21000000000001"/>
            <line class="hi" id="mol1bnd14" stroke="#3050F8" x1="43.8" x2="48.78" y1="69.42" y2="66.525"/>
            <line class="hi" id="mol1bnd22" stroke="#FF0D0D" x1="55.95" x2="54.765" y1="7.039999999999999" y2="12.375"/>
            <line class="hi" id="mol1bnd23" stroke="#FF0D0D" x1="60.45" x2="65.745" y1="2.61" y2="1.8199999999999998"/>
            <line class="hi" id="mol1bnd24" stroke="#FF0D0D" x1="76.32" x2="73.68" y1="11.53" y2="6.279999999999999"/>
            <line class="hi" id="mol1bnd25" stroke="#FF0D0D" x1="75.22" x2="71.095" y1="17.72" y2="21.564999999999998"/>
            <line class="hi" id="mol1bnd26" stroke="#3050F8" x1="78.22" x2="72.595" y1="67.55" y2="69.4"/>
            <line class="hi" id="mol1bnd26" stroke="#3050F8" x1="78.22" x2="72.595" y1="67.55" y2="69.4"/>
            <line class="hi" id="mol1bnd27" stroke="#3050F8" x1="84.08" x2="87.25999999999999" y1="70.06" y2="74.465"/>
            <line class="hi" id="mol1bnd27" stroke="#3050F8" x1="84.08" x2="87.25999999999999" y1="70.06" y2="74.465"/>
        </g>
          
    </g>
    
</svg>
