<svg xmlns="http://www.w3.org/2000/svg" xmlns:xlink="http://www.w3.org/1999/xlink" height="95.81mm" version="1.2" viewBox="0 0 84.04 95.81" width="84.04mm">
      
    <desc>Generated by the Chemistry Development Kit (http://github.com/cdk)</desc>
      
    <g fill="#FF0D0D" stroke="#000000" stroke-linecap="round" stroke-linejoin="round" stroke-width=".7">
            
        <rect fill="#FFFFFF" height="96.0" stroke="none" width="85.0" x=".0" y=".0"/>
            
        <g class="mol" id="mol1">
                  
            <line class="bond" id="mol1bnd1" x1="53.48" x2="55.99" y1=".98" y2="12.02"/>
                  
            <line class="bond" id="mol1bnd2" x1="60.17" x2="71.7" y1="16.61" y2="19.29"/>
                  
            <g class="bond" id="mol1bnd3">
                        
                <line x1="70.38" x2="77.8" y1="18.99" y2="9.72"/>
                        
                <line x1="72.28" x2="79.7" y1="20.51" y2="11.25"/>
                      
                <line class="hi" stroke="#FF0D0D" x1="77.8" x2="74.09" y1="9.72" y2="14.355"/>
                <line class="hi" stroke="#FF0D0D" x1="79.7" x2="75.99000000000001" y1="11.25" y2="15.88"/>
            </g>
                  
            <line class="bond" id="mol1bnd4" x1="71.7" x2="78.3" y1="19.29" y2="33.01"/>
                  
            <line class="bond" id="mol1bnd5" x1="78.3" x2="71.7" y1="33.01" y2="46.72"/>
                  
            <g class="bond" id="mol1bnd6">
                        
                <line x1="72.28" x2="79.7" y1="45.51" y2="54.77"/>
                        
                <line x1="70.38" x2="77.8" y1="47.03" y2="56.29"/>
                      
                <line class="hi" stroke="#FF0D0D" x1="79.7" x2="75.99000000000001" y1="54.77" y2="50.14"/>
                <line class="hi" stroke="#FF0D0D" x1="77.8" x2="74.09" y1="56.29" y2="51.66"/>
            </g>
                  
            <line class="bond" id="mol1bnd7" x1="71.7" x2="60.17" y1="46.72" y2="49.41"/>
                  
            <line class="bond" id="mol1bnd8" x1="53.83" x2="44.97" y1="47.74" y2="40.63"/>
                  
            <g class="bond" id="mol1bnd9">
                        
                <line x1="44.97" x2="44.97" y1="40.63" y2="25.39"/>
                        
                <line x1="42.54" x2="42.54" y1="39.22" y2="26.8"/>
                      
            </g>
                  
            <line class="bond" id="mol1bnd10" x1="53.83" x2="44.97" y1="18.27" y2="25.39"/>
                  
            <line class="bond" id="mol1bnd11" x1="44.97" x2="31.77" y1="25.39" y2="17.77"/>
                  
            <g class="bond" id="mol1bnd12">
                        
                <line x1="31.77" x2="18.56" y1="17.77" y2="25.39"/>
                        
                <line x1="31.77" x2="21.0" y1="20.58" y2="26.8"/>
                      
            </g>
                  
            <line class="bond" id="mol1bnd13" x1="18.56" x2="18.56" y1="25.39" y2="40.63"/>
                  
            <g class="bond" id="mol1bnd14">
                        
                <line x1="18.56" x2="31.77" y1="40.63" y2="48.25"/>
                        
                <line x1="21.0" x2="31.77" y1="39.22" y2="45.43"/>
                      
            </g>
                  
            <line class="bond" id="mol1bnd15" x1="44.97" x2="31.77" y1="40.63" y2="48.25"/>
                  
            <line class="bond" id="mol1bnd16" x1="18.56" x2="6.87" y1="40.63" y2="47.38"/>
                  
            <line class="bond" id="mol1bnd17" x1="55.99" x2="53.48" y1="53.99" y2="65.04"/>
                  
            <g class="bond" id="mol1bnd18">
                        
                <line x1="53.48" x2="38.91" y1="65.04" y2="69.53"/>
                        
                <line x1="52.85" x2="40.97" y1="67.78" y2="71.45"/>
                      
            </g>
                  
            <line class="bond" id="mol1bnd19" x1="38.91" x2="35.52" y1="69.53" y2="84.39"/>
                  
            <g class="bond" id="mol1bnd20">
                        
                <line x1="35.52" x2="46.71" y1="84.39" y2="94.76"/>
                        
                <line x1="38.21" x2="47.33" y1="83.56" y2="92.01"/>
                      
            </g>
                  
            <line class="bond" id="mol1bnd21" x1="46.71" x2="61.28" y1="94.76" y2="90.26"/>
                  
            <g class="bond" id="mol1bnd22">
                        
                <line x1="61.28" x2="64.66" y1="90.26" y2="75.4"/>
                        
                <line x1="59.21" x2="61.97" y1="88.35" y2="76.23"/>
                      
            </g>
                  
            <line class="bond" id="mol1bnd23" x1="53.48" x2="64.66" y1="65.04" y2="75.4"/>
                  
            <path class="atom" d="M58.8 18.29h-.72l-2.62 -4.07h-.03q.01 .24 .03 .6q.02 .36 .02 .73v2.74h-.57v-4.9h.71l2.61 4.05h.03q-.01 -.11 -.02 -.33q-.01 -.22 -.02 -.48q-.01 -.26 -.01 -.48v-2.77h.58v4.9z" fill="#3050F8" id="mol1atm2" stroke="none"/>
                  
            <path class="atom" d="M83.48 7.4q.0 .76 -.26 1.33q-.26 .57 -.76 .88q-.5 .32 -1.24 .32q-.76 .0 -1.26 -.32q-.51 -.32 -.76 -.89q-.24 -.57 -.24 -1.33q.0 -.75 .24 -1.31q.25 -.57 .76 -.88q.51 -.32 1.27 -.32q.73 .0 1.23 .32q.5 .31 .76 .88q.26 .57 .26 1.33zM79.62 7.4q.0 .92 .39 1.46q.39 .53 1.22 .53q.84 .0 1.22 -.53q.39 -.54 .39 -1.46q.0 -.93 -.39 -1.45q-.38 -.52 -1.21 -.52q-.83 .0 -1.23 .52q-.39 .52 -.39 1.45z" id="mol1atm4" stroke="none"/>
                  
            <path class="atom" d="M83.48 58.62q.0 .76 -.26 1.33q-.26 .57 -.76 .88q-.5 .32 -1.24 .32q-.76 .0 -1.26 -.32q-.51 -.32 -.76 -.89q-.24 -.57 -.24 -1.33q.0 -.75 .24 -1.31q.25 -.57 .76 -.88q.51 -.32 1.27 -.32q.73 .0 1.23 .32q.5 .31 .76 .88q.26 .57 .26 1.33zM79.62 58.62q.0 .92 .39 1.46q.39 .53 1.22 .53q.84 .0 1.22 -.53q.39 -.54 .39 -1.46q.0 -.93 -.39 -1.45q-.38 -.52 -1.21 -.52q-.83 .0 -1.23 .52q-.39 .52 -.39 1.45z" id="mol1atm7" stroke="none"/>
                  
            <path class="atom" d="M58.8 52.63h-.72l-2.62 -4.07h-.03q.01 .24 .03 .6q.02 .36 .02 .73v2.74h-.57v-4.9h.71l2.61 4.05h.03q-.01 -.11 -.02 -.33q-.01 -.22 -.02 -.48q-.01 -.26 -.01 -.48v-2.77h.58v4.9z" fill="#3050F8" id="mol1atm8" stroke="none"/>
                  
            <path class="atom" d="M2.91 46.44q-.79 .0 -1.24 .53q-.45 .52 -.45 1.45q.0 .91 .42 1.45q.42 .53 1.27 .53q.32 .0 .61 -.05q.29 -.06 .57 -.14v.54q-.27 .1 -.57 .15q-.29 .05 -.7 .05q-.74 .0 -1.25 -.31q-.5 -.31 -.75 -.88q-.25 -.57 -.25 -1.34q.0 -.74 .27 -1.31q.27 -.57 .8 -.88q.53 -.32 1.28 -.32q.78 .0 1.35 .29l-.24 .52q-.23 -.1 -.51 -.18q-.27 -.08 -.61 -.08zM5.66 50.86h-.6v-5.21h.6v5.21z" fill="#1FF01F" id="mol1atm15" stroke="none"/>
                
            <line class="hi" id="mol1bnd1" stroke="#3050F8" x1="55.99" x2="54.735" y1="12.02" y2="6.5"/>
            <line class="hi" id="mol1bnd2" stroke="#3050F8" x1="60.17" x2="65.935" y1="16.61" y2="17.95"/>
            <line class="hi" id="mol1bnd7" stroke="#3050F8" x1="60.17" x2="65.935" y1="49.41" y2="48.065"/>
            <line class="hi" id="mol1bnd8" stroke="#3050F8" x1="53.83" x2="49.4" y1="47.74" y2="44.185"/>
            <line class="hi" id="mol1bnd10" stroke="#3050F8" x1="53.83" x2="49.4" y1="18.27" y2="21.83"/>
            <line class="hi" id="mol1bnd16" stroke="#1FF01F" x1="6.870000000000001" x2="12.715" y1="47.38" y2="44.005"/>
            <line class="hi" id="mol1bnd17" stroke="#3050F8" x1="55.99" x2="54.735" y1="53.99" y2="59.515"/>
        </g>
          
    </g>
    
</svg>
