<svg xmlns="http://www.w3.org/2000/svg" xmlns:xlink="http://www.w3.org/1999/xlink" height="120.93mm" version="1.2" viewBox="0 0 95.19 120.93" width="95.19mm">
      
    <desc>Generated by the Chemistry Development Kit (http://github.com/cdk)</desc>
      
    <g fill="#FF0D0D" stroke="#000000" stroke-linecap="round" stroke-linejoin="round" stroke-width=".7">
            
        <rect fill="#FFFFFF" height="121.0" stroke="none" width="96.0" x=".0" y=".0"/>
            
        <g class="mol" id="mol1">
                  
            <line class="bond" id="mol1bnd1" x1="15.38" x2="5.02" y1="119.88" y2="108.7"/>
                  
            <line class="bond" id="mol1bnd2" x1="5.02" x2="19.88" y1="108.7" y2="105.31"/>
                  
            <line class="bond" id="mol1bnd3" x1="15.38" x2="19.88" y1="119.88" y2="105.31"/>
                  
            <line class="bond" id="mol1bnd4" x1="19.88" x2="31.06" y1="105.31" y2="94.95"/>
                  
            <line class="bond" id="mol1bnd5" x1="31.06" x2="28.54" y1="94.95" y2="83.9"/>
                  
            <line class="bond" id="mol1bnd6" x1="24.37" x2="12.84" y1="79.32" y2="76.64"/>
                  
            <g class="bond" id="mol1bnd7">
                        
                <line x1="14.16" x2="6.73" y1="76.94" y2="86.21"/>
                        
                <line x1="12.25" x2="4.83" y1="75.42" y2="84.68"/>
                      
                <line class="hi" stroke="#FF0D0D" x1="6.73" x2="10.445" y1="86.21" y2="81.57499999999999"/>
                <line class="hi" stroke="#FF0D0D" x1="4.83" x2="8.54" y1="84.68" y2="80.05000000000001"/>
            </g>
                  
            <line class="bond" id="mol1bnd8" x1="12.84" x2="6.24" y1="76.64" y2="62.92"/>
                  
            <line class="bond" id="mol1bnd9" x1="6.24" x2="11.05" y1="62.92" y2="52.91"/>
                  
            <g class="bond" id="mol1bnd10">
                        
                <line x1="27.67" x2="16.14" y1="45.75" y2="48.43"/>
                        
                <line x1="27.07" x2="16.7" y1="48.39" y2="50.81"/>
                      
                <line class="hi" stroke="#3050F8" x1="16.14" x2="21.905" y1="48.43" y2="47.09"/>
                <line class="hi" stroke="#3050F8" x1="16.7" x2="21.884999999999998" y1="50.81" y2="49.6"/>
            </g>
                  
            <line class="bond" id="mol1bnd11" x1="27.67" x2="39.56" y1="45.75" y2="55.3"/>
                  
            <g class="bond" id="mol1bnd12">
                        
                <line x1="39.56" x2="39.56" y1="55.3" y2="70.54"/>
                        
                <line x1="42.0" x2="42.0" y1="56.71" y2="69.13"/>
                      
            </g>
                  
            <line class="bond" id="mol1bnd13" x1="30.71" x2="39.56" y1="77.65" y2="70.54"/>
                  
            <line class="bond" id="mol1bnd14" x1="39.56" x2="52.77" y1="70.54" y2="78.16"/>
                  
            <g class="bond" id="mol1bnd15">
                        
                <line x1="52.77" x2="65.98" y1="78.16" y2="70.54"/>
                        
                <line x1="52.77" x2="63.54" y1="75.34" y2="69.13"/>
                      
            </g>
                  
            <line class="bond" id="mol1bnd16" x1="65.98" x2="65.98" y1="70.54" y2="55.3"/>
                  
            <g class="bond" id="mol1bnd17">
                        
                <line x1="65.98" x2="52.77" y1="55.3" y2="47.68"/>
                        
                <line x1="63.54" x2="52.77" y1="56.71" y2="50.49"/>
                      
            </g>
                  
            <line class="bond" id="mol1bnd18" x1="39.56" x2="52.77" y1="55.3" y2="47.68"/>
                  
            <line class="bond" id="mol1bnd19" x1="65.98" x2="76.02" y1="55.3" y2="49.5"/>
                  
            <g class="bond" id="mol1bnd20">
                        
                <line x1="83.47" x2="89.7" y1="48.75" y2="52.34"/>
                        
                <line x1="82.25" x2="88.48" y1="50.86" y2="54.46"/>
                      
                <line class="hi" stroke="#3050F8" x1="83.47" x2="86.58500000000001" y1="48.75" y2="50.545"/>
                <line class="hi" stroke="#3050F8" x1="83.47" x2="86.58500000000001" y1="48.75" y2="50.545"/>
                <line class="hi" stroke="#FF0D0D" x1="89.7" x2="86.58500000000001" y1="52.34" y2="50.545"/>
                <line class="hi" stroke="#3050F8" x1="82.25" x2="85.36500000000001" y1="50.86" y2="52.66"/>
                <line class="hi" stroke="#3050F8" x1="82.25" x2="85.36500000000001" y1="50.86" y2="52.66"/>
                <line class="hi" stroke="#FF0D0D" x1="88.48" x2="85.36500000000001" y1="54.46" y2="52.66"/>
            </g>
                  
            <line class="bond" id="mol1bnd21" x1="79.17" x2="79.17" y1="43.46" y2="36.36"/>
                  
            <line class="bond" id="mol1bnd22" x1="27.67" x2="31.06" y1="45.75" y2="30.89"/>
                  
            <g class="bond" id="mol1bnd23">
                        
                <line x1="31.06" x2="45.67" y1="30.89" y2="26.38"/>
                        
                <line x1="31.68" x2="43.59" y1="28.14" y2="24.47"/>
                      
            </g>
                  
            <line class="bond" id="mol1bnd24" x1="45.67" x2="48.92" y1="26.38" y2="11.49"/>
                  
            <g class="bond" id="mol1bnd25">
                        
                <line x1="48.92" x2="37.78" y1="11.49" y2="1.05"/>
                        
                <line x1="46.24" x2="37.15" y1="12.33" y2="3.81"/>
                      
            </g>
                  
            <line class="bond" id="mol1bnd26" x1="37.78" x2="23.15" y1="1.05" y2="5.66"/>
                  
            <g class="bond" id="mol1bnd27">
                        
                <line x1="23.15" x2="19.9" y1="5.66" y2="20.55"/>
                        
                <line x1="25.23" x2="22.58" y1="7.56" y2="19.71"/>
                      
            </g>
                  
            <line class="bond" id="mol1bnd28" x1="31.06" x2="19.9" y1="30.89" y2="20.55"/>
                  
            <line class="bond" id="mol1bnd29" x1="19.9" x2="7.0" y1="20.55" y2="24.6"/>
                  
            <path class="atom" d="M29.61 82.54h-.72l-2.62 -4.07h-.03q.01 .24 .03 .6q.02 .36 .02 .73v2.74h-.57v-4.9h.71l2.61 4.05h.03q-.01 -.11 -.02 -.33q-.01 -.22 -.02 -.48q-.01 -.26 -.01 -.48v-2.77h.58v4.9z" fill="#3050F8" id="mol1atm5" stroke="none"/>
                  
            <path class="atom" d="M5.57 88.53q.0 .76 -.26 1.33q-.26 .57 -.76 .88q-.5 .32 -1.24 .32q-.76 .0 -1.26 -.32q-.51 -.32 -.76 -.89q-.24 -.57 -.24 -1.33q.0 -.75 .24 -1.31q.25 -.57 .76 -.88q.51 -.32 1.27 -.32q.73 .0 1.23 .32q.5 .31 .76 .88q.26 .57 .26 1.33zM1.71 88.53q.0 .92 .39 1.46q.39 .53 1.22 .53q.84 .0 1.22 -.53q.39 -.54 .39 -1.46q.0 -.93 -.39 -1.45q-.38 -.52 -1.21 -.52q-.83 .0 -1.23 .52q-.39 .52 -.39 1.45z" id="mol1atm7" stroke="none"/>
                  
            <path class="atom" d="M14.78 51.65h-.72l-2.62 -4.07h-.03q.01 .24 .03 .6q.02 .36 .02 .73v2.74h-.57v-4.9h.71l2.61 4.05h.03q-.01 -.11 -.02 -.33q-.01 -.22 -.02 -.48q-.01 -.26 -.01 -.48v-2.77h.58v4.9z" fill="#3050F8" id="mol1atm9" stroke="none"/>
                  
            <g class="atom" id="mol1atm17">
                        
                <path d="M81.12 50.13h-.72l-2.62 -4.07h-.03q.01 .24 .03 .6q.02 .36 .02 .73v2.74h-.57v-4.9h.71l2.61 4.05h.03q-.01 -.11 -.02 -.33q-.01 -.22 -.02 -.48q-.01 -.26 -.01 -.48v-2.77h.58v4.9z" fill="#3050F8" stroke="none"/>
                        
                <path d="M82.79 45.08h.82v.29h-.82v.85h-.3v-.85h-.82v-.29h.82v-.85h.3v.85z" fill="#3050F8" stroke="none"/>
                      
            </g>
                  
            <path class="atom" d="M94.63 55.29q.0 .76 -.26 1.33q-.26 .57 -.76 .88q-.5 .32 -1.24 .32q-.76 .0 -1.26 -.32q-.51 -.32 -.76 -.89q-.24 -.57 -.24 -1.33q.0 -.75 .24 -1.31q.25 -.57 .76 -.88q.51 -.32 1.27 -.32q.73 .0 1.23 .32q.5 .31 .76 .88q.26 .57 .26 1.33zM90.77 55.29q.0 .92 .39 1.46q.39 .53 1.22 .53q.84 .0 1.22 -.53q.39 -.54 .39 -1.46q.0 -.93 -.39 -1.45q-.38 -.52 -1.21 -.52q-.83 .0 -1.23 .52q-.39 .52 -.39 1.45z" id="mol1atm18" stroke="none"/>
                  
            <g class="atom" id="mol1atm19">
                        
                <path d="M81.43 32.43q.0 .76 -.26 1.33q-.26 .57 -.76 .88q-.5 .32 -1.24 .32q-.76 .0 -1.26 -.32q-.51 -.32 -.76 -.89q-.24 -.57 -.24 -1.33q.0 -.75 .24 -1.31q.25 -.57 .76 -.88q.51 -.32 1.27 -.32q.73 .0 1.23 .32q.5 .31 .76 .88q.26 .57 .26 1.33zM77.57 32.43q.0 .92 .39 1.46q.39 .53 1.22 .53q.84 .0 1.22 -.53q.39 -.54 .39 -1.46q.0 -.93 -.39 -1.45q-.38 -.52 -1.21 -.52q-.83 .0 -1.23 .52q-.39 .52 -.39 1.45z" stroke="none"/>
                        
                <path d="M83.93 29.77v.29h-1.93v-.29h1.93z" stroke="none"/>
                      
            </g>
                  
            <path class="atom" d="M2.91 23.3q-.79 .0 -1.24 .53q-.45 .52 -.45 1.45q.0 .91 .42 1.45q.42 .53 1.27 .53q.32 .0 .61 -.05q.29 -.06 .57 -.14v.54q-.27 .1 -.57 .15q-.29 .05 -.7 .05q-.74 .0 -1.25 -.31q-.5 -.31 -.75 -.88q-.25 -.57 -.25 -1.34q.0 -.74 .27 -1.31q.27 -.57 .8 -.88q.53 -.32 1.28 -.32q.78 .0 1.35 .29l-.24 .52q-.23 -.1 -.51 -.18q-.27 -.08 -.61 -.08zM5.66 27.72h-.6v-5.21h.6v5.21z" fill="#1FF01F" id="mol1atm26" stroke="none"/>
                
            <line class="hi" id="mol1bnd5" stroke="#3050F8" x1="28.54" x2="29.799999999999997" y1="83.9" y2="89.42500000000001"/>
            <line class="hi" id="mol1bnd6" stroke="#3050F8" x1="24.37" x2="18.605" y1="79.32" y2="77.97999999999999"/>
            <line class="hi" id="mol1bnd9" stroke="#3050F8" x1="11.05" x2="8.645" y1="52.91" y2="57.915"/>
            <line class="hi" id="mol1bnd13" stroke="#3050F8" x1="30.71" x2="35.135000000000005" y1="77.65" y2="74.095"/>
            <line class="hi" id="mol1bnd19" stroke="#3050F8" x1="76.02" x2="71.0" y1="49.5" y2="52.4"/>
            <line class="hi" id="mol1bnd21" stroke="#3050F8" x1="79.17" x2="79.17" y1="43.46" y2="39.91"/>
            <line class="hi" id="mol1bnd21" stroke="#3050F8" x1="79.17" x2="79.17" y1="43.46" y2="39.91"/>
            <line class="hi" id="mol1bnd21" stroke="#FF0D0D" x1="79.17" x2="79.17" y1="36.36" y2="39.91"/>
            <line class="hi" id="mol1bnd29" stroke="#1FF01F" x1="7.0" x2="13.45" y1="24.6" y2="22.575000000000003"/>
        </g>
          
    </g>
    
</svg>
