<svg xmlns="http://www.w3.org/2000/svg" xmlns:xlink="http://www.w3.org/1999/xlink" height="71.24mm" version="1.2" viewBox="0 0 86.72 71.24" width="86.72mm">
      
    <desc>Generated by the Chemistry Development Kit (http://github.com/cdk)</desc>
      
    <g fill="#FF0D0D" stroke="#000000" stroke-linecap="round" stroke-linejoin="round" stroke-width=".7">
            
        <rect fill="#FFFFFF" height="72.0" stroke="none" width="87.0" x=".0" y=".0"/>
            
        <g class="mol" id="mol1">
                  
            <line class="bond" id="mol1bnd1" x1="33.02" x2="28.34" y1="70.24" y2="55.71"/>
                  
            <line class="bond" id="mol1bnd2" x1="28.34" x2="40.64" y1="55.71" y2="46.77"/>
                  
            <line class="bond" id="mol1bnd3" x1="40.64" x2="49.86" y1="46.77" y2="53.47"/>
                  
            <line class="bond" id="mol1bnd4" x1="51.71" x2="48.26" y1="59.49" y2="70.24"/>
                  
            <line class="bond" id="mol1bnd5" x1="33.02" x2="48.26" y1="70.24" y2="70.24"/>
                  
            <line class="bond" id="mol1bnd6" x1="40.64" x2="40.64" y1="46.77" y2="31.53"/>
                  
            <line class="bond" id="mol1bnd7" x1="40.64" x2="27.44" y1="31.53" y2="23.91"/>
                  
            <g class="bond" id="mol1bnd8">
                        
                <line x1="14.24" x2="27.44" y1="31.54" y2="23.91"/>
                        
                <line x1="14.24" x2="25.0" y1="28.72" y2="22.5"/>
                      
            </g>
                  
            <line class="bond" id="mol1bnd9" x1="14.24" x2="1.04" y1="31.54" y2="23.92"/>
                  
            <g class="bond" id="mol1bnd10">
                        
                <line x1="1.04" x2="1.04" y1="8.67" y2="23.92"/>
                        
                <line x1="3.48" x2="3.48" y1="10.07" y2="22.51"/>
                      
            </g>
                  
            <line class="bond" id="mol1bnd11" x1="1.04" x2="14.25" y1="8.67" y2="1.04"/>
                  
            <g class="bond" id="mol1bnd12">
                        
                <line x1="27.44" x2="14.25" y1="8.66" y2="1.04"/>
                        
                <line x1="25.01" x2="14.25" y1="10.07" y2="3.85"/>
                      
            </g>
                  
            <line class="bond" id="mol1bnd13" x1="27.44" x2="27.44" y1="23.91" y2="8.66"/>
                  
            <line class="bond" id="mol1bnd14" x1="40.64" x2="55.65" y1="31.53" y2="34.17"/>
                  
            <g class="bond" id="mol1bnd15">
                        
                <line x1="65.44" x2="55.65" y1="22.49" y2="34.17"/>
                        
                <line x1="66.41" x2="58.42" y1="25.13" y2="34.66"/>
                      
            </g>
                  
            <line class="bond" id="mol1bnd16" x1="65.44" x2="80.45" y1="22.49" y2="25.14"/>
                  
            <g class="bond" id="mol1bnd17">
                        
                <line x1="85.66" x2="80.45" y1="39.47" y2="25.14"/>
                        
                <line x1="82.89" x2="78.64" y1="38.98" y2="27.29"/>
                      
            </g>
                  
            <line class="bond" id="mol1bnd18" x1="85.66" x2="75.87" y1="39.47" y2="51.15"/>
                  
            <g class="bond" id="mol1bnd19">
                        
                <line x1="60.86" x2="75.87" y1="48.5" y2="51.15"/>
                        
                <line x1="62.67" x2="74.9" y1="46.35" y2="48.5"/>
                      
            </g>
                  
            <line class="bond" id="mol1bnd20" x1="55.65" x2="60.86" y1="34.17" y2="48.5"/>
                  
            <line class="bond" id="mol1bnd21" x1="40.64" x2="44.48" y1="31.53" y2="20.96"/>
                  
            <g class="atom" id="mol1atm4">
                        
                <path d="M54.87 58.16h-.72l-2.62 -4.07h-.03q.01 .24 .03 .6q.02 .36 .02 .73v2.74h-.57v-4.9h.71l2.61 4.05h.03q-.01 -.11 -.02 -.33q-.01 -.22 -.02 -.48q-.01 -.26 -.01 -.48v-2.77h.58v4.9z" fill="#3050F8" stroke="none"/>
                        
                <path d="M59.18 58.16h-.62v-2.29h-2.51v2.29h-.61v-4.9h.61v2.07h2.51v-2.07h.62v4.9z" fill="#3050F8" stroke="none"/>
                      
            </g>
                  
            <g class="atom" id="mol1atm19">
                        
                <path d="M48.11 17.2q.0 .76 -.26 1.33q-.26 .57 -.76 .88q-.5 .32 -1.24 .32q-.76 .0 -1.26 -.32q-.51 -.32 -.76 -.89q-.24 -.57 -.24 -1.33q.0 -.75 .24 -1.31q.25 -.57 .76 -.88q.51 -.32 1.27 -.32q.73 .0 1.23 .32q.5 .31 .76 .88q.26 .57 .26 1.33zM44.25 17.2q.0 .92 .39 1.46q.39 .53 1.22 .53q.84 .0 1.22 -.53q.39 -.54 .39 -1.46q.0 -.93 -.39 -1.45q-.38 -.52 -1.21 -.52q-.83 .0 -1.23 .52q-.39 .52 -.39 1.45z" stroke="none"/>
                        
                <path d="M52.42 19.66h-.62v-2.29h-2.51v2.29h-.61v-4.9h.61v2.07h2.51v-2.07h.62v4.9z" stroke="none"/>
                      
            </g>
                
            <line class="hi" id="mol1bnd3" stroke="#3050F8" x1="49.86" x2="45.25" y1="53.47" y2="50.120000000000005"/>
            <line class="hi" id="mol1bnd4" stroke="#3050F8" x1="51.71" x2="49.985" y1="59.49" y2="64.865"/>
            <line class="hi" id="mol1bnd4" stroke="#3050F8" x1="51.71" x2="49.985" y1="59.49" y2="64.865"/>
            <line class="hi" id="mol1bnd21" stroke="#FF0D0D" x1="44.48" x2="42.56" y1="20.96" y2="26.245"/>
        </g>
          
    </g>
    
</svg>
