<svg xmlns="http://www.w3.org/2000/svg" xmlns:xlink="http://www.w3.org/1999/xlink" height="103.38mm" version="1.2" viewBox="0 0 102.49 103.38" width="102.49mm">
      
    <desc>Generated by the Chemistry Development Kit (http://github.com/cdk)</desc>
      
    <g fill="#3050F8" stroke="#000000" stroke-linecap="round" stroke-linejoin="round" stroke-width=".7">
            
        <rect fill="#FFFFFF" height="104.0" stroke="none" width="103.0" x=".0" y=".0"/>
            
        <g class="mol" id="mol1">
                  
            <g class="bond" id="mol1bnd1">
                        
                <line x1="86.09" x2="101.01" y1="20.66" y2="17.54"/>
                        
                <line x1="87.97" x2="101.51" y1="22.76" y2="19.93"/>
                      
            </g>
                  
            <line class="bond" id="mol1bnd2" x1="86.09" x2="81.34" y1="20.66" y2="35.13"/>
                  
            <line class="bond" id="mol1bnd3" x1="81.34" x2="69.73" y1="35.13" y2="37.56"/>
                  
            <line class="bond" id="mol1bnd4" x1="65.18" x2="61.66" y1="42.03" y2="52.73"/>
                  
            <line class="bond" id="mol1bnd5" x1="61.66" x2="46.74" y1="52.73" y2="55.85"/>
                  
            <line class="bond" id="mol1bnd6" x1="46.74" x2="41.98" y1="55.85" y2="70.33"/>
                  
            <g class="bond" id="mol1bnd7">
                        
                <line x1="50.92" x2="41.98" y1="82.62" y2="70.33"/>
                        
                <line x1="47.91" x2="41.05" y1="82.62" y2="73.18"/>
                      
            </g>
                  
            <line class="bond" id="mol1bnd8" x1="50.92" x2="44.59" y1="82.62" y2="91.33"/>
                  
            <line class="bond" id="mol1bnd9" x1="38.71" x2="27.45" y1="93.84" y2="90.14"/>
                  
            <g class="bond" id="mol1bnd10">
                        
                <line x1="14.25" x2="27.45" y1="97.76" y2="90.14"/>
                        
                <line x1="14.25" x2="25.03" y1="94.94" y2="88.72"/>
                      
            </g>
                  
            <line class="bond" id="mol1bnd11" x1="14.25" x2="1.04" y1="97.76" y2="90.04"/>
                  
            <g class="bond" id="mol1bnd12">
                        
                <line x1="1.14" x2="1.04" y1="74.8" y2="90.04"/>
                        
                <line x1="3.57" x2="3.49" y1="76.22" y2="88.64"/>
                      
            </g>
                  
            <line class="bond" id="mol1bnd13" x1="1.14" x2="14.35" y1="74.8" y2="67.28"/>
                  
            <g class="bond" id="mol1bnd14">
                        
                <line x1="27.56" x2="14.35" y1="74.9" y2="67.28"/>
                        
                <line x1="25.11" x2="14.34" y1="76.3" y2="70.09"/>
                      
            </g>
                  
            <line class="bond" id="mol1bnd15" x1="27.45" x2="27.56" y1="90.14" y2="74.9"/>
                  
            <line class="bond" id="mol1bnd16" x1="41.98" x2="27.56" y1="70.33" y2="74.9"/>
                  
            <line class="bond" id="mol1bnd17" x1="63.54" x2="56.26" y1="35.04" y2="26.89"/>
                  
            <line class="bond" id="mol1bnd18" x1="56.26" x2="61.02" y1="26.89" y2="12.41"/>
                  
            <g class="bond" id="mol1bnd19">
                        
                <line x1="61.02" x2="50.86" y1="12.41" y2="1.05"/>
                        
                <line x1="58.26" x2="49.04" y1="12.99" y2="2.68"/>
                      
            </g>
                  
            <path class="atom" d="M68.36 40.7h-.72l-2.62 -4.07h-.03q.01 .24 .03 .6q.02 .36 .02 .73v2.74h-.57v-4.9h.71l2.61 4.05h.03q-.01 -.11 -.02 -.33q-.01 -.22 -.02 -.48q-.01 -.26 -.01 -.48v-2.77h.58v4.9z" id="mol1atm4" stroke="none"/>
                  
            <g class="atom" id="mol1atm9">
                        
                <path d="M43.92 97.36h-.72l-2.62 -4.07h-.03q.01 .24 .03 .6q.02 .36 .02 .73v2.74h-.57v-4.9h.71l2.61 4.05h.03q-.01 -.11 -.02 -.33q-.01 -.22 -.02 -.48q-.01 -.26 -.01 -.48v-2.77h.58v4.9z" stroke="none"/>
                        
                <path d="M43.79 102.82h-.62v-2.29h-2.51v2.29h-.61v-4.9h.61v2.07h2.51v-2.07h.62v4.9z" stroke="none"/>
                      
            </g>
                
            <line class="hi" id="mol1bnd3" stroke="#3050F8" x1="69.73" x2="75.535" y1="37.56" y2="36.345"/>
            <line class="hi" id="mol1bnd4" stroke="#3050F8" x1="65.18" x2="63.42" y1="42.03" y2="47.379999999999995"/>
            <line class="hi" id="mol1bnd8" stroke="#3050F8" x1="44.59" x2="47.755" y1="91.33" y2="86.975"/>
            <line class="hi" id="mol1bnd9" stroke="#3050F8" x1="38.71" x2="33.08" y1="93.84" y2="91.99000000000001"/>
            <line class="hi" id="mol1bnd17" stroke="#3050F8" x1="63.54" x2="59.9" y1="35.04" y2="30.965"/>
        </g>
          
    </g>
    
</svg>
