<svg xmlns="http://www.w3.org/2000/svg" xmlns:xlink="http://www.w3.org/1999/xlink" height="67.92mm" version="1.2" viewBox="0 0 91.29 67.92" width="91.29mm">
      
    <desc>Generated by the Chemistry Development Kit (http://github.com/cdk)</desc>
      
    <g fill="#FF0D0D" stroke="#000000" stroke-linecap="round" stroke-linejoin="round" stroke-width=".7">
            
        <rect fill="#FFFFFF" height="68.0" stroke="none" width="92.0" x=".0" y=".0"/>
            
        <g class="mol" id="mol1">
                  
            <line class="bond" id="mol1bnd1" x1="1.05" x2="10.85" y1="41.97" y2="30.29"/>
                  
            <line class="bond" id="mol1bnd2" x1="10.85" x2="22.22" y1="30.29" y2="32.3"/>
                  
            <line class="bond" id="mol1bnd3" x1="28.4" x2="35.65" y1="29.9" y2="21.26"/>
                  
            <g class="bond" id="mol1bnd4">
                        
                <line x1="34.75" x2="30.66" y1="22.34" y2="11.11"/>
                        
                <line x1="37.04" x2="32.95" y1="21.51" y2="10.27"/>
                      
                <line class="hi" stroke="#FF0D0D" x1="30.66" x2="32.705" y1="11.11" y2="16.725"/>
                <line class="hi" stroke="#FF0D0D" x1="32.95" x2="34.995000000000005" y1="10.27" y2="15.89"/>
            </g>
                  
            <line class="bond" id="mol1bnd5" x1="35.65" x2="50.66" y1="21.26" y2="23.91"/>
                  
            <line class="bond" id="mol1bnd6" x1="50.66" x2="63.86" y1="23.91" y2="31.54"/>
                  
            <line class="bond" id="mol1bnd7" x1="63.86" x2="77.06" y1="31.54" y2="23.92"/>
                  
            <line class="bond" id="mol1bnd8" x1="77.06" x2="77.06" y1="23.92" y2="12.52"/>
                  
            <line class="bond" id="mol1bnd9" x1="73.9" x2="63.85" y1="6.84" y2="1.04"/>
                  
            <line class="bond" id="mol1bnd10" x1="63.85" x2="50.66" y1="1.04" y2="8.66"/>
                  
            <line class="bond" id="mol1bnd11" x1="50.66" x2="50.66" y1="23.91" y2="8.66"/>
                  
            <line class="bond" id="mol1bnd12" x1="80.21" x2="90.26" y1="6.85" y2="1.05"/>
                  
            <line class="bond" id="mol1bnd13" x1="50.66" x2="45.45" y1="23.91" y2="38.23"/>
                  
            <g class="bond" id="mol1bnd14">
                        
                <line x1="55.25" x2="45.45" y1="49.91" y2="38.23"/>
                        
                <line x1="52.48" x2="44.48" y1="50.4" y2="40.87"/>
                      
            </g>
                  
            <line class="bond" id="mol1bnd15" x1="55.25" x2="50.04" y1="49.91" y2="64.23"/>
                  
            <g class="bond" id="mol1bnd16">
                        
                <line x1="35.02" x2="50.04" y1="66.87" y2="64.23"/>
                        
                <line x1="35.98" x2="48.23" y1="64.22" y2="62.07"/>
                      
            </g>
                  
            <line class="bond" id="mol1bnd17" x1="35.02" x2="25.21" y1="66.87" y2="55.19"/>
                  
            <g class="bond" id="mol1bnd18">
                        
                <line x1="30.43" x2="25.21" y1="40.87" y2="55.19"/>
                        
                <line x1="32.24" x2="27.99" y1="43.03" y2="54.7"/>
                      
            </g>
                  
            <line class="bond" id="mol1bnd19" x1="45.45" x2="30.43" y1="38.23" y2="40.87"/>
                  
            <path class="atom" d="M28.12 32.93q.0 .76 -.26 1.33q-.26 .57 -.76 .88q-.5 .32 -1.24 .32q-.76 .0 -1.26 -.32q-.51 -.32 -.76 -.89q-.24 -.57 -.24 -1.33q.0 -.75 .24 -1.31q.25 -.57 .76 -.88q.51 -.32 1.27 -.32q.73 .0 1.23 .32q.5 .31 .76 .88q.26 .57 .26 1.33zM24.25 32.93q.0 .92 .39 1.46q.39 .53 1.22 .53q.84 .0 1.22 -.53q.39 -.54 .39 -1.46q.0 -.93 -.39 -1.45q-.38 -.52 -1.21 -.52q-.83 .0 -1.23 .52q-.39 .52 -.39 1.45z" id="mol1atm3" stroke="none"/>
                  
            <path class="atom" d="M32.7 6.94q.0 .76 -.26 1.33q-.26 .57 -.76 .88q-.5 .32 -1.24 .32q-.76 .0 -1.26 -.32q-.51 -.32 -.76 -.89q-.24 -.57 -.24 -1.33q.0 -.75 .24 -1.31q.25 -.57 .76 -.88q.51 -.32 1.27 -.32q.73 .0 1.23 .32q.5 .31 .76 .88q.26 .57 .26 1.33zM28.83 6.94q.0 .92 .39 1.46q.39 .53 1.22 .53q.84 .0 1.22 -.53q.39 -.54 .39 -1.46q.0 -.93 -.39 -1.45q-.38 -.52 -1.21 -.52q-.83 .0 -1.23 .52q-.39 .52 -.39 1.45z" id="mol1atm5" stroke="none"/>
                  
            <path class="atom" d="M79.0 11.12h-.72l-2.62 -4.07h-.03q.01 .24 .03 .6q.02 .36 .02 .73v2.74h-.57v-4.9h.71l2.61 4.05h.03q-.01 -.11 -.02 -.33q-.01 -.22 -.02 -.48q-.01 -.26 -.01 -.48v-2.77h.58v4.9z" fill="#3050F8" id="mol1atm9" stroke="none"/>
                
            <line class="hi" id="mol1bnd2" stroke="#FF0D0D" x1="22.22" x2="16.535" y1="32.3" y2="31.294999999999998"/>
            <line class="hi" id="mol1bnd3" stroke="#FF0D0D" x1="28.4" x2="32.025" y1="29.9" y2="25.58"/>
            <line class="hi" id="mol1bnd8" stroke="#3050F8" x1="77.06" x2="77.06" y1="12.52" y2="18.22"/>
            <line class="hi" id="mol1bnd9" stroke="#3050F8" x1="73.9" x2="68.875" y1="6.84" y2="3.94"/>
            <line class="hi" id="mol1bnd12" stroke="#3050F8" x1="80.21" x2="85.235" y1="6.85" y2="3.9499999999999997"/>
        </g>
          
    </g>
    
</svg>
