<svg xmlns="http://www.w3.org/2000/svg" xmlns:xlink="http://www.w3.org/1999/xlink" height="43.86mm" version="1.2" viewBox="0 0 73.49 43.86" width="73.49mm">
      
    <desc>Generated by the Chemistry Development Kit (http://github.com/cdk)</desc>
      
    <g fill="#3050F8" stroke="#000000" stroke-linecap="round" stroke-linejoin="round" stroke-width=".7">
            
        <rect fill="#FFFFFF" height="44.0" stroke="none" width="74.0" x=".0" y=".0"/>
            
        <g class="mol" id="mol1">
                  
            <line class="bond" id="mol1bnd1" x1="25.85" x2="37.53" y1=".97" y2="3.03"/>
                  
            <line class="bond" id="mol1bnd2" x1="42.22" x2="46.05" y1="7.38" y2="17.93"/>
                  
            <line class="bond" id="mol1bnd3" x1="46.05" x2="59.26" y1="17.93" y2="10.31"/>
                  
            <line class="bond" id="mol1bnd4" x1="59.26" x2="72.46" y1="10.31" y2="17.93"/>
                  
            <line class="bond" id="mol1bnd5" x1="72.46" x2="72.46" y1="17.93" y2="33.16"/>
                  
            <line class="bond" id="mol1bnd6" x1="72.46" x2="59.26" y1="33.16" y2="40.78"/>
                  
            <line class="bond" id="mol1bnd7" x1="59.26" x2="46.05" y1="40.78" y2="33.16"/>
                  
            <line class="bond" id="mol1bnd8" x1="46.05" x2="46.05" y1="17.93" y2="33.16"/>
                  
            <g class="bond" id="mol1bnd9">
                        
                <line x1="47.27" x2="36.75" y1="33.86" y2="39.94"/>
                        
                <line x1="46.05" x2="35.53" y1="31.75" y2="37.83"/>
                      
                <line class="hi" stroke="#FF0D0D" x1="36.75" x2="42.010000000000005" y1="39.94" y2="36.9"/>
                <line class="hi" stroke="#FF0D0D" x1="35.53" x2="40.79" y1="37.83" y2="34.79"/>
            </g>
                  
            <line class="bond" id="mol1bnd10" x1="46.05" x2="31.05" y1="17.93" y2="20.57"/>
                  
            <g class="bond" id="mol1bnd11">
                        
                <line x1="25.84" x2="31.05" y1="34.89" y2="20.57"/>
                        
                <line x1="24.03" x2="28.28" y1="32.74" y2="21.06"/>
                      
            </g>
                  
            <line class="bond" id="mol1bnd12" x1="25.84" x2="10.84" y1="34.89" y2="37.54"/>
                  
            <g class="bond" id="mol1bnd13">
                        
                <line x1="1.05" x2="10.84" y1="25.86" y2="37.54"/>
                        
                <line x1="3.83" x2="11.81" y1="25.37" y2="34.89"/>
                      
            </g>
                  
            <line class="bond" id="mol1bnd14" x1="1.05" x2="6.26" y1="25.86" y2="11.54"/>
                  
            <g class="bond" id="mol1bnd15">
                        
                <line x1="21.26" x2="6.26" y1="8.89" y2="11.54"/>
                        
                <line x1="20.3" x2="8.07" y1="11.54" y2="13.69"/>
                      
            </g>
                  
            <line class="bond" id="mol1bnd16" x1="31.05" x2="21.26" y1="20.57" y2="8.89"/>
                  
            <g class="atom" id="mol1atm2">
                        
                <path d="M42.79 6.06h-.72l-2.62 -4.07h-.03q.01 .24 .03 .6q.02 .36 .02 .73v2.74h-.57v-4.9h.71l2.61 4.05h.03q-.01 -.11 -.02 -.33q-.01 -.22 -.02 -.48q-.01 -.26 -.01 -.48v-2.77h.58v4.9z" stroke="none"/>
                        
                <path d="M47.09 6.06h-.62v-2.29h-2.51v2.29h-.61v-4.9h.61v2.07h2.51v-2.07h.62v4.9z" stroke="none"/>
                      
            </g>
                  
            <path class="atom" d="M35.12 40.77q.0 .76 -.26 1.33q-.26 .57 -.76 .88q-.5 .32 -1.24 .32q-.76 .0 -1.26 -.32q-.51 -.32 -.76 -.89q-.24 -.57 -.24 -1.33q.0 -.75 .24 -1.31q.25 -.57 .76 -.88q.51 -.32 1.27 -.32q.73 .0 1.23 .32q.5 .31 .76 .88q.26 .57 .26 1.33zM31.26 40.77q.0 .92 .39 1.46q.39 .53 1.22 .53q.84 .0 1.22 -.53q.39 -.54 .39 -1.46q.0 -.93 -.39 -1.45q-.38 -.52 -1.21 -.52q-.83 .0 -1.23 .52q-.39 .52 -.39 1.45z" fill="#FF0D0D" id="mol1atm9" stroke="none"/>
                
            <line class="hi" id="mol1bnd1" stroke="#3050F8" x1="37.53" x2="31.69" y1="3.0299999999999994" y2="2.0"/>
            <line class="hi" id="mol1bnd2" stroke="#3050F8" x1="42.22" x2="44.135" y1="7.38" y2="12.655"/>
            <line class="hi" id="mol1bnd2" stroke="#3050F8" x1="42.36369105209595" x2="44.135" y1="7.775806945068484" y2="12.655"/>
        </g>
          
    </g>
    
</svg>
