<svg xmlns="http://www.w3.org/2000/svg" xmlns:xlink="http://www.w3.org/1999/xlink" height="90.77mm" version="1.2" viewBox="0 0 100.09 90.77" width="100.09mm">
      
    <desc>Generated by the Chemistry Development Kit (http://github.com/cdk)</desc>
      
    <g fill="#FF0D0D" stroke="#000000" stroke-linecap="round" stroke-linejoin="round" stroke-width=".7">
            
        <rect fill="#FFFFFF" height="91.0" stroke="none" width="101.0" x=".0" y=".0"/>
            
        <g class="mol" id="mol1">
                  
            <line class="bond" id="mol1bnd1" x1="99.08" x2="93.87" y1="78.8" y2="64.48"/>
                  
            <line class="bond" id="mol1bnd2" x1="93.87" x2="78.86" y1="64.48" y2="61.83"/>
                  
            <g class="bond" id="mol1bnd3">
                        
                <line x1="80.25" x2="72.54" y1="62.07" y2="71.26"/>
                        
                <line x1="78.38" x2="70.67" y1="60.51" y2="69.69"/>
                      
                <line class="hi" stroke="#FF0D0D" x1="72.54" x2="76.39500000000001" y1="71.26" y2="66.665"/>
                <line class="hi" stroke="#FF0D0D" x1="70.67" x2="74.525" y1="69.69" y2="65.1"/>
            </g>
                  
            <line class="bond" id="mol1bnd4" x1="78.86" x2="75.01" y1="61.83" y2="51.26"/>
                  
            <g class="bond" id="mol1bnd5">
                        
                <line stroke="#000000" x1="53.9" x2="53.78" y1="43.67" y2="44.36"/>
                        
                <line stroke="#FF0D0D" x1="56.13" x2="55.94" y1="43.87" y2="44.94"/>
                        
                <line stroke="#FF0D0D" x1="58.37" x2="58.11" y1="44.06" y2="45.52"/>
                        
                <line stroke="#FF0D0D" x1="60.6" x2="60.28" y1="44.26" y2="46.1"/>
                        
                <line stroke="#FF0D0D" x1="62.84" x2="62.45" y1="44.46" y2="46.68"/>
                        
                <line stroke="#FF0D0D" x1="65.07" x2="64.61" y1="44.65" y2="47.26"/>
                        
                <line stroke="#FF0D0D" x1="67.31" x2="66.78" y1="44.85" y2="47.84"/>
                        
                <line stroke="#FF0D0D" x1="69.54" x2="68.95" y1="45.05" y2="48.42"/>
                      
            </g>
                  
            <line class="bond" id="mol1bnd6" x1="53.84" x2="40.64" y1="44.02" y2="36.4"/>
                  
            <line class="bond" id="mol1bnd7" x1="40.64" x2="27.44" y1="36.4" y2="44.02"/>
                  
            <g class="bond" id="mol1bnd8">
                        
                <line x1="27.44" x2="14.24" y1="44.02" y2="36.39"/>
                        
                <line x1="25.0" x2="14.24" y1="45.42" y2="39.2"/>
                      
            </g>
                  
            <line class="bond" id="mol1bnd9" x1="14.24" x2="1.04" y1="36.39" y2="44.01"/>
                  
            <g class="bond" id="mol1bnd10">
                        
                <line x1="1.04" x2="1.04" y1="44.01" y2="59.26"/>
                        
                <line x1="3.48" x2="3.48" y1="45.42" y2="57.85"/>
                      
            </g>
                  
            <line class="bond" id="mol1bnd11" x1="1.04" x2="14.25" y1="59.26" y2="66.88"/>
                  
            <g class="bond" id="mol1bnd12">
                        
                <line x1="14.25" x2="27.44" y1="66.88" y2="59.26"/>
                        
                <line x1="14.25" x2="25.01" y1="64.07" y2="57.86"/>
                      
            </g>
                  
            <line class="bond" id="mol1bnd13" x1="27.44" x2="27.44" y1="44.02" y2="59.26"/>
                  
            <path class="bond" d="M53.51 43.9l.66 .24l7.44 -14.89l-2.56 .45l-1.67 -1.99z" fill="#000000" id="mol1bnd14" stroke="none"/>
                  
            <g class="bond" id="mol1bnd15">
                        
                <line x1="49.24" x2="59.05" y1="18.02" y2="29.69"/>
                        
                <line x1="52.02" x2="60.01" y1="17.53" y2="27.05"/>
                      
            </g>
                  
            <line class="bond" id="mol1bnd16" x1="49.24" x2="54.46" y1="18.02" y2="3.7"/>
                  
            <g class="bond" id="mol1bnd17">
                        
                <line x1="69.47" x2="54.46" y1="1.05" y2="3.7"/>
                        
                <line x1="68.51" x2="56.27" y1="3.7" y2="5.85"/>
                      
            </g>
                  
            <line class="bond" id="mol1bnd18" x1="69.47" x2="79.28" y1="1.05" y2="12.73"/>
                  
            <g class="bond" id="mol1bnd19">
                        
                <line x1="74.07" x2="79.28" y1="27.05" y2="12.73"/>
                        
                <line x1="72.26" x2="76.51" y1="24.89" y2="13.22"/>
                      
            </g>
                  
            <line class="bond" id="mol1bnd20" x1="59.05" x2="74.07" y1="29.69" y2="27.05"/>
                  
            <line class="bond" id="mol1bnd21" x1="53.84" x2="53.84" y1="44.02" y2="59.26"/>
                  
            <g class="bond" id="mol1bnd22">
                        
                <line stroke="#000000" x1="54.01" x2="53.66" y1="58.95" y2="59.56"/>
                        
                <line stroke="#FF0D0D" x1="56.36" x2="55.71" y1="59.97" y2="61.08"/>
                        
                <line stroke="#FF0D0D" x1="58.7" x2="57.77" y1="60.99" y2="62.6"/>
                        
                <line stroke="#FF0D0D" x1="61.05" x2="59.82" y1="62.0" y2="64.13"/>
                        
                <line stroke="#FF0D0D" x1="63.39" x2="61.88" y1="63.02" y2="65.65"/>
                        
                <line stroke="#FF0D0D" x1="65.74" x2="63.93" y1="64.04" y2="67.17"/>
                        
                <line stroke="#FF0D0D" x1="68.08" x2="65.98" y1="65.06" y2="68.69"/>
                      
            </g>
                  
            <line class="bond" id="mol1bnd23" x1="53.84" x2="40.64" y1="59.26" y2="66.88"/>
                  
            <line class="bond" id="mol1bnd24" x1="40.64" x2="40.64" y1="66.88" y2="78.27"/>
                  
            <line class="bond" id="mol1bnd25" x1="37.48" x2="27.44" y1="83.94" y2="89.74"/>
                  
            <line class="bond" id="mol1bnd26" x1="43.79" x2="53.84" y1="83.94" y2="89.74"/>
                  
            <path class="atom" d="M71.32 73.5q.0 .76 -.26 1.33q-.26 .57 -.76 .88q-.5 .32 -1.24 .32q-.76 .0 -1.26 -.32q-.51 -.32 -.76 -.89q-.24 -.57 -.24 -1.33q.0 -.75 .24 -1.31q.25 -.57 .76 -.88q.51 -.32 1.27 -.32q.73 .0 1.23 .32q.5 .31 .76 .88q.26 .57 .26 1.33zM67.46 73.5q.0 .92 .39 1.46q.39 .53 1.22 .53q.84 .0 1.22 -.53q.39 -.54 .39 -1.46q.0 -.93 -.39 -1.45q-.38 -.52 -1.21 -.52q-.83 .0 -1.23 .52q-.39 .52 -.39 1.45z" id="mol1atm4" stroke="none"/>
                  
            <path class="atom" d="M75.91 47.51q.0 .76 -.26 1.33q-.26 .57 -.76 .88q-.5 .32 -1.24 .32q-.76 .0 -1.26 -.32q-.51 -.32 -.76 -.89q-.24 -.57 -.24 -1.33q.0 -.75 .24 -1.31q.25 -.57 .76 -.88q.51 -.32 1.27 -.32q.73 .0 1.23 .32q.5 .31 .76 .88q.26 .57 .26 1.33zM72.04 47.51q.0 .92 .39 1.46q.39 .53 1.22 .53q.84 .0 1.22 -.53q.39 -.54 .39 -1.46q.0 -.93 -.39 -1.45q-.38 -.52 -1.21 -.52q-.83 .0 -1.23 .52q-.39 .52 -.39 1.45z" id="mol1atm5" stroke="none"/>
                  
            <path class="atom" d="M42.58 84.57h-.72l-2.62 -4.07h-.03q.01 .24 .03 .6q.02 .36 .02 .73v2.74h-.57v-4.9h.71l2.61 4.05h.03q-.01 -.11 -.02 -.33q-.01 -.22 -.02 -.48q-.01 -.26 -.01 -.48v-2.77h.58v4.9z" fill="#3050F8" id="mol1atm23" stroke="none"/>
                
            <line class="hi" id="mol1bnd4" stroke="#FF0D0D" x1="75.01" x2="76.935" y1="51.26" y2="56.545"/>
            <line class="hi" id="mol1bnd24" stroke="#3050F8" x1="40.64" x2="40.64" y1="78.27" y2="72.57499999999999"/>
            <line class="hi" id="mol1bnd25" stroke="#3050F8" x1="37.48" x2="32.46" y1="83.94" y2="86.84"/>
            <line class="hi" id="mol1bnd26" stroke="#3050F8" x1="43.79" x2="48.815" y1="83.94" y2="86.84"/>
        </g>
          
    </g>
    
</svg>
