<svg xmlns="http://www.w3.org/2000/svg" xmlns:xlink="http://www.w3.org/1999/xlink" height="11.74mm" version="1.2" viewBox="0 0 54.87 11.74" width="54.87mm">
      
    <desc>Generated by the Chemistry Development Kit (http://github.com/cdk)</desc>
      
    <g fill="#FF0D0D" stroke="#000000" stroke-linecap="round" stroke-linejoin="round" stroke-width=".7">
            
        <rect fill="#FFFFFF" height="12.0" stroke="none" width="55.0" x=".0" y=".0"/>
            
        <g class="mol" id="mol1">
                  
            <line class="bond" id="mol1bnd1" x1="14.24" x2="1.04" y1="10.7" y2="3.08"/>
                  
            <line class="bond" id="mol1bnd2" x1="14.24" x2="24.15" y1="10.7" y2="4.98"/>
                  
            <line class="bond" id="mol1bnd3" x1="30.71" x2="40.63" y1="4.97" y2="10.7"/>
                  
            <line class="bond" id="mol1bnd4" x1="40.63" x2="53.83" y1="10.7" y2="3.08"/>
                  
            <path class="atom" d="M29.69 3.08q.0 .76 -.26 1.33q-.26 .57 -.76 .88q-.5 .32 -1.24 .32q-.76 .0 -1.26 -.32q-.51 -.32 -.76 -.89q-.24 -.57 -.24 -1.33q.0 -.75 .24 -1.31q.25 -.57 .76 -.88q.51 -.32 1.27 -.32q.73 .0 1.23 .32q.5 .31 .76 .88q.26 .57 .26 1.33zM25.83 3.08q.0 .92 .39 1.46q.39 .53 1.22 .53q.84 .0 1.22 -.53q.39 -.54 .39 -1.46q.0 -.93 -.39 -1.45q-.38 -.52 -1.21 -.52q-.83 .0 -1.23 .52q-.39 .52 -.39 1.45z" id="mol1atm3" stroke="none"/>
                
            <line class="hi" id="mol1bnd2" stroke="#FF0D0D" x1="24.15" x2="19.195" y1="4.98" y2="7.84"/>
            <line class="hi" id="mol1bnd3" stroke="#FF0D0D" x1="30.71" x2="35.67" y1="4.97" y2="7.834999999999999"/>
        </g>
          
    </g>
    
</svg>
