<svg xmlns="http://www.w3.org/2000/svg" xmlns:xlink="http://www.w3.org/1999/xlink" height="73.09mm" version="1.2" viewBox="0 0 108.63 73.09" width="108.63mm">
      
    <desc>Generated by the Chemistry Development Kit (http://github.com/cdk)</desc>
      
    <g fill="#FF0D0D" stroke="#000000" stroke-linecap="round" stroke-linejoin="round" stroke-width=".7">
            
        <rect fill="#FFFFFF" height="74.0" stroke="none" width="109.0" x=".0" y=".0"/>
            
        <g class="mol" id="mol1">
                  
            <line class="bond" id="mol1bnd1" x1="107.66" x2="96.06" y1="9.24" y2="11.69"/>
                  
            <line class="bond" id="mol1bnd2" x1="89.87" x2="82.56" y1="9.19" y2="1.05"/>
                  
            <line class="bond" id="mol1bnd3" x1="91.51" x2="88.02" y1="16.17" y2="26.88"/>
                  
            <line class="bond" id="mol1bnd4" x1="88.02" x2="73.11" y1="26.88" y2="30.03"/>
                  
            <line class="bond" id="mol1bnd5" x1="73.11" x2="68.38" y1="30.03" y2="44.52"/>
                  
            <g class="bond" id="mol1bnd6">
                        
                <line x1="77.32" x2="68.38" y1="56.81" y2="44.52"/>
                        
                <line x1="74.31" x2="67.45" y1="56.81" y2="47.38"/>
                      
            </g>
                  
            <line class="bond" id="mol1bnd7" x1="77.32" x2="70.7" y1="56.81" y2="65.92"/>
                  
            <line class="bond" id="mol1bnd8" x1="64.79" x2="53.85" y1="67.95" y2="64.43"/>
                  
            <g class="bond" id="mol1bnd9">
                        
                <line x1="53.85" x2="53.85" y1="64.43" y2="49.19"/>
                        
                <line x1="51.41" x2="51.41" y1="63.02" y2="50.6"/>
                      
            </g>
                  
            <line class="bond" id="mol1bnd10" x1="68.38" x2="53.85" y1="44.52" y2="49.19"/>
                  
            <line class="bond" id="mol1bnd11" x1="53.85" x2="40.64" y1="49.19" y2="41.57"/>
                  
            <g class="bond" id="mol1bnd12">
                        
                <line x1="40.64" x2="27.43" y1="41.57" y2="49.19"/>
                        
                <line x1="40.64" x2="29.87" y1="44.39" y2="50.6"/>
                      
            </g>
                  
            <line class="bond" id="mol1bnd13" x1="27.43" x2="27.43" y1="49.19" y2="64.43"/>
                  
            <g class="bond" id="mol1bnd14">
                        
                <line x1="27.43" x2="40.64" y1="64.43" y2="72.05"/>
                        
                <line x1="29.87" x2="40.64" y1="63.02" y2="69.24"/>
                      
            </g>
                  
            <line class="bond" id="mol1bnd15" x1="53.85" x2="40.64" y1="64.43" y2="72.05"/>
                  
            <line class="bond" id="mol1bnd16" x1="27.43" x2="17.51" y1="49.19" y2="43.46"/>
                  
            <line class="bond" id="mol1bnd17" x1="10.96" x2="1.04" y1="43.46" y2="49.19"/>
                  
            <path class="atom" d="M94.69 14.84h-.72l-2.62 -4.07h-.03q.01 .24 .03 .6q.02 .36 .02 .73v2.74h-.57v-4.9h.71l2.61 4.05h.03q-.01 -.11 -.02 -.33q-.01 -.22 -.02 -.48q-.01 -.26 -.01 -.48v-2.77h.58v4.9z" fill="#3050F8" id="mol1atm2" stroke="none"/>
                  
            <path class="atom" d="M70.64 69.1q.0 .76 -.26 1.33q-.26 .57 -.76 .88q-.5 .32 -1.24 .32q-.76 .0 -1.26 -.32q-.51 -.32 -.76 -.89q-.24 -.57 -.24 -1.33q.0 -.75 .24 -1.31q.25 -.57 .76 -.88q.51 -.32 1.27 -.32q.73 .0 1.23 .32q.5 .31 .76 .88q.26 .57 .26 1.33zM66.78 69.1q.0 .92 .39 1.46q.39 .53 1.22 .53q.84 .0 1.22 -.53q.39 -.54 .39 -1.46q.0 -.93 -.39 -1.45q-.38 -.52 -1.21 -.52q-.83 .0 -1.23 .52q-.39 .52 -.39 1.45z" id="mol1atm8" stroke="none"/>
                  
            <path class="atom" d="M16.5 41.57q.0 .76 -.26 1.33q-.26 .57 -.76 .88q-.5 .32 -1.24 .32q-.76 .0 -1.26 -.32q-.51 -.32 -.76 -.89q-.24 -.57 -.24 -1.33q.0 -.75 .24 -1.31q.25 -.57 .76 -.88q.51 -.32 1.27 -.32q.73 .0 1.23 .32q.5 .31 .76 .88q.26 .57 .26 1.33zM12.63 41.57q.0 .92 .39 1.46q.39 .53 1.22 .53q.84 .0 1.22 -.53q.39 -.54 .39 -1.46q.0 -.93 -.39 -1.45q-.38 -.52 -1.21 -.52q-.83 .0 -1.23 .52q-.39 .52 -.39 1.45z" id="mol1atm15" stroke="none"/>
                
            <line class="hi" id="mol1bnd1" stroke="#3050F8" x1="96.06" x2="101.86" y1="11.69" y2="10.465"/>
            <line class="hi" id="mol1bnd2" stroke="#3050F8" x1="89.87" x2="86.215" y1="9.19" y2="5.12"/>
            <line class="hi" id="mol1bnd3" stroke="#3050F8" x1="91.51" x2="89.765" y1="16.17" y2="21.525"/>
            <line class="hi" id="mol1bnd7" stroke="#FF0D0D" x1="70.7" x2="74.00999999999999" y1="65.92" y2="61.365"/>
            <line class="hi" id="mol1bnd8" stroke="#FF0D0D" x1="64.79" x2="59.32000000000001" y1="67.95" y2="66.19"/>
            <line class="hi" id="mol1bnd16" stroke="#FF0D0D" x1="17.51" x2="22.47" y1="43.46" y2="46.325"/>
            <line class="hi" id="mol1bnd17" stroke="#FF0D0D" x1="10.96" x2="6.0" y1="43.46" y2="46.325"/>
        </g>
          
    </g>
    
</svg>
