<svg xmlns="http://www.w3.org/2000/svg" xmlns:xlink="http://www.w3.org/1999/xlink" height="83.03mm" version="1.2" viewBox="0 0 113.11 83.03" width="113.11mm">
      
    <desc>Generated by the Chemistry Development Kit (http://github.com/cdk)</desc>
      
    <g fill="#FF0D0D" stroke="#000000" stroke-linecap="round" stroke-linejoin="round" stroke-width=".7">
            
        <rect fill="#FFFFFF" height="84.0" stroke="none" width="114.0" x=".0" y=".0"/>
            
        <g class="mol" id="mol1">
                  
            <line class="bond" id="mol1bnd1" x1="80.23" x2="80.23" y1=".91" y2="16.15"/>
                  
            <line class="bond" id="mol1bnd2" x1="80.23" x2="67.03" y1="16.15" y2="23.77"/>
                  
            <g class="bond" id="mol1bnd3">
                        
                <line x1="67.03" x2="56.5" y1="25.18" y2="19.1"/>
                        
                <line x1="68.25" x2="57.72" y1="23.07" y2="16.99"/>
                      
                <line class="hi" stroke="#FF0D0D" x1="56.5" x2="61.765" y1="19.1" y2="22.14"/>
                <line class="hi" stroke="#FF0D0D" x1="57.72" x2="62.985" y1="16.99" y2="20.03"/>
            </g>
                  
            <line class="bond" id="mol1bnd4" x1="67.03" x2="67.03" y1="23.77" y2="39.01"/>
                  
            <line class="bond" id="mol1bnd5" x1="67.03" x2="53.84" y1="39.01" y2="46.63"/>
                  
            <line class="bond" id="mol1bnd6" x1="53.84" x2="40.64" y1="46.63" y2="39.01"/>
                  
            <line class="bond" id="mol1bnd7" x1="40.64" x2="40.64" y1="39.01" y2="23.77"/>
                  
            <line class="bond" id="mol1bnd8" x1="40.64" x2="30.59" y1="39.01" y2="44.81"/>
                  
            <line class="bond" id="mol1bnd9" x1="24.29" x2="14.24" y1="44.81" y2="39.0"/>
                  
            <line class="bond" id="mol1bnd10" x1="14.24" x2="1.04" y1="39.0" y2="46.62"/>
                  
            <line class="bond" id="mol1bnd11" x1="1.04" x2="1.04" y1="46.62" y2="61.87"/>
                  
            <line class="bond" id="mol1bnd12" x1="1.04" x2="14.25" y1="61.87" y2="69.5"/>
                  
            <line class="bond" id="mol1bnd13" x1="14.25" x2="27.44" y1="69.5" y2="61.88"/>
                  
            <line class="bond" id="mol1bnd14" x1="27.44" x2="27.44" y1="50.48" y2="61.88"/>
                  
            <line class="bond" id="mol1bnd15" x1="67.03" x2="72.25" y1="39.01" y2="53.33"/>
                  
            <g class="bond" id="mol1bnd16">
                        
                <line x1="87.26" x2="72.25" y1="55.97" y2="53.33"/>
                        
                <line x1="85.45" x2="73.21" y1="58.13" y2="55.98"/>
                      
            </g>
                  
            <line class="bond" id="mol1bnd17" x1="87.26" x2="92.48" y1="55.97" y2="70.29"/>
                  
            <g class="bond" id="mol1bnd18">
                        
                <line x1="82.67" x2="92.48" y1="81.97" y2="70.29"/>
                        
                <line x1="81.71" x2="89.7" y1="79.33" y2="69.81"/>
                      
            </g>
                  
            <line class="bond" id="mol1bnd19" x1="82.67" x2="67.65" y1="81.97" y2="79.33"/>
                  
            <g class="bond" id="mol1bnd20">
                        
                <line x1="62.44" x2="67.65" y1="65.01" y2="79.33"/>
                        
                <line x1="65.21" x2="69.46" y1="65.5" y2="77.17"/>
                      
            </g>
                  
            <line class="bond" id="mol1bnd21" x1="72.25" x2="62.44" y1="53.33" y2="65.01"/>
                  
            <line class="bond" id="mol1bnd22" x1="67.03" x2="82.04" y1="39.01" y2="36.36"/>
                  
            <g class="bond" id="mol1bnd23">
                        
                <line x1="87.25" x2="82.04" y1="22.03" y2="36.36"/>
                        
                <line x1="89.06" x2="84.81" y1="24.19" y2="35.87"/>
                      
            </g>
                  
            <line class="bond" id="mol1bnd24" x1="87.25" x2="102.26" y1="22.03" y2="19.39"/>
                  
            <g class="bond" id="mol1bnd25">
                        
                <line x1="112.06" x2="102.26" y1="31.07" y2="19.39"/>
                        
                <line x1="109.29" x2="101.3" y1="31.56" y2="22.03"/>
                      
            </g>
                  
            <line class="bond" id="mol1bnd26" x1="112.06" x2="106.85" y1="31.07" y2="45.4"/>
                  
            <g class="bond" id="mol1bnd27">
                        
                <line x1="91.84" x2="106.85" y1="48.05" y2="45.4"/>
                        
                <line x1="92.8" x2="105.04" y1="45.4" y2="43.24"/>
                      
            </g>
                  
            <line class="bond" id="mol1bnd28" x1="82.04" x2="91.84" y1="36.36" y2="48.05"/>
                  
            <path class="atom" d="M56.1 16.15q.0 .76 -.26 1.33q-.26 .57 -.76 .88q-.5 .32 -1.24 .32q-.76 .0 -1.26 -.32q-.51 -.32 -.76 -.89q-.24 -.57 -.24 -1.33q.0 -.75 .24 -1.31q.25 -.57 .76 -.88q.51 -.32 1.27 -.32q.73 .0 1.23 .32q.5 .31 .76 .88q.26 .57 .26 1.33zM52.23 16.15q.0 .92 .39 1.46q.39 .53 1.22 .53q.84 .0 1.22 -.53q.39 -.54 .39 -1.46q.0 -.93 -.39 -1.45q-.38 -.52 -1.21 -.52q-.83 .0 -1.23 .52q-.39 .52 -.39 1.45z" id="mol1atm4" stroke="none"/>
                  
            <path class="atom" d="M29.38 49.08h-.72l-2.62 -4.07h-.03q.01 .24 .03 .6q.02 .36 .02 .73v2.74h-.57v-4.9h.71l2.61 4.05h.03q-.01 -.11 -.02 -.33q-.01 -.22 -.02 -.48q-.01 -.26 -.01 -.48v-2.77h.58v4.9z" fill="#3050F8" id="mol1atm9" stroke="none"/>
                
            <line class="hi" id="mol1bnd8" stroke="#3050F8" x1="30.59" x2="35.615" y1="44.81" y2="41.91"/>
            <line class="hi" id="mol1bnd9" stroke="#3050F8" x1="24.29" x2="19.265" y1="44.81" y2="41.905"/>
            <line class="hi" id="mol1bnd14" stroke="#3050F8" x1="27.44" x2="27.44" y1="50.48" y2="56.18"/>
        </g>
          
    </g>
    
</svg>
