<svg xmlns="http://www.w3.org/2000/svg" xmlns:xlink="http://www.w3.org/1999/xlink" height="88.13mm" version="1.2" viewBox="0 0 128.21 88.13" width="128.21mm">
      
    <desc>Generated by the Chemistry Development Kit (http://github.com/cdk)</desc>
      
    <g fill="#000000" stroke="#000000" stroke-linecap="round" stroke-linejoin="round" stroke-width=".7">
            
        <rect fill="#FFFFFF" height="89.0" stroke="none" width="129.0" x=".0" y=".0"/>
            
        <g class="mol" id="mol1">
                  
            <path class="bond" d="M81.49 39.57l.7 .08l3.47 -14.94l-2.09 -.24l-2.09 -.24z" id="mol1bnd1" stroke="none"/>
                  
            <line class="bond" id="mol1bnd2" x1="81.84" x2="68.94" y1="39.61" y2="31.89"/>
                  
            <line class="bond" id="mol1bnd3" x1="68.94" x2="55.42" y1="31.89" y2="39.61"/>
                  
            <path class="bond" d="M55.07 54.55h.7l1.9 -16.62l-2.25 1.29l-1.97 1.12z" id="mol1bnd4" stroke="none"/>
                  
            <line class="bond" id="mol1bnd5" x1="55.42" x2="68.94" y1="54.55" y2="61.86"/>
                  
            <line class="bond" id="mol1bnd6" x1="68.94" x2="81.84" y1="61.86" y2="54.55"/>
                  
            <line class="bond" id="mol1bnd7" x1="81.84" x2="81.84" y1="39.61" y2="54.55"/>
                  
            <path class="bond" d="M81.95 54.21l-.22 .67l13.76 6.29l1.22 -1.73l1.31 -1.86z" id="mol1bnd8" stroke="none"/>
                  
            <line class="bond" id="mol1bnd9" x1="96.37" x2="104.9" y1="59.32" y2="47.23"/>
                  
            <line class="bond" id="mol1bnd10" x1="104.9" x2="96.37" y1="47.23" y2="34.94"/>
                  
            <line class="bond" id="mol1bnd11" x1="81.84" x2="96.37" y1="39.61" y2="34.94"/>
                  
            <path class="bond" d="M96.04 34.83l.66 .22l7.1 -15.06l-2.55 .51l-1.71 -1.95z" id="mol1bnd12" stroke="none"/>
                  
            <g class="bond" id="mol1bnd13">
                        
                <line x1="101.26" x2="93.81" y1="20.5" y2="12.03"/>
                        
                <line x1="102.16" x2="95.64" y1="17.84" y2="10.42"/>
                      
                <line class="hi" stroke="#FF0D0D" x1="93.81" x2="97.535" y1="12.03" y2="16.265"/>
                <line class="hi" stroke="#FF0D0D" x1="95.64" x2="98.9" y1="10.42" y2="14.129999999999999"/>
            </g>
                  
            <line class="bond" id="mol1bnd14" x1="101.26" x2="116.2" y1="20.5" y2="17.52"/>
                  
            <line class="bond" id="mol1bnd15" x1="116.2" x2="119.8" y1="17.52" y2="6.88"/>
                  
            <g class="bond" id="mol1bnd16">
                        
                <line x1="68.63" x2="69.24" y1="62.03" y2="61.69"/>
                        
                <line x1="68.41" x2="69.46" y1="64.38" y2="63.79"/>
                        
                <line x1="68.2" x2="69.68" y1="66.72" y2="65.89"/>
                        
                <line x1="67.98" x2="69.9" y1="69.06" y2="67.98"/>
                        
                <line x1="67.76" x2="70.11" y1="71.41" y2="70.08"/>
                        
                <line x1="67.54" x2="70.33" y1="73.75" y2="72.18"/>
                        
                <line x1="67.33" x2="70.55" y1="76.1" y2="74.28"/>
                        
                <line x1="67.11" x2="70.77" y1="78.44" y2="76.38"/>
                      
            </g>
                  
            <line class="bond" id="mol1bnd17" x1="68.94" x2="55.42" y1="77.41" y2="85.03"/>
                  
            <line class="bond" id="mol1bnd18" x1="55.42" x2="42.22" y1="85.03" y2="77.41"/>
                  
            <g class="bond" id="mol1bnd19">
                        
                <line x1="29.31" x2="42.22" y1="85.03" y2="77.41"/>
                        
                <line x1="29.29" x2="39.78" y1="82.21" y2="76.02"/>
                      
            </g>
                  
            <line class="bond" id="mol1bnd20" x1="29.31" x2="16.0" y1="85.03" y2="77.41"/>
                  
            <g class="bond" id="mol1bnd21">
                        
                <line x1="17.23" x2="6.71" y1="78.11" y2="84.21"/>
                        
                <line x1="16.0" x2="5.48" y1="76.0" y2="82.1"/>
                      
                <line class="hi" stroke="#FF0D0D" x1="6.710000000000001" x2="11.97" y1="84.21" y2="81.16"/>
                <line class="hi" stroke="#FF0D0D" x1="5.48" x2="10.74" y1="82.1" y2="79.05"/>
            </g>
                  
            <line class="bond" id="mol1bnd22" x1="16.0" x2="16.0" y1="77.41" y2="61.86"/>
                  
            <line class="bond" id="mol1bnd23" x1="16.0" x2="29.31" y1="61.86" y2="54.55"/>
                  
            <line class="bond" id="mol1bnd24" x1="29.31" x2="42.22" y1="54.55" y2="61.86"/>
                  
            <line class="bond" id="mol1bnd25" x1="55.42" x2="42.22" y1="54.55" y2="61.86"/>
                  
            <line class="bond" id="mol1bnd26" x1="42.22" x2="42.22" y1="77.41" y2="61.86"/>
                  
            <path class="bond" d="M41.87 61.86h.7l1.83 -15.23l-2.1 -.01l-2.1 -.01z" id="mol1bnd27" stroke="none"/>
                  
            <path class="atom" d="M94.37 8.25q.0 .76 -.26 1.33q-.26 .57 -.76 .88q-.5 .32 -1.24 .32q-.76 .0 -1.26 -.32q-.51 -.32 -.76 -.89q-.24 -.57 -.24 -1.33q.0 -.75 .24 -1.31q.25 -.57 .76 -.88q.51 -.32 1.27 -.32q.73 .0 1.23 .32q.5 .31 .76 .88q.26 .57 .26 1.33zM90.51 8.25q.0 .92 .39 1.46q.39 .53 1.22 .53q.84 .0 1.22 -.53q.39 -.54 .39 -1.46q.0 -.93 -.39 -1.45q-.38 -.52 -1.21 -.52q-.83 .0 -1.23 .52q-.39 .52 -.39 1.45z" fill="#FF0D0D" id="mol1atm12" stroke="none"/>
                  
            <g class="atom" id="mol1atm14">
                        
                <path d="M123.35 3.08q.0 .76 -.26 1.33q-.26 .57 -.76 .88q-.5 .32 -1.24 .32q-.76 .0 -1.26 -.32q-.51 -.32 -.76 -.89q-.24 -.57 -.24 -1.33q.0 -.75 .24 -1.31q.25 -.57 .76 -.88q.51 -.32 1.27 -.32q.73 .0 1.23 .32q.5 .31 .76 .88q.26 .57 .26 1.33zM119.48 3.08q.0 .92 .39 1.46q.39 .53 1.22 .53q.84 .0 1.22 -.53q.39 -.54 .39 -1.46q.0 -.93 -.39 -1.45q-.38 -.52 -1.21 -.52q-.83 .0 -1.23 .52q-.39 .52 -.39 1.45z" fill="#FF0D0D" stroke="none"/>
                        
                <path d="M127.65 5.53h-.62v-2.29h-2.51v2.29h-.61v-4.9h.61v2.07h2.51v-2.07h.62v4.9z" fill="#FF0D0D" stroke="none"/>
                      
            </g>
                  
            <path class="atom" d="M5.08 85.05q.0 .76 -.26 1.33q-.26 .57 -.76 .88q-.5 .32 -1.24 .32q-.76 .0 -1.26 -.32q-.51 -.32 -.76 -.89q-.24 -.57 -.24 -1.33q.0 -.75 .24 -1.31q.25 -.57 .76 -.88q.51 -.32 1.27 -.32q.73 .0 1.23 .32q.5 .31 .76 .88q.26 .57 .26 1.33zM1.21 85.05q.0 .92 .39 1.46q.39 .53 1.22 .53q.84 .0 1.22 -.53q.39 -.54 .39 -1.46q.0 -.93 -.39 -1.45q-.38 -.52 -1.21 -.52q-.83 .0 -1.23 .52q-.39 .52 -.39 1.45z" fill="#FF0D0D" id="mol1atm20" stroke="none"/>
                
            <line class="hi" id="mol1bnd15" stroke="#FF0D0D" x1="119.8" x2="118.0" y1="6.879999999999999" y2="12.2"/>
        </g>
          
    </g>
    
</svg>
