<svg xmlns="http://www.w3.org/2000/svg" xmlns:xlink="http://www.w3.org/1999/xlink" height="49.96mm" version="1.2" viewBox="0 0 239.65 49.96" width="239.65mm">
      
    <desc>Generated by the Chemistry Development Kit (http://github.com/cdk)</desc>
      
    <g fill="#FF0D0D" stroke="#000000" stroke-linecap="round" stroke-linejoin="round" stroke-width=".7">
            
        <rect fill="#FFFFFF" height="50.0" stroke="none" width="240.0" x=".0" y=".0"/>
            
        <g class="mol" id="mol1">
                  
            <line class="bond" id="mol1bnd1" x1="1.04" x2="14.22" y1="26.12" y2="18.48"/>
                  
            <line class="bond" id="mol1bnd2" x1="14.22" x2="27.43" y1="18.48" y2="26.08"/>
                  
            <line class="bond" id="mol1bnd3" x1="27.43" x2="40.62" y1="26.08" y2="18.44"/>
                  
            <line class="bond" id="mol1bnd4" x1="40.62" x2="53.83" y1="18.44" y2="26.04"/>
                  
            <line class="bond" id="mol1bnd5" x1="53.83" x2="53.86" y1="26.04" y2="41.28"/>
                  
            <line class="bond" id="mol1bnd6" x1="53.86" x2="40.67" y1="41.28" y2="48.92"/>
                  
            <line class="bond" id="mol1bnd7" x1="53.83" x2="67.02" y1="26.04" y2="18.39"/>
                  
            <line class="bond" id="mol1bnd8" x1="67.02" x2="76.94" y1="18.39" y2="24.1"/>
                  
            <line class="bond" id="mol1bnd9" x1="83.5" x2="93.41" y1="24.09" y2="18.35"/>
                  
            <g class="bond" id="mol1bnd10">
                        
                <line x1="92.2" x2="92.17" y1="19.06" y2="7.03"/>
                        
                <line x1="94.63" x2="94.61" y1="19.05" y2="7.03"/>
                      
                <line class="hi" stroke="#FF0D0D" x1="92.17" x2="92.185" y1="7.030000000000001" y2="13.045"/>
                <line class="hi" stroke="#FF0D0D" x1="94.61" x2="94.62" y1="7.030000000000001" y2="13.040000000000001"/>
            </g>
                  
            <line class="bond" id="mol1bnd11" x1="93.41" x2="106.62" y1="18.35" y2="25.95"/>
                  
            <g class="bond" id="mol1bnd12">
                        
                <line x1="119.83" x2="106.62" y1="18.32" y2="25.95"/>
                        
                <line x1="119.83" x2="109.07" y1="21.13" y2="27.35"/>
                      
            </g>
                  
            <line class="bond" id="mol1bnd13" x1="119.83" x2="133.03" y1="18.32" y2="25.94"/>
                  
            <g class="bond" id="mol1bnd14">
                        
                <line x1="133.02" x2="133.03" y1="41.19" y2="25.94"/>
                        
                <line x1="130.58" x2="130.59" y1="39.77" y2="27.35"/>
                      
            </g>
                  
            <line class="bond" id="mol1bnd15" x1="133.02" x2="119.87" y1="41.19" y2="48.73"/>
                  
            <g class="bond" id="mol1bnd16">
                        
                <line x1="106.67" x2="119.87" y1="41.11" y2="48.73"/>
                        
                <line x1="109.1" x2="119.87" y1="39.7" y2="45.91"/>
                      
            </g>
                  
            <line class="bond" id="mol1bnd17" x1="106.62" x2="106.67" y1="25.95" y2="41.11"/>
                  
            <line class="bond" id="mol1bnd18" x1="133.03" x2="146.22" y1="25.94" y2="18.32"/>
                  
            <g class="bond" id="mol1bnd19">
                        
                <line x1="145.01" x2="145.01" y1="19.02" y2="7.0"/>
                        
                <line x1="147.44" x2="147.45" y1="19.03" y2="7.0"/>
                      
                <line class="hi" stroke="#FF0D0D" x1="145.01" x2="145.01" y1="7.0" y2="13.01"/>
                <line class="hi" stroke="#FF0D0D" x1="147.45" x2="147.445" y1="7.0" y2="13.015"/>
            </g>
                  
            <line class="bond" id="mol1bnd20" x1="146.22" x2="156.14" y1="18.32" y2="24.05"/>
                  
            <line class="bond" id="mol1bnd21" x1="162.7" x2="172.62" y1="24.05" y2="18.33"/>
                  
            <line class="bond" id="mol1bnd22" x1="172.62" x2="185.82" y1="18.33" y2="25.95"/>
                  
            <line class="bond" id="mol1bnd23" x1="185.82" x2="185.82" y1="25.95" y2="41.19"/>
                  
            <line class="bond" id="mol1bnd24" x1="185.82" x2="199.01" y1="41.19" y2="48.81"/>
                  
            <line class="bond" id="mol1bnd25" x1="185.82" x2="199.02" y1="25.95" y2="18.33"/>
                  
            <line class="bond" id="mol1bnd26" x1="199.02" x2="212.21" y1="18.33" y2="25.95"/>
                  
            <line class="bond" id="mol1bnd27" x1="212.21" x2="225.41" y1="25.95" y2="18.33"/>
                  
            <line class="bond" id="mol1bnd28" x1="225.41" x2="238.61" y1="18.33" y2="25.96"/>
                  
            <path class="atom" d="M82.49 25.99q.0 .76 -.26 1.33q-.26 .57 -.76 .88q-.5 .32 -1.24 .32q-.76 .0 -1.26 -.32q-.51 -.32 -.76 -.89q-.24 -.57 -.24 -1.33q.0 -.75 .24 -1.31q.25 -.57 .76 -.88q.51 -.32 1.27 -.32q.73 .0 1.23 .32q.5 .31 .76 .88q.26 .57 .26 1.33zM78.62 25.99q.0 .92 .39 1.46q.39 .53 1.22 .53q.84 .0 1.22 -.53q.39 -.54 .39 -1.46q.0 -.93 -.39 -1.45q-.38 -.52 -1.21 -.52q-.83 .0 -1.23 .52q-.39 .52 -.39 1.45z" id="mol1atm9" stroke="none"/>
                  
            <path class="atom" d="M95.65 3.11q.0 .76 -.26 1.33q-.26 .57 -.76 .88q-.5 .32 -1.24 .32q-.76 .0 -1.26 -.32q-.51 -.32 -.76 -.89q-.24 -.57 -.24 -1.33q.0 -.75 .24 -1.31q.25 -.57 .76 -.88q.51 -.32 1.27 -.32q.73 .0 1.23 .32q.5 .31 .76 .88q.26 .57 .26 1.33zM91.78 3.11q.0 .92 .39 1.46q.39 .53 1.22 .53q.84 .0 1.22 -.53q.39 -.54 .39 -1.46q.0 -.93 -.39 -1.45q-.38 -.52 -1.21 -.52q-.83 .0 -1.23 .52q-.39 .52 -.39 1.45z" id="mol1atm11" stroke="none"/>
                  
            <path class="atom" d="M148.49 3.08q.0 .76 -.26 1.33q-.26 .57 -.76 .88q-.5 .32 -1.24 .32q-.76 .0 -1.26 -.32q-.51 -.32 -.76 -.89q-.24 -.57 -.24 -1.33q.0 -.75 .24 -1.31q.25 -.57 .76 -.88q.51 -.32 1.27 -.32q.73 .0 1.23 .32q.5 .31 .76 .88q.26 .57 .26 1.33zM144.62 3.08q.0 .92 .39 1.46q.39 .53 1.22 .53q.84 .0 1.22 -.53q.39 -.54 .39 -1.46q.0 -.93 -.39 -1.45q-.38 -.52 -1.21 -.52q-.83 .0 -1.23 .52q-.39 .52 -.39 1.45z" id="mol1atm19" stroke="none"/>
                  
            <path class="atom" d="M161.68 25.94q.0 .76 -.26 1.33q-.26 .57 -.76 .88q-.5 .32 -1.24 .32q-.76 .0 -1.26 -.32q-.51 -.32 -.76 -.89q-.24 -.57 -.24 -1.33q.0 -.75 .24 -1.31q.25 -.57 .76 -.88q.51 -.32 1.27 -.32q.73 .0 1.23 .32q.5 .31 .76 .88q.26 .57 .26 1.33zM157.82 25.94q.0 .92 .39 1.46q.39 .53 1.22 .53q.84 .0 1.22 -.53q.39 -.54 .39 -1.46q.0 -.93 -.39 -1.45q-.38 -.52 -1.21 -.52q-.83 .0 -1.23 .52q-.39 .52 -.39 1.45z" id="mol1atm20" stroke="none"/>
                
            <line class="hi" id="mol1bnd8" stroke="#FF0D0D" x1="76.94" x2="71.97999999999999" y1="24.1" y2="21.245"/>
            <line class="hi" id="mol1bnd9" stroke="#FF0D0D" x1="83.5" x2="88.455" y1="24.09" y2="21.22"/>
            <line class="hi" id="mol1bnd20" stroke="#FF0D0D" x1="156.14" x2="151.18" y1="24.05" y2="21.185000000000002"/>
            <line class="hi" id="mol1bnd21" stroke="#FF0D0D" x1="162.7" x2="167.66" y1="24.05" y2="21.189999999999998"/>
        </g>
          
    </g>
    
</svg>
