<svg xmlns="http://www.w3.org/2000/svg" xmlns:xlink="http://www.w3.org/1999/xlink" height="78.28mm" version="1.2" viewBox="0 0 204.0 78.28" width="204.0mm">
      
    <desc>Generated by the Chemistry Development Kit (http://github.com/cdk)</desc>
      
    <g fill="#3050F8" stroke="#000000" stroke-linecap="round" stroke-linejoin="round" stroke-width=".7">
            
        <rect fill="#FFFFFF" height="79.0" stroke="none" width="205.0" x=".0" y=".0"/>
            
        <g class="mol" id="mol1">
                  
            <line class="bond" id="mol1bnd1" x1="148.27" x2="148.27" y1="69.62" y2="58.23"/>
                  
            <line class="bond" id="mol1bnd2" x1="151.43" x2="161.48" y1="52.56" y2="46.76"/>
                  
            <g class="bond" id="mol1bnd3">
                        
                <line x1="161.48" x2="161.48" y1="46.76" y2="31.52"/>
                        
                <line x1="159.04" x2="159.04" y1="45.35" y2="32.93"/>
                      
            </g>
                  
            <line class="bond" id="mol1bnd4" x1="161.48" x2="148.27" y1="31.52" y2="23.9"/>
                  
            <g class="bond" id="mol1bnd5">
                        
                <line x1="147.05" x2="147.05" y1="24.61" y2="12.58"/>
                        
                <line x1="149.49" x2="149.49" y1="24.61" y2="12.58"/>
                      
                <line class="hi" stroke="#FF0D0D" x1="147.05" x2="147.05" y1="12.58" y2="18.595"/>
                <line class="hi" stroke="#FF0D0D" x1="149.49" x2="149.49" y1="12.58" y2="18.595"/>
            </g>
                  
            <line class="bond" id="mol1bnd6" x1="148.27" x2="138.22" y1="23.9" y2="29.7"/>
                  
            <line class="bond" id="mol1bnd7" x1="135.07" x2="135.07" y1="35.37" y2="46.76"/>
                  
            <line class="bond" id="mol1bnd8" x1="145.12" x2="135.07" y1="52.56" y2="46.76"/>
                  
            <g class="bond" id="mol1bnd9">
                        
                <line x1="136.29" x2="125.76" y1="47.47" y2="53.55"/>
                        
                <line x1="135.07" x2="124.54" y1="45.35" y2="51.44"/>
                      
                <line class="hi" stroke="#FF0D0D" x1="125.76" x2="131.025" y1="53.55" y2="50.51"/>
                <line class="hi" stroke="#FF0D0D" x1="124.54" x2="129.805" y1="51.44" y2="48.394999999999996"/>
            </g>
                  
            <line class="bond" id="mol1bnd10" x1="131.91" x2="121.87" y1="29.7" y2="23.9"/>
                  
            <line class="bond" id="mol1bnd11" x1="161.48" x2="172.74" y1="31.52" y2="27.9"/>
                  
            <line class="bond" id="mol1bnd12" x1="178.62" x2="184.95" y1="30.43" y2="39.14"/>
                  
            <g class="bond" id="mol1bnd13">
                        
                <line x1="178.62" x2="184.95" y1="47.85" y2="39.14"/>
                        
                <line x1="176.64" x2="181.94" y1="46.42" y2="39.14"/>
                      
                <line class="hi" stroke="#3050F8" x1="178.62" x2="181.785" y1="47.85" y2="43.495000000000005"/>
                <line class="hi" stroke="#3050F8" x1="176.64" x2="179.29" y1="46.42" y2="42.78"/>
            </g>
                  
            <line class="bond" id="mol1bnd14" x1="161.48" x2="172.74" y1="46.76" y2="50.38"/>
                  
            <line class="bond" id="mol1bnd15" x1="184.95" x2="196.94" y1="39.14" y2="39.14"/>
                  
            <line class="bond" id="mol1bnd16" x1="1.04" x2="11.08" y1="54.38" y2="48.58"/>
                  
            <line class="bond" id="mol1bnd17" x1="14.24" x2="14.24" y1="42.91" y2="31.52"/>
                  
            <line class="bond" id="mol1bnd18" x1="17.39" x2="27.43" y1="48.58" y2="54.38"/>
                  
            <line class="bond" id="mol1bnd19" x1="27.43" x2="40.63" y1="54.38" y2="46.76"/>
                  
            <line class="bond" id="mol1bnd20" x1="40.63" x2="50.55" y1="46.76" y2="52.48"/>
                  
            <line class="bond" id="mol1bnd21" x1="57.11" x2="67.03" y1="52.49" y2="46.76"/>
                  
            <line class="bond" id="mol1bnd22" x1="67.03" x2="80.23" y1="46.76" y2="54.38"/>
                  
            <g class="bond" id="mol1bnd23">
                        
                <line x1="93.43" x2="80.23" y1="46.75" y2="54.38"/>
                        
                <line x1="93.43" x2="82.67" y1="49.57" y2="55.79"/>
                      
            </g>
                  
            <line class="bond" id="mol1bnd24" x1="93.43" x2="106.63" y1="46.75" y2="54.37"/>
                  
            <g class="bond" id="mol1bnd25">
                        
                <line x1="106.62" x2="106.63" y1="69.62" y2="54.37"/>
                        
                <line x1="104.19" x2="104.19" y1="68.21" y2="55.78"/>
                      
            </g>
                  
            <line class="bond" id="mol1bnd26" x1="106.62" x2="93.42" y1="69.62" y2="77.25"/>
                  
            <g class="bond" id="mol1bnd27">
                        
                <line x1="80.22" x2="93.42" y1="69.63" y2="77.25"/>
                        
                <line x1="82.66" x2="93.42" y1="68.22" y2="74.43"/>
                      
            </g>
                  
            <line class="bond" id="mol1bnd28" x1="80.23" x2="80.22" y1="54.38" y2="69.63"/>
                  
            <line class="bond" id="mol1bnd29" x1="67.03" x2="67.03" y1="46.76" y2="31.52"/>
                  
            <g class="bond" id="mol1bnd30">
                        
                <line x1="53.82" x2="67.03" y1="23.9" y2="31.52"/>
                        
                <line x1="56.26" x2="67.03" y1="22.49" y2="28.7"/>
                      
            </g>
                  
            <line class="bond" id="mol1bnd31" x1="53.82" x2="53.82" y1="23.9" y2="8.66"/>
                  
            <g class="bond" id="mol1bnd32">
                        
                <line x1="67.03" x2="53.82" y1="1.04" y2="8.66"/>
                        
                <line x1="67.03" x2="56.26" y1="3.85" y2="10.07"/>
                      
            </g>
                  
            <line class="bond" id="mol1bnd33" x1="67.03" x2="80.24" y1="1.04" y2="8.66"/>
                  
            <g class="bond" id="mol1bnd34">
                        
                <line x1="80.24" x2="80.24" y1="23.9" y2="8.66"/>
                        
                <line x1="77.8" x2="77.8" y1="22.49" y2="10.07"/>
                      
            </g>
                  
            <line class="bond" id="mol1bnd35" x1="67.03" x2="80.24" y1="31.52" y2="23.9"/>
                  
            <path class="atom" d="M150.21 56.83h-.72l-2.62 -4.07h-.03q.01 .24 .03 .6q.02 .36 .02 .73v2.74h-.57v-4.9h.71l2.61 4.05h.03q-.01 -.11 -.02 -.33q-.01 -.22 -.02 -.48q-.01 -.26 -.01 -.48v-2.77h.58v4.9z" id="mol1atm2" stroke="none"/>
                  
            <path class="atom" d="M150.53 8.66q.0 .76 -.26 1.33q-.26 .57 -.76 .88q-.5 .32 -1.24 .32q-.76 .0 -1.26 -.32q-.51 -.32 -.76 -.89q-.24 -.57 -.24 -1.33q.0 -.75 .24 -1.31q.25 -.57 .76 -.88q.51 -.32 1.27 -.32q.73 .0 1.23 .32q.5 .31 .76 .88q.26 .57 .26 1.33zM146.67 8.66q.0 .92 .39 1.46q.39 .53 1.22 .53q.84 .0 1.22 -.53q.39 -.54 .39 -1.46q.0 -.93 -.39 -1.45q-.38 -.52 -1.21 -.52q-.83 .0 -1.23 .52q-.39 .52 -.39 1.45z" fill="#FF0D0D" id="mol1atm6" stroke="none"/>
                  
            <path class="atom" d="M137.01 33.97h-.72l-2.62 -4.07h-.03q.01 .24 .03 .6q.02 .36 .02 .73v2.74h-.57v-4.9h.71l2.61 4.05h.03q-.01 -.11 -.02 -.33q-.01 -.22 -.02 -.48q-.01 -.26 -.01 -.48v-2.77h.58v4.9z" id="mol1atm7" stroke="none"/>
                  
            <path class="atom" d="M124.13 54.38q.0 .76 -.26 1.33q-.26 .57 -.76 .88q-.5 .32 -1.24 .32q-.76 .0 -1.26 -.32q-.51 -.32 -.76 -.89q-.24 -.57 -.24 -1.33q.0 -.75 .24 -1.31q.25 -.57 .76 -.88q.51 -.32 1.27 -.32q.73 .0 1.23 .32q.5 .31 .76 .88q.26 .57 .26 1.33zM120.26 54.38q.0 .92 .39 1.46q.39 .53 1.22 .53q.84 .0 1.22 -.53q.39 -.54 .39 -1.46q.0 -.93 -.39 -1.45q-.38 -.52 -1.21 -.52q-.83 .0 -1.23 .52q-.39 .52 -.39 1.45z" fill="#FF0D0D" id="mol1atm9" stroke="none"/>
                  
            <g class="atom" id="mol1atm11">
                        
                <path d="M177.95 29.3h-.72l-2.62 -4.07h-.03q.01 .24 .03 .6q.02 .36 .02 .73v2.74h-.57v-4.9h.71l2.61 4.05h.03q-.01 -.11 -.02 -.33q-.01 -.22 -.02 -.48q-.01 -.26 -.01 -.48v-2.77h.58v4.9z" stroke="none"/>
                        
                <path d="M177.81 23.84h-.62v-2.29h-2.51v2.29h-.61v-4.9h.61v2.07h2.51v-2.07h.62v4.9z" stroke="none"/>
                      
            </g>
                  
            <path class="atom" d="M177.95 53.89h-.72l-2.62 -4.07h-.03q.01 .24 .03 .6q.02 .36 .02 .73v2.74h-.57v-4.9h.71l2.61 4.05h.03q-.01 -.11 -.02 -.33q-.01 -.22 -.02 -.48q-.01 -.26 -.01 -.48v-2.77h.58v4.9z" id="mol1atm13" stroke="none"/>
                  
            <path class="atom" d="M200.69 37.17q-.79 .0 -1.24 .53q-.45 .52 -.45 1.45q.0 .91 .42 1.45q.42 .53 1.27 .53q.32 .0 .61 -.05q.29 -.06 .57 -.14v.54q-.27 .1 -.57 .15q-.29 .05 -.7 .05q-.74 .0 -1.25 -.31q-.5 -.31 -.75 -.88q-.25 -.57 -.25 -1.34q.0 -.74 .27 -1.31q.27 -.57 .8 -.88q.53 -.32 1.28 -.32q.78 .0 1.35 .29l-.24 .52q-.23 -.1 -.51 -.18q-.27 -.08 -.61 -.08zM203.44 41.59h-.6v-5.21h.6v5.21z" fill="#1FF01F" id="mol1atm14" stroke="none"/>
                  
            <path class="atom" d="M16.18 49.21h-.72l-2.62 -4.07h-.03q.01 .24 .03 .6q.02 .36 .02 .73v2.74h-.57v-4.9h.71l2.61 4.05h.03q-.01 -.11 -.02 -.33q-.01 -.22 -.02 -.48q-.01 -.26 -.01 -.48v-2.77h.58v4.9z" id="mol1atm16" stroke="none"/>
                  
            <path class="atom" d="M56.09 54.38q.0 .76 -.26 1.33q-.26 .57 -.76 .88q-.5 .32 -1.24 .32q-.76 .0 -1.26 -.32q-.51 -.32 -.76 -.89q-.24 -.57 -.24 -1.33q.0 -.75 .24 -1.31q.25 -.57 .76 -.88q.51 -.32 1.27 -.32q.73 .0 1.23 .32q.5 .31 .76 .88q.26 .57 .26 1.33zM52.23 54.38q.0 .92 .39 1.46q.39 .53 1.22 .53q.84 .0 1.22 -.53q.39 -.54 .39 -1.46q.0 -.93 -.39 -1.45q-.38 -.52 -1.21 -.52q-.83 .0 -1.23 .52q-.39 .52 -.39 1.45z" fill="#FF0D0D" id="mol1atm20" stroke="none"/>
                
            <line class="hi" id="mol1bnd1" stroke="#3050F8" x1="148.27" x2="148.27" y1="58.23" y2="63.925"/>
            <line class="hi" id="mol1bnd2" stroke="#3050F8" x1="151.43" x2="156.45499999999998" y1="52.56" y2="49.66"/>
            <line class="hi" id="mol1bnd6" stroke="#3050F8" x1="138.22" x2="143.245" y1="29.7" y2="26.799999999999997"/>
            <line class="hi" id="mol1bnd7" stroke="#3050F8" x1="135.07" x2="135.07" y1="35.37" y2="41.065"/>
            <line class="hi" id="mol1bnd8" stroke="#3050F8" x1="145.12" x2="140.095" y1="52.56" y2="49.66"/>
            <line class="hi" id="mol1bnd10" stroke="#3050F8" x1="131.91" x2="126.89" y1="29.7" y2="26.799999999999997"/>
            <line class="hi" id="mol1bnd11" stroke="#3050F8" x1="172.74" x2="167.11" y1="27.9" y2="29.71"/>
            <line class="hi" id="mol1bnd11" stroke="#3050F8" x1="172.74" x2="167.11" y1="27.9" y2="29.71"/>
            <line class="hi" id="mol1bnd12" stroke="#3050F8" x1="178.62" x2="181.785" y1="30.43" y2="34.785"/>
            <line class="hi" id="mol1bnd12" stroke="#3050F8" x1="178.62" x2="181.785" y1="30.43" y2="34.785"/>
            <line class="hi" id="mol1bnd14" stroke="#3050F8" x1="172.74" x2="167.11" y1="50.38" y2="48.57"/>
            <line class="hi" id="mol1bnd15" stroke="#1FF01F" x1="196.94" x2="190.945" y1="39.14" y2="39.14"/>
            <line class="hi" id="mol1bnd16" stroke="#3050F8" x1="11.079999999999998" x2="6.0600000000000005" y1="48.58" y2="51.480000000000004"/>
            <line class="hi" id="mol1bnd17" stroke="#3050F8" x1="14.24" x2="14.24" y1="42.91" y2="37.214999999999996"/>
            <line class="hi" id="mol1bnd18" stroke="#3050F8" x1="17.39" x2="22.41" y1="48.58" y2="51.480000000000004"/>
            <line class="hi" id="mol1bnd20" stroke="#FF0D0D" x1="50.55" x2="45.59" y1="52.48" y2="49.62"/>
            <line class="hi" id="mol1bnd21" stroke="#FF0D0D" x1="57.11" x2="62.07" y1="52.49" y2="49.625"/>
        </g>
          
    </g>
    
</svg>
