<svg xmlns="http://www.w3.org/2000/svg" xmlns:xlink="http://www.w3.org/1999/xlink" height="51.89mm" version="1.2" viewBox="0 0 107.7 51.89" width="107.7mm">
      
    <desc>Generated by the Chemistry Development Kit (http://github.com/cdk)</desc>
      
    <g fill="#FF0D0D" stroke="#000000" stroke-linecap="round" stroke-linejoin="round" stroke-width=".7">
            
        <rect fill="#FFFFFF" height="52.0" stroke="none" width="108.0" x=".0" y=".0"/>
            
        <g class="mol" id="mol1">
                  
            <line class="bond" id="mol1bnd1" x1="27.43" x2="27.43" y1="41.18" y2="25.94"/>
                  
            <line class="bond" id="mol1bnd2" x1="27.43" x2="40.63" y1="25.94" y2="18.33"/>
                  
            <line class="bond" id="mol1bnd3" x1="40.63" x2="53.83" y1="18.33" y2="25.95"/>
                  
            <g class="bond" id="mol1bnd4">
                        
                <line x1="67.04" x2="53.83" y1="18.33" y2="25.95"/>
                        
                <line x1="67.04" x2="56.27" y1="21.14" y2="27.36"/>
                      
            </g>
                  
            <line class="bond" id="mol1bnd5" x1="67.04" x2="80.25" y1="18.33" y2="25.95"/>
                  
            <g class="bond" id="mol1bnd6">
                        
                <line x1="80.25" x2="80.25" y1="41.19" y2="25.95"/>
                        
                <line x1="77.81" x2="77.81" y1="39.78" y2="27.36"/>
                      
            </g>
                  
            <line class="bond" id="mol1bnd7" x1="80.25" x2="67.04" y1="41.19" y2="48.81"/>
                  
            <g class="bond" id="mol1bnd8">
                        
                <line x1="53.83" x2="67.04" y1="41.19" y2="48.81"/>
                        
                <line x1="56.27" x2="67.04" y1="39.78" y2="45.99"/>
                      
            </g>
                  
            <line class="bond" id="mol1bnd9" x1="53.83" x2="53.83" y1="25.95" y2="41.19"/>
                  
            <line class="bond" id="mol1bnd10" x1="80.25" x2="90.17" y1="41.19" y2="46.91"/>
                  
            <line class="bond" id="mol1bnd11" x1="96.73" x2="106.66" y1="46.92" y2="41.19"/>
                  
            <line class="bond" id="mol1bnd12" x1="106.66" x2="106.66" y1="41.19" y2="25.95"/>
                  
            <line class="bond" id="mol1bnd13" x1="106.66" x2="96.73" y1="25.95" y2="20.22"/>
                  
            <line class="bond" id="mol1bnd14" x1="80.25" x2="90.17" y1="25.95" y2="20.22"/>
                  
            <line class="bond" id="mol1bnd15" x1="27.43" x2="17.39" y1="25.94" y2="20.14"/>
                  
            <line class="bond" id="mol1bnd16" x1="11.08" x2="1.04" y1="20.14" y2="25.94"/>
                  
            <line class="bond" id="mol1bnd17" x1="14.24" x2="14.24" y1="14.47" y2="7.0"/>
                  
            <path class="atom" d="M95.71 48.8q.0 .76 -.26 1.33q-.26 .57 -.76 .88q-.5 .32 -1.24 .32q-.76 .0 -1.26 -.32q-.51 -.32 -.76 -.89q-.24 -.57 -.24 -1.33q.0 -.75 .24 -1.31q.25 -.57 .76 -.88q.51 -.32 1.27 -.32q.73 .0 1.23 .32q.5 .31 .76 .88q.26 .57 .26 1.33zM91.85 48.8q.0 .92 .39 1.46q.39 .53 1.22 .53q.84 .0 1.22 -.53q.39 -.54 .39 -1.46q.0 -.93 -.39 -1.45q-.38 -.52 -1.21 -.52q-.83 .0 -1.23 .52q-.39 .52 -.39 1.45z" id="mol1atm10" stroke="none"/>
                  
            <path class="atom" d="M95.71 18.32q.0 .76 -.26 1.33q-.26 .57 -.76 .88q-.5 .32 -1.24 .32q-.76 .0 -1.26 -.32q-.51 -.32 -.76 -.89q-.24 -.57 -.24 -1.33q.0 -.75 .24 -1.31q.25 -.57 .76 -.88q.51 -.32 1.27 -.32q.73 .0 1.23 .32q.5 .31 .76 .88q.26 .57 .26 1.33zM91.85 18.32q.0 .92 .39 1.46q.39 .53 1.22 .53q.84 .0 1.22 -.53q.39 -.54 .39 -1.46q.0 -.93 -.39 -1.45q-.38 -.52 -1.21 -.52q-.83 .0 -1.23 .52q-.39 .52 -.39 1.45z" id="mol1atm13" stroke="none"/>
                  
            <path class="atom" d="M16.18 20.77h-.72l-2.62 -4.07h-.03q.01 .24 .03 .6q.02 .36 .02 .73v2.74h-.57v-4.9h.71l2.61 4.05h.03q-.01 -.11 -.02 -.33q-.01 -.22 -.02 -.48q-.01 -.26 -.01 -.48v-2.77h.58v4.9z" fill="#3050F8" id="mol1atm14" stroke="none"/>
                  
            <g class="atom" id="mol1atm16">
                        
                <path d="M16.5 3.08q.0 .76 -.26 1.33q-.26 .57 -.76 .88q-.5 .32 -1.24 .32q-.76 .0 -1.26 -.32q-.51 -.32 -.76 -.89q-.24 -.57 -.24 -1.33q.0 -.75 .24 -1.31q.25 -.57 .76 -.88q.51 -.32 1.27 -.32q.73 .0 1.23 .32q.5 .31 .76 .88q.26 .57 .26 1.33zM12.64 3.08q.0 .92 .39 1.46q.39 .53 1.22 .53q.84 .0 1.22 -.53q.39 -.54 .39 -1.46q.0 -.93 -.39 -1.45q-.38 -.52 -1.21 -.52q-.83 .0 -1.23 .52q-.39 .52 -.39 1.45z" stroke="none"/>
                        
                <path d="M20.81 5.53h-.62v-2.29h-2.51v2.29h-.61v-4.9h.61v2.07h2.51v-2.07h.62v4.9z" stroke="none"/>
                      
            </g>
                
            <line class="hi" id="mol1bnd10" stroke="#FF0D0D" x1="90.17" x2="85.21000000000001" y1="46.91" y2="44.05"/>
            <line class="hi" id="mol1bnd11" stroke="#FF0D0D" x1="96.73" x2="101.695" y1="46.92" y2="44.055"/>
            <line class="hi" id="mol1bnd13" stroke="#FF0D0D" x1="96.73" x2="101.695" y1="20.22" y2="23.085"/>
            <line class="hi" id="mol1bnd14" stroke="#FF0D0D" x1="90.17" x2="85.21000000000001" y1="20.22" y2="23.085"/>
            <line class="hi" id="mol1bnd15" stroke="#3050F8" x1="17.39" x2="22.41" y1="20.14" y2="23.04"/>
            <line class="hi" id="mol1bnd16" stroke="#3050F8" x1="11.08" x2="6.0600000000000005" y1="20.14" y2="23.04"/>
            <line class="hi" id="mol1bnd17" stroke="#3050F8" x1="14.24" x2="14.24" y1="14.47" y2="10.735"/>
            <line class="hi" id="mol1bnd17" stroke="#FF0D0D" x1="14.24" x2="14.24" y1="7.0" y2="10.735"/>
            <line class="hi" id="mol1bnd17" stroke="#FF0D0D" x1="14.24" x2="14.24" y1="7.0" y2="10.735"/>
        </g>
          
    </g>
    
</svg>
