<svg xmlns="http://www.w3.org/2000/svg" xmlns:xlink="http://www.w3.org/1999/xlink" height="62.85mm" version="1.2" viewBox="0 0 94.47 62.85" width="94.47mm">
      
    <desc>Generated by the Chemistry Development Kit (http://github.com/cdk)</desc>
      
    <g fill="#3050F8" stroke="#000000" stroke-linecap="round" stroke-linejoin="round" stroke-width=".7">
            
        <rect fill="#FFFFFF" height="63.0" stroke="none" width="95.0" x=".0" y=".0"/>
            
        <g class="mol" id="mol1">
                  
            <line class="bond" id="mol1bnd1" x1="1.04" x2="14.24" y1="8.47" y2="16.09"/>
                  
            <line class="bond" id="mol1bnd2" x1="14.24" x2="24.28" y1="16.09" y2="10.29"/>
                  
            <line class="bond" id="mol1bnd3" x1="30.59" x2="40.63" y1="10.29" y2="16.09"/>
                  
            <line class="bond" id="mol1bnd4" x1="40.63" x2="53.83" y1="16.09" y2="8.47"/>
                  
            <line class="bond" id="mol1bnd5" x1="53.83" x2="67.03" y1="8.47" y2="16.09"/>
                  
            <g class="bond" id="mol1bnd6">
                        
                <line x1="80.23" x2="67.03" y1="8.46" y2="16.09"/>
                        
                <line x1="80.23" x2="69.47" y1="11.28" y2="17.5"/>
                      
            </g>
                  
            <line class="bond" id="mol1bnd7" x1="80.23" x2="93.43" y1="8.46" y2="16.08"/>
                  
            <g class="bond" id="mol1bnd8">
                        
                <line x1="93.43" x2="93.43" y1="31.33" y2="16.08"/>
                        
                <line x1="90.99" x2="90.99" y1="29.92" y2="17.49"/>
                      
            </g>
                  
            <line class="bond" id="mol1bnd9" x1="93.43" x2="80.22" y1="31.33" y2="38.96"/>
                  
            <g class="bond" id="mol1bnd10">
                        
                <line x1="67.02" x2="80.22" y1="31.34" y2="38.96"/>
                        
                <line x1="69.46" x2="80.22" y1="29.93" y2="36.14"/>
                      
            </g>
                  
            <line class="bond" id="mol1bnd11" x1="67.03" x2="67.02" y1="16.09" y2="31.34"/>
                  
            <line class="bond" id="mol1bnd12" x1="40.63" x2="40.63" y1="16.09" y2="31.33"/>
                  
            <g class="bond" id="mol1bnd13">
                        
                <line x1="53.84" x2="40.63" y1="38.95" y2="31.33"/>
                        
                <line x1="51.4" x2="40.63" y1="40.36" y2="34.15"/>
                      
            </g>
                  
            <line class="bond" id="mol1bnd14" x1="53.84" x2="53.84" y1="38.95" y2="54.19"/>
                  
            <g class="bond" id="mol1bnd15">
                        
                <line x1="40.63" x2="53.84" y1="61.81" y2="54.19"/>
                        
                <line x1="40.63" x2="51.4" y1="59.0" y2="52.78"/>
                      
            </g>
                  
            <line class="bond" id="mol1bnd16" x1="40.63" x2="27.42" y1="61.81" y2="54.19"/>
                  
            <g class="bond" id="mol1bnd17">
                        
                <line x1="27.42" x2="27.42" y1="38.95" y2="54.19"/>
                        
                <line x1="29.86" x2="29.86" y1="40.36" y2="52.78"/>
                      
            </g>
                  
            <line class="bond" id="mol1bnd18" x1="40.63" x2="27.42" y1="31.33" y2="38.95"/>
                  
            <g class="atom" id="mol1atm3">
                        
                <path d="M29.38 10.92h-.72l-2.62 -4.07h-.03q.01 .24 .03 .6q.02 .36 .02 .73v2.74h-.57v-4.9h.71l2.61 4.05h.03q-.01 -.11 -.02 -.33q-.01 -.22 -.02 -.48q-.01 -.26 -.01 -.48v-2.77h.58v4.9z" stroke="none"/>
                        
                <path d="M29.24 5.46h-.62v-2.29h-2.51v2.29h-.61v-4.9h.61v2.07h2.51v-2.07h.62v4.9z" stroke="none"/>
                      
            </g>
                
            <line class="hi" id="mol1bnd2" stroke="#3050F8" x1="24.28" x2="19.26" y1="10.29" y2="13.19"/>
            <line class="hi" id="mol1bnd2" stroke="#3050F8" x1="24.28" x2="19.26" y1="10.29" y2="13.19"/>
            <line class="hi" id="mol1bnd3" stroke="#3050F8" x1="30.59" x2="35.61" y1="10.29" y2="13.19"/>
            <line class="hi" id="mol1bnd3" stroke="#3050F8" x1="30.59" x2="35.61" y1="10.29" y2="13.19"/>
        </g>
          
    </g>
    
</svg>
