<svg xmlns="http://www.w3.org/2000/svg" xmlns:xlink="http://www.w3.org/1999/xlink" height="64.89mm" version="1.2" viewBox="0 0 78.42 64.89" width="78.42mm">
      
    <desc>Generated by the Chemistry Development Kit (http://github.com/cdk)</desc>
      
    <g fill="#3050F8" stroke="#000000" stroke-linecap="round" stroke-linejoin="round" stroke-width=".7">
            
        <rect fill="#FFFFFF" height="65.0" stroke="none" width="79.0" x=".0" y=".0"/>
            
        <g class="mol" id="mol1">
                  
            <line class="bond" id="mol1bnd1" x1="52.88" x2="47.67" y1="63.88" y2="49.56"/>
                  
            <line class="bond" id="mol1bnd2" x1="47.67" x2="35.98" y1="49.56" y2="47.49"/>
                  
            <line class="bond" id="mol1bnd3" x1="31.29" x2="27.45" y1="43.14" y2="32.58"/>
                  
            <line class="bond" id="mol1bnd4" x1="27.45" x2="14.25" y1="32.58" y2="40.2"/>
                  
            <line class="bond" id="mol1bnd5" x1="14.25" x2="1.04" y1="40.2" y2="32.58"/>
                  
            <line class="bond" id="mol1bnd6" x1="1.04" x2="1.04" y1="32.58" y2="17.34"/>
                  
            <line class="bond" id="mol1bnd7" x1="1.04" x2="14.25" y1="17.34" y2="9.72"/>
                  
            <line class="bond" id="mol1bnd8" x1="14.25" x2="27.45" y1="9.72" y2="17.34"/>
                  
            <line class="bond" id="mol1bnd9" x1="27.45" x2="27.45" y1="32.58" y2="17.34"/>
                  
            <g class="bond" id="mol1bnd10">
                        
                <line x1="26.23" x2="36.76" y1="16.64" y2="10.56"/>
                        
                <line x1="27.45" x2="37.98" y1="18.75" y2="12.67"/>
                      
                <line class="hi" stroke="#FF0D0D" x1="36.76" x2="31.494999999999997" y1="10.56" y2="13.600000000000001"/>
                <line class="hi" stroke="#FF0D0D" x1="37.98" x2="32.714999999999996" y1="12.67" y2="15.71"/>
            </g>
                  
            <line class="bond" id="mol1bnd11" x1="27.45" x2="47.27" y1="32.58" y2="29.09"/>
                  
            <g class="bond" id="mol1bnd12">
                        
                <line x1="47.27" x2="57.09" y1="29.09" y2="40.81"/>
                        
                <line x1="50.04" x2="58.04" y1="28.6" y2="38.15"/>
                      
            </g>
                  
            <line class="bond" id="mol1bnd13" x1="57.09" x2="72.07" y1="40.81" y2="38.03"/>
                  
            <g class="bond" id="mol1bnd14">
                        
                <line x1="72.07" x2="77.37" y1="38.03" y2="23.71"/>
                        
                <line x1="70.26" x2="74.59" y1="35.88" y2="24.2"/>
                      
            </g>
                  
            <line class="bond" id="mol1bnd15" x1="77.37" x2="67.45" y1="23.71" y2="12.02"/>
                  
            <g class="bond" id="mol1bnd16">
                        
                <line x1="67.45" x2="52.47" y1="12.02" y2="14.8"/>
                        
                <line x1="66.5" x2="54.28" y1="14.67" y2="16.94"/>
                      
            </g>
                  
            <line class="bond" id="mol1bnd17" x1="47.27" x2="52.47" y1="29.09" y2="14.8"/>
                  
            <line class="bond" id="mol1bnd18" x1="52.47" x2="43.82" y1="14.8" y2="4.59"/>
                  
            <g class="atom" id="mol1atm3">
                        
                <path d="M34.6 49.36h-.72l-2.62 -4.07h-.03q.01 .24 .03 .6q.02 .36 .02 .73v2.74h-.57v-4.9h.71l2.61 4.05h.03q-.01 -.11 -.02 -.33q-.01 -.22 -.02 -.48q-.01 -.26 -.01 -.48v-2.77h.58v4.9z" stroke="none"/>
                        
                <path d="M30.16 49.36h-.62v-2.29h-2.51v2.29h-.61v-4.9h.61v2.07h2.51v-2.07h.62v4.9z" stroke="none"/>
                      
            </g>
                  
            <path class="atom" d="M42.91 9.72q.0 .76 -.26 1.33q-.26 .57 -.76 .88q-.5 .32 -1.24 .32q-.76 .0 -1.26 -.32q-.51 -.32 -.76 -.89q-.24 -.57 -.24 -1.33q.0 -.75 .24 -1.31q.25 -.57 .76 -.88q.51 -.32 1.27 -.32q.73 .0 1.23 .32q.5 .31 .76 .88q.26 .57 .26 1.33zM39.05 9.72q.0 .92 .39 1.46q.39 .53 1.22 .53q.84 .0 1.22 -.53q.39 -.54 .39 -1.46q.0 -.93 -.39 -1.45q-.38 -.52 -1.21 -.52q-.83 .0 -1.23 .52q-.39 .52 -.39 1.45z" fill="#FF0D0D" id="mol1atm10" stroke="none"/>
                  
            <path class="atom" d="M40.16 1.35q-.79 .0 -1.24 .53q-.45 .52 -.45 1.45q.0 .91 .42 1.45q.42 .53 1.27 .53q.32 .0 .61 -.05q.29 -.06 .57 -.14v.54q-.27 .1 -.57 .15q-.29 .05 -.7 .05q-.74 .0 -1.25 -.31q-.5 -.31 -.75 -.88q-.25 -.57 -.25 -1.34q.0 -.74 .27 -1.31q.27 -.57 .8 -.88q.53 -.32 1.28 -.32q.78 .0 1.35 .29l-.24 .52q-.23 -.1 -.51 -.18q-.27 -.08 -.61 -.08zM42.92 5.77h-.6v-5.21h.6v5.21z" fill="#1FF01F" id="mol1atm17" stroke="none"/>
                
            <line class="hi" id="mol1bnd2" stroke="#3050F8" x1="35.98" x2="41.825" y1="47.49" y2="48.525000000000006"/>
            <line class="hi" id="mol1bnd2" stroke="#3050F8" x1="35.98" x2="41.825" y1="47.49" y2="48.525000000000006"/>
            <line class="hi" id="mol1bnd3" stroke="#3050F8" x1="31.29" x2="29.369999999999997" y1="43.14" y2="37.86"/>
            <line class="hi" id="mol1bnd3" stroke="#3050F8" x1="31.29" x2="29.369999999999997" y1="43.14" y2="37.86"/>
            <line class="hi" id="mol1bnd18" stroke="#FF0D0D" x1="45.96989936705114" x2="48.144999999999996" y1="7.127626882958631" y2="9.695"/>
            <line class="hi" id="mol1bnd18" stroke="#1FF01F" x1="43.82" x2="48.144999999999996" y1="4.59" y2="9.695"/>
        </g>
          
    </g>
    
</svg>
