<svg xmlns="http://www.w3.org/2000/svg" xmlns:xlink="http://www.w3.org/1999/xlink" height="102.74mm" version="1.2" viewBox="0 0 88.4 102.74" width="88.4mm">
      
    <desc>Generated by the Chemistry Development Kit (http://github.com/cdk)</desc>
      
    <g fill="#FF0D0D" stroke="#000000" stroke-linecap="round" stroke-linejoin="round" stroke-width=".7">
            
        <rect fill="#FFFFFF" height="103.0" stroke="none" width="89.0" x=".0" y=".0"/>
            
        <g class="mol" id="mol1">
                  
            <line class="bond" id="mol1bnd1" x1="14.31" x2="1.04" y1="8.51" y2="1.04"/>
                  
            <line class="bond" id="mol1bnd2" x1="14.31" x2="14.43" y1="8.51" y2="19.82"/>
                  
            <line class="bond" id="mol1bnd3" x1="17.76" x2="27.74" y1="25.6" y2="31.22"/>
                  
            <line class="bond" id="mol1bnd4" x1="27.74" x2="40.84" y1="31.22" y2="23.4"/>
                  
            <g class="bond" id="mol1bnd5">
                        
                <line x1="54.04" x2="40.84" y1="30.91" y2="23.4"/>
                        
                <line x1="51.62" x2="40.87" y1="32.34" y2="26.22"/>
                      
            </g>
                  
            <line class="bond" id="mol1bnd6" x1="54.04" x2="54.24" y1="30.91" y2="46.15"/>
                  
            <line class="bond" id="mol1bnd7" x1="54.24" x2="67.55" y1="46.15" y2="53.76"/>
                  
            <line class="bond" id="mol1bnd8" x1="67.55" x2="67.65" y1="53.76" y2="68.99"/>
                  
            <line class="bond" id="mol1bnd9" x1="67.65" x2="54.55" y1="68.99" y2="76.81"/>
                  
            <g class="bond" id="mol1bnd10">
                        
                <line x1="54.24" x2="54.85" y1="76.99" y2="76.64"/>
                        
                <line x1="53.99" x2="55.1" y1="79.67" y2="79.03"/>
                        
                <line x1="53.74" x2="55.36" y1="82.36" y2="81.42"/>
                        
                <line x1="53.49" x2="55.61" y1="85.04" y2="83.82"/>
                        
                <line x1="53.23" x2="55.86" y1="87.72" y2="86.21"/>
                        
                <line x1="52.98" x2="56.11" y1="90.41" y2="88.6"/>
                        
                <line x1="52.73" x2="56.37" y1="93.09" y2="90.99"/>
                      
            </g>
                  
            <g class="bond" id="mol1bnd11">
                        
                <line x1="41.35" x2="54.55" y1="99.66" y2="92.04"/>
                        
                <line x1="41.35" x2="52.11" y1="96.84" y2="90.63"/>
                      
            </g>
                  
            <line class="bond" id="mol1bnd12" x1="41.35" x2="28.15" y1="99.66" y2="92.04"/>
                  
            <line class="bond" id="mol1bnd13" x1="28.15" x2="28.15" y1="92.04" y2="76.81"/>
                  
            <line class="bond" id="mol1bnd14" x1="28.15" x2="41.35" y1="76.81" y2="69.2"/>
                  
            <line class="bond" id="mol1bnd15" x1="54.55" x2="41.35" y1="76.81" y2="69.2"/>
                  
            <g class="bond" id="mol1bnd16">
                        
                <line x1="41.0" x2="41.7" y1="69.2" y2="69.19"/>
                        
                <line x1="40.67" x2="41.95" y1="66.67" y2="66.65"/>
                        
                <line x1="40.35" x2="42.21" y1="64.13" y2="64.11"/>
                        
                <line x1="40.02" x2="42.47" y1="61.6" y2="61.56"/>
                        
                <line x1="39.69" x2="42.73" y1="59.06" y2="59.02"/>
                        
                <line x1="39.37" x2="42.99" y1="56.53" y2="56.48"/>
                        
                <line x1="39.04" x2="43.24" y1="53.99" y2="53.94"/>
                      
            </g>
                  
            <g class="bond" id="mol1bnd17">
                        
                <line x1="41.14" x2="54.24" y1="53.96" y2="46.15"/>
                        
                <line x1="41.11" x2="51.79" y1="51.14" y2="44.77"/>
                      
            </g>
                  
            <line class="bond" id="mol1bnd18" x1="41.14" x2="27.84" y1="53.96" y2="46.45"/>
                  
            <g class="bond" id="mol1bnd19">
                        
                <line x1="27.74" x2="27.84" y1="31.22" y2="46.45"/>
                        
                <line x1="30.19" x2="30.27" y1="32.6" y2="45.02"/>
                      
            </g>
                  
            <line class="bond" id="mol1bnd20" x1="27.84" x2="15.65" y1="46.45" y2="57.98"/>
                  
            <g class="bond" id="mol1bnd21">
                        
                <line stroke="#000000" x1="27.89" x2="28.4" y1="77.05" y2="76.57"/>
                        
                <line stroke="#FF0D0D" x1="26.23" x2="26.99" y1="75.56" y2="74.84"/>
                        
                <line stroke="#FF0D0D" x1="24.57" x2="25.59" y1="74.06" y2="73.1"/>
                        
                <line stroke="#FF0D0D" x1="22.91" x2="24.18" y1="72.57" y2="71.37"/>
                        
                <line stroke="#FF0D0D" x1="21.25" x2="22.77" y1="71.08" y2="69.63"/>
                        
                <line stroke="#FF0D0D" x1="19.59" x2="21.37" y1="69.58" y2="67.9"/>
                        
                <line stroke="#FF0D0D" x1="17.93" x2="19.96" y1="68.09" y2="66.16"/>
                        
                <line stroke="#FF0D0D" x1="16.27" x2="18.56" y1="66.59" y2="64.43"/>
                        
                <line stroke="#FF0D0D" x1="14.61" x2="17.15" y1="65.1" y2="62.69"/>
                      
            </g>
                  
            <path class="bond" d="M41.16 68.9l.37 .6l18.27 -8.59l-4.99 .02l-3.39 .01z" fill="#000000" id="mol1bnd22" stroke="none"/>
                  
            <line class="bond" id="mol1bnd23" x1="54.24" x2="80.75" y1="61.28" y2="61.17"/>
                  
            <line class="bond" id="mol1bnd24" x1="80.75" x2="80.97" y1="61.17" y2="72.66"/>
                  
            <path class="bond" d="M67.82 68.69l-.34 .61l9.59 6.91l.83 -1.47l.83 -1.47z" fill="#000000" id="mol1bnd25" stroke="none"/>
                  
            <line class="bond" id="mol1bnd26" x1="82.75" x2="87.38" y1="80.23" y2="90.36"/>
                  
            <g class="bond" id="mol1bnd27">
                        
                <line stroke="#000000" x1="28.32" x2="27.97" y1="92.35" y2="91.74"/>
                        
                <line stroke="#FF0D0D" x1="26.27" x2="25.63" y1="93.87" y2="92.76"/>
                        
                <line stroke="#FF0D0D" x1="24.22" x2="23.28" y1="95.39" y2="93.77"/>
                        
                <line stroke="#FF0D0D" x1="22.16" x2="20.94" y1="96.91" y2="94.79"/>
                        
                <line stroke="#FF0D0D" x1="20.11" x2="18.59" y1="98.44" y2="95.81"/>
                      
            </g>
                  
            <path class="atom" d="M16.73 23.74q.0 .76 -.26 1.33q-.26 .57 -.76 .88q-.5 .32 -1.24 .32q-.76 .0 -1.26 -.32q-.51 -.32 -.76 -.89q-.24 -.57 -.24 -1.33q.0 -.75 .24 -1.31q.25 -.57 .76 -.88q.51 -.32 1.27 -.32q.73 .0 1.23 .32q.5 .31 .76 .88q.26 .57 .26 1.33zM12.86 23.74q.0 .92 .39 1.46q.39 .53 1.22 .53q.84 .0 1.22 -.53q.39 -.54 .39 -1.46q.0 -.93 -.39 -1.45q-.38 -.52 -1.21 -.52q-.83 .0 -1.23 .52q-.39 .52 -.39 1.45z" id="mol1atm3" stroke="none"/>
                  
            <path class="atom" d="M15.07 60.66q.0 .76 -.26 1.33q-.26 .57 -.76 .88q-.5 .32 -1.24 .32q-.76 .0 -1.26 -.32q-.51 -.32 -.76 -.89q-.24 -.57 -.24 -1.33q.0 -.75 .24 -1.31q.25 -.57 .76 -.88q.51 -.32 1.27 -.32q.73 .0 1.23 .32q.5 .31 .76 .88q.26 .57 .26 1.33zM11.21 60.66q.0 .92 .39 1.46q.39 .53 1.22 .53q.84 .0 1.22 -.53q.39 -.54 .39 -1.46q.0 -.93 -.39 -1.45q-.38 -.52 -1.21 -.52q-.83 .0 -1.23 .52q-.39 .52 -.39 1.45z" id="mol1atm18" stroke="none"/>
                  
            <path class="atom" d="M82.99 78.96h-.72l-2.62 -4.07h-.03q.01 .24 .03 .6q.02 .36 .02 .73v2.74h-.57v-4.9h.71l2.61 4.05h.03q-.01 -.11 -.02 -.33q-.01 -.22 -.02 -.48q-.01 -.26 -.01 -.48v-2.77h.58v4.9z" fill="#3050F8" id="mol1atm21" stroke="none"/>
                  
            <g class="atom" id="mol1atm23">
                        
                <path d="M17.22 99.66q.0 .76 -.26 1.33q-.26 .57 -.76 .88q-.5 .32 -1.24 .32q-.76 .0 -1.26 -.32q-.51 -.32 -.76 -.89q-.24 -.57 -.24 -1.33q.0 -.75 .24 -1.31q.25 -.57 .76 -.88q.51 -.32 1.27 -.32q.73 .0 1.23 .32q.5 .31 .76 .88q.26 .57 .26 1.33zM13.35 99.66q.0 .92 .39 1.46q.39 .53 1.22 .53q.84 .0 1.22 -.53q.39 -.54 .39 -1.46q.0 -.93 -.39 -1.45q-.38 -.52 -1.21 -.52q-.83 .0 -1.23 .52q-.39 .52 -.39 1.45z" stroke="none"/>
                        
                <path d="M12.14 102.11h-.62v-2.29h-2.51v2.29h-.61v-4.9h.61v2.07h2.51v-2.07h.62v4.9z" stroke="none"/>
                      
            </g>
                
            <line class="hi" id="mol1bnd2" stroke="#FF0D0D" x1="14.43" x2="14.370000000000001" y1="19.82" y2="14.165"/>
            <line class="hi" id="mol1bnd3" stroke="#FF0D0D" x1="17.76" x2="22.75" y1="25.6" y2="28.41"/>
            <line class="hi" id="mol1bnd20" stroke="#FF0D0D" x1="15.65" x2="21.745" y1="57.98" y2="52.215"/>
            <line class="hi" id="mol1bnd24" stroke="#3050F8" x1="80.97" x2="80.86" y1="72.66" y2="66.91499999999999"/>
            <line class="hi" id="mol1bnd26" stroke="#3050F8" x1="82.75" x2="85.065" y1="80.23" y2="85.295"/>
        </g>
          
    </g>
    
</svg>
