<svg xmlns="http://www.w3.org/2000/svg" xmlns:xlink="http://www.w3.org/1999/xlink" height="76.81mm" version="1.2" viewBox="0 0 106.2 76.81" width="106.2mm">
      
    <desc>Generated by the Chemistry Development Kit (http://github.com/cdk)</desc>
      
    <g fill="#3050F8" stroke="#000000" stroke-linecap="round" stroke-linejoin="round" stroke-width=".7">
            
        <rect fill="#FFFFFF" height="77.0" stroke="none" width="107.0" x=".0" y=".0"/>
            
        <g class="mol" id="mol1">
                  
            <line class="bond" id="mol1bnd1" x1="37.73" x2="52.29" y1="75.81" y2="71.32"/>
                  
            <line class="bond" id="mol1bnd2" x1="52.29" x2="55.68" y1="71.32" y2="56.46"/>
                  
            <g class="bond" id="mol1bnd3">
                        
                <line x1="45.66" x2="55.68" y1="44.99" y2="56.46"/>
                        
                <line x1="48.66" x2="56.35" y1="44.72" y2="53.53"/>
                      
            </g>
                  
            <line class="bond" id="mol1bnd4" x1="45.66" x2="53.47" y1="44.99" y2="31.9"/>
                  
            <g class="bond" id="mol1bnd5">
                        
                <line x1="68.33" x2="53.47" y1="35.3" y2="31.9"/>
                        
                <line x1="66.06" x2="54.66" y1="37.28" y2="34.68"/>
                      
            </g>
                  
            <line class="bond" id="mol1bnd6" x1="68.33" x2="69.35" y1="35.3" y2="46.56"/>
                  
            <line class="bond" id="mol1bnd7" x1="55.68" x2="66.88" y1="56.46" y2="51.68"/>
                  
            <line class="bond" id="mol1bnd8" x1="68.33" x2="77.21" y1="35.3" y2="28.21"/>
                  
            <line class="bond" id="mol1bnd9" x1="83.52" x2="94.74" y1="26.86" y2="30.5"/>
                  
            <g class="bond" id="mol1bnd10">
                        
                <line x1="94.74" x2="101.1" y1="30.5" y2="21.76"/>
                        
                <line x1="93.81" x2="99.12" y1="27.64" y2="20.32"/>
                      
                <line class="hi" stroke="#3050F8" x1="101.1" x2="97.91999999999999" y1="21.76" y2="26.130000000000003"/>
                <line class="hi" stroke="#3050F8" x1="99.12" x2="96.465" y1="20.32" y2="23.98"/>
            </g>
                  
            <line class="bond" id="mol1bnd11" x1="101.1" x2="97.34" y1="14.59" y2="9.43"/>
                  
            <g class="bond" id="mol1bnd12">
                        
                <line x1="91.47" x2="80.25" y1="6.91" y2="10.55"/>
                        
                <line x1="92.22" x2="82.68" y1="9.23" y2="12.33"/>
                      
                <line class="hi" stroke="#3050F8" x1="91.47" x2="85.86" y1="6.91" y2="8.73"/>
                <line class="hi" stroke="#3050F8" x1="92.22" x2="87.45" y1="9.23" y2="10.780000000000001"/>
            </g>
                  
            <line class="bond" id="mol1bnd13" x1="80.25" x2="80.25" y1="21.94" y2="10.55"/>
                  
            <line class="bond" id="mol1bnd14" x1="80.25" x2="68.33" y1="10.55" y2="1.05"/>
                  
            <line class="bond" id="mol1bnd15" x1="68.33" x2="56.78" y1="1.05" y2="3.69"/>
                  
            <g class="bond" id="mol1bnd16">
                        
                <line x1="51.69" x2="46.86" y1="8.15" y2="18.17"/>
                        
                <line x1="53.88" x2="49.57" y1="9.21" y2="18.17"/>
                      
                <line class="hi" stroke="#3050F8" x1="51.69" x2="49.275" y1="8.15" y2="13.16"/>
                <line class="hi" stroke="#3050F8" x1="53.88" x2="51.725" y1="9.21" y2="13.690000000000001"/>
            </g>
                  
            <line class="bond" id="mol1bnd17" x1="53.47" x2="46.86" y1="31.9" y2="18.17"/>
                  
            <line class="bond" id="mol1bnd18" x1="46.86" x2="31.62" y1="18.17" y2="18.17"/>
                  
            <g class="bond" id="mol1bnd19">
                        
                <line x1="31.62" x2="23.98" y1="18.17" y2="4.93"/>
                        
                <line x1="28.81" x2="22.58" y1="18.17" y2="7.38"/>
                      
            </g>
                  
            <line class="bond" id="mol1bnd20" x1="23.98" x2="8.74" y1="4.93" y2="5.07"/>
                  
            <g class="bond" id="mol1bnd21">
                        
                <line x1="8.74" x2="1.04" y1="5.07" y2="18.25"/>
                        
                <line x1="10.15" x2="3.86" y1="7.5" y2="18.25"/>
                      
            </g>
                  
            <line class="bond" id="mol1bnd22" x1="1.04" x2="8.78" y1="18.25" y2="31.49"/>
                  
            <g class="bond" id="mol1bnd23">
                        
                <line x1="8.78" x2="24.02" y1="31.49" y2="31.35"/>
                        
                <line x1="10.17" x2="22.6" y1="29.04" y2="28.92"/>
                      
            </g>
                  
            <line class="bond" id="mol1bnd24" x1="31.62" x2="24.02" y1="18.17" y2="31.35"/>
                  
            <line class="bond" id="mol1bnd25" x1="24.02" x2="29.84" y1="31.35" y2="41.33"/>
                  
            <line class="bond" id="mol1bnd26" x1="94.74" x2="99.45" y1="30.5" y2="45.0"/>
                  
            <path class="atom" d="M71.24 51.61q.0 .65 -.48 1.02q-.47 .36 -1.27 .36q-.42 .0 -.77 -.07q-.35 -.06 -.58 -.17v-.59q.24 .11 .61 .2q.37 .09 .76 .09q.55 .0 .83 -.21q.28 -.21 .28 -.58q.0 -.24 -.11 -.4q-.1 -.17 -.35 -.31q-.25 -.14 -.7 -.3q-.63 -.23 -.95 -.55q-.32 -.33 -.32 -.9q.0 -.39 .2 -.67q.2 -.28 .55 -.43q.36 -.15 .82 -.15q.4 .0 .74 .08q.34 .07 .61 .2l-.2 .53q-.25 -.11 -.55 -.18q-.3 -.08 -.63 -.08q-.46 .0 -.69 .2q-.23 .2 -.23 .52q.0 .24 .1 .41q.11 .17 .34 .3q.23 .13 .63 .28q.43 .15 .73 .34q.3 .18 .45 .43q.15 .25 .15 .64z" fill="#C6C62C" id="mol1atm7" stroke="none"/>
                  
            <path class="atom" d="M82.19 28.24h-.72l-2.62 -4.07h-.03q.01 .24 .03 .6q.02 .36 .02 .73v2.74h-.57v-4.9h.71l2.61 4.05h.03q-.01 -.11 -.02 -.33q-.01 -.22 -.02 -.48q-.01 -.26 -.01 -.48v-2.77h.58v4.9z" id="mol1atm8" stroke="none"/>
                  
            <path class="atom" d="M105.64 20.62h-.72l-2.62 -4.07h-.03q.01 .24 .03 .6q.02 .36 .02 .73v2.74h-.57v-4.9h.71l2.61 4.05h.03q-.01 -.11 -.02 -.33q-.01 -.22 -.02 -.48q-.01 -.26 -.01 -.48v-2.77h.58v4.9z" id="mol1atm10" stroke="none"/>
                  
            <path class="atom" d="M96.68 8.29h-.72l-2.62 -4.07h-.03q.01 .24 .03 .6q.02 .36 .02 .73v2.74h-.57v-4.9h.71l2.61 4.05h.03q-.01 -.11 -.02 -.33q-.01 -.22 -.02 -.48q-.01 -.26 -.01 -.48v-2.77h.58v4.9z" id="mol1atm11" stroke="none"/>
                  
            <path class="atom" d="M55.41 6.89h-.72l-2.62 -4.07h-.03q.01 .24 .03 .6q.02 .36 .02 .73v2.74h-.57v-4.9h.71l2.61 4.05h.03q-.01 -.11 -.02 -.33q-.01 -.22 -.02 -.48q-.01 -.26 -.01 -.48v-2.77h.58v4.9z" id="mol1atm14" stroke="none"/>
                  
            <path class="atom" d="M32.2 42.54q-.79 .0 -1.24 .53q-.45 .52 -.45 1.45q.0 .91 .42 1.45q.42 .53 1.27 .53q.32 .0 .61 -.05q.29 -.06 .57 -.14v.54q-.27 .1 -.57 .15q-.29 .05 -.7 .05q-.74 .0 -1.25 -.31q-.5 -.31 -.75 -.88q-.25 -.57 -.25 -1.34q.0 -.74 .27 -1.31q.27 -.57 .8 -.88q.53 -.32 1.28 -.32q.78 .0 1.35 .29l-.24 .52q-.23 -.1 -.51 -.18q-.27 -.08 -.61 -.08zM34.95 46.96h-.6v-5.21h.6v5.21z" fill="#1FF01F" id="mol1atm22" stroke="none"/>
                
            <line class="hi" id="mol1bnd6" stroke="#C6C62C" x1="69.35" x2="68.84" y1="46.56" y2="40.93"/>
            <line class="hi" id="mol1bnd7" stroke="#C6C62C" x1="66.88" x2="61.28" y1="51.68" y2="54.07"/>
            <line class="hi" id="mol1bnd8" stroke="#3050F8" x1="77.21" x2="72.77" y1="28.21" y2="31.755"/>
            <line class="hi" id="mol1bnd9" stroke="#3050F8" x1="83.52" x2="89.13" y1="26.86" y2="28.68"/>
            <line class="hi" id="mol1bnd11" stroke="#3050F8" x1="101.1" x2="99.22" y1="14.59" y2="12.01"/>
            <line class="hi" id="mol1bnd11" stroke="#3050F8" x1="97.34" x2="99.22" y1="9.43" y2="12.01"/>
            <line class="hi" id="mol1bnd13" stroke="#3050F8" x1="80.25" x2="80.25" y1="21.94" y2="16.245"/>
            <line class="hi" id="mol1bnd15" stroke="#3050F8" x1="56.78" x2="62.555" y1="3.6899999999999995" y2="2.37"/>
            <line class="hi" id="mol1bnd25" stroke="#1FF01F" x1="29.84" x2="26.93" y1="41.33" y2="36.34"/>
        </g>
          
    </g>
    
</svg>
