<svg xmlns="http://www.w3.org/2000/svg" xmlns:xlink="http://www.w3.org/1999/xlink" height="138.02mm" version="1.2" viewBox="0 0 121.02 138.02" width="121.02mm">
      
    <desc>Generated by the Chemistry Development Kit (http://github.com/cdk)</desc>
      
    <g fill="#3050F8" stroke="#000000" stroke-linecap="round" stroke-linejoin="round" stroke-width=".7">
            
        <rect fill="#FFFFFF" height="139.0" stroke="none" width="122.0" x=".0" y=".0"/>
            
        <g class="mol" id="mol1">
                  
            <line class="bond" id="mol1bnd1" x1="85.99" x2="81.26" y1="9.19" y2="23.68"/>
                  
            <line class="bond" id="mol1bnd2" x1="81.26" x2="69.66" y1="23.68" y2="26.13"/>
                  
            <line class="bond" id="mol1bnd3" x1="63.47" x2="56.16" y1="23.63" y2="15.49"/>
                  
            <line class="bond" id="mol1bnd4" x1="56.16" x2="60.89" y1="15.49" y2="1.0"/>
                  
            <line class="bond" id="mol1bnd5" x1="65.11" x2="61.62" y1="30.61" y2="41.32"/>
                  
            <line class="bond" id="mol1bnd6" x1="61.62" x2="46.71" y1="41.32" y2="44.47"/>
                  
            <line class="bond" id="mol1bnd7" x1="46.71" x2="43.22" y1="44.47" y2="55.17"/>
                  
            <line class="bond" id="mol1bnd8" x1="38.71" x2="27.45" y1="60.01" y2="63.63"/>
                  
            <g class="bond" id="mol1bnd9">
                        
                <line x1="27.45" x2="14.25" y1="63.63" y2="56.01"/>
                        
                <line x1="25.02" x2="14.25" y1="65.04" y2="58.82"/>
                      
            </g>
                  
            <line class="bond" id="mol1bnd10" x1="14.25" x2="1.04" y1="56.01" y2="63.63"/>
                  
            <g class="bond" id="mol1bnd11">
                        
                <line x1="1.04" x2="1.04" y1="63.63" y2="78.87"/>
                        
                <line x1="3.48" x2="3.48" y1="65.04" y2="77.46"/>
                      
            </g>
                  
            <line class="bond" id="mol1bnd12" x1="1.04" x2="14.25" y1="78.87" y2="86.49"/>
                  
            <g class="bond" id="mol1bnd13">
                        
                <line x1="14.25" x2="27.45" y1="86.49" y2="78.87"/>
                        
                <line x1="14.25" x2="25.02" y1="83.67" y2="77.46"/>
                      
            </g>
                  
            <line class="bond" id="mol1bnd14" x1="27.45" x2="27.45" y1="63.63" y2="78.87"/>
                  
            <line class="bond" id="mol1bnd15" x1="27.45" x2="38.71" y1="78.87" y2="82.49"/>
                  
            <g class="bond" id="mol1bnd16">
                        
                <line x1="44.59" x2="50.92" y1="79.96" y2="71.25"/>
                        
                <line x1="42.62" x2="47.91" y1="78.53" y2="71.25"/>
                      
                <line class="hi" stroke="#3050F8" x1="44.59" x2="47.755" y1="79.96" y2="75.60499999999999"/>
                <line class="hi" stroke="#3050F8" x1="42.62" x2="45.265" y1="78.53" y2="74.89"/>
            </g>
                  
            <line class="bond" id="mol1bnd17" x1="44.59" x2="50.92" y1="62.54" y2="71.25"/>
                  
            <line class="bond" id="mol1bnd18" x1="50.92" x2="66.16" y1="71.25" y2="71.25"/>
                  
            <line class="bond" id="mol1bnd19" x1="66.16" x2="73.78" y1="71.25" y2="84.45"/>
                  
            <g class="bond" id="mol1bnd20">
                        
                <line x1="89.02" x2="73.78" y1="84.37" y2="84.45"/>
                        
                <line x1="87.64" x2="75.19" y1="86.82" y2="86.88"/>
                      
            </g>
                  
            <line class="bond" id="mol1bnd21" x1="89.02" x2="96.71" y1="84.37" y2="97.24"/>
                  
            <g class="bond" id="mol1bnd22">
                        
                <line x1="89.15" x2="96.71" y1="110.99" y2="97.24"/>
                        
                <line x1="87.71" x2="93.9" y1="108.56" y2="97.29"/>
                      
            </g>
                  
            <line class="bond" id="mol1bnd23" x1="89.15" x2="73.91" y1="110.99" y2="111.07"/>
                  
            <g class="bond" id="mol1bnd24">
                        
                <line x1="66.23" x2="73.91" y1="97.39" y2="111.07"/>
                        
                <line x1="69.04" x2="75.34" y1="97.41" y2="108.62"/>
                      
            </g>
                  
            <line class="bond" id="mol1bnd25" x1="73.78" x2="66.23" y1="84.45" y2="97.39"/>
                  
            <line class="bond" id="mol1bnd26" x1="89.15" x2="94.93" y1="110.99" y2="120.7"/>
                  
            <line class="bond" id="mol1bnd27" x1="100.61" x2="112.19" y1="124.04" y2="123.89"/>
                  
            <line class="bond" id="mol1bnd28" x1="112.19" x2="119.98" y1="123.89" y2="136.98"/>
                  
            <path class="atom" d="M68.29 29.28h-.72l-2.62 -4.07h-.03q.01 .24 .03 .6q.02 .36 .02 .73v2.74h-.57v-4.9h.71l2.61 4.05h.03q-.01 -.11 -.02 -.33q-.01 -.22 -.02 -.48q-.01 -.26 -.01 -.48v-2.77h.58v4.9z" id="mol1atm3" stroke="none"/>
                  
            <path class="atom" d="M43.92 61.4h-.72l-2.62 -4.07h-.03q.01 .24 .03 .6q.02 .36 .02 .73v2.74h-.57v-4.9h.71l2.61 4.05h.03q-.01 -.11 -.02 -.33q-.01 -.22 -.02 -.48q-.01 -.26 -.01 -.48v-2.77h.58v4.9z" id="mol1atm8" stroke="none"/>
                  
            <path class="atom" d="M43.92 85.99h-.72l-2.62 -4.07h-.03q.01 .24 .03 .6q.02 .36 .02 .73v2.74h-.57v-4.9h.71l2.61 4.05h.03q-.01 -.11 -.02 -.33q-.01 -.22 -.02 -.48q-.01 -.26 -.01 -.48v-2.77h.58v4.9z" id="mol1atm15" stroke="none"/>
                  
            <path class="atom" d="M99.21 124.08q.0 .76 -.26 1.33q-.26 .57 -.76 .88q-.5 .32 -1.24 .32q-.76 .0 -1.26 -.32q-.51 -.32 -.76 -.89q-.24 -.57 -.24 -1.33q.0 -.75 .24 -1.31q.25 -.57 .76 -.88q.51 -.32 1.27 -.32q.73 .0 1.23 .32q.5 .31 .76 .88q.26 .57 .26 1.33zM95.34 124.08q.0 .92 .39 1.46q.39 .53 1.22 .53q.84 .0 1.22 -.53q.39 -.54 .39 -1.46q.0 -.93 -.39 -1.45q-.38 -.52 -1.21 -.52q-.83 .0 -1.23 .52q-.39 .52 -.39 1.45z" fill="#FF0D0D" id="mol1atm24" stroke="none"/>
                
            <line class="hi" id="mol1bnd2" stroke="#3050F8" x1="69.66" x2="75.46000000000001" y1="26.13" y2="24.905"/>
            <line class="hi" id="mol1bnd3" stroke="#3050F8" x1="63.47" x2="59.815" y1="23.63" y2="19.56"/>
            <line class="hi" id="mol1bnd5" stroke="#3050F8" x1="65.11" x2="63.364999999999995" y1="30.61" y2="35.965"/>
            <line class="hi" id="mol1bnd7" stroke="#3050F8" x1="43.22" x2="44.965" y1="55.17" y2="49.82"/>
            <line class="hi" id="mol1bnd8" stroke="#3050F8" x1="38.71" x2="33.08" y1="60.01" y2="61.82"/>
            <line class="hi" id="mol1bnd15" stroke="#3050F8" x1="38.71" x2="33.08" y1="82.49" y2="80.68"/>
            <line class="hi" id="mol1bnd17" stroke="#3050F8" x1="44.59" x2="47.755" y1="62.54" y2="66.895"/>
            <line class="hi" id="mol1bnd26" stroke="#FF0D0D" x1="94.93" x2="92.04" y1="120.7" y2="115.845"/>
            <line class="hi" id="mol1bnd27" stroke="#FF0D0D" x1="100.61" x2="106.4" y1="124.04" y2="123.965"/>
        </g>
          
    </g>
    
</svg>
