<svg xmlns="http://www.w3.org/2000/svg" xmlns:xlink="http://www.w3.org/1999/xlink" height="73.75mm" version="1.2" viewBox="0 0 71.85 73.75" width="71.85mm">
      
    <desc>Generated by the Chemistry Development Kit (http://github.com/cdk)</desc>
      
    <g fill="#3050F8" stroke="#000000" stroke-linecap="round" stroke-linejoin="round" stroke-width=".7">
            
        <rect fill="#FFFFFF" height="74.0" stroke="none" width="72.0" x=".0" y=".0"/>
            
        <g class="mol" id="mol1">
                  
            <line class="bond" id="mol1bnd1" x1="16.63" x2="3.42" y1="1.04" y2="8.66"/>
                  
            <line class="bond" id="mol1bnd2" x1="3.42" x2="3.42" y1="8.66" y2="23.9"/>
                  
            <line class="bond" id="mol1bnd3" x1="3.42" x2="13.47" y1="23.9" y2="29.7"/>
                  
            <line class="bond" id="mol1bnd4" x1="19.78" x2="29.84" y1="29.7" y2="23.9"/>
                  
            <line class="bond" id="mol1bnd5" x1="29.84" x2="29.84" y1="23.9" y2="8.66"/>
                  
            <line class="bond" id="mol1bnd6" x1="16.63" x2="29.84" y1="1.04" y2="8.66"/>
                  
            <line class="bond" id="mol1bnd7" x1="16.63" x2="16.63" y1="35.37" y2="46.76"/>
                  
            <g class="bond" id="mol1bnd8">
                        
                <line x1="16.63" x2="6.71" y1="46.76" y2="52.49"/>
                        
                <line x1="14.19" x2="5.49" y1="45.35" y2="50.37"/>
                      
                <line class="hi" stroke="#FF0D0D" x1="6.710000000000001" x2="11.67" y1="52.49" y2="49.625"/>
                <line class="hi" stroke="#FF0D0D" x1="5.49" x2="9.84" y1="50.37" y2="47.86"/>
            </g>
                  
            <g class="bond" id="mol1bnd9">
                        
                <line x1="29.65" x2="30.0" y1="54.68" y2="54.07"/>
                        
                <line x1="27.3" x2="27.95" y1="53.66" y2="52.55"/>
                        
                <line x1="24.96" x2="25.89" y1="52.65" y2="51.03"/>
                        
                <line x1="22.61" x2="23.84" y1="51.63" y2="49.51"/>
                        
                <line x1="20.27" x2="21.78" y1="50.61" y2="47.98"/>
                        
                <line x1="17.92" x2="19.73" y1="49.59" y2="46.46"/>
                        
                <line x1="15.58" x2="17.68" y1="48.58" y2="44.94"/>
                      
            </g>
                  
            <line class="bond" id="mol1bnd10" x1="29.83" x2="31.39" y1="54.38" y2="69.56"/>
                  
            <line class="bond" id="mol1bnd11" x1="31.39" x2="46.31" y1="69.56" y2="72.71"/>
                  
            <line class="bond" id="mol1bnd12" x1="46.31" x2="53.88" y1="72.71" y2="59.46"/>
                  
            <g class="bond" id="mol1bnd13">
                        
                <line x1="52.87" x2="65.25" y1="58.34" y2="57.01"/>
                        
                <line x1="53.13" x2="65.51" y1="60.77" y2="59.44"/>
                      
                <line class="hi" stroke="#FF0D0D" x1="65.25" x2="59.06" y1="57.01" y2="57.675"/>
                <line class="hi" stroke="#FF0D0D" x1="65.51" x2="59.32000000000001" y1="59.44" y2="60.105000000000004"/>
            </g>
                  
            <line class="bond" id="mol1bnd14" x1="53.88" x2="46.58" y1="59.46" y2="51.36"/>
                  
            <line class="bond" id="mol1bnd15" x1="29.83" x2="40.48" y1="54.38" y2="49.61"/>
                  
            <path class="atom" d="M18.57 33.97h-.72l-2.62 -4.07h-.03q.01 .24 .03 .6q.02 .36 .02 .73v2.74h-.57v-4.9h.71l2.61 4.05h.03q-.01 -.11 -.02 -.33q-.01 -.22 -.02 -.48q-.01 -.26 -.01 -.48v-2.77h.58v4.9z" id="mol1atm4" stroke="none"/>
                  
            <path class="atom" d="M5.08 53.32q.0 .76 -.26 1.33q-.26 .57 -.76 .88q-.5 .32 -1.24 .32q-.76 .0 -1.26 -.32q-.51 -.32 -.76 -.89q-.24 -.57 -.24 -1.33q.0 -.75 .24 -1.31q.25 -.57 .76 -.88q.51 -.32 1.27 -.32q.73 .0 1.23 .32q.5 .31 .76 .88q.26 .57 .26 1.33zM1.21 53.32q.0 .92 .39 1.46q.39 .53 1.22 .53q.84 .0 1.22 -.53q.39 -.54 .39 -1.46q.0 -.93 -.39 -1.45q-.38 -.52 -1.21 -.52q-.83 .0 -1.23 .52q-.39 .52 -.39 1.45z" fill="#FF0D0D" id="mol1atm8" stroke="none"/>
                  
            <path class="atom" d="M71.29 57.83q.0 .76 -.26 1.33q-.26 .57 -.76 .88q-.5 .32 -1.24 .32q-.76 .0 -1.26 -.32q-.51 -.32 -.76 -.89q-.24 -.57 -.24 -1.33q.0 -.75 .24 -1.31q.25 -.57 .76 -.88q.51 -.32 1.27 -.32q.73 .0 1.23 .32q.5 .31 .76 .88q.26 .57 .26 1.33zM67.43 57.83q.0 .92 .39 1.46q.39 .53 1.22 .53q.84 .0 1.22 -.53q.39 -.54 .39 -1.46q.0 -.93 -.39 -1.45q-.38 -.52 -1.21 -.52q-.83 .0 -1.23 .52q-.39 .52 -.39 1.45z" fill="#FF0D0D" id="mol1atm13" stroke="none"/>
                  
            <g class="atom" id="mol1atm14">
                        
                <path d="M45.64 50.62h-.72l-2.62 -4.07h-.03q.01 .24 .03 .6q.02 .36 .02 .73v2.74h-.57v-4.9h.71l2.61 4.05h.03q-.01 -.11 -.02 -.33q-.01 -.22 -.02 -.48q-.01 -.26 -.01 -.48v-2.77h.58v4.9z" stroke="none"/>
                        
                <path d="M45.51 45.16h-.62v-2.29h-2.51v2.29h-.61v-4.9h.61v2.07h2.51v-2.07h.62v4.9z" stroke="none"/>
                      
            </g>
                
            <line class="hi" id="mol1bnd3" stroke="#3050F8" x1="13.47" x2="8.445" y1="29.7" y2="26.799999999999997"/>
            <line class="hi" id="mol1bnd4" stroke="#3050F8" x1="19.78" x2="24.810000000000002" y1="29.7" y2="26.799999999999997"/>
            <line class="hi" id="mol1bnd7" stroke="#3050F8" x1="16.63" x2="16.63" y1="35.37" y2="41.065"/>
            <line class="hi" id="mol1bnd14" stroke="#3050F8" x1="46.58" x2="50.230000000000004" y1="51.36" y2="55.41"/>
            <line class="hi" id="mol1bnd14" stroke="#3050F8" x1="46.58" x2="50.230000000000004" y1="51.36" y2="55.41"/>
            <line class="hi" id="mol1bnd15" stroke="#3050F8" x1="40.48" x2="35.155" y1="49.61" y2="51.995000000000005"/>
            <line class="hi" id="mol1bnd15" stroke="#3050F8" x1="40.48" x2="35.155" y1="49.61" y2="51.995000000000005"/>
        </g>
          
    </g>
    
</svg>
