<svg xmlns="http://www.w3.org/2000/svg" xmlns:xlink="http://www.w3.org/1999/xlink" height="96.62mm" version="1.2" viewBox="0 0 101.57 96.62" width="101.57mm">
      
    <desc>Generated by the Chemistry Development Kit (http://github.com/cdk)</desc>
      
    <g fill="#3050F8" stroke="#000000" stroke-linecap="round" stroke-linejoin="round" stroke-width=".7">
            
        <rect fill="#FFFFFF" height="97.0" stroke="none" width="102.0" x=".0" y=".0"/>
            
        <g class="mol" id="mol1">
                  
            <line class="bond" id="mol1bnd1" x1="14.47" x2="14.69" y1="73.88" y2="58.64"/>
                  
            <g class="bond" id="mol1bnd2">
                        
                <line x1="5.56" x2="14.69" y1="51.79" y2="58.64"/>
                        
                <line x1="7.02" x2="14.74" y1="49.84" y2="55.63"/>
                      
                <line class="hi" stroke="#3050F8" x1="5.56" x2="10.125" y1="51.79" y2="55.215"/>
                <line class="hi" stroke="#3050F8" x1="7.02" x2="10.879999999999999" y1="49.84" y2="52.735"/>
            </g>
                  
            <line class="bond" id="mol1bnd3" x1="3.79" x2="6.14" y1="45.72" y2="38.85"/>
                  
            <g class="bond" id="mol1bnd4">
                        
                <line x1="22.66" x2="10.77" y1="35.31" y2="35.13"/>
                        
                <line x1="20.86" x2="10.73" y1="37.72" y2="37.57"/>
                      
                <line class="hi" stroke="#3050F8" x1="10.77" x2="16.715" y1="35.13" y2="35.22"/>
                <line class="hi" stroke="#3050F8" x1="10.73" x2="15.795" y1="37.57" y2="37.644999999999996"/>
            </g>
                  
            <line class="bond" id="mol1bnd5" x1="22.66" x2="25.99" y1="35.31" y2="46.08"/>
                  
            <line class="bond" id="mol1bnd6" x1="14.69" x2="24.07" y1="58.64" y2="52.04"/>
                  
            <line class="bond" id="mol1bnd7" x1="30.4" x2="41.34" y1="51.14" y2="55.44"/>
                  
            <g class="bond" id="mol1bnd8">
                        
                <line x1="54.54" x2="41.34" y1="47.82" y2="55.44"/>
                        
                <line x1="54.54" x2="43.78" y1="50.63" y2="56.84"/>
                      
            </g>
                  
            <line class="bond" id="mol1bnd9" x1="54.54" x2="67.74" y1="47.82" y2="55.44"/>
                  
            <g class="bond" id="mol1bnd10">
                        
                <line x1="67.74" x2="67.74" y1="70.68" y2="55.44"/>
                        
                <line x1="65.3" x2="65.3" y1="69.27" y2="56.84"/>
                      
            </g>
                  
            <line class="bond" id="mol1bnd11" x1="67.74" x2="54.54" y1="70.68" y2="78.3"/>
                  
            <g class="bond" id="mol1bnd12">
                        
                <line x1="41.34" x2="54.54" y1="70.68" y2="78.3"/>
                        
                <line x1="43.78" x2="54.54" y1="69.27" y2="75.48"/>
                      
            </g>
                  
            <line class="bond" id="mol1bnd13" x1="41.34" x2="41.34" y1="55.44" y2="70.68"/>
                  
            <line class="bond" id="mol1bnd14" x1="67.74" x2="77.78" y1="70.68" y2="76.48"/>
                  
            <g class="bond" id="mol1bnd15">
                        
                <line x1="82.16" x2="82.16" y1="82.15" y2="89.61"/>
                        
                <line x1="79.72" x2="79.72" y1="82.15" y2="89.61"/>
                      
                <line class="hi" stroke="#3050F8" x1="82.16" x2="82.16" y1="82.15" y2="85.88"/>
                <line class="hi" stroke="#3050F8" x1="82.16" x2="82.16" y1="82.15" y2="85.88"/>
                <line class="hi" stroke="#FF0D0D" x1="82.16" x2="82.16" y1="89.61" y2="85.88"/>
                <line class="hi" stroke="#3050F8" x1="79.72" x2="79.72" y1="82.15" y2="85.88"/>
                <line class="hi" stroke="#FF0D0D" x1="79.72" x2="79.72" y1="89.61" y2="85.88"/>
            </g>
                  
            <line class="bond" id="mol1bnd16" x1="86.59" x2="90.86" y1="75.04" y2="72.57"/>
                  
            <line class="bond" id="mol1bnd17" x1="54.54" x2="56.81" y1="47.82" y2="32.75"/>
                  
            <g class="bond" id="mol1bnd18">
                        
                <line x1="56.81" x2="49.34" y1="32.75" y2="24.69"/>
                        
                <line x1="54.23" x2="47.55" y1="33.54" y2="26.35"/>
                      
                <line class="hi" stroke="#3050F8" x1="49.34" x2="53.075" y1="24.69" y2="28.72"/>
                <line class="hi" stroke="#3050F8" x1="47.55" x2="50.89" y1="26.35" y2="29.945"/>
            </g>
                  
            <line class="bond" id="mol1bnd19" x1="43.11" x2="31.25" y1="21.82" y2="22.71"/>
                  
            <line class="bond" id="mol1bnd20" x1="22.66" x2="31.25" y1="35.31" y2="22.71"/>
                  
            <line class="bond" id="mol1bnd21" x1="56.81" x2="71.38" y1="32.75" y2="28.25"/>
                  
            <g class="bond" id="mol1bnd22">
                        
                <line x1="71.38" x2="82.5" y1="28.25" y2="38.55"/>
                        
                <line x1="74.07" x2="83.13" y1="27.42" y2="35.81"/>
                      
            </g>
                  
            <line class="bond" id="mol1bnd23" x1="82.5" x2="97.07" y1="38.55" y2="34.08"/>
                  
            <g class="bond" id="mol1bnd24">
                        
                <line x1="97.07" x2="100.52" y1="34.08" y2="19.32"/>
                        
                <line x1="95.02" x2="97.82" y1="32.16" y2="20.14"/>
                      
            </g>
                  
            <line class="bond" id="mol1bnd25" x1="100.52" x2="89.36" y1="19.32" y2="8.92"/>
                  
            <g class="bond" id="mol1bnd26">
                        
                <line x1="89.36" x2="74.79" y1="8.92" y2="13.39"/>
                        
                <line x1="88.73" x2="76.85" y1="11.67" y2="15.31"/>
                      
            </g>
                  
            <line class="bond" id="mol1bnd27" x1="71.38" x2="74.79" y1="28.25" y2="13.39"/>
                  
            <line class="bond" id="mol1bnd28" x1="74.79" x2="65.5" y1="13.39" y2="4.75"/>
                  
            <path class="atom" d="M4.44 51.95h-.72l-2.62 -4.07h-.03q.01 .24 .03 .6q.02 .36 .02 .73v2.74h-.57v-4.9h.71l2.61 4.05h.03q-.01 -.11 -.02 -.33q-.01 -.22 -.02 -.48q-.01 -.26 -.01 -.48v-2.77h.58v4.9z" id="mol1atm3" stroke="none"/>
                  
            <path class="atom" d="M9.37 37.53h-.72l-2.62 -4.07h-.03q.01 .24 .03 .6q.02 .36 .02 .73v2.74h-.57v-4.9h.71l2.61 4.05h.03q-.01 -.11 -.02 -.33q-.01 -.22 -.02 -.48q-.01 -.26 -.01 -.48v-2.77h.58v4.9z" id="mol1atm4" stroke="none"/>
                  
            <path class="atom" d="M29.1 52.32h-.72l-2.62 -4.07h-.03q.01 .24 .03 .6q.02 .36 .02 .73v2.74h-.57v-4.9h.71l2.61 4.05h.03q-.01 -.11 -.02 -.33q-.01 -.22 -.02 -.48q-.01 -.26 -.01 -.48v-2.77h.58v4.9z" id="mol1atm6" stroke="none"/>
                  
            <g class="atom" id="mol1atm13">
                        
                <path d="M82.88 80.75h-.72l-2.62 -4.07h-.03q.01 .24 .03 .6q.02 .36 .02 .73v2.74h-.57v-4.9h.71l2.61 4.05h.03q-.01 -.11 -.02 -.33q-.01 -.22 -.02 -.48q-.01 -.26 -.01 -.48v-2.77h.58v4.9z" stroke="none"/>
                        
                <path d="M84.55 75.7h.82v.29h-.82v.85h-.3v-.85h-.82v-.29h.82v-.85h.3v.85z" stroke="none"/>
                      
            </g>
                  
            <path class="atom" d="M83.2 93.53q.0 .76 -.26 1.33q-.26 .57 -.76 .88q-.5 .32 -1.24 .32q-.76 .0 -1.26 -.32q-.51 -.32 -.76 -.89q-.24 -.57 -.24 -1.33q.0 -.75 .24 -1.31q.25 -.57 .76 -.88q.51 -.32 1.27 -.32q.73 .0 1.23 .32q.5 .31 .76 .88q.26 .57 .26 1.33zM79.33 93.53q.0 .92 .39 1.46q.39 .53 1.22 .53q.84 .0 1.22 -.53q.39 -.54 .39 -1.46q.0 -.93 -.39 -1.45q-.38 -.52 -1.21 -.52q-.83 .0 -1.23 .52q-.39 .52 -.39 1.45z" fill="#FF0D0D" id="mol1atm14" stroke="none"/>
                  
            <g class="atom" id="mol1atm15">
                        
                <path d="M96.4 70.67q.0 .76 -.26 1.33q-.26 .57 -.76 .88q-.5 .32 -1.24 .32q-.76 .0 -1.26 -.32q-.51 -.32 -.76 -.89q-.24 -.57 -.24 -1.33q.0 -.75 .24 -1.31q.25 -.57 .76 -.88q.51 -.32 1.27 -.32q.73 .0 1.23 .32q.5 .31 .76 .88q.26 .57 .26 1.33zM92.53 70.67q.0 .92 .39 1.46q.39 .53 1.22 .53q.84 .0 1.22 -.53q.39 -.54 .39 -1.46q.0 -.93 -.39 -1.45q-.38 -.52 -1.21 -.52q-.83 .0 -1.23 .52q-.39 .52 -.39 1.45z" fill="#FF0D0D" stroke="none"/>
                        
                <path d="M98.89 68.01v.29h-1.93v-.29h1.93z" fill="#FF0D0D" stroke="none"/>
                      
            </g>
                  
            <path class="atom" d="M48.39 24.02h-.72l-2.62 -4.07h-.03q.01 .24 .03 .6q.02 .36 .02 .73v2.74h-.57v-4.9h.71l2.61 4.05h.03q-.01 -.11 -.02 -.33q-.01 -.22 -.02 -.48q-.01 -.26 -.01 -.48v-2.77h.58v4.9z" id="mol1atm17" stroke="none"/>
                  
            <path class="atom" d="M62.88 5.46h-.61v-4.9h2.73v.54h-2.12v1.74h1.99v.54h-1.99v2.08z" fill="#90E050" id="mol1atm25" stroke="none"/>
                
            <line class="hi" id="mol1bnd3" stroke="#3050F8" x1="3.79" x2="4.965" y1="45.72" y2="42.285"/>
            <line class="hi" id="mol1bnd3" stroke="#3050F8" x1="6.14" x2="4.965" y1="38.85" y2="42.285"/>
            <line class="hi" id="mol1bnd5" stroke="#3050F8" x1="25.99" x2="24.325" y1="46.08" y2="40.695"/>
            <line class="hi" id="mol1bnd6" stroke="#3050F8" x1="24.07" x2="19.38" y1="52.04" y2="55.34"/>
            <line class="hi" id="mol1bnd7" stroke="#3050F8" x1="30.4" x2="35.870000000000005" y1="51.14" y2="53.29"/>
            <line class="hi" id="mol1bnd14" stroke="#3050F8" x1="77.78" x2="72.75999999999999" y1="76.48" y2="73.58000000000001"/>
            <line class="hi" id="mol1bnd14" stroke="#3050F8" x1="77.78" x2="72.75999999999999" y1="76.48" y2="73.58000000000001"/>
            <line class="hi" id="mol1bnd16" stroke="#3050F8" x1="86.59" x2="88.725" y1="75.04" y2="73.805"/>
            <line class="hi" id="mol1bnd16" stroke="#3050F8" x1="86.59" x2="88.725" y1="75.04" y2="73.805"/>
            <line class="hi" id="mol1bnd16" stroke="#FF0D0D" x1="90.86" x2="88.725" y1="72.57" y2="73.805"/>
            <line class="hi" id="mol1bnd19" stroke="#3050F8" x1="43.11" x2="37.18" y1="21.82" y2="22.265"/>
            <line class="hi" id="mol1bnd28" stroke="#90E050" x1="65.5" x2="70.14500000000001" y1="4.75" y2="9.07"/>
        </g>
          
    </g>
    
</svg>
