<svg xmlns="http://www.w3.org/2000/svg" xmlns:xlink="http://www.w3.org/1999/xlink" height="52.92mm" version="1.2" viewBox="0 0 74.38 52.92" width="74.38mm">
      
    <desc>Generated by the Chemistry Development Kit (http://github.com/cdk)</desc>
      
    <g fill="#FF0D0D" stroke="#000000" stroke-linecap="round" stroke-linejoin="round" stroke-width=".7">
            
        <rect fill="#FFFFFF" height="53.0" stroke="none" width="75.0" x=".0" y=".0"/>
            
        <g class="mol" id="mol1">
                  
            <line class="bond" id="mol1bnd1" x1="1.04" x2="1.04" y1="44.26" y2="29.01"/>
                  
            <line class="bond" id="mol1bnd2" x1="1.04" x2="14.25" y1="29.01" y2="21.39"/>
                  
            <line class="bond" id="mol1bnd3" x1="14.25" x2="27.44" y1="21.39" y2="29.01"/>
                  
            <line class="bond" id="mol1bnd4" x1="27.44" x2="27.44" y1="29.01" y2="44.25"/>
                  
            <line class="bond" id="mol1bnd5" x1="27.44" x2="14.24" y1="44.25" y2="51.88"/>
                  
            <line class="bond" id="mol1bnd6" x1="1.04" x2="14.24" y1="44.26" y2="51.88"/>
                  
            <line class="bond" id="mol1bnd7" x1="27.44" x2="42.45" y1="29.01" y2="31.66"/>
                  
            <line class="bond" id="mol1bnd8" x1="42.45" x2="52.25" y1="31.66" y2="19.98"/>
                  
            <g class="bond" id="mol1bnd9">
                        
                <line x1="51.35" x2="47.26" y1="21.06" y2="9.83"/>
                        
                <line x1="53.64" x2="49.55" y1="20.23" y2="8.99"/>
                      
                <line class="hi" stroke="#FF0D0D" x1="47.26" x2="49.305" y1="9.83" y2="15.445"/>
                <line class="hi" stroke="#FF0D0D" x1="49.55" x2="51.595" y1="8.99" y2="14.61"/>
            </g>
                  
            <line class="bond" id="mol1bnd10" x1="52.25" x2="63.62" y1="19.98" y2="21.99"/>
                  
            <line class="bond" id="mol1bnd11" x1="27.44" x2="32.66" y1="29.01" y2="14.69"/>
                  
            <line class="bond" id="mol1bnd12" x1="32.66" x2="25.7" y1="14.69" y2="6.4"/>
                  
            <path class="atom" d="M49.3 5.66q.0 .76 -.26 1.33q-.26 .57 -.76 .88q-.5 .32 -1.24 .32q-.76 .0 -1.26 -.32q-.51 -.32 -.76 -.89q-.24 -.57 -.24 -1.33q.0 -.75 .24 -1.31q.25 -.57 .76 -.88q.51 -.32 1.27 -.32q.73 .0 1.23 .32q.5 .31 .76 .88q.26 .57 .26 1.33zM45.44 5.66q.0 .92 .39 1.46q.39 .53 1.22 .53q.84 .0 1.22 -.53q.39 -.54 .39 -1.46q.0 -.93 -.39 -1.45q-.38 -.52 -1.21 -.52q-.83 .0 -1.23 .52q-.39 .52 -.39 1.45z" id="mol1atm9" stroke="none"/>
                  
            <g class="atom" id="mol1atm10">
                        
                <path d="M69.52 22.63q.0 .76 -.26 1.33q-.26 .57 -.76 .88q-.5 .32 -1.24 .32q-.76 .0 -1.26 -.32q-.51 -.32 -.76 -.89q-.24 -.57 -.24 -1.33q.0 -.75 .24 -1.31q.25 -.57 .76 -.88q.51 -.32 1.27 -.32q.73 .0 1.23 .32q.5 .31 .76 .88q.26 .57 .26 1.33zM65.65 22.63q.0 .92 .39 1.46q.39 .53 1.22 .53q.84 .0 1.22 -.53q.39 -.54 .39 -1.46q.0 -.93 -.39 -1.45q-.38 -.52 -1.21 -.52q-.83 .0 -1.23 .52q-.39 .52 -.39 1.45z" stroke="none"/>
                        
                <path d="M73.82 25.08h-.62v-2.29h-2.51v2.29h-.61v-4.9h.61v2.07h2.51v-2.07h.62v4.9z" stroke="none"/>
                      
            </g>
                  
            <g class="atom" id="mol1atm12">
                        
                <path d="M24.8 5.46h-.72l-2.62 -4.07h-.03q.01 .24 .03 .6q.02 .36 .02 .73v2.74h-.57v-4.9h.71l2.61 4.05h.03q-.01 -.11 -.02 -.33q-.01 -.22 -.02 -.48q-.01 -.26 -.01 -.48v-2.77h.58v4.9z" fill="#3050F8" stroke="none"/>
                        
                <path d="M17.86 5.46h-.62v-2.29h-2.51v2.29h-.61v-4.9h.61v2.07h2.51v-2.07h.62v4.9z" fill="#3050F8" stroke="none"/>
                        
                <path d="M20.36 6.95h-1.94v-.3l.77 -.78q.22 -.22 .37 -.39q.15 -.18 .23 -.34q.08 -.17 .08 -.36q.0 -.24 -.15 -.37q-.14 -.13 -.37 -.13q-.21 .0 -.38 .08q-.16 .08 -.33 .21l-.19 -.24q.17 -.15 .39 -.25q.23 -.1 .51 -.1q.41 .0 .65 .21q.24 .21 .24 .58q.0 .23 -.1 .43q-.09 .2 -.26 .4q-.17 .2 -.39 .42l-.61 .6v.02h1.49v.33z" fill="#3050F8" stroke="none"/>
                      
            </g>
                
            <line class="hi" id="mol1bnd10" stroke="#FF0D0D" x1="63.62" x2="57.935" y1="21.99" y2="20.985"/>
            <line class="hi" id="mol1bnd12" stroke="#3050F8" x1="25.7" x2="29.18" y1="6.4" y2="10.545"/>
            <line class="hi" id="mol1bnd12" stroke="#3050F8" x1="25.7" x2="29.18" y1="6.4" y2="10.545"/>
        </g>
          
    </g>
    
</svg>
