<svg xmlns="http://www.w3.org/2000/svg" xmlns:xlink="http://www.w3.org/1999/xlink" height="29.02mm" version="1.2" viewBox="0 0 75.94 29.02" width="75.94mm">
      
    <desc>Generated by the Chemistry Development Kit (http://github.com/cdk)</desc>
      
    <g fill="#FF0D0D" stroke="#000000" stroke-linecap="round" stroke-linejoin="round" stroke-width=".7">
            
        <rect fill="#FFFFFF" height="30.0" stroke="none" width="76.0" x=".0" y=".0"/>
            
        <g class="mol" id="mol1">
                  
            <line class="bond" id="mol1bnd1" x1="42.41" x2="29.22" y1="10.7" y2="3.08"/>
                  
            <line class="bond" id="mol1bnd2" x1="29.22" x2="16.02" y1="3.08" y2="10.7"/>
                  
            <g class="bond" id="mol1bnd3">
                        
                <line x1="16.02" x2="5.49" y1="12.11" y2="6.03"/>
                        
                <line x1="17.24" x2="6.7" y1="10.0" y2="3.92"/>
                      
                <line class="hi" stroke="#FF0D0D" x1="5.49" x2="10.754999999999999" y1="6.03" y2="9.07"/>
                <line class="hi" stroke="#FF0D0D" x1="6.699999999999999" x2="11.969999999999999" y1="3.92" y2="6.96"/>
            </g>
                  
            <line class="bond" id="mol1bnd4" x1="16.02" x2="16.02" y1="10.7" y2="22.02"/>
                  
            <line class="bond" id="mol1bnd5" x1="42.41" x2="55.61" y1="10.7" y2="3.08"/>
                  
            <line class="bond" id="mol1bnd6" x1="55.61" x2="65.53" y1="3.08" y2="8.81"/>
                  
            <path class="atom" d="M5.08 3.08q.0 .76 -.26 1.33q-.26 .57 -.76 .88q-.5 .32 -1.24 .32q-.76 .0 -1.26 -.32q-.51 -.32 -.76 -.89q-.24 -.57 -.24 -1.33q.0 -.75 .24 -1.31q.25 -.57 .76 -.88q.51 -.32 1.27 -.32q.73 .0 1.23 .32q.5 .31 .76 .88q.26 .57 .26 1.33zM1.21 3.08q.0 .92 .39 1.46q.39 .53 1.22 .53q.84 .0 1.22 -.53q.39 -.54 .39 -1.46q.0 -.93 -.39 -1.45q-.38 -.52 -1.21 -.52q-.83 .0 -1.23 .52q-.39 .52 -.39 1.45z" id="mol1atm4" stroke="none"/>
                  
            <g class="atom" id="mol1atm5">
                        
                <path d="M18.28 25.94q.0 .76 -.26 1.33q-.26 .57 -.76 .88q-.5 .32 -1.24 .32q-.76 .0 -1.26 -.32q-.51 -.32 -.76 -.89q-.24 -.57 -.24 -1.33q.0 -.75 .24 -1.31q.25 -.57 .76 -.88q.51 -.32 1.27 -.32q.73 .0 1.23 .32q.5 .31 .76 .88q.26 .57 .26 1.33zM14.41 25.94q.0 .92 .39 1.46q.39 .53 1.22 .53q.84 .0 1.22 -.53q.39 -.54 .39 -1.46q.0 -.93 -.39 -1.45q-.38 -.52 -1.21 -.52q-.83 .0 -1.23 .52q-.39 .52 -.39 1.45z" stroke="none"/>
                        
                <path d="M22.58 28.39h-.62v-2.29h-2.51v2.29h-.61v-4.9h.61v2.07h2.51v-2.07h.62v4.9z" stroke="none"/>
                      
            </g>
                  
            <g class="atom" id="mol1atm7">
                        
                <path d="M71.07 10.7q.0 .76 -.26 1.33q-.26 .57 -.76 .88q-.5 .32 -1.24 .32q-.76 .0 -1.26 -.32q-.51 -.32 -.76 -.89q-.24 -.57 -.24 -1.33q.0 -.75 .24 -1.31q.25 -.57 .76 -.88q.51 -.32 1.27 -.32q.73 .0 1.23 .32q.5 .31 .76 .88q.26 .57 .26 1.33zM67.21 10.7q.0 .92 .39 1.46q.39 .53 1.22 .53q.84 .0 1.22 -.53q.39 -.54 .39 -1.46q.0 -.93 -.39 -1.45q-.38 -.52 -1.21 -.52q-.83 .0 -1.23 .52q-.39 .52 -.39 1.45z" stroke="none"/>
                        
                <path d="M75.38 13.15h-.62v-2.29h-2.51v2.29h-.61v-4.9h.61v2.07h2.51v-2.07h.62v4.9z" stroke="none"/>
                      
            </g>
                
            <line class="hi" id="mol1bnd4" stroke="#FF0D0D" x1="16.02" x2="16.02" y1="22.02" y2="16.36"/>
            <line class="hi" id="mol1bnd6" stroke="#FF0D0D" x1="65.53" x2="60.57" y1="8.81" y2="5.945"/>
        </g>
          
    </g>
    
</svg>
