<svg xmlns="http://www.w3.org/2000/svg" xmlns:xlink="http://www.w3.org/1999/xlink" height="119.38mm" version="1.2" viewBox="0 0 82.49 119.38" width="82.49mm">
      
    <desc>Generated by the Chemistry Development Kit (http://github.com/cdk)</desc>
      
    <g fill="#90E050" stroke="#000000" stroke-linecap="round" stroke-linejoin="round" stroke-width=".7">
            
        <rect fill="#FFFFFF" height="120.0" stroke="none" width="83.0" x=".0" y=".0"/>
            
        <g class="mol" id="mol1">
                  
            <line class="bond" id="mol1bnd1" x1="5.74" x2="12.35" y1="62.8" y2="76.52"/>
                  
            <g class="bond" id="mol1bnd2">
                        
                <line x1="13.66" x2="6.24" y1="76.83" y2="86.09"/>
                        
                <line x1="11.76" x2="4.34" y1="75.3" y2="84.57"/>
                      
                <line class="hi" stroke="#FF0D0D" x1="6.24" x2="9.95" y1="86.09" y2="81.46000000000001"/>
                <line class="hi" stroke="#FF0D0D" x1="4.34" x2="8.05" y1="84.57" y2="79.935"/>
            </g>
                  
            <line class="bond" id="mol1bnd3" x1="12.35" x2="23.88" y1="76.52" y2="79.2"/>
                  
            <line class="bond" id="mol1bnd4" x1="30.21" x2="39.07" y1="77.54" y2="70.42"/>
                  
            <g class="bond" id="mol1bnd5">
                        
                <line x1="39.07" x2="39.07" y1="55.18" y2="70.42"/>
                        
                <line x1="41.51" x2="41.51" y1="56.59" y2="69.01"/>
                      
            </g>
                  
            <line class="bond" id="mol1bnd6" x1="39.07" x2="52.28" y1="55.18" y2="47.56"/>
                  
            <g class="bond" id="mol1bnd7">
                        
                <line x1="65.48" x2="52.28" y1="55.18" y2="47.56"/>
                        
                <line x1="63.05" x2="52.28" y1="56.59" y2="50.38"/>
                      
            </g>
                  
            <line class="bond" id="mol1bnd8" x1="65.48" x2="65.48" y1="55.18" y2="70.42"/>
                  
            <g class="bond" id="mol1bnd9">
                        
                <line x1="52.28" x2="65.48" y1="78.04" y2="70.42"/>
                        
                <line x1="52.28" x2="63.05" y1="75.23" y2="69.01"/>
                      
            </g>
                  
            <line class="bond" id="mol1bnd10" x1="39.07" x2="52.28" y1="70.42" y2="78.04"/>
                  
            <line class="bond" id="mol1bnd11" x1="65.48" x2="75.73" y1="55.18" y2="49.27"/>
                  
            <line class="bond" id="mol1bnd12" x1="39.07" x2="27.18" y1="55.18" y2="45.63"/>
                  
            <g class="bond" id="mol1bnd13">
                        
                <line x1="27.18" x2="15.65" y1="45.63" y2="48.32"/>
                        
                <line x1="26.58" x2="16.21" y1="48.28" y2="50.69"/>
                      
                <line class="hi" stroke="#3050F8" x1="15.65" x2="21.415" y1="48.32" y2="46.975"/>
                <line class="hi" stroke="#3050F8" x1="16.21" x2="21.395" y1="50.69" y2="49.485"/>
            </g>
                  
            <line class="bond" id="mol1bnd14" x1="5.74" x2="10.56" y1="62.8" y2="52.8"/>
                  
            <line class="bond" id="mol1bnd15" x1="27.18" x2="30.57" y1="45.63" y2="30.77"/>
                  
            <g class="bond" id="mol1bnd16">
                        
                <line x1="19.38" x2="30.57" y1="20.41" y2="30.77"/>
                        
                <line x1="22.07" x2="31.19" y1="19.58" y2="28.03"/>
                      
            </g>
                  
            <line class="bond" id="mol1bnd17" x1="19.38" x2="22.77" y1="20.41" y2="5.55"/>
                  
            <g class="bond" id="mol1bnd18">
                        
                <line x1="37.34" x2="22.77" y1="1.05" y2="5.55"/>
                        
                <line x1="36.71" x2="24.83" y1="3.8" y2="7.47"/>
                      
            </g>
                  
            <line class="bond" id="mol1bnd19" x1="37.34" x2="48.52" y1="1.05" y2="11.42"/>
                  
            <g class="bond" id="mol1bnd20">
                        
                <line x1="45.14" x2="48.52" y1="26.28" y2="11.42"/>
                        
                <line x1="43.07" x2="45.83" y1="24.36" y2="12.25"/>
                      
            </g>
                  
            <line class="bond" id="mol1bnd21" x1="30.57" x2="45.14" y1="30.77" y2="26.28"/>
                  
            <line class="bond" id="mol1bnd22" x1="28.05" x2="30.57" y1="83.79" y2="94.83"/>
                  
            <line class="bond" id="mol1bnd23" x1="30.57" x2="19.39" y1="94.83" y2="105.19"/>
                  
            <line class="bond" id="mol1bnd24" x1="19.39" x2="10.77" y1="105.19" y2="95.89"/>
                  
            <line class="bond" id="mol1bnd25" x1="19.39" x2="10.57" y1="105.19" y2="113.37"/>
                  
            <line class="bond" id="mol1bnd26" x1="19.39" x2="27.43" y1="105.19" y2="113.87"/>
                  
            <path class="atom" d="M5.08 88.41q.0 .76 -.26 1.33q-.26 .57 -.76 .88q-.5 .32 -1.24 .32q-.76 .0 -1.26 -.32q-.51 -.32 -.76 -.89q-.24 -.57 -.24 -1.33q.0 -.75 .24 -1.31q.25 -.57 .76 -.88q.51 -.32 1.27 -.32q.73 .0 1.23 .32q.5 .31 .76 .88q.26 .57 .26 1.33zM1.21 88.41q.0 .92 .39 1.46q.39 .53 1.22 .53q.84 .0 1.22 -.53q.39 -.54 .39 -1.46q.0 -.93 -.39 -1.45q-.38 -.52 -1.21 -.52q-.83 .0 -1.23 .52q-.39 .52 -.39 1.45z" fill="#FF0D0D" id="mol1atm3" stroke="none"/>
                  
            <path class="atom" d="M29.12 82.42h-.72l-2.62 -4.07h-.03q.01 .24 .03 .6q.02 .36 .02 .73v2.74h-.57v-4.9h.71l2.61 4.05h.03q-.01 -.11 -.02 -.33q-.01 -.22 -.02 -.48q-.01 -.26 -.01 -.48v-2.77h.58v4.9z" fill="#3050F8" id="mol1atm4" stroke="none"/>
                  
            <path class="atom" d="M79.18 45.58q-.79 .0 -1.24 .53q-.45 .52 -.45 1.45q.0 .91 .42 1.45q.42 .53 1.27 .53q.32 .0 .61 -.05q.29 -.06 .57 -.14v.54q-.27 .1 -.57 .15q-.29 .05 -.7 .05q-.74 .0 -1.25 -.31q-.5 -.31 -.75 -.88q-.25 -.57 -.25 -1.34q.0 -.74 .27 -1.31q.27 -.57 .8 -.88q.53 -.32 1.28 -.32q.78 .0 1.35 .29l-.24 .52q-.23 -.1 -.51 -.18q-.27 -.08 -.61 -.08zM81.93 50.01h-.6v-5.21h.6v5.21z" fill="#1FF01F" id="mol1atm11" stroke="none"/>
                  
            <path class="atom" d="M14.29 51.54h-.72l-2.62 -4.07h-.03q.01 .24 .03 .6q.02 .36 .02 .73v2.74h-.57v-4.9h.71l2.61 4.05h.03q-.01 -.11 -.02 -.33q-.01 -.22 -.02 -.48q-.01 -.26 -.01 -.48v-2.77h.58v4.9z" fill="#3050F8" id="mol1atm13" stroke="none"/>
                  
            <path class="atom" d="M8.28 96.47h-.61v-4.9h2.73v.54h-2.12v1.74h1.99v.54h-1.99v2.08z" id="mol1atm22" stroke="none"/>
                  
            <path class="atom" d="M7.46 118.01h-.61v-4.9h2.73v.54h-2.12v1.74h1.99v.54h-1.99v2.08z" id="mol1atm23" stroke="none"/>
                  
            <path class="atom" d="M29.0 118.82h-.61v-4.9h2.73v.54h-2.12v1.74h1.99v.54h-1.99v2.08z" id="mol1atm24" stroke="none"/>
                
            <line class="hi" id="mol1bnd3" stroke="#3050F8" x1="23.88" x2="18.115" y1="79.2" y2="77.86"/>
            <line class="hi" id="mol1bnd4" stroke="#3050F8" x1="30.21" x2="34.64" y1="77.54" y2="73.98"/>
            <line class="hi" id="mol1bnd11" stroke="#1FF01F" x1="75.73" x2="70.605" y1="49.27" y2="52.225"/>
            <line class="hi" id="mol1bnd14" stroke="#3050F8" x1="10.56" x2="8.15" y1="52.8" y2="57.8"/>
            <line class="hi" id="mol1bnd22" stroke="#3050F8" x1="28.05" x2="29.310000000000002" y1="83.79" y2="89.31"/>
            <line class="hi" id="mol1bnd24" stroke="#90E050" x1="10.77" x2="15.08" y1="95.89" y2="100.53999999999999"/>
            <line class="hi" id="mol1bnd25" stroke="#90E050" x1="10.57" x2="14.98" y1="113.37" y2="109.28"/>
            <line class="hi" id="mol1bnd26" stroke="#90E050" x1="27.43" x2="23.41" y1="113.87" y2="109.53"/>
        </g>
          
    </g>
    
</svg>
