<svg xmlns="http://www.w3.org/2000/svg" xmlns:xlink="http://www.w3.org/1999/xlink" height="78.3mm" version="1.2" viewBox="0 0 120.8 78.3" width="120.8mm">
      
    <desc>Generated by the Chemistry Development Kit (http://github.com/cdk)</desc>
      
    <g fill="#FF0D0D" stroke="#000000" stroke-linecap="round" stroke-linejoin="round" stroke-width=".7">
            
        <rect fill="#FFFFFF" height="79.0" stroke="none" width="121.0" x=".0" y=".0"/>
            
        <g class="mol" id="mol1">
                  
            <line class="bond" id="mol1bnd1" x1="119.76" x2="106.56" y1="46.77" y2="54.39"/>
                  
            <line class="bond" id="mol1bnd2" x1="106.56" x2="96.64" y1="54.39" y2="48.66"/>
                  
            <line class="bond" id="mol1bnd3" x1="90.08" x2="80.16" y1="48.67" y2="54.39"/>
                  
            <g class="bond" id="mol1bnd4">
                        
                <line x1="81.38" x2="81.39" y1="53.69" y2="65.71"/>
                        
                <line x1="78.95" x2="78.95" y1="53.69" y2="65.71"/>
                      
                <line class="hi" stroke="#FF0D0D" x1="81.39" x2="81.38499999999999" y1="65.71" y2="59.699999999999996"/>
                <line class="hi" stroke="#FF0D0D" x1="78.95" x2="78.95" y1="65.71" y2="59.699999999999996"/>
            </g>
                  
            <line class="bond" id="mol1bnd5" x1="80.16" x2="66.97" y1="54.39" y2="46.78"/>
                  
            <line class="bond" id="mol1bnd6" x1="66.97" x2="66.96" y1="46.78" y2="31.54"/>
                  
            <line class="bond" id="mol1bnd7" x1="66.96" x2="53.76" y1="31.54" y2="23.92"/>
                  
            <line class="bond" id="mol1bnd8" x1="53.76" x2="53.77" y1="23.92" y2="8.67"/>
                  
            <line class="bond" id="mol1bnd9" x1="53.77" x2="66.97" y1="8.67" y2="1.04"/>
                  
            <line class="bond" id="mol1bnd10" x1="66.97" x2="80.17" y1="1.04" y2="8.66"/>
                  
            <line class="bond" id="mol1bnd11" x1="80.17" x2="80.17" y1="8.66" y2="20.06"/>
                  
            <line class="bond" id="mol1bnd12" x1="66.96" x2="77.01" y1="31.54" y2="25.73"/>
                  
            <line class="bond" id="mol1bnd13" x1="66.97" x2="53.77" y1="46.78" y2="54.4"/>
                  
            <g class="bond" id="mol1bnd14">
                        
                <line x1="53.77" x2="40.56" y1="54.4" y2="46.78"/>
                        
                <line x1="51.33" x2="40.57" y1="55.81" y2="49.6"/>
                      
            </g>
                  
            <line class="bond" id="mol1bnd15" x1="40.56" x2="27.45" y1="46.78" y2="54.4"/>
                  
            <g class="bond" id="mol1bnd16">
                        
                <line x1="27.45" x2="14.25" y1="54.4" y2="46.78"/>
                        
                <line x1="25.02" x2="14.25" y1="55.81" y2="49.59"/>
                      
            </g>
                  
            <line class="bond" id="mol1bnd17" x1="14.25" x2="1.04" y1="46.78" y2="54.4"/>
                  
            <g class="bond" id="mol1bnd18">
                        
                <line x1="1.04" x2="1.04" y1="54.4" y2="69.64"/>
                        
                <line x1="3.48" x2="3.48" y1="55.81" y2="68.23"/>
                      
            </g>
                  
            <line class="bond" id="mol1bnd19" x1="1.04" x2="14.25" y1="69.64" y2="77.26"/>
                  
            <g class="bond" id="mol1bnd20">
                        
                <line x1="14.25" x2="27.45" y1="77.26" y2="69.64"/>
                        
                <line x1="14.25" x2="25.02" y1="74.44" y2="68.23"/>
                      
            </g>
                  
            <line class="bond" id="mol1bnd21" x1="27.45" x2="27.45" y1="54.4" y2="69.64"/>
                  
            <line class="bond" id="mol1bnd22" x1="27.45" x2="40.56" y1="69.64" y2="77.26"/>
                  
            <g class="bond" id="mol1bnd23">
                        
                <line x1="40.56" x2="53.77" y1="77.26" y2="69.64"/>
                        
                <line x1="40.57" x2="51.33" y1="74.44" y2="68.23"/>
                      
            </g>
                  
            <line class="bond" id="mol1bnd24" x1="53.77" x2="53.77" y1="54.4" y2="69.64"/>
                  
            <path class="atom" d="M95.62 46.77q.0 .76 -.26 1.33q-.26 .57 -.76 .88q-.5 .32 -1.24 .32q-.76 .0 -1.26 -.32q-.51 -.32 -.76 -.89q-.24 -.57 -.24 -1.33q.0 -.75 .24 -1.31q.25 -.57 .76 -.88q.51 -.32 1.27 -.32q.73 .0 1.23 .32q.5 .31 .76 .88q.26 .57 .26 1.33zM91.76 46.77q.0 .92 .39 1.46q.39 .53 1.22 .53q.84 .0 1.22 -.53q.39 -.54 .39 -1.46q.0 -.93 -.39 -1.45q-.38 -.52 -1.21 -.52q-.83 .0 -1.23 .52q-.39 .52 -.39 1.45z" id="mol1atm3" stroke="none"/>
                  
            <path class="atom" d="M82.43 69.63q.0 .76 -.26 1.33q-.26 .57 -.76 .88q-.5 .32 -1.24 .32q-.76 .0 -1.26 -.32q-.51 -.32 -.76 -.89q-.24 -.57 -.24 -1.33q.0 -.75 .24 -1.31q.25 -.57 .76 -.88q.51 -.32 1.27 -.32q.73 .0 1.23 .32q.5 .31 .76 .88q.26 .57 .26 1.33zM78.56 69.63q.0 .92 .39 1.46q.39 .53 1.22 .53q.84 .0 1.22 -.53q.39 -.54 .39 -1.46q.0 -.93 -.39 -1.45q-.38 -.52 -1.21 -.52q-.83 .0 -1.23 .52q-.39 .52 -.39 1.45z" id="mol1atm5" stroke="none"/>
                  
            <g class="atom" id="mol1atm12">
                        
                <path d="M82.11 26.36h-.72l-2.62 -4.07h-.03q.01 .24 .03 .6q.02 .36 .02 .73v2.74h-.57v-4.9h.71l2.61 4.05h.03q-.01 -.11 -.02 -.33q-.01 -.22 -.02 -.48q-.01 -.26 -.01 -.48v-2.77h.58v4.9z" fill="#3050F8" stroke="none"/>
                        
                <path d="M86.41 26.36h-.62v-2.29h-2.51v2.29h-.61v-4.9h.61v2.07h2.51v-2.07h.62v4.9z" fill="#3050F8" stroke="none"/>
                      
            </g>
                
            <line class="hi" id="mol1bnd2" stroke="#FF0D0D" x1="96.64" x2="101.6" y1="48.66" y2="51.525"/>
            <line class="hi" id="mol1bnd3" stroke="#FF0D0D" x1="90.08" x2="85.12" y1="48.67" y2="51.53"/>
            <line class="hi" id="mol1bnd11" stroke="#3050F8" x1="80.17" x2="80.17" y1="20.06" y2="14.36"/>
            <line class="hi" id="mol1bnd12" stroke="#3050F8" x1="77.01" x2="71.985" y1="25.73" y2="28.634999999999998"/>
        </g>
          
    </g>
    
</svg>
