<svg xmlns="http://www.w3.org/2000/svg" xmlns:xlink="http://www.w3.org/1999/xlink" height="57.2mm" version="1.2" viewBox="0 0 88.53 57.2" width="88.53mm">
      
    <desc>Generated by the Chemistry Development Kit (http://github.com/cdk)</desc>
      
    <g fill="#FF0D0D" stroke="#000000" stroke-linecap="round" stroke-linejoin="round" stroke-width=".7">
            
        <rect fill="#FFFFFF" height="58.0" stroke="none" width="89.0" x=".0" y=".0"/>
            
        <g class="mol" id="mol1">
                  
            <line class="bond" id="mol1bnd1" x1="47.49" x2="42.36" y1="45.61" y2="31.26"/>
                  
            <line class="bond" id="mol1bnd2" x1="42.36" x2="42.62" y1="31.26" y2="15.86"/>
                  
            <g class="bond" id="mol1bnd3">
                        
                <line x1="41.37" x2="51.92" y1="15.17" y2="9.06"/>
                        
                <line x1="42.6" x2="53.14" y1="17.28" y2="11.17"/>
                      
                <line class="hi" stroke="#FF0D0D" x1="51.92" x2="46.644999999999996" y1="9.06" y2="12.115"/>
                <line class="hi" stroke="#FF0D0D" x1="53.14" x2="47.870000000000005" y1="11.17" y2="14.225000000000001"/>
            </g>
                  
            <line class="bond" id="mol1bnd4" x1="42.62" x2="32.37" y1="15.86" y2="10.21"/>
                  
            <line class="bond" id="mol1bnd5" x1="26.05" x2="16.01" y1="10.29" y2="16.09"/>
                  
            <g class="bond" id="mol1bnd6">
                        
                <line x1="16.0" x2="5.48" y1="17.5" y2="11.4"/>
                        
                <line x1="17.22" x2="6.7" y1="15.39" y2="9.29"/>
                      
                <line class="hi" stroke="#FF0D0D" x1="5.48" x2="10.74" y1="11.4" y2="14.45"/>
                <line class="hi" stroke="#FF0D0D" x1="6.699999999999999" x2="11.959999999999999" y1="9.29" y2="12.34"/>
            </g>
                  
            <line class="bond" id="mol1bnd7" x1="16.01" x2="15.97" y1="16.09" y2="27.4"/>
                  
            <line class="bond" id="mol1bnd8" x1="19.11" x2="29.16" y1="33.07" y2="38.88"/>
                  
            <line class="bond" id="mol1bnd9" x1="42.36" x2="29.16" y1="31.26" y2="38.88"/>
                  
            <g class="bond" id="mol1bnd10">
                        
                <line x1="30.38" x2="30.38" y1="38.18" y2="50.2"/>
                        
                <line x1="27.94" x2="27.94" y1="38.18" y2="50.2"/>
                      
                <line class="hi" stroke="#FF0D0D" x1="30.38" x2="30.38" y1="50.2" y2="44.19"/>
                <line class="hi" stroke="#FF0D0D" x1="27.94" x2="27.94" y1="50.2" y2="44.19"/>
            </g>
                  
            <line class="bond" id="mol1bnd11" x1="12.81" x2="2.75" y1="33.07" y2="38.85"/>
                  
            <line class="bond" id="mol1bnd12" x1="42.36" x2="57.4" y1="31.26" y2="28.78"/>
                  
            <g class="bond" id="mol1bnd13">
                        
                <line x1="62.77" x2="57.4" y1="14.51" y2="28.78"/>
                        
                <line x1="64.56" x2="60.18" y1="16.69" y2="28.32"/>
                      
            </g>
                  
            <line class="bond" id="mol1bnd14" x1="62.77" x2="77.81" y1="14.51" y2="12.03"/>
                  
            <line class="bond" id="mol1bnd15" x1="77.81" x2="87.47" y1="12.03" y2="23.83"/>
                  
            <line class="bond" id="mol1bnd16" x1="87.47" x2="82.1" y1="23.83" y2="38.1"/>
                  
            <line class="bond" id="mol1bnd17" x1="82.1" x2="67.06" y1="38.1" y2="40.58"/>
                  
            <line class="bond" id="mol1bnd18" x1="57.4" x2="67.06" y1="28.78" y2="40.58"/>
                  
            <path class="atom" d="M58.06 8.21q.0 .76 -.26 1.33q-.26 .57 -.76 .88q-.5 .32 -1.24 .32q-.76 .0 -1.26 -.32q-.51 -.32 -.76 -.89q-.24 -.57 -.24 -1.33q.0 -.75 .24 -1.31q.25 -.57 .76 -.88q.51 -.32 1.27 -.32q.73 .0 1.23 .32q.5 .31 .76 .88q.26 .57 .26 1.33zM54.2 8.21q.0 .92 .39 1.46q.39 .53 1.22 .53q.84 .0 1.22 -.53q.39 -.54 .39 -1.46q.0 -.93 -.39 -1.45q-.38 -.52 -1.21 -.52q-.83 .0 -1.23 .52q-.39 .52 -.39 1.45z" id="mol1atm4" stroke="none"/>
                  
            <g class="atom" id="mol1atm5">
                        
                <path d="M31.14 10.92h-.72l-2.62 -4.07h-.03q.01 .24 .03 .6q.02 .36 .02 .73v2.74h-.57v-4.9h.71l2.61 4.05h.03q-.01 -.11 -.02 -.33q-.01 -.22 -.02 -.48q-.01 -.26 -.01 -.48v-2.77h.58v4.9z" fill="#3050F8" stroke="none"/>
                        
                <path d="M31.01 5.46h-.62v-2.29h-2.51v2.29h-.61v-4.9h.61v2.07h2.51v-2.07h.62v4.9z" fill="#3050F8" stroke="none"/>
                      
            </g>
                  
            <path class="atom" d="M5.08 8.45q.0 .76 -.26 1.33q-.26 .57 -.76 .88q-.5 .32 -1.24 .32q-.76 .0 -1.26 -.32q-.51 -.32 -.76 -.89q-.24 -.57 -.24 -1.33q.0 -.75 .24 -1.31q.25 -.57 .76 -.88q.51 -.32 1.27 -.32q.73 .0 1.23 .32q.5 .31 .76 .88q.26 .57 .26 1.33zM1.21 8.45q.0 .92 .39 1.46q.39 .53 1.22 .53q.84 .0 1.22 -.53q.39 -.54 .39 -1.46q.0 -.93 -.39 -1.45q-.38 -.52 -1.21 -.52q-.83 .0 -1.23 .52q-.39 .52 -.39 1.45z" id="mol1atm7" stroke="none"/>
                  
            <path class="atom" d="M17.9 33.7h-.72l-2.62 -4.07h-.03q.01 .24 .03 .6q.02 .36 .02 .73v2.74h-.57v-4.9h.71l2.61 4.05h.03q-.01 -.11 -.02 -.33q-.01 -.22 -.02 -.48q-.01 -.26 -.01 -.48v-2.77h.58v4.9z" fill="#3050F8" id="mol1atm8" stroke="none"/>
                  
            <path class="atom" d="M31.42 54.12q.0 .76 -.26 1.33q-.26 .57 -.76 .88q-.5 .32 -1.24 .32q-.76 .0 -1.26 -.32q-.51 -.32 -.76 -.89q-.24 -.57 -.24 -1.33q.0 -.75 .24 -1.31q.25 -.57 .76 -.88q.51 -.32 1.27 -.32q.73 .0 1.23 .32q.5 .31 .76 .88q.26 .57 .26 1.33zM27.56 54.12q.0 .92 .39 1.46q.39 .53 1.22 .53q.84 .0 1.22 -.53q.39 -.54 .39 -1.46q.0 -.93 -.39 -1.45q-.38 -.52 -1.21 -.52q-.83 .0 -1.23 .52q-.39 .52 -.39 1.45z" id="mol1atm10" stroke="none"/>
                
            <line class="hi" id="mol1bnd4" stroke="#3050F8" x1="32.37" x2="37.495" y1="10.21" y2="13.035"/>
            <line class="hi" id="mol1bnd4" stroke="#3050F8" x1="32.37" x2="37.495" y1="10.21" y2="13.035"/>
            <line class="hi" id="mol1bnd5" stroke="#3050F8" x1="26.05" x2="21.03" y1="10.29" y2="13.19"/>
            <line class="hi" id="mol1bnd5" stroke="#3050F8" x1="26.05" x2="21.03" y1="10.29" y2="13.19"/>
            <line class="hi" id="mol1bnd7" stroke="#3050F8" x1="15.97" x2="15.990000000000002" y1="27.4" y2="21.744999999999997"/>
            <line class="hi" id="mol1bnd8" stroke="#3050F8" x1="19.11" x2="24.134999999999998" y1="33.07" y2="35.975"/>
            <line class="hi" id="mol1bnd11" stroke="#3050F8" x1="12.81" x2="7.78" y1="33.07" y2="35.96"/>
        </g>
          
    </g>
    
</svg>
