<svg xmlns="http://www.w3.org/2000/svg" xmlns:xlink="http://www.w3.org/1999/xlink" height="95.54mm" version="1.2" viewBox="0 0 186.09 95.54" width="186.09mm">
      
    <desc>Generated by the Chemistry Development Kit (http://github.com/cdk)</desc>
      
    <g fill="#3050F8" stroke="#000000" stroke-linecap="round" stroke-linejoin="round" stroke-width=".7">
            
        <rect fill="#FFFFFF" height="96.0" stroke="none" width="187.0" x=".0" y=".0"/>
            
        <g class="mol" id="mol1">
                  
            <line class="bond" id="mol1bnd1" x1="185.09" x2="180.37" y1="77.98" y2="63.49"/>
                  
            <line class="bond" id="mol1bnd2" x1="180.37" x2="165.45" y1="63.49" y2="60.34"/>
                  
            <line class="bond" id="mol1bnd3" x1="165.45" x2="160.73" y1="60.34" y2="45.85"/>
                  
            <g class="bond" id="mol1bnd4">
                        
                <line x1="160.73" x2="167.06" y1="45.85" y2="37.14"/>
                        
                <line x1="159.79" x2="165.09" y1="42.99" y2="35.71"/>
                      
                <line class="hi" stroke="#3050F8" x1="167.06" x2="163.89499999999998" y1="37.14" y2="41.495000000000005"/>
                <line class="hi" stroke="#3050F8" x1="165.09" x2="162.44" y1="35.71" y2="39.35"/>
            </g>
                  
            <line class="bond" id="mol1bnd5" x1="167.08" x2="163.31" y1="29.98" y2="24.75"/>
                  
            <line class="bond" id="mol1bnd6" x1="157.46" x2="146.2" y1="22.24" y2="25.94"/>
                  
            <g class="bond" id="mol1bnd7">
                        
                <line x1="146.2" x2="146.2" y1="41.18" y2="25.94"/>
                        
                <line x1="143.76" x2="143.76" y1="39.78" y2="27.35"/>
                      
            </g>
                  
            <line class="bond" id="mol1bnd8" x1="160.73" x2="146.2" y1="45.85" y2="41.18"/>
                  
            <line class="bond" id="mol1bnd9" x1="146.2" x2="136.24" y1="41.18" y2="46.97"/>
                  
            <g class="bond" id="mol1bnd10">
                        
                <line x1="119.78" x2="129.94" y1="41.18" y2="46.99"/>
                        
                <line x1="122.22" x2="131.15" y1="39.77" y2="44.88"/>
                      
                <line class="hi" stroke="#3050F8" x1="129.94" x2="124.86" y1="46.99" y2="44.085"/>
                <line class="hi" stroke="#3050F8" x1="131.15" x2="126.685" y1="44.88" y2="42.325"/>
            </g>
                  
            <line class="bond" id="mol1bnd11" x1="119.78" x2="119.78" y1="41.18" y2="29.79"/>
                  
            <line class="bond" id="mol1bnd12" x1="122.94" x2="132.99" y1="24.12" y2="18.32"/>
                  
            <line class="bond" id="mol1bnd13" x1="146.2" x2="132.99" y1="25.94" y2="18.32"/>
                  
            <g class="bond" id="mol1bnd14">
                        
                <line x1="131.77" x2="131.77" y1="19.02" y2="7.0"/>
                        
                <line x1="134.21" x2="134.21" y1="19.02" y2="7.0"/>
                      
                <line class="hi" stroke="#FF0D0D" x1="131.77" x2="131.77" y1="7.0" y2="13.01"/>
                <line class="hi" stroke="#FF0D0D" x1="134.21" x2="134.21" y1="7.0" y2="13.01"/>
            </g>
                  
            <line class="bond" id="mol1bnd15" x1="119.78" x2="106.6" y1="41.18" y2="48.83"/>
                  
            <g class="bond" id="mol1bnd16">
                        
                <line x1="106.62" x2="106.6" y1="64.07" y2="48.83"/>
                        
                <line x1="104.18" x2="104.16" y1="62.67" y2="50.24"/>
                      
            </g>
                  
            <line class="bond" id="mol1bnd17" x1="106.62" x2="93.44" y1="64.07" y2="71.73"/>
                  
            <g class="bond" id="mol1bnd18">
                        
                <line x1="80.22" x2="93.44" y1="64.13" y2="71.73"/>
                        
                <line x1="82.66" x2="93.43" y1="62.72" y2="68.91"/>
                      
            </g>
                  
            <line class="bond" id="mol1bnd19" x1="80.22" x2="80.2" y1="64.13" y2="48.89"/>
                  
            <g class="bond" id="mol1bnd20">
                        
                <line x1="93.39" x2="80.2" y1="41.23" y2="48.89"/>
                        
                <line x1="93.39" x2="82.64" y1="44.05" y2="50.29"/>
                      
            </g>
                  
            <line class="bond" id="mol1bnd21" x1="106.6" x2="93.39" y1="48.83" y2="41.23"/>
                  
            <line class="bond" id="mol1bnd22" x1="80.2" x2="69.74" y1="48.89" y2="42.88"/>
                  
            <g class="bond" id="mol1bnd23">
                        
                <line x1="68.4" x2="73.28" y1="37.7" y2="31.86"/>
                        
                <line x1="70.27" x2="75.15" y1="39.26" y2="33.42"/>
                      
                <line class="hi" stroke="#C6C62C" x1="68.4" x2="70.84" y1="37.7" y2="34.78"/>
                <line class="hi" stroke="#FF0D0D" x1="73.28" x2="70.84" y1="31.86" y2="34.78"/>
                <line class="hi" stroke="#C6C62C" x1="70.27" x2="72.71000000000001" y1="39.26" y2="36.34"/>
                <line class="hi" stroke="#FF0D0D" x1="75.15" x2="72.71000000000001" y1="33.42" y2="36.34"/>
            </g>
                  
            <g class="bond" id="mol1bnd24">
                        
                <line x1="63.7" x2="58.78" y1="39.29" y2="33.45"/>
                        
                <line x1="65.57" x2="60.65" y1="37.72" y2="31.88"/>
                      
                <line class="hi" stroke="#C6C62C" x1="63.7" x2="61.24" y1="39.29" y2="36.370000000000005"/>
                <line class="hi" stroke="#FF0D0D" x1="58.78" x2="61.24" y1="33.45" y2="36.370000000000005"/>
                <line class="hi" stroke="#C6C62C" x1="65.57" x2="63.11" y1="37.72" y2="34.8"/>
                <line class="hi" stroke="#FF0D0D" x1="60.65" x2="63.11" y1="31.88" y2="34.8"/>
            </g>
                  
            <line class="bond" id="mol1bnd25" x1="64.24" x2="56.95" y1="42.88" y2="47.11"/>
                  
            <line class="bond" id="mol1bnd26" x1="53.81" x2="53.84" y1="52.79" y2="64.19"/>
                  
            <line class="bond" id="mol1bnd27" x1="53.84" x2="40.65" y1="64.19" y2="71.83"/>
                  
            <line class="bond" id="mol1bnd28" x1="40.65" x2="30.59" y1="71.83" y2="66.04"/>
                  
            <line class="bond" id="mol1bnd29" x1="27.43" x2="27.4" y1="60.38" y2="48.98"/>
                  
            <line class="bond" id="mol1bnd30" x1="27.4" x2="40.58" y1="48.98" y2="41.34"/>
                  
            <line class="bond" id="mol1bnd31" x1="50.65" x2="40.58" y1="47.12" y2="41.34"/>
                  
            <line class="bond" id="mol1bnd32" x1="24.28" x2="14.25" y1="66.06" y2="71.88"/>
                  
            <line class="bond" id="mol1bnd33" x1="14.25" x2="1.04" y1="71.88" y2="64.28"/>
                  
            <line class="bond" id="mol1bnd34" x1="106.62" x2="116.55" y1="64.07" y2="69.78"/>
                  
            <line class="bond" id="mol1bnd35" x1="119.84" x2="119.87" y1="75.59" y2="86.91"/>
                  
            <line class="bond" id="mol1bnd36" x1="119.87" x2="133.08" y1="86.91" y2="94.5"/>
                  
            <line class="bond" id="mol1bnd37" x1="161.96" x2="165.44" y1="17.38" y2="6.67"/>
                  
            <path class="atom" d="M171.61 36.01h-.72l-2.62 -4.07h-.03q.01 .24 .03 .6q.02 .36 .02 .73v2.74h-.57v-4.9h.71l2.61 4.05h.03q-.01 -.11 -.02 -.33q-.01 -.22 -.02 -.48q-.01 -.26 -.01 -.48v-2.77h.58v4.9z" id="mol1atm5" stroke="none"/>
                  
            <path class="atom" d="M162.67 23.62h-.72l-2.62 -4.07h-.03q.01 .24 .03 .6q.02 .36 .02 .73v2.74h-.57v-4.9h.71l2.61 4.05h.03q-.01 -.11 -.02 -.33q-.01 -.22 -.02 -.48q-.01 -.26 -.01 -.48v-2.77h.58v4.9z" id="mol1atm6" stroke="none"/>
                  
            <path class="atom" d="M135.03 51.25h-.72l-2.62 -4.07h-.03q.01 .24 .03 .6q.02 .36 .02 .73v2.74h-.57v-4.9h.71l2.61 4.05h.03q-.01 -.11 -.02 -.33q-.01 -.22 -.02 -.48q-.01 -.26 -.01 -.48v-2.77h.58v4.9z" id="mol1atm9" stroke="none"/>
                  
            <g class="atom" id="mol1atm11">
                        
                <path d="M121.72 28.39h-.72l-2.62 -4.07h-.03q.01 .24 .03 .6q.02 .36 .02 .73v2.74h-.57v-4.9h.71l2.61 4.05h.03q-.01 -.11 -.02 -.33q-.01 -.22 -.02 -.48q-.01 -.26 -.01 -.48v-2.77h.58v4.9z" stroke="none"/>
                        
                <path d="M117.28 28.39h-.62v-2.29h-2.51v2.29h-.61v-4.9h.61v2.07h2.51v-2.07h.62v4.9z" stroke="none"/>
                      
            </g>
                  
            <path class="atom" d="M135.25 3.08q.0 .76 -.26 1.33q-.26 .57 -.76 .88q-.5 .32 -1.24 .32q-.76 .0 -1.26 -.32q-.51 -.32 -.76 -.89q-.24 -.57 -.24 -1.33q.0 -.75 .24 -1.31q.25 -.57 .76 -.88q.51 -.32 1.27 -.32q.73 .0 1.23 .32q.5 .31 .76 .88q.26 .57 .26 1.33zM131.39 3.08q.0 .92 .39 1.46q.39 .53 1.22 .53q.84 .0 1.22 -.53q.39 -.54 .39 -1.46q.0 -.93 -.39 -1.45q-.38 -.52 -1.21 -.52q-.83 .0 -1.23 .52q-.39 .52 -.39 1.45z" fill="#FF0D0D" id="mol1atm13" stroke="none"/>
                  
            <path class="atom" d="M68.53 42.43q.0 .65 -.48 1.02q-.47 .36 -1.27 .36q-.42 .0 -.77 -.07q-.35 -.06 -.58 -.17v-.59q.24 .11 .61 .2q.37 .09 .76 .09q.55 .0 .83 -.21q.28 -.21 .28 -.58q.0 -.24 -.11 -.4q-.1 -.17 -.35 -.31q-.25 -.14 -.7 -.3q-.63 -.23 -.95 -.55q-.32 -.33 -.32 -.9q.0 -.39 .2 -.67q.2 -.28 .55 -.43q.36 -.15 .82 -.15q.4 .0 .74 .08q.34 .07 .61 .2l-.2 .53q-.25 -.11 -.55 -.18q-.3 -.08 -.63 -.08q-.46 .0 -.69 .2q-.23 .2 -.23 .52q.0 .24 .1 .41q.11 .17 .34 .3q.23 .13 .63 .28q.43 .15 .73 .34q.3 .18 .45 .43q.15 .25 .15 .64z" fill="#C6C62C" id="mol1atm20" stroke="none"/>
                  
            <path class="atom" d="M79.02 29.59q.0 .76 -.26 1.33q-.26 .57 -.76 .88q-.5 .32 -1.24 .32q-.76 .0 -1.26 -.32q-.51 -.32 -.76 -.89q-.24 -.57 -.24 -1.33q.0 -.75 .24 -1.31q.25 -.57 .76 -.88q.51 -.32 1.27 -.32q.73 .0 1.23 .32q.5 .31 .76 .88q.26 .57 .26 1.33zM75.15 29.59q.0 .92 .39 1.46q.39 .53 1.22 .53q.84 .0 1.22 -.53q.39 -.54 .39 -1.46q.0 -.93 -.39 -1.45q-.38 -.52 -1.21 -.52q-.83 .0 -1.23 .52q-.39 .52 -.39 1.45z" fill="#FF0D0D" id="mol1atm21" stroke="none"/>
                  
            <path class="atom" d="M59.42 29.63q.0 .76 -.26 1.33q-.26 .57 -.76 .88q-.5 .32 -1.24 .32q-.76 .0 -1.26 -.32q-.51 -.32 -.76 -.89q-.24 -.57 -.24 -1.33q.0 -.75 .24 -1.31q.25 -.57 .76 -.88q.51 -.32 1.27 -.32q.73 .0 1.23 .32q.5 .31 .76 .88q.26 .57 .26 1.33zM55.56 29.63q.0 .92 .39 1.46q.39 .53 1.22 .53q.84 .0 1.22 -.53q.39 -.54 .39 -1.46q.0 -.93 -.39 -1.45q-.38 -.52 -1.21 -.52q-.83 .0 -1.23 .52q-.39 .52 -.39 1.45z" fill="#FF0D0D" id="mol1atm22" stroke="none"/>
                  
            <path class="atom" d="M55.74 51.39h-.72l-2.62 -4.07h-.03q.01 .24 .03 .6q.02 .36 .02 .73v2.74h-.57v-4.9h.71l2.61 4.05h.03q-.01 -.11 -.02 -.33q-.01 -.22 -.02 -.48q-.01 -.26 -.01 -.48v-2.77h.58v4.9z" id="mol1atm23" stroke="none"/>
                  
            <path class="atom" d="M29.38 66.68h-.72l-2.62 -4.07h-.03q.01 .24 .03 .6q.02 .36 .02 .73v2.74h-.57v-4.9h.71l2.61 4.05h.03q-.01 -.11 -.02 -.33q-.01 -.22 -.02 -.48q-.01 -.26 -.01 -.48v-2.77h.58v4.9z" id="mol1atm26" stroke="none"/>
                  
            <path class="atom" d="M122.1 71.66q.0 .76 -.26 1.33q-.26 .57 -.76 .88q-.5 .32 -1.24 .32q-.76 .0 -1.26 -.32q-.51 -.32 -.76 -.89q-.24 -.57 -.24 -1.33q.0 -.75 .24 -1.31q.25 -.57 .76 -.88q.51 -.32 1.27 -.32q.73 .0 1.23 .32q.5 .31 .76 .88q.26 .57 .26 1.33zM118.23 71.66q.0 .92 .39 1.46q.39 .53 1.22 .53q.84 .0 1.22 -.53q.39 -.54 .39 -1.46q.0 -.93 -.39 -1.45q-.38 -.52 -1.21 -.52q-.83 .0 -1.23 .52q-.39 .52 -.39 1.45z" fill="#FF0D0D" id="mol1atm31" stroke="none"/>
                
            <line class="hi" id="mol1bnd5" stroke="#3050F8" x1="167.08" x2="165.195" y1="29.98" y2="27.365000000000002"/>
            <line class="hi" id="mol1bnd5" stroke="#3050F8" x1="163.31" x2="165.195" y1="24.75" y2="27.365000000000002"/>
            <line class="hi" id="mol1bnd6" stroke="#3050F8" x1="157.46" x2="151.82999999999998" y1="22.24" y2="24.09"/>
            <line class="hi" id="mol1bnd9" stroke="#3050F8" x1="136.24" x2="141.22" y1="46.97" y2="44.075"/>
            <line class="hi" id="mol1bnd11" stroke="#3050F8" x1="119.78" x2="119.78" y1="29.79" y2="35.485"/>
            <line class="hi" id="mol1bnd11" stroke="#3050F8" x1="119.78" x2="119.78" y1="29.79" y2="35.485"/>
            <line class="hi" id="mol1bnd12" stroke="#3050F8" x1="122.94" x2="127.965" y1="24.12" y2="21.22"/>
            <line class="hi" id="mol1bnd12" stroke="#3050F8" x1="122.94" x2="127.965" y1="24.12" y2="21.22"/>
            <line class="hi" id="mol1bnd22" stroke="#C6C62C" x1="69.74" x2="74.97" y1="42.88" y2="45.885000000000005"/>
            <line class="hi" id="mol1bnd25" stroke="#C6C62C" x1="64.24" x2="60.595" y1="42.88" y2="44.995000000000005"/>
            <line class="hi" id="mol1bnd25" stroke="#3050F8" x1="56.95" x2="60.595" y1="47.11" y2="44.995000000000005"/>
            <line class="hi" id="mol1bnd26" stroke="#3050F8" x1="53.81" x2="53.825" y1="52.79" y2="58.489999999999995"/>
            <line class="hi" id="mol1bnd28" stroke="#3050F8" x1="30.59" x2="35.62" y1="66.04" y2="68.935"/>
            <line class="hi" id="mol1bnd29" stroke="#3050F8" x1="27.43" x2="27.415" y1="60.38" y2="54.68"/>
            <line class="hi" id="mol1bnd31" stroke="#3050F8" x1="50.65" x2="45.614999999999995" y1="47.12" y2="44.230000000000004"/>
            <line class="hi" id="mol1bnd32" stroke="#3050F8" x1="24.28" x2="19.265" y1="66.06" y2="68.97"/>
            <line class="hi" id="mol1bnd34" stroke="#FF0D0D" x1="116.55" x2="111.58500000000001" y1="69.78" y2="66.925"/>
            <line class="hi" id="mol1bnd35" stroke="#FF0D0D" x1="119.84" x2="119.855" y1="75.59" y2="81.25"/>
            <line class="hi" id="mol1bnd37" stroke="#3050F8" x1="161.96" x2="163.7" y1="17.38" y2="12.024999999999999"/>
        </g>
          
    </g>
    
</svg>
