<svg xmlns="http://www.w3.org/2000/svg" xmlns:xlink="http://www.w3.org/1999/xlink" height="59.11mm" version="1.2" viewBox="0 0 100.25 59.11" width="100.25mm">
      
    <desc>Generated by the Chemistry Development Kit (http://github.com/cdk)</desc>
      
    <g fill="#3050F8" stroke="#000000" stroke-linecap="round" stroke-linejoin="round" stroke-width=".7">
            
        <rect fill="#FFFFFF" height="60.0" stroke="none" width="101.0" x=".0" y=".0"/>
            
        <g class="mol" id="mol1">
                  
            <path class="bond" d="M.56 51.36c.41 .24 1.06 .06 1.3 -.35c.24 -.41 .06 -1.06 -.35 -1.3c-.41 -.24 -.59 -.89 -.35 -1.3c.24 -.41 .89 -.59 1.3 -.35c.41 .24 1.06 .06 1.3 -.35c.24 -.41 .06 -1.06 -.35 -1.3c-.41 -.24 -.59 -.89 -.35 -1.3c.24 -.41 .89 -.59 1.3 -.35c.41 .24 1.06 .06 1.3 -.35c.24 -.41 .06 -1.06 -.35 -1.3c-.41 -.24 -.59 -.89 -.35 -1.3c.24 -.41 .89 -.59 1.3 -.35c.41 .24 1.06 .06 1.3 -.35c.24 -.41 .06 -1.06 -.35 -1.3c-.41 -.24 -.59 -.89 -.35 -1.3c.24 -.41 .89 -.59 1.3 -.35" fill="none" id="mol1bnd1" stroke="#000000" stroke-width=".7"/>
                  
            <g class="bond" id="mol1bnd2">
                        
                <line x1="8.18" x2="28.3" y1="38.16" y2="38.16"/>
                        
                <line x1="9.59" x2="26.78" y1="40.6" y2="40.6"/>
                      
            </g>
                  
            <line class="bond" id="mol1bnd3" x1="28.3" x2="38.05" y1="38.16" y2="58.08"/>
                  
            <line class="bond" id="mol1bnd4" x1="38.05" x2="52.07" y1="58.08" y2="52.29"/>
                  
            <line class="bond" id="mol1bnd5" x1="52.07" x2="57.96" y1="52.29" y2="38.16"/>
                  
            <g class="bond" id="mol1bnd6">
                        
                <line x1="52.07" x2="57.96" y1="24.04" y2="38.16"/>
                        
                <line x1="54.87" x2="59.67" y1="24.4" y2="35.92"/>
                      
            </g>
                  
            <line class="bond" id="mol1bnd7" x1="52.07" x2="38.05" y1="24.04" y2="18.25"/>
                  
            <line class="bond" id="mol1bnd8" x1="28.3" x2="38.05" y1="38.16" y2="18.25"/>
                  
            <line class="bond" id="mol1bnd9" x1="38.05" x2="23.93" y1="18.25" y2="24.04"/>
                  
            <line class="bond" id="mol1bnd10" x1="23.93" x2="18.14" y1="24.04" y2="38.16"/>
                  
            <g class="bond" id="mol1bnd11">
                        
                <line x1="18.14" x2="23.93" y1="38.16" y2="52.29"/>
                        
                <line x1="20.77" x2="25.8" y1="38.16" y2="50.42"/>
                      
            </g>
                  
            <line class="bond" id="mol1bnd12" x1="38.05" x2="23.93" y1="58.08" y2="52.29"/>
                  
            <line class="bond" id="mol1bnd13" x1="18.14" x2="3.13" y1="38.16" y2="35.52"/>
                  
            <line class="bond" id="mol1bnd14" x1="38.05" x2="38.06" y1="18.25" y2="7.19"/>
                  
            <line class="bond" id="mol1bnd15" x1="52.07" x2="61.34" y1="24.04" y2="11.95"/>
                  
            <g class="bond" id="mol1bnd16">
                        
                <line x1="76.45" x2="61.34" y1="13.91" y2="11.95"/>
                        
                <line x1="74.74" x2="62.42" y1="16.15" y2="14.55"/>
                      
            </g>
                  
            <line class="bond" id="mol1bnd17" x1="76.45" x2="82.31" y1="13.91" y2="27.96"/>
                  
            <g class="bond" id="mol1bnd18">
                        
                <line x1="81.77" x2="93.94" y1="26.67" y2="28.23"/>
                        
                <line x1="81.46" x2="93.63" y1="29.08" y2="30.65"/>
                      
                <line class="hi" stroke="#FF0D0D" x1="93.94" x2="87.85499999999999" y1="28.23" y2="27.450000000000003"/>
                <line class="hi" stroke="#FF0D0D" x1="93.63" x2="87.54499999999999" y1="30.65" y2="29.865"/>
            </g>
                  
            <line class="bond" id="mol1bnd19" x1="82.31" x2="75.8" y1="27.96" y2="36.51"/>
                  
            <line class="bond" id="mol1bnd20" x1="57.96" x2="69.75" y1="38.16" y2="39.66"/>
                  
            <g class="atom" id="mol1atm13">
                        
                <path d="M40.01 5.46h-.72l-2.62 -4.07h-.03q.01 .24 .03 .6q.02 .36 .02 .73v2.74h-.57v-4.9h.71l2.61 4.05h.03q-.01 -.11 -.02 -.33q-.01 -.22 -.02 -.48q-.01 -.26 -.01 -.48v-2.77h.58v4.9z" stroke="none"/>
                        
                <path d="M44.32 5.46h-.62v-2.29h-2.51v2.29h-.61v-4.9h.61v2.07h2.51v-2.07h.62v4.9z" stroke="none"/>
                        
                <path d="M46.82 6.95h-1.94v-.3l.77 -.78q.22 -.22 .37 -.39q.15 -.18 .23 -.34q.08 -.17 .08 -.36q.0 -.24 -.15 -.37q-.14 -.13 -.37 -.13q-.21 .0 -.38 .08q-.16 .08 -.33 .21l-.19 -.24q.17 -.15 .39 -.25q.23 -.1 .51 -.1q.41 .0 .65 .21q.24 .21 .24 .58q.0 .23 -.1 .43q-.09 .2 -.26 .4q-.17 .2 -.39 .42l-.61 .6v.02h1.49v.33z" stroke="none"/>
                      
            </g>
                  
            <path class="atom" d="M99.69 29.91q.0 .76 -.26 1.33q-.26 .57 -.76 .88q-.5 .32 -1.24 .32q-.76 .0 -1.26 -.32q-.51 -.32 -.76 -.89q-.24 -.57 -.24 -1.33q.0 -.75 .24 -1.31q.25 -.57 .76 -.88q.51 -.32 1.27 -.32q.73 .0 1.23 .32q.5 .31 .76 .88q.26 .57 .26 1.33zM95.82 29.91q.0 .92 .39 1.46q.39 .53 1.22 .53q.84 .0 1.22 -.53q.39 -.54 .39 -1.46q.0 -.93 -.39 -1.45q-.38 -.52 -1.21 -.52q-.83 .0 -1.23 .52q-.39 .52 -.39 1.45z" fill="#FF0D0D" id="mol1atm17" stroke="none"/>
                  
            <g class="atom" id="mol1atm18">
                        
                <path d="M75.02 42.53h-.72l-2.62 -4.07h-.03q.01 .24 .03 .6q.02 .36 .02 .73v2.74h-.57v-4.9h.71l2.61 4.05h.03q-.01 -.11 -.02 -.33q-.01 -.22 -.02 -.48q-.01 -.26 -.01 -.48v-2.77h.58v4.9z" stroke="none"/>
                        
                <path d="M79.33 42.53h-.62v-2.29h-2.51v2.29h-.61v-4.9h.61v2.07h2.51v-2.07h.62v4.9z" stroke="none"/>
                      
            </g>
                
            <line class="hi" id="mol1bnd14" stroke="#3050F8" x1="38.06" x2="38.055" y1="7.190000000000001" y2="12.72"/>
            <line class="hi" id="mol1bnd14" stroke="#3050F8" x1="38.06" x2="38.055" y1="7.190000000000001" y2="12.72"/>
            <line class="hi" id="mol1bnd19" stroke="#3050F8" x1="75.8" x2="79.055" y1="36.51" y2="32.235"/>
            <line class="hi" id="mol1bnd19" stroke="#3050F8" x1="75.8" x2="79.055" y1="36.51" y2="32.235"/>
            <line class="hi" id="mol1bnd20" stroke="#3050F8" x1="69.75" x2="63.855000000000004" y1="39.66" y2="38.91"/>
        </g>
          
    </g>
    
</svg>
