<svg xmlns="http://www.w3.org/2000/svg" xmlns:xlink="http://www.w3.org/1999/xlink" height="95.14mm" version="1.2" viewBox="0 0 78.41 95.14" width="78.41mm">
      
    <desc>Generated by the Chemistry Development Kit (http://github.com/cdk)</desc>
      
    <g fill="#FF0D0D" stroke="#000000" stroke-linecap="round" stroke-linejoin="round" stroke-width=".7">
            
        <rect fill="#FFFFFF" height="96.0" stroke="none" width="79.0" x=".0" y=".0"/>
            
        <g class="mol" id="mol1">
                  
            <g class="bond" id="mol1bnd1">
                        
                <line x1="44.05" x2="30.85" y1="23.32" y2="15.8"/>
                        
                <line x1="41.63" x2="30.87" y1="24.74" y2="18.62"/>
                      
            </g>
                  
            <line class="bond" id="mol1bnd2" x1="30.85" x2="17.75" y1="15.8" y2="23.62"/>
                  
            <line class="bond" id="mol1bnd3" x1="17.75" x2="7.77" y1="23.62" y2="18.0"/>
                  
            <line class="bond" id="mol1bnd4" x1="4.43" x2="4.31" y1="12.22" y2=".91"/>
                  
            <g class="bond" id="mol1bnd5">
                        
                <line x1="17.75" x2="17.85" y1="23.62" y2="38.85"/>
                        
                <line x1="20.19" x2="20.28" y1="25.0" y2="37.42"/>
                      
            </g>
                  
            <line class="bond" id="mol1bnd6" x1="17.85" x2="31.15" y1="38.85" y2="46.37"/>
                  
            <g class="bond" id="mol1bnd7">
                        
                <line x1="31.0" x2="31.7" y1="61.6" y2="61.59"/>
                        
                <line x1="30.68" x2="31.96" y1="59.07" y2="59.05"/>
                        
                <line x1="30.35" x2="32.22" y1="56.53" y2="56.51"/>
                        
                <line x1="30.03" x2="32.48" y1="54.0" y2="53.97"/>
                        
                <line x1="29.7" x2="32.73" y1="51.46" y2="51.42"/>
                        
                <line x1="29.38" x2="32.99" y1="48.93" y2="48.88"/>
                        
                <line x1="29.05" x2="33.25" y1="46.39" y2="46.34"/>
                      
            </g>
                  
            <line class="bond" id="mol1bnd8" x1="31.35" x2="18.15" y1="61.6" y2="69.21"/>
                  
            <g class="bond" id="mol1bnd9">
                        
                <line stroke="#000000" x1="17.9" x2="18.41" y1="69.45" y2="68.97"/>
                        
                <line stroke="#FF0D0D" x1="16.24" x2="17.0" y1="67.96" y2="67.24"/>
                        
                <line stroke="#FF0D0D" x1="14.58" x2="15.59" y1="66.47" y2="65.5"/>
                        
                <line stroke="#FF0D0D" x1="12.92" x2="14.19" y1="64.97" y2="63.77"/>
                        
                <line stroke="#FF0D0D" x1="11.26" x2="12.78" y1="63.48" y2="62.03"/>
                        
                <line stroke="#FF0D0D" x1="9.6" x2="11.37" y1="61.98" y2="60.3"/>
                        
                <line stroke="#FF0D0D" x1="7.94" x2="9.97" y1="60.49" y2="58.56"/>
                        
                <line stroke="#FF0D0D" x1="6.28" x2="8.56" y1="59.0" y2="56.83"/>
                        
                <line stroke="#FF0D0D" x1="4.62" x2="7.15" y1="57.5" y2="55.09"/>
                      
            </g>
                  
            <line class="bond" id="mol1bnd10" x1="17.85" x2="5.66" y1="38.85" y2="50.38"/>
                  
            <line class="bond" id="mol1bnd11" x1="18.15" x2="18.15" y1="69.21" y2="84.44"/>
                  
            <g class="bond" id="mol1bnd12">
                        
                <line x1="19.37" x2="8.85" y1="85.15" y2="91.22"/>
                        
                <line x1="18.15" x2="7.63" y1="83.04" y2="89.11"/>
                      
                <line class="hi" stroke="#FF0D0D" x1="8.85" x2="14.11" y1="91.22" y2="88.185"/>
                <line class="hi" stroke="#FF0D0D" x1="7.629999999999999" x2="12.889999999999999" y1="89.11" y2="86.075"/>
            </g>
                  
            <line class="bond" id="mol1bnd13" x1="18.15" x2="31.35" y1="84.44" y2="92.06"/>
                  
            <line class="bond" id="mol1bnd14" x1="31.35" x2="44.55" y1="92.06" y2="84.44"/>
                  
            <g class="bond" id="mol1bnd15">
                        
                <line x1="44.25" x2="44.86" y1="69.39" y2="69.04"/>
                        
                <line x1="44.0" x2="45.11" y1="72.07" y2="71.43"/>
                        
                <line x1="43.75" x2="45.36" y1="74.76" y2="73.82"/>
                        
                <line x1="43.49" x2="45.61" y1="77.44" y2="76.22"/>
                        
                <line x1="43.24" x2="45.87" y1="80.13" y2="78.61"/>
                        
                <line x1="42.99" x2="46.12" y1="82.81" y2="81.0"/>
                        
                <line x1="42.73" x2="46.37" y1="85.49" y2="83.39"/>
                      
            </g>
                  
            <line class="bond" id="mol1bnd16" x1="31.35" x2="44.55" y1="61.6" y2="69.21"/>
                  
            <line class="bond" id="mol1bnd17" x1="44.55" x2="57.65" y1="69.21" y2="61.39"/>
                  
            <line class="bond" id="mol1bnd18" x1="57.65" x2="57.55" y1="61.39" y2="46.16"/>
                  
            <line class="bond" id="mol1bnd19" x1="57.55" x2="44.25" y1="46.16" y2="38.55"/>
                  
            <line class="bond" id="mol1bnd20" x1="44.05" x2="44.25" y1="23.32" y2="38.55"/>
                  
            <g class="bond" id="mol1bnd21">
                        
                <line x1="31.15" x2="44.25" y1="46.37" y2="38.55"/>
                        
                <line x1="31.12" x2="41.79" y1="43.55" y2="37.17"/>
                      
            </g>
                  
            <path class="bond" d="M57.82 61.09l-.34 .61l9.59 6.91l.83 -1.47l.83 -1.47z" fill="#000000" id="mol1bnd22" stroke="none"/>
                  
            <line class="bond" id="mol1bnd23" x1="72.76" x2="77.39" y1="72.63" y2="82.76"/>
                  
            <line class="bond" id="mol1bnd24" x1="70.98" x2="70.75" y1="65.06" y2="53.58"/>
                  
            <line class="bond" id="mol1bnd25" x1="70.75" x2="44.25" y1="53.58" y2="53.68"/>
                  
            <path class="bond" d="M31.17 61.3l.37 .6l18.27 -8.59l-4.99 .02l-3.39 .01z" fill="#000000" id="mol1bnd26" stroke="none"/>
                  
            <path class="atom" d="M6.73 16.14q.0 .76 -.26 1.33q-.26 .57 -.76 .88q-.5 .32 -1.24 .32q-.76 .0 -1.26 -.32q-.51 -.32 -.76 -.89q-.24 -.57 -.24 -1.33q.0 -.75 .24 -1.31q.25 -.57 .76 -.88q.51 -.32 1.27 -.32q.73 .0 1.23 .32q.5 .31 .76 .88q.26 .57 .26 1.33zM2.87 16.14q.0 .92 .39 1.46q.39 .53 1.22 .53q.84 .0 1.22 -.53q.39 -.54 .39 -1.46q.0 -.93 -.39 -1.45q-.38 -.52 -1.21 -.52q-.83 .0 -1.23 .52q-.39 .52 -.39 1.45z" id="mol1atm4" stroke="none"/>
                  
            <path class="atom" d="M5.08 53.06q.0 .76 -.26 1.33q-.26 .57 -.76 .88q-.5 .32 -1.24 .32q-.76 .0 -1.26 -.32q-.51 -.32 -.76 -.89q-.24 -.57 -.24 -1.33q.0 -.75 .24 -1.31q.25 -.57 .76 -.88q.51 -.32 1.27 -.32q.73 .0 1.23 .32q.5 .31 .76 .88q.26 .57 .26 1.33zM1.21 53.06q.0 .92 .39 1.46q.39 .53 1.22 .53q.84 .0 1.22 -.53q.39 -.54 .39 -1.46q.0 -.93 -.39 -1.45q-.38 -.52 -1.21 -.52q-.83 .0 -1.23 .52q-.39 .52 -.39 1.45z" id="mol1atm10" stroke="none"/>
                  
            <path class="atom" d="M7.22 92.06q.0 .76 -.26 1.33q-.26 .57 -.76 .88q-.5 .32 -1.24 .32q-.76 .0 -1.26 -.32q-.51 -.32 -.76 -.89q-.24 -.57 -.24 -1.33q.0 -.75 .24 -1.31q.25 -.57 .76 -.88q.51 -.32 1.27 -.32q.73 .0 1.23 .32q.5 .31 .76 .88q.26 .57 .26 1.33zM3.36 92.06q.0 .92 .39 1.46q.39 .53 1.22 .53q.84 .0 1.22 -.53q.39 -.54 .39 -1.46q.0 -.93 -.39 -1.45q-.38 -.52 -1.21 -.52q-.83 .0 -1.23 .52q-.39 .52 -.39 1.45z" id="mol1atm12" stroke="none"/>
                  
            <path class="atom" d="M73.0 71.36h-.72l-2.62 -4.07h-.03q.01 .24 .03 .6q.02 .36 .02 .73v2.74h-.57v-4.9h.71l2.61 4.05h.03q-.01 -.11 -.02 -.33q-.01 -.22 -.02 -.48q-.01 -.26 -.01 -.48v-2.77h.58v4.9z" fill="#3050F8" id="mol1atm19" stroke="none"/>
                
            <line class="hi" id="mol1bnd3" stroke="#FF0D0D" x1="7.77" x2="12.76" y1="18.0" y2="20.810000000000002"/>
            <line class="hi" id="mol1bnd4" stroke="#FF0D0D" x1="4.43" x2="4.369999999999999" y1="12.22" y2="6.565"/>
            <line class="hi" id="mol1bnd10" stroke="#FF0D0D" x1="5.66" x2="11.755" y1="50.38" y2="44.615"/>
            <line class="hi" id="mol1bnd23" stroke="#3050F8" x1="72.76" x2="75.075" y1="72.63" y2="77.695"/>
            <line class="hi" id="mol1bnd24" stroke="#3050F8" x1="70.98" x2="70.86500000000001" y1="65.06" y2="59.32"/>
        </g>
          
    </g>
    
</svg>
