<svg xmlns="http://www.w3.org/2000/svg" xmlns:xlink="http://www.w3.org/1999/xlink" height="47.68mm" version="1.2" viewBox="0 0 113.77 47.68" width="113.77mm">
      
    <desc>Generated by the Chemistry Development Kit (http://github.com/cdk)</desc>
      
    <g fill="#FF0D0D" stroke="#000000" stroke-linecap="round" stroke-linejoin="round" stroke-width=".7">
            
        <rect fill="#FFFFFF" height="48.0" stroke="none" width="114.0" x=".0" y=".0"/>
            
        <g class="mol" id="mol1">
                  
            <line class="bond" id="mol1bnd1" x1="10.4" x2="20.32" y1="18.04" y2="23.77"/>
                  
            <g class="bond" id="mol1bnd2">
                        
                <line x1="21.54" x2="21.54" y1="23.06" y2="35.09"/>
                        
                <line x1="19.1" x2="19.1" y1="23.06" y2="35.09"/>
                      
                <line class="hi" stroke="#FF0D0D" x1="21.54" x2="21.54" y1="35.09" y2="29.075000000000003"/>
                <line class="hi" stroke="#FF0D0D" x1="19.1" x2="19.1" y1="35.09" y2="29.075000000000003"/>
            </g>
                  
            <line class="bond" id="mol1bnd3" x1="20.32" x2="33.52" y1="23.77" y2="16.15"/>
                  
            <line class="bond" id="mol1bnd4" x1="33.52" x2="33.52" y1="16.15" y2=".91"/>
                  
            <line class="bond" id="mol1bnd5" x1="33.52" x2="46.72" y1="16.15" y2="23.77"/>
                  
            <g class="bond" id="mol1bnd6">
                        
                <line x1="59.93" x2="46.72" y1="16.15" y2="23.77"/>
                        
                <line x1="59.93" x2="49.16" y1="18.97" y2="25.18"/>
                      
            </g>
                  
            <line class="bond" id="mol1bnd7" x1="59.93" x2="73.13" y1="16.15" y2="23.77"/>
                  
            <g class="bond" id="mol1bnd8">
                        
                <line x1="73.13" x2="73.13" y1="39.01" y2="23.77"/>
                        
                <line x1="70.7" x2="70.7" y1="37.6" y2="25.18"/>
                      
            </g>
                  
            <line class="bond" id="mol1bnd9" x1="73.13" x2="86.33" y1="39.01" y2="46.63"/>
                  
            <line class="bond" id="mol1bnd10" x1="86.33" x2="99.53" y1="46.63" y2="39.02"/>
                  
            <line class="bond" id="mol1bnd11" x1="99.53" x2="112.73" y1="39.02" y2="46.64"/>
                  
            <line class="bond" id="mol1bnd12" x1="99.53" x2="99.53" y1="39.02" y2="23.78"/>
                  
            <line class="bond" id="mol1bnd13" x1="73.13" x2="59.93" y1="39.01" y2="46.63"/>
                  
            <g class="bond" id="mol1bnd14">
                        
                <line x1="46.72" x2="59.93" y1="39.01" y2="46.63"/>
                        
                <line x1="49.16" x2="59.93" y1="37.6" y2="43.82"/>
                      
            </g>
                  
            <line class="bond" id="mol1bnd15" x1="46.72" x2="46.72" y1="23.77" y2="39.01"/>
                  
            <g class="atom" id="mol1atm1">
                        
                <path d="M9.38 16.14q.0 .76 -.26 1.33q-.26 .57 -.76 .88q-.5 .32 -1.24 .32q-.76 .0 -1.26 -.32q-.51 -.32 -.76 -.89q-.24 -.57 -.24 -1.33q.0 -.75 .24 -1.31q.25 -.57 .76 -.88q.51 -.32 1.27 -.32q.73 .0 1.23 .32q.5 .31 .76 .88q.26 .57 .26 1.33zM5.52 16.14q.0 .92 .39 1.46q.39 .53 1.22 .53q.84 .0 1.22 -.53q.39 -.54 .39 -1.46q.0 -.93 -.39 -1.45q-.38 -.52 -1.21 -.52q-.83 .0 -1.23 .52q-.39 .52 -.39 1.45z" stroke="none"/>
                        
                <path d="M4.3 18.6h-.62v-2.29h-2.51v2.29h-.61v-4.9h.61v2.07h2.51v-2.07h.62v4.9z" stroke="none"/>
                      
            </g>
                  
            <path class="atom" d="M22.58 39.01q.0 .76 -.26 1.33q-.26 .57 -.76 .88q-.5 .32 -1.24 .32q-.76 .0 -1.26 -.32q-.51 -.32 -.76 -.89q-.24 -.57 -.24 -1.33q.0 -.75 .24 -1.31q.25 -.57 .76 -.88q.51 -.32 1.27 -.32q.73 .0 1.23 .32q.5 .31 .76 .88q.26 .57 .26 1.33zM18.72 39.01q.0 .92 .39 1.46q.39 .53 1.22 .53q.84 .0 1.22 -.53q.39 -.54 .39 -1.46q.0 -.93 -.39 -1.45q-.38 -.52 -1.21 -.52q-.83 .0 -1.23 .52q-.39 .52 -.39 1.45z" id="mol1atm3" stroke="none"/>
                
            <line class="hi" id="mol1bnd1" stroke="#FF0D0D" x1="10.4" x2="15.36" y1="18.04" y2="20.905"/>
            <line class="hi" id="mol1bnd1" stroke="#FF0D0D" x1="10.4" x2="15.36" y1="18.04" y2="20.905"/>
        </g>
          
    </g>
    
</svg>
