<svg xmlns="http://www.w3.org/2000/svg" xmlns:xlink="http://www.w3.org/1999/xlink" height="73.76mm" version="1.2" viewBox="0 0 115.72 73.76" width="115.72mm">
      
    <desc>Generated by the Chemistry Development Kit (http://github.com/cdk)</desc>
      
    <g fill="#FF0D0D" stroke="#000000" stroke-linecap="round" stroke-linejoin="round" stroke-width=".7">
            
        <rect fill="#FFFFFF" height="74.0" stroke="none" width="116.0" x=".0" y=".0"/>
            
        <g class="mol" id="mol1">
                  
            <line class="bond" id="mol1bnd1" x1="8.68" x2="1.05" y1="1.04" y2="14.24"/>
                  
            <line class="bond" id="mol1bnd2" x1="1.05" x2="11.3" y1="14.24" y2="25.55"/>
                  
            <line class="bond" id="mol1bnd3" x1="11.3" x2="21.97" y1="25.55" y2="20.81"/>
                  
            <line class="bond" id="mol1bnd4" x1="24.78" x2="23.6" y1="15.53" y2="4.26"/>
                  
            <line class="bond" id="mol1bnd5" x1="8.68" x2="23.6" y1="1.04" y2="4.26"/>
                  
            <line class="bond" id="mol1bnd6" x1="28.34" x2="38.39" y1="21.2" y2="27.0"/>
                  
            <line class="bond" id="mol1bnd7" x1="38.39" x2="38.38" y1="27.0" y2="42.24"/>
                  
            <g class="bond" id="mol1bnd8">
                        
                <line x1="51.59" x2="38.38" y1="49.86" y2="42.24"/>
                        
                <line x1="49.15" x2="38.38" y1="51.27" y2="45.05"/>
                      
            </g>
                  
            <line class="bond" id="mol1bnd9" x1="51.59" x2="51.59" y1="49.86" y2="65.1"/>
                  
            <g class="bond" id="mol1bnd10">
                        
                <line x1="38.38" x2="51.59" y1="72.72" y2="65.1"/>
                        
                <line x1="38.38" x2="49.15" y1="69.9" y2="63.69"/>
                      
            </g>
                  
            <line class="bond" id="mol1bnd11" x1="38.38" x2="25.17" y1="72.72" y2="65.09"/>
                  
            <g class="bond" id="mol1bnd12">
                        
                <line x1="25.17" x2="25.17" y1="49.85" y2="65.09"/>
                        
                <line x1="27.61" x2="27.61" y1="51.26" y2="63.69"/>
                      
            </g>
                  
            <line class="bond" id="mol1bnd13" x1="38.38" x2="25.17" y1="42.24" y2="49.85"/>
                  
            <line class="bond" id="mol1bnd14" x1="38.39" x2="51.59" y1="27.0" y2="19.38"/>
                  
            <g class="bond" id="mol1bnd15">
                        
                <line x1="50.37" x2="50.37" y1="20.08" y2="8.06"/>
                        
                <line x1="52.8" x2="52.81" y1="20.08" y2="8.06"/>
                      
                <line class="hi" stroke="#FF0D0D" x1="50.37" x2="50.37" y1="8.06" y2="14.07"/>
                <line class="hi" stroke="#FF0D0D" x1="52.81" x2="52.805" y1="8.06" y2="14.07"/>
            </g>
                  
            <line class="bond" id="mol1bnd16" x1="51.59" x2="64.78" y1="19.38" y2="27.0"/>
                  
            <g class="bond" id="mol1bnd17">
                        
                <line x1="77.99" x2="64.78" y1="19.38" y2="27.0"/>
                        
                <line x1="77.99" x2="67.22" y1="22.2" y2="28.41"/>
                      
            </g>
                  
            <line class="bond" id="mol1bnd18" x1="77.99" x2="91.2" y1="19.38" y2="27.0"/>
                  
            <g class="bond" id="mol1bnd19">
                        
                <line x1="91.2" x2="91.2" y1="42.24" y2="27.0"/>
                        
                <line x1="88.76" x2="88.76" y1="40.83" y2="28.41"/>
                      
            </g>
                  
            <line class="bond" id="mol1bnd20" x1="91.2" x2="105.73" y1="42.24" y2="46.91"/>
                  
            <line class="bond" id="mol1bnd21" x1="105.73" x2="114.67" y1="46.91" y2="34.62"/>
                  
            <line class="bond" id="mol1bnd22" x1="114.67" x2="105.73" y1="34.62" y2="22.33"/>
                  
            <line class="bond" id="mol1bnd23" x1="91.2" x2="105.73" y1="27.0" y2="22.33"/>
                  
            <line class="bond" id="mol1bnd24" x1="91.2" x2="77.99" y1="42.24" y2="49.86"/>
                  
            <g class="bond" id="mol1bnd25">
                        
                <line x1="64.78" x2="77.99" y1="42.24" y2="49.86"/>
                        
                <line x1="67.22" x2="77.99" y1="40.83" y2="47.05"/>
                      
            </g>
                  
            <line class="bond" id="mol1bnd26" x1="64.78" x2="64.78" y1="27.0" y2="42.24"/>
                  
            <path class="atom" d="M27.13 21.82h-.72l-2.62 -4.07h-.03q.01 .24 .03 .6q.02 .36 .02 .73v2.74h-.57v-4.9h.71l2.61 4.05h.03q-.01 -.11 -.02 -.33q-.01 -.22 -.02 -.48q-.01 -.26 -.01 -.48v-2.77h.58v4.9z" fill="#3050F8" id="mol1atm4" stroke="none"/>
                  
            <path class="atom" d="M53.85 4.14q.0 .76 -.26 1.33q-.26 .57 -.76 .88q-.5 .32 -1.24 .32q-.76 .0 -1.26 -.32q-.51 -.32 -.76 -.89q-.24 -.57 -.24 -1.33q.0 -.75 .24 -1.31q.25 -.57 .76 -.88q.51 -.32 1.27 -.32q.73 .0 1.23 .32q.5 .31 .76 .88q.26 .57 .26 1.33zM49.98 4.14q.0 .92 .39 1.46q.39 .53 1.22 .53q.84 .0 1.22 -.53q.39 -.54 .39 -1.46q.0 -.93 -.39 -1.45q-.38 -.52 -1.21 -.52q-.83 .0 -1.23 .52q-.39 .52 -.39 1.45z" id="mol1atm14" stroke="none"/>
                
            <line class="hi" id="mol1bnd3" stroke="#3050F8" x1="21.97" x2="16.634999999999998" y1="20.81" y2="23.18"/>
            <line class="hi" id="mol1bnd4" stroke="#3050F8" x1="24.78" x2="24.19" y1="15.53" y2="9.895"/>
            <line class="hi" id="mol1bnd6" stroke="#3050F8" x1="28.34" x2="33.365" y1="21.2" y2="24.1"/>
        </g>
          
    </g>
    
</svg>
