<svg xmlns="http://www.w3.org/2000/svg" xmlns:xlink="http://www.w3.org/1999/xlink" height="70.26mm" version="1.2" viewBox="0 0 94.47 70.26" width="94.47mm">
      
    <desc>Generated by the Chemistry Development Kit (http://github.com/cdk)</desc>
      
    <g fill="#FF0D0D" stroke="#000000" stroke-linecap="round" stroke-linejoin="round" stroke-width=".7">
            
        <rect fill="#FFFFFF" height="71.0" stroke="none" width="95.0" x=".0" y=".0"/>
            
        <g class="mol" id="mol1">
                  
            <line class="bond" id="mol1bnd1" x1="68.21" x2="58.41" y1="1.06" y2="12.73"/>
                  
            <line class="bond" id="mol1bnd2" x1="58.41" x2="63.63" y1="12.73" y2="27.05"/>
                  
            <g class="bond" id="mol1bnd3">
                        
                <line x1="63.15" x2="75.21" y1="25.73" y2="27.86"/>
                        
                <line x1="62.72" x2="74.79" y1="28.13" y2="30.26"/>
                      
                <line class="hi" stroke="#FF0D0D" x1="75.21" x2="69.17999999999999" y1="27.86" y2="26.795"/>
                <line class="hi" stroke="#FF0D0D" x1="74.79" x2="68.755" y1="30.26" y2="29.195"/>
            </g>
                  
            <line class="bond" id="mol1bnd4" x1="63.63" x2="53.83" y1="27.05" y2="38.73"/>
                  
            <line class="bond" id="mol1bnd5" x1="53.83" x2="67.03" y1="38.73" y2="46.35"/>
                  
            <g class="bond" id="mol1bnd6">
                        
                <line x1="80.23" x2="67.03" y1="38.72" y2="46.35"/>
                        
                <line x1="80.23" x2="69.47" y1="41.54" y2="47.76"/>
                      
            </g>
                  
            <line class="bond" id="mol1bnd7" x1="80.23" x2="93.43" y1="38.72" y2="46.34"/>
                  
            <g class="bond" id="mol1bnd8">
                        
                <line x1="93.43" x2="93.43" y1="61.59" y2="46.34"/>
                        
                <line x1="90.99" x2="90.99" y1="60.18" y2="47.75"/>
                      
            </g>
                  
            <line class="bond" id="mol1bnd9" x1="93.43" x2="80.22" y1="61.59" y2="69.22"/>
                  
            <g class="bond" id="mol1bnd10">
                        
                <line x1="67.02" x2="80.22" y1="61.6" y2="69.22"/>
                        
                <line x1="69.46" x2="80.22" y1="60.19" y2="66.4"/>
                      
            </g>
                  
            <line class="bond" id="mol1bnd11" x1="67.03" x2="67.02" y1="46.35" y2="61.6"/>
                  
            <line class="bond" id="mol1bnd12" x1="53.83" x2="44.03" y1="38.73" y2="27.05"/>
                  
            <g class="bond" id="mol1bnd13">
                        
                <line x1="29.02" x2="44.03" y1="29.71" y2="27.05"/>
                        
                <line x1="29.98" x2="42.23" y1="27.06" y2="24.9"/>
                      
            </g>
                  
            <line class="bond" id="mol1bnd14" x1="29.02" x2="19.22" y1="29.71" y2="18.03"/>
                  
            <g class="bond" id="mol1bnd15">
                        
                <line x1="24.44" x2="19.22" y1="3.71" y2="18.03"/>
                        
                <line x1="26.25" x2="22.0" y1="5.86" y2="17.54"/>
                      
            </g>
                  
            <line class="bond" id="mol1bnd16" x1="24.44" x2="39.46" y1="3.71" y2="1.05"/>
                  
            <g class="bond" id="mol1bnd17">
                        
                <line x1="49.25" x2="39.46" y1="12.73" y2="1.05"/>
                        
                <line x1="46.48" x2="38.5" y1="13.22" y2="3.7"/>
                      
            </g>
                  
            <line class="bond" id="mol1bnd18" x1="44.03" x2="49.25" y1="27.05" y2="12.73"/>
                  
            <line class="bond" id="mol1bnd19" x1="53.83" x2="40.63" y1="38.73" y2="46.35"/>
                  
            <line class="bond" id="mol1bnd20" x1="40.63" x2="40.63" y1="46.35" y2="61.59"/>
                  
            <line class="bond" id="mol1bnd21" x1="40.63" x2="27.43" y1="46.35" y2="38.73"/>
                  
            <line class="bond" id="mol1bnd22" x1="27.43" x2="17.39" y1="38.73" y2="44.53"/>
                  
            <line class="bond" id="mol1bnd23" x1="11.08" x2="1.04" y1="44.53" y2="38.73"/>
                  
            <line class="bond" id="mol1bnd24" x1="14.24" x2="14.24" y1="50.2" y2="61.59"/>
                  
            <path class="atom" d="M80.89 29.7q.0 .76 -.26 1.33q-.26 .57 -.76 .88q-.5 .32 -1.24 .32q-.76 .0 -1.26 -.32q-.51 -.32 -.76 -.89q-.24 -.57 -.24 -1.33q.0 -.75 .24 -1.31q.25 -.57 .76 -.88q.51 -.32 1.27 -.32q.73 .0 1.23 .32q.5 .31 .76 .88q.26 .57 .26 1.33zM77.03 29.7q.0 .92 .39 1.46q.39 .53 1.22 .53q.84 .0 1.22 -.53q.39 -.54 .39 -1.46q.0 -.93 -.39 -1.45q-.38 -.52 -1.21 -.52q-.83 .0 -1.23 .52q-.39 .52 -.39 1.45z" id="mol1atm4" stroke="none"/>
                  
            <path class="atom" d="M16.18 48.8h-.72l-2.62 -4.07h-.03q.01 .24 .03 .6q.02 .36 .02 .73v2.74h-.57v-4.9h.71l2.61 4.05h.03q-.01 -.11 -.02 -.33q-.01 -.22 -.02 -.48q-.01 -.26 -.01 -.48v-2.77h.58v4.9z" fill="#3050F8" id="mol1atm21" stroke="none"/>
                
            <line class="hi" id="mol1bnd22" stroke="#3050F8" x1="17.39" x2="22.41" y1="44.53" y2="41.629999999999995"/>
            <line class="hi" id="mol1bnd23" stroke="#3050F8" x1="11.08" x2="6.0600000000000005" y1="44.53" y2="41.629999999999995"/>
            <line class="hi" id="mol1bnd24" stroke="#3050F8" x1="14.24" x2="14.24" y1="50.2" y2="55.895"/>
        </g>
          
    </g>
    
</svg>
