<svg xmlns="http://www.w3.org/2000/svg" xmlns:xlink="http://www.w3.org/1999/xlink" height="56.2mm" version="1.2" viewBox="0 0 97.4 56.2" width="97.4mm">
      
    <desc>Generated by the Chemistry Development Kit (http://github.com/cdk)</desc>
      
    <g fill="#FF0D0D" stroke="#000000" stroke-linecap="round" stroke-linejoin="round" stroke-width=".7">
            
        <rect fill="#FFFFFF" height="57.0" stroke="none" width="98.0" x=".0" y=".0"/>
            
        <g class="mol" id="mol1">
                  
            <line class="bond" id="mol1bnd1" x1="66.07" x2="60.86" y1="55.19" y2="40.87"/>
                  
            <line class="bond" id="mol1bnd2" x1="60.86" x2="45.85" y1="40.87" y2="38.23"/>
                  
            <g class="bond" id="mol1bnd3">
                        
                <line x1="47.23" x2="39.53" y1="38.47" y2="47.65"/>
                        
                <line x1="45.37" x2="37.66" y1="36.9" y2="46.09"/>
                      
                <line class="hi" stroke="#FF0D0D" x1="39.53" x2="43.379999999999995" y1="47.65" y2="43.06"/>
                <line class="hi" stroke="#FF0D0D" x1="37.66" x2="41.515" y1="46.09" y2="41.495000000000005"/>
            </g>
                  
            <line class="bond" id="mol1bnd4" x1="45.85" x2="40.63" y1="38.23" y2="23.91"/>
                  
            <line class="bond" id="mol1bnd5" x1="40.63" x2="40.64" y1="23.91" y2="8.66"/>
                  
            <line class="bond" id="mol1bnd6" x1="40.64" x2="27.44" y1="8.66" y2="1.04"/>
                  
            <line class="bond" id="mol1bnd7" x1="27.44" x2="17.39" y1="1.04" y2="6.84"/>
                  
            <line class="bond" id="mol1bnd8" x1="14.24" x2="14.23" y1="12.52" y2="23.92"/>
                  
            <line class="bond" id="mol1bnd9" x1="14.23" x2="27.43" y1="23.92" y2="31.54"/>
                  
            <line class="bond" id="mol1bnd10" x1="40.63" x2="27.43" y1="23.91" y2="31.54"/>
                  
            <line class="bond" id="mol1bnd11" x1="11.08" x2="1.04" y1="6.85" y2="1.05"/>
                  
            <line class="bond" id="mol1bnd12" x1="40.63" x2="55.64" y1="23.91" y2="21.26"/>
                  
            <g class="bond" id="mol1bnd13">
                        
                <line x1="55.64" x2="65.44" y1="21.26" y2="32.94"/>
                        
                <line x1="58.41" x2="66.4" y1="20.77" y2="30.29"/>
                      
            </g>
                  
            <line class="bond" id="mol1bnd14" x1="65.44" x2="80.45" y1="32.94" y2="30.28"/>
                  
            <g class="bond" id="mol1bnd15">
                        
                <line x1="80.45" x2="85.6" y1="30.28" y2="16.02"/>
                        
                <line x1="78.64" x2="82.83" y1="28.13" y2="16.51"/>
                      
            </g>
                  
            <line class="bond" id="mol1bnd16" x1="85.6" x2="75.8" y1="16.02" y2="4.35"/>
                  
            <g class="bond" id="mol1bnd17">
                        
                <line x1="75.8" x2="60.86" y1="4.35" y2="6.93"/>
                        
                <line x1="74.83" x2="62.67" y1="6.99" y2="9.1"/>
                      
            </g>
                  
            <line class="bond" id="mol1bnd18" x1="55.64" x2="60.86" y1="21.26" y2="6.93"/>
                  
            <line class="bond" id="mol1bnd19" x1="80.45" x2="87.72" y1="30.28" y2="38.91"/>
                  
            <path class="atom" d="M38.31 49.9q.0 .76 -.26 1.33q-.26 .57 -.76 .88q-.5 .32 -1.24 .32q-.76 .0 -1.26 -.32q-.51 -.32 -.76 -.89q-.24 -.57 -.24 -1.33q.0 -.75 .24 -1.31q.25 -.57 .76 -.88q.51 -.32 1.27 -.32q.73 .0 1.23 .32q.5 .31 .76 .88q.26 .57 .26 1.33zM34.45 49.9q.0 .92 .39 1.46q.39 .53 1.22 .53q.84 .0 1.22 -.53q.39 -.54 .39 -1.46q.0 -.93 -.39 -1.45q-.38 -.52 -1.21 -.52q-.83 .0 -1.23 .52q-.39 .52 -.39 1.45z" id="mol1atm4" stroke="none"/>
                  
            <path class="atom" d="M16.18 11.12h-.72l-2.62 -4.07h-.03q.01 .24 .03 .6q.02 .36 .02 .73v2.74h-.57v-4.9h.71l2.61 4.05h.03q-.01 -.11 -.02 -.33q-.01 -.22 -.02 -.48q-.01 -.26 -.01 -.48v-2.77h.58v4.9z" fill="#3050F8" id="mol1atm8" stroke="none"/>
                  
            <g class="atom" id="mol1atm18">
                        
                <path d="M92.53 41.94q.0 .76 -.26 1.33q-.26 .57 -.76 .88q-.5 .32 -1.24 .32q-.76 .0 -1.26 -.32q-.51 -.32 -.76 -.89q-.24 -.57 -.24 -1.33q.0 -.75 .24 -1.31q.25 -.57 .76 -.88q.51 -.32 1.27 -.32q.73 .0 1.23 .32q.5 .31 .76 .88q.26 .57 .26 1.33zM88.67 41.94q.0 .92 .39 1.46q.39 .53 1.22 .53q.84 .0 1.22 -.53q.39 -.54 .39 -1.46q.0 -.93 -.39 -1.45q-.38 -.52 -1.21 -.52q-.83 .0 -1.23 .52q-.39 .52 -.39 1.45z" stroke="none"/>
                        
                <path d="M96.84 44.39h-.62v-2.29h-2.51v2.29h-.61v-4.9h.61v2.07h2.51v-2.07h.62v4.9z" stroke="none"/>
                      
            </g>
                
            <line class="hi" id="mol1bnd7" stroke="#3050F8" x1="17.39" x2="22.415" y1="6.84" y2="3.94"/>
            <line class="hi" id="mol1bnd8" stroke="#3050F8" x1="14.24" x2="14.235" y1="12.52" y2="18.22"/>
            <line class="hi" id="mol1bnd11" stroke="#3050F8" x1="11.08" x2="6.0600000000000005" y1="6.85" y2="3.9499999999999997"/>
            <line class="hi" id="mol1bnd19" stroke="#FF0D0D" x1="87.72" x2="84.08500000000001" y1="38.91" y2="34.595"/>
        </g>
          
    </g>
    
</svg>
