<svg xmlns="http://www.w3.org/2000/svg" xmlns:xlink="http://www.w3.org/1999/xlink" height="91.42mm" version="1.2" viewBox="0 0 95.3 91.42" width="95.3mm">
      
    <desc>Generated by the Chemistry Development Kit (http://github.com/cdk)</desc>
      
    <g fill="#3050F8" stroke="#000000" stroke-linecap="round" stroke-linejoin="round" stroke-width=".7">
            
        <rect fill="#FFFFFF" height="92.0" stroke="none" width="96.0" x=".0" y=".0"/>
            
        <g class="mol" id="mol1">
                  
            <path class="bond" d="M.56 86.11c-.08 .54 .37 1.16 .91 1.24c.54 .08 1.16 -.37 1.24 -.91c.08 -.54 .7 -.99 1.24 -.91c.54 .08 .99 .7 .91 1.24c-.08 .54 .37 1.16 .91 1.24c.54 .08 1.16 -.37 1.24 -.91c.08 -.54 .7 -.99 1.24 -.91c.54 .08 .99 .7 .91 1.24c-.08 .54 .37 1.16 .91 1.24c.54 .08 1.16 -.37 1.24 -.91" fill="none" id="mol1bnd1" stroke="#000000" stroke-width=".7"/>
                  
            <g class="bond" id="mol1bnd2">
                        
                <line x1="18.44" x2="25.15" y1="84.9" y2="76.52"/>
                        
                <line x1="16.54" x2="22.29" y1="83.37" y2="76.19"/>
                      
                <line class="hi" stroke="#3050F8" x1="18.44" x2="21.795" y1="84.9" y2="80.71000000000001"/>
                <line class="hi" stroke="#3050F8" x1="16.54" x2="19.415" y1="83.37" y2="79.78"/>
            </g>
                  
            <line class="bond" id="mol1bnd3" x1="25.15" x2="18.55" y1="76.52" y2="62.8"/>
                  
            <line class="bond" id="mol1bnd4" x1="18.55" x2="23.37" y1="62.8" y2="52.8"/>
                  
            <line class="bond" id="mol1bnd5" x1="28.46" x2="39.99" y1="48.32" y2="45.63"/>
                  
            <g class="bond" id="mol1bnd6">
                        
                <line x1="51.87" x2="39.99" y1="55.18" y2="45.63"/>
                        
                <line x1="49.44" x2="39.38" y1="56.35" y2="48.28"/>
                      
            </g>
                  
            <line class="bond" id="mol1bnd7" x1="51.87" x2="65.08" y1="55.18" y2="47.56"/>
                  
            <g class="bond" id="mol1bnd8">
                        
                <line x1="78.29" x2="65.08" y1="55.18" y2="47.56"/>
                        
                <line x1="75.85" x2="65.08" y1="56.59" y2="50.38"/>
                      
            </g>
                  
            <line class="bond" id="mol1bnd9" x1="78.29" x2="78.29" y1="55.18" y2="70.42"/>
                  
            <g class="bond" id="mol1bnd10">
                        
                <line x1="65.08" x2="78.29" y1="78.04" y2="70.42"/>
                        
                <line x1="65.08" x2="75.85" y1="75.23" y2="69.01"/>
                      
            </g>
                  
            <line class="bond" id="mol1bnd11" x1="65.08" x2="51.87" y1="78.04" y2="70.42"/>
                  
            <line class="bond" id="mol1bnd12" x1="51.87" x2="51.87" y1="55.18" y2="70.42"/>
                  
            <g class="bond" id="mol1bnd13">
                        
                <line x1="43.02" x2="51.87" y1="77.54" y2="70.42"/>
                        
                <line x1="41.49" x2="49.44" y1="75.64" y2="69.25"/>
                      
                <line class="hi" stroke="#3050F8" x1="43.02" x2="47.445" y1="77.54" y2="73.98"/>
                <line class="hi" stroke="#3050F8" x1="41.49" x2="45.465" y1="75.64" y2="72.445"/>
            </g>
                  
            <line class="bond" id="mol1bnd14" x1="25.15" x2="36.68" y1="76.52" y2="79.2"/>
                  
            <line class="bond" id="mol1bnd15" x1="78.29" x2="88.53" y1="55.18" y2="49.27"/>
                  
            <line class="bond" id="mol1bnd16" x1="39.99" x2="43.37" y1="45.63" y2="30.77"/>
                  
            <g class="bond" id="mol1bnd17">
                        
                <line x1="32.19" x2="43.37" y1="20.41" y2="30.77"/>
                        
                <line x1="34.88" x2="44.0" y1="19.58" y2="28.03"/>
                      
            </g>
                  
            <line class="bond" id="mol1bnd18" x1="32.19" x2="35.57" y1="20.41" y2="5.55"/>
                  
            <g class="bond" id="mol1bnd19">
                        
                <line x1="50.14" x2="35.57" y1="1.05" y2="5.55"/>
                        
                <line x1="49.52" x2="37.64" y1="3.8" y2="7.47"/>
                      
            </g>
                  
            <line class="bond" id="mol1bnd20" x1="50.14" x2="61.33" y1="1.05" y2="11.42"/>
                  
            <g class="bond" id="mol1bnd21">
                        
                <line x1="57.94" x2="61.33" y1="26.28" y2="11.42"/>
                        
                <line x1="55.88" x2="58.64" y1="24.36" y2="12.25"/>
                      
            </g>
                  
            <line class="bond" id="mol1bnd22" x1="43.37" x2="57.94" y1="30.77" y2="26.28"/>
                  
            <line class="bond" id="mol1bnd23" x1="22.34" x2="18.09" y1="45.57" y2="40.27"/>
                  
            <path class="atom" d="M17.57 90.86h-.72l-2.62 -4.07h-.03q.01 .24 .03 .6q.02 .36 .02 .73v2.74h-.57v-4.9h.71l2.61 4.05h.03q-.01 -.11 -.02 -.33q-.01 -.22 -.02 -.48q-.01 -.26 -.01 -.48v-2.77h.58v4.9z" id="mol1atm2" stroke="none"/>
                  
            <path class="atom" d="M27.09 51.54h-.72l-2.62 -4.07h-.03q.01 .24 .03 .6q.02 .36 .02 .73v2.74h-.57v-4.9h.71l2.61 4.05h.03q-.01 -.11 -.02 -.33q-.01 -.22 -.02 -.48q-.01 -.26 -.01 -.48v-2.77h.58v4.9z" id="mol1atm5" stroke="none"/>
                  
            <path class="atom" d="M41.93 82.42h-.72l-2.62 -4.07h-.03q.01 .24 .03 .6q.02 .36 .02 .73v2.74h-.57v-4.9h.71l2.61 4.05h.03q-.01 -.11 -.02 -.33q-.01 -.22 -.02 -.48q-.01 -.26 -.01 -.48v-2.77h.58v4.9z" id="mol1atm13" stroke="none"/>
                  
            <path class="atom" d="M91.98 45.58q-.79 .0 -1.24 .53q-.45 .52 -.45 1.45q.0 .91 .42 1.45q.42 .53 1.27 .53q.32 .0 .61 -.05q.29 -.06 .57 -.14v.54q-.27 .1 -.57 .15q-.29 .05 -.7 .05q-.74 .0 -1.25 -.31q-.5 -.31 -.75 -.88q-.25 -.57 -.25 -1.34q.0 -.74 .27 -1.31q.27 -.57 .8 -.88q.53 -.32 1.28 -.32q.78 .0 1.35 .29l-.24 .52q-.23 -.1 -.51 -.18q-.27 -.08 -.61 -.08zM94.74 50.01h-.6v-5.21h.6v5.21z" fill="#1FF01F" id="mol1atm14" stroke="none"/>
                  
            <g class="atom" id="mol1atm21">
                        
                <path d="M17.88 37.19q.0 .76 -.26 1.33q-.26 .57 -.76 .88q-.5 .32 -1.24 .32q-.76 .0 -1.26 -.32q-.51 -.32 -.76 -.89q-.24 -.57 -.24 -1.33q.0 -.75 .24 -1.31q.25 -.57 .76 -.88q.51 -.32 1.27 -.32q.73 .0 1.23 .32q.5 .31 .76 .88q.26 .57 .26 1.33zM14.02 37.19q.0 .92 .39 1.46q.39 .53 1.22 .53q.84 .0 1.22 -.53q.39 -.54 .39 -1.46q.0 -.93 -.39 -1.45q-.38 -.52 -1.21 -.52q-.83 .0 -1.23 .52q-.39 .52 -.39 1.45z" fill="#FF0D0D" stroke="none"/>
                        
                <path d="M12.8 39.64h-.62v-2.29h-2.51v2.29h-.61v-4.9h.61v2.07h2.51v-2.07h.62v4.9z" fill="#FF0D0D" stroke="none"/>
                      
            </g>
                
            <line class="hi" id="mol1bnd4" stroke="#3050F8" x1="23.37" x2="20.96" y1="52.8" y2="57.8"/>
            <line class="hi" id="mol1bnd5" stroke="#3050F8" x1="28.46" x2="34.225" y1="48.32" y2="46.975"/>
            <line class="hi" id="mol1bnd14" stroke="#3050F8" x1="36.68" x2="30.915" y1="79.2" y2="77.86"/>
            <line class="hi" id="mol1bnd15" stroke="#1FF01F" x1="88.53" x2="83.41" y1="49.27" y2="52.225"/>
            <line class="hi" id="mol1bnd23" stroke="#3050F8" x1="22.34" x2="20.215" y1="45.57" y2="42.92"/>
            <line class="hi" id="mol1bnd23" stroke="#FF0D0D" x1="18.09" x2="20.215" y1="40.27" y2="42.92"/>
            <line class="hi" id="mol1bnd23" stroke="#FF0D0D" x1="18.09" x2="20.215" y1="40.27" y2="42.92"/>
        </g>
          
    </g>
    
</svg>
