<svg xmlns="http://www.w3.org/2000/svg" xmlns:xlink="http://www.w3.org/1999/xlink" height="59.16mm" version="1.2" viewBox="0 0 57.87 59.16" width="57.87mm">
      
    <desc>Generated by the Chemistry Development Kit (http://github.com/cdk)</desc>
      
    <g fill="#FF0D0D" stroke="#000000" stroke-linecap="round" stroke-linejoin="round" stroke-width=".7">
            
        <rect fill="#FFFFFF" height="60.0" stroke="none" width="58.0" x=".0" y=".0"/>
            
        <g class="mol" id="mol1">
                  
            <g class="bond" id="mol1bnd1">
                        
                <line x1="1.04" x2="1.04" y1="22.25" y2="37.49"/>
                        
                <line x1="3.48" x2="3.48" y1="23.66" y2="36.07"/>
                      
            </g>
                  
            <line class="bond" id="mol1bnd2" x1="1.04" x2="14.35" y1="37.49" y2="45.11"/>
                  
            <g class="bond" id="mol1bnd3">
                        
                <line x1="14.35" x2="27.45" y1="45.11" y2="37.49"/>
                        
                <line x1="14.34" x2="25.02" y1="42.29" y2="36.08"/>
                      
            </g>
                  
            <line class="bond" id="mol1bnd4" x1="27.45" x2="27.56" y1="37.49" y2="22.25"/>
                  
            <g class="bond" id="mol1bnd5">
                        
                <line x1="27.56" x2="14.35" y1="22.25" y2="14.63"/>
                        
                <line x1="25.11" x2="14.34" y1="23.65" y2="17.44"/>
                      
            </g>
                  
            <line class="bond" id="mol1bnd6" x1="1.04" x2="14.35" y1="22.25" y2="14.63"/>
                  
            <line class="bond" id="mol1bnd7" x1="27.56" x2="41.98" y1="22.25" y2="17.57"/>
                  
            <g class="bond" id="mol1bnd8">
                        
                <line x1="40.55" x2="44.29" y1="18.04" y2="6.52"/>
                        
                <line x1="42.87" x2="46.61" y1="18.79" y2="7.28"/>
                      
                <line class="hi" stroke="#FF0D0D" x1="44.29" x2="42.42" y1="6.52" y2="12.28"/>
                <line class="hi" stroke="#FF0D0D" x1="46.61" x2="44.739999999999995" y1="7.280000000000001" y2="13.035"/>
            </g>
                  
            <line class="bond" id="mol1bnd9" x1="41.98" x2="48.32" y1="17.57" y2="26.29"/>
                  
            <line class="bond" id="mol1bnd10" x1="48.29" x2="44.15" y1="33.45" y2="39.07"/>
                  
            <line class="bond" id="mol1bnd11" x1="27.45" x2="39.04" y1="37.49" y2="41.24"/>
                  
            <g class="bond" id="mol1bnd12">
                        
                <line x1="41.34" x2="38.39" y1="46.37" y2="52.96"/>
                        
                <line x1="39.11" x2="36.17" y1="45.38" y2="51.96"/>
                      
                <line class="hi" stroke="#C6C62C" x1="41.34" x2="39.865" y1="46.37" y2="49.665"/>
                <line class="hi" stroke="#FF0D0D" x1="38.39" x2="39.865" y1="52.96" y2="49.665"/>
                <line class="hi" stroke="#C6C62C" x1="39.11" x2="37.64" y1="45.38" y2="48.67"/>
                <line class="hi" stroke="#FF0D0D" x1="36.17" x2="37.64" y1="51.96" y2="48.67"/>
            </g>
                  
            <g class="bond" id="mol1bnd13">
                        
                <line x1="45.25" x2="52.39" y1="42.71" y2="46.87"/>
                        
                <line x1="44.02" x2="51.16" y1="44.82" y2="48.97"/>
                      
                <line class="hi" stroke="#C6C62C" x1="45.25" x2="48.82" y1="42.71" y2="44.79"/>
                <line class="hi" stroke="#FF0D0D" x1="52.39" x2="48.82" y1="46.87" y2="44.79"/>
                <line class="hi" stroke="#C6C62C" x1="44.02" x2="47.59" y1="44.82" y2="46.894999999999996"/>
                <line class="hi" stroke="#FF0D0D" x1="51.16" x2="47.59" y1="48.97" y2="46.894999999999996"/>
            </g>
                  
            <path class="atom" d="M48.95 3.08q.0 .76 -.26 1.33q-.26 .57 -.76 .88q-.5 .32 -1.24 .32q-.76 .0 -1.26 -.32q-.51 -.32 -.76 -.89q-.24 -.57 -.24 -1.33q.0 -.75 .24 -1.31q.25 -.57 .76 -.88q.51 -.32 1.27 -.32q.73 .0 1.23 .32q.5 .31 .76 .88q.26 .57 .26 1.33zM45.09 3.08q.0 .92 .39 1.46q.39 .53 1.22 .53q.84 .0 1.22 -.53q.39 -.54 .39 -1.46q.0 -.93 -.39 -1.45q-.38 -.52 -1.21 -.52q-.83 .0 -1.23 .52q-.39 .52 -.39 1.45z" id="mol1atm8" stroke="none"/>
                  
            <g class="atom" id="mol1atm9">
                        
                <path d="M52.86 32.32h-.72l-2.62 -4.07h-.03q.01 .24 .03 .6q.02 .36 .02 .73v2.74h-.57v-4.9h.71l2.61 4.05h.03q-.01 -.11 -.02 -.33q-.01 -.22 -.02 -.48q-.01 -.26 -.01 -.48v-2.77h.58v4.9z" fill="#3050F8" stroke="none"/>
                        
                <path d="M57.17 32.32h-.62v-2.29h-2.51v2.29h-.61v-4.9h.61v2.07h2.51v-2.07h.62v4.9z" fill="#3050F8" stroke="none"/>
                      
            </g>
                  
            <path class="atom" d="M43.43 43.3q.0 .65 -.48 1.02q-.47 .36 -1.27 .36q-.42 .0 -.77 -.07q-.35 -.06 -.58 -.17v-.59q.24 .11 .61 .2q.37 .09 .76 .09q.55 .0 .83 -.21q.28 -.21 .28 -.58q.0 -.24 -.11 -.4q-.1 -.17 -.35 -.31q-.25 -.14 -.7 -.3q-.63 -.23 -.95 -.55q-.32 -.33 -.32 -.9q.0 -.39 .2 -.67q.2 -.28 .55 -.43q.36 -.15 .82 -.15q.4 .0 .74 .08q.34 .07 .61 .2l-.2 .53q-.25 -.11 -.55 -.18q-.3 -.08 -.63 -.08q-.46 .0 -.69 .2q-.23 .2 -.23 .52q.0 .24 .1 .41q.11 .17 .34 .3q.23 .13 .63 .28q.43 .15 .73 .34q.3 .18 .45 .43q.15 .25 .15 .64z" fill="#C6C62C" id="mol1atm10" stroke="none"/>
                  
            <path class="atom" d="M37.92 56.07q.0 .76 -.26 1.33q-.26 .57 -.76 .88q-.5 .32 -1.24 .32q-.76 .0 -1.26 -.32q-.51 -.32 -.76 -.89q-.24 -.57 -.24 -1.33q.0 -.75 .24 -1.31q.25 -.57 .76 -.88q.51 -.32 1.27 -.32q.73 .0 1.23 .32q.5 .31 .76 .88q.26 .57 .26 1.33zM34.06 56.07q.0 .92 .39 1.46q.39 .53 1.22 .53q.84 .0 1.22 -.53q.39 -.54 .39 -1.46q.0 -.93 -.39 -1.45q-.38 -.52 -1.21 -.52q-.83 .0 -1.23 .52q-.39 .52 -.39 1.45z" id="mol1atm11" stroke="none"/>
                  
            <path class="atom" d="M57.31 49.83q.0 .76 -.26 1.33q-.26 .57 -.76 .88q-.5 .32 -1.24 .32q-.76 .0 -1.26 -.32q-.51 -.32 -.76 -.89q-.24 -.57 -.24 -1.33q.0 -.75 .24 -1.31q.25 -.57 .76 -.88q.51 -.32 1.27 -.32q.73 .0 1.23 .32q.5 .31 .76 .88q.26 .57 .26 1.33zM53.45 49.83q.0 .92 .39 1.46q.39 .53 1.22 .53q.84 .0 1.22 -.53q.39 -.54 .39 -1.46q.0 -.93 -.39 -1.45q-.38 -.52 -1.21 -.52q-.83 .0 -1.23 .52q-.39 .52 -.39 1.45z" id="mol1atm12" stroke="none"/>
                
            <line class="hi" id="mol1bnd9" stroke="#3050F8" x1="48.32" x2="45.15" y1="26.29" y2="21.93"/>
            <line class="hi" id="mol1bnd10" stroke="#3050F8" x1="48.29" x2="46.22" y1="33.45" y2="36.260000000000005"/>
            <line class="hi" id="mol1bnd10" stroke="#C6C62C" x1="44.15" x2="46.22" y1="39.07" y2="36.260000000000005"/>
            <line class="hi" id="mol1bnd11" stroke="#C6C62C" x1="39.04" x2="33.245" y1="41.24" y2="39.365"/>
        </g>
          
    </g>
    
</svg>
