<svg xmlns="http://www.w3.org/2000/svg" xmlns:xlink="http://www.w3.org/1999/xlink" height="32.96mm" version="1.2" viewBox="0 0 104.57 32.96" width="104.57mm">
      
    <desc>Generated by the Chemistry Development Kit (http://github.com/cdk)</desc>
      
    <g fill="#FF0D0D" stroke="#000000" stroke-linecap="round" stroke-linejoin="round" stroke-width=".7">
            
        <rect fill="#FFFFFF" height="33.0" stroke="none" width="105.0" x=".0" y=".0"/>
            
        <g class="mol" id="mol1">
                  
            <line class="bond" id="mol1bnd1" x1="103.53" x2="90.32" y1="8.73" y2="1.12"/>
                  
            <line class="bond" id="mol1bnd2" x1="90.32" x2="77.13" y1="1.12" y2="8.75"/>
                  
            <line class="bond" id="mol1bnd3" x1="77.13" x2="63.93" y1="8.75" y2="1.13"/>
                  
            <line class="bond" id="mol1bnd4" x1="63.93" x2="50.73" y1="1.13" y2="8.76"/>
                  
            <g class="bond" id="mol1bnd5">
                        
                <line x1="50.73" x2="37.32" y1="8.76" y2="1.04"/>
                        
                <line x1="48.3" x2="37.34" y1="10.17" y2="3.86"/>
                      
            </g>
                  
            <line class="bond" id="mol1bnd6" x1="37.32" x2="24.22" y1="1.04" y2="8.76"/>
                  
            <g class="bond" id="mol1bnd7">
                        
                <line x1="24.22" x2="24.22" y1="8.76" y2="24.2"/>
                        
                <line x1="26.65" x2="26.65" y1="10.15" y2="22.81"/>
                      
            </g>
                  
            <line class="bond" id="mol1bnd8" x1="24.22" x2="37.32" y1="24.2" y2="31.93"/>
                  
            <g class="bond" id="mol1bnd9">
                        
                <line x1="37.32" x2="50.73" y1="31.93" y2="24.2"/>
                        
                <line x1="37.34" x2="48.3" y1="29.1" y2="22.79"/>
                      
            </g>
                  
            <line class="bond" id="mol1bnd10" x1="50.73" x2="50.73" y1="8.76" y2="24.2"/>
                  
            <line class="bond" id="mol1bnd11" x1="24.22" x2="13.59" y1="24.2" y2="27.54"/>
                  
            <line class="bond" id="mol1bnd12" x1="7.54" x2="1.05" y1="25.58" y2="17.4"/>
                  
            <line class="bond" id="mol1bnd13" x1="1.05" x2="7.52" y1="17.4" y2="7.58"/>
                  
            <line class="bond" id="mol1bnd14" x1="24.22" x2="13.29" y1="8.76" y2="5.4"/>
                  
            <line class="bond" id="mol1bnd15" x1="77.13" x2="77.14" y1="8.75" y2="20.14"/>
                  
            <line class="bond" id="mol1bnd16" x1="80.29" x2="90.34" y1="25.8" y2="31.6"/>
                  
            <path class="atom" d="M12.25 28.67q.0 .76 -.26 1.33q-.26 .57 -.76 .88q-.5 .32 -1.24 .32q-.76 .0 -1.26 -.32q-.51 -.32 -.76 -.89q-.24 -.57 -.24 -1.33q.0 -.75 .24 -1.31q.25 -.57 .76 -.88q.51 -.32 1.27 -.32q.73 .0 1.23 .32q.5 .31 .76 .88q.26 .57 .26 1.33zM8.39 28.67q.0 .92 .39 1.46q.39 .53 1.22 .53q.84 .0 1.22 -.53q.39 -.54 .39 -1.46q.0 -.93 -.39 -1.45q-.38 -.52 -1.21 -.52q-.83 .0 -1.23 .52q-.39 .52 -.39 1.45z" id="mol1atm11" stroke="none"/>
                  
            <path class="atom" d="M11.95 4.29q.0 .76 -.26 1.33q-.26 .57 -.76 .88q-.5 .32 -1.24 .32q-.76 .0 -1.26 -.32q-.51 -.32 -.76 -.89q-.24 -.57 -.24 -1.33q.0 -.75 .24 -1.31q.25 -.57 .76 -.88q.51 -.32 1.27 -.32q.73 .0 1.23 .32q.5 .31 .76 .88q.26 .57 .26 1.33zM8.08 4.29q.0 .92 .39 1.46q.39 .53 1.22 .53q.84 .0 1.22 -.53q.39 -.54 .39 -1.46q.0 -.93 -.39 -1.45q-.38 -.52 -1.21 -.52q-.83 .0 -1.23 .52q-.39 .52 -.39 1.45z" id="mol1atm13" stroke="none"/>
                  
            <g class="atom" id="mol1atm14">
                        
                <path d="M79.08 26.43h-.72l-2.62 -4.07h-.03q.01 .24 .03 .6q.02 .36 .02 .73v2.74h-.57v-4.9h.71l2.61 4.05h.03q-.01 -.11 -.02 -.33q-.01 -.22 -.02 -.48q-.01 -.26 -.01 -.48v-2.77h.58v4.9z" fill="#3050F8" stroke="none"/>
                        
                <path d="M74.64 26.43h-.62v-2.29h-2.51v2.29h-.61v-4.9h.61v2.07h2.51v-2.07h.62v4.9z" fill="#3050F8" stroke="none"/>
                      
            </g>
                
            <line class="hi" id="mol1bnd11" stroke="#FF0D0D" x1="13.59" x2="18.905" y1="27.54" y2="25.869999999999997"/>
            <line class="hi" id="mol1bnd12" stroke="#FF0D0D" x1="7.54" x2="4.295" y1="25.58" y2="21.49"/>
            <line class="hi" id="mol1bnd13" stroke="#FF0D0D" x1="7.52" x2="4.285" y1="7.58" y2="12.489999999999998"/>
            <line class="hi" id="mol1bnd14" stroke="#FF0D0D" x1="13.29" x2="18.755" y1="5.4" y2="7.08"/>
            <line class="hi" id="mol1bnd15" stroke="#3050F8" x1="77.14" x2="77.13499999999999" y1="20.14" y2="14.445"/>
            <line class="hi" id="mol1bnd15" stroke="#3050F8" x1="77.14" x2="77.13499999999999" y1="20.14" y2="14.445"/>
            <line class="hi" id="mol1bnd16" stroke="#3050F8" x1="80.29" x2="85.315" y1="25.8" y2="28.700000000000003"/>
            <line class="hi" id="mol1bnd16" stroke="#3050F8" x1="80.29" x2="85.315" y1="25.8" y2="28.700000000000003"/>
        </g>
          
    </g>
    
</svg>
