<svg xmlns="http://www.w3.org/2000/svg" xmlns:xlink="http://www.w3.org/1999/xlink" height="34.86mm" version="1.2" viewBox="0 0 99.64 34.86" width="99.64mm">
      
    <desc>Generated by the Chemistry Development Kit (http://github.com/cdk)</desc>
      
    <g fill="#FF0D0D" stroke="#000000" stroke-linecap="round" stroke-linejoin="round" stroke-width=".7">
            
        <rect fill="#FFFFFF" height="35.0" stroke="none" width="100.0" x=".0" y=".0"/>
            
        <g class="mol" id="mol1">
                  
            <line class="bond" id="mol1bnd1" x1="1.05" x2="7.54" y1="19.29" y2="27.47"/>
                  
            <line class="bond" id="mol1bnd2" x1="13.59" x2="24.22" y1="29.44" y2="26.1"/>
                  
            <g class="bond" id="mol1bnd3">
                        
                <line x1="24.22" x2="24.22" y1="10.65" y2="26.1"/>
                        
                <line x1="26.65" x2="26.65" y1="12.05" y2="24.7"/>
                      
            </g>
                  
            <line class="bond" id="mol1bnd4" x1="24.22" x2="13.29" y1="10.65" y2="7.29"/>
                  
            <line class="bond" id="mol1bnd5" x1="1.05" x2="7.52" y1="19.29" y2="9.47"/>
                  
            <line class="bond" id="mol1bnd6" x1="24.22" x2="37.32" y1="10.65" y2="2.93"/>
                  
            <g class="bond" id="mol1bnd7">
                        
                <line x1="50.73" x2="37.32" y1="10.65" y2="2.93"/>
                        
                <line x1="48.3" x2="37.34" y1="12.06" y2="5.75"/>
                      
            </g>
                  
            <line class="bond" id="mol1bnd8" x1="50.73" x2="50.73" y1="10.65" y2="26.1"/>
                  
            <g class="bond" id="mol1bnd9">
                        
                <line x1="37.32" x2="50.73" y1="33.82" y2="26.1"/>
                        
                <line x1="37.34" x2="48.3" y1="31.0" y2="24.69"/>
                      
            </g>
                  
            <line class="bond" id="mol1bnd10" x1="24.22" x2="37.32" y1="26.1" y2="33.82"/>
                  
            <line class="bond" id="mol1bnd11" x1="50.73" x2="63.93" y1="10.65" y2="3.03"/>
                  
            <line class="bond" id="mol1bnd12" x1="63.93" x2="77.13" y1="3.03" y2="10.64"/>
                  
            <g class="bond" id="mol1bnd13">
                        
                <line x1="78.35" x2="78.36" y1="9.93" y2="21.96"/>
                        
                <line x1="75.91" x2="75.92" y1="9.93" y2="21.96"/>
                      
                <line class="hi" stroke="#FF0D0D" x1="78.36" x2="78.35499999999999" y1="21.96" y2="15.945"/>
                <line class="hi" stroke="#FF0D0D" x1="75.92" x2="75.91499999999999" y1="21.96" y2="15.945"/>
            </g>
                  
            <line class="bond" id="mol1bnd14" x1="77.13" x2="87.17" y1="10.64" y2="4.83"/>
                  
            <path class="atom" d="M12.25 30.56q.0 .76 -.26 1.33q-.26 .57 -.76 .88q-.5 .32 -1.24 .32q-.76 .0 -1.26 -.32q-.51 -.32 -.76 -.89q-.24 -.57 -.24 -1.33q.0 -.75 .24 -1.31q.25 -.57 .76 -.88q.51 -.32 1.27 -.32q.73 .0 1.23 .32q.5 .31 .76 .88q.26 .57 .26 1.33zM8.39 30.56q.0 .92 .39 1.46q.39 .53 1.22 .53q.84 .0 1.22 -.53q.39 -.54 .39 -1.46q.0 -.93 -.39 -1.45q-.38 -.52 -1.21 -.52q-.83 .0 -1.23 .52q-.39 .52 -.39 1.45z" id="mol1atm2" stroke="none"/>
                  
            <path class="atom" d="M11.95 6.18q.0 .76 -.26 1.33q-.26 .57 -.76 .88q-.5 .32 -1.24 .32q-.76 .0 -1.26 -.32q-.51 -.32 -.76 -.89q-.24 -.57 -.24 -1.33q.0 -.75 .24 -1.31q.25 -.57 .76 -.88q.51 -.32 1.27 -.32q.73 .0 1.23 .32q.5 .31 .76 .88q.26 .57 .26 1.33zM8.08 6.18q.0 .92 .39 1.46q.39 .53 1.22 .53q.84 .0 1.22 -.53q.39 -.54 .39 -1.46q.0 -.93 -.39 -1.45q-.38 -.52 -1.21 -.52q-.83 .0 -1.23 .52q-.39 .52 -.39 1.45z" id="mol1atm5" stroke="none"/>
                  
            <path class="atom" d="M79.4 25.87q.0 .76 -.26 1.33q-.26 .57 -.76 .88q-.5 .32 -1.24 .32q-.76 .0 -1.26 -.32q-.51 -.32 -.76 -.89q-.24 -.57 -.24 -1.33q.0 -.75 .24 -1.31q.25 -.57 .76 -.88q.51 -.32 1.27 -.32q.73 .0 1.23 .32q.5 .31 .76 .88q.26 .57 .26 1.33zM75.54 25.87q.0 .92 .39 1.46q.39 .53 1.22 .53q.84 .0 1.22 -.53q.39 -.54 .39 -1.46q.0 -.93 -.39 -1.45q-.38 -.52 -1.21 -.52q-.83 .0 -1.23 .52q-.39 .52 -.39 1.45z" id="mol1atm12" stroke="none"/>
                  
            <g class="atom" id="mol1atm13">
                        
                <path d="M92.27 5.46h-.72l-2.62 -4.07h-.03q.01 .24 .03 .6q.02 .36 .02 .73v2.74h-.57v-4.9h.71l2.61 4.05h.03q-.01 -.11 -.02 -.33q-.01 -.22 -.02 -.48q-.01 -.26 -.01 -.48v-2.77h.58v4.9z" fill="#3050F8" stroke="none"/>
                        
                <path d="M96.57 5.46h-.62v-2.29h-2.51v2.29h-.61v-4.9h.61v2.07h2.51v-2.07h.62v4.9z" fill="#3050F8" stroke="none"/>
                        
                <path d="M99.08 6.95h-1.94v-.3l.77 -.78q.22 -.22 .37 -.39q.15 -.18 .23 -.34q.08 -.17 .08 -.36q.0 -.24 -.15 -.37q-.14 -.13 -.37 -.13q-.21 .0 -.38 .08q-.16 .08 -.33 .21l-.19 -.24q.17 -.15 .39 -.25q.23 -.1 .51 -.1q.41 .0 .65 .21q.24 .21 .24 .58q.0 .23 -.1 .43q-.09 .2 -.26 .4q-.17 .2 -.39 .42l-.61 .6v.02h1.49v.33z" fill="#3050F8" stroke="none"/>
                      
            </g>
                
            <line class="hi" id="mol1bnd1" stroke="#FF0D0D" x1="7.54" x2="4.295" y1="27.47" y2="23.38"/>
            <line class="hi" id="mol1bnd2" stroke="#FF0D0D" x1="13.59" x2="18.905" y1="29.44" y2="27.770000000000003"/>
            <line class="hi" id="mol1bnd4" stroke="#FF0D0D" x1="13.29" x2="18.755" y1="7.29" y2="8.97"/>
            <line class="hi" id="mol1bnd5" stroke="#FF0D0D" x1="7.52" x2="4.285" y1="9.47" y2="14.379999999999999"/>
            <line class="hi" id="mol1bnd14" stroke="#3050F8" x1="87.17" x2="82.15" y1="4.83" y2="7.735"/>
        </g>
          
    </g>
    
</svg>
