<svg xmlns="http://www.w3.org/2000/svg" xmlns:xlink="http://www.w3.org/1999/xlink" height="58.76mm" version="1.2" viewBox="0 0 94.47 58.76" width="94.47mm">
      
    <desc>Generated by the Chemistry Development Kit (http://github.com/cdk)</desc>
      
    <g fill="#3050F8" stroke="#000000" stroke-linecap="round" stroke-linejoin="round" stroke-width=".7">
            
        <rect fill="#FFFFFF" height="59.0" stroke="none" width="95.0" x=".0" y=".0"/>
            
        <g class="mol" id="mol1">
                  
            <line class="bond" id="mol1bnd1" x1="67.03" x2="53.84" y1="3.01" y2="10.63"/>
                  
            <g class="bond" id="mol1bnd2">
                        
                <line x1="53.84" x2="43.79" y1="10.63" y2="4.83"/>
                        
                <line x1="51.4" x2="42.58" y1="12.03" y2="6.94"/>
                      
                <line class="hi" stroke="#3050F8" x1="43.79" x2="48.815" y1="4.83" y2="7.73"/>
                <line class="hi" stroke="#3050F8" x1="42.58" x2="46.989999999999995" y1="6.94" y2="9.485"/>
            </g>
                  
            <line class="bond" id="mol1bnd3" x1="37.49" x2="27.44" y1="4.83" y2="10.63"/>
                  
            <g class="bond" id="mol1bnd4">
                        
                <line x1="27.44" x2="14.24" y1="10.63" y2="3.01"/>
                        
                <line x1="25.0" x2="14.24" y1="12.03" y2="5.82"/>
                      
            </g>
                  
            <line class="bond" id="mol1bnd5" x1="14.24" x2="1.04" y1="3.01" y2="10.63"/>
                  
            <g class="bond" id="mol1bnd6">
                        
                <line x1="1.04" x2="1.04" y1="10.63" y2="25.86"/>
                        
                <line x1="3.48" x2="3.48" y1="12.03" y2="24.45"/>
                      
            </g>
                  
            <line class="bond" id="mol1bnd7" x1="1.04" x2="14.24" y1="25.86" y2="33.47"/>
                  
            <g class="bond" id="mol1bnd8">
                        
                <line x1="14.24" x2="27.44" y1="33.47" y2="25.86"/>
                        
                <line x1="14.24" x2="25.0" y1="30.66" y2="24.45"/>
                      
            </g>
                  
            <line class="bond" id="mol1bnd9" x1="27.44" x2="27.44" y1="10.63" y2="25.86"/>
                  
            <line class="bond" id="mol1bnd10" x1="27.44" x2="40.64" y1="25.86" y2="33.47"/>
                  
            <g class="bond" id="mol1bnd11">
                        
                <line x1="41.86" x2="41.86" y1="32.77" y2="44.78"/>
                        
                <line x1="39.42" x2="39.42" y1="32.77" y2="44.78"/>
                      
                <line class="hi" stroke="#FF0D0D" x1="41.86" x2="41.86" y1="44.78" y2="38.775000000000006"/>
                <line class="hi" stroke="#FF0D0D" x1="39.42" x2="39.42" y1="44.78" y2="38.775000000000006"/>
            </g>
                  
            <line class="bond" id="mol1bnd12" x1="40.64" x2="50.69" y1="33.47" y2="27.68"/>
                  
            <line class="bond" id="mol1bnd13" x1="53.84" x2="53.84" y1="10.63" y2="22.01"/>
                  
            <line class="bond" id="mol1bnd14" x1="56.99" x2="67.03" y1="27.68" y2="33.47"/>
                  
            <g class="bond" id="mol1bnd15">
                        
                <line x1="80.23" x2="67.03" y1="25.86" y2="33.47"/>
                        
                <line x1="80.23" x2="69.47" y1="28.67" y2="34.88"/>
                      
            </g>
                  
            <line class="bond" id="mol1bnd16" x1="80.23" x2="93.43" y1="25.86" y2="33.47"/>
                  
            <g class="bond" id="mol1bnd17">
                        
                <line x1="93.43" x2="93.43" y1="48.71" y2="33.47"/>
                        
                <line x1="90.99" x2="90.99" y1="47.3" y2="34.88"/>
                      
            </g>
                  
            <line class="bond" id="mol1bnd18" x1="93.43" x2="80.23" y1="48.71" y2="56.32"/>
                  
            <g class="bond" id="mol1bnd19">
                        
                <line x1="67.03" x2="80.23" y1="48.71" y2="56.32"/>
                        
                <line x1="69.47" x2="80.23" y1="47.3" y2="53.51"/>
                      
            </g>
                  
            <line class="bond" id="mol1bnd20" x1="67.03" x2="67.03" y1="33.47" y2="48.71"/>
                  
            <line class="bond" id="mol1bnd21" x1="67.03" x2="55.61" y1="48.71" y2="55.3"/>
                  
            <path class="atom" d="M42.58 5.46h-.72l-2.62 -4.07h-.03q.01 .24 .03 .6q.02 .36 .02 .73v2.74h-.57v-4.9h.71l2.61 4.05h.03q-.01 -.11 -.02 -.33q-.01 -.22 -.02 -.48q-.01 -.26 -.01 -.48v-2.77h.58v4.9z" id="mol1atm3" stroke="none"/>
                  
            <path class="atom" d="M42.9 48.7q.0 .76 -.26 1.33q-.26 .57 -.76 .88q-.5 .32 -1.24 .32q-.76 .0 -1.26 -.32q-.51 -.32 -.76 -.89q-.24 -.57 -.24 -1.33q.0 -.75 .24 -1.31q.25 -.57 .76 -.88q.51 -.32 1.27 -.32q.73 .0 1.23 .32q.5 .31 .76 .88q.26 .57 .26 1.33zM39.04 48.7q.0 .92 .39 1.46q.39 .53 1.22 .53q.84 .0 1.22 -.53q.39 -.54 .39 -1.46q.0 -.93 -.39 -1.45q-.38 -.52 -1.21 -.52q-.83 .0 -1.23 .52q-.39 .52 -.39 1.45z" fill="#FF0D0D" id="mol1atm11" stroke="none"/>
                  
            <path class="atom" d="M55.78 28.31h-.72l-2.62 -4.07h-.03q.01 .24 .03 .6q.02 .36 .02 .73v2.74h-.57v-4.9h.71l2.61 4.05h.03q-.01 -.11 -.02 -.33q-.01 -.22 -.02 -.48q-.01 -.26 -.01 -.48v-2.77h.58v4.9z" id="mol1atm12" stroke="none"/>
                  
            <path class="atom" d="M49.79 53.3q.92 .0 1.39 .27q.47 .27 .47 .94q.0 .43 -.24 .72q-.24 .29 -.69 .36v.04q.31 .05 .56 .18q.25 .13 .39 .38q.15 .24 .15 .62q.0 .67 -.46 1.03q-.46 .36 -1.24 .36h-1.72v-4.9h1.4zM49.91 55.39q.63 .0 .86 -.2q.24 -.2 .24 -.6q.0 -.4 -.29 -.58q-.29 -.18 -.91 -.18h-.81v1.56h.9zM49.01 55.9v1.77h.99q.65 .0 .9 -.25q.26 -.26 .26 -.67q.0 -.38 -.27 -.62q-.26 -.24 -.94 -.24h-.94zM54.48 54.45q.1 .0 .22 .01q.13 .01 .21 .03l-.07 .55q-.09 -.02 -.2 -.03q-.11 -.02 -.2 -.02q-.28 .0 -.53 .15q-.24 .15 -.39 .43q-.15 .27 -.15 .65v1.96h-.6v-3.67h.49l.07 .67h.03q.18 -.3 .46 -.52q.28 -.22 .67 -.22z" fill="#A62929" id="mol1atm19" stroke="none"/>
                
            <line class="hi" id="mol1bnd3" stroke="#3050F8" x1="37.49" x2="32.465" y1="4.83" y2="7.73"/>
            <line class="hi" id="mol1bnd12" stroke="#3050F8" x1="50.69" x2="45.665" y1="27.68" y2="30.575"/>
            <line class="hi" id="mol1bnd13" stroke="#3050F8" x1="53.84" x2="53.84" y1="22.01" y2="16.32"/>
            <line class="hi" id="mol1bnd14" stroke="#3050F8" x1="56.99" x2="62.010000000000005" y1="27.68" y2="30.575"/>
            <line class="hi" id="mol1bnd21" stroke="#A62929" x1="55.61" x2="61.32" y1="55.3" y2="52.004999999999995"/>
        </g>
          
    </g>
    
</svg>
