<svg xmlns="http://www.w3.org/2000/svg" xmlns:xlink="http://www.w3.org/1999/xlink" height="91.61mm" version="1.2" viewBox="0 0 105.11 91.61" width="105.11mm">
      
    <desc>Generated by the Chemistry Development Kit (http://github.com/cdk)</desc>
      
    <g fill="#3050F8" stroke="#000000" stroke-linecap="round" stroke-linejoin="round" stroke-width=".7">
            
        <rect fill="#FFFFFF" height="92.0" stroke="none" width="106.0" x=".0" y=".0"/>
            
        <g class="mol" id="mol1">
                  
            <g class="bond" id="mol1bnd1">
                        
                <line x1="16.15" x2="16.15" y1="63.27" y2="62.57"/>
                        
                <line x1="13.61" x2="13.61" y1="63.56" y2="62.28"/>
                        
                <line x1="11.07" x2="11.07" y1="63.85" y2="61.99"/>
                        
                <line x1="8.53" x2="8.53" y1="64.14" y2="61.69"/>
                        
                <line x1="5.99" x2="5.99" y1="64.44" y2="61.4"/>
                        
                <line x1="3.45" x2="3.45" y1="64.73" y2="61.11"/>
                        
                <line x1=".91" x2=".91" y1="65.02" y2="60.82"/>
                      
            </g>
                  
            <line class="bond" id="mol1bnd2" x1="16.15" x2="22.75" y1="62.92" y2="76.64"/>
                  
            <g class="bond" id="mol1bnd3">
                        
                <line x1="24.07" x2="16.65" y1="76.94" y2="86.21"/>
                        
                <line x1="22.17" x2="14.74" y1="75.42" y2="84.68"/>
                      
                <line class="hi" stroke="#FF0D0D" x1="16.65" x2="20.36" y1="86.21" y2="81.57499999999999"/>
                <line class="hi" stroke="#FF0D0D" x1="14.74" x2="18.455000000000002" y1="84.68" y2="80.05000000000001"/>
            </g>
                  
            <line class="bond" id="mol1bnd4" x1="22.75" x2="34.28" y1="76.64" y2="79.32"/>
                  
            <line class="bond" id="mol1bnd5" x1="40.62" x2="49.47" y1="77.65" y2="70.54"/>
                  
            <g class="bond" id="mol1bnd6">
                        
                <line x1="49.47" x2="49.47" y1="55.3" y2="70.54"/>
                        
                <line x1="51.91" x2="51.91" y1="56.71" y2="69.13"/>
                      
            </g>
                  
            <line class="bond" id="mol1bnd7" x1="49.47" x2="62.68" y1="55.3" y2="47.68"/>
                  
            <g class="bond" id="mol1bnd8">
                        
                <line x1="75.89" x2="62.68" y1="55.3" y2="47.68"/>
                        
                <line x1="73.45" x2="62.68" y1="56.71" y2="50.49"/>
                      
            </g>
                  
            <line class="bond" id="mol1bnd9" x1="75.89" x2="75.89" y1="55.3" y2="70.54"/>
                  
            <g class="bond" id="mol1bnd10">
                        
                <line x1="62.68" x2="75.89" y1="78.16" y2="70.54"/>
                        
                <line x1="62.68" x2="73.45" y1="75.34" y2="69.13"/>
                      
            </g>
                  
            <line class="bond" id="mol1bnd11" x1="49.47" x2="62.68" y1="70.54" y2="78.16"/>
                  
            <line class="bond" id="mol1bnd12" x1="75.89" x2="85.93" y1="55.3" y2="49.5"/>
                  
            <g class="bond" id="mol1bnd13">
                        
                <line x1="93.39" x2="99.61" y1="48.75" y2="52.34"/>
                        
                <line x1="92.17" x2="98.39" y1="50.86" y2="54.46"/>
                      
                <line class="hi" stroke="#3050F8" x1="93.39" x2="96.5" y1="48.75" y2="50.545"/>
                <line class="hi" stroke="#3050F8" x1="93.39" x2="96.5" y1="48.75" y2="50.545"/>
                <line class="hi" stroke="#FF0D0D" x1="99.61" x2="96.5" y1="52.34" y2="50.545"/>
                <line class="hi" stroke="#3050F8" x1="92.17" x2="95.28" y1="50.86" y2="52.66"/>
                <line class="hi" stroke="#3050F8" x1="92.17" x2="95.28" y1="50.86" y2="52.66"/>
                <line class="hi" stroke="#FF0D0D" x1="98.39" x2="95.28" y1="54.46" y2="52.66"/>
            </g>
                  
            <line class="bond" id="mol1bnd14" x1="89.09" x2="89.09" y1="43.46" y2="36.36"/>
                  
            <line class="bond" id="mol1bnd15" x1="49.47" x2="37.59" y1="55.3" y2="45.75"/>
                  
            <g class="bond" id="mol1bnd16">
                        
                <line x1="37.59" x2="26.06" y1="45.75" y2="48.43"/>
                        
                <line x1="36.99" x2="26.61" y1="48.39" y2="50.81"/>
                      
                <line class="hi" stroke="#3050F8" x1="26.06" x2="31.825000000000003" y1="48.43" y2="47.09"/>
                <line class="hi" stroke="#3050F8" x1="26.61" x2="31.8" y1="50.81" y2="49.6"/>
            </g>
                  
            <line class="bond" id="mol1bnd17" x1="16.15" x2="20.97" y1="62.92" y2="52.91"/>
                  
            <line class="bond" id="mol1bnd18" x1="37.59" x2="40.97" y1="45.75" y2="30.89"/>
                  
            <g class="bond" id="mol1bnd19">
                        
                <line x1="40.97" x2="55.58" y1="30.89" y2="26.38"/>
                        
                <line x1="41.6" x2="53.5" y1="28.14" y2="24.47"/>
                      
            </g>
                  
            <line class="bond" id="mol1bnd20" x1="55.58" x2="58.83" y1="26.38" y2="11.49"/>
                  
            <g class="bond" id="mol1bnd21">
                        
                <line x1="58.83" x2="47.69" y1="11.49" y2="1.05"/>
                        
                <line x1="56.15" x2="47.07" y1="12.33" y2="3.81"/>
                      
            </g>
                  
            <line class="bond" id="mol1bnd22" x1="47.69" x2="33.07" y1="1.05" y2="5.66"/>
                  
            <g class="bond" id="mol1bnd23">
                        
                <line x1="33.07" x2="29.81" y1="5.66" y2="20.55"/>
                        
                <line x1="35.15" x2="32.49" y1="7.56" y2="19.71"/>
                      
            </g>
                  
            <line class="bond" id="mol1bnd24" x1="40.97" x2="29.81" y1="30.89" y2="20.55"/>
                  
            <line class="bond" id="mol1bnd25" x1="29.81" x2="16.91" y1="20.55" y2="24.6"/>
                  
            <path class="atom" d="M15.48 88.53q.0 .76 -.26 1.33q-.26 .57 -.76 .88q-.5 .32 -1.24 .32q-.76 .0 -1.26 -.32q-.51 -.32 -.76 -.89q-.24 -.57 -.24 -1.33q.0 -.75 .24 -1.31q.25 -.57 .76 -.88q.51 -.32 1.27 -.32q.73 .0 1.23 .32q.5 .31 .76 .88q.26 .57 .26 1.33zM11.62 88.53q.0 .92 .39 1.46q.39 .53 1.22 .53q.84 .0 1.22 -.53q.39 -.54 .39 -1.46q.0 -.93 -.39 -1.45q-.38 -.52 -1.21 -.52q-.83 .0 -1.23 .52q-.39 .52 -.39 1.45z" fill="#FF0D0D" id="mol1atm4" stroke="none"/>
                  
            <g class="atom" id="mol1atm5">
                        
                <path d="M39.53 82.54h-.72l-2.62 -4.07h-.03q.01 .24 .03 .6q.02 .36 .02 .73v2.74h-.57v-4.9h.71l2.61 4.05h.03q-.01 -.11 -.02 -.33q-.01 -.22 -.02 -.48q-.01 -.26 -.01 -.48v-2.77h.58v4.9z" stroke="none"/>
                        
                <path d="M39.39 88.0h-.62v-2.29h-2.51v2.29h-.61v-4.9h.61v2.07h2.51v-2.07h.62v4.9z" stroke="none"/>
                      
            </g>
                  
            <g class="atom" id="mol1atm12">
                        
                <path d="M91.03 50.13h-.72l-2.62 -4.07h-.03q.01 .24 .03 .6q.02 .36 .02 .73v2.74h-.57v-4.9h.71l2.61 4.05h.03q-.01 -.11 -.02 -.33q-.01 -.22 -.02 -.48q-.01 -.26 -.01 -.48v-2.77h.58v4.9z" stroke="none"/>
                        
                <path d="M92.7 45.08h.82v.29h-.82v.85h-.3v-.85h-.82v-.29h.82v-.85h.3v.85z" stroke="none"/>
                      
            </g>
                  
            <path class="atom" d="M104.55 55.29q.0 .76 -.26 1.33q-.26 .57 -.76 .88q-.5 .32 -1.24 .32q-.76 .0 -1.26 -.32q-.51 -.32 -.76 -.89q-.24 -.57 -.24 -1.33q.0 -.75 .24 -1.31q.25 -.57 .76 -.88q.51 -.32 1.27 -.32q.73 .0 1.23 .32q.5 .31 .76 .88q.26 .57 .26 1.33zM100.68 55.29q.0 .92 .39 1.46q.39 .53 1.22 .53q.84 .0 1.22 -.53q.39 -.54 .39 -1.46q.0 -.93 -.39 -1.45q-.38 -.52 -1.21 -.52q-.83 .0 -1.23 .52q-.39 .52 -.39 1.45z" fill="#FF0D0D" id="mol1atm13" stroke="none"/>
                  
            <g class="atom" id="mol1atm14">
                        
                <path d="M91.34 32.43q.0 .76 -.26 1.33q-.26 .57 -.76 .88q-.5 .32 -1.24 .32q-.76 .0 -1.26 -.32q-.51 -.32 -.76 -.89q-.24 -.57 -.24 -1.33q.0 -.75 .24 -1.31q.25 -.57 .76 -.88q.51 -.32 1.27 -.32q.73 .0 1.23 .32q.5 .31 .76 .88q.26 .57 .26 1.33zM87.48 32.43q.0 .92 .39 1.46q.39 .53 1.22 .53q.84 .0 1.22 -.53q.39 -.54 .39 -1.46q.0 -.93 -.39 -1.45q-.38 -.52 -1.21 -.52q-.83 .0 -1.23 .52q-.39 .52 -.39 1.45z" fill="#FF0D0D" stroke="none"/>
                        
                <path d="M93.84 29.77v.29h-1.93v-.29h1.93z" fill="#FF0D0D" stroke="none"/>
                      
            </g>
                  
            <path class="atom" d="M24.69 51.65h-.72l-2.62 -4.07h-.03q.01 .24 .03 .6q.02 .36 .02 .73v2.74h-.57v-4.9h.71l2.61 4.05h.03q-.01 -.11 -.02 -.33q-.01 -.22 -.02 -.48q-.01 -.26 -.01 -.48v-2.77h.58v4.9z" id="mol1atm16" stroke="none"/>
                  
            <path class="atom" d="M12.82 23.3q-.79 .0 -1.24 .53q-.45 .52 -.45 1.45q.0 .91 .42 1.45q.42 .53 1.27 .53q.32 .0 .61 -.05q.29 -.06 .57 -.14v.54q-.27 .1 -.57 .15q-.29 .05 -.7 .05q-.74 .0 -1.25 -.31q-.5 -.31 -.75 -.88q-.25 -.57 -.25 -1.34q.0 -.74 .27 -1.31q.27 -.57 .8 -.88q.53 -.32 1.28 -.32q.78 .0 1.35 .29l-.24 .52q-.23 -.1 -.51 -.18q-.27 -.08 -.61 -.08zM15.58 27.72h-.6v-5.21h.6v5.21z" fill="#1FF01F" id="mol1atm23" stroke="none"/>
                
            <line class="hi" id="mol1bnd4" stroke="#3050F8" x1="34.28" x2="28.515" y1="79.32" y2="77.97999999999999"/>
            <line class="hi" id="mol1bnd5" stroke="#3050F8" x1="40.62" x2="45.045" y1="77.65" y2="74.095"/>
            <line class="hi" id="mol1bnd12" stroke="#3050F8" x1="85.93" x2="80.91" y1="49.5" y2="52.4"/>
            <line class="hi" id="mol1bnd14" stroke="#3050F8" x1="89.09" x2="89.09" y1="43.46" y2="39.91"/>
            <line class="hi" id="mol1bnd14" stroke="#3050F8" x1="89.09" x2="89.09" y1="43.46" y2="39.91"/>
            <line class="hi" id="mol1bnd14" stroke="#FF0D0D" x1="89.09" x2="89.09" y1="36.36" y2="39.91"/>
            <line class="hi" id="mol1bnd17" stroke="#3050F8" x1="20.97" x2="18.56" y1="52.91" y2="57.915"/>
            <line class="hi" id="mol1bnd25" stroke="#1FF01F" x1="16.91" x2="23.36" y1="24.6" y2="22.575000000000003"/>
        </g>
          
    </g>
    
</svg>
