<svg xmlns="http://www.w3.org/2000/svg" xmlns:xlink="http://www.w3.org/1999/xlink" height="45.68mm" version="1.2" viewBox="0 0 87.35 45.68" width="87.35mm">
      
    <desc>Generated by the Chemistry Development Kit (http://github.com/cdk)</desc>
      
    <g fill="#FF0D0D" stroke="#000000" stroke-linecap="round" stroke-linejoin="round" stroke-width=".7">
            
        <rect fill="#FFFFFF" height="46.0" stroke="none" width="88.0" x=".0" y=".0"/>
            
        <g class="mol" id="mol1">
                  
            <line class="bond" id="mol1bnd1" x1="86.31" x2="75.87" y1="25.94" y2="19.91"/>
                  
            <line class="bond" id="mol1bnd2" x1="70.37" x2="59.92" y1="19.9" y2="25.94"/>
                  
            <line class="bond" id="mol1bnd3" x1="59.92" x2="46.72" y1="25.94" y2="18.32"/>
                  
            <line class="bond" id="mol1bnd4" x1="46.72" x2="33.52" y1="18.32" y2="25.94"/>
                  
            <line class="bond" id="mol1bnd5" x1="33.52" x2="20.32" y1="25.94" y2="18.32"/>
                  
            <g class="bond" id="mol1bnd6">
                        
                <line x1="19.1" x2="19.1" y1="19.03" y2="7.0"/>
                        
                <line x1="21.54" x2="21.54" y1="19.03" y2="7.0"/>
                      
                <line class="hi" stroke="#FF0D0D" x1="19.1" x2="19.1" y1="7.0" y2="13.015"/>
                <line class="hi" stroke="#FF0D0D" x1="21.54" x2="21.54" y1="7.0" y2="13.015"/>
            </g>
                  
            <line class="bond" id="mol1bnd7" x1="20.32" x2="10.4" y1="18.32" y2="24.05"/>
                  
            <g class="bond" id="mol1bnd8">
                        
                <line stroke="#000000" x1="33.87" x2="33.17" y1="25.94" y2="25.94"/>
                        
                <line stroke="#3050F8" x1="34.16" x2="32.88" y1="28.48" y2="28.48"/>
                        
                <line stroke="#3050F8" x1="34.46" x2="32.59" y1="31.02" y2="31.02"/>
                        
                <line stroke="#3050F8" x1="34.75" x2="32.3" y1="33.56" y2="33.56"/>
                        
                <line stroke="#3050F8" x1="35.04" x2="32.01" y1="36.1" y2="36.1"/>
                      
            </g>
                  
            <path class="atom" d="M74.66 19.46q.0 .65 -.48 1.02q-.47 .36 -1.27 .36q-.42 .0 -.77 -.07q-.35 -.06 -.58 -.17v-.59q.24 .11 .61 .2q.37 .09 .76 .09q.55 .0 .83 -.21q.28 -.21 .28 -.58q.0 -.24 -.11 -.4q-.1 -.17 -.35 -.31q-.25 -.14 -.7 -.3q-.63 -.23 -.95 -.55q-.32 -.33 -.32 -.9q.0 -.39 .2 -.67q.2 -.28 .55 -.43q.36 -.15 .82 -.15q.4 .0 .74 .08q.34 .07 .61 .2l-.2 .53q-.25 -.11 -.55 -.18q-.3 -.08 -.63 -.08q-.46 .0 -.69 .2q-.23 .2 -.23 .52q.0 .24 .1 .41q.11 .17 .34 .3q.23 .13 .63 .28q.43 .15 .73 .34q.3 .18 .45 .43q.15 .25 .15 .64z" fill="#C6C62C" id="mol1atm2" stroke="none"/>
                  
            <path class="atom" d="M22.58 3.08q.0 .76 -.26 1.33q-.26 .57 -.76 .88q-.5 .32 -1.24 .32q-.76 .0 -1.26 -.32q-.51 -.32 -.76 -.89q-.24 -.57 -.24 -1.33q.0 -.75 .24 -1.31q.25 -.57 .76 -.88q.51 -.32 1.27 -.32q.73 .0 1.23 .32q.5 .31 .76 .88q.26 .57 .26 1.33zM18.72 3.08q.0 .92 .39 1.46q.39 .53 1.22 .53q.84 .0 1.22 -.53q.39 -.54 .39 -1.46q.0 -.93 -.39 -1.45q-.38 -.52 -1.21 -.52q-.83 .0 -1.23 .52q-.39 .52 -.39 1.45z" id="mol1atm7" stroke="none"/>
                  
            <g class="atom" id="mol1atm8">
                        
                <path d="M9.38 25.94q.0 .76 -.26 1.33q-.26 .57 -.76 .88q-.5 .32 -1.24 .32q-.76 .0 -1.26 -.32q-.51 -.32 -.76 -.89q-.24 -.57 -.24 -1.33q.0 -.75 .24 -1.31q.25 -.57 .76 -.88q.51 -.32 1.27 -.32q.73 .0 1.23 .32q.5 .31 .76 .88q.26 .57 .26 1.33zM5.52 25.94q.0 .92 .39 1.46q.39 .53 1.22 .53q.84 .0 1.22 -.53q.39 -.54 .39 -1.46q.0 -.93 -.39 -1.45q-.38 -.52 -1.21 -.52q-.83 .0 -1.23 .52q-.39 .52 -.39 1.45z" stroke="none"/>
                        
                <path d="M4.3 28.39h-.62v-2.29h-2.51v2.29h-.61v-4.9h.61v2.07h2.51v-2.07h.62v4.9z" stroke="none"/>
                      
            </g>
                  
            <g class="atom" id="mol1atm9">
                        
                <path d="M35.46 43.63h-.72l-2.62 -4.07h-.03q.01 .24 .03 .6q.02 .36 .02 .73v2.74h-.57v-4.9h.71l2.61 4.05h.03q-.01 -.11 -.02 -.33q-.01 -.22 -.02 -.48q-.01 -.26 -.01 -.48v-2.77h.58v4.9z" fill="#3050F8" stroke="none"/>
                        
                <path d="M39.77 43.63h-.62v-2.29h-2.51v2.29h-.61v-4.9h.61v2.07h2.51v-2.07h.62v4.9z" fill="#3050F8" stroke="none"/>
                        
                <path d="M42.27 45.12h-1.94v-.3l.77 -.78q.22 -.22 .37 -.39q.15 -.18 .23 -.34q.08 -.17 .08 -.36q.0 -.24 -.15 -.37q-.14 -.13 -.37 -.13q-.21 .0 -.38 .08q-.16 .08 -.33 .21l-.19 -.24q.17 -.15 .39 -.25q.23 -.1 .51 -.1q.41 .0 .65 .21q.24 .21 .24 .58q.0 .23 -.1 .43q-.09 .2 -.26 .4q-.17 .2 -.39 .42l-.61 .6v.02h1.49v.33z" fill="#3050F8" stroke="none"/>
                      
            </g>
                
            <line class="hi" id="mol1bnd1" stroke="#C6C62C" x1="75.87" x2="81.09" y1="19.91" y2="22.925"/>
            <line class="hi" id="mol1bnd2" stroke="#C6C62C" x1="70.37" x2="65.14500000000001" y1="19.9" y2="22.92"/>
            <line class="hi" id="mol1bnd7" stroke="#FF0D0D" x1="10.4" x2="15.36" y1="24.05" y2="21.185000000000002"/>
            <line class="hi" id="mol1bnd7" stroke="#FF0D0D" x1="10.4" x2="15.36" y1="24.05" y2="21.185000000000002"/>
        </g>
          
    </g>
    
</svg>
