<svg xmlns="http://www.w3.org/2000/svg" xmlns:xlink="http://www.w3.org/1999/xlink" height="57.27mm" version="1.2" viewBox="0 0 66.51 57.27" width="66.51mm">
      
    <desc>Generated by the Chemistry Development Kit (http://github.com/cdk)</desc>
      
    <g fill="#FF0D0D" stroke="#000000" stroke-linecap="round" stroke-linejoin="round" stroke-width=".7">
            
        <rect fill="#FFFFFF" height="58.0" stroke="none" width="67.0" x=".0" y=".0"/>
            
        <g class="mol" id="mol1">
                  
            <line class="bond" id="mol1bnd1" x1="65.45" x2="55.66" y1="16.91" y2="28.59"/>
                  
            <line class="bond" id="mol1bnd2" x1="55.66" x2="40.65" y1="28.59" y2="25.94"/>
                  
            <line class="bond" id="mol1bnd3" x1="40.65" x2="27.44" y1="25.94" y2="18.32"/>
                  
            <g class="bond" id="mol1bnd4">
                        
                <line x1="26.22" x2="26.22" y1="19.02" y2="7.0"/>
                        
                <line x1="28.66" x2="28.66" y1="19.02" y2="7.0"/>
                      
                <line class="hi" stroke="#FF0D0D" x1="26.22" x2="26.22" y1="7.0" y2="13.01"/>
                <line class="hi" stroke="#FF0D0D" x1="28.66" x2="28.66" y1="7.0" y2="13.01"/>
            </g>
                  
            <line class="bond" id="mol1bnd5" x1="27.44" x2="14.24" y1="18.32" y2="25.94"/>
                  
            <line class="bond" id="mol1bnd6" x1="14.24" x2="14.24" y1="25.94" y2="41.18"/>
                  
            <line class="bond" id="mol1bnd7" x1="14.24" x2="24.29" y1="41.18" y2="46.98"/>
                  
            <line class="bond" id="mol1bnd8" x1="30.6" x2="40.65" y1="46.98" y2="41.18"/>
                  
            <line class="bond" id="mol1bnd9" x1="40.65" x2="40.65" y1="25.94" y2="41.18"/>
                  
            <g class="bond" id="mol1bnd10">
                        
                <line x1="40.65" x2="51.17" y1="39.77" y2="45.85"/>
                        
                <line x1="39.43" x2="49.95" y1="41.88" y2="47.96"/>
                      
                <line class="hi" stroke="#FF0D0D" x1="51.17" x2="45.91" y1="45.85" y2="42.81"/>
                <line class="hi" stroke="#FF0D0D" x1="49.95" x2="44.69" y1="47.96" y2="44.92"/>
            </g>
                  
            <line class="bond" id="mol1bnd11" x1="14.24" x2="1.04" y1="25.94" y2="18.32"/>
                  
            <line class="bond" id="mol1bnd12" x1="40.65" x2="45.86" y1="25.94" y2="11.62"/>
                  
            <line class="bond" id="mol1bnd13" x1="45.86" x2="60.87" y1="11.62" y2="8.97"/>
                  
            <path class="atom" d="M29.7 3.08q.0 .76 -.26 1.33q-.26 .57 -.76 .88q-.5 .32 -1.24 .32q-.76 .0 -1.26 -.32q-.51 -.32 -.76 -.89q-.24 -.57 -.24 -1.33q.0 -.75 .24 -1.31q.25 -.57 .76 -.88q.51 -.32 1.27 -.32q.73 .0 1.23 .32q.5 .31 .76 .88q.26 .57 .26 1.33zM25.84 3.08q.0 .92 .39 1.46q.39 .53 1.22 .53q.84 .0 1.22 -.53q.39 -.54 .39 -1.46q.0 -.93 -.39 -1.45q-.38 -.52 -1.21 -.52q-.83 .0 -1.23 .52q-.39 .52 -.39 1.45z" id="mol1atm5" stroke="none"/>
                  
            <g class="atom" id="mol1atm8">
                        
                <path d="M29.38 51.25h-.72l-2.62 -4.07h-.03q.01 .24 .03 .6q.02 .36 .02 .73v2.74h-.57v-4.9h.71l2.61 4.05h.03q-.01 -.11 -.02 -.33q-.01 -.22 -.02 -.48q-.01 -.26 -.01 -.48v-2.77h.58v4.9z" fill="#3050F8" stroke="none"/>
                        
                <path d="M29.25 56.71h-.62v-2.29h-2.51v2.29h-.61v-4.9h.61v2.07h2.51v-2.07h.62v4.9z" fill="#3050F8" stroke="none"/>
                      
            </g>
                  
            <path class="atom" d="M56.11 48.8q.0 .76 -.26 1.33q-.26 .57 -.76 .88q-.5 .32 -1.24 .32q-.76 .0 -1.26 -.32q-.51 -.32 -.76 -.89q-.24 -.57 -.24 -1.33q.0 -.75 .24 -1.31q.25 -.57 .76 -.88q.51 -.32 1.27 -.32q.73 .0 1.23 .32q.5 .31 .76 .88q.26 .57 .26 1.33zM52.24 48.8q.0 .92 .39 1.46q.39 .53 1.22 .53q.84 .0 1.22 -.53q.39 -.54 .39 -1.46q.0 -.93 -.39 -1.45q-.38 -.52 -1.21 -.52q-.83 .0 -1.23 .52q-.39 .52 -.39 1.45z" id="mol1atm10" stroke="none"/>
                
            <line class="hi" id="mol1bnd7" stroke="#3050F8" x1="24.29" x2="19.265" y1="46.98" y2="44.08"/>
            <line class="hi" id="mol1bnd8" stroke="#3050F8" x1="30.6" x2="35.625" y1="46.98" y2="44.08"/>
        </g>
          
    </g>
    
</svg>
