<svg xmlns="http://www.w3.org/2000/svg" xmlns:xlink="http://www.w3.org/1999/xlink" height="52.03mm" version="1.2" viewBox="0 0 107.77 52.03" width="107.77mm">
      
    <desc>Generated by the Chemistry Development Kit (http://github.com/cdk)</desc>
      
    <g fill="#FF0D0D" stroke="#000000" stroke-linecap="round" stroke-linejoin="round" stroke-width=".7">
            
        <rect fill="#FFFFFF" height="53.0" stroke="none" width="108.0" x=".0" y=".0"/>
            
        <g class="mol" id="mol1">
                  
            <line class="bond" id="mol1bnd1" x1="27.36" x2="27.43" y1="41.12" y2="25.88"/>
                  
            <line class="bond" id="mol1bnd2" x1="27.43" x2="40.67" y1="25.88" y2="18.32"/>
                  
            <g class="bond" id="mol1bnd3">
                        
                <line x1="39.45" x2="39.51" y1="19.02" y2="7.0"/>
                        
                <line x1="41.88" x2="41.94" y1="19.03" y2="7.01"/>
                      
                <line class="hi" stroke="#FF0D0D" x1="39.51" x2="39.480000000000004" y1="7.0" y2="13.01"/>
                <line class="hi" stroke="#FF0D0D" x1="41.94" x2="41.91" y1="7.01" y2="13.02"/>
            </g>
                  
            <line class="bond" id="mol1bnd4" x1="40.67" x2="53.83" y1="18.32" y2="26.01"/>
                  
            <g class="bond" id="mol1bnd5">
                        
                <line x1="67.03" x2="53.83" y1="18.39" y2="26.01"/>
                        
                <line x1="67.04" x2="56.25" y1="21.19" y2="27.42"/>
                      
            </g>
                  
            <line class="bond" id="mol1bnd6" x1="67.03" x2="80.08" y1="18.39" y2="25.75"/>
                  
            <g class="bond" id="mol1bnd7">
                        
                <line x1="80.34" x2="80.08" y1="41.44" y2="25.75"/>
                        
                <line x1="77.88" x2="77.66" y1="40.04" y2="27.19"/>
                      
            </g>
                  
            <line class="bond" id="mol1bnd8" x1="80.34" x2="67.14" y1="41.44" y2="49.06"/>
                  
            <g class="bond" id="mol1bnd9">
                        
                <line x1="53.68" x2="67.14" y1="40.99" y2="49.06"/>
                        
                <line x1="56.13" x2="67.16" y1="39.62" y2="46.23"/>
                      
            </g>
                  
            <line class="bond" id="mol1bnd10" x1="53.83" x2="53.68" y1="26.01" y2="40.99"/>
                  
            <line class="bond" id="mol1bnd11" x1="80.34" x2="90.3" y1="41.44" y2="47.08"/>
                  
            <line class="bond" id="mol1bnd12" x1="96.86" x2="106.73" y1="47.03" y2="41.22"/>
                  
            <line class="bond" id="mol1bnd13" x1="27.43" x2="17.42" y1="25.88" y2="20.03"/>
                  
            <line class="bond" id="mol1bnd14" x1="11.12" x2="1.04" y1="19.99" y2="25.75"/>
                  
            <path class="atom" d="M43.0 3.08q.0 .76 -.26 1.33q-.26 .57 -.76 .88q-.5 .32 -1.24 .32q-.76 .0 -1.26 -.32q-.51 -.32 -.76 -.89q-.24 -.57 -.24 -1.33q.0 -.75 .24 -1.31q.25 -.57 .76 -.88q.51 -.32 1.27 -.32q.73 .0 1.23 .32q.5 .31 .76 .88q.26 .57 .26 1.33zM39.14 3.08q.0 .92 .39 1.46q.39 .53 1.22 .53q.84 .0 1.22 -.53q.39 -.54 .39 -1.46q.0 -.93 -.39 -1.45q-.38 -.52 -1.21 -.52q-.83 .0 -1.23 .52q-.39 .52 -.39 1.45z" id="mol1atm4" stroke="none"/>
                  
            <path class="atom" d="M95.86 48.95q.0 .76 -.26 1.33q-.26 .57 -.76 .88q-.5 .32 -1.24 .32q-.76 .0 -1.26 -.32q-.51 -.32 -.76 -.89q-.24 -.57 -.24 -1.33q.0 -.75 .24 -1.31q.25 -.57 .76 -.88q.51 -.32 1.27 -.32q.73 .0 1.23 .32q.5 .31 .76 .88q.26 .57 .26 1.33zM91.99 48.95q.0 .92 .39 1.46q.39 .53 1.22 .53q.84 .0 1.22 -.53q.39 -.54 .39 -1.46q.0 -.93 -.39 -1.45q-.38 -.52 -1.21 -.52q-.83 .0 -1.23 .52q-.39 .52 -.39 1.45z" id="mol1atm11" stroke="none"/>
                  
            <g class="atom" id="mol1atm13">
                        
                <path d="M16.21 20.64h-.72l-2.62 -4.07h-.03q.01 .24 .03 .6q.02 .36 .02 .73v2.74h-.57v-4.9h.71l2.61 4.05h.03q-.01 -.11 -.02 -.33q-.01 -.22 -.02 -.48q-.01 -.26 -.01 -.48v-2.77h.58v4.9z" fill="#3050F8" stroke="none"/>
                        
                <path d="M16.08 15.18h-.62v-2.29h-2.51v2.29h-.61v-4.9h.61v2.07h2.51v-2.07h.62v4.9z" fill="#3050F8" stroke="none"/>
                      
            </g>
                
            <line class="hi" id="mol1bnd11" stroke="#FF0D0D" x1="90.3" x2="85.32" y1="47.08" y2="44.26"/>
            <line class="hi" id="mol1bnd12" stroke="#FF0D0D" x1="96.86" x2="101.795" y1="47.03" y2="44.125"/>
            <line class="hi" id="mol1bnd13" stroke="#3050F8" x1="17.42" x2="22.425" y1="20.03" y2="22.955"/>
            <line class="hi" id="mol1bnd13" stroke="#3050F8" x1="17.42" x2="22.425" y1="20.03" y2="22.955"/>
            <line class="hi" id="mol1bnd14" stroke="#3050F8" x1="11.12" x2="6.08" y1="19.99" y2="22.869999999999997"/>
            <line class="hi" id="mol1bnd14" stroke="#3050F8" x1="11.12" x2="6.08" y1="19.99" y2="22.869999999999997"/>
        </g>
          
    </g>
    
</svg>
