<svg xmlns="http://www.w3.org/2000/svg" xmlns:xlink="http://www.w3.org/1999/xlink" height="62.72mm" version="1.2" viewBox="0 0 78.31 62.72" width="78.31mm">
      
    <desc>Generated by the Chemistry Development Kit (http://github.com/cdk)</desc>
      
    <g fill="#FF0D0D" stroke="#000000" stroke-linecap="round" stroke-linejoin="round" stroke-width=".7">
            
        <rect fill="#FFFFFF" height="63.0" stroke="none" width="79.0" x=".0" y=".0"/>
            
        <g class="mol" id="mol1">
                  
            <line class="bond" id="mol1bnd1" x1="30.67" x2="42.35" y1=".97" y2="3.03"/>
                  
            <line class="bond" id="mol1bnd2" x1="47.04" x2="50.87" y1="7.38" y2="17.93"/>
                  
            <line class="bond" id="mol1bnd3" x1="50.87" x2="64.07" y1="17.93" y2="10.31"/>
                  
            <line class="bond" id="mol1bnd4" x1="64.07" x2="77.28" y1="10.31" y2="17.93"/>
                  
            <line class="bond" id="mol1bnd5" x1="77.28" x2="77.28" y1="17.93" y2="33.16"/>
                  
            <line class="bond" id="mol1bnd6" x1="77.28" x2="64.07" y1="33.16" y2="40.78"/>
                  
            <line class="bond" id="mol1bnd7" x1="64.07" x2="50.87" y1="40.78" y2="33.16"/>
                  
            <line class="bond" id="mol1bnd8" x1="50.87" x2="50.87" y1="17.93" y2="33.16"/>
                  
            <g class="bond" id="mol1bnd9">
                        
                <line x1="52.09" x2="41.57" y1="33.86" y2="39.94"/>
                        
                <line x1="50.87" x2="40.35" y1="31.75" y2="37.83"/>
                      
                <line class="hi" stroke="#FF0D0D" x1="41.57" x2="46.83" y1="39.94" y2="36.9"/>
                <line class="hi" stroke="#FF0D0D" x1="40.35" x2="45.61" y1="37.83" y2="34.79"/>
            </g>
                  
            <line class="bond" id="mol1bnd10" x1="50.87" x2="31.07" y1="17.93" y2="21.42"/>
                  
            <g class="bond" id="mol1bnd11">
                        
                <line x1="31.07" x2="21.28" y1="21.42" y2="9.74"/>
                        
                <line x1="28.3" x2="20.31" y1="21.91" y2="12.39"/>
                      
            </g>
                  
            <line class="bond" id="mol1bnd12" x1="21.28" x2="6.27" y1="9.74" y2="12.38"/>
                  
            <g class="bond" id="mol1bnd13">
                        
                <line x1="6.27" x2="1.05" y1="12.38" y2="26.69"/>
                        
                <line x1="8.08" x2="3.83" y1="14.54" y2="26.2"/>
                      
            </g>
                  
            <line class="bond" id="mol1bnd14" x1="1.05" x2="10.85" y1="26.69" y2="38.37"/>
                  
            <g class="bond" id="mol1bnd15">
                        
                <line x1="10.85" x2="25.86" y1="38.37" y2="35.73"/>
                        
                <line x1="11.81" x2="24.05" y1="35.72" y2="33.57"/>
                      
            </g>
                  
            <line class="bond" id="mol1bnd16" x1="31.07" x2="25.86" y1="21.42" y2="35.73"/>
                  
            <line class="bond" id="mol1bnd17" x1="25.86" x2="33.1" y1="35.73" y2="44.36"/>
                  
            <line class="bond" id="mol1bnd18" x1="34.28" x2="30.43" y1="51.15" y2="61.71"/>
                  
            <g class="atom" id="mol1atm2">
                        
                <path d="M47.61 6.06h-.72l-2.62 -4.07h-.03q.01 .24 .03 .6q.02 .36 .02 .73v2.74h-.57v-4.9h.71l2.61 4.05h.03q-.01 -.11 -.02 -.33q-.01 -.22 -.02 -.48q-.01 -.26 -.01 -.48v-2.77h.58v4.9z" fill="#3050F8" stroke="none"/>
                        
                <path d="M51.91 6.06h-.62v-2.29h-2.51v2.29h-.61v-4.9h.61v2.07h2.51v-2.07h.62v4.9z" fill="#3050F8" stroke="none"/>
                      
            </g>
                  
            <path class="atom" d="M39.94 40.77q.0 .76 -.26 1.33q-.26 .57 -.76 .88q-.5 .32 -1.24 .32q-.76 .0 -1.26 -.32q-.51 -.32 -.76 -.89q-.24 -.57 -.24 -1.33q.0 -.75 .24 -1.31q.25 -.57 .76 -.88q.51 -.32 1.27 -.32q.73 .0 1.23 .32q.5 .31 .76 .88q.26 .57 .26 1.33zM36.08 40.77q.0 .92 .39 1.46q.39 .53 1.22 .53q.84 .0 1.22 -.53q.39 -.54 .39 -1.46q.0 -.93 -.39 -1.45q-.38 -.52 -1.21 -.52q-.83 .0 -1.23 .52q-.39 .52 -.39 1.45z" id="mol1atm9" stroke="none"/>
                  
            <path class="atom" d="M37.9 47.4q.0 .76 -.26 1.33q-.26 .57 -.76 .88q-.5 .32 -1.24 .32q-.76 .0 -1.26 -.32q-.51 -.32 -.76 -.89q-.24 -.57 -.24 -1.33q.0 -.75 .24 -1.31q.25 -.57 .76 -.88q.51 -.32 1.27 -.32q.73 .0 1.23 .32q.5 .31 .76 .88q.26 .57 .26 1.33zM34.04 47.4q.0 .92 .39 1.46q.39 .53 1.22 .53q.84 .0 1.22 -.53q.39 -.54 .39 -1.46q.0 -.93 -.39 -1.45q-.38 -.52 -1.21 -.52q-.83 .0 -1.23 .52q-.39 .52 -.39 1.45z" id="mol1atm16" stroke="none"/>
                
            <line class="hi" id="mol1bnd1" stroke="#3050F8" x1="42.35" x2="36.510000000000005" y1="3.0299999999999994" y2="2.0"/>
            <line class="hi" id="mol1bnd2" stroke="#3050F8" x1="47.04" x2="48.955" y1="7.38" y2="12.655"/>
            <line class="hi" id="mol1bnd2" stroke="#3050F8" x1="47.18369105209595" x2="48.955" y1="7.775806945068482" y2="12.655"/>
            <line class="hi" id="mol1bnd17" stroke="#FF0D0D" x1="33.1" x2="29.48" y1="44.36" y2="40.045"/>
            <line class="hi" id="mol1bnd17" stroke="#FF0D0D" x1="33.1" x2="29.48" y1="44.36" y2="40.045"/>
            <line class="hi" id="mol1bnd18" stroke="#FF0D0D" x1="34.28" x2="32.355000000000004" y1="51.15" y2="56.43"/>
        </g>
          
    </g>
    
</svg>
