<svg xmlns="http://www.w3.org/2000/svg" xmlns:xlink="http://www.w3.org/1999/xlink" height="57.03mm" version="1.2" viewBox="0 0 94.25 57.03" width="94.25mm">
      
    <desc>Generated by the Chemistry Development Kit (http://github.com/cdk)</desc>
      
    <g fill="#3050F8" stroke="#000000" stroke-linecap="round" stroke-linejoin="round" stroke-width=".7">
            
        <rect fill="#FFFFFF" height="58.0" stroke="none" width="95.0" x=".0" y=".0"/>
            
        <g class="mol" id="mol1">
                  
            <line class="bond" id="mol1bnd1" x1="79.85" x2="79.97" y1="10.63" y2="25.87"/>
                  
            <g class="bond" id="mol1bnd2">
                        
                <line x1="93.04" x2="79.97" y1="33.31" y2="25.87"/>
                        
                <line x1="90.62" x2="79.99" y1="34.73" y2="28.69"/>
                      
            </g>
                  
            <line class="bond" id="mol1bnd3" x1="93.04" x2="93.21" y1="33.31" y2="48.37"/>
                  
            <g class="bond" id="mol1bnd4">
                        
                <line x1="80.31" x2="93.21" y1="55.99" y2="48.37"/>
                        
                <line x1="80.25" x2="90.75" y1="53.19" y2="46.98"/>
                      
            </g>
                  
            <line class="bond" id="mol1bnd5" x1="80.31" x2="66.91" y1="55.99" y2="48.72"/>
                  
            <g class="bond" id="mol1bnd6">
                        
                <line x1="67.07" x2="66.91" y1="33.49" y2="48.72"/>
                        
                <line x1="69.49" x2="69.36" y1="34.89" y2="47.28"/>
                      
            </g>
                  
            <line class="bond" id="mol1bnd7" x1="79.97" x2="67.07" y1="25.87" y2="33.49"/>
                  
            <line class="bond" id="mol1bnd8" x1="67.07" x2="57.02" y1="33.49" y2="27.69"/>
                  
            <line class="bond" id="mol1bnd9" x1="53.87" x2="53.87" y1="22.02" y2="10.63"/>
                  
            <g class="bond" id="mol1bnd10">
                        
                <line x1="53.87" x2="43.82" y1="10.63" y2="4.83"/>
                        
                <line x1="51.43" x2="42.6" y1="12.04" y2="6.94"/>
                      
                <line class="hi" stroke="#3050F8" x1="43.82" x2="48.845" y1="4.83" y2="7.73"/>
                <line class="hi" stroke="#3050F8" x1="42.6" x2="47.015" y1="6.94" y2="9.49"/>
            </g>
                  
            <line class="bond" id="mol1bnd11" x1="37.51" x2="27.45" y1="4.83" y2="10.63"/>
                  
            <g class="bond" id="mol1bnd12">
                        
                <line x1="27.45" x2="14.25" y1="10.63" y2="3.01"/>
                        
                <line x1="25.02" x2="14.25" y1="12.04" y2="5.82"/>
                      
            </g>
                  
            <line class="bond" id="mol1bnd13" x1="14.25" x2="1.04" y1="3.01" y2="10.63"/>
                  
            <g class="bond" id="mol1bnd14">
                        
                <line x1="1.04" x2="1.04" y1="10.63" y2="25.87"/>
                        
                <line x1="3.48" x2="3.48" y1="12.04" y2="24.46"/>
                      
            </g>
                  
            <line class="bond" id="mol1bnd15" x1="1.04" x2="14.25" y1="25.87" y2="33.49"/>
                  
            <g class="bond" id="mol1bnd16">
                        
                <line x1="14.25" x2="27.45" y1="33.49" y2="25.87"/>
                        
                <line x1="14.25" x2="25.02" y1="30.67" y2="24.46"/>
                      
            </g>
                  
            <line class="bond" id="mol1bnd17" x1="27.45" x2="27.45" y1="10.63" y2="25.87"/>
                  
            <line class="bond" id="mol1bnd18" x1="27.45" x2="40.66" y1="25.87" y2="33.49"/>
                  
            <line class="bond" id="mol1bnd19" x1="50.72" x2="40.66" y1="27.69" y2="33.49"/>
                  
            <g class="bond" id="mol1bnd20">
                        
                <line x1="41.88" x2="41.88" y1="32.79" y2="44.81"/>
                        
                <line x1="39.44" x2="39.44" y1="32.79" y2="44.81"/>
                      
                <line class="hi" stroke="#FF0D0D" x1="41.88" x2="41.88" y1="44.81" y2="38.8"/>
                <line class="hi" stroke="#FF0D0D" x1="39.44" x2="39.44" y1="44.81" y2="38.8"/>
            </g>
                  
            <line class="bond" id="mol1bnd21" x1="53.87" x2="67.07" y1="10.63" y2="3.01"/>
                  
            <path class="atom" d="M55.81 28.32h-.72l-2.62 -4.07h-.03q.01 .24 .03 .6q.02 .36 .02 .73v2.74h-.57v-4.9h.71l2.61 4.05h.03q-.01 -.11 -.02 -.33q-.01 -.22 -.02 -.48q-.01 -.26 -.01 -.48v-2.77h.58v4.9z" id="mol1atm8" stroke="none"/>
                  
            <path class="atom" d="M42.6 5.46h-.72l-2.62 -4.07h-.03q.01 .24 .03 .6q.02 .36 .02 .73v2.74h-.57v-4.9h.71l2.61 4.05h.03q-.01 -.11 -.02 -.33q-.01 -.22 -.02 -.48q-.01 -.26 -.01 -.48v-2.77h.58v4.9z" id="mol1atm10" stroke="none"/>
                  
            <path class="atom" d="M42.92 48.73q.0 .76 -.26 1.33q-.26 .57 -.76 .88q-.5 .32 -1.24 .32q-.76 .0 -1.26 -.32q-.51 -.32 -.76 -.89q-.24 -.57 -.24 -1.33q.0 -.75 .24 -1.31q.25 -.57 .76 -.88q.51 -.32 1.27 -.32q.73 .0 1.23 .32q.5 .31 .76 .88q.26 .57 .26 1.33zM39.06 48.73q.0 .92 .39 1.46q.39 .53 1.22 .53q.84 .0 1.22 -.53q.39 -.54 .39 -1.46q.0 -.93 -.39 -1.45q-.38 -.52 -1.21 -.52q-.83 .0 -1.23 .52q-.39 .52 -.39 1.45z" fill="#FF0D0D" id="mol1atm18" stroke="none"/>
                
            <line class="hi" id="mol1bnd8" stroke="#3050F8" x1="57.02" x2="62.045" y1="27.69" y2="30.590000000000003"/>
            <line class="hi" id="mol1bnd9" stroke="#3050F8" x1="53.87" x2="53.87" y1="22.02" y2="16.325"/>
            <line class="hi" id="mol1bnd11" stroke="#3050F8" x1="37.51" x2="32.48" y1="4.83" y2="7.73"/>
            <line class="hi" id="mol1bnd19" stroke="#3050F8" x1="50.72" x2="45.69" y1="27.69" y2="30.590000000000003"/>
        </g>
          
    </g>
    
</svg>
