<svg xmlns="http://www.w3.org/2000/svg" xmlns:xlink="http://www.w3.org/1999/xlink" height="80.32mm" version="1.2" viewBox="0 0 81.29 80.32" width="81.29mm">
      
    <desc>Generated by the Chemistry Development Kit (http://github.com/cdk)</desc>
      
    <g fill="#FF0D0D" stroke="#000000" stroke-linecap="round" stroke-linejoin="round" stroke-width=".7">
            
        <rect fill="#FFFFFF" height="81.0" stroke="none" width="82.0" x=".0" y=".0"/>
            
        <g class="mol" id="mol1">
                  
            <line class="bond" id="mol1bnd1" x1="80.25" x2="70.33" y1="25.95" y2="31.68"/>
                  
            <line class="bond" id="mol1bnd2" x1="63.76" x2="53.85" y1="31.67" y2="25.95"/>
                  
            <g class="bond" id="mol1bnd3">
                        
                <line x1="52.63" x2="52.63" y1="26.65" y2="14.63"/>
                        
                <line x1="55.07" x2="55.07" y1="26.65" y2="14.63"/>
                      
                <line class="hi" stroke="#FF0D0D" x1="52.63" x2="52.63" y1="14.63" y2="20.64"/>
                <line class="hi" stroke="#FF0D0D" x1="55.07" x2="55.07" y1="14.63" y2="20.64"/>
            </g>
                  
            <line class="bond" id="mol1bnd4" x1="53.85" x2="40.65" y1="25.95" y2="33.56"/>
                  
            <line class="bond" id="mol1bnd5" x1="40.65" x2="27.45" y1="33.56" y2="25.94"/>
                  
            <line class="bond" id="mol1bnd6" x1="27.45" x2="27.45" y1="25.94" y2="10.7"/>
                  
            <line class="bond" id="mol1bnd7" x1="27.45" x2="17.52" y1="10.7" y2="4.97"/>
                  
            <line class="bond" id="mol1bnd8" x1="10.96" x2="1.04" y1="4.97" y2="10.7"/>
                  
            <line class="bond" id="mol1bnd9" x1="1.04" x2="1.04" y1="10.7" y2="25.94"/>
                  
            <line class="bond" id="mol1bnd10" x1="1.04" x2="11.09" y1="25.94" y2="31.74"/>
                  
            <line class="bond" id="mol1bnd11" x1="27.45" x2="17.4" y1="25.94" y2="31.74"/>
                  
            <line class="bond" id="mol1bnd12" x1="40.65" x2="40.65" y1="33.56" y2="48.8"/>
                  
            <g class="bond" id="mol1bnd13">
                        
                <line x1="53.86" x2="40.65" y1="56.43" y2="48.8"/>
                        
                <line x1="51.42" x2="40.65" y1="57.83" y2="51.62"/>
                      
            </g>
                  
            <line class="bond" id="mol1bnd14" x1="53.86" x2="53.85" y1="56.43" y2="71.67"/>
                  
            <g class="bond" id="mol1bnd15">
                        
                <line x1="40.64" x2="53.85" y1="79.28" y2="71.67"/>
                        
                <line x1="40.64" x2="51.41" y1="76.47" y2="70.26"/>
                      
            </g>
                  
            <line class="bond" id="mol1bnd16" x1="40.64" x2="27.44" y1="79.28" y2="71.66"/>
                  
            <g class="bond" id="mol1bnd17">
                        
                <line x1="27.44" x2="27.44" y1="56.42" y2="71.66"/>
                        
                <line x1="29.88" x2="29.88" y1="57.83" y2="70.25"/>
                      
            </g>
                  
            <line class="bond" id="mol1bnd18" x1="40.65" x2="27.44" y1="48.8" y2="56.42"/>
                  
            <path class="atom" d="M69.31 33.56q.0 .76 -.26 1.33q-.26 .57 -.76 .88q-.5 .32 -1.24 .32q-.76 .0 -1.26 -.32q-.51 -.32 -.76 -.89q-.24 -.57 -.24 -1.33q.0 -.75 .24 -1.31q.25 -.57 .76 -.88q.51 -.32 1.27 -.32q.73 .0 1.23 .32q.5 .31 .76 .88q.26 .57 .26 1.33zM65.44 33.56q.0 .92 .39 1.46q.39 .53 1.22 .53q.84 .0 1.22 -.53q.39 -.54 .39 -1.46q.0 -.93 -.39 -1.45q-.38 -.52 -1.21 -.52q-.83 .0 -1.23 .52q-.39 .52 -.39 1.45z" id="mol1atm2" stroke="none"/>
                  
            <path class="atom" d="M56.11 10.7q.0 .76 -.26 1.33q-.26 .57 -.76 .88q-.5 .32 -1.24 .32q-.76 .0 -1.26 -.32q-.51 -.32 -.76 -.89q-.24 -.57 -.24 -1.33q.0 -.75 .24 -1.31q.25 -.57 .76 -.88q.51 -.32 1.27 -.32q.73 .0 1.23 .32q.5 .31 .76 .88q.26 .57 .26 1.33zM52.25 10.7q.0 .92 .39 1.46q.39 .53 1.22 .53q.84 .0 1.22 -.53q.39 -.54 .39 -1.46q.0 -.93 -.39 -1.45q-.38 -.52 -1.21 -.52q-.83 .0 -1.23 .52q-.39 .52 -.39 1.45z" id="mol1atm4" stroke="none"/>
                  
            <path class="atom" d="M16.51 3.08q.0 .76 -.26 1.33q-.26 .57 -.76 .88q-.5 .32 -1.24 .32q-.76 .0 -1.26 -.32q-.51 -.32 -.76 -.89q-.24 -.57 -.24 -1.33q.0 -.75 .24 -1.31q.25 -.57 .76 -.88q.51 -.32 1.27 -.32q.73 .0 1.23 .32q.5 .31 .76 .88q.26 .57 .26 1.33zM12.64 3.08q.0 .92 .39 1.46q.39 .53 1.22 .53q.84 .0 1.22 -.53q.39 -.54 .39 -1.46q.0 -.93 -.39 -1.45q-.38 -.52 -1.21 -.52q-.83 .0 -1.23 .52q-.39 .52 -.39 1.45z" id="mol1atm8" stroke="none"/>
                  
            <g class="atom" id="mol1atm11">
                        
                <path d="M16.19 36.01h-.72l-2.62 -4.07h-.03q.01 .24 .03 .6q.02 .36 .02 .73v2.74h-.57v-4.9h.71l2.61 4.05h.03q-.01 -.11 -.02 -.33q-.01 -.22 -.02 -.48q-.01 -.26 -.01 -.48v-2.77h.58v4.9z" fill="#3050F8" stroke="none"/>
                        
                <path d="M16.05 41.47h-.62v-2.29h-2.51v2.29h-.61v-4.9h.61v2.07h2.51v-2.07h.62v4.9z" fill="#3050F8" stroke="none"/>
                      
            </g>
                
            <line class="hi" id="mol1bnd1" stroke="#FF0D0D" x1="70.33" x2="75.28999999999999" y1="31.68" y2="28.814999999999998"/>
            <line class="hi" id="mol1bnd2" stroke="#FF0D0D" x1="63.76" x2="58.805" y1="31.67" y2="28.810000000000002"/>
            <line class="hi" id="mol1bnd7" stroke="#FF0D0D" x1="17.52" x2="22.485" y1="4.97" y2="7.834999999999999"/>
            <line class="hi" id="mol1bnd8" stroke="#FF0D0D" x1="10.96" x2="6.0" y1="4.97" y2="7.834999999999999"/>
            <line class="hi" id="mol1bnd10" stroke="#3050F8" x1="11.09" x2="6.0649999999999995" y1="31.74" y2="28.84"/>
            <line class="hi" id="mol1bnd11" stroke="#3050F8" x1="17.4" x2="22.424999999999997" y1="31.74" y2="28.84"/>
        </g>
          
    </g>
    
</svg>
