<svg xmlns="http://www.w3.org/2000/svg" xmlns:xlink="http://www.w3.org/1999/xlink" height="51.41mm" version="1.2" viewBox="0 0 85.08 51.41" width="85.08mm">
      
    <desc>Generated by the Chemistry Development Kit (http://github.com/cdk)</desc>
      
    <g fill="#3050F8" stroke="#000000" stroke-linecap="round" stroke-linejoin="round" stroke-width=".7">
            
        <rect fill="#FFFFFF" height="52.0" stroke="none" width="86.0" x=".0" y=".0"/>
            
        <g class="mol" id="mol1">
                  
            <g class="bond" id="mol1bnd1">
                        
                <line x1="38.15" x2="38.82" y1="16.28" y2="16.08"/>
                        
                <line x1="37.13" x2="38.35" y1="13.94" y2="13.56"/>
                        
                <line x1="36.1" x2="37.88" y1="11.6" y2="11.05"/>
                        
                <line x1="35.07" x2="37.41" y1="9.26" y2="8.54"/>
                        
                <line x1="34.04" x2="36.94" y1="6.92" y2="6.02"/>
                        
                <line x1="33.01" x2="36.47" y1="4.58" y2="3.51"/>
                        
                <line x1="31.98" x2="36.0" y1="2.24" y2="1.0"/>
                      
            </g>
                  
            <line class="bond" id="mol1bnd2" x1="38.49" x2="27.37" y1="16.18" y2="26.59"/>
                  
            <g class="bond" id="mol1bnd3">
                        
                <line x1="27.37" x2="13.64" y1="26.59" y2="19.97"/>
                        
                <line x1="25.04" x2="13.85" y1="28.17" y2="22.78"/>
                      
            </g>
                  
            <line class="bond" id="mol1bnd4" x1="13.64" x2="1.05" y1="19.97" y2="28.55"/>
                  
            <g class="bond" id="mol1bnd5">
                        
                <line x1="1.05" x2="2.19" y1="28.55" y2="43.75"/>
                        
                <line x1="3.58" x2="4.51" y1="29.77" y2="42.17"/>
                      
            </g>
                  
            <line class="bond" id="mol1bnd6" x1="2.19" x2="15.92" y1="43.75" y2="50.36"/>
                  
            <g class="bond" id="mol1bnd7">
                        
                <line x1="15.92" x2="28.51" y1="50.36" y2="41.77"/>
                        
                <line x1="15.71" x2="25.97" y1="47.55" y2="40.55"/>
                      
            </g>
                  
            <line class="bond" id="mol1bnd8" x1="27.37" x2="28.51" y1="26.59" y2="41.77"/>
                  
            <line class="bond" id="mol1bnd9" x1="28.51" x2="41.08" y1="41.77" y2="50.34"/>
                  
            <line class="bond" id="mol1bnd10" x1="41.08" x2="55.61" y1="50.34" y2="45.83"/>
                  
            <g class="bond" id="mol1bnd11">
                        
                <line stroke="#000000" x1="55.27" x2="55.94" y1="45.94" y2="45.72"/>
                        
                <line stroke="#3050F8" x1="54.4" x2="55.48" y1="43.94" y2="43.59"/>
                        
                <line stroke="#3050F8" x1="53.53" x2="55.03" y1="41.94" y2="41.46"/>
                        
                <line stroke="#3050F8" x1="52.66" x2="54.57" y1="39.94" y2="39.33"/>
                        
                <line stroke="#3050F8" x1="51.78" x2="54.12" y1="37.94" y2="37.19"/>
                        
                <line stroke="#3050F8" x1="50.91" x2="53.66" y1="35.95" y2="35.06"/>
                        
                <line stroke="#3050F8" x1="50.04" x2="53.2" y1="33.95" y2="32.93"/>
                      
            </g>
                  
            <line class="bond" id="mol1bnd12" x1="38.49" x2="47.41" y1="16.18" y2="26.11"/>
                  
            <line class="bond" id="mol1bnd13" x1="55.61" x2="61.18" y1="45.83" y2="31.7"/>
                  
            <g class="bond" id="mol1bnd14">
                        
                <line x1="61.18" x2="76.42" y1="31.7" y2="31.7"/>
                        
                <line x1="62.59" x2="75.01" y1="29.27" y2="29.27"/>
                      
                <line class="hi" stroke="#3050F8" x1="61.18" x2="68.8" y1="31.7" y2="31.7"/>
                <line class="hi" stroke="#3050F8" x1="62.59" x2="68.80000000000001" y1="29.27" y2="29.27"/>
            </g>
                  
            <line class="bond" id="mol1bnd15" x1="76.42" x2="84.04" y1="31.7" y2="18.51"/>
                  
            <g class="bond" id="mol1bnd16">
                        
                <line x1="84.04" x2="76.42" y1="18.51" y2="5.31"/>
                        
                <line x1="81.22" x2="75.01" y1="18.51" y2="7.75"/>
                      
            </g>
                  
            <line class="bond" id="mol1bnd17" x1="76.42" x2="61.18" y1="5.31" y2="5.31"/>
                  
            <g class="bond" id="mol1bnd18">
                        
                <line x1="61.18" x2="53.56" y1="5.31" y2="18.51"/>
                        
                <line x1="62.59" x2="56.37" y1="7.75" y2="18.51"/>
                      
            </g>
                  
            <line class="bond" id="mol1bnd19" x1="38.49" x2="53.56" y1="16.18" y2="18.51"/>
                  
            <line class="bond" id="mol1bnd20" x1="61.18" x2="53.56" y1="31.7" y2="18.51"/>
                  
            <g class="atom" id="mol1atm11">
                        
                <path d="M52.23 31.76h-.72l-2.62 -4.07h-.03q.01 .24 .03 .6q.02 .36 .02 .73v2.74h-.57v-4.9h.71l2.61 4.05h.03q-.01 -.11 -.02 -.33q-.01 -.22 -.02 -.48q-.01 -.26 -.01 -.48v-2.77h.58v4.9z" stroke="none"/>
                        
                <path d="M56.54 31.76h-.62v-2.29h-2.51v2.29h-.61v-4.9h.61v2.07h2.51v-2.07h.62v4.9z" stroke="none"/>
                      
            </g>
                
            <line class="hi" id="mol1bnd12" stroke="#3050F8" x1="47.41" x2="42.95" y1="26.11" y2="21.145"/>
            <line class="hi" id="mol1bnd13" stroke="#3050F8" x1="60.53548542624516" x2="58.394999999999996" y1="33.33500734778383" y2="38.765"/>
            <line class="hi" id="mol1bnd20" stroke="#3050F8" x1="60.04490354916491" x2="57.370000000000005" y1="29.735180815417998" y2="25.105"/>
        </g>
          
    </g>
    
</svg>
