<svg xmlns="http://www.w3.org/2000/svg" xmlns:xlink="http://www.w3.org/1999/xlink" height="82.08mm" version="1.2" viewBox="0 0 81.06 82.08" width="81.06mm">
      
    <desc>Generated by the Chemistry Development Kit (http://github.com/cdk)</desc>
      
    <g fill="#FF0D0D" stroke="#000000" stroke-linecap="round" stroke-linejoin="round" stroke-width=".7">
            
        <rect fill="#FFFFFF" height="83.0" stroke="none" width="82.0" x=".0" y=".0"/>
            
        <g class="mol" id="mol1">
                  
            <g class="bond" id="mol1bnd1">
                        
                <line x1="46.7" x2="33.5" y1="10.25" y2="2.74"/>
                        
                <line x1="44.28" x2="33.52" y1="11.68" y2="5.56"/>
                      
            </g>
                  
            <line class="bond" id="mol1bnd2" x1="33.5" x2="20.4" y1="2.74" y2="10.56"/>
                  
            <line class="bond" id="mol1bnd3" x1="20.4" x2="10.42" y1="10.56" y2="4.94"/>
                  
            <g class="bond" id="mol1bnd4">
                        
                <line x1="20.4" x2="20.5" y1="10.56" y2="25.79"/>
                        
                <line x1="22.84" x2="22.93" y1="11.94" y2="24.36"/>
                      
            </g>
                  
            <line class="bond" id="mol1bnd5" x1="20.5" x2="33.8" y1="25.79" y2="33.3"/>
                  
            <g class="bond" id="mol1bnd6">
                        
                <line x1="33.65" x2="34.35" y1="48.54" y2="48.53"/>
                        
                <line x1="33.33" x2="34.61" y1="46.0" y2="45.99"/>
                        
                <line x1="33.0" x2="34.87" y1="43.47" y2="43.44"/>
                        
                <line x1="32.68" x2="35.13" y1="40.93" y2="40.9"/>
                        
                <line x1="32.35" x2="35.38" y1="38.4" y2="38.36"/>
                        
                <line x1="32.03" x2="35.64" y1="35.87" y2="35.82"/>
                        
                <line x1="31.7" x2="35.9" y1="33.33" y2="33.27"/>
                      
            </g>
                  
            <line class="bond" id="mol1bnd7" x1="34.0" x2="20.8" y1="48.53" y2="56.15"/>
                  
            <g class="bond" id="mol1bnd8">
                        
                <line stroke="#000000" x1="20.55" x2="21.06" y1="56.39" y2="55.91"/>
                        
                <line stroke="#FF0D0D" x1="18.89" x2="19.65" y1="54.9" y2="54.17"/>
                        
                <line stroke="#FF0D0D" x1="17.23" x2="18.24" y1="53.4" y2="52.44"/>
                        
                <line stroke="#FF0D0D" x1="15.57" x2="16.84" y1="51.91" y2="50.7"/>
                        
                <line stroke="#FF0D0D" x1="13.91" x2="15.43" y1="50.41" y2="48.97"/>
                        
                <line stroke="#FF0D0D" x1="12.25" x2="14.02" y1="48.92" y2="47.23"/>
                        
                <line stroke="#FF0D0D" x1="10.59" x2="12.62" y1="47.43" y2="45.5"/>
                        
                <line stroke="#FF0D0D" x1="8.93" x2="11.21" y1="45.93" y2="43.76"/>
                        
                <line stroke="#FF0D0D" x1="7.27" x2="9.81" y1="44.44" y2="42.03"/>
                      
            </g>
                  
            <line class="bond" id="mol1bnd9" x1="20.5" x2="8.31" y1="25.79" y2="37.32"/>
                  
            <line class="bond" id="mol1bnd10" x1="20.8" x2="20.8" y1="56.15" y2="71.38"/>
                  
            <g class="bond" id="mol1bnd11">
                        
                <line stroke="#000000" x1="20.98" x2="20.63" y1="71.68" y2="71.08"/>
                        
                <line stroke="#FF0D0D" x1="18.93" x2="18.28" y1="73.21" y2="72.1"/>
                        
                <line stroke="#FF0D0D" x1="16.87" x2="15.94" y1="74.73" y2="73.11"/>
                        
                <line stroke="#FF0D0D" x1="14.82" x2="13.59" y1="76.25" y2="74.13"/>
                        
                <line stroke="#FF0D0D" x1="12.77" x2="11.25" y1="77.77" y2="75.15"/>
                      
            </g>
                  
            <line class="bond" id="mol1bnd12" x1="20.8" x2="34.0" y1="71.38" y2="79.0"/>
                  
            <g class="bond" id="mol1bnd13">
                        
                <line x1="34.0" x2="47.2" y1="79.0" y2="71.38"/>
                        
                <line x1="34.0" x2="44.77" y1="76.18" y2="69.97"/>
                      
            </g>
                  
            <g class="bond" id="mol1bnd14">
                        
                <line x1="46.9" x2="47.51" y1="56.32" y2="55.97"/>
                        
                <line x1="46.65" x2="47.76" y1="59.01" y2="58.37"/>
                        
                <line x1="46.4" x2="48.01" y1="61.69" y2="60.76"/>
                        
                <line x1="46.14" x2="48.27" y1="64.38" y2="63.15"/>
                        
                <line x1="45.89" x2="48.52" y1="67.06" y2="65.55"/>
                        
                <line x1="45.64" x2="48.77" y1="69.75" y2="67.94"/>
                        
                <line x1="45.38" x2="49.02" y1="72.43" y2="70.33"/>
                      
            </g>
                  
            <line class="bond" id="mol1bnd15" x1="34.0" x2="47.2" y1="48.53" y2="56.15"/>
                  
            <line class="bond" id="mol1bnd16" x1="47.2" x2="60.3" y1="56.15" y2="48.33"/>
                  
            <line class="bond" id="mol1bnd17" x1="60.3" x2="60.2" y1="48.33" y2="33.1"/>
                  
            <line class="bond" id="mol1bnd18" x1="60.2" x2="46.9" y1="33.1" y2="25.48"/>
                  
            <line class="bond" id="mol1bnd19" x1="46.7" x2="46.9" y1="10.25" y2="25.48"/>
                  
            <g class="bond" id="mol1bnd20">
                        
                <line x1="33.8" x2="46.9" y1="33.3" y2="25.48"/>
                        
                <line x1="33.77" x2="44.44" y1="30.48" y2="24.11"/>
                      
            </g>
                  
            <path class="bond" d="M60.47 48.03l-.34 .61l9.59 6.91l.83 -1.47l.83 -1.47z" fill="#000000" id="mol1bnd21" stroke="none"/>
                  
            <line class="bond" id="mol1bnd22" x1="75.41" x2="80.04" y1="59.57" y2="69.7"/>
                  
            <line class="bond" id="mol1bnd23" x1="73.63" x2="73.4" y1="52.0" y2="40.51"/>
                  
            <line class="bond" id="mol1bnd24" x1="73.4" x2="46.9" y1="40.51" y2="40.61"/>
                  
            <path class="bond" d="M33.82 48.24l.37 .6l18.27 -8.59l-4.99 .02l-3.39 .01z" fill="#000000" id="mol1bnd25" stroke="none"/>
                  
            <g class="atom" id="mol1atm4">
                        
                <path d="M9.38 3.08q.0 .76 -.26 1.33q-.26 .57 -.76 .88q-.5 .32 -1.24 .32q-.76 .0 -1.26 -.32q-.51 -.32 -.76 -.89q-.24 -.57 -.24 -1.33q.0 -.75 .24 -1.31q.25 -.57 .76 -.88q.51 -.32 1.27 -.32q.73 .0 1.23 .32q.5 .31 .76 .88q.26 .57 .26 1.33zM5.52 3.08q.0 .92 .39 1.46q.39 .53 1.22 .53q.84 .0 1.22 -.53q.39 -.54 .39 -1.46q.0 -.93 -.39 -1.45q-.38 -.52 -1.21 -.52q-.83 .0 -1.23 .52q-.39 .52 -.39 1.45z" stroke="none"/>
                        
                <path d="M4.3 5.53h-.62v-2.29h-2.51v2.29h-.61v-4.9h.61v2.07h2.51v-2.07h.62v4.9z" stroke="none"/>
                      
            </g>
                  
            <path class="atom" d="M7.73 40.0q.0 .76 -.26 1.33q-.26 .57 -.76 .88q-.5 .32 -1.24 .32q-.76 .0 -1.26 -.32q-.51 -.32 -.76 -.89q-.24 -.57 -.24 -1.33q.0 -.75 .24 -1.31q.25 -.57 .76 -.88q.51 -.32 1.27 -.32q.73 .0 1.23 .32q.5 .31 .76 .88q.26 .57 .26 1.33zM3.87 40.0q.0 .92 .39 1.46q.39 .53 1.22 .53q.84 .0 1.22 -.53q.39 -.54 .39 -1.46q.0 -.93 -.39 -1.45q-.38 -.52 -1.21 -.52q-.83 .0 -1.23 .52q-.39 .52 -.39 1.45z" id="mol1atm9" stroke="none"/>
                  
            <g class="atom" id="mol1atm11">
                        
                <path d="M9.87 79.0q.0 .76 -.26 1.33q-.26 .57 -.76 .88q-.5 .32 -1.24 .32q-.76 .0 -1.26 -.32q-.51 -.32 -.76 -.89q-.24 -.57 -.24 -1.33q.0 -.75 .24 -1.31q.25 -.57 .76 -.88q.51 -.32 1.27 -.32q.73 .0 1.23 .32q.5 .31 .76 .88q.26 .57 .26 1.33zM6.01 79.0q.0 .92 .39 1.46q.39 .53 1.22 .53q.84 .0 1.22 -.53q.39 -.54 .39 -1.46q.0 -.93 -.39 -1.45q-.38 -.52 -1.21 -.52q-.83 .0 -1.23 .52q-.39 .52 -.39 1.45z" stroke="none"/>
                        
                <path d="M4.79 81.45h-.62v-2.29h-2.51v2.29h-.61v-4.9h.61v2.07h2.51v-2.07h.62v4.9z" stroke="none"/>
                      
            </g>
                  
            <path class="atom" d="M75.65 58.29h-.72l-2.62 -4.07h-.03q.01 .24 .03 .6q.02 .36 .02 .73v2.74h-.57v-4.9h.71l2.61 4.05h.03q-.01 -.11 -.02 -.33q-.01 -.22 -.02 -.48q-.01 -.26 -.01 -.48v-2.77h.58v4.9z" fill="#3050F8" id="mol1atm18" stroke="none"/>
                
            <line class="hi" id="mol1bnd3" stroke="#FF0D0D" x1="10.42" x2="15.41" y1="4.94" y2="7.75"/>
            <line class="hi" id="mol1bnd3" stroke="#FF0D0D" x1="10.42" x2="15.41" y1="4.94" y2="7.75"/>
            <line class="hi" id="mol1bnd9" stroke="#FF0D0D" x1="8.31" x2="14.405000000000001" y1="37.32" y2="31.555"/>
            <line class="hi" id="mol1bnd22" stroke="#3050F8" x1="75.41" x2="77.725" y1="59.57" y2="64.635"/>
            <line class="hi" id="mol1bnd23" stroke="#3050F8" x1="73.63" x2="73.515" y1="52.0" y2="46.254999999999995"/>
        </g>
          
    </g>
    
</svg>
