<svg xmlns="http://www.w3.org/2000/svg" xmlns:xlink="http://www.w3.org/1999/xlink" height="101.1mm" version="1.2" viewBox="0 0 134.01 101.1" width="134.01mm">
      
    <desc>Generated by the Chemistry Development Kit (http://github.com/cdk)</desc>
      
    <g fill="#3050F8" stroke="#000000" stroke-linecap="round" stroke-linejoin="round" stroke-width=".7">
            
        <rect fill="#FFFFFF" height="102.0" stroke="none" width="135.0" x=".0" y=".0"/>
            
        <g class="mol" id="mol1">
                  
            <line class="bond" id="mol1bnd1" x1="1.05" x2="1.04" y1="92.44" y2="77.2"/>
                  
            <line class="bond" id="mol1bnd2" x1="1.04" x2="14.23" y1="77.2" y2="69.58"/>
                  
            <line class="bond" id="mol1bnd3" x1="14.23" x2="27.42" y1="69.58" y2="77.2"/>
                  
            <line class="bond" id="mol1bnd4" x1="27.42" x2="27.43" y1="77.2" y2="92.44"/>
                  
            <line class="bond" id="mol1bnd5" x1="27.43" x2="14.24" y1="92.44" y2="100.06"/>
                  
            <line class="bond" id="mol1bnd6" x1="1.05" x2="14.24" y1="92.44" y2="100.06"/>
                  
            <line class="bond" id="mol1bnd7" x1="27.42" x2="37.46" y1="77.2" y2="71.4"/>
                  
            <line class="bond" id="mol1bnd8" x1="43.77" x2="53.82" y1="71.4" y2="77.2"/>
                  
            <line class="bond" id="mol1bnd9" x1="53.82" x2="67.02" y1="77.2" y2="69.58"/>
                  
            <line class="bond" id="mol1bnd10" x1="67.02" x2="67.02" y1="69.58" y2="58.2"/>
                  
            <line class="bond" id="mol1bnd11" x1="63.86" x2="53.82" y1="52.53" y2="46.73"/>
                  
            <line class="bond" id="mol1bnd12" x1="53.82" x2="40.61" y1="46.73" y2="54.35"/>
                  
            <line class="bond" id="mol1bnd13" x1="40.61" x2="40.61" y1="65.73" y2="54.35"/>
                  
            <line class="bond" id="mol1bnd14" x1="70.17" x2="80.21" y1="52.53" y2="46.73"/>
                  
            <line class="bond" id="mol1bnd15" x1="80.21" x2="93.4" y1="46.73" y2="54.35"/>
                  
            <line class="bond" id="mol1bnd16" x1="93.4" x2="106.59" y1="54.35" y2="46.73"/>
                  
            <g class="bond" id="mol1bnd17">
                        
                <line x1="106.58" x2="106.59" y1="31.49" y2="46.73"/>
                        
                <line x1="109.02" x2="109.03" y1="32.9" y2="45.32"/>
                      
            </g>
                  
            <line class="bond" id="mol1bnd18" x1="106.58" x2="119.77" y1="31.49" y2="23.87"/>
                  
            <g class="bond" id="mol1bnd19">
                        
                <line x1="132.97" x2="119.77" y1="31.49" y2="23.87"/>
                        
                <line x1="130.53" x2="119.77" y1="32.9" y2="26.69"/>
                      
            </g>
                  
            <line class="bond" id="mol1bnd20" x1="132.97" x2="132.97" y1="31.49" y2="46.73"/>
                  
            <g class="bond" id="mol1bnd21">
                        
                <line x1="119.78" x2="132.97" y1="54.35" y2="46.73"/>
                        
                <line x1="119.78" x2="130.53" y1="51.53" y2="45.33"/>
                      
            </g>
                  
            <line class="bond" id="mol1bnd22" x1="106.59" x2="119.78" y1="46.73" y2="54.35"/>
                  
            <line class="bond" id="mol1bnd23" x1="80.21" x2="80.2" y1="46.73" y2="31.5"/>
                  
            <g class="bond" id="mol1bnd24">
                        
                <line x1="67.0" x2="80.2" y1="23.89" y2="31.5"/>
                        
                <line x1="69.44" x2="80.2" y1="22.48" y2="28.69"/>
                      
            </g>
                  
            <line class="bond" id="mol1bnd25" x1="67.0" x2="67.0" y1="23.89" y2="8.66"/>
                  
            <g class="bond" id="mol1bnd26">
                        
                <line x1="80.2" x2="67.0" y1="1.04" y2="8.66"/>
                        
                <line x1="80.2" x2="69.44" y1="3.85" y2="10.06"/>
                      
            </g>
                  
            <line class="bond" id="mol1bnd27" x1="80.2" x2="93.4" y1="1.04" y2="8.65"/>
                  
            <g class="bond" id="mol1bnd28">
                        
                <line x1="93.4" x2="93.4" y1="23.88" y2="8.65"/>
                        
                <line x1="90.96" x2="90.96" y1="22.48" y2="10.06"/>
                      
            </g>
                  
            <line class="bond" id="mol1bnd29" x1="80.2" x2="93.4" y1="31.5" y2="23.88"/>
                  
            <path class="atom" d="M42.56 72.03h-.72l-2.62 -4.07h-.03q.01 .24 .03 .6q.02 .36 .02 .73v2.74h-.57v-4.9h.71l2.61 4.05h.03q-.01 -.11 -.02 -.33q-.01 -.22 -.02 -.48q-.01 -.26 -.01 -.48v-2.77h.58v4.9z" id="mol1atm7" stroke="none"/>
                  
            <path class="atom" d="M68.96 56.8h-.72l-2.62 -4.07h-.03q.01 .24 .03 .6q.02 .36 .02 .73v2.74h-.57v-4.9h.71l2.61 4.05h.03q-.01 -.11 -.02 -.33q-.01 -.22 -.02 -.48q-.01 -.26 -.01 -.48v-2.77h.58v4.9z" id="mol1atm10" stroke="none"/>
                
            <line class="hi" id="mol1bnd7" stroke="#3050F8" x1="37.46" x2="32.44" y1="71.4" y2="74.30000000000001"/>
            <line class="hi" id="mol1bnd8" stroke="#3050F8" x1="43.77" x2="48.795" y1="71.4" y2="74.30000000000001"/>
            <line class="hi" id="mol1bnd10" stroke="#3050F8" x1="67.02" x2="67.02" y1="58.2" y2="63.89"/>
            <line class="hi" id="mol1bnd11" stroke="#3050F8" x1="63.86" x2="58.84" y1="52.53" y2="49.629999999999995"/>
            <line class="hi" id="mol1bnd13" stroke="#3050F8" x1="40.61" x2="40.61" y1="65.73" y2="60.040000000000006"/>
            <line class="hi" id="mol1bnd14" stroke="#3050F8" x1="70.17" x2="75.19" y1="52.53" y2="49.629999999999995"/>
        </g>
          
    </g>
    
</svg>
