<svg xmlns="http://www.w3.org/2000/svg" xmlns:xlink="http://www.w3.org/1999/xlink" height="171.1mm" version="1.2" viewBox="0 0 116.25 171.1" width="116.25mm">
      
    <desc>Generated by the Chemistry Development Kit (http://github.com/cdk)</desc>
      
    <g fill="#FF0D0D" stroke="#000000" stroke-linecap="round" stroke-linejoin="round" stroke-width=".7">
            
        <rect fill="#FFFFFF" height="172.0" stroke="none" width="117.0" x=".0" y=".0"/>
            
        <g class="mol" id="mol1">
                  
            <line class="bond" id="mol1bnd1" x1="115.23" x2="110.6" y1="113.09" y2="102.96"/>
                  
            <line class="bond" id="mol1bnd2" x1="108.82" x2="108.6" y1="95.39" y2="83.9"/>
                  
            <line class="bond" id="mol1bnd3" x1="108.6" x2="82.09" y1="83.9" y2="84.0"/>
                  
            <path class="bond" d="M69.01 91.63l.37 .6l18.27 -8.59l-4.99 .02l-3.39 .01z" fill="#000000" id="mol1bnd4" stroke="none"/>
                  
            <line class="bond" id="mol1bnd5" x1="69.2" x2="82.4" y1="91.92" y2="99.54"/>
                  
            <line class="bond" id="mol1bnd6" x1="82.4" x2="95.5" y1="99.54" y2="91.72"/>
                  
            <path class="bond" d="M95.67 91.42l-.34 .61l9.59 6.91l.83 -1.47l.83 -1.47z" fill="#000000" id="mol1bnd7" stroke="none"/>
                  
            <line class="bond" id="mol1bnd8" x1="95.5" x2="95.39" y1="91.72" y2="76.49"/>
                  
            <line class="bond" id="mol1bnd9" x1="95.39" x2="82.09" y1="76.49" y2="68.87"/>
                  
            <g class="bond" id="mol1bnd10">
                        
                <line x1="68.99" x2="82.09" y1="76.69" y2="68.87"/>
                        
                <line x1="68.96" x2="79.64" y1="73.87" y2="67.5"/>
                      
            </g>
                  
            <g class="bond" id="mol1bnd11">
                        
                <line x1="68.85" x2="69.55" y1="91.93" y2="91.92"/>
                        
                <line x1="68.52" x2="69.8" y1="89.39" y2="89.38"/>
                        
                <line x1="68.2" x2="70.06" y1="86.86" y2="86.83"/>
                        
                <line x1="67.87" x2="70.32" y1="84.32" y2="84.29"/>
                        
                <line x1="67.54" x2="70.58" y1="81.79" y2="81.75"/>
                        
                <line x1="67.22" x2="70.84" y1="79.25" y2="79.21"/>
                        
                <line x1="66.89" x2="71.09" y1="76.72" y2="76.66"/>
                      
            </g>
                  
            <line class="bond" id="mol1bnd12" x1="68.99" x2="55.69" y1="76.69" y2="69.18"/>
                  
            <g class="bond" id="mol1bnd13">
                        
                <line x1="55.59" x2="55.69" y1="53.95" y2="69.18"/>
                        
                <line x1="58.04" x2="58.12" y1="55.33" y2="67.75"/>
                      
            </g>
                  
            <line class="bond" id="mol1bnd14" x1="55.59" x2="68.69" y1="53.95" y2="46.13"/>
                  
            <g class="bond" id="mol1bnd15">
                        
                <line x1="81.89" x2="68.69" y1="53.64" y2="46.13"/>
                        
                <line x1="79.47" x2="68.72" y1="55.07" y2="48.95"/>
                      
            </g>
                  
            <line class="bond" id="mol1bnd16" x1="82.09" x2="81.89" y1="68.87" y2="53.64"/>
                  
            <line class="bond" id="mol1bnd17" x1="55.59" x2="45.61" y1="53.95" y2="48.33"/>
                  
            <line class="bond" id="mol1bnd18" x1="42.28" x2="42.16" y1="42.55" y2="31.24"/>
                  
            <g class="bond" id="mol1bnd19">
                        
                <line x1="40.93" x2="51.38" y1="30.55" y2="24.37"/>
                        
                <line x1="42.17" x2="52.62" y1="32.65" y2="26.46"/>
                      
                <line class="hi" stroke="#FF0D0D" x1="51.38" x2="46.155" y1="24.37" y2="27.46"/>
                <line class="hi" stroke="#FF0D0D" x1="52.62" x2="47.394999999999996" y1="26.46" y2="29.555"/>
            </g>
                  
            <line class="bond" id="mol1bnd20" x1="42.16" x2="28.89" y1="31.24" y2="23.76"/>
                  
            <g class="bond" id="mol1bnd21">
                        
                <line x1="15.78" x2="28.89" y1="31.52" y2="23.76"/>
                        
                <line x1="15.75" x2="26.43" y1="28.7" y2="22.38"/>
                      
            </g>
                  
            <line class="bond" id="mol1bnd22" x1="15.78" x2="5.66" y1="31.52" y2="25.81"/>
                  
            <g class="bond" id="mol1bnd23">
                        
                <line x1="2.34" x2="2.46" y1="8.79" y2="20.18"/>
                        
                <line x1="4.79" x2="4.9" y1="10.17" y2="20.16"/>
                      
                <line class="hi" stroke="#3050F8" x1="2.46" x2="2.4" y1="20.18" y2="14.485"/>
                <line class="hi" stroke="#3050F8" x1="4.9" x2="4.845000000000001" y1="20.16" y2="15.165"/>
            </g>
                  
            <line class="bond" id="mol1bnd24" x1="2.34" x2="15.45" y1="8.79" y2="1.04"/>
                  
            <g class="bond" id="mol1bnd25">
                        
                <line x1="28.72" x2="15.45" y1="8.53" y2="1.04"/>
                        
                <line x1="26.3" x2="15.48" y1="9.96" y2="3.86"/>
                      
            </g>
                  
            <line class="bond" id="mol1bnd26" x1="28.89" x2="28.72" y1="23.76" y2="8.53"/>
                  
            <line class="bond" id="mol1bnd27" x1="55.69" x2="43.5" y1="69.18" y2="80.71"/>
                  
            <g class="bond" id="mol1bnd28">
                        
                <line stroke="#000000" x1="55.74" x2="56.25" y1="99.78" y2="99.3"/>
                        
                <line stroke="#FF0D0D" x1="54.08" x2="54.84" y1="98.29" y2="97.56"/>
                        
                <line stroke="#FF0D0D" x1="52.42" x2="53.44" y1="96.79" y2="95.83"/>
                        
                <line stroke="#FF0D0D" x1="50.76" x2="52.03" y1="95.3" y2="94.09"/>
                        
                <line stroke="#FF0D0D" x1="49.1" x2="50.62" y1="93.8" y2="92.36"/>
                        
                <line stroke="#FF0D0D" x1="47.44" x2="49.22" y1="92.31" y2="90.62"/>
                        
                <line stroke="#FF0D0D" x1="45.78" x2="47.81" y1="90.82" y2="88.89"/>
                        
                <line stroke="#FF0D0D" x1="44.12" x2="46.4" y1="89.32" y2="87.15"/>
                        
                <line stroke="#FF0D0D" x1="42.46" x2="45.0" y1="87.83" y2="85.42"/>
                      
            </g>
                  
            <line class="bond" id="mol1bnd29" x1="69.2" x2="56.0" y1="91.92" y2="99.54"/>
                  
            <line class="bond" id="mol1bnd30" x1="56.0" x2="56.0" y1="99.54" y2="114.77"/>
                  
            <line class="bond" id="mol1bnd31" x1="56.0" x2="69.2" y1="114.77" y2="122.39"/>
                  
            <g class="bond" id="mol1bnd32">
                        
                <line x1="69.2" x2="82.4" y1="122.39" y2="114.77"/>
                        
                <line x1="69.2" x2="79.96" y1="119.57" y2="113.36"/>
                      
            </g>
                  
            <g class="bond" id="mol1bnd33">
                        
                <line x1="82.09" x2="82.7" y1="99.71" y2="99.36"/>
                        
                <line x1="81.84" x2="82.95" y1="102.4" y2="101.76"/>
                        
                <line x1="81.59" x2="83.21" y1="105.08" y2="104.15"/>
                        
                <line x1="81.34" x2="83.46" y1="107.77" y2="106.54"/>
                        
                <line x1="81.08" x2="83.71" y1="110.45" y2="108.94"/>
                        
                <line x1="80.83" x2="83.96" y1="113.14" y2="111.33"/>
                        
                <line x1="80.58" x2="84.22" y1="115.82" y2="113.72"/>
                      
            </g>
                  
            <g class="bond" id="mol1bnd34">
                        
                <line stroke="#000000" x1="56.17" x2="55.82" y1="115.07" y2="114.47"/>
                        
                <line stroke="#FF0D0D" x1="54.12" x2="53.48" y1="116.6" y2="115.48"/>
                        
                <line stroke="#FF0D0D" x1="52.07" x2="51.13" y1="118.12" y2="116.5"/>
                        
                <line stroke="#FF0D0D" x1="50.01" x2="48.79" y1="119.64" y2="117.52"/>
                        
                <line stroke="#FF0D0D" x1="47.96" x2="46.44" y1="121.16" y2="118.54"/>
                      
            </g>
                  
            <line class="bond" id="mol1bnd35" x1="42.81" x2="42.81" y1="126.31" y2="137.62"/>
                  
            <g class="bond" id="mol1bnd36">
                        
                <line x1="42.81" x2="53.33" y1="136.21" y2="142.28"/>
                        
                <line x1="41.59" x2="52.11" y1="138.32" y2="144.39"/>
                      
                <line class="hi" stroke="#FF0D0D" x1="53.33" x2="48.07" y1="142.28" y2="139.245"/>
                <line class="hi" stroke="#FF0D0D" x1="52.11" x2="46.85" y1="144.39" y2="141.355"/>
            </g>
                  
            <line class="bond" id="mol1bnd37" x1="42.81" x2="29.62" y1="137.62" y2="145.24"/>
                  
            <g class="bond" id="mol1bnd38">
                        
                <line x1="29.62" x2="29.62" y1="160.47" y2="145.24"/>
                        
                <line x1="27.18" x2="27.18" y1="159.06" y2="146.65"/>
                      
            </g>
                  
            <line class="bond" id="mol1bnd39" x1="29.62" x2="19.57" y1="160.47" y2="166.27"/>
                  
            <g class="bond" id="mol1bnd40">
                        
                <line x1="3.22" x2="13.26" y1="160.47" y2="166.27"/>
                        
                <line x1="5.66" x2="14.48" y1="159.06" y2="164.15"/>
                      
                <line class="hi" stroke="#3050F8" x1="13.26" x2="8.24" y1="166.27" y2="163.37"/>
                <line class="hi" stroke="#3050F8" x1="14.48" x2="10.07" y1="164.15" y2="161.60500000000002"/>
            </g>
                  
            <line class="bond" id="mol1bnd41" x1="3.22" x2="3.22" y1="160.47" y2="145.24"/>
                  
            <g class="bond" id="mol1bnd42">
                        
                <line x1="16.42" x2="3.22" y1="137.62" y2="145.24"/>
                        
                <line x1="16.42" x2="5.66" y1="140.44" y2="146.65"/>
                      
            </g>
                  
            <line class="bond" id="mol1bnd43" x1="29.62" x2="16.42" y1="145.24" y2="137.62"/>
                  
            <path class="atom" d="M110.84 101.68h-.72l-2.62 -4.07h-.03q.01 .24 .03 .6q.02 .36 .02 .73v2.74h-.57v-4.9h.71l2.61 4.05h.03q-.01 -.11 -.02 -.33q-.01 -.22 -.02 -.48q-.01 -.26 -.01 -.48v-2.77h.58v4.9z" fill="#3050F8" id="mol1atm2" stroke="none"/>
                  
            <path class="atom" d="M44.58 46.47q.0 .76 -.26 1.33q-.26 .57 -.76 .88q-.5 .32 -1.24 .32q-.76 .0 -1.26 -.32q-.51 -.32 -.76 -.89q-.24 -.57 -.24 -1.33q.0 -.75 .24 -1.31q.25 -.57 .76 -.88q.51 -.32 1.27 -.32q.73 .0 1.23 .32q.5 .31 .76 .88q.26 .57 .26 1.33zM40.71 46.47q.0 .92 .39 1.46q.39 .53 1.22 .53q.84 .0 1.22 -.53q.39 -.54 .39 -1.46q.0 -.93 -.39 -1.45q-.38 -.52 -1.21 -.52q-.83 .0 -1.23 .52q-.39 .52 -.39 1.45z" id="mol1atm15" stroke="none"/>
                  
            <path class="atom" d="M57.53 23.48q.0 .76 -.26 1.33q-.26 .57 -.76 .88q-.5 .32 -1.24 .32q-.76 .0 -1.26 -.32q-.51 -.32 -.76 -.89q-.24 -.57 -.24 -1.33q.0 -.75 .24 -1.31q.25 -.57 .76 -.88q.51 -.32 1.27 -.32q.73 .0 1.23 .32q.5 .31 .76 .88q.26 .57 .26 1.33zM53.66 23.48q.0 .92 .39 1.46q.39 .53 1.22 .53q.84 .0 1.22 -.53q.39 -.54 .39 -1.46q.0 -.93 -.39 -1.45q-.38 -.52 -1.21 -.52q-.83 .0 -1.23 .52q-.39 .52 -.39 1.45z" id="mol1atm17" stroke="none"/>
                  
            <path class="atom" d="M4.44 26.48h-.72l-2.62 -4.07h-.03q.01 .24 .03 .6q.02 .36 .02 .73v2.74h-.57v-4.9h.71l2.61 4.05h.03q-.01 -.11 -.02 -.33q-.01 -.22 -.02 -.48q-.01 -.26 -.01 -.48v-2.77h.58v4.9z" fill="#3050F8" id="mol1atm20" stroke="none"/>
                  
            <path class="atom" d="M42.92 83.39q.0 .76 -.26 1.33q-.26 .57 -.76 .88q-.5 .32 -1.24 .32q-.76 .0 -1.26 -.32q-.51 -.32 -.76 -.89q-.24 -.57 -.24 -1.33q.0 -.75 .24 -1.31q.25 -.57 .76 -.88q.51 -.32 1.27 -.32q.73 .0 1.23 .32q.5 .31 .76 .88q.26 .57 .26 1.33zM39.06 83.39q.0 .92 .39 1.46q.39 .53 1.22 .53q.84 .0 1.22 -.53q.39 -.54 .39 -1.46q.0 -.93 -.39 -1.45q-.38 -.52 -1.21 -.52q-.83 .0 -1.23 .52q-.39 .52 -.39 1.45z" id="mol1atm24" stroke="none"/>
                  
            <path class="atom" d="M45.07 122.39q.0 .76 -.26 1.33q-.26 .57 -.76 .88q-.5 .32 -1.24 .32q-.76 .0 -1.26 -.32q-.51 -.32 -.76 -.89q-.24 -.57 -.24 -1.33q.0 -.75 .24 -1.31q.25 -.57 .76 -.88q.51 -.32 1.27 -.32q.73 .0 1.23 .32q.5 .31 .76 .88q.26 .57 .26 1.33zM41.2 122.39q.0 .92 .39 1.46q.39 .53 1.22 .53q.84 .0 1.22 -.53q.39 -.54 .39 -1.46q.0 -.93 -.39 -1.45q-.38 -.52 -1.21 -.52q-.83 .0 -1.23 .52q-.39 .52 -.39 1.45z" id="mol1atm29" stroke="none"/>
                  
            <path class="atom" d="M58.26 145.23q.0 .76 -.26 1.33q-.26 .57 -.76 .88q-.5 .32 -1.24 .32q-.76 .0 -1.26 -.32q-.51 -.32 -.76 -.89q-.24 -.57 -.24 -1.33q.0 -.75 .24 -1.31q.25 -.57 .76 -.88q.51 -.32 1.27 -.32q.73 .0 1.23 .32q.5 .31 .76 .88q.26 .57 .26 1.33zM54.4 145.23q.0 .92 .39 1.46q.39 .53 1.22 .53q.84 .0 1.22 -.53q.39 -.54 .39 -1.46q.0 -.93 -.39 -1.45q-.38 -.52 -1.21 -.52q-.83 .0 -1.23 .52q-.39 .52 -.39 1.45z" id="mol1atm31" stroke="none"/>
                  
            <path class="atom" d="M18.36 170.54h-.72l-2.62 -4.07h-.03q.01 .24 .03 .6q.02 .36 .02 .73v2.74h-.57v-4.9h.71l2.61 4.05h.03q-.01 -.11 -.02 -.33q-.01 -.22 -.02 -.48q-.01 -.26 -.01 -.48v-2.77h.58v4.9z" fill="#3050F8" id="mol1atm34" stroke="none"/>
                
            <line class="hi" id="mol1bnd1" stroke="#3050F8" x1="110.6" x2="112.91499999999999" y1="102.96" y2="108.025"/>
            <line class="hi" id="mol1bnd2" stroke="#3050F8" x1="108.82" x2="108.71" y1="95.39" y2="89.64500000000001"/>
            <line class="hi" id="mol1bnd17" stroke="#FF0D0D" x1="45.61" x2="50.6" y1="48.33" y2="51.14"/>
            <line class="hi" id="mol1bnd18" stroke="#FF0D0D" x1="42.28" x2="42.22" y1="42.55" y2="36.894999999999996"/>
            <line class="hi" id="mol1bnd22" stroke="#3050F8" x1="5.66" x2="10.719999999999999" y1="25.81" y2="28.665"/>
            <line class="hi" id="mol1bnd27" stroke="#FF0D0D" x1="43.5" x2="49.595" y1="80.71" y2="74.945"/>
            <line class="hi" id="mol1bnd35" stroke="#FF0D0D" x1="42.81" x2="42.81" y1="126.31" y2="131.965"/>
            <line class="hi" id="mol1bnd39" stroke="#3050F8" x1="19.57" x2="24.595" y1="166.27" y2="163.37"/>
        </g>
          
    </g>
    
</svg>
