<svg xmlns="http://www.w3.org/2000/svg" xmlns:xlink="http://www.w3.org/1999/xlink" height="88.78mm" version="1.2" viewBox="0 0 101.56 88.78" width="101.56mm">
      
    <desc>Generated by the Chemistry Development Kit (http://github.com/cdk)</desc>
      
    <g fill="#3050F8" stroke="#000000" stroke-linecap="round" stroke-linejoin="round" stroke-width=".7">
            
        <rect fill="#FFFFFF" height="89.0" stroke="none" width="102.0" x=".0" y=".0"/>
            
        <g class="mol" id="mol1">
                  
            <line class="bond" id="mol1bnd1" x1="87.09" x2="86.86" y1="22.74" y2="37.98"/>
                  
            <g class="bond" id="mol1bnd2">
                        
                <line x1="95.99" x2="86.86" y1="44.82" y2="37.98"/>
                        
                <line x1="94.53" x2="86.82" y1="46.77" y2="40.99"/>
                      
                <line class="hi" stroke="#3050F8" x1="95.99" x2="91.425" y1="44.82" y2="41.4"/>
                <line class="hi" stroke="#3050F8" x1="94.53" x2="90.675" y1="46.77" y2="43.88"/>
            </g>
                  
            <line class="bond" id="mol1bnd3" x1="97.77" x2="95.42" y1="50.89" y2="57.77"/>
                  
            <g class="bond" id="mol1bnd4">
                        
                <line x1="78.89" x2="90.79" y1="61.31" y2="61.49"/>
                        
                <line x1="80.7" x2="90.83" y1="58.9" y2="59.05"/>
                      
                <line class="hi" stroke="#3050F8" x1="90.79" x2="84.84" y1="61.49" y2="61.400000000000006"/>
                <line class="hi" stroke="#3050F8" x1="90.83" x2="85.765" y1="59.05" y2="58.974999999999994"/>
            </g>
                  
            <line class="bond" id="mol1bnd5" x1="78.89" x2="75.57" y1="61.31" y2="50.54"/>
                  
            <line class="bond" id="mol1bnd6" x1="86.86" x2="77.49" y1="37.98" y2="44.58"/>
                  
            <line class="bond" id="mol1bnd7" x1="71.16" x2="60.21" y1="45.48" y2="41.18"/>
                  
            <g class="bond" id="mol1bnd8">
                        
                <line x1="47.01" x2="60.21" y1="48.8" y2="41.18"/>
                        
                <line x1="47.01" x2="57.77" y1="45.99" y2="39.77"/>
                      
            </g>
                  
            <line class="bond" id="mol1bnd9" x1="47.01" x2="33.82" y1="48.8" y2="41.18"/>
                  
            <g class="bond" id="mol1bnd10">
                        
                <line x1="33.82" x2="33.82" y1="25.94" y2="41.18"/>
                        
                <line x1="36.26" x2="36.26" y1="27.35" y2="39.77"/>
                      
            </g>
                  
            <line class="bond" id="mol1bnd11" x1="33.82" x2="47.01" y1="25.94" y2="18.32"/>
                  
            <g class="bond" id="mol1bnd12">
                        
                <line x1="60.21" x2="47.01" y1="25.94" y2="18.32"/>
                        
                <line x1="57.77" x2="47.01" y1="27.35" y2="21.14"/>
                      
            </g>
                  
            <line class="bond" id="mol1bnd13" x1="60.21" x2="60.21" y1="41.18" y2="25.94"/>
                  
            <line class="bond" id="mol1bnd14" x1="33.82" x2="24.31" y1="25.94" y2="20.45"/>
                  
            <g class="bond" id="mol1bnd15">
                        
                <line x1="19.4" x2="19.4" y1="14.1" y2="7.0"/>
                        
                <line x1="21.84" x2="21.84" y1="14.1" y2="7.0"/>
                      
                <line class="hi" stroke="#3050F8" x1="19.4" x2="19.4" y1="14.1" y2="10.55"/>
                <line class="hi" stroke="#3050F8" x1="19.4" x2="19.4" y1="14.1" y2="10.55"/>
                <line class="hi" stroke="#FF0D0D" x1="19.4" x2="19.4" y1="7.0" y2="10.55"/>
                <line class="hi" stroke="#3050F8" x1="21.84" x2="21.84" y1="14.1" y2="10.55"/>
                <line class="hi" stroke="#3050F8" x1="21.84" x2="21.84" y1="14.1" y2="10.55"/>
                <line class="hi" stroke="#FF0D0D" x1="21.84" x2="21.84" y1="7.0" y2="10.55"/>
            </g>
                  
            <line class="bond" id="mol1bnd16" x1="17.47" x2="10.7" y1="20.14" y2="24.05"/>
                  
            <line class="bond" id="mol1bnd17" x1="47.01" x2="44.74" y1="48.8" y2="63.87"/>
                  
            <g class="bond" id="mol1bnd18">
                        
                <line x1="44.74" x2="52.22" y1="63.87" y2="71.92"/>
                        
                <line x1="47.33" x2="54.0" y1="63.07" y2="70.27"/>
                      
                <line class="hi" stroke="#3050F8" x1="52.22" x2="48.480000000000004" y1="71.92" y2="67.895"/>
            </g>
                  
            <line class="bond" id="mol1bnd19" x1="58.45" x2="70.31" y1="74.79" y2="73.9"/>
                  
            <line class="bond" id="mol1bnd20" x1="78.89" x2="70.31" y1="61.31" y2="73.9"/>
                  
            <line class="bond" id="mol1bnd21" x1="44.74" x2="30.18" y1="63.87" y2="68.36"/>
                  
            <g class="bond" id="mol1bnd22">
                        
                <line x1="26.79" x2="30.18" y1="83.23" y2="68.36"/>
                        
                <line x1="24.73" x2="27.49" y1="81.32" y2="69.19"/>
                      
            </g>
                  
            <line class="bond" id="mol1bnd23" x1="26.79" x2="12.23" y1="83.23" y2="87.72"/>
                  
            <g class="bond" id="mol1bnd24">
                        
                <line x1="1.05" x2="12.23" y1="77.35" y2="87.72"/>
                        
                <line x1="3.74" x2="12.86" y1="76.52" y2="84.98"/>
                      
            </g>
                  
            <line class="bond" id="mol1bnd25" x1="1.05" x2="4.44" y1="77.35" y2="62.48"/>
                  
            <g class="bond" id="mol1bnd26">
                        
                <line x1="19.01" x2="4.44" y1="57.99" y2="62.48"/>
                        
                <line x1="18.38" x2="6.51" y1="60.73" y2="64.39"/>
                      
            </g>
                  
            <line class="bond" id="mol1bnd27" x1="30.18" x2="19.01" y1="68.36" y2="57.99"/>
                  
            <path class="atom" d="M101.0 49.57h-.72l-2.62 -4.07h-.03q.01 .24 .03 .6q.02 .36 .02 .73v2.74h-.57v-4.9h.71l2.61 4.05h.03q-.01 -.11 -.02 -.33q-.01 -.22 -.02 -.48q-.01 -.26 -.01 -.48v-2.77h.58v4.9z" id="mol1atm3" stroke="none"/>
                  
            <path class="atom" d="M96.07 63.99h-.72l-2.62 -4.07h-.03q.01 .24 .03 .6q.02 .36 .02 .73v2.74h-.57v-4.9h.71l2.61 4.05h.03q-.01 -.11 -.02 -.33q-.01 -.22 -.02 -.48q-.01 -.26 -.01 -.48v-2.77h.58v4.9z" id="mol1atm4" stroke="none"/>
                  
            <path class="atom" d="M76.34 49.2h-.72l-2.62 -4.07h-.03q.01 .24 .03 .6q.02 .36 .02 .73v2.74h-.57v-4.9h.71l2.61 4.05h.03q-.01 -.11 -.02 -.33q-.01 -.22 -.02 -.48q-.01 -.26 -.01 -.48v-2.77h.58v4.9z" id="mol1atm6" stroke="none"/>
                  
            <g class="atom" id="mol1atm13">
                        
                <path d="M22.56 20.77h-.72l-2.62 -4.07h-.03q.01 .24 .03 .6q.02 .36 .02 .73v2.74h-.57v-4.9h.71l2.61 4.05h.03q-.01 -.11 -.02 -.33q-.01 -.22 -.02 -.48q-.01 -.26 -.01 -.48v-2.77h.58v4.9z" stroke="none"/>
                        
                <path d="M24.24 15.73h.82v.29h-.82v.85h-.3v-.85h-.82v-.29h.82v-.85h.3v.85z" stroke="none"/>
                      
            </g>
                  
            <path class="atom" d="M22.88 3.08q.0 .76 -.26 1.33q-.26 .57 -.76 .88q-.5 .32 -1.24 .32q-.76 .0 -1.26 -.32q-.51 -.32 -.76 -.89q-.24 -.57 -.24 -1.33q.0 -.75 .24 -1.31q.25 -.57 .76 -.88q.51 -.32 1.27 -.32q.73 .0 1.23 .32q.5 .31 .76 .88q.26 .57 .26 1.33zM19.01 3.08q.0 .92 .39 1.46q.39 .53 1.22 .53q.84 .0 1.22 -.53q.39 -.54 .39 -1.46q.0 -.93 -.39 -1.45q-.38 -.52 -1.21 -.52q-.83 .0 -1.23 .52q-.39 .52 -.39 1.45z" fill="#FF0D0D" id="mol1atm14" stroke="none"/>
                  
            <g class="atom" id="mol1atm15">
                        
                <path d="M9.68 25.94q.0 .76 -.26 1.33q-.26 .57 -.76 .88q-.5 .32 -1.24 .32q-.76 .0 -1.26 -.32q-.51 -.32 -.76 -.89q-.24 -.57 -.24 -1.33q.0 -.75 .24 -1.31q.25 -.57 .76 -.88q.51 -.32 1.27 -.32q.73 .0 1.23 .32q.5 .31 .76 .88q.26 .57 .26 1.33zM5.82 25.94q.0 .92 .39 1.46q.39 .53 1.22 .53q.84 .0 1.22 -.53q.39 -.54 .39 -1.46q.0 -.93 -.39 -1.45q-.38 -.52 -1.21 -.52q-.83 .0 -1.23 .52q-.39 .52 -.39 1.45z" fill="#FF0D0D" stroke="none"/>
                        
                <path d="M4.6 23.27v.29h-1.93v-.29h1.93z" fill="#FF0D0D" stroke="none"/>
                      
            </g>
                  
            <path class="atom" d="M57.05 77.49h-.72l-2.62 -4.07h-.03q.01 .24 .03 .6q.02 .36 .02 .73v2.74h-.57v-4.9h.71l2.61 4.05h.03q-.01 -.11 -.02 -.33q-.01 -.22 -.02 -.48q-.01 -.26 -.01 -.48v-2.77h.58v4.9z" id="mol1atm17" stroke="none"/>
                
            <line class="hi" id="mol1bnd3" stroke="#3050F8" x1="97.77" x2="96.595" y1="50.89" y2="54.33"/>
            <line class="hi" id="mol1bnd3" stroke="#3050F8" x1="95.42" x2="96.595" y1="57.77" y2="54.33"/>
            <line class="hi" id="mol1bnd5" stroke="#3050F8" x1="75.57" x2="77.22999999999999" y1="50.54" y2="55.925"/>
            <line class="hi" id="mol1bnd6" stroke="#3050F8" x1="77.49" x2="82.175" y1="44.58" y2="41.28"/>
            <line class="hi" id="mol1bnd7" stroke="#3050F8" x1="71.16" x2="65.685" y1="45.48" y2="43.33"/>
            <line class="hi" id="mol1bnd14" stroke="#3050F8" x1="24.31" x2="29.064999999999998" y1="20.45" y2="23.195"/>
            <line class="hi" id="mol1bnd14" stroke="#3050F8" x1="24.31" x2="29.064999999999998" y1="20.45" y2="23.195"/>
            <line class="hi" id="mol1bnd16" stroke="#3050F8" x1="17.47" x2="14.084999999999999" y1="20.14" y2="22.095"/>
            <line class="hi" id="mol1bnd16" stroke="#FF0D0D" x1="10.7" x2="14.084999999999999" y1="24.05" y2="22.095"/>
            <line class="hi" id="mol1bnd16" stroke="#FF0D0D" x1="10.7" x2="14.084999999999999" y1="24.05" y2="22.095"/>
            <line class="hi" id="mol1bnd19" stroke="#3050F8" x1="58.45" x2="64.38" y1="74.79" y2="74.345"/>
        </g>
          
    </g>
    
</svg>
