<svg xmlns="http://www.w3.org/2000/svg" xmlns:xlink="http://www.w3.org/1999/xlink" height="32.54mm" version="1.2" viewBox="0 0 74.78 32.54" width="74.78mm">
      
    <desc>Generated by the Chemistry Development Kit (http://github.com/cdk)</desc>
      
    <g fill="#3050F8" stroke="#000000" stroke-linecap="round" stroke-linejoin="round" stroke-width=".7">
            
        <rect fill="#FFFFFF" height="33.0" stroke="none" width="75.0" x=".0" y=".0"/>
            
        <g class="mol" id="mol1">
                  
            <line class="bond" id="mol1bnd1" x1="73.74" x2="68.24" y1="3.08" y2="12.61"/>
                  
            <line class="bond" id="mol1bnd2" x1="62.79" x2="50.9" y1="16.27" y2="16.27"/>
                  
            <line class="bond" id="mol1bnd3" x1="50.9" x2="41.96" y1="16.27" y2="3.98"/>
                  
            <line class="bond" id="mol1bnd4" x1="41.96" x2="27.44" y1="3.98" y2="8.65"/>
                  
            <g class="bond" id="mol1bnd5">
                        
                <line x1="27.44" x2="14.24" y1="8.65" y2="1.04"/>
                        
                <line x1="25.0" x2="14.24" y1="10.06" y2="3.85"/>
                      
            </g>
                  
            <line class="bond" id="mol1bnd6" x1="14.24" x2="1.04" y1="1.04" y2="8.65"/>
                  
            <g class="bond" id="mol1bnd7">
                        
                <line x1="1.04" x2="1.04" y1="8.65" y2="23.89"/>
                        
                <line x1="3.48" x2="3.48" y1="10.06" y2="22.48"/>
                      
            </g>
                  
            <line class="bond" id="mol1bnd8" x1="1.04" x2="14.24" y1="23.89" y2="31.5"/>
                  
            <g class="bond" id="mol1bnd9">
                        
                <line x1="14.24" x2="27.44" y1="31.5" y2="23.89"/>
                        
                <line x1="14.24" x2="25.0" y1="28.69" y2="22.48"/>
                      
            </g>
                  
            <line class="bond" id="mol1bnd10" x1="27.44" x2="27.44" y1="8.65" y2="23.89"/>
                  
            <line class="bond" id="mol1bnd11" x1="27.44" x2="41.96" y1="23.89" y2="28.56"/>
                  
            <line class="bond" id="mol1bnd12" x1="50.9" x2="41.96" y1="16.27" y2="28.56"/>
                  
            <g class="atom" id="mol1atm2">
                        
                <path d="M68.07 18.72h-.72l-2.62 -4.07h-.03q.01 .24 .03 .6q.02 .36 .02 .73v2.74h-.57v-4.9h.71l2.61 4.05h.03q-.01 -.11 -.02 -.33q-.01 -.22 -.02 -.48q-.01 -.26 -.01 -.48v-2.77h.58v4.9z" stroke="none"/>
                        
                <path d="M72.37 18.72h-.62v-2.29h-2.51v2.29h-.61v-4.9h.61v2.07h2.51v-2.07h.62v4.9z" stroke="none"/>
                      
            </g>
                
            <line class="hi" id="mol1bnd1" stroke="#3050F8" x1="68.24" x2="70.99" y1="12.61" y2="7.845"/>
            <line class="hi" id="mol1bnd1" stroke="#3050F8" x1="68.24" x2="70.99" y1="12.61" y2="7.845"/>
            <line class="hi" id="mol1bnd2" stroke="#3050F8" x1="62.79" x2="56.845" y1="16.27" y2="16.27"/>
        </g>
          
    </g>
    
</svg>
