<svg xmlns="http://www.w3.org/2000/svg" xmlns:xlink="http://www.w3.org/1999/xlink" height="116.26mm" version="1.2" viewBox="0 0 148.17 116.26" width="148.17mm">
      
    <desc>Generated by the Chemistry Development Kit (http://github.com/cdk)</desc>
      
    <g fill="#3050F8" stroke="#000000" stroke-linecap="round" stroke-linejoin="round" stroke-width=".7">
            
        <rect fill="#FFFFFF" height="117.0" stroke="none" width="149.0" x=".0" y=".0"/>
            
        <g class="mol" id="mol1">
                  
            <line class="bond" id="mol1bnd1" x1="41.54" x2="41.54" y1="115.35" y2="100.11"/>
                  
            <line class="bond" id="mol1bnd2" x1="41.54" x2="54.74" y1="100.11" y2="92.49"/>
                  
            <g class="bond" id="mol1bnd3">
                        
                <line x1="54.74" x2="65.27" y1="91.08" y2="97.15"/>
                        
                <line x1="53.52" x2="64.05" y1="93.19" y2="99.27"/>
                      
                <line class="hi" stroke="#FF0D0D" x1="65.27" x2="60.004999999999995" y1="97.15" y2="94.11500000000001"/>
                <line class="hi" stroke="#FF0D0D" x1="64.05" x2="58.785" y1="99.27" y2="96.22999999999999"/>
            </g>
                  
            <line class="bond" id="mol1bnd4" x1="54.74" x2="54.74" y1="92.49" y2="81.1"/>
                  
            <line class="bond" id="mol1bnd5" x1="57.89" x2="67.94" y1="75.43" y2="69.63"/>
                  
            <line class="bond" id="mol1bnd6" x1="67.94" x2="81.14" y1="69.63" y2="77.26"/>
                  
            <line class="bond" id="mol1bnd7" x1="81.14" x2="94.34" y1="77.26" y2="69.64"/>
                  
            <line class="bond" id="mol1bnd8" x1="94.34" x2="94.34" y1="69.64" y2="58.24"/>
                  
            <line class="bond" id="mol1bnd9" x1="91.18" x2="81.13" y1="52.56" y2="46.76"/>
                  
            <line class="bond" id="mol1bnd10" x1="81.13" x2="67.93" y1="46.76" y2="54.38"/>
                  
            <line class="bond" id="mol1bnd11" x1="67.94" x2="67.93" y1="69.63" y2="54.38"/>
                  
            <line class="bond" id="mol1bnd12" x1="97.49" x2="107.53" y1="52.57" y2="46.77"/>
                  
            <line class="bond" id="mol1bnd13" x1="107.53" x2="107.53" y1="46.77" y2="31.53"/>
                  
            <line class="bond" id="mol1bnd14" x1="107.53" x2="120.73" y1="31.53" y2="23.91"/>
                  
            <g class="bond" id="mol1bnd15">
                        
                <line x1="120.73" x2="120.73" y1="8.66" y2="23.91"/>
                        
                <line x1="123.17" x2="123.17" y1="10.07" y2="22.5"/>
                      
            </g>
                  
            <line class="bond" id="mol1bnd16" x1="120.73" x2="133.93" y1="8.66" y2="1.04"/>
                  
            <g class="bond" id="mol1bnd17">
                        
                <line x1="147.13" x2="133.93" y1="8.67" y2="1.04"/>
                        
                <line x1="144.69" x2="133.93" y1="10.07" y2="3.85"/>
                      
            </g>
                  
            <line class="bond" id="mol1bnd18" x1="147.13" x2="147.13" y1="8.67" y2="23.92"/>
                  
            <g class="bond" id="mol1bnd19">
                        
                <line x1="133.94" x2="147.13" y1="31.54" y2="23.92"/>
                        
                <line x1="133.94" x2="144.69" y1="28.72" y2="22.51"/>
                      
            </g>
                  
            <line class="bond" id="mol1bnd20" x1="120.73" x2="133.94" y1="23.91" y2="31.54"/>
                  
            <line class="bond" id="mol1bnd21" x1="51.59" x2="41.54" y1="75.43" y2="69.63"/>
                  
            <g class="bond" id="mol1bnd22">
                        
                <line x1="28.34" x2="41.54" y1="77.25" y2="69.63"/>
                        
                <line x1="28.34" x2="39.1" y1="74.43" y2="68.22"/>
                      
            </g>
                  
            <line class="bond" id="mol1bnd23" x1="28.34" x2="15.13" y1="77.25" y2="69.63"/>
                  
            <g class="bond" id="mol1bnd24">
                        
                <line x1="15.12" x2="15.13" y1="54.39" y2="69.63"/>
                        
                <line x1="17.56" x2="17.57" y1="55.8" y2="68.22"/>
                      
            </g>
                  
            <line class="bond" id="mol1bnd25" x1="15.12" x2="28.33" y1="54.39" y2="46.77"/>
                  
            <g class="bond" id="mol1bnd26">
                        
                <line x1="41.54" x2="28.33" y1="54.39" y2="46.77"/>
                        
                <line x1="39.1" x2="28.33" y1="55.8" y2="49.58"/>
                      
            </g>
                  
            <line class="bond" id="mol1bnd27" x1="41.54" x2="41.54" y1="69.63" y2="54.39"/>
                  
            <line class="bond" id="mol1bnd28" x1="15.12" x2="4.17" y1="54.39" y2="48.06"/>
                  
            <path class="atom" d="M70.2 100.1q.0 .76 -.26 1.33q-.26 .57 -.76 .88q-.5 .32 -1.24 .32q-.76 .0 -1.26 -.32q-.51 -.32 -.76 -.89q-.24 -.57 -.24 -1.33q.0 -.75 .24 -1.31q.25 -.57 .76 -.88q.51 -.32 1.27 -.32q.73 .0 1.23 .32q.5 .31 .76 .88q.26 .57 .26 1.33zM66.33 100.1q.0 .92 .39 1.46q.39 .53 1.22 .53q.84 .0 1.22 -.53q.39 -.54 .39 -1.46q.0 -.93 -.39 -1.45q-.38 -.52 -1.21 -.52q-.83 .0 -1.23 .52q-.39 .52 -.39 1.45z" fill="#FF0D0D" id="mol1atm4" stroke="none"/>
                  
            <path class="atom" d="M56.68 79.7h-.72l-2.62 -4.07h-.03q.01 .24 .03 .6q.02 .36 .02 .73v2.74h-.57v-4.9h.71l2.61 4.05h.03q-.01 -.11 -.02 -.33q-.01 -.22 -.02 -.48q-.01 -.26 -.01 -.48v-2.77h.58v4.9z" id="mol1atm5" stroke="none"/>
                  
            <path class="atom" d="M96.28 56.84h-.72l-2.62 -4.07h-.03q.01 .24 .03 .6q.02 .36 .02 .73v2.74h-.57v-4.9h.71l2.61 4.05h.03q-.01 -.11 -.02 -.33q-.01 -.22 -.02 -.48q-.01 -.26 -.01 -.48v-2.77h.58v4.9z" id="mol1atm9" stroke="none"/>
                  
            <path class="atom" d="M1.17 49.22h-.61v-4.9h2.73v.54h-2.12v1.74h1.99v.54h-1.99v2.08z" fill="#90E050" id="mol1atm26" stroke="none"/>
                
            <line class="hi" id="mol1bnd4" stroke="#3050F8" x1="54.74" x2="54.74" y1="81.1" y2="86.79499999999999"/>
            <line class="hi" id="mol1bnd5" stroke="#3050F8" x1="57.89" x2="62.915" y1="75.43" y2="72.53"/>
            <line class="hi" id="mol1bnd8" stroke="#3050F8" x1="94.34" x2="94.34" y1="58.24" y2="63.94"/>
            <line class="hi" id="mol1bnd9" stroke="#3050F8" x1="91.18" x2="86.155" y1="52.56" y2="49.66"/>
            <line class="hi" id="mol1bnd12" stroke="#3050F8" x1="97.49" x2="102.50999999999999" y1="52.57" y2="49.67"/>
            <line class="hi" id="mol1bnd21" stroke="#3050F8" x1="51.59" x2="46.565" y1="75.43" y2="72.53"/>
            <line class="hi" id="mol1bnd28" stroke="#90E050" x1="4.17" x2="9.645" y1="48.06" y2="51.225"/>
        </g>
          
    </g>
    
</svg>
