<svg xmlns="http://www.w3.org/2000/svg" xmlns:xlink="http://www.w3.org/1999/xlink" height="66.98mm" version="1.2" viewBox="0 0 61.15 66.98" width="61.15mm">
      
    <desc>Generated by the Chemistry Development Kit (http://github.com/cdk)</desc>
      
    <g fill="#90E050" stroke="#000000" stroke-linecap="round" stroke-linejoin="round" stroke-width=".7">
            
        <rect fill="#FFFFFF" height="67.0" stroke="none" width="62.0" x=".0" y=".0"/>
            
        <g class="mol" id="mol1">
                  
            <g class="bond" id="mol1bnd1">
                        
                <line x1="28.33" x2="15.12" y1="18.25" y2="25.87"/>
                        
                <line x1="28.33" x2="17.56" y1="21.06" y2="27.28"/>
                      
            </g>
                  
            <line class="bond" id="mol1bnd2" x1="28.33" x2="41.54" y1="18.25" y2="25.87"/>
                  
            <g class="bond" id="mol1bnd3">
                        
                <line x1="41.54" x2="41.54" y1="41.11" y2="25.87"/>
                        
                <line x1="39.1" x2="39.1" y1="39.7" y2="27.28"/>
                      
            </g>
                  
            <line class="bond" id="mol1bnd4" x1="41.54" x2="28.33" y1="41.11" y2="48.73"/>
                  
            <g class="bond" id="mol1bnd5">
                        
                <line x1="15.12" x2="28.33" y1="41.11" y2="48.73"/>
                        
                <line x1="17.56" x2="28.33" y1="39.7" y2="45.91"/>
                      
            </g>
                  
            <line class="bond" id="mol1bnd6" x1="15.12" x2="15.12" y1="25.87" y2="41.11"/>
                  
            <line class="bond" id="mol1bnd7" x1="15.12" x2="4.44" y1="41.11" y2="47.28"/>
                  
            <line class="bond" id="mol1bnd8" x1="28.33" x2="28.33" y1="48.73" y2="60.12"/>
                  
            <line class="bond" id="mol1bnd9" x1="41.54" x2="52.02" y1="41.11" y2="47.17"/>
                  
            <line class="bond" id="mol1bnd10" x1="41.54" x2="52.16" y1="25.87" y2="19.74"/>
                  
            <line class="bond" id="mol1bnd11" x1="28.33" x2="28.33" y1="18.25" y2="6.08"/>
                  
            <line class="bond" id="mol1bnd12" x1="15.12" x2="4.17" y1="25.87" y2="19.54"/>
                  
            <path class="atom" d="M1.17 51.18h-.61v-4.9h2.73v.54h-2.12v1.74h1.99v.54h-1.99v2.08z" id="mol1atm7" stroke="none"/>
                  
            <path class="atom" d="M27.58 66.42h-.61v-4.9h2.73v.54h-2.12v1.74h1.99v.54h-1.99v2.08z" id="mol1atm8" stroke="none"/>
                  
            <g class="atom" id="mol1atm9">
                        
                <path d="M56.28 49.87q.0 .65 -.48 1.02q-.47 .36 -1.27 .36q-.42 .0 -.77 -.07q-.35 -.06 -.58 -.17v-.59q.24 .11 .61 .2q.37 .09 .76 .09q.55 .0 .83 -.21q.28 -.21 .28 -.58q.0 -.24 -.11 -.4q-.1 -.17 -.35 -.31q-.25 -.14 -.7 -.3q-.63 -.23 -.95 -.55q-.32 -.33 -.32 -.9q.0 -.39 .2 -.67q.2 -.28 .55 -.43q.36 -.15 .82 -.15q.4 .0 .74 .08q.34 .07 .61 .2l-.2 .53q-.25 -.11 -.55 -.18q-.3 -.08 -.63 -.08q-.46 .0 -.69 .2q-.23 .2 -.23 .52q.0 .24 .1 .41q.11 .17 .34 .3q.23 .13 .63 .28q.43 .15 .73 .34q.3 .18 .45 .43q.15 .25 .15 .64z" fill="#C6C62C" stroke="none"/>
                        
                <path d="M60.59 51.18h-.62v-2.29h-2.51v2.29h-.61v-4.9h.61v2.07h2.51v-2.07h.62v4.9z" fill="#C6C62C" stroke="none"/>
                      
            </g>
                  
            <path class="atom" d="M53.98 20.7h-.61v-4.9h2.73v.54h-2.12v1.74h1.99v.54h-1.99v2.08z" id="mol1atm10" stroke="none"/>
                  
            <path class="atom" d="M27.58 5.46h-.61v-4.9h2.73v.54h-2.12v1.74h1.99v.54h-1.99v2.08z" id="mol1atm11" stroke="none"/>
                  
            <path class="atom" d="M1.17 20.7h-.61v-4.9h2.73v.54h-2.12v1.74h1.99v.54h-1.99v2.08z" id="mol1atm12" stroke="none"/>
                
            <line class="hi" id="mol1bnd7" stroke="#90E050" x1="4.4399999999999995" x2="9.78" y1="47.28" y2="44.195"/>
            <line class="hi" id="mol1bnd8" stroke="#90E050" x1="28.33" x2="28.33" y1="60.12" y2="54.425"/>
            <line class="hi" id="mol1bnd9" stroke="#C6C62C" x1="52.02" x2="46.78" y1="47.17" y2="44.14"/>
            <line class="hi" id="mol1bnd10" stroke="#90E050" x1="52.16" x2="46.849999999999994" y1="19.74" y2="22.805"/>
            <line class="hi" id="mol1bnd11" stroke="#90E050" x1="28.33" x2="28.33" y1="6.08" y2="12.165"/>
            <line class="hi" id="mol1bnd12" stroke="#90E050" x1="4.17" x2="9.645" y1="19.54" y2="22.705"/>
        </g>
          
    </g>
    
</svg>
