<svg xmlns="http://www.w3.org/2000/svg" xmlns:xlink="http://www.w3.org/1999/xlink" height="38.14mm" version="1.2" viewBox="0 0 68.07 38.14" width="68.07mm">
      
    <desc>Generated by the Chemistry Development Kit (http://github.com/cdk)</desc>
      
    <g fill="#3050F8" stroke="#000000" stroke-linecap="round" stroke-linejoin="round" stroke-width=".7">
            
        <rect fill="#FFFFFF" height="39.0" stroke="none" width="69.0" x=".0" y=".0"/>
            
        <g class="mol" id="mol1">
                  
            <line class="bond" id="mol1bnd1" x1="6.62" x2="14.24" y1="1.04" y2="14.24"/>
                  
            <line class="bond" id="mol1bnd2" x1="14.24" x2="1.04" y1="14.24" y2="21.86"/>
                  
            <line class="bond" id="mol1bnd3" x1="14.24" x2="27.43" y1="14.24" y2="6.62"/>
                  
            <line class="bond" id="mol1bnd4" x1="27.43" x2="40.63" y1="6.62" y2="14.24"/>
                  
            <g class="bond" id="mol1bnd5">
                        
                <line x1="53.84" x2="40.63" y1="6.61" y2="14.24"/>
                        
                <line x1="53.84" x2="43.07" y1="9.42" y2="15.64"/>
                      
            </g>
                  
            <line class="bond" id="mol1bnd6" x1="53.84" x2="67.03" y1="6.61" y2="14.23"/>
                  
            <g class="bond" id="mol1bnd7">
                        
                <line x1="67.03" x2="67.03" y1="29.48" y2="14.23"/>
                        
                <line x1="64.59" x2="64.6" y1="28.07" y2="15.64"/>
                      
            </g>
                  
            <line class="bond" id="mol1bnd8" x1="67.03" x2="53.83" y1="29.48" y2="37.1"/>
                  
            <g class="bond" id="mol1bnd9">
                        
                <line x1="40.63" x2="53.83" y1="29.48" y2="37.1"/>
                        
                <line x1="43.07" x2="53.83" y1="28.08" y2="34.29"/>
                      
            </g>
                  
            <line class="bond" id="mol1bnd10" x1="40.63" x2="40.63" y1="14.24" y2="29.48"/>
                  
            <line class="bond" id="mol1bnd11" x1="14.24" x2="19.74" y1="14.24" y2="23.77"/>
                  
            <g class="atom" id="mol1atm11">
                        
                <path d="M23.8 29.88h-.72l-2.62 -4.07h-.03q.01 .24 .03 .6q.02 .36 .02 .73v2.74h-.57v-4.9h.71l2.61 4.05h.03q-.01 -.11 -.02 -.33q-.01 -.22 -.02 -.48q-.01 -.26 -.01 -.48v-2.77h.58v4.9z" stroke="none"/>
                        
                <path d="M28.1 29.88h-.62v-2.29h-2.51v2.29h-.61v-4.9h.61v2.07h2.51v-2.07h.62v4.9z" stroke="none"/>
                        
                <path d="M30.61 31.37h-1.94v-.3l.77 -.78q.22 -.22 .37 -.39q.15 -.18 .23 -.34q.08 -.17 .08 -.36q.0 -.24 -.15 -.37q-.14 -.13 -.37 -.13q-.21 .0 -.38 .08q-.16 .08 -.33 .21l-.19 -.24q.17 -.15 .39 -.25q.23 -.1 .51 -.1q.41 .0 .65 .21q.24 .21 .24 .58q.0 .23 -.1 .43q-.09 .2 -.26 .4q-.17 .2 -.39 .42l-.61 .6v.02h1.49v.33z" stroke="none"/>
                      
            </g>
                
            <line class="hi" id="mol1bnd11" stroke="#3050F8" x1="19.74" x2="16.99" y1="23.77" y2="19.005"/>
        </g>
          
    </g>
    
</svg>
