<svg xmlns="http://www.w3.org/2000/svg" xmlns:xlink="http://www.w3.org/1999/xlink" height="70.51mm" version="1.2" viewBox="0 0 68.05 70.51" width="68.05mm">
      
    <desc>Generated by the Chemistry Development Kit (http://github.com/cdk)</desc>
      
    <g fill="#3050F8" stroke="#000000" stroke-linecap="round" stroke-linejoin="round" stroke-width=".7">
            
        <rect fill="#FFFFFF" height="71.0" stroke="none" width="69.0" x=".0" y=".0"/>
            
        <g class="mol" id="mol1">
                  
            <line class="bond" id="mol1bnd1" x1="40.63" x2="40.63" y1="69.59" y2="54.36"/>
                  
            <line class="bond" id="mol1bnd2" x1="40.63" x2="27.44" y1="54.36" y2="46.75"/>
                  
            <line class="bond" id="mol1bnd3" x1="27.44" x2="27.44" y1="46.75" y2="31.51"/>
                  
            <line class="bond" id="mol1bnd4" x1="27.44" x2="17.51" y1="31.51" y2="25.79"/>
                  
            <line class="bond" id="mol1bnd5" x1="10.96" x2="1.04" y1="25.79" y2="31.51"/>
                  
            <line class="bond" id="mol1bnd6" x1="1.04" x2="1.04" y1="31.51" y2="46.75"/>
                  
            <line class="bond" id="mol1bnd7" x1="1.04" x2="11.09" y1="46.75" y2="52.54"/>
                  
            <line class="bond" id="mol1bnd8" x1="27.44" x2="17.39" y1="46.75" y2="52.54"/>
                  
            <line class="bond" id="mol1bnd9" x1="27.44" x2="40.63" y1="31.51" y2="23.9"/>
                  
            <g class="bond" id="mol1bnd10">
                        
                <line x1="40.62" x2="40.63" y1="8.66" y2="23.9"/>
                        
                <line x1="43.06" x2="43.07" y1="10.06" y2="22.49"/>
                      
            </g>
                  
            <line class="bond" id="mol1bnd11" x1="40.62" x2="53.81" y1="8.66" y2="1.04"/>
                  
            <g class="bond" id="mol1bnd12">
                        
                <line x1="67.01" x2="53.81" y1="8.66" y2="1.04"/>
                        
                <line x1="64.57" x2="53.81" y1="10.07" y2="3.85"/>
                      
            </g>
                  
            <line class="bond" id="mol1bnd13" x1="67.01" x2="67.02" y1="8.66" y2="23.9"/>
                  
            <g class="bond" id="mol1bnd14">
                        
                <line x1="53.83" x2="67.02" y1="31.52" y2="23.9"/>
                        
                <line x1="53.83" x2="64.58" y1="28.7" y2="22.49"/>
                      
            </g>
                  
            <line class="bond" id="mol1bnd15" x1="40.63" x2="53.83" y1="23.9" y2="31.52"/>
                  
            <path class="atom" d="M16.5 23.9q.0 .76 -.26 1.33q-.26 .57 -.76 .88q-.5 .32 -1.24 .32q-.76 .0 -1.26 -.32q-.51 -.32 -.76 -.89q-.24 -.57 -.24 -1.33q.0 -.75 .24 -1.31q.25 -.57 .76 -.88q.51 -.32 1.27 -.32q.73 .0 1.23 .32q.5 .31 .76 .88q.26 .57 .26 1.33zM12.63 23.9q.0 .92 .39 1.46q.39 .53 1.22 .53q.84 .0 1.22 -.53q.39 -.54 .39 -1.46q.0 -.93 -.39 -1.45q-.38 -.52 -1.21 -.52q-.83 .0 -1.23 .52q-.39 .52 -.39 1.45z" fill="#FF0D0D" id="mol1atm5" stroke="none"/>
                  
            <g class="atom" id="mol1atm8">
                        
                <path d="M16.18 56.81h-.72l-2.62 -4.07h-.03q.01 .24 .03 .6q.02 .36 .02 .73v2.74h-.57v-4.9h.71l2.61 4.05h.03q-.01 -.11 -.02 -.33q-.01 -.22 -.02 -.48q-.01 -.26 -.01 -.48v-2.77h.58v4.9z" stroke="none"/>
                        
                <path d="M16.04 62.27h-.62v-2.29h-2.51v2.29h-.61v-4.9h.61v2.07h2.51v-2.07h.62v4.9z" stroke="none"/>
                      
            </g>
                
            <line class="hi" id="mol1bnd4" stroke="#FF0D0D" x1="17.51" x2="22.475" y1="25.79" y2="28.65"/>
            <line class="hi" id="mol1bnd5" stroke="#FF0D0D" x1="10.96" x2="6.0" y1="25.79" y2="28.65"/>
            <line class="hi" id="mol1bnd7" stroke="#3050F8" x1="11.09" x2="6.0649999999999995" y1="52.54" y2="49.644999999999996"/>
            <line class="hi" id="mol1bnd8" stroke="#3050F8" x1="17.39" x2="22.415" y1="52.54" y2="49.644999999999996"/>
        </g>
          
    </g>
    
</svg>
