<svg xmlns="http://www.w3.org/2000/svg" xmlns:xlink="http://www.w3.org/1999/xlink" height="70.26mm" version="1.2" viewBox="0 0 126.31 70.26" width="126.31mm">
      
    <desc>Generated by the Chemistry Development Kit (http://github.com/cdk)</desc>
      
    <g fill="#FF0D0D" stroke="#000000" stroke-linecap="round" stroke-linejoin="round" stroke-width=".7">
            
        <rect fill="#FFFFFF" height="71.0" stroke="none" width="127.0" x=".0" y=".0"/>
            
        <g class="mol" id="mol1">
                  
            <line class="bond" id="mol1bnd1" x1="125.26" x2="115.46" y1="44.01" y2="55.69"/>
                  
            <line class="bond" id="mol1bnd2" x1="115.46" x2="100.44" y1="55.69" y2="53.05"/>
                  
            <line class="bond" id="mol1bnd3" x1="100.44" x2="95.23" y1="53.05" y2="38.73"/>
                  
            <line class="bond" id="mol1bnd4" x1="95.23" x2="105.03" y1="38.73" y2="27.05"/>
                  
            <line class="bond" id="mol1bnd5" x1="105.03" x2="120.05" y1="27.05" y2="29.69"/>
                  
            <line class="bond" id="mol1bnd6" x1="125.26" x2="120.05" y1="44.01" y2="29.69"/>
                  
            <line class="bond" id="mol1bnd7" x1="95.23" x2="85.43" y1="38.73" y2="27.05"/>
                  
            <g class="bond" id="mol1bnd8">
                        
                <line x1="70.41" x2="85.43" y1="29.71" y2="27.05"/>
                        
                <line x1="71.38" x2="83.62" y1="27.06" y2="24.9"/>
                      
            </g>
                  
            <line class="bond" id="mol1bnd9" x1="70.41" x2="60.62" y1="29.71" y2="18.03"/>
                  
            <g class="bond" id="mol1bnd10">
                        
                <line x1="65.84" x2="60.62" y1="3.71" y2="18.03"/>
                        
                <line x1="67.64" x2="63.39" y1="5.86" y2="17.55"/>
                      
            </g>
                  
            <line class="bond" id="mol1bnd11" x1="65.84" x2="80.85" y1="3.71" y2="1.05"/>
                  
            <g class="bond" id="mol1bnd12">
                        
                <line x1="90.65" x2="80.85" y1="12.73" y2="1.05"/>
                        
                <line x1="87.87" x2="79.89" y1="13.22" y2="3.7"/>
                      
            </g>
                  
            <line class="bond" id="mol1bnd13" x1="85.43" x2="90.65" y1="27.05" y2="12.73"/>
                  
            <line class="bond" id="mol1bnd14" x1="95.23" x2="82.03" y1="38.73" y2="46.35"/>
                  
            <g class="bond" id="mol1bnd15">
                        
                <line x1="83.25" x2="83.25" y1="45.65" y2="57.67"/>
                        
                <line x1="80.81" x2="80.81" y1="45.65" y2="57.67"/>
                      
                <line class="hi" stroke="#FF0D0D" x1="83.25" x2="83.25" y1="57.67" y2="51.66"/>
                <line class="hi" stroke="#FF0D0D" x1="80.81" x2="80.81" y1="57.67" y2="51.66"/>
            </g>
                  
            <line class="bond" id="mol1bnd16" x1="82.03" x2="72.1" y1="46.35" y2="40.62"/>
                  
            <line class="bond" id="mol1bnd17" x1="65.55" x2="55.63" y1="40.63" y2="46.35"/>
                  
            <line class="bond" id="mol1bnd18" x1="55.63" x2="42.43" y1="46.35" y2="38.74"/>
                  
            <line class="bond" id="mol1bnd19" x1="42.43" x2="32.39" y1="38.74" y2="44.54"/>
                  
            <line class="bond" id="mol1bnd20" x1="29.24" x2="29.24" y1="50.21" y2="61.6"/>
                  
            <line class="bond" id="mol1bnd21" x1="29.24" x2="16.03" y1="61.6" y2="69.22"/>
                  
            <line class="bond" id="mol1bnd22" x1="16.03" x2="6.1" y1="69.22" y2="63.49"/>
                  
            <line class="bond" id="mol1bnd23" x1="2.82" x2="2.82" y1="57.68" y2="46.36"/>
                  
            <line class="bond" id="mol1bnd24" x1="2.82" x2="16.03" y1="46.36" y2="38.74"/>
                  
            <line class="bond" id="mol1bnd25" x1="26.08" x2="16.03" y1="44.54" y2="38.74"/>
                  
            <path class="atom" d="M84.29 61.59q.0 .76 -.26 1.33q-.26 .57 -.76 .88q-.5 .32 -1.24 .32q-.76 .0 -1.26 -.32q-.51 -.32 -.76 -.89q-.24 -.57 -.24 -1.33q.0 -.75 .24 -1.31q.25 -.57 .76 -.88q.51 -.32 1.27 -.32q.73 .0 1.23 .32q.5 .31 .76 .88q.26 .57 .26 1.33zM80.43 61.59q.0 .92 .39 1.46q.39 .53 1.22 .53q.84 .0 1.22 -.53q.39 -.54 .39 -1.46q.0 -.93 -.39 -1.45q-.38 -.52 -1.21 -.52q-.83 .0 -1.23 .52q-.39 .52 -.39 1.45z" id="mol1atm14" stroke="none"/>
                  
            <path class="atom" d="M71.09 38.73q.0 .76 -.26 1.33q-.26 .57 -.76 .88q-.5 .32 -1.24 .32q-.76 .0 -1.26 -.32q-.51 -.32 -.76 -.89q-.24 -.57 -.24 -1.33q.0 -.75 .24 -1.31q.25 -.57 .76 -.88q.51 -.32 1.27 -.32q.73 .0 1.23 .32q.5 .31 .76 .88q.26 .57 .26 1.33zM67.22 38.73q.0 .92 .39 1.46q.39 .53 1.22 .53q.84 .0 1.22 -.53q.39 -.54 .39 -1.46q.0 -.93 -.39 -1.45q-.38 -.52 -1.21 -.52q-.83 .0 -1.23 .52q-.39 .52 -.39 1.45z" id="mol1atm15" stroke="none"/>
                  
            <path class="atom" d="M31.18 48.81h-.72l-2.62 -4.07h-.03q.01 .24 .03 .6q.02 .36 .02 .73v2.74h-.57v-4.9h.71l2.61 4.05h.03q-.01 -.11 -.02 -.33q-.01 -.22 -.02 -.48q-.01 -.26 -.01 -.48v-2.77h.58v4.9z" fill="#3050F8" id="mol1atm18" stroke="none"/>
                  
            <path class="atom" d="M5.08 61.6q.0 .76 -.26 1.33q-.26 .57 -.76 .88q-.5 .32 -1.24 .32q-.76 .0 -1.26 -.32q-.51 -.32 -.76 -.89q-.24 -.57 -.24 -1.33q.0 -.75 .24 -1.31q.25 -.57 .76 -.88q.51 -.32 1.27 -.32q.73 .0 1.23 .32q.5 .31 .76 .88q.26 .57 .26 1.33zM1.21 61.6q.0 .92 .39 1.46q.39 .53 1.22 .53q.84 .0 1.22 -.53q.39 -.54 .39 -1.46q.0 -.93 -.39 -1.45q-.38 -.52 -1.21 -.52q-.83 .0 -1.23 .52q-.39 .52 -.39 1.45z" id="mol1atm21" stroke="none"/>
                
            <line class="hi" id="mol1bnd16" stroke="#FF0D0D" x1="72.1" x2="77.065" y1="40.62" y2="43.485"/>
            <line class="hi" id="mol1bnd17" stroke="#FF0D0D" x1="65.55" x2="60.59" y1="40.63" y2="43.49"/>
            <line class="hi" id="mol1bnd19" stroke="#3050F8" x1="32.39" x2="37.41" y1="44.54" y2="41.64"/>
            <line class="hi" id="mol1bnd20" stroke="#3050F8" x1="29.24" x2="29.24" y1="50.21" y2="55.905"/>
            <line class="hi" id="mol1bnd22" stroke="#FF0D0D" x1="6.1" x2="11.065000000000001" y1="63.49" y2="66.355"/>
            <line class="hi" id="mol1bnd23" stroke="#FF0D0D" x1="2.82" x2="2.82" y1="57.68" y2="52.019999999999996"/>
            <line class="hi" id="mol1bnd25" stroke="#3050F8" x1="26.08" x2="21.055" y1="44.54" y2="41.64"/>
        </g>
          
    </g>
    
</svg>
