<svg xmlns="http://www.w3.org/2000/svg" xmlns:xlink="http://www.w3.org/1999/xlink" height="116.25mm" version="1.2" viewBox="0 0 94.49 116.25" width="94.49mm">
      
    <desc>Generated by the Chemistry Development Kit (http://github.com/cdk)</desc>
      
    <g fill="#FF0D0D" stroke="#000000" stroke-linecap="round" stroke-linejoin="round" stroke-width=".7">
            
        <rect fill="#FFFFFF" height="117.0" stroke="none" width="95.0" x=".0" y=".0"/>
            
        <g class="mol" id="mol1">
                  
            <line class="bond" id="mol1bnd1" x1="80.26" x2="80.26" y1=".91" y2="16.15"/>
                  
            <line class="bond" id="mol1bnd2" x1="80.26" x2="93.46" y1="16.15" y2="23.77"/>
                  
            <line class="bond" id="mol1bnd3" x1="80.26" x2="70.21" y1="16.15" y2="21.95"/>
                  
            <line class="bond" id="mol1bnd4" x1="67.06" x2="67.06" y1="27.62" y2="39.01"/>
                  
            <line class="bond" id="mol1bnd5" x1="67.06" x2="53.86" y1="39.01" y2="46.63"/>
                  
            <line class="bond" id="mol1bnd6" x1="53.86" x2="53.86" y1="46.63" y2="61.87"/>
                  
            <line class="bond" id="mol1bnd7" x1="53.86" x2="43.94" y1="61.87" y2="67.6"/>
                  
            <line class="bond" id="mol1bnd8" x1="40.66" x2="40.66" y1="73.41" y2="84.73"/>
                  
            <g class="bond" id="mol1bnd9">
                        
                <line x1="53.87" x2="40.66" y1="92.35" y2="84.73"/>
                        
                <line x1="51.43" x2="40.66" y1="93.76" y2="87.55"/>
                      
            </g>
                  
            <line class="bond" id="mol1bnd10" x1="53.87" x2="53.87" y1="92.35" y2="107.59"/>
                  
            <g class="bond" id="mol1bnd11">
                        
                <line x1="40.66" x2="53.87" y1="115.21" y2="107.59"/>
                        
                <line x1="40.66" x2="51.43" y1="112.39" y2="106.18"/>
                      
            </g>
                  
            <line class="bond" id="mol1bnd12" x1="40.66" x2="27.45" y1="115.21" y2="107.59"/>
                  
            <g class="bond" id="mol1bnd13">
                        
                <line x1="14.25" x2="27.45" y1="115.21" y2="107.59"/>
                        
                <line x1="14.25" x2="25.02" y1="112.39" y2="106.18"/>
                      
            </g>
                  
            <line class="bond" id="mol1bnd14" x1="14.25" x2="1.04" y1="115.21" y2="107.59"/>
                  
            <g class="bond" id="mol1bnd15">
                        
                <line x1="1.04" x2="1.04" y1="92.35" y2="107.59"/>
                        
                <line x1="3.48" x2="3.48" y1="93.76" y2="106.18"/>
                      
            </g>
                  
            <line class="bond" id="mol1bnd16" x1="1.04" x2="14.25" y1="92.35" y2="84.73"/>
                  
            <g class="bond" id="mol1bnd17">
                        
                <line x1="27.45" x2="14.25" y1="92.35" y2="84.73"/>
                        
                <line x1="25.02" x2="14.25" y1="93.76" y2="87.55"/>
                      
            </g>
                  
            <line class="bond" id="mol1bnd18" x1="27.45" x2="27.45" y1="107.59" y2="92.35"/>
                  
            <line class="bond" id="mol1bnd19" x1="40.66" x2="27.45" y1="84.73" y2="92.35"/>
                  
            <line class="bond" id="mol1bnd20" x1="53.86" x2="43.94" y1="46.63" y2="40.9"/>
                  
            <g class="atom" id="mol1atm4">
                        
                <path d="M69.0 26.22h-.72l-2.62 -4.07h-.03q.01 .24 .03 .6q.02 .36 .02 .73v2.74h-.57v-4.9h.71l2.61 4.05h.03q-.01 -.11 -.02 -.33q-.01 -.22 -.02 -.48q-.01 -.26 -.01 -.48v-2.77h.58v4.9z" fill="#3050F8" stroke="none"/>
                        
                <path d="M64.56 26.22h-.62v-2.29h-2.51v2.29h-.61v-4.9h.61v2.07h2.51v-2.07h.62v4.9z" fill="#3050F8" stroke="none"/>
                      
            </g>
                  
            <path class="atom" d="M42.92 69.49q.0 .76 -.26 1.33q-.26 .57 -.76 .88q-.5 .32 -1.24 .32q-.76 .0 -1.26 -.32q-.51 -.32 -.76 -.89q-.24 -.57 -.24 -1.33q.0 -.75 .24 -1.31q.25 -.57 .76 -.88q.51 -.32 1.27 -.32q.73 .0 1.23 .32q.5 .31 .76 .88q.26 .57 .26 1.33zM39.06 69.49q.0 .92 .39 1.46q.39 .53 1.22 .53q.84 .0 1.22 -.53q.39 -.54 .39 -1.46q.0 -.93 -.39 -1.45q-.38 -.52 -1.21 -.52q-.83 .0 -1.23 .52q-.39 .52 -.39 1.45z" id="mol1atm8" stroke="none"/>
                  
            <g class="atom" id="mol1atm19">
                        
                <path d="M42.92 39.01q.0 .76 -.26 1.33q-.26 .57 -.76 .88q-.5 .32 -1.24 .32q-.76 .0 -1.26 -.32q-.51 -.32 -.76 -.89q-.24 -.57 -.24 -1.33q.0 -.75 .24 -1.31q.25 -.57 .76 -.88q.51 -.32 1.27 -.32q.73 .0 1.23 .32q.5 .31 .76 .88q.26 .57 .26 1.33zM39.06 39.01q.0 .92 .39 1.46q.39 .53 1.22 .53q.84 .0 1.22 -.53q.39 -.54 .39 -1.46q.0 -.93 -.39 -1.45q-.38 -.52 -1.21 -.52q-.83 .0 -1.23 .52q-.39 .52 -.39 1.45z" stroke="none"/>
                        
                <path d="M37.84 41.46h-.62v-2.29h-2.51v2.29h-.61v-4.9h.61v2.07h2.51v-2.07h.62v4.9z" stroke="none"/>
                      
            </g>
                
            <line class="hi" id="mol1bnd3" stroke="#3050F8" x1="70.21" x2="75.235" y1="21.95" y2="19.049999999999997"/>
            <line class="hi" id="mol1bnd3" stroke="#3050F8" x1="70.21" x2="75.235" y1="21.95" y2="19.049999999999997"/>
            <line class="hi" id="mol1bnd4" stroke="#3050F8" x1="67.06" x2="67.06" y1="27.62" y2="33.315"/>
            <line class="hi" id="mol1bnd4" stroke="#3050F8" x1="67.06" x2="67.06" y1="27.62" y2="33.315"/>
            <line class="hi" id="mol1bnd7" stroke="#FF0D0D" x1="43.94" x2="48.9" y1="67.6" y2="64.735"/>
            <line class="hi" id="mol1bnd8" stroke="#FF0D0D" x1="40.66" x2="40.66" y1="73.41" y2="79.07"/>
            <line class="hi" id="mol1bnd20" stroke="#FF0D0D" x1="43.94" x2="48.9" y1="40.9" y2="43.765"/>
            <line class="hi" id="mol1bnd20" stroke="#FF0D0D" x1="43.94" x2="48.9" y1="40.9" y2="43.765"/>
        </g>
          
    </g>
    
</svg>
