<svg xmlns="http://www.w3.org/2000/svg" xmlns:xlink="http://www.w3.org/1999/xlink" height="49.85mm" version="1.2" viewBox="0 0 81.27 49.85" width="81.27mm">
      
    <desc>Generated by the Chemistry Development Kit (http://github.com/cdk)</desc>
      
    <g fill="#FF0D0D" stroke="#000000" stroke-linecap="round" stroke-linejoin="round" stroke-width=".7">
            
        <rect fill="#FFFFFF" height="50.0" stroke="none" width="82.0" x=".0" y=".0"/>
            
        <g class="mol" id="mol1">
                  
            <g class="bond" id="mol1bnd1">
                        
                <line x1="27.78" x2="27.08" y1="25.94" y2="25.94"/>
                        
                <line x1="28.08" x2="26.79" y1="28.48" y2="28.48"/>
                        
                <line x1="28.37" x2="26.5" y1="31.02" y2="31.02"/>
                        
                <line x1="28.66" x2="26.21" y1="33.56" y2="33.56"/>
                        
                <line x1="28.95" x2="25.92" y1="36.1" y2="36.1"/>
                        
                <line x1="29.24" x2="25.63" y1="38.64" y2="38.64"/>
                        
                <line x1="29.53" x2="25.33" y1="41.18" y2="41.18"/>
                      
            </g>
                  
            <line class="bond" id="mol1bnd2" x1="27.43" x2="40.63" y1="25.94" y2="18.32"/>
                  
            <line class="bond" id="mol1bnd3" x1="40.63" x2="53.83" y1="18.32" y2="25.94"/>
                  
            <g class="bond" id="mol1bnd4">
                        
                <line x1="67.03" x2="53.83" y1="18.31" y2="25.94"/>
                        
                <line x1="67.03" x2="56.27" y1="21.13" y2="27.35"/>
                      
            </g>
                  
            <line class="bond" id="mol1bnd5" x1="67.03" x2="80.23" y1="18.31" y2="25.93"/>
                  
            <g class="bond" id="mol1bnd6">
                        
                <line x1="80.23" x2="80.23" y1="41.18" y2="25.93"/>
                        
                <line x1="77.79" x2="77.79" y1="39.77" y2="27.34"/>
                      
            </g>
                  
            <line class="bond" id="mol1bnd7" x1="80.23" x2="67.02" y1="41.18" y2="48.81"/>
                  
            <g class="bond" id="mol1bnd8">
                        
                <line x1="53.83" x2="67.02" y1="41.19" y2="48.81"/>
                        
                <line x1="56.27" x2="67.02" y1="39.78" y2="45.99"/>
                      
            </g>
                  
            <line class="bond" id="mol1bnd9" x1="53.83" x2="53.83" y1="25.94" y2="41.19"/>
                  
            <path class="bond" d="M40.28 18.32h.7l1.3 -11.32h-1.65h-1.65z" fill="#000000" id="mol1bnd10" stroke="none"/>
                  
            <line class="bond" id="mol1bnd11" x1="27.43" x2="17.39" y1="25.94" y2="20.14"/>
                  
            <line class="bond" id="mol1bnd12" x1="11.08" x2="1.04" y1="20.14" y2="25.94"/>
                  
            <g class="atom" id="mol1atm10">
                        
                <path d="M42.89 3.08q.0 .76 -.26 1.33q-.26 .57 -.76 .88q-.5 .32 -1.24 .32q-.76 .0 -1.26 -.32q-.51 -.32 -.76 -.89q-.24 -.57 -.24 -1.33q.0 -.75 .24 -1.31q.25 -.57 .76 -.88q.51 -.32 1.27 -.32q.73 .0 1.23 .32q.5 .31 .76 .88q.26 .57 .26 1.33zM39.03 3.08q.0 .92 .39 1.46q.39 .53 1.22 .53q.84 .0 1.22 -.53q.39 -.54 .39 -1.46q.0 -.93 -.39 -1.45q-.38 -.52 -1.21 -.52q-.83 .0 -1.23 .52q-.39 .52 -.39 1.45z" stroke="none"/>
                        
                <path d="M47.2 5.53h-.62v-2.29h-2.51v2.29h-.61v-4.9h.61v2.07h2.51v-2.07h.62v4.9z" stroke="none"/>
                      
            </g>
                  
            <g class="atom" id="mol1atm11">
                        
                <path d="M16.18 20.77h-.72l-2.62 -4.07h-.03q.01 .24 .03 .6q.02 .36 .02 .73v2.74h-.57v-4.9h.71l2.61 4.05h.03q-.01 -.11 -.02 -.33q-.01 -.22 -.02 -.48q-.01 -.26 -.01 -.48v-2.77h.58v4.9z" fill="#3050F8" stroke="none"/>
                        
                <path d="M16.04 15.31h-.62v-2.29h-2.51v2.29h-.61v-4.9h.61v2.07h2.51v-2.07h.62v4.9z" fill="#3050F8" stroke="none"/>
                      
            </g>
                
            <line class="hi" id="mol1bnd11" stroke="#3050F8" x1="17.39" x2="22.41" y1="20.14" y2="23.04"/>
            <line class="hi" id="mol1bnd11" stroke="#3050F8" x1="17.39" x2="22.41" y1="20.14" y2="23.04"/>
            <line class="hi" id="mol1bnd12" stroke="#3050F8" x1="11.08" x2="6.0600000000000005" y1="20.14" y2="23.04"/>
            <line class="hi" id="mol1bnd12" stroke="#3050F8" x1="11.08" x2="6.0600000000000005" y1="20.14" y2="23.04"/>
        </g>
          
    </g>
    
</svg>
