<svg xmlns="http://www.w3.org/2000/svg" xmlns:xlink="http://www.w3.org/1999/xlink" height="73.76mm" version="1.2" viewBox="0 0 107.67 73.76" width="107.67mm">
      
    <desc>Generated by the Chemistry Development Kit (http://github.com/cdk)</desc>
      
    <g fill="#FF0D0D" stroke="#000000" stroke-linecap="round" stroke-linejoin="round" stroke-width=".7">
            
        <rect fill="#FFFFFF" height="74.0" stroke="none" width="108.0" x=".0" y=".0"/>
            
        <g class="mol" id="mol1">
                  
            <line class="bond" id="mol1bnd1" x1="1.04" x2="14.24" y1="54.39" y2="46.77"/>
                  
            <line class="bond" id="mol1bnd2" x1="14.24" x2="27.43" y1="46.77" y2="54.39"/>
                  
            <line class="bond" id="mol1bnd3" x1="27.43" x2="40.63" y1="54.39" y2="46.77"/>
                  
            <line class="bond" id="mol1bnd4" x1="40.63" x2="53.83" y1="46.77" y2="54.39"/>
                  
            <line class="bond" id="mol1bnd5" x1="53.83" x2="67.03" y1="54.39" y2="46.77"/>
                  
            <line class="bond" id="mol1bnd6" x1="67.03" x2="67.03" y1="46.77" y2="31.53"/>
                  
            <g class="bond" id="mol1bnd7">
                        
                <line x1="67.03" x2="56.5" y1="32.93" y2="26.85"/>
                        
                <line x1="68.25" x2="57.72" y1="30.82" y2="24.74"/>
                      
                <line class="hi" stroke="#FF0D0D" x1="56.5" x2="61.765" y1="26.85" y2="29.89"/>
                <line class="hi" stroke="#FF0D0D" x1="57.72" x2="62.985" y1="24.74" y2="27.78"/>
            </g>
                  
            <line class="bond" id="mol1bnd8" x1="67.03" x2="80.23" y1="31.53" y2="23.91"/>
                  
            <g class="bond" id="mol1bnd9">
                        
                <line x1="80.22" x2="80.23" y1="8.66" y2="23.91"/>
                        
                <line x1="82.66" x2="82.67" y1="10.07" y2="22.5"/>
                      
            </g>
                  
            <line class="bond" id="mol1bnd10" x1="80.22" x2="93.42" y1="8.66" y2="1.04"/>
                  
            <g class="bond" id="mol1bnd11">
                        
                <line x1="106.62" x2="93.42" y1="8.67" y2="1.04"/>
                        
                <line x1="104.19" x2="93.42" y1="10.07" y2="3.85"/>
                      
            </g>
                  
            <line class="bond" id="mol1bnd12" x1="106.62" x2="106.63" y1="8.67" y2="23.92"/>
                  
            <g class="bond" id="mol1bnd13">
                        
                <line x1="93.43" x2="106.63" y1="31.54" y2="23.92"/>
                        
                <line x1="93.43" x2="104.19" y1="28.72" y2="22.51"/>
                      
            </g>
                  
            <line class="bond" id="mol1bnd14" x1="80.23" x2="93.43" y1="23.91" y2="31.54"/>
                  
            <line class="bond" id="mol1bnd15" x1="67.03" x2="77.07" y1="46.77" y2="52.57"/>
                  
            <line class="bond" id="mol1bnd16" x1="83.45" x2="94.12" y1="52.95" y2="48.21"/>
                  
            <line class="bond" id="mol1bnd17" x1="94.12" x2="104.36" y1="48.21" y2="59.52"/>
                  
            <line class="bond" id="mol1bnd18" x1="104.36" x2="96.74" y1="59.52" y2="72.72"/>
                  
            <line class="bond" id="mol1bnd19" x1="96.74" x2="81.82" y1="72.72" y2="69.5"/>
                  
            <line class="bond" id="mol1bnd20" x1="80.63" x2="81.82" y1="58.23" y2="69.5"/>
                  
            <path class="atom" d="M56.09 23.9q.0 .76 -.26 1.33q-.26 .57 -.76 .88q-.5 .32 -1.24 .32q-.76 .0 -1.26 -.32q-.51 -.32 -.76 -.89q-.24 -.57 -.24 -1.33q.0 -.75 .24 -1.31q.25 -.57 .76 -.88q.51 -.32 1.27 -.32q.73 .0 1.23 .32q.5 .31 .76 .88q.26 .57 .26 1.33zM52.23 23.9q.0 .92 .39 1.46q.39 .53 1.22 .53q.84 .0 1.22 -.53q.39 -.54 .39 -1.46q.0 -.93 -.39 -1.45q-.38 -.52 -1.21 -.52q-.83 .0 -1.23 .52q-.39 .52 -.39 1.45z" id="mol1atm8" stroke="none"/>
                  
            <path class="atom" d="M82.17 56.84h-.72l-2.62 -4.07h-.03q.01 .24 .03 .6q.02 .36 .02 .73v2.74h-.57v-4.9h.71l2.61 4.05h.03q-.01 -.11 -.02 -.33q-.01 -.22 -.02 -.48q-.01 -.26 -.01 -.48v-2.77h.58v4.9z" fill="#3050F8" id="mol1atm15" stroke="none"/>
                
            <line class="hi" id="mol1bnd15" stroke="#3050F8" x1="77.07" x2="72.05" y1="52.57" y2="49.67"/>
            <line class="hi" id="mol1bnd16" stroke="#3050F8" x1="83.45" x2="88.785" y1="52.95" y2="50.58"/>
            <line class="hi" id="mol1bnd20" stroke="#3050F8" x1="80.63" x2="81.225" y1="58.23" y2="63.864999999999995"/>
        </g>
          
    </g>
    
</svg>
