<svg xmlns="http://www.w3.org/2000/svg" xmlns:xlink="http://www.w3.org/1999/xlink" height="117.11mm" version="1.2" viewBox="0 0 154.89 117.11" width="154.89mm">
      
    <desc>Generated by the Chemistry Development Kit (http://github.com/cdk)</desc>
      
    <g fill="#3050F8" stroke="#000000" stroke-linecap="round" stroke-linejoin="round" stroke-width=".7">
            
        <rect fill="#FFFFFF" height="118.0" stroke="none" width="155.0" x=".0" y=".0"/>
            
        <g class="mol" id="mol1">
                  
            <line class="bond" id="mol1bnd1" x1="128.43" x2="122.07" y1="110.83" y2="102.08"/>
                  
            <line class="bond" id="mol1bnd2" x1="121.12" x2="125.65" y1="94.77" y2="84.58"/>
                  
            <line class="bond" id="mol1bnd3" x1="116.13" x2="104.31" y1="98.85" y2="100.1"/>
                  
            <g class="bond" id="mol1bnd4">
                        
                <line x1="105.71" x2="100.84" y1="99.95" y2="110.9"/>
                        
                <line x1="103.48" x2="98.61" y1="98.96" y2="109.91"/>
                      
                <line class="hi" stroke="#FF0D0D" x1="100.84" x2="103.275" y1="110.9" y2="105.42500000000001"/>
                <line class="hi" stroke="#FF0D0D" x1="98.61" x2="101.045" y1="109.91" y2="104.435"/>
            </g>
                  
            <line class="bond" id="mol1bnd5" x1="104.31" x2="95.34" y1="100.1" y2="87.77"/>
                  
            <g class="bond" id="mol1bnd6">
                        
                <line x1="95.34" x2="98.79" y1="87.77" y2="77.13"/>
                        
                <line x1="93.57" x2="96.47" y1="85.34" y2="76.38"/>
                      
                <line class="hi" stroke="#3050F8" x1="98.79" x2="97.065" y1="77.13" y2="82.44999999999999"/>
                <line class="hi" stroke="#3050F8" x1="96.47" x2="95.02" y1="76.38" y2="80.86"/>
            </g>
                  
            <line class="bond" id="mol1bnd7" x1="96.95" x2="90.79" y1="71.09" y2="66.56"/>
                  
            <line class="bond" id="mol1bnd8" x1="84.65" x2="75.43" y1="66.56" y2="73.35"/>
                  
            <g class="bond" id="mol1bnd9">
                        
                <line x1="75.43" x2="78.88" y1="73.35" y2="83.99"/>
                        
                <line x1="78.29" x2="81.2" y1="74.27" y2="83.24"/>
                      
                <line class="hi" stroke="#3050F8" x1="78.88" x2="77.155" y1="83.99" y2="78.66999999999999"/>
                <line class="hi" stroke="#3050F8" x1="81.2" x2="79.745" y1="83.24" y2="78.755"/>
            </g>
                  
            <line class="bond" id="mol1bnd10" x1="95.34" x2="83.44" y1="87.77" y2="87.77"/>
                  
            <line class="bond" id="mol1bnd11" x1="75.43" x2="60.92" y1="73.35" y2="68.67"/>
                  
            <line class="bond" id="mol1bnd12" x1="60.92" x2="52.6" y1="68.67" y2="76.2"/>
                  
            <line class="bond" id="mol1bnd13" x1="46.35" x2="35.12" y1="77.85" y2="74.23"/>
                  
            <g class="bond" id="mol1bnd14">
                        
                <line x1="34.07" x2="31.56" y1="75.17" y2="63.47"/>
                        
                <line x1="36.46" x2="33.94" y1="74.66" y2="62.96"/>
                      
                <line class="hi" stroke="#FF0D0D" x1="31.56" x2="32.815" y1="63.47" y2="69.32"/>
                <line class="hi" stroke="#FF0D0D" x1="33.94" x2="35.2" y1="62.96" y2="68.81"/>
            </g>
                  
            <line class="bond" id="mol1bnd15" x1="35.12" x2="23.82" y1="74.23" y2="84.45"/>
                  
            <line class="bond" id="mol1bnd16" x1="23.82" x2="12.59" y1="84.45" y2="80.83"/>
                  
            <line class="bond" id="mol1bnd17" x1="87.72" x2="87.72" y1="60.46" y2="49.07"/>
                  
            <g class="bond" id="mol1bnd18">
                        
                <line x1="87.72" x2="100.93" y1="49.07" y2="41.44"/>
                        
                <line x1="87.72" x2="98.49" y1="46.25" y2="40.03"/>
                      
            </g>
                  
            <line class="bond" id="mol1bnd19" x1="100.93" x2="100.93" y1="41.44" y2="26.19"/>
                  
            <g class="bond" id="mol1bnd20">
                        
                <line x1="100.93" x2="87.74" y1="26.19" y2="18.57"/>
                        
                <line x1="98.5" x2="87.74" y1="27.6" y2="21.38"/>
                      
            </g>
                  
            <line class="bond" id="mol1bnd21" x1="87.74" x2="74.53" y1="18.57" y2="26.19"/>
                  
            <g class="bond" id="mol1bnd22">
                        
                <line x1="74.53" x2="74.53" y1="26.19" y2="41.44"/>
                        
                <line x1="76.97" x2="76.96" y1="27.6" y2="40.04"/>
                      
            </g>
                  
            <line class="bond" id="mol1bnd23" x1="87.72" x2="74.53" y1="49.07" y2="41.44"/>
                  
            <line class="bond" id="mol1bnd24" x1="87.74" x2="87.74" y1="18.57" y2="7.25"/>
                  
            <line class="bond" id="mol1bnd25" x1="100.93" x2="114.12" y1="41.44" y2="49.06"/>
                  
            <g class="bond" id="mol1bnd26">
                        
                <line x1="115.34" x2="115.34" y1="48.36" y2="60.38"/>
                        
                <line x1="112.91" x2="112.9" y1="48.36" y2="60.38"/>
                      
                <line class="hi" stroke="#FF0D0D" x1="115.34" x2="115.34" y1="60.38" y2="54.370000000000005"/>
                <line class="hi" stroke="#FF0D0D" x1="112.9" x2="112.905" y1="60.38" y2="54.370000000000005"/>
            </g>
                  
            <line class="bond" id="mol1bnd27" x1="114.12" x2="127.32" y1="49.06" y2="41.44"/>
                  
            <g class="bond" id="mol1bnd28">
                        
                <line x1="127.32" x2="127.32" y1="26.16" y2="41.44"/>
                        
                <line x1="129.76" x2="129.76" y1="27.58" y2="40.04"/>
                      
            </g>
                  
            <line class="bond" id="mol1bnd29" x1="127.32" x2="140.59" y1="26.16" y2="18.66"/>
                  
            <g class="bond" id="mol1bnd30">
                        
                <line x1="153.85" x2="140.59" y1="26.22" y2="18.66"/>
                        
                <line x1="151.4" x2="140.58" y1="27.63" y2="21.46"/>
                      
            </g>
                  
            <line class="bond" id="mol1bnd31" x1="153.85" x2="153.76" y1="26.22" y2="41.56"/>
                  
            <g class="bond" id="mol1bnd32">
                        
                <line x1="140.49" x2="153.76" y1="49.05" y2="41.56"/>
                        
                <line x1="140.51" x2="151.33" y1="46.25" y2="40.13"/>
                      
            </g>
                  
            <line class="bond" id="mol1bnd33" x1="127.32" x2="140.49" y1="41.44" y2="49.05"/>
                  
            <line class="bond" id="mol1bnd34" x1="140.49" x2="140.44" y1="49.05" y2="60.35"/>
                  
            <path class="atom" d="M121.4 100.95h-.72l-2.62 -4.07h-.03q.01 .24 .03 .6q.02 .36 .02 .73v2.74h-.57v-4.9h.71l2.61 4.05h.03q-.01 -.11 -.02 -.33q-.01 -.22 -.02 -.48q-.01 -.26 -.01 -.48v-2.77h.58v4.9z" id="mol1atm2" stroke="none"/>
                  
            <path class="atom" d="M100.37 114.02q.0 .76 -.26 1.33q-.26 .57 -.76 .88q-.5 .32 -1.24 .32q-.76 .0 -1.26 -.32q-.51 -.32 -.76 -.89q-.24 -.57 -.24 -1.33q.0 -.75 .24 -1.31q.25 -.57 .76 -.88q.51 -.32 1.27 -.32q.73 .0 1.23 .32q.5 .31 .76 .88q.26 .57 .26 1.33zM96.51 114.02q.0 .92 .39 1.46q.39 .53 1.22 .53q.84 .0 1.22 -.53q.39 -.54 .39 -1.46q.0 -.93 -.39 -1.45q-.38 -.52 -1.21 -.52q-.83 .0 -1.23 .52q-.39 .52 -.39 1.45z" fill="#FF0D0D" id="mol1atm5" stroke="none"/>
                  
            <path class="atom" d="M101.96 75.8h-.72l-2.62 -4.07h-.03q.01 .24 .03 .6q.02 .36 .02 .73v2.74h-.57v-4.9h.71l2.61 4.05h.03q-.01 -.11 -.02 -.33q-.01 -.22 -.02 -.48q-.01 -.26 -.01 -.48v-2.77h.58v4.9z" id="mol1atm7" stroke="none"/>
                  
            <path class="atom" d="M89.66 66.75h-.72l-2.62 -4.07h-.03q.01 .24 .03 .6q.02 .36 .02 .73v2.74h-.57v-4.9h.71l2.61 4.05h.03q-.01 -.11 -.02 -.33q-.01 -.22 -.02 -.48q-.01 -.26 -.01 -.48v-2.77h.58v4.9z" id="mol1atm8" stroke="none"/>
                  
            <path class="atom" d="M82.04 90.22h-.72l-2.62 -4.07h-.03q.01 .24 .03 .6q.02 .36 .02 .73v2.74h-.57v-4.9h.71l2.61 4.05h.03q-.01 -.11 -.02 -.33q-.01 -.22 -.02 -.48q-.01 -.26 -.01 -.48v-2.77h.58v4.9z" id="mol1atm10" stroke="none"/>
                  
            <g class="atom" id="mol1atm12">
                        
                <path d="M51.56 81.35h-.72l-2.62 -4.07h-.03q.01 .24 .03 .6q.02 .36 .02 .73v2.74h-.57v-4.9h.71l2.61 4.05h.03q-.01 -.11 -.02 -.33q-.01 -.22 -.02 -.48q-.01 -.26 -.01 -.48v-2.77h.58v4.9z" stroke="none"/>
                        
                <path d="M51.43 86.81h-.62v-2.29h-2.51v2.29h-.61v-4.9h.61v2.07h2.51v-2.07h.62v4.9z" stroke="none"/>
                      
            </g>
                  
            <path class="atom" d="M34.17 59.32q.0 .76 -.26 1.33q-.26 .57 -.76 .88q-.5 .32 -1.24 .32q-.76 .0 -1.26 -.32q-.51 -.32 -.76 -.89q-.24 -.57 -.24 -1.33q.0 -.75 .24 -1.31q.25 -.57 .76 -.88q.51 -.32 1.27 -.32q.73 .0 1.23 .32q.5 .31 .76 .88q.26 .57 .26 1.33zM30.31 59.32q.0 .92 .39 1.46q.39 .53 1.22 .53q.84 .0 1.22 -.53q.39 -.54 .39 -1.46q.0 -.93 -.39 -1.45q-.38 -.52 -1.21 -.52q-.83 .0 -1.23 .52q-.39 .52 -.39 1.45z" fill="#FF0D0D" id="mol1atm14" stroke="none"/>
                  
            <g class="atom" id="mol1atm16">
                        
                <path d="M11.25 82.23h-.72l-2.62 -4.07h-.03q.01 .24 .03 .6q.02 .36 .02 .73v2.74h-.57v-4.9h.71l2.61 4.05h.03q-.01 -.11 -.02 -.33q-.01 -.22 -.02 -.48q-.01 -.26 -.01 -.48v-2.77h.58v4.9z" stroke="none"/>
                        
                <path d="M4.3 82.23h-.62v-2.29h-2.51v2.29h-.61v-4.9h.61v2.07h2.51v-2.07h.62v4.9z" stroke="none"/>
                        
                <path d="M6.81 83.72h-1.94v-.3l.77 -.78q.22 -.22 .37 -.39q.15 -.18 .23 -.34q.08 -.17 .08 -.36q.0 -.24 -.15 -.37q-.14 -.13 -.37 -.13q-.21 .0 -.38 .08q-.16 .08 -.33 .21l-.19 -.24q.17 -.15 .39 -.25q.23 -.1 .51 -.1q.41 .0 .65 .21q.24 .21 .24 .58q.0 .23 -.1 .43q-.09 .2 -.26 .4q-.17 .2 -.39 .42l-.61 .6v.02h1.49v.33z" stroke="none"/>
                      
            </g>
                  
            <path class="atom" d="M88.23 1.35q-.79 .0 -1.24 .53q-.45 .52 -.45 1.45q.0 .91 .42 1.45q.42 .53 1.27 .53q.32 .0 .61 -.05q.29 -.06 .57 -.14v.54q-.27 .1 -.57 .15q-.29 .05 -.7 .05q-.74 .0 -1.25 -.31q-.5 -.31 -.75 -.88q-.25 -.57 -.25 -1.34q.0 -.74 .27 -1.31q.27 -.57 .8 -.88q.53 -.32 1.28 -.32q.78 .0 1.35 .29l-.24 .52q-.23 -.1 -.51 -.18q-.27 -.08 -.61 -.08zM90.99 5.77h-.6v-5.21h.6v5.21z" fill="#1FF01F" id="mol1atm23" stroke="none"/>
                  
            <path class="atom" d="M116.38 64.3q.0 .76 -.26 1.33q-.26 .57 -.76 .88q-.5 .32 -1.24 .32q-.76 .0 -1.26 -.32q-.51 -.32 -.76 -.89q-.24 -.57 -.24 -1.33q.0 -.75 .24 -1.31q.25 -.57 .76 -.88q.51 -.32 1.27 -.32q.73 .0 1.23 .32q.5 .31 .76 .88q.26 .57 .26 1.33zM112.52 64.3q.0 .92 .39 1.46q.39 .53 1.22 .53q.84 .0 1.22 -.53q.39 -.54 .39 -1.46q.0 -.93 -.39 -1.45q-.38 -.52 -1.21 -.52q-.83 .0 -1.23 .52q-.39 .52 -.39 1.45z" fill="#FF0D0D" id="mol1atm25" stroke="none"/>
                  
            <path class="atom" d="M140.91 62.32q-.79 .0 -1.24 .53q-.45 .52 -.45 1.45q.0 .91 .42 1.45q.42 .53 1.27 .53q.32 .0 .61 -.05q.29 -.06 .57 -.14v.54q-.27 .1 -.57 .15q-.29 .05 -.7 .05q-.74 .0 -1.25 -.31q-.5 -.31 -.75 -.88q-.25 -.57 -.25 -1.34q.0 -.74 .27 -1.31q.27 -.57 .8 -.88q.53 -.32 1.28 -.32q.78 .0 1.35 .29l-.24 .52q-.23 -.1 -.51 -.18q-.27 -.08 -.61 -.08zM143.67 66.74h-.6v-5.21h.6v5.21z" fill="#1FF01F" id="mol1atm32" stroke="none"/>
                
            <line class="hi" id="mol1bnd1" stroke="#3050F8" x1="122.07" x2="125.25" y1="102.08" y2="106.455"/>
            <line class="hi" id="mol1bnd2" stroke="#3050F8" x1="121.12" x2="123.385" y1="94.77" y2="89.675"/>
            <line class="hi" id="mol1bnd3" stroke="#3050F8" x1="116.13" x2="110.22" y1="98.85" y2="99.475"/>
            <line class="hi" id="mol1bnd7" stroke="#3050F8" x1="96.95" x2="93.87" y1="71.09" y2="68.825"/>
            <line class="hi" id="mol1bnd7" stroke="#3050F8" x1="90.79" x2="93.87" y1="66.56" y2="68.825"/>
            <line class="hi" id="mol1bnd8" stroke="#3050F8" x1="84.65" x2="80.04" y1="66.56" y2="69.955"/>
            <line class="hi" id="mol1bnd10" stroke="#3050F8" x1="83.44" x2="89.39" y1="87.77" y2="87.77"/>
            <line class="hi" id="mol1bnd12" stroke="#3050F8" x1="52.6" x2="56.760000000000005" y1="76.2" y2="72.435"/>
            <line class="hi" id="mol1bnd13" stroke="#3050F8" x1="46.35" x2="40.735" y1="77.85" y2="76.03999999999999"/>
            <line class="hi" id="mol1bnd16" stroke="#3050F8" x1="12.59" x2="18.205" y1="80.83" y2="82.64"/>
            <line class="hi" id="mol1bnd16" stroke="#3050F8" x1="12.59" x2="18.205" y1="80.83" y2="82.64"/>
            <line class="hi" id="mol1bnd17" stroke="#3050F8" x1="87.72" x2="87.72" y1="60.46" y2="54.765"/>
            <line class="hi" id="mol1bnd24" stroke="#1FF01F" x1="87.74" x2="87.74" y1="7.25" y2="12.91"/>
            <line class="hi" id="mol1bnd34" stroke="#1FF01F" x1="140.44" x2="140.465" y1="60.35" y2="54.7"/>
        </g>
          
    </g>
    
</svg>
