<svg xmlns="http://www.w3.org/2000/svg" xmlns:xlink="http://www.w3.org/1999/xlink" height="82.76mm" version="1.2" viewBox="0 0 121.83 82.76" width="121.83mm">
      
    <desc>Generated by the Chemistry Development Kit (http://github.com/cdk)</desc>
      
    <g fill="#000000" stroke="#000000" stroke-linecap="round" stroke-linejoin="round" stroke-width=".7">
            
        <rect fill="#FFFFFF" height="83.0" stroke="none" width="122.0" x=".0" y=".0"/>
            
        <g class="mol" id="mol1">
                  
            <line class="bond" id="mol1bnd1" x1="120.8" x2="98.05" y1="1.04" y2="14.11"/>
                  
            <path class="bond" d="M83.36 2.56l-.52 .47l7.94 10.81l1.24 -1.12l1.24 -1.12z" id="mol1bnd2" stroke="none"/>
                  
            <line class="bond" id="mol1bnd3" x1="83.1" x2="71.98" y1="2.8" y2="13.21"/>
                  
            <line class="bond" id="mol1bnd4" x1="71.98" x2="73.12" y1="13.21" y2="28.39"/>
                  
            <line class="bond" id="mol1bnd5" x1="73.12" x2="85.69" y1="28.39" y2="36.96"/>
                  
            <line class="bond" id="mol1bnd6" x1="85.69" x2="100.22" y1="36.96" y2="32.45"/>
                  
            <path class="bond" d="M99.88 32.56l.67 -.21l-2.81 -13.15l-1.62 .52l-1.62 .52z" id="mol1bnd7" stroke="none"/>
                  
            <line class="bond" id="mol1bnd8" x1="100.22" x2="105.79" y1="32.45" y2="18.32"/>
                  
            <line class="bond" id="mol1bnd9" x1="105.79" x2="98.17" y1="18.32" y2="5.12"/>
                  
            <line class="bond" id="mol1bnd10" x1="83.1" x2="98.17" y1="2.8" y2="5.12"/>
                  
            <path class="bond" d="M98.17 4.77v.7l11.58 1.33v-1.68v-1.68z" id="mol1bnd11" stroke="none"/>
                  
            <path class="bond" d="M105.48 18.15l.61 .35l6.77 -9.14l-1.43 -.82l-1.43 -.82z" id="mol1bnd12" stroke="none"/>
                  
            <line class="bond" id="mol1bnd13" x1="73.12" x2="63.2" y1="28.39" y2="34.11"/>
                  
            <line class="bond" id="mol1bnd14" x1="56.63" x2="46.72" y1="34.11" y2="28.39"/>
                  
            <g class="bond" id="mol1bnd15">
                        
                <line x1="45.5" x2="45.5" y1="29.09" y2="17.07"/>
                        
                <line x1="47.94" x2="47.94" y1="29.09" y2="17.07"/>
                      
                <line class="hi" stroke="#FF0D0D" x1="45.5" x2="45.5" y1="17.07" y2="23.08"/>
                <line class="hi" stroke="#FF0D0D" x1="47.94" x2="47.94" y1="17.07" y2="23.08"/>
            </g>
                  
            <line class="bond" id="mol1bnd16" x1="46.72" x2="33.52" y1="28.39" y2="36.01"/>
                  
            <path class="bond" d="M33.35 36.31l.35 -.61l-11.75 -8.66l-1.97 1.14l-2.25 1.3z" id="mol1bnd17" stroke="none"/>
                  
            <line class="bond" id="mol1bnd18" x1="20.32" x2="10.4" y1="28.39" y2="34.11"/>
                  
            <line class="bond" id="mol1bnd19" x1="33.52" x2="33.52" y1="36.01" y2="51.25"/>
                  
            <g class="bond" id="mol1bnd20">
                        
                <line x1="46.73" x2="33.52" y1="58.87" y2="51.25"/>
                        
                <line x1="44.29" x2="33.52" y1="60.27" y2="54.06"/>
                      
            </g>
                  
            <line class="bond" id="mol1bnd21" x1="46.73" x2="46.73" y1="58.87" y2="74.11"/>
                  
            <g class="bond" id="mol1bnd22">
                        
                <line x1="33.52" x2="46.73" y1="81.73" y2="74.11"/>
                        
                <line x1="33.52" x2="44.29" y1="78.91" y2="72.7"/>
                      
            </g>
                  
            <line class="bond" id="mol1bnd23" x1="33.52" x2="20.31" y1="81.73" y2="74.11"/>
                  
            <g class="bond" id="mol1bnd24">
                        
                <line x1="20.31" x2="20.31" y1="58.87" y2="74.11"/>
                        
                <line x1="22.75" x2="22.75" y1="60.27" y2="72.7"/>
                      
            </g>
                  
            <line class="bond" id="mol1bnd25" x1="33.52" x2="20.31" y1="51.25" y2="58.87"/>
                  
            <path class="atom" d="M96.84 18.38h-.72l-2.62 -4.07h-.03q.01 .24 .03 .6q.02 .36 .02 .73v2.74h-.57v-4.9h.71l2.61 4.05h.03q-.01 -.11 -.02 -.33q-.01 -.22 -.02 -.48q-.01 -.26 -.01 -.48v-2.77h.58v4.9z" fill="#3050F8" id="mol1atm2" stroke="none"/>
                  
            <path class="atom" d="M115.67 5.12q.0 .76 -.26 1.33q-.26 .57 -.76 .88q-.5 .32 -1.24 .32q-.76 .0 -1.26 -.32q-.51 -.32 -.76 -.89q-.24 -.57 -.24 -1.33q.0 -.75 .24 -1.31q.25 -.57 .76 -.88q.51 -.32 1.27 -.32q.73 .0 1.23 .32q.5 .31 .76 .88q.26 .57 .26 1.33zM111.8 5.12q.0 .92 .39 1.46q.39 .53 1.22 .53q.84 .0 1.22 -.53q.39 -.54 .39 -1.46q.0 -.93 -.39 -1.45q-.38 -.52 -1.21 -.52q-.83 .0 -1.23 .52q-.39 .52 -.39 1.45z" fill="#FF0D0D" id="mol1atm10" stroke="none"/>
                  
            <path class="atom" d="M62.18 36.0q.0 .76 -.26 1.33q-.26 .57 -.76 .88q-.5 .32 -1.24 .32q-.76 .0 -1.26 -.32q-.51 -.32 -.76 -.89q-.24 -.57 -.24 -1.33q.0 -.75 .24 -1.31q.25 -.57 .76 -.88q.51 -.32 1.27 -.32q.73 .0 1.23 .32q.5 .31 .76 .88q.26 .57 .26 1.33zM58.31 36.0q.0 .92 .39 1.46q.39 .53 1.22 .53q.84 .0 1.22 -.53q.39 -.54 .39 -1.46q.0 -.93 -.39 -1.45q-.38 -.52 -1.21 -.52q-.83 .0 -1.23 .52q-.39 .52 -.39 1.45z" fill="#FF0D0D" id="mol1atm11" stroke="none"/>
                  
            <path class="atom" d="M48.98 13.14q.0 .76 -.26 1.33q-.26 .57 -.76 .88q-.5 .32 -1.24 .32q-.76 .0 -1.26 -.32q-.51 -.32 -.76 -.89q-.24 -.57 -.24 -1.33q.0 -.75 .24 -1.31q.25 -.57 .76 -.88q.51 -.32 1.27 -.32q.73 .0 1.23 .32q.5 .31 .76 .88q.26 .57 .26 1.33zM45.12 13.14q.0 .92 .39 1.46q.39 .53 1.22 .53q.84 .0 1.22 -.53q.39 -.54 .39 -1.46q.0 -.93 -.39 -1.45q-.38 -.52 -1.21 -.52q-.83 .0 -1.23 .52q-.39 .52 -.39 1.45z" fill="#FF0D0D" id="mol1atm13" stroke="none"/>
                  
            <g class="atom" id="mol1atm16">
                        
                <path d="M9.38 36.0q.0 .76 -.26 1.33q-.26 .57 -.76 .88q-.5 .32 -1.24 .32q-.76 .0 -1.26 -.32q-.51 -.32 -.76 -.89q-.24 -.57 -.24 -1.33q.0 -.75 .24 -1.31q.25 -.57 .76 -.88q.51 -.32 1.27 -.32q.73 .0 1.23 .32q.5 .31 .76 .88q.26 .57 .26 1.33zM5.52 36.0q.0 .92 .39 1.46q.39 .53 1.22 .53q.84 .0 1.22 -.53q.39 -.54 .39 -1.46q.0 -.93 -.39 -1.45q-.38 -.52 -1.21 -.52q-.83 .0 -1.23 .52q-.39 .52 -.39 1.45z" fill="#FF0D0D" stroke="none"/>
                        
                <path d="M4.3 38.46h-.62v-2.29h-2.51v2.29h-.61v-4.9h.61v2.07h2.51v-2.07h.62v4.9z" fill="#FF0D0D" stroke="none"/>
                      
            </g>
                
            <line class="hi" id="mol1bnd1" stroke="#3050F8" x1="98.05" x2="109.425" y1="14.11" y2="7.574999999999999"/>
            <line class="hi" id="mol1bnd1" stroke="#FF0D0D" x1="115.18070332925907" x2="109.425" y1="4.2683168125970905" y2="7.574999999999999"/>
            <line class="hi" id="mol1bnd13" stroke="#FF0D0D" x1="63.2" x2="68.16" y1="34.11" y2="31.25"/>
            <line class="hi" id="mol1bnd14" stroke="#FF0D0D" x1="56.63" x2="51.675" y1="34.11" y2="31.25"/>
            <line class="hi" id="mol1bnd18" stroke="#FF0D0D" x1="10.4" x2="15.36" y1="34.11" y2="31.25"/>
            <line class="hi" id="mol1bnd18" stroke="#FF0D0D" x1="10.4" x2="15.36" y1="34.11" y2="31.25"/>
        </g>
          
    </g>
    
</svg>
