<svg xmlns="http://www.w3.org/2000/svg" xmlns:xlink="http://www.w3.org/1999/xlink" height="72.66mm" version="1.2" viewBox="0 0 93.09 72.66" width="93.09mm">
      
    <desc>Generated by the Chemistry Development Kit (http://github.com/cdk)</desc>
      
    <g fill="#3050F8" stroke="#000000" stroke-linecap="round" stroke-linejoin="round" stroke-width=".7">
            
        <rect fill="#FFFFFF" height="73.0" stroke="none" width="94.0" x=".0" y=".0"/>
            
        <g class="mol" id="mol1">
                  
            <line class="bond" id="mol1bnd1" x1="1.05" x2="10.85" y1="49.39" y2="37.72"/>
                  
            <line class="bond" id="mol1bnd2" x1="10.85" x2="25.86" y1="37.72" y2="40.36"/>
                  
            <line class="bond" id="mol1bnd3" x1="25.86" x2="35.65" y1="40.36" y2="28.69"/>
                  
            <line class="bond" id="mol1bnd4" x1="35.65" x2="30.44" y1="28.69" y2="14.37"/>
                  
            <line class="bond" id="mol1bnd5" x1="35.65" x2="50.66" y1="28.69" y2="31.33"/>
                  
            <line class="bond" id="mol1bnd6" x1="50.66" x2="50.66" y1="31.33" y2="16.09"/>
                  
            <g class="bond" id="mol1bnd7">
                        
                <line x1="50.66" x2="40.13" y1="17.5" y2="11.42"/>
                        
                <line x1="51.88" x2="41.35" y1="15.39" y2="9.3"/>
                      
                <line class="hi" stroke="#FF0D0D" x1="40.13" x2="45.394999999999996" y1="11.42" y2="14.46"/>
                <line class="hi" stroke="#FF0D0D" x1="41.35" x2="46.615" y1="9.3" y2="12.345"/>
            </g>
                  
            <line class="bond" id="mol1bnd8" x1="50.66" x2="60.71" y1="16.09" y2="10.29"/>
                  
            <line class="bond" id="mol1bnd9" x1="67.02" x2="77.08" y1="10.29" y2="16.09"/>
                  
            <g class="bond" id="mol1bnd10">
                        
                <line x1="75.86" x2="86.38" y1="15.39" y2="9.31"/>
                        
                <line x1="77.08" x2="87.6" y1="17.5" y2="11.42"/>
                      
                <line class="hi" stroke="#FF0D0D" x1="86.38" x2="81.12" y1="9.31" y2="12.350000000000001"/>
                <line class="hi" stroke="#FF0D0D" x1="87.6" x2="82.34" y1="11.42" y2="14.46"/>
            </g>
                  
            <line class="bond" id="mol1bnd11" x1="77.08" x2="77.08" y1="16.09" y2="27.48"/>
                  
            <line class="bond" id="mol1bnd12" x1="73.92" x2="63.87" y1="33.15" y2="38.95"/>
                  
            <line class="bond" id="mol1bnd13" x1="50.66" x2="63.87" y1="31.33" y2="38.95"/>
                  
            <g class="bond" id="mol1bnd14">
                        
                <line x1="65.09" x2="65.09" y1="38.25" y2="50.27"/>
                        
                <line x1="62.65" x2="62.65" y1="38.25" y2="50.27"/>
                      
                <line class="hi" stroke="#FF0D0D" x1="65.09" x2="65.09" y1="50.27" y2="44.260000000000005"/>
                <line class="hi" stroke="#FF0D0D" x1="62.65" x2="62.65" y1="50.27" y2="44.260000000000005"/>
            </g>
                  
            <line class="bond" id="mol1bnd15" x1="50.66" x2="45.45" y1="31.33" y2="45.65"/>
                  
            <line class="bond" id="mol1bnd16" x1="45.45" x2="55.25" y1="45.65" y2="57.33"/>
                  
            <g class="bond" id="mol1bnd17">
                        
                <line x1="55.25" x2="50.04" y1="57.33" y2="71.65"/>
                        
                <line x1="52.48" x2="47.75" y1="57.81" y2="70.81"/>
                      
            </g>
                  
            <path class="atom" d="M39.72 8.47q.0 .76 -.26 1.33q-.26 .57 -.76 .88q-.5 .32 -1.24 .32q-.76 .0 -1.26 -.32q-.51 -.32 -.76 -.89q-.24 -.57 -.24 -1.33q.0 -.75 .24 -1.31q.25 -.57 .76 -.88q.51 -.32 1.27 -.32q.73 .0 1.23 .32q.5 .31 .76 .88q.26 .57 .26 1.33zM35.86 8.47q.0 .92 .39 1.46q.39 .53 1.22 .53q.84 .0 1.22 -.53q.39 -.54 .39 -1.46q.0 -.93 -.39 -1.45q-.38 -.52 -1.21 -.52q-.83 .0 -1.23 .52q-.39 .52 -.39 1.45z" fill="#FF0D0D" id="mol1atm8" stroke="none"/>
                  
            <g class="atom" id="mol1atm9">
                        
                <path d="M65.81 10.92h-.72l-2.62 -4.07h-.03q.01 .24 .03 .6q.02 .36 .02 .73v2.74h-.57v-4.9h.71l2.61 4.05h.03q-.01 -.11 -.02 -.33q-.01 -.22 -.02 -.48q-.01 -.26 -.01 -.48v-2.77h.58v4.9z" stroke="none"/>
                        
                <path d="M65.67 5.46h-.62v-2.29h-2.51v2.29h-.61v-4.9h.61v2.07h2.51v-2.07h.62v4.9z" stroke="none"/>
                      
            </g>
                  
            <path class="atom" d="M92.53 8.47q.0 .76 -.26 1.33q-.26 .57 -.76 .88q-.5 .32 -1.24 .32q-.76 .0 -1.26 -.32q-.51 -.32 -.76 -.89q-.24 -.57 -.24 -1.33q.0 -.75 .24 -1.31q.25 -.57 .76 -.88q.51 -.32 1.27 -.32q.73 .0 1.23 .32q.5 .31 .76 .88q.26 .57 .26 1.33zM88.67 8.47q.0 .92 .39 1.46q.39 .53 1.22 .53q.84 .0 1.22 -.53q.39 -.54 .39 -1.46q.0 -.93 -.39 -1.45q-.38 -.52 -1.21 -.52q-.83 .0 -1.23 .52q-.39 .52 -.39 1.45z" fill="#FF0D0D" id="mol1atm11" stroke="none"/>
                  
            <g class="atom" id="mol1atm12">
                        
                <path d="M79.02 33.78h-.72l-2.62 -4.07h-.03q.01 .24 .03 .6q.02 .36 .02 .73v2.74h-.57v-4.9h.71l2.61 4.05h.03q-.01 -.11 -.02 -.33q-.01 -.22 -.02 -.48q-.01 -.26 -.01 -.48v-2.77h.58v4.9z" stroke="none"/>
                        
                <path d="M83.32 33.78h-.62v-2.29h-2.51v2.29h-.61v-4.9h.61v2.07h2.51v-2.07h.62v4.9z" stroke="none"/>
                      
            </g>
                  
            <path class="atom" d="M66.13 54.19q.0 .76 -.26 1.33q-.26 .57 -.76 .88q-.5 .32 -1.24 .32q-.76 .0 -1.26 -.32q-.51 -.32 -.76 -.89q-.24 -.57 -.24 -1.33q.0 -.75 .24 -1.31q.25 -.57 .76 -.88q.51 -.32 1.27 -.32q.73 .0 1.23 .32q.5 .31 .76 .88q.26 .57 .26 1.33zM62.26 54.19q.0 .92 .39 1.46q.39 .53 1.22 .53q.84 .0 1.22 -.53q.39 -.54 .39 -1.46q.0 -.93 -.39 -1.45q-.38 -.52 -1.21 -.52q-.83 .0 -1.23 .52q-.39 .52 -.39 1.45z" fill="#FF0D0D" id="mol1atm14" stroke="none"/>
                
            <line class="hi" id="mol1bnd8" stroke="#3050F8" x1="60.71" x2="55.685" y1="10.29" y2="13.19"/>
            <line class="hi" id="mol1bnd8" stroke="#3050F8" x1="60.71" x2="55.685" y1="10.29" y2="13.19"/>
            <line class="hi" id="mol1bnd9" stroke="#3050F8" x1="67.02" x2="72.05" y1="10.29" y2="13.19"/>
            <line class="hi" id="mol1bnd9" stroke="#3050F8" x1="67.02" x2="72.05" y1="10.29" y2="13.19"/>
            <line class="hi" id="mol1bnd11" stroke="#3050F8" x1="77.08" x2="77.08" y1="27.48" y2="21.785"/>
            <line class="hi" id="mol1bnd12" stroke="#3050F8" x1="73.92" x2="68.895" y1="33.15" y2="36.05"/>
        </g>
          
    </g>
    
</svg>
