<svg xmlns="http://www.w3.org/2000/svg" xmlns:xlink="http://www.w3.org/1999/xlink" height="129.21mm" version="1.2" viewBox="0 0 93.48 129.21" width="93.48mm">
      
    <desc>Generated by the Chemistry Development Kit (http://github.com/cdk)</desc>
      
    <g fill="#3050F8" stroke="#000000" stroke-linecap="round" stroke-linejoin="round" stroke-width=".7">
            
        <rect fill="#FFFFFF" height="130.0" stroke="none" width="94.0" x=".0" y=".0"/>
            
        <g class="mol" id="mol1">
                  
            <line class="bond" id="mol1bnd1" x1="14.28" x2="27.46" y1="1.04" y2="8.68"/>
                  
            <line class="bond" id="mol1bnd2" x1="27.46" x2="27.44" y1="8.68" y2="20.07"/>
                  
            <line class="bond" id="mol1bnd3" x1="30.59" x2="40.62" y1="25.75" y2="31.57"/>
                  
            <g class="bond" id="mol1bnd4">
                        
                <line x1="53.84" x2="40.62" y1="23.97" y2="31.57"/>
                        
                <line x1="53.83" x2="43.06" y1="26.79" y2="32.98"/>
                      
            </g>
                  
            <line class="bond" id="mol1bnd5" x1="53.84" x2="66.93" y1="23.97" y2="31.61"/>
                  
            <g class="bond" id="mol1bnd6">
                        
                <line x1="66.91" x2="66.93" y1="46.85" y2="31.61"/>
                        
                <line x1="64.47" x2="64.49" y1="45.44" y2="33.01"/>
                      
            </g>
                  
            <line class="bond" id="mol1bnd7" x1="66.91" x2="53.79" y1="46.85" y2="54.45"/>
                  
            <g class="bond" id="mol1bnd8">
                        
                <line x1="40.59" x2="53.79" y1="46.81" y2="54.45"/>
                        
                <line x1="43.03" x2="53.79" y1="45.4" y2="51.63"/>
                      
            </g>
                  
            <line class="bond" id="mol1bnd9" x1="40.62" x2="40.59" y1="31.57" y2="46.81"/>
                  
            <line class="bond" id="mol1bnd10" x1="53.79" x2="53.79" y1="54.45" y2="69.69"/>
                  
            <g class="bond" id="mol1bnd11">
                        
                <line x1="53.79" x2="40.58" y1="69.69" y2="77.31"/>
                        
                <line x1="53.79" x2="43.02" y1="72.5" y2="78.72"/>
                      
            </g>
                  
            <line class="bond" id="mol1bnd12" x1="40.58" x2="40.58" y1="77.31" y2="92.55"/>
                  
            <g class="bond" id="mol1bnd13">
                        
                <line x1="40.58" x2="50.64" y1="92.55" y2="98.35"/>
                        
                <line x1="43.02" x2="51.85" y1="91.14" y2="96.24"/>
                      
                <line class="hi" stroke="#3050F8" x1="50.64" x2="45.61" y1="98.35" y2="95.44999999999999"/>
                <line class="hi" stroke="#3050F8" x1="51.85" x2="47.435" y1="96.24" y2="93.69"/>
            </g>
                  
            <line class="bond" id="mol1bnd14" x1="56.94" x2="67.0" y1="98.35" y2="92.55"/>
                  
            <g class="bond" id="mol1bnd15">
                        
                <line x1="67.0" x2="81.53" y1="92.55" y2="97.22"/>
                        
                <line x1="69.44" x2="80.59" y1="90.77" y2="94.36"/>
                      
            </g>
                  
            <line class="bond" id="mol1bnd16" x1="81.53" x2="90.47" y1="97.22" y2="84.93"/>
                  
            <g class="bond" id="mol1bnd17">
                        
                <line x1="90.47" x2="84.13" y1="84.93" y2="76.22"/>
                        
                <line x1="87.45" x2="82.16" y1="84.93" y2="77.65"/>
                      
                <line class="hi" stroke="#3050F8" x1="84.13" x2="87.3" y1="76.22" y2="80.575"/>
                <line class="hi" stroke="#3050F8" x1="82.16" x2="84.805" y1="77.65" y2="81.29"/>
            </g>
                  
            <line class="bond" id="mol1bnd18" x1="78.25" x2="70.27" y1="73.69" y2="76.26"/>
                  
            <line class="bond" id="mol1bnd19" x1="53.79" x2="63.84" y1="69.69" y2="75.49"/>
                  
            <line class="bond" id="mol1bnd20" x1="67.0" x2="67.0" y1="92.55" y2="81.16"/>
                  
            <line class="bond" id="mol1bnd21" x1="81.53" x2="86.25" y1="97.22" y2="111.71"/>
                  
            <g class="bond" id="mol1bnd22">
                        
                <line x1="86.25" x2="89.75" y1="111.71" y2="122.42"/>
                        
                <line x1="88.57" x2="92.06" y1="110.95" y2="121.66"/>
                        
                <line x1="83.93" x2="87.43" y1="112.47" y2="123.17"/>
                      
                <line class="hi" stroke="#3050F8" x1="89.75" x2="88.0" y1="122.42" y2="117.065"/>
                <line class="hi" stroke="#3050F8" x1="92.06" x2="90.315" y1="121.66" y2="116.305"/>
                <line class="hi" stroke="#3050F8" x1="87.43" x2="85.68" y1="123.17" y2="117.82"/>
            </g>
                  
            <line class="bond" id="mol1bnd23" x1="24.28" x2="14.22" y1="25.74" y2="31.52"/>
                  
            <g class="bond" id="mol1bnd24">
                        
                <line x1="15.44" x2="15.42" y1="30.82" y2="42.84"/>
                        
                <line x1="13.0" x2="12.98" y1="30.81" y2="42.83"/>
                      
                <line class="hi" stroke="#FF0D0D" x1="15.42" x2="15.43" y1="42.84" y2="36.83"/>
                <line class="hi" stroke="#FF0D0D" x1="12.98" x2="12.99" y1="42.83" y2="36.82"/>
            </g>
                  
            <line class="bond" id="mol1bnd25" x1="14.22" x2="1.04" y1="31.52" y2="23.87"/>
                  
            <path class="atom" d="M29.38 26.37h-.72l-2.62 -4.07h-.03q.01 .24 .03 .6q.02 .36 .02 .73v2.74h-.57v-4.9h.71l2.61 4.05h.03q-.01 -.11 -.02 -.33q-.01 -.22 -.02 -.48q-.01 -.26 -.01 -.48v-2.77h.58v4.9z" id="mol1atm3" stroke="none"/>
                  
            <path class="atom" d="M55.73 102.62h-.72l-2.62 -4.07h-.03q.01 .24 .03 .6q.02 .36 .02 .73v2.74h-.57v-4.9h.71l2.61 4.05h.03q-.01 -.11 -.02 -.33q-.01 -.22 -.02 -.48q-.01 -.26 -.01 -.48v-2.77h.58v4.9z" id="mol1atm13" stroke="none"/>
                  
            <path class="atom" d="M83.47 75.08h-.72l-2.62 -4.07h-.03q.01 .24 .03 .6q.02 .36 .02 .73v2.74h-.57v-4.9h.71l2.61 4.05h.03q-.01 -.11 -.02 -.33q-.01 -.22 -.02 -.48q-.01 -.26 -.01 -.48v-2.77h.58v4.9z" id="mol1atm17" stroke="none"/>
                  
            <path class="atom" d="M68.94 79.76h-.72l-2.62 -4.07h-.03q.01 .24 .03 .6q.02 .36 .02 .73v2.74h-.57v-4.9h.71l2.61 4.05h.03q-.01 -.11 -.02 -.33q-.01 -.22 -.02 -.48q-.01 -.26 -.01 -.48v-2.77h.58v4.9z" id="mol1atm18" stroke="none"/>
                  
            <path class="atom" d="M92.92 128.65h-.72l-2.62 -4.07h-.03q.01 .24 .03 .6q.02 .36 .02 .73v2.74h-.57v-4.9h.71l2.61 4.05h.03q-.01 -.11 -.02 -.33q-.01 -.22 -.02 -.48q-.01 -.26 -.01 -.48v-2.77h.58v4.9z" id="mol1atm20" stroke="none"/>
                  
            <path class="atom" d="M16.45 46.76q.0 .76 -.26 1.33q-.26 .57 -.76 .88q-.5 .32 -1.24 .32q-.76 .0 -1.26 -.32q-.51 -.32 -.76 -.89q-.24 -.57 -.24 -1.33q.0 -.75 .24 -1.31q.25 -.57 .76 -.88q.51 -.32 1.27 -.32q.73 .0 1.23 .32q.5 .31 .76 .88q.26 .57 .26 1.33zM12.59 46.76q.0 .92 .39 1.46q.39 .53 1.22 .53q.84 .0 1.22 -.53q.39 -.54 .39 -1.46q.0 -.93 -.39 -1.45q-.38 -.52 -1.21 -.52q-.83 .0 -1.23 .52q-.39 .52 -.39 1.45z" fill="#FF0D0D" id="mol1atm22" stroke="none"/>
                
            <line class="hi" id="mol1bnd2" stroke="#3050F8" x1="27.44" x2="27.450000000000003" y1="20.07" y2="14.375"/>
            <line class="hi" id="mol1bnd3" stroke="#3050F8" x1="30.59" x2="35.605" y1="25.75" y2="28.66"/>
            <line class="hi" id="mol1bnd14" stroke="#3050F8" x1="56.94" x2="61.97" y1="98.35" y2="95.44999999999999"/>
            <line class="hi" id="mol1bnd18" stroke="#3050F8" x1="78.25" x2="74.25999999999999" y1="73.69" y2="74.975"/>
            <line class="hi" id="mol1bnd18" stroke="#3050F8" x1="70.27" x2="74.25999999999999" y1="76.26" y2="74.975"/>
            <line class="hi" id="mol1bnd19" stroke="#3050F8" x1="63.84" x2="58.815" y1="75.49" y2="72.59"/>
            <line class="hi" id="mol1bnd20" stroke="#3050F8" x1="67.0" x2="67.0" y1="81.16" y2="86.85499999999999"/>
            <line class="hi" id="mol1bnd23" stroke="#3050F8" x1="24.28" x2="19.25" y1="25.74" y2="28.63"/>
        </g>
          
    </g>
    
</svg>
