<svg xmlns="http://www.w3.org/2000/svg" xmlns:xlink="http://www.w3.org/1999/xlink" height="64.95mm" version="1.2" viewBox="0 0 83.96 64.95" width="83.96mm">
      
    <desc>Generated by the Chemistry Development Kit (http://github.com/cdk)</desc>
      
    <g fill="#3050F8" stroke="#000000" stroke-linecap="round" stroke-linejoin="round" stroke-width=".7">
            
        <rect fill="#FFFFFF" height="65.0" stroke="none" width="84.0" x=".0" y=".0"/>
            
        <g class="mol" id="mol1">
                  
            <line class="bond" id="mol1bnd1" x1="61.69" x2="58.19" y1="6.78" y2="17.49"/>
                  
            <line class="bond" id="mol1bnd2" x1="53.69" x2="42.43" y1="22.32" y2="25.94"/>
                  
            <g class="bond" id="mol1bnd3">
                        
                <line x1="42.43" x2="42.43" y1="41.18" y2="25.94"/>
                        
                <line x1="39.99" x2="39.99" y1="39.77" y2="27.35"/>
                      
            </g>
                  
            <line class="bond" id="mol1bnd4" x1="42.43" x2="53.69" y1="41.18" y2="44.8"/>
                  
            <line class="bond" id="mol1bnd5" x1="59.57" x2="65.9" y1="42.27" y2="33.56"/>
                  
            <line class="bond" id="mol1bnd6" x1="59.57" x2="65.9" y1="24.85" y2="33.56"/>
                  
            <g class="bond" id="mol1bnd7">
                        
                <line x1="65.02" x2="77.48" y1="32.34" y2="32.34"/>
                        
                <line x1="65.02" x2="77.48" y1="34.78" y2="34.78"/>
                      
                <line class="hi" stroke="#FF0D0D" x1="77.48" x2="71.25" y1="32.34" y2="32.34"/>
                <line class="hi" stroke="#FF0D0D" x1="77.48" x2="71.25" y1="34.78" y2="34.78"/>
            </g>
                  
            <line class="bond" id="mol1bnd8" x1="58.19" x2="61.69" y1="49.64" y2="60.34"/>
                  
            <line class="bond" id="mol1bnd9" x1="42.43" x2="32.38" y1="41.18" y2="46.98"/>
                  
            <line class="bond" id="mol1bnd10" x1="26.07" x2="16.02" y1="46.98" y2="41.18"/>
                  
            <g class="bond" id="mol1bnd11">
                        
                <line x1="17.24" x2="6.71" y1="41.88" y2="47.97"/>
                        
                <line x1="16.02" x2="5.49" y1="39.77" y2="45.85"/>
                      
                <line class="hi" stroke="#FF0D0D" x1="6.710000000000001" x2="11.975" y1="47.97" y2="44.925"/>
                <line class="hi" stroke="#FF0D0D" x1="5.49" x2="10.754999999999999" y1="45.85" y2="42.81"/>
            </g>
                  
            <line class="bond" id="mol1bnd12" x1="16.02" x2="16.02" y1="41.18" y2="29.79"/>
                  
            <line class="bond" id="mol1bnd13" x1="19.17" x2="29.22" y1="24.12" y2="18.32"/>
                  
            <line class="bond" id="mol1bnd14" x1="42.43" x2="29.22" y1="25.94" y2="18.32"/>
                  
            <g class="bond" id="mol1bnd15">
                        
                <line x1="28.01" x2="28.01" y1="19.02" y2="7.0"/>
                        
                <line x1="30.44" x2="30.44" y1="19.02" y2="7.0"/>
                      
                <line class="hi" stroke="#FF0D0D" x1="28.01" x2="28.01" y1="7.0" y2="13.01"/>
                <line class="hi" stroke="#FF0D0D" x1="30.44" x2="30.44" y1="7.0" y2="13.01"/>
            </g>
                  
            <line class="bond" id="mol1bnd16" x1="12.86" x2="2.82" y1="24.12" y2="18.32"/>
                  
            <line class="bond" id="mol1bnd17" x1="29.22" x2="29.22" y1="52.65" y2="64.04"/>
                  
            <path class="atom" d="M58.9 23.72h-.72l-2.62 -4.07h-.03q.01 .24 .03 .6q.02 .36 .02 .73v2.74h-.57v-4.9h.71l2.61 4.05h.03q-.01 -.11 -.02 -.33q-.01 -.22 -.02 -.48q-.01 -.26 -.01 -.48v-2.77h.58v4.9z" id="mol1atm2" stroke="none"/>
                  
            <path class="atom" d="M58.9 48.3h-.72l-2.62 -4.07h-.03q.01 .24 .03 .6q.02 .36 .02 .73v2.74h-.57v-4.9h.71l2.61 4.05h.03q-.01 -.11 -.02 -.33q-.01 -.22 -.02 -.48q-.01 -.26 -.01 -.48v-2.77h.58v4.9z" id="mol1atm5" stroke="none"/>
                  
            <path class="atom" d="M83.4 33.56q.0 .76 -.26 1.33q-.26 .57 -.76 .88q-.5 .32 -1.24 .32q-.76 .0 -1.26 -.32q-.51 -.32 -.76 -.89q-.24 -.57 -.24 -1.33q.0 -.75 .24 -1.31q.25 -.57 .76 -.88q.51 -.32 1.27 -.32q.73 .0 1.23 .32q.5 .31 .76 .88q.26 .57 .26 1.33zM79.54 33.56q.0 .92 .39 1.46q.39 .53 1.22 .53q.84 .0 1.22 -.53q.39 -.54 .39 -1.46q.0 -.93 -.39 -1.45q-.38 -.52 -1.21 -.52q-.83 .0 -1.23 .52q-.39 .52 -.39 1.45z" fill="#FF0D0D" id="mol1atm7" stroke="none"/>
                  
            <path class="atom" d="M31.16 51.25h-.72l-2.62 -4.07h-.03q.01 .24 .03 .6q.02 .36 .02 .73v2.74h-.57v-4.9h.71l2.61 4.05h.03q-.01 -.11 -.02 -.33q-.01 -.22 -.02 -.48q-.01 -.26 -.01 -.48v-2.77h.58v4.9z" id="mol1atm9" stroke="none"/>
                  
            <path class="atom" d="M5.08 48.8q.0 .76 -.26 1.33q-.26 .57 -.76 .88q-.5 .32 -1.24 .32q-.76 .0 -1.26 -.32q-.51 -.32 -.76 -.89q-.24 -.57 -.24 -1.33q.0 -.75 .24 -1.31q.25 -.57 .76 -.88q.51 -.32 1.27 -.32q.73 .0 1.23 .32q.5 .31 .76 .88q.26 .57 .26 1.33zM1.21 48.8q.0 .92 .39 1.46q.39 .53 1.22 .53q.84 .0 1.22 -.53q.39 -.54 .39 -1.46q.0 -.93 -.39 -1.45q-.38 -.52 -1.21 -.52q-.83 .0 -1.23 .52q-.39 .52 -.39 1.45z" fill="#FF0D0D" id="mol1atm11" stroke="none"/>
                  
            <path class="atom" d="M17.96 28.39h-.72l-2.62 -4.07h-.03q.01 .24 .03 .6q.02 .36 .02 .73v2.74h-.57v-4.9h.71l2.61 4.05h.03q-.01 -.11 -.02 -.33q-.01 -.22 -.02 -.48q-.01 -.26 -.01 -.48v-2.77h.58v4.9z" id="mol1atm12" stroke="none"/>
                  
            <path class="atom" d="M31.48 3.08q.0 .76 -.26 1.33q-.26 .57 -.76 .88q-.5 .32 -1.24 .32q-.76 .0 -1.26 -.32q-.51 -.32 -.76 -.89q-.24 -.57 -.24 -1.33q.0 -.75 .24 -1.31q.25 -.57 .76 -.88q.51 -.32 1.27 -.32q.73 .0 1.23 .32q.5 .31 .76 .88q.26 .57 .26 1.33zM27.62 3.08q.0 .92 .39 1.46q.39 .53 1.22 .53q.84 .0 1.22 -.53q.39 -.54 .39 -1.46q.0 -.93 -.39 -1.45q-.38 -.52 -1.21 -.52q-.83 .0 -1.23 .52q-.39 .52 -.39 1.45z" fill="#FF0D0D" id="mol1atm14" stroke="none"/>
                
            <line class="hi" id="mol1bnd1" stroke="#3050F8" x1="58.19" x2="59.94" y1="17.49" y2="12.135"/>
            <line class="hi" id="mol1bnd2" stroke="#3050F8" x1="53.69" x2="48.06" y1="22.32" y2="24.130000000000003"/>
            <line class="hi" id="mol1bnd4" stroke="#3050F8" x1="53.69" x2="48.06" y1="44.8" y2="42.989999999999995"/>
            <line class="hi" id="mol1bnd5" stroke="#3050F8" x1="59.57" x2="62.735" y1="42.27" y2="37.915000000000006"/>
            <line class="hi" id="mol1bnd6" stroke="#3050F8" x1="59.57" x2="62.735" y1="24.85" y2="29.205000000000002"/>
            <line class="hi" id="mol1bnd8" stroke="#3050F8" x1="58.19" x2="59.94" y1="49.64" y2="54.99"/>
            <line class="hi" id="mol1bnd9" stroke="#3050F8" x1="32.38" x2="37.405" y1="46.98" y2="44.08"/>
            <line class="hi" id="mol1bnd10" stroke="#3050F8" x1="26.07" x2="21.045" y1="46.98" y2="44.08"/>
            <line class="hi" id="mol1bnd12" stroke="#3050F8" x1="16.02" x2="16.02" y1="29.79" y2="35.485"/>
            <line class="hi" id="mol1bnd13" stroke="#3050F8" x1="19.17" x2="24.195" y1="24.12" y2="21.22"/>
            <line class="hi" id="mol1bnd16" stroke="#3050F8" x1="12.86" x2="7.84" y1="24.12" y2="21.22"/>
            <line class="hi" id="mol1bnd17" stroke="#3050F8" x1="29.22" x2="29.22" y1="52.65" y2="58.345"/>
        </g>
          
    </g>
    
</svg>
