<svg xmlns="http://www.w3.org/2000/svg" xmlns:xlink="http://www.w3.org/1999/xlink" height="161.02mm" version="1.2" viewBox="0 0 131.62 161.02" width="131.62mm">
      
    <desc>Generated by the Chemistry Development Kit (http://github.com/cdk)</desc>
      
    <g fill="#FF0D0D" stroke="#000000" stroke-linecap="round" stroke-linejoin="round" stroke-width=".7">
            
        <rect fill="#FFFFFF" height="162.0" stroke="none" width="132.0" x=".0" y=".0"/>
            
        <g class="mol" id="mol1">
                  
            <line class="bond" id="mol1bnd1" x1="77.02" x2="72.21" y1="156.83" y2="146.8"/>
                  
            <line class="bond" id="mol1bnd2" x1="73.25" x2="79.98" y1="139.58" y2="131.2"/>
                  
            <g class="bond" id="mol1bnd3">
                        
                <line x1="79.98" x2="94.51" y1="131.2" y2="135.67"/>
                        
                <line x1="82.04" x2="93.88" y1="129.28" y2="132.93"/>
                      
            </g>
                  
            <line class="bond" id="mol1bnd4" x1="94.51" x2="105.68" y1="135.67" y2="125.31"/>
                  
            <g class="bond" id="mol1bnd5">
                        
                <line x1="105.68" x2="102.23" y1="125.31" y2="110.47"/>
                        
                <line x1="102.99" x2="100.17" y1="124.48" y2="112.39"/>
                      
            </g>
                  
            <line class="bond" id="mol1bnd6" x1="102.23" x2="87.7" y1="110.47" y2="106.0"/>
                  
            <g class="bond" id="mol1bnd7">
                        
                <line x1="87.7" x2="76.52" y1="106.0" y2="116.37"/>
                        
                <line x1="88.33" x2="79.22" y1="108.75" y2="117.19"/>
                      
            </g>
                  
            <line class="bond" id="mol1bnd8" x1="79.98" x2="76.52" y1="131.2" y2="116.37"/>
                  
            <line class="bond" id="mol1bnd9" x1="76.52" x2="62.81" y1="116.37" y2="109.76"/>
                  
            <line class="bond" id="mol1bnd10" x1="62.81" x2="49.09" y1="109.76" y2="116.37"/>
                  
            <g class="bond" id="mol1bnd11">
                        
                <line x1="45.64" x2="49.09" y1="131.2" y2="116.37"/>
                        
                <line x1="43.58" x2="46.4" y1="129.28" y2="117.19"/>
                      
            </g>
                  
            <line class="bond" id="mol1bnd12" x1="45.64" x2="52.9" y1="131.2" y2="140.23"/>
                  
            <line class="bond" id="mol1bnd13" x1="67.09" x2="58.11" y1="143.09" y2="143.09"/>
                  
            <g class="bond" id="mol1bnd14">
                        
                <line x1="52.93" x2="45.4" y1="145.53" y2="149.18"/>
                        
                <line x1="51.87" x2="44.34" y1="143.34" y2="146.99"/>
                      
                <line class="hi" stroke="#C6C62C" x1="52.93" x2="49.165" y1="145.53" y2="147.35500000000002"/>
                <line class="hi" stroke="#FF0D0D" x1="45.4" x2="49.165" y1="149.18" y2="147.35500000000002"/>
                <line class="hi" stroke="#C6C62C" x1="51.87" x2="48.105000000000004" y1="143.34" y2="145.16500000000002"/>
                <line class="hi" stroke="#FF0D0D" x1="44.34" x2="48.105000000000004" y1="146.99" y2="145.16500000000002"/>
            </g>
                  
            <g class="bond" id="mol1bnd15">
                        
                <line x1="57.27" x2="58.89" y1="146.7" y2="153.78"/>
                        
                <line x1="54.89" x2="56.52" y1="147.24" y2="154.33"/>
                      
                <line class="hi" stroke="#C6C62C" x1="57.27" x2="58.08" y1="146.7" y2="150.24"/>
                <line class="hi" stroke="#FF0D0D" x1="58.89" x2="58.08" y1="153.78" y2="150.24"/>
                <line class="hi" stroke="#C6C62C" x1="54.89" x2="55.705" y1="147.24" y2="150.78500000000003"/>
                <line class="hi" stroke="#FF0D0D" x1="56.52" x2="55.705" y1="154.33" y2="150.78500000000003"/>
            </g>
                  
            <line class="bond" id="mol1bnd16" x1="45.64" x2="31.11" y1="131.2" y2="135.67"/>
                  
            <g class="bond" id="mol1bnd17">
                        
                <line x1="19.93" x2="31.11" y1="125.31" y2="135.67"/>
                        
                <line x1="22.63" x2="31.74" y1="124.48" y2="132.93"/>
                      
            </g>
                  
            <line class="bond" id="mol1bnd18" x1="19.93" x2="23.39" y1="125.31" y2="110.47"/>
                  
            <g class="bond" id="mol1bnd19">
                        
                <line x1="37.92" x2="23.39" y1="106.0" y2="110.47"/>
                        
                <line x1="37.29" x2="25.44" y1="108.75" y2="112.39"/>
                      
            </g>
                  
            <line class="bond" id="mol1bnd20" x1="49.09" x2="37.92" y1="116.37" y2="106.0"/>
                  
            <line class="bond" id="mol1bnd21" x1="19.93" x2="7.0" y1="125.31" y2="129.27"/>
                  
            <line class="bond" id="mol1bnd22" x1="62.81" x2="62.81" y1="109.76" y2="98.37"/>
                  
            <line class="bond" id="mol1bnd23" x1="65.96" x2="76.01" y1="92.7" y2="86.9"/>
                  
            <line class="bond" id="mol1bnd24" x1="76.01" x2="76.01" y1="86.9" y2="71.66"/>
                  
            <line class="bond" id="mol1bnd25" x1="76.01" x2="89.21" y1="71.66" y2="64.04"/>
                  
            <line class="bond" id="mol1bnd26" x1="89.21" x2="89.21" y1="64.04" y2="48.8"/>
                  
            <line class="bond" id="mol1bnd27" x1="89.21" x2="102.4" y1="48.8" y2="41.18"/>
                  
            <line class="bond" id="mol1bnd28" x1="102.4" x2="102.4" y1="41.18" y2="25.94"/>
                  
            <line class="bond" id="mol1bnd29" x1="102.4" x2="115.6" y1="25.94" y2="18.32"/>
                  
            <g class="bond" id="mol1bnd30">
                        
                <line x1="115.6" x2="126.13" y1="16.91" y2="22.99"/>
                        
                <line x1="114.38" x2="124.91" y1="19.03" y2="25.1"/>
                      
                <line class="hi" stroke="#FF0D0D" x1="126.13" x2="120.865" y1="22.99" y2="19.95"/>
                <line class="hi" stroke="#FF0D0D" x1="124.91" x2="119.645" y1="25.1" y2="22.065"/>
            </g>
                  
            <line class="bond" id="mol1bnd31" x1="115.6" x2="115.6" y1="18.32" y2="7.0"/>
                  
            <path class="atom" d="M72.37 145.54h-.72l-2.62 -4.07h-.03q.01 .24 .03 .6q.02 .36 .02 .73v2.74h-.57v-4.9h.71l2.61 4.05h.03q-.01 -.11 -.02 -.33q-.01 -.22 -.02 -.48q-.01 -.26 -.01 -.48v-2.77h.58v4.9z" fill="#3050F8" id="mol1atm2" stroke="none"/>
                  
            <path class="atom" d="M56.73 144.22q.0 .65 -.48 1.02q-.47 .36 -1.27 .36q-.42 .0 -.77 -.07q-.35 -.06 -.58 -.17v-.59q.24 .11 .61 .2q.37 .09 .76 .09q.55 .0 .83 -.21q.28 -.21 .28 -.58q.0 -.24 -.11 -.4q-.1 -.17 -.35 -.31q-.25 -.14 -.7 -.3q-.63 -.23 -.95 -.55q-.32 -.33 -.32 -.9q.0 -.39 .2 -.67q.2 -.28 .55 -.43q.36 -.15 .82 -.15q.4 .0 .74 .08q.34 .07 .61 .2l-.2 .53q-.25 -.11 -.55 -.18q-.3 -.08 -.63 -.08q-.46 .0 -.69 .2q-.23 .2 -.23 .52q.0 .24 .1 .41q.11 .17 .34 .3q.23 .13 .63 .28q.43 .15 .73 .34q.3 .18 .45 .43q.15 .25 .15 .64z" fill="#C6C62C" id="mol1atm12" stroke="none"/>
                  
            <path class="atom" d="M43.73 149.73q.0 .76 -.26 1.33q-.26 .57 -.76 .88q-.5 .32 -1.24 .32q-.76 .0 -1.26 -.32q-.51 -.32 -.76 -.89q-.24 -.57 -.24 -1.33q.0 -.75 .24 -1.31q.25 -.57 .76 -.88q.51 -.32 1.27 -.32q.73 .0 1.23 .32q.5 .31 .76 .88q.26 .57 .26 1.33zM39.87 149.73q.0 .92 .39 1.46q.39 .53 1.22 .53q.84 .0 1.22 -.53q.39 -.54 .39 -1.46q.0 -.93 -.39 -1.45q-.38 -.52 -1.21 -.52q-.83 .0 -1.23 .52q-.39 .52 -.39 1.45z" id="mol1atm13" stroke="none"/>
                  
            <path class="atom" d="M60.86 157.94q.0 .76 -.26 1.33q-.26 .57 -.76 .88q-.5 .32 -1.24 .32q-.76 .0 -1.26 -.32q-.51 -.32 -.76 -.89q-.24 -.57 -.24 -1.33q.0 -.75 .24 -1.31q.25 -.57 .76 -.88q.51 -.32 1.27 -.32q.73 .0 1.23 .32q.5 .31 .76 .88q.26 .57 .26 1.33zM56.99 157.94q.0 .92 .39 1.46q.39 .53 1.22 .53q.84 .0 1.22 -.53q.39 -.54 .39 -1.46q.0 -.93 -.39 -1.45q-.38 -.52 -1.21 -.52q-.83 .0 -1.23 .52q-.39 .52 -.39 1.45z" id="mol1atm14" stroke="none"/>
                  
            <path class="atom" d="M2.91 127.95q-.79 .0 -1.24 .53q-.45 .52 -.45 1.45q.0 .91 .42 1.45q.42 .53 1.27 .53q.32 .0 .61 -.05q.29 -.06 .57 -.14v.54q-.27 .1 -.57 .15q-.29 .05 -.7 .05q-.74 .0 -1.25 -.31q-.5 -.31 -.75 -.88q-.25 -.57 -.25 -1.34q.0 -.74 .27 -1.31q.27 -.57 .8 -.88q.53 -.32 1.28 -.32q.78 .0 1.35 .29l-.24 .52q-.23 -.1 -.51 -.18q-.27 -.08 -.61 -.08zM5.66 132.38h-.6v-5.21h.6v5.21z" fill="#1FF01F" id="mol1atm19" stroke="none"/>
                  
            <g class="atom" id="mol1atm20">
                        
                <path d="M64.75 96.97h-.72l-2.62 -4.07h-.03q.01 .24 .03 .6q.02 .36 .02 .73v2.74h-.57v-4.9h.71l2.61 4.05h.03q-.01 -.11 -.02 -.33q-.01 -.22 -.02 -.48q-.01 -.26 -.01 -.48v-2.77h.58v4.9z" fill="#3050F8" stroke="none"/>
                        
                <path d="M60.31 96.97h-.62v-2.29h-2.51v2.29h-.61v-4.9h.61v2.07h2.51v-2.07h.62v4.9z" fill="#3050F8" stroke="none"/>
                      
            </g>
                  
            <path class="atom" d="M131.06 25.94q.0 .76 -.26 1.33q-.26 .57 -.76 .88q-.5 .32 -1.24 .32q-.76 .0 -1.26 -.32q-.51 -.32 -.76 -.89q-.24 -.57 -.24 -1.33q.0 -.75 .24 -1.31q.25 -.57 .76 -.88q.51 -.32 1.27 -.32q.73 .0 1.23 .32q.5 .31 .76 .88q.26 .57 .26 1.33zM127.2 25.94q.0 .92 .39 1.46q.39 .53 1.22 .53q.84 .0 1.22 -.53q.39 -.54 .39 -1.46q.0 -.93 -.39 -1.45q-.38 -.52 -1.21 -.52q-.83 .0 -1.23 .52q-.39 .52 -.39 1.45z" id="mol1atm28" stroke="none"/>
                  
            <g class="atom" id="mol1atm29">
                        
                <path d="M117.86 3.08q.0 .76 -.26 1.33q-.26 .57 -.76 .88q-.5 .32 -1.24 .32q-.76 .0 -1.26 -.32q-.51 -.32 -.76 -.89q-.24 -.57 -.24 -1.33q.0 -.75 .24 -1.31q.25 -.57 .76 -.88q.51 -.32 1.27 -.32q.73 .0 1.23 .32q.5 .31 .76 .88q.26 .57 .26 1.33zM114.0 3.08q.0 .92 .39 1.46q.39 .53 1.22 .53q.84 .0 1.22 -.53q.39 -.54 .39 -1.46q.0 -.93 -.39 -1.45q-.38 -.52 -1.21 -.52q-.83 .0 -1.23 .52q-.39 .52 -.39 1.45z" stroke="none"/>
                        
                <path d="M122.17 5.53h-.62v-2.29h-2.51v2.29h-.61v-4.9h.61v2.07h2.51v-2.07h.62v4.9z" stroke="none"/>
                      
            </g>
                
            <line class="hi" id="mol1bnd1" stroke="#3050F8" x1="72.21" x2="74.615" y1="146.8" y2="151.815"/>
            <line class="hi" id="mol1bnd2" stroke="#3050F8" x1="73.25" x2="76.61500000000001" y1="139.58" y2="135.39"/>
            <line class="hi" id="mol1bnd12" stroke="#C6C62C" x1="52.9" x2="49.269999999999996" y1="140.23" y2="135.71499999999997"/>
            <line class="hi" id="mol1bnd13" stroke="#3050F8" x1="67.09" x2="62.6" y1="143.09" y2="143.09"/>
            <line class="hi" id="mol1bnd13" stroke="#C6C62C" x1="58.11" x2="62.6" y1="143.09" y2="143.09"/>
            <line class="hi" id="mol1bnd21" stroke="#1FF01F" x1="7.0" x2="13.465" y1="129.27" y2="127.29"/>
            <line class="hi" id="mol1bnd22" stroke="#3050F8" x1="62.81" x2="62.81" y1="98.37" y2="104.065"/>
            <line class="hi" id="mol1bnd22" stroke="#3050F8" x1="62.81" x2="62.81" y1="98.37" y2="104.065"/>
            <line class="hi" id="mol1bnd23" stroke="#3050F8" x1="65.96" x2="70.985" y1="92.7" y2="89.80000000000001"/>
            <line class="hi" id="mol1bnd23" stroke="#3050F8" x1="65.96" x2="70.985" y1="92.7" y2="89.80000000000001"/>
            <line class="hi" id="mol1bnd31" stroke="#FF0D0D" x1="115.6" x2="115.6" y1="7.0" y2="12.66"/>
            <line class="hi" id="mol1bnd31" stroke="#FF0D0D" x1="115.6" x2="115.6" y1="7.0" y2="12.66"/>
        </g>
          
    </g>
    
</svg>
