<svg xmlns="http://www.w3.org/2000/svg" xmlns:xlink="http://www.w3.org/1999/xlink" height="77.43mm" version="1.2" viewBox="0 0 195.79 77.43" width="195.79mm">
      
    <desc>Generated by the Chemistry Development Kit (http://github.com/cdk)</desc>
      
    <g fill="#FF0D0D" stroke="#000000" stroke-linecap="round" stroke-linejoin="round" stroke-width=".7">
            
        <rect fill="#FFFFFF" height="78.0" stroke="none" width="196.0" x=".0" y=".0"/>
            
        <g class="mol" id="mol1">
                  
            <line class="bond" id="mol1bnd1" x1="1.05" x2="10.85" y1="49.39" y2="37.72"/>
                  
            <line class="bond" id="mol1bnd2" x1="10.85" x2="25.86" y1="37.72" y2="40.36"/>
                  
            <line class="bond" id="mol1bnd3" x1="25.86" x2="35.65" y1="40.36" y2="28.69"/>
                  
            <line class="bond" id="mol1bnd4" x1="35.65" x2="30.44" y1="28.69" y2="14.37"/>
                  
            <line class="bond" id="mol1bnd5" x1="35.65" x2="50.66" y1="28.69" y2="31.33"/>
                  
            <line class="bond" id="mol1bnd6" x1="50.66" x2="50.66" y1="31.33" y2="16.09"/>
                  
            <g class="bond" id="mol1bnd7">
                        
                <line x1="50.66" x2="40.13" y1="17.5" y2="11.42"/>
                        
                <line x1="51.88" x2="41.35" y1="15.39" y2="9.3"/>
                      
                <line class="hi" stroke="#FF0D0D" x1="40.13" x2="45.394999999999996" y1="11.42" y2="14.46"/>
                <line class="hi" stroke="#FF0D0D" x1="41.35" x2="46.615" y1="9.3" y2="12.345"/>
            </g>
                  
            <line class="bond" id="mol1bnd8" x1="50.66" x2="60.71" y1="16.09" y2="10.29"/>
                  
            <line class="bond" id="mol1bnd9" x1="67.02" x2="77.08" y1="10.29" y2="16.09"/>
                  
            <g class="bond" id="mol1bnd10">
                        
                <line x1="75.86" x2="86.38" y1="15.39" y2="9.31"/>
                        
                <line x1="77.08" x2="87.6" y1="17.5" y2="11.42"/>
                      
                <line class="hi" stroke="#FF0D0D" x1="86.38" x2="81.12" y1="9.31" y2="12.350000000000001"/>
                <line class="hi" stroke="#FF0D0D" x1="87.6" x2="82.34" y1="11.42" y2="14.46"/>
            </g>
                  
            <line class="bond" id="mol1bnd11" x1="77.08" x2="77.08" y1="16.09" y2="27.48"/>
                  
            <g class="bond" id="mol1bnd12">
                        
                <line x1="63.87" x2="73.92" y1="38.95" y2="33.15"/>
                        
                <line x1="63.87" x2="72.7" y1="36.14" y2="31.04"/>
                      
                <line class="hi" stroke="#3050F8" x1="73.92" x2="68.895" y1="33.15" y2="36.05"/>
                <line class="hi" stroke="#3050F8" x1="72.7" x2="68.285" y1="31.04" y2="33.59"/>
            </g>
                  
            <line class="bond" id="mol1bnd13" x1="50.66" x2="63.87" y1="31.33" y2="38.95"/>
                  
            <line class="bond" id="mol1bnd14" x1="63.87" x2="63.87" y1="38.95" y2="50.24"/>
                  
            <line class="bond" id="mol1bnd15" x1="50.66" x2="45.45" y1="31.33" y2="45.65"/>
                  
            <line class="bond" id="mol1bnd16" x1="45.45" x2="55.25" y1="45.65" y2="57.33"/>
                  
            <g class="bond" id="mol1bnd17">
                        
                <line x1="55.25" x2="50.04" y1="57.33" y2="71.65"/>
                        
                <line x1="52.48" x2="47.75" y1="57.81" y2="70.81"/>
                      
            </g>
                  
            <line class="bond" id="mol1bnd18" x1="165.34" x2="150.33" y1="68.46" y2="65.81"/>
                  
            <line class="bond" id="mol1bnd19" x1="150.33" x2="145.12" y1="65.81" y2="51.49"/>
                  
            <line class="bond" id="mol1bnd20" x1="145.12" x2="131.92" y1="51.49" y2="59.11"/>
                  
            <g class="bond" id="mol1bnd21">
                        
                <line x1="133.14" x2="133.14" y1="58.41" y2="70.43"/>
                        
                <line x1="130.7" x2="130.7" y1="58.41" y2="70.43"/>
                      
                <line class="hi" stroke="#FF0D0D" x1="133.14" x2="133.14" y1="70.43" y2="64.42"/>
                <line class="hi" stroke="#FF0D0D" x1="130.7" x2="130.7" y1="70.43" y2="64.42"/>
            </g>
                  
            <line class="bond" id="mol1bnd22" x1="131.92" x2="121.87" y1="59.11" y2="53.31"/>
                  
            <line class="bond" id="mol1bnd23" x1="118.72" x2="118.71" y1="47.63" y2="36.24"/>
                  
            <g class="bond" id="mol1bnd24">
                        
                <line x1="118.71" x2="108.18" y1="37.64" y2="31.56"/>
                        
                <line x1="119.93" x2="109.4" y1="35.53" y2="29.45"/>
                      
                <line class="hi" stroke="#FF0D0D" x1="108.18" x2="113.445" y1="31.56" y2="34.6"/>
                <line class="hi" stroke="#FF0D0D" x1="109.4" x2="114.665" y1="29.45" y2="32.49"/>
            </g>
                  
            <line class="bond" id="mol1bnd25" x1="118.71" x2="128.76" y1="36.24" y2="30.44"/>
                  
            <g class="bond" id="mol1bnd26">
                        
                <line x1="145.11" x2="135.06" y1="36.24" y2="30.44"/>
                        
                <line x1="142.68" x2="133.84" y1="37.65" y2="32.55"/>
                      
                <line class="hi" stroke="#3050F8" x1="135.06" x2="140.085" y1="30.44" y2="33.34"/>
                <line class="hi" stroke="#3050F8" x1="133.84" x2="138.26" y1="32.55" y2="35.099999999999994"/>
            </g>
                  
            <line class="bond" id="mol1bnd27" x1="145.12" x2="145.11" y1="51.49" y2="36.24"/>
                  
            <line class="bond" id="mol1bnd28" x1="145.11" x2="155.03" y1="36.24" y2="30.52"/>
                  
            <line class="bond" id="mol1bnd29" x1="145.12" x2="160.13" y1="51.49" y2="48.84"/>
                  
            <line class="bond" id="mol1bnd30" x1="160.13" x2="169.93" y1="48.84" y2="60.52"/>
                  
            <line class="bond" id="mol1bnd31" x1="169.93" x2="184.93" y1="60.52" y2="57.87"/>
                  
            <line class="bond" id="mol1bnd32" x1="184.93" x2="194.73" y1="57.87" y2="69.54"/>
                  
            <line class="bond" id="mol1bnd33" x1="184.93" x2="190.14" y1="57.87" y2="43.54"/>
                  
            <path class="atom" d="M39.72 8.47q.0 .76 -.26 1.33q-.26 .57 -.76 .88q-.5 .32 -1.24 .32q-.76 .0 -1.26 -.32q-.51 -.32 -.76 -.89q-.24 -.57 -.24 -1.33q.0 -.75 .24 -1.31q.25 -.57 .76 -.88q.51 -.32 1.27 -.32q.73 .0 1.23 .32q.5 .31 .76 .88q.26 .57 .26 1.33zM35.86 8.47q.0 .92 .39 1.46q.39 .53 1.22 .53q.84 .0 1.22 -.53q.39 -.54 .39 -1.46q.0 -.93 -.39 -1.45q-.38 -.52 -1.21 -.52q-.83 .0 -1.23 .52q-.39 .52 -.39 1.45z" id="mol1atm8" stroke="none"/>
                  
            <g class="atom" id="mol1atm9">
                        
                <path d="M65.81 10.92h-.72l-2.62 -4.07h-.03q.01 .24 .03 .6q.02 .36 .02 .73v2.74h-.57v-4.9h.71l2.61 4.05h.03q-.01 -.11 -.02 -.33q-.01 -.22 -.02 -.48q-.01 -.26 -.01 -.48v-2.77h.58v4.9z" fill="#3050F8" stroke="none"/>
                        
                <path d="M65.67 5.46h-.62v-2.29h-2.51v2.29h-.61v-4.9h.61v2.07h2.51v-2.07h.62v4.9z" fill="#3050F8" stroke="none"/>
                      
            </g>
                  
            <path class="atom" d="M92.53 8.47q.0 .76 -.26 1.33q-.26 .57 -.76 .88q-.5 .32 -1.24 .32q-.76 .0 -1.26 -.32q-.51 -.32 -.76 -.89q-.24 -.57 -.24 -1.33q.0 -.75 .24 -1.31q.25 -.57 .76 -.88q.51 -.32 1.27 -.32q.73 .0 1.23 .32q.5 .31 .76 .88q.26 .57 .26 1.33zM88.67 8.47q.0 .92 .39 1.46q.39 .53 1.22 .53q.84 .0 1.22 -.53q.39 -.54 .39 -1.46q.0 -.93 -.39 -1.45q-.38 -.52 -1.21 -.52q-.83 .0 -1.23 .52q-.39 .52 -.39 1.45z" id="mol1atm11" stroke="none"/>
                  
            <path class="atom" d="M79.02 33.78h-.72l-2.62 -4.07h-.03q.01 .24 .03 .6q.02 .36 .02 .73v2.74h-.57v-4.9h.71l2.61 4.05h.03q-.01 -.11 -.02 -.33q-.01 -.22 -.02 -.48q-.01 -.26 -.01 -.48v-2.77h.58v4.9z" fill="#3050F8" id="mol1atm12" stroke="none"/>
                  
            <g class="atom" id="mol1atm14">
                        
                <path d="M66.13 54.19q.0 .76 -.26 1.33q-.26 .57 -.76 .88q-.5 .32 -1.24 .32q-.76 .0 -1.26 -.32q-.51 -.32 -.76 -.89q-.24 -.57 -.24 -1.33q.0 -.75 .24 -1.31q.25 -.57 .76 -.88q.51 -.32 1.27 -.32q.73 .0 1.23 .32q.5 .31 .76 .88q.26 .57 .26 1.33zM62.26 54.19q.0 .92 .39 1.46q.39 .53 1.22 .53q.84 .0 1.22 -.53q.39 -.54 .39 -1.46q.0 -.93 -.39 -1.45q-.38 -.52 -1.21 -.52q-.83 .0 -1.23 .52q-.39 .52 -.39 1.45z" stroke="none"/>
                        
                <path d="M68.62 51.52v.29h-1.93v-.29h1.93z" stroke="none"/>
                      
            </g>
                  
            <path class="atom" d="M134.18 74.35q.0 .76 -.26 1.33q-.26 .57 -.76 .88q-.5 .32 -1.24 .32q-.76 .0 -1.26 -.32q-.51 -.32 -.76 -.89q-.24 -.57 -.24 -1.33q.0 -.75 .24 -1.31q.25 -.57 .76 -.88q.51 -.32 1.27 -.32q.73 .0 1.23 .32q.5 .31 .76 .88q.26 .57 .26 1.33zM130.31 74.35q.0 .92 .39 1.46q.39 .53 1.22 .53q.84 .0 1.22 -.53q.39 -.54 .39 -1.46q.0 -.93 -.39 -1.45q-.38 -.52 -1.21 -.52q-.83 .0 -1.23 .52q-.39 .52 -.39 1.45z" id="mol1atm22" stroke="none"/>
                  
            <g class="atom" id="mol1atm23">
                        
                <path d="M120.66 53.93h-.72l-2.62 -4.07h-.03q.01 .24 .03 .6q.02 .36 .02 .73v2.74h-.57v-4.9h.71l2.61 4.05h.03q-.01 -.11 -.02 -.33q-.01 -.22 -.02 -.48q-.01 -.26 -.01 -.48v-2.77h.58v4.9z" fill="#3050F8" stroke="none"/>
                        
                <path d="M116.22 53.93h-.62v-2.29h-2.51v2.29h-.61v-4.9h.61v2.07h2.51v-2.07h.62v4.9z" fill="#3050F8" stroke="none"/>
                      
            </g>
                  
            <path class="atom" d="M107.77 28.61q.0 .76 -.26 1.33q-.26 .57 -.76 .88q-.5 .32 -1.24 .32q-.76 .0 -1.26 -.32q-.51 -.32 -.76 -.89q-.24 -.57 -.24 -1.33q.0 -.75 .24 -1.31q.25 -.57 .76 -.88q.51 -.32 1.27 -.32q.73 .0 1.23 .32q.5 .31 .76 .88q.26 .57 .26 1.33zM103.91 28.61q.0 .92 .39 1.46q.39 .53 1.22 .53q.84 .0 1.22 -.53q.39 -.54 .39 -1.46q.0 -.93 -.39 -1.45q-.38 -.52 -1.21 -.52q-.83 .0 -1.23 .52q-.39 .52 -.39 1.45z" id="mol1atm25" stroke="none"/>
                  
            <path class="atom" d="M133.85 31.07h-.72l-2.62 -4.07h-.03q.01 .24 .03 .6q.02 .36 .02 .73v2.74h-.57v-4.9h.71l2.61 4.05h.03q-.01 -.11 -.02 -.33q-.01 -.22 -.02 -.48q-.01 -.26 -.01 -.48v-2.77h.58v4.9z" fill="#3050F8" id="mol1atm26" stroke="none"/>
                  
            <g class="atom" id="mol1atm28">
                        
                <path d="M160.57 28.62q.0 .76 -.26 1.33q-.26 .57 -.76 .88q-.5 .32 -1.24 .32q-.76 .0 -1.26 -.32q-.51 -.32 -.76 -.89q-.24 -.57 -.24 -1.33q.0 -.75 .24 -1.31q.25 -.57 .76 -.88q.51 -.32 1.27 -.32q.73 .0 1.23 .32q.5 .31 .76 .88q.26 .57 .26 1.33zM156.71 28.62q.0 .92 .39 1.46q.39 .53 1.22 .53q.84 .0 1.22 -.53q.39 -.54 .39 -1.46q.0 -.93 -.39 -1.45q-.38 -.52 -1.21 -.52q-.83 .0 -1.23 .52q-.39 .52 -.39 1.45z" stroke="none"/>
                        
                <path d="M163.07 25.96v.29h-1.93v-.29h1.93z" stroke="none"/>
                      
            </g>
                  
            <g class="atom" id="mol1atm34">
                        
                <path d="M85.61 68.07h-.72l-2.62 -4.07h-.03q.01 .24 .03 .6q.02 .36 .02 .73v2.74h-.57v-4.9h.71l2.61 4.05h.03q-.01 -.11 -.02 -.33q-.01 -.22 -.02 -.48q-.01 -.26 -.01 -.48v-2.77h.58v4.9zM88.25 64.33q.67 .0 .99 .3q.32 .29 .32 .94v2.5h-.44l-.11 -.52h-.03q-.24 .3 -.51 .45q-.26 .14 -.73 .14q-.5 .0 -.83 -.26q-.33 -.27 -.33 -.83q.0 -.55 .43 -.85q.43 -.3 1.33 -.33l.63 -.02v-.22q.0 -.46 -.2 -.64q-.2 -.18 -.56 -.18q-.29 .0 -.55 .09q-.26 .08 -.49 .19l-.18 -.45q.24 -.13 .57 -.22q.33 -.1 .69 -.1zM88.43 66.3q-.68 .02 -.95 .22q-.26 .19 -.26 .54q.0 .3 .18 .45q.19 .14 .49 .14q.46 .0 .77 -.26q.31 -.26 .31 -.8v-.33l-.54 .02z" fill="#AB5CF2" stroke="none"/>
                        
                <path d="M91.24 63.03h.82v.29h-.82v.85h-.3v-.85h-.82v-.29h.82v-.85h.3v.85z" fill="#AB5CF2" stroke="none"/>
                      
            </g>
                  
            <g class="atom" id="mol1atm35">
                        
                <path d="M160.25 8.21h-.72l-2.62 -4.07h-.03q.01 .24 .03 .6q.02 .36 .02 .73v2.74h-.57v-4.9h.71l2.61 4.05h.03q-.01 -.11 -.02 -.33q-.01 -.22 -.02 -.48q-.01 -.26 -.01 -.48v-2.77h.58v4.9zM162.89 4.47q.67 .0 .99 .3q.32 .29 .32 .94v2.5h-.44l-.11 -.52h-.03q-.24 .3 -.51 .45q-.26 .14 -.73 .14q-.5 .0 -.83 -.26q-.33 -.27 -.33 -.83q.0 -.55 .43 -.85q.43 -.3 1.33 -.33l.63 -.02v-.22q.0 -.46 -.2 -.64q-.2 -.18 -.56 -.18q-.29 .0 -.55 .09q-.26 .08 -.49 .19l-.18 -.45q.24 -.13 .57 -.22q.33 -.1 .69 -.1zM163.07 6.44q-.68 .02 -.95 .22q-.26 .19 -.26 .54q.0 .3 .18 .45q.19 .14 .49 .14q.46 .0 .77 -.26q.31 -.26 .31 -.8v-.33l-.54 .02z" fill="#AB5CF2" stroke="none"/>
                        
                <path d="M165.89 3.17h.82v.29h-.82v.85h-.3v-.85h-.82v-.29h.82v-.85h.3v.85z" fill="#AB5CF2" stroke="none"/>
                      
            </g>
                
            <line class="hi" id="mol1bnd8" stroke="#3050F8" x1="60.71" x2="55.685" y1="10.29" y2="13.19"/>
            <line class="hi" id="mol1bnd8" stroke="#3050F8" x1="60.71" x2="55.685" y1="10.29" y2="13.19"/>
            <line class="hi" id="mol1bnd9" stroke="#3050F8" x1="67.02" x2="72.05" y1="10.29" y2="13.19"/>
            <line class="hi" id="mol1bnd9" stroke="#3050F8" x1="67.02" x2="72.05" y1="10.29" y2="13.19"/>
            <line class="hi" id="mol1bnd11" stroke="#3050F8" x1="77.08" x2="77.08" y1="27.48" y2="21.785"/>
            <line class="hi" id="mol1bnd14" stroke="#FF0D0D" x1="63.87" x2="63.87" y1="50.24" y2="44.595"/>
            <line class="hi" id="mol1bnd14" stroke="#FF0D0D" x1="63.87" x2="63.87" y1="50.24" y2="44.595"/>
            <line class="hi" id="mol1bnd22" stroke="#3050F8" x1="121.87" x2="126.895" y1="53.31" y2="56.21"/>
            <line class="hi" id="mol1bnd22" stroke="#3050F8" x1="121.87" x2="126.895" y1="53.31" y2="56.21"/>
            <line class="hi" id="mol1bnd23" stroke="#3050F8" x1="118.72" x2="118.715" y1="47.63" y2="41.935"/>
            <line class="hi" id="mol1bnd23" stroke="#3050F8" x1="118.72" x2="118.715" y1="47.63" y2="41.935"/>
            <line class="hi" id="mol1bnd25" stroke="#3050F8" x1="128.76" x2="123.73499999999999" y1="30.44" y2="33.34"/>
            <line class="hi" id="mol1bnd28" stroke="#FF0D0D" x1="155.03" x2="150.07" y1="30.52" y2="33.38"/>
        </g>
          
    </g>
    
</svg>
