<svg xmlns="http://www.w3.org/2000/svg" xmlns:xlink="http://www.w3.org/1999/xlink" height="57.46mm" version="1.2" viewBox="0 0 123.71 57.46" width="123.71mm">
      
    <desc>Generated by the Chemistry Development Kit (http://github.com/cdk)</desc>
      
    <g fill="#1FF01F" stroke="#000000" stroke-linecap="round" stroke-linejoin="round" stroke-width=".7">
            
        <rect fill="#FFFFFF" height="58.0" stroke="none" width="124.0" x=".0" y=".0"/>
            
        <g class="mol" id="mol1">
                  
            <line class="bond" id="mol1bnd1" x1="1.04" x2="11.09" y1="1.08" y2="6.87"/>
                  
            <line class="bond" id="mol1bnd2" x1="17.4" x2="27.43" y1="6.85" y2="1.04"/>
                  
            <line class="bond" id="mol1bnd3" x1="14.26" x2="14.27" y1="12.53" y2="23.92"/>
                  
            <line class="bond" id="mol1bnd4" x1="14.27" x2="1.17" y1="23.92" y2="31.54"/>
                  
            <line class="bond" id="mol1bnd5" x1="1.17" x2="1.17" y1="31.54" y2="46.78"/>
                  
            <line class="bond" id="mol1bnd6" x1="1.17" x2="14.27" y1="46.78" y2="54.4"/>
                  
            <line class="bond" id="mol1bnd7" x1="14.27" x2="27.48" y1="54.4" y2="46.78"/>
                  
            <line class="bond" id="mol1bnd8" x1="27.48" x2="27.48" y1="46.78" y2="31.54"/>
                  
            <line class="bond" id="mol1bnd9" x1="14.27" x2="27.48" y1="23.92" y2="31.54"/>
                  
            <line class="bond" id="mol1bnd10" x1="27.48" x2="37.53" y1="31.54" y2="25.74"/>
                  
            <line class="bond" id="mol1bnd11" x1="40.68" x2="40.68" y1="20.07" y2="8.68"/>
                  
            <line class="bond" id="mol1bnd12" x1="43.83" x2="53.88" y1="25.74" y2="31.54"/>
                  
            <g class="bond" id="mol1bnd13">
                        
                <line x1="55.1" x2="55.1" y1="30.83" y2="42.85"/>
                        
                <line x1="52.66" x2="52.66" y1="30.83" y2="42.86"/>
                      
                <line class="hi" stroke="#FF0D0D" x1="55.1" x2="55.1" y1="42.85" y2="36.84"/>
                <line class="hi" stroke="#FF0D0D" x1="52.66" x2="52.66" y1="42.86" y2="36.845"/>
            </g>
                  
            <line class="bond" id="mol1bnd14" x1="53.88" x2="67.08" y1="31.54" y2="23.91"/>
                  
            <line class="bond" id="mol1bnd15" x1="67.08" x2="80.28" y1="23.91" y2="31.53"/>
                  
            <g class="bond" id="mol1bnd16">
                        
                <line x1="93.48" x2="80.28" y1="23.91" y2="31.53"/>
                        
                <line x1="93.48" x2="82.71" y1="26.72" y2="32.94"/>
                      
            </g>
                  
            <line class="bond" id="mol1bnd17" x1="93.48" x2="106.69" y1="23.91" y2="31.52"/>
                  
            <g class="bond" id="mol1bnd18">
                        
                <line x1="106.7" x2="106.69" y1="46.76" y2="31.52"/>
                        
                <line x1="104.26" x2="104.25" y1="45.36" y2="32.93"/>
                      
            </g>
                  
            <line class="bond" id="mol1bnd19" x1="106.7" x2="93.49" y1="46.76" y2="54.39"/>
                  
            <g class="bond" id="mol1bnd20">
                        
                <line x1="80.28" x2="93.49" y1="46.77" y2="54.39"/>
                        
                <line x1="82.72" x2="93.49" y1="45.36" y2="51.57"/>
                      
            </g>
                  
            <line class="bond" id="mol1bnd21" x1="80.28" x2="80.28" y1="31.53" y2="46.77"/>
                  
            <line class="bond" id="mol1bnd22" x1="106.7" x2="116.95" y1="46.76" y2="52.68"/>
                  
            <line class="bond" id="mol1bnd23" x1="106.69" x2="116.93" y1="31.52" y2="25.61"/>
                  
            <path class="atom" d="M16.19 11.13h-.72l-2.62 -4.07h-.03q.01 .24 .03 .6q.02 .36 .02 .73v2.74h-.57v-4.9h.71l2.61 4.05h.03q-.01 -.11 -.02 -.33q-.01 -.22 -.02 -.48q-.01 -.26 -.01 -.48v-2.77h.58v4.9z" fill="#3050F8" id="mol1atm2" stroke="none"/>
                  
            <path class="atom" d="M42.62 26.37h-.72l-2.62 -4.07h-.03q.01 .24 .03 .6q.02 .36 .02 .73v2.74h-.57v-4.9h.71l2.61 4.05h.03q-.01 -.11 -.02 -.33q-.01 -.22 -.02 -.48q-.01 -.26 -.01 -.48v-2.77h.58v4.9z" fill="#3050F8" id="mol1atm10" stroke="none"/>
                  
            <path class="atom" d="M56.14 46.77q.0 .76 -.26 1.33q-.26 .57 -.76 .88q-.5 .32 -1.24 .32q-.76 .0 -1.26 -.32q-.51 -.32 -.76 -.89q-.24 -.57 -.24 -1.33q.0 -.75 .24 -1.31q.25 -.57 .76 -.88q.51 -.32 1.27 -.32q.73 .0 1.23 .32q.5 .31 .76 .88q.26 .57 .26 1.33zM52.28 46.77q.0 .92 .39 1.46q.39 .53 1.22 .53q.84 .0 1.22 -.53q.39 -.54 .39 -1.46q.0 -.93 -.39 -1.45q-.38 -.52 -1.21 -.52q-.83 .0 -1.23 .52q-.39 .52 -.39 1.45z" fill="#FF0D0D" id="mol1atm13" stroke="none"/>
                  
            <path class="atom" d="M120.39 52.4q-.79 .0 -1.24 .53q-.45 .52 -.45 1.45q.0 .91 .42 1.45q.42 .53 1.27 .53q.32 .0 .61 -.05q.29 -.06 .57 -.14v.54q-.27 .1 -.57 .15q-.29 .05 -.7 .05q-.74 .0 -1.25 -.31q-.5 -.31 -.75 -.88q-.25 -.57 -.25 -1.34q.0 -.74 .27 -1.31q.27 -.57 .8 -.88q.53 -.32 1.28 -.32q.78 .0 1.35 .29l-.24 .52q-.23 -.1 -.51 -.18q-.27 -.08 -.61 -.08zM123.15 56.83h-.6v-5.21h.6v5.21z" id="mol1atm21" stroke="none"/>
                  
            <path class="atom" d="M120.38 21.92q-.79 .0 -1.24 .53q-.45 .52 -.45 1.45q.0 .91 .42 1.45q.42 .53 1.27 .53q.32 .0 .61 -.05q.29 -.06 .57 -.14v.54q-.27 .1 -.57 .15q-.29 .05 -.7 .05q-.74 .0 -1.25 -.31q-.5 -.31 -.75 -.88q-.25 -.57 -.25 -1.34q.0 -.74 .27 -1.31q.27 -.57 .8 -.88q.53 -.32 1.28 -.32q.78 .0 1.35 .29l-.24 .52q-.23 -.1 -.51 -.18q-.27 -.08 -.61 -.08zM123.14 26.34h-.6v-5.21h.6v5.21z" id="mol1atm22" stroke="none"/>
                
            <line class="hi" id="mol1bnd1" stroke="#3050F8" x1="11.09" x2="6.0649999999999995" y1="6.87" y2="3.975"/>
            <line class="hi" id="mol1bnd2" stroke="#3050F8" x1="17.4" x2="22.415" y1="6.85" y2="3.945"/>
            <line class="hi" id="mol1bnd3" stroke="#3050F8" x1="14.26" x2="14.265" y1="12.53" y2="18.225"/>
            <line class="hi" id="mol1bnd10" stroke="#3050F8" x1="37.53" x2="32.505" y1="25.74" y2="28.64"/>
            <line class="hi" id="mol1bnd11" stroke="#3050F8" x1="40.68" x2="40.68" y1="20.07" y2="14.375"/>
            <line class="hi" id="mol1bnd12" stroke="#3050F8" x1="43.83" x2="48.855000000000004" y1="25.74" y2="28.64"/>
            <line class="hi" id="mol1bnd22" stroke="#1FF01F" x1="116.95" x2="111.825" y1="52.68" y2="49.72"/>
            <line class="hi" id="mol1bnd23" stroke="#1FF01F" x1="116.93" x2="111.81" y1="25.61" y2="28.564999999999998"/>
        </g>
          
    </g>
    
</svg>
