<svg xmlns="http://www.w3.org/2000/svg" xmlns:xlink="http://www.w3.org/1999/xlink" height="13.78mm" version="1.2" viewBox="0 0 80.24 13.78" width="80.24mm">
      
    <desc>Generated by the Chemistry Development Kit (http://github.com/cdk)</desc>
      
    <g fill="#FF0D0D" stroke="#000000" stroke-linecap="round" stroke-linejoin="round" stroke-width=".7">
            
        <rect fill="#FFFFFF" height="14.0" stroke="none" width="81.0" x=".0" y=".0"/>
            
        <g class="mol" id="mol1">
                  
            <line class="bond" id="mol1bnd1" x1="59.92" x2="46.72" y1="3.08" y2="10.7"/>
                  
            <line class="bond" id="mol1bnd2" x1="46.72" x2="33.52" y1="10.7" y2="3.08"/>
                  
            <line class="bond" id="mol1bnd3" x1="33.52" x2="20.32" y1="3.08" y2="10.7"/>
                  
            <line class="bond" id="mol1bnd4" x1="20.32" x2="10.4" y1="10.7" y2="4.97"/>
                  
            <line class="bond" id="mol1bnd5" x1="59.92" x2="69.83" y1="3.08" y2="8.81"/>
                  
            <g class="atom" id="mol1atm5">
                        
                <path d="M9.38 3.08q.0 .76 -.26 1.33q-.26 .57 -.76 .88q-.5 .32 -1.24 .32q-.76 .0 -1.26 -.32q-.51 -.32 -.76 -.89q-.24 -.57 -.24 -1.33q.0 -.75 .24 -1.31q.25 -.57 .76 -.88q.51 -.32 1.27 -.32q.73 .0 1.23 .32q.5 .31 .76 .88q.26 .57 .26 1.33zM5.52 3.08q.0 .92 .39 1.46q.39 .53 1.22 .53q.84 .0 1.22 -.53q.39 -.54 .39 -1.46q.0 -.93 -.39 -1.45q-.38 -.52 -1.21 -.52q-.83 .0 -1.23 .52q-.39 .52 -.39 1.45z" stroke="none"/>
                        
                <path d="M4.3 5.53h-.62v-2.29h-2.51v2.29h-.61v-4.9h.61v2.07h2.51v-2.07h.62v4.9z" stroke="none"/>
                      
            </g>
                  
            <g class="atom" id="mol1atm6">
                        
                <path d="M75.38 10.7q.0 .76 -.26 1.33q-.26 .57 -.76 .88q-.5 .32 -1.24 .32q-.76 .0 -1.26 -.32q-.51 -.32 -.76 -.89q-.24 -.57 -.24 -1.33q.0 -.75 .24 -1.31q.25 -.57 .76 -.88q.51 -.32 1.27 -.32q.73 .0 1.23 .32q.5 .31 .76 .88q.26 .57 .26 1.33zM71.51 10.7q.0 .92 .39 1.46q.39 .53 1.22 .53q.84 .0 1.22 -.53q.39 -.54 .39 -1.46q.0 -.93 -.39 -1.45q-.38 -.52 -1.21 -.52q-.83 .0 -1.23 .52q-.39 .52 -.39 1.45z" stroke="none"/>
                        
                <path d="M79.68 13.15h-.62v-2.29h-2.51v2.29h-.61v-4.9h.61v2.07h2.51v-2.07h.62v4.9z" stroke="none"/>
                      
            </g>
                
            <line class="hi" id="mol1bnd4" stroke="#FF0D0D" x1="10.4" x2="15.36" y1="4.97" y2="7.834999999999999"/>
            <line class="hi" id="mol1bnd4" stroke="#FF0D0D" x1="10.4" x2="15.36" y1="4.97" y2="7.834999999999999"/>
            <line class="hi" id="mol1bnd5" stroke="#FF0D0D" x1="69.83" x2="64.875" y1="8.81" y2="5.945"/>
        </g>
          
    </g>
    
</svg>
