<svg xmlns="http://www.w3.org/2000/svg" xmlns:xlink="http://www.w3.org/1999/xlink" height="78.3mm" version="1.2" viewBox="0 0 134.48 78.3" width="134.48mm">
      
    <desc>Generated by the Chemistry Development Kit (http://github.com/cdk)</desc>
      
    <g fill="#FF0D0D" stroke="#000000" stroke-linecap="round" stroke-linejoin="round" stroke-width=".7">
            
        <rect fill="#FFFFFF" height="79.0" stroke="none" width="135.0" x=".0" y=".0"/>
            
        <g class="mol" id="mol1">
                  
            <line class="bond" id="mol1bnd1" x1="41.05" x2="31.12" y1="77.26" y2="71.53"/>
                  
            <line class="bond" id="mol1bnd2" x1="27.85" x2="27.85" y1="65.72" y2="54.4"/>
                  
            <g class="bond" id="mol1bnd3">
                        
                <line x1="14.65" x2="27.85" y1="46.77" y2="54.4"/>
                        
                <line x1="17.09" x2="27.85" y1="45.36" y2="51.58"/>
                      
            </g>
                  
            <line class="bond" id="mol1bnd4" x1="14.65" x2="14.64" y1="46.77" y2="31.52"/>
                  
            <g class="bond" id="mol1bnd5">
                        
                <line x1="27.84" x2="14.64" y1="23.9" y2="31.52"/>
                        
                <line x1="27.84" x2="17.08" y1="26.72" y2="32.93"/>
                      
            </g>
                  
            <line class="bond" id="mol1bnd6" x1="27.84" x2="41.04" y1="23.9" y2="31.53"/>
                  
            <g class="bond" id="mol1bnd7">
                        
                <line x1="41.05" x2="41.04" y1="46.78" y2="31.53"/>
                        
                <line x1="38.61" x2="38.61" y1="45.37" y2="32.94"/>
                      
            </g>
                  
            <line class="bond" id="mol1bnd8" x1="27.85" x2="41.05" y1="54.4" y2="46.78"/>
                  
            <line class="bond" id="mol1bnd9" x1="41.05" x2="54.25" y1="46.78" y2="54.4"/>
                  
            <line class="bond" id="mol1bnd10" x1="54.25" x2="67.45" y1="54.4" y2="46.77"/>
                  
            <line class="bond" id="mol1bnd11" x1="67.45" x2="77.49" y1="46.77" y2="52.57"/>
                  
            <line class="bond" id="mol1bnd12" x1="83.8" x2="93.84" y1="52.57" y2="46.77"/>
                  
            <line class="bond" id="mol1bnd13" x1="93.84" x2="107.04" y1="46.77" y2="54.39"/>
                  
            <g class="bond" id="mol1bnd14">
                        
                <line x1="107.04" x2="107.07" y1="54.39" y2="69.55"/>
                        
                <line x1="109.48" x2="109.5" y1="55.8" y2="68.14"/>
                      
            </g>
                  
            <line class="bond" id="mol1bnd15" x1="107.07" x2="120.25" y1="69.55" y2="77.19"/>
                  
            <g class="bond" id="mol1bnd16">
                        
                <line x1="120.25" x2="133.42" y1="77.19" y2="69.67"/>
                        
                <line x1="120.26" x2="130.98" y1="74.37" y2="68.25"/>
                      
            </g>
                  
            <line class="bond" id="mol1bnd17" x1="133.42" x2="133.44" y1="69.67" y2="54.42"/>
                  
            <g class="bond" id="mol1bnd18">
                        
                <line x1="133.44" x2="120.26" y1="54.42" y2="46.78"/>
                        
                <line x1="131.0" x2="120.25" y1="55.82" y2="49.59"/>
                      
            </g>
                  
            <line class="bond" id="mol1bnd19" x1="107.04" x2="120.26" y1="54.39" y2="46.78"/>
                  
            <line class="bond" id="mol1bnd20" x1="120.26" x2="120.27" y1="46.78" y2="34.61"/>
                  
            <line class="bond" id="mol1bnd21" x1="27.84" x2="27.84" y1="23.9" y2="12.58"/>
                  
            <line class="bond" id="mol1bnd22" x1="24.56" x2="14.65" y1="6.76" y2="1.04"/>
                  
            <line class="bond" id="mol1bnd23" x1="14.64" x2="3.54" y1="31.52" y2="25.11"/>
                  
            <path class="atom" d="M30.11 69.63q.0 .76 -.26 1.33q-.26 .57 -.76 .88q-.5 .32 -1.24 .32q-.76 .0 -1.26 -.32q-.51 -.32 -.76 -.89q-.24 -.57 -.24 -1.33q.0 -.75 .24 -1.31q.25 -.57 .76 -.88q.51 -.32 1.27 -.32q.73 .0 1.23 .32q.5 .31 .76 .88q.26 .57 .26 1.33zM26.24 69.63q.0 .92 .39 1.46q.39 .53 1.22 .53q.84 .0 1.22 -.53q.39 -.54 .39 -1.46q.0 -.93 -.39 -1.45q-.38 -.52 -1.21 -.52q-.83 .0 -1.23 .52q-.39 .52 -.39 1.45z" id="mol1atm2" stroke="none"/>
                  
            <g class="atom" id="mol1atm11">
                        
                <path d="M82.59 56.84h-.72l-2.62 -4.07h-.03q.01 .24 .03 .6q.02 .36 .02 .73v2.74h-.57v-4.9h.71l2.61 4.05h.03q-.01 -.11 -.02 -.33q-.01 -.22 -.02 -.48q-.01 -.26 -.01 -.48v-2.77h.58v4.9z" fill="#3050F8" stroke="none"/>
                        
                <path d="M82.45 62.3h-.62v-2.29h-2.51v2.29h-.61v-4.9h.61v2.07h2.51v-2.07h.62v4.9z" fill="#3050F8" stroke="none"/>
                      
            </g>
                  
            <path class="atom" d="M119.52 33.99h-.61v-4.9h2.73v.54h-2.12v1.74h1.99v.54h-1.99v2.08z" fill="#90E050" id="mol1atm19" stroke="none"/>
                  
            <path class="atom" d="M30.1 8.66q.0 .76 -.26 1.33q-.26 .57 -.76 .88q-.5 .32 -1.24 .32q-.76 .0 -1.26 -.32q-.51 -.32 -.76 -.89q-.24 -.57 -.24 -1.33q.0 -.75 .24 -1.31q.25 -.57 .76 -.88q.51 -.32 1.27 -.32q.73 .0 1.23 .32q.5 .31 .76 .88q.26 .57 .26 1.33zM26.24 8.66q.0 .92 .39 1.46q.39 .53 1.22 .53q.84 .0 1.22 -.53q.39 -.54 .39 -1.46q.0 -.93 -.39 -1.45q-.38 -.52 -1.21 -.52q-.83 .0 -1.23 .52q-.39 .52 -.39 1.45z" id="mol1atm20" stroke="none"/>
                  
            <path class="atom" d="M2.33 26.35h-1.77v-.36l.58 -.13v-3.92l-.58 -.14v-.36h1.77v.36l-.57 .14v3.92l.57 .13v.36z" fill="#940094" id="mol1atm22" stroke="none"/>
                
            <line class="hi" id="mol1bnd1" stroke="#FF0D0D" x1="31.12" x2="36.085" y1="71.53" y2="74.39500000000001"/>
            <line class="hi" id="mol1bnd2" stroke="#FF0D0D" x1="27.85" x2="27.85" y1="65.72" y2="60.06"/>
            <line class="hi" id="mol1bnd11" stroke="#3050F8" x1="77.49" x2="72.47" y1="52.57" y2="49.67"/>
            <line class="hi" id="mol1bnd12" stroke="#3050F8" x1="83.8" x2="88.82" y1="52.57" y2="49.67"/>
            <line class="hi" id="mol1bnd20" stroke="#90E050" x1="120.27" x2="120.265" y1="34.61" y2="40.695"/>
            <line class="hi" id="mol1bnd21" stroke="#FF0D0D" x1="27.84" x2="27.84" y1="12.58" y2="18.24"/>
            <line class="hi" id="mol1bnd22" stroke="#FF0D0D" x1="24.56" x2="19.605" y1="6.76" y2="3.9"/>
            <line class="hi" id="mol1bnd23" stroke="#940094" x1="3.539999999999999" x2="9.09" y1="25.11" y2="28.314999999999998"/>
        </g>
          
    </g>
    
</svg>
