<svg xmlns="http://www.w3.org/2000/svg" xmlns:xlink="http://www.w3.org/1999/xlink" height="141.22mm" version="1.2" viewBox="0 0 104.75 141.22" width="104.75mm">
      
    <desc>Generated by the Chemistry Development Kit (http://github.com/cdk)</desc>
      
    <g fill="#FF0D0D" stroke="#000000" stroke-linecap="round" stroke-linejoin="round" stroke-width=".7">
            
        <rect fill="#FFFFFF" height="142.0" stroke="none" width="105.0" x=".0" y=".0"/>
            
        <g class="mol" id="mol1">
                  
            <line class="bond" id="mol1bnd1" x1="1.04" x2="10.95" y1="41.12" y2="46.84"/>
                  
            <line class="bond" id="mol1bnd2" x1="17.51" x2="27.43" y1="46.85" y2="41.12"/>
                  
            <g class="bond" id="mol1bnd3">
                        
                <line x1="27.44" x2="27.43" y1="25.88" y2="41.12"/>
                        
                <line x1="29.88" x2="29.87" y1="27.28" y2="39.72"/>
                      
            </g>
                  
            <line class="bond" id="mol1bnd4" x1="27.44" x2="40.65" y1="25.88" y2="18.25"/>
                  
            <g class="bond" id="mol1bnd5">
                        
                <line x1="53.84" x2="40.65" y1="25.87" y2="18.25"/>
                        
                <line x1="51.4" x2="40.65" y1="27.28" y2="21.07"/>
                      
            </g>
                  
            <line class="bond" id="mol1bnd6" x1="53.84" x2="53.84" y1="25.87" y2="41.12"/>
                  
            <g class="bond" id="mol1bnd7">
                        
                <line x1="40.63" x2="53.84" y1="48.75" y2="41.12"/>
                        
                <line x1="40.63" x2="51.4" y1="45.93" y2="39.71"/>
                      
            </g>
                  
            <line class="bond" id="mol1bnd8" x1="27.43" x2="40.63" y1="41.12" y2="48.75"/>
                  
            <line class="bond" id="mol1bnd9" x1="40.63" x2="40.63" y1="48.75" y2="63.99"/>
                  
            <line class="bond" id="mol1bnd10" x1="40.63" x2="53.83" y1="63.99" y2="71.61"/>
                  
            <line class="bond" id="mol1bnd11" x1="53.83" x2="53.83" y1="71.61" y2="83.0"/>
                  
            <line class="bond" id="mol1bnd12" x1="56.98" x2="67.03" y1="88.67" y2="94.47"/>
                  
            <line class="bond" id="mol1bnd13" x1="67.03" x2="67.03" y1="94.47" y2="109.71"/>
                  
            <g class="bond" id="mol1bnd14">
                        
                <line x1="80.24" x2="67.03" y1="117.33" y2="109.71"/>
                        
                <line x1="77.8" x2="67.03" y1="118.73" y2="112.52"/>
                      
            </g>
                  
            <line class="bond" id="mol1bnd15" x1="80.24" x2="80.24" y1="117.33" y2="132.57"/>
                  
            <g class="bond" id="mol1bnd16">
                        
                <line x1="67.03" x2="80.24" y1="140.19" y2="132.57"/>
                        
                <line x1="67.03" x2="77.8" y1="137.37" y2="131.16"/>
                      
            </g>
                  
            <line class="bond" id="mol1bnd17" x1="67.03" x2="53.82" y1="140.19" y2="132.57"/>
                  
            <g class="bond" id="mol1bnd18">
                        
                <line x1="53.82" x2="53.82" y1="117.33" y2="132.57"/>
                        
                <line x1="56.26" x2="56.26" y1="118.73" y2="131.16"/>
                      
            </g>
                  
            <line class="bond" id="mol1bnd19" x1="67.03" x2="53.82" y1="109.71" y2="117.33"/>
                  
            <line class="bond" id="mol1bnd20" x1="80.24" x2="91.17" y1="132.57" y2="136.08"/>
                  
            <line class="bond" id="mol1bnd21" x1="97.08" x2="103.71" y1="134.05" y2="124.95"/>
                  
            <line class="bond" id="mol1bnd22" x1="103.71" x2="97.08" y1="124.95" y2="115.84"/>
                  
            <line class="bond" id="mol1bnd23" x1="80.24" x2="91.17" y1="117.33" y2="113.81"/>
                  
            <line class="bond" id="mol1bnd24" x1="53.84" x2="63.76" y1="25.87" y2="20.15"/>
                  
            <line class="bond" id="mol1bnd25" x1="67.05" x2="67.05" y1="14.33" y2="3.02"/>
                  
            <line class="bond" id="mol1bnd26" x1="40.65" x2="40.65" y1="18.25" y2="6.86"/>
                  
            <path class="atom" d="M16.49 48.74q.0 .76 -.26 1.33q-.26 .57 -.76 .88q-.5 .32 -1.24 .32q-.76 .0 -1.26 -.32q-.51 -.32 -.76 -.89q-.24 -.57 -.24 -1.33q.0 -.75 .24 -1.31q.25 -.57 .76 -.88q.51 -.32 1.27 -.32q.73 .0 1.23 .32q.5 .31 .76 .88q.26 .57 .26 1.33zM12.63 48.74q.0 .92 .39 1.46q.39 .53 1.22 .53q.84 .0 1.22 -.53q.39 -.54 .39 -1.46q.0 -.93 -.39 -1.45q-.38 -.52 -1.21 -.52q-.83 .0 -1.23 .52q-.39 .52 -.39 1.45z" id="mol1atm2" stroke="none"/>
                  
            <g class="atom" id="mol1atm11">
                        
                <path d="M55.77 89.3h-.72l-2.62 -4.07h-.03q.01 .24 .03 .6q.02 .36 .02 .73v2.74h-.57v-4.9h.71l2.61 4.05h.03q-.01 -.11 -.02 -.33q-.01 -.22 -.02 -.48q-.01 -.26 -.01 -.48v-2.77h.58v4.9z" fill="#3050F8" stroke="none"/>
                        
                <path d="M51.33 89.3h-.62v-2.29h-2.51v2.29h-.61v-4.9h.61v2.07h2.51v-2.07h.62v4.9z" fill="#3050F8" stroke="none"/>
                      
            </g>
                  
            <path class="atom" d="M97.02 137.24q.0 .76 -.26 1.33q-.26 .57 -.76 .88q-.5 .32 -1.24 .32q-.76 .0 -1.26 -.32q-.51 -.32 -.76 -.89q-.24 -.57 -.24 -1.33q.0 -.75 .24 -1.31q.25 -.57 .76 -.88q.51 -.32 1.27 -.32q.73 .0 1.23 .32q.5 .31 .76 .88q.26 .57 .26 1.33zM93.16 137.24q.0 .92 .39 1.46q.39 .53 1.22 .53q.84 .0 1.22 -.53q.39 -.54 .39 -1.46q.0 -.93 -.39 -1.45q-.38 -.52 -1.21 -.52q-.83 .0 -1.23 .52q-.39 .52 -.39 1.45z" id="mol1atm19" stroke="none"/>
                  
            <path class="atom" d="M97.02 112.65q.0 .76 -.26 1.33q-.26 .57 -.76 .88q-.5 .32 -1.24 .32q-.76 .0 -1.26 -.32q-.51 -.32 -.76 -.89q-.24 -.57 -.24 -1.33q.0 -.75 .24 -1.31q.25 -.57 .76 -.88q.51 -.32 1.27 -.32q.73 .0 1.23 .32q.5 .31 .76 .88q.26 .57 .26 1.33zM93.16 112.65q.0 .92 .39 1.46q.39 .53 1.22 .53q.84 .0 1.22 -.53q.39 -.54 .39 -1.46q.0 -.93 -.39 -1.45q-.38 -.52 -1.21 -.52q-.83 .0 -1.23 .52q-.39 .52 -.39 1.45z" id="mol1atm21" stroke="none"/>
                  
            <path class="atom" d="M69.3 18.25q.0 .76 -.26 1.33q-.26 .57 -.76 .88q-.5 .32 -1.24 .32q-.76 .0 -1.26 -.32q-.51 -.32 -.76 -.89q-.24 -.57 -.24 -1.33q.0 -.75 .24 -1.31q.25 -.57 .76 -.88q.51 -.32 1.27 -.32q.73 .0 1.23 .32q.5 .31 .76 .88q.26 .57 .26 1.33zM65.44 18.25q.0 .92 .39 1.46q.39 .53 1.22 .53q.84 .0 1.22 -.53q.39 -.54 .39 -1.46q.0 -.93 -.39 -1.45q-.38 -.52 -1.21 -.52q-.83 .0 -1.23 .52q-.39 .52 -.39 1.45z" id="mol1atm22" stroke="none"/>
                  
            <path class="atom" d="M41.53 5.46h-1.77v-.36l.58 -.13v-3.92l-.58 -.14v-.36h1.77v.36l-.57 .14v3.92l.57 .13v.36z" fill="#940094" id="mol1atm24" stroke="none"/>
                
            <line class="hi" id="mol1bnd1" stroke="#FF0D0D" x1="10.95" x2="5.994999999999999" y1="46.84" y2="43.980000000000004"/>
            <line class="hi" id="mol1bnd2" stroke="#FF0D0D" x1="17.51" x2="22.47" y1="46.85" y2="43.985"/>
            <line class="hi" id="mol1bnd11" stroke="#3050F8" x1="53.83" x2="53.83" y1="83.0" y2="77.305"/>
            <line class="hi" id="mol1bnd11" stroke="#3050F8" x1="53.83" x2="53.83" y1="83.0" y2="77.305"/>
            <line class="hi" id="mol1bnd12" stroke="#3050F8" x1="56.98" x2="62.004999999999995" y1="88.67" y2="91.57"/>
            <line class="hi" id="mol1bnd12" stroke="#3050F8" x1="56.98" x2="62.004999999999995" y1="88.67" y2="91.57"/>
            <line class="hi" id="mol1bnd20" stroke="#FF0D0D" x1="91.17" x2="85.705" y1="136.08" y2="134.325"/>
            <line class="hi" id="mol1bnd21" stroke="#FF0D0D" x1="97.08" x2="100.395" y1="134.05" y2="129.5"/>
            <line class="hi" id="mol1bnd22" stroke="#FF0D0D" x1="97.08" x2="100.395" y1="115.84" y2="120.39500000000001"/>
            <line class="hi" id="mol1bnd23" stroke="#FF0D0D" x1="91.17" x2="85.705" y1="113.81" y2="115.57"/>
            <line class="hi" id="mol1bnd24" stroke="#FF0D0D" x1="63.76" x2="58.8" y1="20.15" y2="23.009999999999998"/>
            <line class="hi" id="mol1bnd25" stroke="#FF0D0D" x1="67.05" x2="67.05" y1="14.33" y2="8.675"/>
            <line class="hi" id="mol1bnd26" stroke="#940094" x1="40.65" x2="40.65" y1="6.859999999999999" y2="12.555"/>
        </g>
          
    </g>
    
</svg>
