<svg xmlns="http://www.w3.org/2000/svg" xmlns:xlink="http://www.w3.org/1999/xlink" height="72.7mm" version="1.2" viewBox="0 0 149.07 72.7" width="149.07mm">
      
    <desc>Generated by the Chemistry Development Kit (http://github.com/cdk)</desc>
      
    <g fill="#FF0D0D" stroke="#000000" stroke-linecap="round" stroke-linejoin="round" stroke-width=".7">
            
        <rect fill="#FFFFFF" height="73.0" stroke="none" width="150.0" x=".0" y=".0"/>
            
        <g class="mol" id="mol1">
                  
            <line class="bond" id="mol1bnd1" x1="1.04" x2="10.96" y1="54.39" y2="48.67"/>
                  
            <line class="bond" id="mol1bnd2" x1="14.24" x2="14.25" y1="42.85" y2="31.54"/>
                  
            <g class="bond" id="mol1bnd3">
                        
                <line x1="1.04" x2="14.25" y1="23.91" y2="31.54"/>
                        
                <line x1="3.48" x2="14.25" y1="22.5" y2="28.72"/>
                      
            </g>
                  
            <line class="bond" id="mol1bnd4" x1="1.04" x2="1.04" y1="23.91" y2="8.66"/>
                  
            <g class="bond" id="mol1bnd5">
                        
                <line x1="14.24" x2="1.04" y1="1.04" y2="8.66"/>
                        
                <line x1="14.24" x2="3.48" y1="3.85" y2="10.07"/>
                      
            </g>
                  
            <line class="bond" id="mol1bnd6" x1="14.24" x2="27.44" y1="1.04" y2="8.67"/>
                  
            <g class="bond" id="mol1bnd7">
                        
                <line x1="27.44" x2="27.44" y1="23.92" y2="8.67"/>
                        
                <line x1="25.01" x2="25.0" y1="22.51" y2="10.07"/>
                      
            </g>
                  
            <line class="bond" id="mol1bnd8" x1="14.25" x2="27.44" y1="31.54" y2="23.92"/>
                  
            <line class="bond" id="mol1bnd9" x1="27.44" x2="40.64" y1="23.92" y2="31.53"/>
                  
            <line class="bond" id="mol1bnd10" x1="40.64" x2="50.69" y1="31.53" y2="25.73"/>
                  
            <line class="bond" id="mol1bnd11" x1="56.99" x2="67.04" y1="25.73" y2="31.53"/>
                  
            <line class="bond" id="mol1bnd12" x1="67.04" x2="80.24" y1="31.53" y2="23.91"/>
                  
            <line class="bond" id="mol1bnd13" x1="80.24" x2="93.44" y1="23.91" y2="31.52"/>
                  
            <g class="bond" id="mol1bnd14">
                        
                <line x1="106.64" x2="93.44" y1="23.9" y2="31.52"/>
                        
                <line x1="106.64" x2="95.88" y1="26.72" y2="32.93"/>
                      
            </g>
                  
            <line class="bond" id="mol1bnd15" x1="106.64" x2="119.85" y1="23.9" y2="31.52"/>
                  
            <g class="bond" id="mol1bnd16">
                        
                <line x1="119.86" x2="119.85" y1="46.76" y2="31.52"/>
                        
                <line x1="117.42" x2="117.41" y1="45.35" y2="32.93"/>
                      
            </g>
                  
            <line class="bond" id="mol1bnd17" x1="119.86" x2="106.65" y1="46.76" y2="54.38"/>
                  
            <g class="bond" id="mol1bnd18">
                        
                <line x1="93.44" x2="106.65" y1="46.76" y2="54.38"/>
                        
                <line x1="95.88" x2="106.65" y1="45.36" y2="51.57"/>
                      
            </g>
                  
            <line class="bond" id="mol1bnd19" x1="93.44" x2="93.44" y1="31.52" y2="46.76"/>
                  
            <line class="bond" id="mol1bnd20" x1="93.44" x2="83.52" y1="46.76" y2="52.5"/>
                  
            <line class="bond" id="mol1bnd21" x1="80.25" x2="80.25" y1="58.31" y2="69.63"/>
                  
            <line class="bond" id="mol1bnd22" x1="119.86" x2="129.9" y1="46.76" y2="52.55"/>
                  
            <g class="bond" id="mol1bnd23">
                        
                <line x1="138.09" x2="142.36" y1="50.06" y2="47.59"/>
                        
                <line x1="139.31" x2="143.58" y1="52.17" y2="49.7"/>
                      
                <line class="hi" stroke="#3050F8" x1="138.09" x2="140.22500000000002" y1="50.06" y2="48.825"/>
                <line class="hi" stroke="#3050F8" x1="138.09" x2="140.22500000000002" y1="50.06" y2="48.825"/>
                <line class="hi" stroke="#FF0D0D" x1="142.36" x2="140.22500000000002" y1="47.59" y2="48.825"/>
                <line class="hi" stroke="#3050F8" x1="139.31" x2="141.445" y1="52.17" y2="50.935"/>
                <line class="hi" stroke="#3050F8" x1="139.31" x2="141.445" y1="52.17" y2="50.935"/>
                <line class="hi" stroke="#FF0D0D" x1="143.58" x2="141.445" y1="49.7" y2="50.935"/>
            </g>
                  
            <line class="bond" id="mol1bnd24" x1="133.06" x2="133.06" y1="58.22" y2="65.66"/>
                  
            <line class="bond" id="mol1bnd25" x1="119.85" x2="129.77" y1="31.52" y2="25.79"/>
                  
            <line class="bond" id="mol1bnd26" x1="136.32" x2="146.25" y1="25.78" y2="31.5"/>
                  
            <path class="atom" d="M16.5 46.77q.0 .76 -.26 1.33q-.26 .57 -.76 .88q-.5 .32 -1.24 .32q-.76 .0 -1.26 -.32q-.51 -.32 -.76 -.89q-.24 -.57 -.24 -1.33q.0 -.75 .24 -1.31q.25 -.57 .76 -.88q.51 -.32 1.27 -.32q.73 .0 1.23 .32q.5 .31 .76 .88q.26 .57 .26 1.33zM12.64 46.77q.0 .92 .39 1.46q.39 .53 1.22 .53q.84 .0 1.22 -.53q.39 -.54 .39 -1.46q.0 -.93 -.39 -1.45q-.38 -.52 -1.21 -.52q-.83 .0 -1.23 .52q-.39 .52 -.39 1.45z" id="mol1atm2" stroke="none"/>
                  
            <g class="atom" id="mol1atm10">
                        
                <path d="M55.78 26.36h-.72l-2.62 -4.07h-.03q.01 .24 .03 .6q.02 .36 .02 .73v2.74h-.57v-4.9h.71l2.61 4.05h.03q-.01 -.11 -.02 -.33q-.01 -.22 -.02 -.48q-.01 -.26 -.01 -.48v-2.77h.58v4.9z" fill="#3050F8" stroke="none"/>
                        
                <path d="M55.64 20.9h-.62v-2.29h-2.51v2.29h-.61v-4.9h.61v2.07h2.51v-2.07h.62v4.9z" fill="#3050F8" stroke="none"/>
                      
            </g>
                  
            <path class="atom" d="M82.51 54.39q.0 .76 -.26 1.33q-.26 .57 -.76 .88q-.5 .32 -1.24 .32q-.76 .0 -1.26 -.32q-.51 -.32 -.76 -.89q-.24 -.57 -.24 -1.33q.0 -.75 .24 -1.31q.25 -.57 .76 -.88q.51 -.32 1.27 -.32q.73 .0 1.23 .32q.5 .31 .76 .88q.26 .57 .26 1.33zM78.64 54.39q.0 .92 .39 1.46q.39 .53 1.22 .53q.84 .0 1.22 -.53q.39 -.54 .39 -1.46q.0 -.93 -.39 -1.45q-.38 -.52 -1.21 -.52q-.83 .0 -1.23 .52q-.39 .52 -.39 1.45z" id="mol1atm19" stroke="none"/>
                  
            <g class="atom" id="mol1atm21">
                        
                <path d="M135.0 56.82h-.72l-2.62 -4.07h-.03q.01 .24 .03 .6q.02 .36 .02 .73v2.74h-.57v-4.9h.71l2.61 4.05h.03q-.01 -.11 -.02 -.33q-.01 -.22 -.02 -.48q-.01 -.26 -.01 -.48v-2.77h.58v4.9z" fill="#3050F8" stroke="none"/>
                        
                <path d="M136.67 51.78h.82v.29h-.82v.85h-.3v-.85h-.82v-.29h.82v-.85h.3v.85z" fill="#3050F8" stroke="none"/>
                      
            </g>
                  
            <path class="atom" d="M148.51 46.75q.0 .76 -.26 1.33q-.26 .57 -.76 .88q-.5 .32 -1.24 .32q-.76 .0 -1.26 -.32q-.51 -.32 -.76 -.89q-.24 -.57 -.24 -1.33q.0 -.75 .24 -1.31q.25 -.57 .76 -.88q.51 -.32 1.27 -.32q.73 .0 1.23 .32q.5 .31 .76 .88q.26 .57 .26 1.33zM144.65 46.75q.0 .92 .39 1.46q.39 .53 1.22 .53q.84 .0 1.22 -.53q.39 -.54 .39 -1.46q.0 -.93 -.39 -1.45q-.38 -.52 -1.21 -.52q-.83 .0 -1.23 .52q-.39 .52 -.39 1.45z" id="mol1atm22" stroke="none"/>
                  
            <g class="atom" id="mol1atm23">
                        
                <path d="M135.32 69.61q.0 .76 -.26 1.33q-.26 .57 -.76 .88q-.5 .32 -1.24 .32q-.76 .0 -1.26 -.32q-.51 -.32 -.76 -.89q-.24 -.57 -.24 -1.33q.0 -.75 .24 -1.31q.25 -.57 .76 -.88q.51 -.32 1.27 -.32q.73 .0 1.23 .32q.5 .31 .76 .88q.26 .57 .26 1.33zM131.46 69.61q.0 .92 .39 1.46q.39 .53 1.22 .53q.84 .0 1.22 -.53q.39 -.54 .39 -1.46q.0 -.93 -.39 -1.45q-.38 -.52 -1.21 -.52q-.83 .0 -1.23 .52q-.39 .52 -.39 1.45z" stroke="none"/>
                        
                <path d="M137.81 66.95v.29h-1.93v-.29h1.93z" stroke="none"/>
                      
            </g>
                  
            <path class="atom" d="M135.31 23.89q.0 .76 -.26 1.33q-.26 .57 -.76 .88q-.5 .32 -1.24 .32q-.76 .0 -1.26 -.32q-.51 -.32 -.76 -.89q-.24 -.57 -.24 -1.33q.0 -.75 .24 -1.31q.25 -.57 .76 -.88q.51 -.32 1.27 -.32q.73 .0 1.23 .32q.5 .31 .76 .88q.26 .57 .26 1.33zM131.44 23.89q.0 .92 .39 1.46q.39 .53 1.22 .53q.84 .0 1.22 -.53q.39 -.54 .39 -1.46q.0 -.93 -.39 -1.45q-.38 -.52 -1.21 -.52q-.83 .0 -1.23 .52q-.39 .52 -.39 1.45z" id="mol1atm24" stroke="none"/>
                
            <line class="hi" id="mol1bnd1" stroke="#FF0D0D" x1="10.96" x2="6.0" y1="48.67" y2="51.53"/>
            <line class="hi" id="mol1bnd2" stroke="#FF0D0D" x1="14.24" x2="14.245000000000001" y1="42.85" y2="37.195"/>
            <line class="hi" id="mol1bnd10" stroke="#3050F8" x1="50.69" x2="45.665" y1="25.73" y2="28.630000000000003"/>
            <line class="hi" id="mol1bnd10" stroke="#3050F8" x1="50.69" x2="45.665" y1="25.73" y2="28.630000000000003"/>
            <line class="hi" id="mol1bnd11" stroke="#3050F8" x1="56.99" x2="62.015" y1="25.73" y2="28.630000000000003"/>
            <line class="hi" id="mol1bnd11" stroke="#3050F8" x1="56.99" x2="62.015" y1="25.73" y2="28.630000000000003"/>
            <line class="hi" id="mol1bnd20" stroke="#FF0D0D" x1="83.52" x2="88.47999999999999" y1="52.5" y2="49.629999999999995"/>
            <line class="hi" id="mol1bnd21" stroke="#FF0D0D" x1="80.25" x2="80.25" y1="58.31" y2="63.97"/>
            <line class="hi" id="mol1bnd22" stroke="#3050F8" x1="129.9" x2="124.88" y1="52.55" y2="49.655"/>
            <line class="hi" id="mol1bnd22" stroke="#3050F8" x1="129.9" x2="124.88" y1="52.55" y2="49.655"/>
            <line class="hi" id="mol1bnd24" stroke="#3050F8" x1="133.06" x2="133.06" y1="58.22" y2="61.94"/>
            <line class="hi" id="mol1bnd24" stroke="#3050F8" x1="133.06" x2="133.06" y1="58.22" y2="61.94"/>
            <line class="hi" id="mol1bnd24" stroke="#FF0D0D" x1="133.06" x2="133.06" y1="65.66" y2="61.94"/>
            <line class="hi" id="mol1bnd24" stroke="#FF0D0D" x1="133.06" x2="133.06" y1="65.66" y2="61.94"/>
            <line class="hi" id="mol1bnd25" stroke="#FF0D0D" x1="129.77" x2="124.81" y1="25.79" y2="28.655"/>
            <line class="hi" id="mol1bnd26" stroke="#FF0D0D" x1="136.32" x2="141.285" y1="25.78" y2="28.64"/>
        </g>
          
    </g>
    
</svg>
