<svg xmlns="http://www.w3.org/2000/svg" xmlns:xlink="http://www.w3.org/1999/xlink" height="78.3mm" version="1.2" viewBox="0 0 130.03 78.3" width="130.03mm">
      
    <desc>Generated by the Chemistry Development Kit (http://github.com/cdk)</desc>
      
    <g fill="#3050F8" stroke="#000000" stroke-linecap="round" stroke-linejoin="round" stroke-width=".7">
            
        <rect fill="#FFFFFF" height="79.0" stroke="none" width="131.0" x=".0" y=".0"/>
            
        <g class="mol" id="mol1">
                  
            <line class="bond" id="mol1bnd1" x1="81.12" x2="71.2" y1="77.26" y2="71.53"/>
                  
            <line class="bond" id="mol1bnd2" x1="67.93" x2="67.93" y1="65.72" y2="54.4"/>
                  
            <g class="bond" id="mol1bnd3">
                        
                <line x1="54.72" x2="67.93" y1="46.77" y2="54.4"/>
                        
                <line x1="57.16" x2="67.93" y1="45.36" y2="51.58"/>
                      
            </g>
                  
            <line class="bond" id="mol1bnd4" x1="54.72" x2="54.72" y1="46.77" y2="31.52"/>
                  
            <g class="bond" id="mol1bnd5">
                        
                <line x1="67.92" x2="54.72" y1="23.9" y2="31.52"/>
                        
                <line x1="67.92" x2="57.16" y1="26.72" y2="32.93"/>
                      
            </g>
                  
            <line class="bond" id="mol1bnd6" x1="67.92" x2="81.12" y1="23.9" y2="31.53"/>
                  
            <g class="bond" id="mol1bnd7">
                        
                <line x1="81.13" x2="81.12" y1="46.78" y2="31.53"/>
                        
                <line x1="78.69" x2="78.68" y1="45.37" y2="32.94"/>
                      
            </g>
                  
            <line class="bond" id="mol1bnd8" x1="67.93" x2="81.13" y1="54.4" y2="46.78"/>
                  
            <line class="bond" id="mol1bnd9" x1="81.13" x2="94.32" y1="46.78" y2="54.4"/>
                  
            <line class="bond" id="mol1bnd10" x1="94.32" x2="107.52" y1="54.4" y2="46.77"/>
                  
            <line class="bond" id="mol1bnd11" x1="107.52" x2="117.57" y1="46.77" y2="52.57"/>
                  
            <line class="bond" id="mol1bnd12" x1="67.92" x2="67.92" y1="23.9" y2="12.58"/>
                  
            <line class="bond" id="mol1bnd13" x1="64.64" x2="54.72" y1="6.76" y2="1.04"/>
                  
            <line class="bond" id="mol1bnd14" x1="54.72" x2="44.28" y1="31.52" y2="25.49"/>
                  
            <line class="bond" id="mol1bnd15" x1="38.78" x2="28.32" y1="25.49" y2="31.52"/>
                  
            <line class="bond" id="mol1bnd16" x1="28.32" x2="15.12" y1="31.52" y2="23.91"/>
                  
            <line class="bond" id="mol1bnd17" x1="15.12" x2="4.44" y1="23.91" y2="30.08"/>
                  
            <path class="atom" d="M70.18 69.63q.0 .76 -.26 1.33q-.26 .57 -.76 .88q-.5 .32 -1.24 .32q-.76 .0 -1.26 -.32q-.51 -.32 -.76 -.89q-.24 -.57 -.24 -1.33q.0 -.75 .24 -1.31q.25 -.57 .76 -.88q.51 -.32 1.27 -.32q.73 .0 1.23 .32q.5 .31 .76 .88q.26 .57 .26 1.33zM66.32 69.63q.0 .92 .39 1.46q.39 .53 1.22 .53q.84 .0 1.22 -.53q.39 -.54 .39 -1.46q.0 -.93 -.39 -1.45q-.38 -.52 -1.21 -.52q-.83 .0 -1.23 .52q-.39 .52 -.39 1.45z" fill="#FF0D0D" id="mol1atm2" stroke="none"/>
                  
            <g class="atom" id="mol1atm11">
                        
                <path d="M122.66 56.84h-.72l-2.62 -4.07h-.03q.01 .24 .03 .6q.02 .36 .02 .73v2.74h-.57v-4.9h.71l2.61 4.05h.03q-.01 -.11 -.02 -.33q-.01 -.22 -.02 -.48q-.01 -.26 -.01 -.48v-2.77h.58v4.9z" stroke="none"/>
                        
                <path d="M126.97 56.84h-.62v-2.29h-2.51v2.29h-.61v-4.9h.61v2.07h2.51v-2.07h.62v4.9z" stroke="none"/>
                        
                <path d="M129.47 58.33h-1.94v-.3l.77 -.78q.22 -.22 .37 -.39q.15 -.18 .23 -.34q.08 -.17 .08 -.36q.0 -.24 -.15 -.37q-.14 -.13 -.37 -.13q-.21 .0 -.38 .08q-.16 .08 -.33 .21l-.19 -.24q.17 -.15 .39 -.25q.23 -.1 .51 -.1q.41 .0 .65 .21q.24 .21 .24 .58q.0 .23 -.1 .43q-.09 .2 -.26 .4q-.17 .2 -.39 .42l-.61 .6v.02h1.49v.33z" stroke="none"/>
                      
            </g>
                  
            <path class="atom" d="M70.18 8.66q.0 .76 -.26 1.33q-.26 .57 -.76 .88q-.5 .32 -1.24 .32q-.76 .0 -1.26 -.32q-.51 -.32 -.76 -.89q-.24 -.57 -.24 -1.33q.0 -.75 .24 -1.31q.25 -.57 .76 -.88q.51 -.32 1.27 -.32q.73 .0 1.23 .32q.5 .31 .76 .88q.26 .57 .26 1.33zM66.32 8.66q.0 .92 .39 1.46q.39 .53 1.22 .53q.84 .0 1.22 -.53q.39 -.54 .39 -1.46q.0 -.93 -.39 -1.45q-.38 -.52 -1.21 -.52q-.83 .0 -1.23 .52q-.39 .52 -.39 1.45z" fill="#FF0D0D" id="mol1atm12" stroke="none"/>
                  
            <path class="atom" d="M43.06 25.04q.0 .65 -.48 1.02q-.47 .36 -1.27 .36q-.42 .0 -.77 -.07q-.35 -.06 -.58 -.17v-.59q.24 .11 .61 .2q.37 .09 .76 .09q.55 .0 .83 -.21q.28 -.21 .28 -.58q.0 -.24 -.11 -.4q-.1 -.17 -.35 -.31q-.25 -.14 -.7 -.3q-.63 -.23 -.95 -.55q-.32 -.33 -.32 -.9q.0 -.39 .2 -.67q.2 -.28 .55 -.43q.36 -.15 .82 -.15q.4 .0 .74 .08q.34 .07 .61 .2l-.2 .53q-.25 -.11 -.55 -.18q-.3 -.08 -.63 -.08q-.46 .0 -.69 .2q-.23 .2 -.23 .52q.0 .24 .1 .41q.11 .17 .34 .3q.23 .13 .63 .28q.43 .15 .73 .34q.3 .18 .45 .43q.15 .25 .15 .64z" fill="#C6C62C" id="mol1atm14" stroke="none"/>
                  
            <path class="atom" d="M1.17 33.98h-.61v-4.9h2.73v.54h-2.12v1.74h1.99v.54h-1.99v2.08z" fill="#90E050" id="mol1atm17" stroke="none"/>
                
            <line class="hi" id="mol1bnd1" stroke="#FF0D0D" x1="71.2" x2="76.16" y1="71.53" y2="74.39500000000001"/>
            <line class="hi" id="mol1bnd2" stroke="#FF0D0D" x1="67.93" x2="67.93" y1="65.72" y2="60.06"/>
            <line class="hi" id="mol1bnd11" stroke="#3050F8" x1="117.57" x2="112.54499999999999" y1="52.57" y2="49.67"/>
            <line class="hi" id="mol1bnd12" stroke="#FF0D0D" x1="67.92" x2="67.92" y1="12.58" y2="18.24"/>
            <line class="hi" id="mol1bnd13" stroke="#FF0D0D" x1="64.64" x2="59.68" y1="6.76" y2="3.9"/>
            <line class="hi" id="mol1bnd14" stroke="#C6C62C" x1="44.28" x2="49.5" y1="25.49" y2="28.505"/>
            <line class="hi" id="mol1bnd15" stroke="#C6C62C" x1="38.78" x2="33.55" y1="25.49" y2="28.505"/>
            <line class="hi" id="mol1bnd17" stroke="#90E050" x1="4.4399999999999995" x2="9.78" y1="30.08" y2="26.994999999999997"/>
        </g>
          
    </g>
    
</svg>
