<svg xmlns="http://www.w3.org/2000/svg" xmlns:xlink="http://www.w3.org/1999/xlink" height="73.83mm" version="1.2" viewBox="0 0 82.62 73.83" width="82.62mm">
      
    <desc>Generated by the Chemistry Development Kit (http://github.com/cdk)</desc>
      
    <g fill="#FF0D0D" stroke="#000000" stroke-linecap="round" stroke-linejoin="round" stroke-width=".7">
            
        <rect fill="#FFFFFF" height="74.0" stroke="none" width="83.0" x=".0" y=".0"/>
            
        <g class="mol" id="mol1">
                  
            <line class="bond" id="mol1bnd1" x1="6.27" x2="1.05" y1="70.13" y2="55.8"/>
                  
            <line class="bond" id="mol1bnd2" x1="1.05" x2="10.85" y1="55.8" y2="44.11"/>
                  
            <line class="bond" id="mol1bnd3" x1="10.85" x2="25.86" y1="44.11" y2="46.76"/>
                  
            <line class="bond" id="mol1bnd4" x1="25.86" x2="31.07" y1="46.76" y2="61.09"/>
                  
            <line class="bond" id="mol1bnd5" x1="31.07" x2="21.27" y1="61.09" y2="72.77"/>
                  
            <line class="bond" id="mol1bnd6" x1="6.27" x2="21.27" y1="70.13" y2="72.77"/>
                  
            <line class="bond" id="mol1bnd7" x1="25.86" x2="40.87" y1="46.76" y2="44.11"/>
                  
            <g class="bond" id="mol1bnd8">
                        
                <line x1="40.87" x2="50.66" y1="44.11" y2="55.79"/>
                        
                <line x1="43.64" x2="51.63" y1="43.62" y2="53.14"/>
                      
            </g>
                  
            <line class="bond" id="mol1bnd9" x1="50.66" x2="65.68" y1="55.79" y2="53.13"/>
                  
            <g class="bond" id="mol1bnd10">
                        
                <line x1="65.68" x2="70.82" y1="53.13" y2="38.87"/>
                        
                <line x1="63.86" x2="68.05" y1="50.98" y2="39.36"/>
                      
            </g>
                  
            <line class="bond" id="mol1bnd11" x1="70.82" x2="61.02" y1="38.87" y2="27.2"/>
                  
            <g class="bond" id="mol1bnd12">
                        
                <line x1="61.02" x2="46.09" y1="27.2" y2="29.79"/>
                        
                <line x1="60.06" x2="47.89" y1="29.84" y2="31.95"/>
                      
            </g>
                  
            <line class="bond" id="mol1bnd13" x1="40.87" x2="46.09" y1="44.11" y2="29.79"/>
                  
            <line class="bond" id="mol1bnd14" x1="65.68" x2="72.94" y1="53.13" y2="61.76"/>
                  
            <line class="bond" id="mol1bnd15" x1="25.86" x2="25.86" y1="46.76" y2="35.37"/>
                  
            <line class="bond" id="mol1bnd16" x1="22.7" x2="12.65" y1="29.7" y2="23.9"/>
                  
            <line class="bond" id="mol1bnd17" x1="12.65" x2="12.65" y1="23.9" y2="8.66"/>
                  
            <line class="bond" id="mol1bnd18" x1="12.65" x2="25.86" y1="8.66" y2="1.04"/>
                  
            <line class="bond" id="mol1bnd19" x1="25.86" x2="39.07" y1="1.04" y2="8.66"/>
                  
            <line class="bond" id="mol1bnd20" x1="39.07" x2="39.07" y1="8.66" y2="23.9"/>
                  
            <line class="bond" id="mol1bnd21" x1="29.01" x2="39.07" y1="29.7" y2="23.9"/>
                  
            <g class="atom" id="mol1atm13">
                        
                <path d="M77.76 64.79q.0 .76 -.26 1.33q-.26 .57 -.76 .88q-.5 .32 -1.24 .32q-.76 .0 -1.26 -.32q-.51 -.32 -.76 -.89q-.24 -.57 -.24 -1.33q.0 -.75 .24 -1.31q.25 -.57 .76 -.88q.51 -.32 1.27 -.32q.73 .0 1.23 .32q.5 .31 .76 .88q.26 .57 .26 1.33zM73.89 64.79q.0 .92 .39 1.46q.39 .53 1.22 .53q.84 .0 1.22 -.53q.39 -.54 .39 -1.46q.0 -.93 -.39 -1.45q-.38 -.52 -1.21 -.52q-.83 .0 -1.23 .52q-.39 .52 -.39 1.45z" stroke="none"/>
                        
                <path d="M82.06 67.24h-.62v-2.29h-2.51v2.29h-.61v-4.9h.61v2.07h2.51v-2.07h.62v4.9z" stroke="none"/>
                      
            </g>
                  
            <path class="atom" d="M27.8 33.97h-.72l-2.62 -4.07h-.03q.01 .24 .03 .6q.02 .36 .02 .73v2.74h-.57v-4.9h.71l2.61 4.05h.03q-.01 -.11 -.02 -.33q-.01 -.22 -.02 -.48q-.01 -.26 -.01 -.48v-2.77h.58v4.9z" fill="#3050F8" id="mol1atm14" stroke="none"/>
                
            <line class="hi" id="mol1bnd14" stroke="#FF0D0D" x1="72.94" x2="69.31" y1="61.76" y2="57.445"/>
            <line class="hi" id="mol1bnd15" stroke="#3050F8" x1="25.86" x2="25.86" y1="35.37" y2="41.065"/>
            <line class="hi" id="mol1bnd16" stroke="#3050F8" x1="22.7" x2="17.675" y1="29.7" y2="26.799999999999997"/>
            <line class="hi" id="mol1bnd21" stroke="#3050F8" x1="29.01" x2="34.04" y1="29.7" y2="26.799999999999997"/>
        </g>
          
    </g>
    
</svg>
