<svg xmlns="http://www.w3.org/2000/svg" xmlns:xlink="http://www.w3.org/1999/xlink" height="56.2mm" version="1.2" viewBox="0 0 84.22 56.2" width="84.22mm">
      
    <desc>Generated by the Chemistry Development Kit (http://github.com/cdk)</desc>
      
    <g fill="#FF0D0D" stroke="#000000" stroke-linecap="round" stroke-linejoin="round" stroke-width=".7">
            
        <rect fill="#FFFFFF" height="57.0" stroke="none" width="85.0" x=".0" y=".0"/>
            
        <g class="mol" id="mol1">
                  
            <line class="bond" id="mol1bnd1" x1="31.34" x2="36.55" y1="1.01" y2="15.33"/>
                  
            <line class="bond" id="mol1bnd2" x1="36.55" x2="48.23" y1="15.33" y2="17.39"/>
                  
            <line class="bond" id="mol1bnd3" x1="52.92" x2="56.76" y1="21.75" y2="32.3"/>
                  
            <line class="bond" id="mol1bnd4" x1="56.76" x2="69.97" y1="32.3" y2="24.68"/>
                  
            <line class="bond" id="mol1bnd5" x1="69.97" x2="83.18" y1="24.68" y2="32.3"/>
                  
            <line class="bond" id="mol1bnd6" x1="83.18" x2="83.18" y1="32.3" y2="47.54"/>
                  
            <line class="bond" id="mol1bnd7" x1="83.18" x2="69.97" y1="47.54" y2="55.16"/>
                  
            <line class="bond" id="mol1bnd8" x1="69.97" x2="56.76" y1="55.16" y2="47.54"/>
                  
            <line class="bond" id="mol1bnd9" x1="56.76" x2="56.76" y1="32.3" y2="47.54"/>
                  
            <line class="bond" id="mol1bnd10" x1="56.76" x2="41.75" y1="32.3" y2="34.95"/>
                  
            <g class="bond" id="mol1bnd11">
                        
                <line x1="41.75" x2="31.96" y1="34.95" y2="23.27"/>
                        
                <line x1="38.98" x2="30.99" y1="35.44" y2="25.92"/>
                      
            </g>
                  
            <line class="bond" id="mol1bnd12" x1="31.96" x2="16.94" y1="23.27" y2="25.93"/>
                  
            <g class="bond" id="mol1bnd13">
                        
                <line x1="16.94" x2="11.8" y1="25.93" y2="40.19"/>
                        
                <line x1="18.76" x2="14.57" y1="28.08" y2="39.7"/>
                      
            </g>
                  
            <line class="bond" id="mol1bnd14" x1="11.8" x2="21.6" y1="40.19" y2="51.86"/>
                  
            <g class="bond" id="mol1bnd15">
                        
                <line x1="21.6" x2="36.54" y1="51.86" y2="49.27"/>
                        
                <line x1="22.56" x2="34.73" y1="49.22" y2="47.11"/>
                      
            </g>
                  
            <line class="bond" id="mol1bnd16" x1="41.75" x2="36.54" y1="34.95" y2="49.27"/>
                  
            <line class="bond" id="mol1bnd17" x1="16.94" x2="9.67" y1="25.93" y2="17.29"/>
                  
            <g class="atom" id="mol1atm3">
                        
                <path d="M53.49 20.43h-.72l-2.62 -4.07h-.03q.01 .24 .03 .6q.02 .36 .02 .73v2.74h-.57v-4.9h.71l2.61 4.05h.03q-.01 -.11 -.02 -.33q-.01 -.22 -.02 -.48q-.01 -.26 -.01 -.48v-2.77h.58v4.9z" fill="#3050F8" stroke="none"/>
                        
                <path d="M57.8 20.43h-.62v-2.29h-2.51v2.29h-.61v-4.9h.61v2.07h2.51v-2.07h.62v4.9z" fill="#3050F8" stroke="none"/>
                      
            </g>
                  
            <g class="atom" id="mol1atm16">
                        
                <path d="M9.38 14.27q.0 .76 -.26 1.33q-.26 .57 -.76 .88q-.5 .32 -1.24 .32q-.76 .0 -1.26 -.32q-.51 -.32 -.76 -.89q-.24 -.57 -.24 -1.33q.0 -.75 .24 -1.31q.25 -.57 .76 -.88q.51 -.32 1.27 -.32q.73 .0 1.23 .32q.5 .31 .76 .88q.26 .57 .26 1.33zM5.52 14.27q.0 .92 .39 1.46q.39 .53 1.22 .53q.84 .0 1.22 -.53q.39 -.54 .39 -1.46q.0 -.93 -.39 -1.45q-.38 -.52 -1.21 -.52q-.83 .0 -1.23 .52q-.39 .52 -.39 1.45z" stroke="none"/>
                        
                <path d="M4.3 16.72h-.62v-2.29h-2.51v2.29h-.61v-4.9h.61v2.07h2.51v-2.07h.62v4.9z" stroke="none"/>
                      
            </g>
                
            <line class="hi" id="mol1bnd2" stroke="#3050F8" x1="48.23" x2="42.39" y1="17.39" y2="16.36"/>
            <line class="hi" id="mol1bnd3" stroke="#3050F8" x1="52.92" x2="54.84" y1="21.75" y2="27.025"/>
            <line class="hi" id="mol1bnd3" stroke="#3050F8" x1="53.06663202380678" x2="54.84" y1="22.152856211239992" y2="27.025"/>
            <line class="hi" id="mol1bnd17" stroke="#FF0D0D" x1="9.67" x2="13.305" y1="17.29" y2="21.61"/>
            <line class="hi" id="mol1bnd17" stroke="#FF0D0D" x1="9.67" x2="13.305" y1="17.29" y2="21.61"/>
        </g>
          
    </g>
    
</svg>
