<svg xmlns="http://www.w3.org/2000/svg" xmlns:xlink="http://www.w3.org/1999/xlink" height="49.74mm" version="1.2" viewBox="0 0 107.68 49.74" width="107.68mm">
      
    <desc>Generated by the Chemistry Development Kit (http://github.com/cdk)</desc>
      
    <g fill="#3050F8" stroke="#000000" stroke-linecap="round" stroke-linejoin="round" stroke-width=".7">
            
        <rect fill="#FFFFFF" height="50.0" stroke="none" width="108.0" x=".0" y=".0"/>
            
        <g class="mol" id="mol1">
                  
            <line class="bond" id="mol1bnd1" x1="1.04" x2="14.25" y1="18.41" y2="26.01"/>
                  
            <line class="bond" id="mol1bnd2" x1="14.25" x2="24.28" y1="26.01" y2="20.19"/>
                  
            <line class="bond" id="mol1bnd3" x1="30.59" x2="40.65" y1="20.18" y2="25.96"/>
                  
            <line class="bond" id="mol1bnd4" x1="40.65" x2="40.67" y1="25.96" y2="41.2"/>
                  
            <line class="bond" id="mol1bnd5" x1="40.65" x2="53.83" y1="25.96" y2="18.32"/>
                  
            <g class="bond" id="mol1bnd6">
                        
                <line x1="52.61" x2="52.59" y1="19.03" y2="7.0"/>
                        
                <line x1="55.05" x2="55.03" y1="19.02" y2="7.0"/>
                      
                <line class="hi" stroke="#FF0D0D" x1="52.59" x2="52.6" y1="7.0" y2="13.015"/>
                <line class="hi" stroke="#FF0D0D" x1="55.03" x2="55.04" y1="7.0" y2="13.01"/>
            </g>
                  
            <line class="bond" id="mol1bnd7" x1="53.83" x2="67.04" y1="18.32" y2="25.92"/>
                  
            <g class="bond" id="mol1bnd8">
                        
                <line x1="67.04" x2="67.09" y1="25.92" y2="41.08"/>
                        
                <line x1="69.48" x2="69.52" y1="27.32" y2="39.67"/>
                      
            </g>
                  
            <line class="bond" id="mol1bnd9" x1="67.09" x2="80.29" y1="41.08" y2="48.7"/>
                  
            <g class="bond" id="mol1bnd10">
                        
                <line x1="80.29" x2="93.44" y1="48.7" y2="41.16"/>
                        
                <line x1="80.29" x2="91.0" y1="45.89" y2="39.75"/>
                      
            </g>
                  
            <line class="bond" id="mol1bnd11" x1="93.44" x2="93.44" y1="41.16" y2="25.91"/>
                  
            <g class="bond" id="mol1bnd12">
                        
                <line x1="93.44" x2="80.24" y1="25.91" y2="18.29"/>
                        
                <line x1="91.0" x2="80.25" y1="27.32" y2="21.11"/>
                      
            </g>
                  
            <line class="bond" id="mol1bnd13" x1="67.04" x2="80.24" y1="25.92" y2="18.29"/>
                  
            <line class="bond" id="mol1bnd14" x1="93.44" x2="106.64" y1="25.91" y2="18.29"/>
                  
            <g class="atom" id="mol1atm3">
                        
                <path d="M29.38 20.82h-.72l-2.62 -4.07h-.03q.01 .24 .03 .6q.02 .36 .02 .73v2.74h-.57v-4.9h.71l2.61 4.05h.03q-.01 -.11 -.02 -.33q-.01 -.22 -.02 -.48q-.01 -.26 -.01 -.48v-2.77h.58v4.9z" stroke="none"/>
                        
                <path d="M29.24 15.35h-.62v-2.29h-2.51v2.29h-.61v-4.9h.61v2.07h2.51v-2.07h.62v4.9z" stroke="none"/>
                      
            </g>
                  
            <path class="atom" d="M56.06 3.08q.0 .76 -.26 1.33q-.26 .57 -.76 .88q-.5 .32 -1.24 .32q-.76 .0 -1.26 -.32q-.51 -.32 -.76 -.89q-.24 -.57 -.24 -1.33q.0 -.75 .24 -1.31q.25 -.57 .76 -.88q.51 -.32 1.27 -.32q.73 .0 1.23 .32q.5 .31 .76 .88q.26 .57 .26 1.33zM52.2 3.08q.0 .92 .39 1.46q.39 .53 1.22 .53q.84 .0 1.22 -.53q.39 -.54 .39 -1.46q.0 -.93 -.39 -1.45q-.38 -.52 -1.21 -.52q-.83 .0 -1.23 .52q-.39 .52 -.39 1.45z" fill="#FF0D0D" id="mol1atm7" stroke="none"/>
                
            <line class="hi" id="mol1bnd2" stroke="#3050F8" x1="24.28" x2="19.265" y1="20.19" y2="23.1"/>
            <line class="hi" id="mol1bnd2" stroke="#3050F8" x1="24.28" x2="19.265" y1="20.19" y2="23.1"/>
            <line class="hi" id="mol1bnd3" stroke="#3050F8" x1="30.59" x2="35.62" y1="20.18" y2="23.07"/>
            <line class="hi" id="mol1bnd3" stroke="#3050F8" x1="30.59" x2="35.62" y1="20.18" y2="23.07"/>
        </g>
          
    </g>
    
</svg>
