<svg xmlns="http://www.w3.org/2000/svg" xmlns:xlink="http://www.w3.org/1999/xlink" height="75.89mm" version="1.2" viewBox="0 0 91.47 75.89" width="91.47mm">
      
    <desc>Generated by the Chemistry Development Kit (http://github.com/cdk)</desc>
      
    <g fill="#FF0D0D" stroke="#000000" stroke-linecap="round" stroke-linejoin="round" stroke-width=".7">
            
        <rect fill="#FFFFFF" height="76.0" stroke="none" width="92.0" x=".0" y=".0"/>
            
        <g class="mol" id="mol1">
                  
            <line class="bond" id="mol1bnd1" x1=".97" x2="12.33" y1="11.72" y2="9.69"/>
                  
            <line class="bond" id="mol1bnd2" x1="18.52" x2="25.79" y1="12.07" y2="20.7"/>
                  
            <g class="bond" id="mol1bnd3">
                        
                <line x1="25.79" x2="20.65" y1="20.7" y2="34.96"/>
                        
                <line x1="27.6" x2="23.42" y1="22.85" y2="34.47"/>
                      
            </g>
                  
            <line class="bond" id="mol1bnd4" x1="20.65" x2="30.45" y1="34.96" y2="46.64"/>
                  
            <g class="bond" id="mol1bnd5">
                        
                <line x1="30.45" x2="45.38" y1="46.64" y2="44.04"/>
                        
                <line x1="31.41" x2="43.58" y1="43.99" y2="41.88"/>
                      
            </g>
                  
            <line class="bond" id="mol1bnd6" x1="45.38" x2="50.6" y1="44.04" y2="29.72"/>
                  
            <g class="bond" id="mol1bnd7">
                        
                <line x1="50.6" x2="40.8" y1="29.72" y2="18.04"/>
                        
                <line x1="47.83" x2="39.84" y1="30.21" y2="20.69"/>
                      
            </g>
                  
            <line class="bond" id="mol1bnd8" x1="25.79" x2="40.8" y1="20.7" y2="18.04"/>
                  
            <line class="bond" id="mol1bnd9" x1="50.6" x2="65.61" y1="29.72" y2="27.07"/>
                  
            <line class="bond" id="mol1bnd10" x1="65.61" x2="60.4" y1="27.07" y2="12.74"/>
                  
            <line class="bond" id="mol1bnd11" x1="60.4" x2="70.19" y1="12.74" y2="1.05"/>
                  
            <line class="bond" id="mol1bnd12" x1="70.19" x2="85.2" y1="1.05" y2="3.7"/>
                  
            <line class="bond" id="mol1bnd13" x1="85.2" x2="90.41" y1="3.7" y2="18.02"/>
                  
            <line class="bond" id="mol1bnd14" x1="90.41" x2="80.62" y1="18.02" y2="29.71"/>
                  
            <line class="bond" id="mol1bnd15" x1="65.61" x2="80.62" y1="27.07" y2="29.71"/>
                  
            <line class="bond" id="mol1bnd16" x1="65.61" x2="65.61" y1="27.07" y2="38.46"/>
                  
            <line class="bond" id="mol1bnd17" x1="68.77" x2="78.81" y1="44.13" y2="49.93"/>
                  
            <line class="bond" id="mol1bnd18" x1="78.81" x2="78.81" y1="49.93" y2="65.18"/>
                  
            <line class="bond" id="mol1bnd19" x1="78.81" x2="68.88" y1="65.18" y2="70.91"/>
                  
            <line class="bond" id="mol1bnd20" x1="62.32" x2="52.4" y1="70.91" y2="65.19"/>
                  
            <line class="bond" id="mol1bnd21" x1="52.4" x2="52.41" y1="65.19" y2="49.94"/>
                  
            <line class="bond" id="mol1bnd22" x1="62.46" x2="52.41" y1="44.13" y2="49.94"/>
                  
            <path class="atom" d="M18.23 9.04q.0 .76 -.26 1.33q-.26 .57 -.76 .88q-.5 .32 -1.24 .32q-.76 .0 -1.26 -.32q-.51 -.32 -.76 -.89q-.24 -.57 -.24 -1.33q.0 -.75 .24 -1.31q.25 -.57 .76 -.88q.51 -.32 1.27 -.32q.73 .0 1.23 .32q.5 .31 .76 .88q.26 .57 .26 1.33zM14.37 9.04q.0 .92 .39 1.46q.39 .53 1.22 .53q.84 .0 1.22 -.53q.39 -.54 .39 -1.46q.0 -.93 -.39 -1.45q-.38 -.52 -1.21 -.52q-.83 .0 -1.23 .52q-.39 .52 -.39 1.45z" id="mol1atm2" stroke="none"/>
                  
            <path class="atom" d="M67.55 44.76h-.72l-2.62 -4.07h-.03q.01 .24 .03 .6q.02 .36 .02 .73v2.74h-.57v-4.9h.71l2.61 4.05h.03q-.01 -.11 -.02 -.33q-.01 -.22 -.02 -.48q-.01 -.26 -.01 -.48v-2.77h.58v4.9z" fill="#3050F8" id="mol1atm15" stroke="none"/>
                  
            <path class="atom" d="M67.86 72.8q.0 .76 -.26 1.33q-.26 .57 -.76 .88q-.5 .32 -1.24 .32q-.76 .0 -1.26 -.32q-.51 -.32 -.76 -.89q-.24 -.57 -.24 -1.33q.0 -.75 .24 -1.31q.25 -.57 .76 -.88q.51 -.32 1.27 -.32q.73 .0 1.23 .32q.5 .31 .76 .88q.26 .57 .26 1.33zM64.0 72.8q.0 .92 .39 1.46q.39 .53 1.22 .53q.84 .0 1.22 -.53q.39 -.54 .39 -1.46q.0 -.93 -.39 -1.45q-.38 -.52 -1.21 -.52q-.83 .0 -1.23 .52q-.39 .52 -.39 1.45z" id="mol1atm18" stroke="none"/>
                
            <line class="hi" id="mol1bnd1" stroke="#FF0D0D" x1="12.33" x2="6.65" y1="9.69" y2="10.705"/>
            <line class="hi" id="mol1bnd2" stroke="#FF0D0D" x1="18.52" x2="22.155" y1="12.07" y2="16.384999999999998"/>
            <line class="hi" id="mol1bnd16" stroke="#3050F8" x1="65.61" x2="65.61" y1="38.46" y2="32.765"/>
            <line class="hi" id="mol1bnd17" stroke="#3050F8" x1="68.77" x2="73.78999999999999" y1="44.13" y2="47.03"/>
            <line class="hi" id="mol1bnd19" stroke="#FF0D0D" x1="68.88" x2="73.845" y1="70.91" y2="68.045"/>
            <line class="hi" id="mol1bnd20" stroke="#FF0D0D" x1="62.32" x2="57.36" y1="70.91" y2="68.05"/>
            <line class="hi" id="mol1bnd22" stroke="#3050F8" x1="62.46" x2="57.435" y1="44.13" y2="47.035"/>
        </g>
          
    </g>
    
</svg>
