<svg xmlns="http://www.w3.org/2000/svg" xmlns:xlink="http://www.w3.org/1999/xlink" height="95.83mm" version="1.2" viewBox="0 0 81.29 95.83" width="81.29mm">
      
    <desc>Generated by the Chemistry Development Kit (http://github.com/cdk)</desc>
      
    <g fill="#000000" stroke="#000000" stroke-linecap="round" stroke-linejoin="round" stroke-width=".7">
            
        <rect fill="#FFFFFF" height="96.0" stroke="none" width="82.0" x=".0" y=".0"/>
            
        <g class="mol" id="mol1">
                  
            <line class="bond" id="mol1bnd1" x1="80.25" x2="70.32" y1="71.92" y2="66.19"/>
                  
            <line class="bond" id="mol1bnd2" x1="63.77" x2="53.85" y1="66.2" y2="71.92"/>
                  
            <g class="bond" id="mol1bnd3">
                        
                <line x1="53.85" x2="53.85" y1="71.92" y2="83.24"/>
                        
                <line x1="56.29" x2="56.29" y1="73.33" y2="83.24"/>
                      
                <line class="hi" stroke="#FF0D0D" x1="53.85" x2="53.85" y1="83.24" y2="77.58"/>
                <line class="hi" stroke="#FF0D0D" x1="56.29" x2="56.29" y1="83.24" y2="78.285"/>
            </g>
                  
            <path class="bond" d="M40.83 64.0l-.35 .61l13.37 9.91v-2.6l2.25 -1.3z" id="mol1bnd4" stroke="none"/>
                  
            <line class="bond" id="mol1bnd5" x1="40.65" x2="27.45" y1="64.31" y2="71.93"/>
                  
            <line class="bond" id="mol1bnd6" x1="27.45" x2="27.45" y1="71.93" y2="87.17"/>
                  
            <line class="bond" id="mol1bnd7" x1="27.45" x2="14.25" y1="87.17" y2="94.79"/>
                  
            <line class="bond" id="mol1bnd8" x1="14.25" x2="1.04" y1="94.79" y2="87.17"/>
                  
            <line class="bond" id="mol1bnd9" x1="1.04" x2="1.04" y1="87.17" y2="71.93"/>
                  
            <line class="bond" id="mol1bnd10" x1="1.04" x2="11.09" y1="71.93" y2="66.13"/>
                  
            <path class="bond" d="M27.28 72.23l.35 -.61l-9.39 -6.95l-.84 1.46l-.84 1.46z" id="mol1bnd11" stroke="none"/>
                  
            <line class="bond" id="mol1bnd12" x1="40.65" x2="40.65" y1="64.31" y2="49.07"/>
                  
            <g class="bond" id="mol1bnd13">
                        
                <line x1="27.44" x2="40.65" y1="41.44" y2="49.07"/>
                        
                <line x1="29.88" x2="40.65" y1="40.03" y2="46.25"/>
                      
            </g>
                  
            <line class="bond" id="mol1bnd14" x1="27.44" x2="27.43" y1="41.44" y2="26.19"/>
                  
            <g class="bond" id="mol1bnd15">
                        
                <line x1="40.63" x2="27.43" y1="18.57" y2="26.19"/>
                        
                <line x1="40.63" x2="29.87" y1="21.38" y2="27.6"/>
                      
            </g>
                  
            <line class="bond" id="mol1bnd16" x1="40.63" x2="53.83" y1="18.57" y2="26.19"/>
                  
            <g class="bond" id="mol1bnd17">
                        
                <line x1="53.84" x2="53.83" y1="41.44" y2="26.19"/>
                        
                <line x1="51.41" x2="51.4" y1="40.03" y2="27.6"/>
                      
            </g>
                  
            <line class="bond" id="mol1bnd18" x1="40.65" x2="53.84" y1="49.07" y2="41.44"/>
                  
            <line class="bond" id="mol1bnd19" x1="40.63" x2="40.63" y1="18.57" y2="7.25"/>
                  
            <line class="bond" id="mol1bnd20" x1="27.43" x2="15.75" y1="26.19" y2="19.45"/>
                  
            <path class="atom" d="M69.31 64.3q.0 .76 -.26 1.33q-.26 .57 -.76 .88q-.5 .32 -1.24 .32q-.76 .0 -1.26 -.32q-.51 -.32 -.76 -.89q-.24 -.57 -.24 -1.33q.0 -.75 .24 -1.31q.25 -.57 .76 -.88q.51 -.32 1.27 -.32q.73 .0 1.23 .32q.5 .31 .76 .88q.26 .57 .26 1.33zM65.44 64.3q.0 .92 .39 1.46q.39 .53 1.22 .53q.84 .0 1.22 -.53q.39 -.54 .39 -1.46q.0 -.93 -.39 -1.45q-.38 -.52 -1.21 -.52q-.83 .0 -1.23 .52q-.39 .52 -.39 1.45z" fill="#FF0D0D" id="mol1atm2" stroke="none"/>
                  
            <path class="atom" d="M57.33 87.16q.0 .76 -.26 1.33q-.26 .57 -.76 .88q-.5 .32 -1.24 .32q-.76 .0 -1.26 -.32q-.51 -.32 -.76 -.89q-.24 -.57 -.24 -1.33q.0 -.75 .24 -1.31q.25 -.57 .76 -.88q.51 -.32 1.27 -.32q.73 .0 1.23 .32q.5 .31 .76 .88q.26 .57 .26 1.33zM53.47 87.16q.0 .92 .39 1.46q.39 .53 1.22 .53q.84 .0 1.22 -.53q.39 -.54 .39 -1.46q.0 -.93 -.39 -1.45q-.38 -.52 -1.21 -.52q-.83 .0 -1.23 .52q-.39 .52 -.39 1.45z" fill="#FF0D0D" id="mol1atm4" stroke="none"/>
                  
            <g class="atom" id="mol1atm11">
                        
                <path d="M16.19 66.76h-.72l-2.62 -4.07h-.03q.01 .24 .03 .6q.02 .36 .02 .73v2.74h-.57v-4.9h.71l2.61 4.05h.03q-.01 -.11 -.02 -.33q-.01 -.22 -.02 -.48q-.01 -.26 -.01 -.48v-2.77h.58v4.9z" fill="#3050F8" stroke="none"/>
                        
                <path d="M16.05 61.3h-.62v-2.29h-2.51v2.29h-.61v-4.9h.61v2.07h2.51v-2.07h.62v4.9z" fill="#3050F8" stroke="none"/>
                      
            </g>
                  
            <path class="atom" d="M41.12 1.35q-.79 .0 -1.24 .53q-.45 .52 -.45 1.45q.0 .91 .42 1.45q.42 .53 1.27 .53q.32 .0 .61 -.05q.29 -.06 .57 -.14v.54q-.27 .1 -.57 .15q-.29 .05 -.7 .05q-.74 .0 -1.25 -.31q-.5 -.31 -.75 -.88q-.25 -.57 -.25 -1.34q.0 -.74 .27 -1.31q.27 -.57 .8 -.88q.53 -.32 1.28 -.32q.78 .0 1.35 .29l-.24 .52q-.23 -.1 -.51 -.18q-.27 -.08 -.61 -.08zM43.88 5.77h-.6v-5.21h.6v5.21z" fill="#1FF01F" id="mol1atm18" stroke="none"/>
                  
            <path class="atom" d="M11.78 16.76q-.79 .0 -1.24 .53q-.45 .52 -.45 1.45q.0 .91 .42 1.45q.42 .53 1.27 .53q.32 .0 .61 -.05q.29 -.06 .57 -.14v.54q-.27 .1 -.57 .15q-.29 .05 -.7 .05q-.74 .0 -1.25 -.31q-.5 -.31 -.75 -.88q-.25 -.57 -.25 -1.34q.0 -.74 .27 -1.31q.27 -.57 .8 -.88q.53 -.32 1.28 -.32q.78 .0 1.35 .29l-.24 .52q-.23 -.1 -.51 -.18q-.27 -.08 -.61 -.08zM14.53 21.19h-.6v-5.21h.6v5.21z" fill="#1FF01F" id="mol1atm19" stroke="none"/>
                
            <line class="hi" id="mol1bnd1" stroke="#FF0D0D" x1="70.32" x2="75.285" y1="66.19" y2="69.055"/>
            <line class="hi" id="mol1bnd2" stroke="#FF0D0D" x1="63.77" x2="58.81" y1="66.2" y2="69.06"/>
            <line class="hi" id="mol1bnd10" stroke="#3050F8" x1="11.09" x2="6.0649999999999995" y1="66.13" y2="69.03"/>
            <line class="hi" id="mol1bnd10" stroke="#3050F8" x1="11.09" x2="6.0649999999999995" y1="66.13" y2="69.03"/>
            <line class="hi" id="mol1bnd19" stroke="#1FF01F" x1="40.63" x2="40.63" y1="7.25" y2="12.91"/>
            <line class="hi" id="mol1bnd20" stroke="#1FF01F" x1="15.75" x2="21.59" y1="19.45" y2="22.82"/>
        </g>
          
    </g>
    
</svg>
