<svg xmlns="http://www.w3.org/2000/svg" xmlns:xlink="http://www.w3.org/1999/xlink" height="77.69mm" version="1.2" viewBox="0 0 97.07 77.69" width="97.07mm">
      
    <desc>Generated by the Chemistry Development Kit (http://github.com/cdk)</desc>
      
    <g fill="#3050F8" stroke="#000000" stroke-linecap="round" stroke-linejoin="round" stroke-width=".7">
            
        <rect fill="#FFFFFF" height="78.0" stroke="none" width="98.0" x=".0" y=".0"/>
            
        <g class="mol" id="mol1">
                  
            <line class="bond" id="mol1bnd1" x1="16.02" x2="16.02" y1="3.49" y2="18.73"/>
                  
            <g class="bond" id="mol1bnd2">
                        
                <line x1="17.24" x2="6.71" y1="19.43" y2="25.51"/>
                        
                <line x1="16.02" x2="5.49" y1="17.32" y2="23.4"/>
                      
                <line class="hi" stroke="#FF0D0D" x1="6.710000000000001" x2="11.975" y1="25.51" y2="22.47"/>
                <line class="hi" stroke="#FF0D0D" x1="5.49" x2="10.754999999999999" y1="23.4" y2="20.36"/>
            </g>
                  
            <line class="bond" id="mol1bnd3" x1="16.02" x2="25.93" y1="18.73" y2="24.45"/>
                  
            <line class="bond" id="mol1bnd4" x1="29.22" x2="29.22" y1="30.27" y2="41.59"/>
                  
            <g class="bond" id="mol1bnd5">
                        
                <line x1="29.22" x2="16.01" y1="41.59" y2="49.21"/>
                        
                <line x1="29.22" x2="18.45" y1="44.4" y2="50.62"/>
                      
            </g>
                  
            <line class="bond" id="mol1bnd6" x1="16.01" x2="16.01" y1="49.21" y2="64.45"/>
                  
            <g class="bond" id="mol1bnd7">
                        
                <line x1="16.01" x2="29.22" y1="64.45" y2="72.07"/>
                        
                <line x1="18.45" x2="29.22" y1="63.04" y2="69.25"/>
                      
            </g>
                  
            <line class="bond" id="mol1bnd8" x1="29.22" x2="42.42" y1="72.07" y2="64.45"/>
                  
            <g class="bond" id="mol1bnd9">
                        
                <line x1="42.42" x2="42.42" y1="64.45" y2="49.21"/>
                        
                <line x1="39.99" x2="39.99" y1="63.04" y2="50.62"/>
                      
            </g>
                  
            <line class="bond" id="mol1bnd10" x1="29.22" x2="42.42" y1="41.59" y2="49.21"/>
                  
            <line class="bond" id="mol1bnd11" x1="42.42" x2="56.85" y1="49.21" y2="44.53"/>
                  
            <g class="bond" id="mol1bnd12">
                        
                <line x1="65.79" x2="56.85" y1="56.83" y2="44.53"/>
                        
                <line x1="62.78" x2="55.92" y1="56.83" y2="47.4"/>
                      
            </g>
                  
            <line class="bond" id="mol1bnd13" x1="65.79" x2="59.44" y1="56.83" y2="65.64"/>
                  
            <line class="bond" id="mol1bnd14" x1="42.42" x2="53.58" y1="64.45" y2="68.14"/>
                  
            <line class="bond" id="mol1bnd15" x1="56.85" x2="61.56" y1="44.53" y2="30.04"/>
                  
            <line class="bond" id="mol1bnd16" x1="61.56" x2="76.47" y1="30.04" y2="26.88"/>
                  
            <line class="bond" id="mol1bnd17" x1="76.47" x2="79.95" y1="26.88" y2="16.16"/>
                  
            <line class="bond" id="mol1bnd18" x1="84.49" x2="96.09" y1="11.68" y2="9.22"/>
                  
            <line class="bond" id="mol1bnd19" x1="78.31" x2="70.99" y1="9.18" y2="1.05"/>
                  
            <path class="atom" d="M5.08 26.34q.0 .76 -.26 1.33q-.26 .57 -.76 .88q-.5 .32 -1.24 .32q-.76 .0 -1.26 -.32q-.51 -.32 -.76 -.89q-.24 -.57 -.24 -1.33q.0 -.75 .24 -1.31q.25 -.57 .76 -.88q.51 -.32 1.27 -.32q.73 .0 1.23 .32q.5 .31 .76 .88q.26 .57 .26 1.33zM1.21 26.34q.0 .92 .39 1.46q.39 .53 1.22 .53q.84 .0 1.22 -.53q.39 -.54 .39 -1.46q.0 -.93 -.39 -1.45q-.38 -.52 -1.21 -.52q-.83 .0 -1.23 .52q-.39 .52 -.39 1.45z" fill="#FF0D0D" id="mol1atm3" stroke="none"/>
                  
            <path class="atom" d="M31.47 26.34q.0 .76 -.26 1.33q-.26 .57 -.76 .88q-.5 .32 -1.24 .32q-.76 .0 -1.26 -.32q-.51 -.32 -.76 -.89q-.24 -.57 -.24 -1.33q.0 -.75 .24 -1.31q.25 -.57 .76 -.88q.51 -.32 1.27 -.32q.73 .0 1.23 .32q.5 .31 .76 .88q.26 .57 .26 1.33zM27.61 26.34q.0 .92 .39 1.46q.39 .53 1.22 .53q.84 .0 1.22 -.53q.39 -.54 .39 -1.46q.0 -.93 -.39 -1.45q-.38 -.52 -1.21 -.52q-.83 .0 -1.23 .52q-.39 .52 -.39 1.45z" fill="#FF0D0D" id="mol1atm4" stroke="none"/>
                  
            <g class="atom" id="mol1atm13">
                        
                <path d="M58.79 71.67h-.72l-2.62 -4.07h-.03q.01 .24 .03 .6q.02 .36 .02 .73v2.74h-.57v-4.9h.71l2.61 4.05h.03q-.01 -.11 -.02 -.33q-.01 -.22 -.02 -.48q-.01 -.26 -.01 -.48v-2.77h.58v4.9z" stroke="none"/>
                        
                <path d="M58.65 77.13h-.62v-2.29h-2.51v2.29h-.61v-4.9h.61v2.07h2.51v-2.07h.62v4.9z" stroke="none"/>
                      
            </g>
                  
            <path class="atom" d="M83.12 14.83h-.72l-2.62 -4.07h-.03q.01 .24 .03 .6q.02 .36 .02 .73v2.74h-.57v-4.9h.71l2.61 4.05h.03q-.01 -.11 -.02 -.33q-.01 -.22 -.02 -.48q-.01 -.26 -.01 -.48v-2.77h.58v4.9z" id="mol1atm16" stroke="none"/>
                
            <line class="hi" id="mol1bnd3" stroke="#FF0D0D" x1="25.93" x2="20.975" y1="24.45" y2="21.59"/>
            <line class="hi" id="mol1bnd4" stroke="#FF0D0D" x1="29.22" x2="29.22" y1="30.27" y2="35.93"/>
            <line class="hi" id="mol1bnd13" stroke="#3050F8" x1="59.44" x2="62.615" y1="65.64" y2="61.235"/>
            <line class="hi" id="mol1bnd14" stroke="#3050F8" x1="53.58" x2="48.0" y1="68.14" y2="66.295"/>
            <line class="hi" id="mol1bnd17" stroke="#3050F8" x1="79.95" x2="78.21000000000001" y1="16.16" y2="21.52"/>
            <line class="hi" id="mol1bnd18" stroke="#3050F8" x1="84.49" x2="90.28999999999999" y1="11.68" y2="10.45"/>
            <line class="hi" id="mol1bnd19" stroke="#3050F8" x1="78.31" x2="74.65" y1="9.18" y2="5.115"/>
        </g>
          
    </g>
    
</svg>
