<svg xmlns="http://www.w3.org/2000/svg" xmlns:xlink="http://www.w3.org/1999/xlink" height="32.56mm" version="1.2" viewBox="0 0 87.0 32.56" width="87.0mm">
      
    <desc>Generated by the Chemistry Development Kit (http://github.com/cdk)</desc>
      
    <g fill="#3050F8" stroke="#000000" stroke-linecap="round" stroke-linejoin="round" stroke-width=".7">
            
        <rect fill="#FFFFFF" height="33.0" stroke="none" width="87.0" x=".0" y=".0"/>
            
        <g class="mol" id="mol1">
                  
            <line class="bond" id="mol1bnd1" x1="40.62" x2="27.42" y1="1.05" y2="8.66"/>
                  
            <g class="bond" id="mol1bnd2">
                        
                <line x1="27.43" x2="27.42" y1="23.9" y2="8.66"/>
                        
                <line x1="24.99" x2="24.99" y1="22.49" y2="10.07"/>
                      
            </g>
                  
            <line class="bond" id="mol1bnd3" x1="27.43" x2="14.24" y1="23.9" y2="31.52"/>
                  
            <g class="bond" id="mol1bnd4">
                        
                <line x1="1.04" x2="14.24" y1="23.89" y2="31.52"/>
                        
                <line x1="3.48" x2="14.24" y1="22.49" y2="28.7"/>
                      
            </g>
                  
            <line class="bond" id="mol1bnd5" x1="1.04" x2="1.04" y1="23.89" y2="8.65"/>
                  
            <g class="bond" id="mol1bnd6">
                        
                <line x1="14.23" x2="1.04" y1="1.04" y2="8.65"/>
                        
                <line x1="14.23" x2="3.48" y1="3.85" y2="10.06"/>
                      
            </g>
                  
            <line class="bond" id="mol1bnd7" x1="27.42" x2="14.23" y1="8.66" y2="1.04"/>
                  
            <line class="bond" id="mol1bnd8" x1="40.62" x2="53.81" y1="1.05" y2="8.66"/>
                  
            <line class="bond" id="mol1bnd9" x1="53.81" x2="67.0" y1="8.66" y2="1.04"/>
                  
            <line class="bond" id="mol1bnd10" x1="67.0" x2="80.19" y1="1.04" y2="8.65"/>
                  
            <line class="bond" id="mol1bnd11" x1="80.19" x2="80.19" y1="8.65" y2="20.04"/>
                  
            <line class="bond" id="mol1bnd12" x1="77.04" x2="66.99" y1="25.72" y2="31.52"/>
                  
            <line class="bond" id="mol1bnd13" x1="66.99" x2="53.8" y1="31.52" y2="23.9"/>
                  
            <line class="bond" id="mol1bnd14" x1="53.81" x2="53.8" y1="8.66" y2="23.9"/>
                  
            <g class="atom" id="mol1atm11">
                        
                <path d="M82.13 26.34h-.72l-2.62 -4.07h-.03q.01 .24 .03 .6q.02 .36 .02 .73v2.74h-.57v-4.9h.71l2.61 4.05h.03q-.01 -.11 -.02 -.33q-.01 -.22 -.02 -.48q-.01 -.26 -.01 -.48v-2.77h.58v4.9z" stroke="none"/>
                        
                <path d="M86.44 26.34h-.62v-2.29h-2.51v2.29h-.61v-4.9h.61v2.07h2.51v-2.07h.62v4.9z" stroke="none"/>
                      
            </g>
                
            <line class="hi" id="mol1bnd11" stroke="#3050F8" x1="80.19" x2="80.19" y1="20.04" y2="14.344999999999999"/>
            <line class="hi" id="mol1bnd12" stroke="#3050F8" x1="77.04" x2="72.015" y1="25.72" y2="28.619999999999997"/>
        </g>
          
    </g>
    
</svg>
