<svg xmlns="http://www.w3.org/2000/svg" xmlns:xlink="http://www.w3.org/1999/xlink" height="52.09mm" version="1.2" viewBox="0 0 112.07 52.09" width="112.07mm">
      
    <desc>Generated by the Chemistry Development Kit (http://github.com/cdk)</desc>
      
    <g fill="#3050F8" stroke="#000000" stroke-linecap="round" stroke-linejoin="round" stroke-width=".7">
            
        <rect fill="#FFFFFF" height="53.0" stroke="none" width="113.0" x=".0" y=".0"/>
            
        <g class="mol" id="mol1">
                  
            <line class="bond" id="mol1bnd1" x1="111.03" x2="97.87" y1="18.06" y2="25.74"/>
                  
            <line class="bond" id="mol1bnd2" x1="97.87" x2="97.95" y1="25.74" y2="40.98"/>
                  
            <line class="bond" id="mol1bnd3" x1="97.87" x2="87.8" y1="25.74" y2="19.99"/>
                  
            <line class="bond" id="mol1bnd4" x1="81.49" x2="71.48" y1="20.03" y2="25.87"/>
                  
            <line class="bond" id="mol1bnd5" x1="71.48" x2="71.56" y1="25.87" y2="41.11"/>
                  
            <line class="bond" id="mol1bnd6" x1="71.48" x2="58.24" y1="25.87" y2="18.32"/>
                  
            <g class="bond" id="mol1bnd7">
                        
                <line x1="57.03" x2="56.97" y1="19.03" y2="7.01"/>
                        
                <line x1="59.47" x2="59.4" y1="19.02" y2="7.0"/>
                      
                <line class="hi" stroke="#FF0D0D" x1="56.97" x2="57.0" y1="7.01" y2="13.02"/>
                <line class="hi" stroke="#FF0D0D" x1="59.4" x2="59.435" y1="7.0" y2="13.01"/>
            </g>
                  
            <line class="bond" id="mol1bnd8" x1="58.24" x2="45.08" y1="18.32" y2="26.01"/>
                  
            <g class="bond" id="mol1bnd9">
                        
                <line x1="45.08" x2="31.98" y1="26.01" y2="18.55"/>
                        
                <line x1="42.65" x2="31.99" y1="27.43" y2="21.37"/>
                      
            </g>
                  
            <line class="bond" id="mol1bnd10" x1="31.98" x2="18.78" y1="18.55" y2="26.17"/>
                  
            <g class="bond" id="mol1bnd11">
                        
                <line x1="18.78" x2="18.6" y1="26.17" y2="41.3"/>
                        
                <line x1="21.2" x2="21.05" y1="27.59" y2="39.9"/>
                      
            </g>
                  
            <line class="bond" id="mol1bnd12" x1="18.6" x2="31.94" y1="41.3" y2="48.96"/>
                  
            <g class="bond" id="mol1bnd13">
                        
                <line x1="31.94" x2="45.14" y1="48.96" y2="41.34"/>
                        
                <line x1="31.94" x2="42.69" y1="46.15" y2="39.94"/>
                      
            </g>
                  
            <line class="bond" id="mol1bnd14" x1="45.08" x2="45.14" y1="26.01" y2="41.34"/>
                  
            <line class="bond" id="mol1bnd15" x1="18.6" x2="6.88" y1="41.3" y2="47.99"/>
                  
            <g class="atom" id="mol1atm4">
                        
                <path d="M86.58 20.64h-.72l-2.62 -4.07h-.03q.01 .24 .03 .6q.02 .36 .02 .73v2.74h-.57v-4.9h.71l2.61 4.05h.03q-.01 -.11 -.02 -.33q-.01 -.22 -.02 -.48q-.01 -.26 -.01 -.48v-2.77h.58v4.9z" stroke="none"/>
                        
                <path d="M86.44 15.18h-.62v-2.29h-2.51v2.29h-.61v-4.9h.61v2.07h2.51v-2.07h.62v4.9z" stroke="none"/>
                      
            </g>
                  
            <path class="atom" d="M60.43 3.08q.0 .76 -.26 1.33q-.26 .57 -.76 .88q-.5 .32 -1.24 .32q-.76 .0 -1.26 -.32q-.51 -.32 -.76 -.89q-.24 -.57 -.24 -1.33q.0 -.75 .24 -1.31q.25 -.57 .76 -.88q.51 -.32 1.27 -.32q.73 .0 1.23 .32q.5 .31 .76 .88q.26 .57 .26 1.33zM56.56 3.08q.0 .92 .39 1.46q.39 .53 1.22 .53q.84 .0 1.22 -.53q.39 -.54 .39 -1.46q.0 -.93 -.39 -1.45q-.38 -.52 -1.21 -.52q-.83 .0 -1.23 .52q-.39 .52 -.39 1.45z" fill="#FF0D0D" id="mol1atm8" stroke="none"/>
                  
            <path class="atom" d="M2.91 47.04q-.79 .0 -1.24 .53q-.45 .52 -.45 1.45q.0 .91 .42 1.45q.42 .53 1.27 .53q.32 .0 .61 -.05q.29 -.06 .57 -.14v.54q-.27 .1 -.57 .15q-.29 .05 -.7 .05q-.74 .0 -1.25 -.31q-.5 -.31 -.75 -.88q-.25 -.57 -.25 -1.34q.0 -.74 .27 -1.31q.27 -.57 .8 -.88q.53 -.32 1.28 -.32q.78 .0 1.35 .29l-.24 .52q-.23 -.1 -.51 -.18q-.27 -.08 -.61 -.08zM5.66 51.46h-.6v-5.21h.6v5.21z" fill="#1FF01F" id="mol1atm15" stroke="none"/>
                
            <line class="hi" id="mol1bnd3" stroke="#3050F8" x1="87.8" x2="92.83500000000001" y1="19.99" y2="22.865"/>
            <line class="hi" id="mol1bnd3" stroke="#3050F8" x1="87.8" x2="92.83500000000001" y1="19.99" y2="22.865"/>
            <line class="hi" id="mol1bnd4" stroke="#3050F8" x1="81.49" x2="76.485" y1="20.03" y2="22.950000000000003"/>
            <line class="hi" id="mol1bnd4" stroke="#3050F8" x1="81.49" x2="76.485" y1="20.03" y2="22.950000000000003"/>
            <line class="hi" id="mol1bnd15" stroke="#1FF01F" x1="6.879999999999999" x2="12.74" y1="47.99" y2="44.644999999999996"/>
        </g>
          
    </g>
    
</svg>
