<svg xmlns="http://www.w3.org/2000/svg" xmlns:xlink="http://www.w3.org/1999/xlink" height="34.54mm" version="1.2" viewBox="0 0 82.17 34.54" width="82.17mm">
      
    <desc>Generated by the Chemistry Development Kit (http://github.com/cdk)</desc>
      
    <g fill="#3050F8" stroke="#000000" stroke-linecap="round" stroke-linejoin="round" stroke-width=".7">
            
        <rect fill="#FFFFFF" height="35.0" stroke="none" width="83.0" x=".0" y=".0"/>
            
        <g class="mol" id="mol1">
                  
            <line class="bond" id="mol1bnd1" x1="81.13" x2="67.94" y1="1.04" y2="8.66"/>
                  
            <line class="bond" id="mol1bnd2" x1="67.94" x2="54.74" y1="8.66" y2="1.04"/>
                  
            <line class="bond" id="mol1bnd3" x1="54.74" x2="41.54" y1="1.04" y2="8.66"/>
                  
            <g class="bond" id="mol1bnd4">
                        
                <line x1="41.54" x2="41.54" y1="23.9" y2="8.66"/>
                        
                <line x1="39.1" x2="39.1" y1="22.5" y2="10.07"/>
                      
            </g>
                  
            <line class="bond" id="mol1bnd5" x1="41.54" x2="28.33" y1="23.9" y2="31.52"/>
                  
            <g class="bond" id="mol1bnd6">
                        
                <line x1="15.12" x2="28.33" y1="23.9" y2="31.52"/>
                        
                <line x1="17.56" x2="28.33" y1="22.5" y2="28.71"/>
                      
            </g>
                  
            <line class="bond" id="mol1bnd7" x1="15.12" x2="15.12" y1="23.9" y2="8.66"/>
                  
            <g class="bond" id="mol1bnd8">
                        
                <line x1="28.33" x2="15.12" y1="1.04" y2="8.66"/>
                        
                <line x1="28.33" x2="17.56" y1="3.86" y2="10.07"/>
                      
            </g>
                  
            <line class="bond" id="mol1bnd9" x1="41.54" x2="28.33" y1="8.66" y2="1.04"/>
                  
            <line class="bond" id="mol1bnd10" x1="15.12" x2="4.44" y1="23.9" y2="30.07"/>
                  
            <line class="bond" id="mol1bnd11" x1="67.94" x2="67.94" y1="8.66" y2="20.05"/>
                  
            <path class="atom" d="M1.17 33.98h-.61v-4.9h2.73v.54h-2.12v1.74h1.99v.54h-1.99v2.08z" fill="#90E050" id="mol1atm10" stroke="none"/>
                  
            <g class="atom" id="mol1atm11">
                        
                <path d="M69.88 26.35h-.72l-2.62 -4.07h-.03q.01 .24 .03 .6q.02 .36 .02 .73v2.74h-.57v-4.9h.71l2.61 4.05h.03q-.01 -.11 -.02 -.33q-.01 -.22 -.02 -.48q-.01 -.26 -.01 -.48v-2.77h.58v4.9z" stroke="none"/>
                        
                <path d="M74.19 26.35h-.62v-2.29h-2.51v2.29h-.61v-4.9h.61v2.07h2.51v-2.07h.62v4.9z" stroke="none"/>
                        
                <path d="M76.69 27.84h-1.94v-.3l.77 -.78q.22 -.22 .37 -.39q.15 -.18 .23 -.34q.08 -.17 .08 -.36q.0 -.24 -.15 -.37q-.14 -.13 -.37 -.13q-.21 .0 -.38 .08q-.16 .08 -.33 .21l-.19 -.24q.17 -.15 .39 -.25q.23 -.1 .51 -.1q.41 .0 .65 .21q.24 .21 .24 .58q.0 .23 -.1 .43q-.09 .2 -.26 .4q-.17 .2 -.39 .42l-.61 .6v.02h1.49v.33z" stroke="none"/>
                      
            </g>
                
            <line class="hi" id="mol1bnd10" stroke="#90E050" x1="4.4399999999999995" x2="9.78" y1="30.07" y2="26.985"/>
            <line class="hi" id="mol1bnd11" stroke="#3050F8" x1="67.94" x2="67.94" y1="20.05" y2="14.355"/>
        </g>
          
    </g>
    
</svg>
