<svg xmlns="http://www.w3.org/2000/svg" xmlns:xlink="http://www.w3.org/1999/xlink" height="51.82mm" version="1.2" viewBox="0 0 108.57 51.82" width="108.57mm">
      
    <desc>Generated by the Chemistry Development Kit (http://github.com/cdk)</desc>
      
    <g fill="#3050F8" stroke="#000000" stroke-linecap="round" stroke-linejoin="round" stroke-width=".7">
            
        <rect fill="#FFFFFF" height="52.0" stroke="none" width="109.0" x=".0" y=".0"/>
            
        <g class="mol" id="mol1">
                  
            <line class="bond" id="mol1bnd1" x1="107.53" x2="94.33" y1="18.31" y2="25.93"/>
                  
            <line class="bond" id="mol1bnd2" x1="94.33" x2="81.13" y1="25.93" y2="18.32"/>
                  
            <line class="bond" id="mol1bnd3" x1="81.13" x2="67.94" y1="18.32" y2="25.94"/>
                  
            <line class="bond" id="mol1bnd4" x1="67.94" x2="54.74" y1="25.94" y2="18.32"/>
                  
            <g class="bond" id="mol1bnd5">
                        
                <line x1="53.52" x2="53.52" y1="19.03" y2="7.0"/>
                        
                <line x1="55.96" x2="55.95" y1="19.02" y2="7.0"/>
                      
                <line class="hi" stroke="#FF0D0D" x1="53.52" x2="53.52" y1="7.0" y2="13.015"/>
                <line class="hi" stroke="#FF0D0D" x1="55.95" x2="55.955" y1="7.0" y2="13.01"/>
            </g>
                  
            <line class="bond" id="mol1bnd6" x1="54.74" x2="41.54" y1="18.32" y2="25.94"/>
                  
            <g class="bond" id="mol1bnd7">
                        
                <line x1="41.54" x2="41.54" y1="41.18" y2="25.94"/>
                        
                <line x1="39.1" x2="39.1" y1="39.77" y2="27.35"/>
                      
            </g>
                  
            <line class="bond" id="mol1bnd8" x1="41.54" x2="28.33" y1="41.18" y2="48.8"/>
                  
            <g class="bond" id="mol1bnd9">
                        
                <line x1="15.12" x2="28.33" y1="41.18" y2="48.8"/>
                        
                <line x1="17.56" x2="28.33" y1="39.77" y2="45.99"/>
                      
            </g>
                  
            <line class="bond" id="mol1bnd10" x1="15.12" x2="15.12" y1="41.18" y2="25.94"/>
                  
            <g class="bond" id="mol1bnd11">
                        
                <line x1="28.33" x2="15.12" y1="18.32" y2="25.94"/>
                        
                <line x1="28.33" x2="17.56" y1="21.14" y2="27.35"/>
                      
            </g>
                  
            <line class="bond" id="mol1bnd12" x1="41.54" x2="28.33" y1="25.94" y2="18.32"/>
                  
            <line class="bond" id="mol1bnd13" x1="15.12" x2="4.44" y1="41.18" y2="47.35"/>
                  
            <line class="bond" id="mol1bnd14" x1="67.94" x2="67.94" y1="25.94" y2="37.33"/>
                  
            <line class="bond" id="mol1bnd15" x1="71.09" x2="81.14" y1="43.0" y2="48.8"/>
                  
            <path class="atom" d="M56.99 3.08q.0 .76 -.26 1.33q-.26 .57 -.76 .88q-.5 .32 -1.24 .32q-.76 .0 -1.26 -.32q-.51 -.32 -.76 -.89q-.24 -.57 -.24 -1.33q.0 -.75 .24 -1.31q.25 -.57 .76 -.88q.51 -.32 1.27 -.32q.73 .0 1.23 .32q.5 .31 .76 .88q.26 .57 .26 1.33zM53.13 3.08q.0 .92 .39 1.46q.39 .53 1.22 .53q.84 .0 1.22 -.53q.39 -.54 .39 -1.46q.0 -.93 -.39 -1.45q-.38 -.52 -1.21 -.52q-.83 .0 -1.23 .52q-.39 .52 -.39 1.45z" fill="#FF0D0D" id="mol1atm6" stroke="none"/>
                  
            <path class="atom" d="M1.17 51.26h-.61v-4.9h2.73v.54h-2.12v1.74h1.99v.54h-1.99v2.08z" fill="#90E050" id="mol1atm13" stroke="none"/>
                  
            <g class="atom" id="mol1atm14">
                        
                <path d="M69.88 43.63h-.72l-2.62 -4.07h-.03q.01 .24 .03 .6q.02 .36 .02 .73v2.74h-.57v-4.9h.71l2.61 4.05h.03q-.01 -.11 -.02 -.33q-.01 -.22 -.02 -.48q-.01 -.26 -.01 -.48v-2.77h.58v4.9z" stroke="none"/>
                        
                <path d="M65.44 43.63h-.62v-2.29h-2.51v2.29h-.61v-4.9h.61v2.07h2.51v-2.07h.62v4.9z" stroke="none"/>
                      
            </g>
                
            <line class="hi" id="mol1bnd13" stroke="#90E050" x1="4.4399999999999995" x2="9.78" y1="47.35" y2="44.265"/>
            <line class="hi" id="mol1bnd14" stroke="#3050F8" x1="67.94" x2="67.94" y1="37.33" y2="31.634999999999998"/>
            <line class="hi" id="mol1bnd14" stroke="#3050F8" x1="67.94" x2="67.94" y1="37.33" y2="31.634999999999998"/>
            <line class="hi" id="mol1bnd15" stroke="#3050F8" x1="71.09" x2="76.11500000000001" y1="43.0" y2="45.9"/>
            <line class="hi" id="mol1bnd15" stroke="#3050F8" x1="71.09" x2="76.11500000000001" y1="43.0" y2="45.9"/>
        </g>
          
    </g>
    
</svg>
