<svg xmlns="http://www.w3.org/2000/svg" xmlns:xlink="http://www.w3.org/1999/xlink" height="88.01mm" version="1.2" viewBox="0 0 82.1 88.01" width="82.1mm">
      
    <desc>Generated by the Chemistry Development Kit (http://github.com/cdk)</desc>
      
    <g fill="#3050F8" stroke="#000000" stroke-linecap="round" stroke-linejoin="round" stroke-width=".7">
            
        <rect fill="#FFFFFF" height="89.0" stroke="none" width="83.0" x=".0" y=".0"/>
            
        <g class="mol" id="mol1">
                  
            <line class="bond" id="mol1bnd1" x1="81.12" x2="69.52" y1="24.12" y2="26.59"/>
                  
            <line class="bond" id="mol1bnd2" x1="64.98" x2="61.5" y1="31.07" y2="41.78"/>
                  
            <line class="bond" id="mol1bnd3" x1="61.5" x2="46.59" y1="41.78" y2="44.95"/>
                  
            <line class="bond" id="mol1bnd4" x1="46.59" x2="41.88" y1="44.95" y2="59.44"/>
                  
            <g class="bond" id="mol1bnd5">
                        
                <line x1="41.88" x2="27.45" y1="59.44" y2="64.12"/>
                        
                <line x1="40.95" x2="29.89" y1="62.31" y2="65.89"/>
                      
            </g>
                  
            <line class="bond" id="mol1bnd6" x1="27.45" x2="14.25" y1="64.12" y2="56.5"/>
                  
            <g class="bond" id="mol1bnd7">
                        
                <line x1="13.03" x2="13.03" y1="57.2" y2="45.18"/>
                        
                <line x1="15.47" x2="15.47" y1="57.2" y2="45.18"/>
                      
                <line class="hi" stroke="#FF0D0D" x1="13.03" x2="13.03" y1="45.18" y2="51.19"/>
                <line class="hi" stroke="#FF0D0D" x1="15.47" x2="15.47" y1="45.18" y2="51.19"/>
            </g>
                  
            <line class="bond" id="mol1bnd8" x1="14.25" x2="1.04" y1="56.5" y2="64.12"/>
                  
            <g class="bond" id="mol1bnd9">
                        
                <line x1="1.04" x2="1.04" y1="64.12" y2="79.36"/>
                        
                <line x1="3.48" x2="3.48" y1="65.52" y2="77.95"/>
                      
            </g>
                  
            <line class="bond" id="mol1bnd10" x1="1.04" x2="14.25" y1="79.36" y2="86.98"/>
                  
            <g class="bond" id="mol1bnd11">
                        
                <line x1="14.25" x2="27.45" y1="86.98" y2="79.36"/>
                        
                <line x1="14.25" x2="25.02" y1="84.16" y2="77.95"/>
                      
            </g>
                  
            <line class="bond" id="mol1bnd12" x1="27.45" x2="27.45" y1="64.12" y2="79.36"/>
                  
            <line class="bond" id="mol1bnd13" x1="27.45" x2="38.61" y1="79.36" y2="83.05"/>
                  
            <g class="bond" id="mol1bnd14">
                        
                <line x1="44.47" x2="50.82" y1="80.55" y2="71.74"/>
                        
                <line x1="42.49" x2="47.81" y1="79.12" y2="71.74"/>
                      
                <line class="hi" stroke="#3050F8" x1="44.47" x2="47.644999999999996" y1="80.55" y2="76.145"/>
                <line class="hi" stroke="#3050F8" x1="42.49" x2="45.150000000000006" y1="79.12" y2="75.43"/>
            </g>
                  
            <line class="bond" id="mol1bnd15" x1="41.88" x2="50.82" y1="59.44" y2="71.74"/>
                  
            <line class="bond" id="mol1bnd16" x1="63.34" x2="56.02" y1="24.09" y2="15.96"/>
                  
            <line class="bond" id="mol1bnd17" x1="56.02" x2="41.52" y1="15.96" y2="11.25"/>
                  
            <line class="bond" id="mol1bnd18" x1="41.52" x2="52.86" y1="11.25" y2="1.05"/>
                  
            <line class="bond" id="mol1bnd19" x1="56.02" x2="52.86" y1="15.96" y2="1.05"/>
                  
            <path class="atom" d="M68.15 29.74h-.72l-2.62 -4.07h-.03q.01 .24 .03 .6q.02 .36 .02 .73v2.74h-.57v-4.9h.71l2.61 4.05h.03q-.01 -.11 -.02 -.33q-.01 -.22 -.02 -.48q-.01 -.26 -.01 -.48v-2.77h.58v4.9z" id="mol1atm2" stroke="none"/>
                  
            <path class="atom" d="M16.51 41.25q.0 .76 -.26 1.33q-.26 .57 -.76 .88q-.5 .32 -1.24 .32q-.76 .0 -1.26 -.32q-.51 -.32 -.76 -.89q-.24 -.57 -.24 -1.33q.0 -.75 .24 -1.31q.25 -.57 .76 -.88q.51 -.32 1.27 -.32q.73 .0 1.23 .32q.5 .31 .76 .88q.26 .57 .26 1.33zM12.64 41.25q.0 .92 .39 1.46q.39 .53 1.22 .53q.84 .0 1.22 -.53q.39 -.54 .39 -1.46q.0 -.93 -.39 -1.45q-.38 -.52 -1.21 -.52q-.83 .0 -1.23 .52q-.39 .52 -.39 1.45z" fill="#FF0D0D" id="mol1atm8" stroke="none"/>
                  
            <path class="atom" d="M43.82 86.58h-.72l-2.62 -4.07h-.03q.01 .24 .03 .6q.02 .36 .02 .73v2.74h-.57v-4.9h.71l2.61 4.05h.03q-.01 -.11 -.02 -.33q-.01 -.22 -.02 -.48q-.01 -.26 -.01 -.48v-2.77h.58v4.9z" id="mol1atm13" stroke="none"/>
                
            <line class="hi" id="mol1bnd1" stroke="#3050F8" x1="69.52" x2="75.32" y1="26.59" y2="25.355"/>
            <line class="hi" id="mol1bnd2" stroke="#3050F8" x1="64.98" x2="63.24" y1="31.07" y2="36.425"/>
            <line class="hi" id="mol1bnd13" stroke="#3050F8" x1="38.61" x2="33.03" y1="83.05" y2="81.205"/>
            <line class="hi" id="mol1bnd16" stroke="#3050F8" x1="63.34" x2="59.68000000000001" y1="24.09" y2="20.025"/>
        </g>
          
    </g>
    
</svg>
