<svg xmlns="http://www.w3.org/2000/svg" xmlns:xlink="http://www.w3.org/1999/xlink" height="92.13mm" version="1.2" viewBox="0 0 101.72 92.13" width="101.72mm">
      
    <desc>Generated by the Chemistry Development Kit (http://github.com/cdk)</desc>
      
    <g fill="#3050F8" stroke="#000000" stroke-linecap="round" stroke-linejoin="round" stroke-width=".7">
            
        <rect fill="#FFFFFF" height="93.0" stroke="none" width="102.0" x=".0" y=".0"/>
            
        <g class="mol" id="mol1">
                  
            <line class="bond" id="mol1bnd1" x1="100.74" x2="85.83" y1="6.0" y2="9.16"/>
                  
            <line class="bond" id="mol1bnd2" x1="85.83" x2="81.12" y1="9.16" y2="23.66"/>
                  
            <line class="bond" id="mol1bnd3" x1="81.12" x2="69.52" y1="23.66" y2="26.12"/>
                  
            <line class="bond" id="mol1bnd4" x1="63.34" x2="56.02" y1="23.62" y2="15.49"/>
                  
            <line class="bond" id="mol1bnd5" x1="56.02" x2="60.73" y1="15.49" y2="1.0"/>
                  
            <line class="bond" id="mol1bnd6" x1="64.98" x2="61.5" y1="30.6" y2="41.32"/>
                  
            <line class="bond" id="mol1bnd7" x1="61.5" x2="46.59" y1="41.32" y2="44.48"/>
                  
            <line class="bond" id="mol1bnd8" x1="46.59" x2="41.88" y1="44.48" y2="58.97"/>
                  
            <g class="bond" id="mol1bnd9">
                        
                <line x1="50.82" x2="41.88" y1="71.27" y2="58.97"/>
                        
                <line x1="47.81" x2="40.95" y1="71.27" y2="61.84"/>
                      
            </g>
                  
            <line class="bond" id="mol1bnd10" x1="50.82" x2="44.47" y1="71.27" y2="80.08"/>
                  
            <line class="bond" id="mol1bnd11" x1="38.61" x2="27.45" y1="82.58" y2="78.89"/>
                  
            <g class="bond" id="mol1bnd12">
                        
                <line x1="27.45" x2="27.45" y1="78.89" y2="63.65"/>
                        
                <line x1="25.02" x2="25.02" y1="77.48" y2="65.06"/>
                      
            </g>
                  
            <line class="bond" id="mol1bnd13" x1="41.88" x2="27.45" y1="58.97" y2="63.65"/>
                  
            <line class="bond" id="mol1bnd14" x1="27.45" x2="14.25" y1="63.65" y2="56.03"/>
                  
            <g class="bond" id="mol1bnd15">
                        
                <line x1="14.25" x2="1.04" y1="56.03" y2="63.65"/>
                        
                <line x1="14.25" x2="3.48" y1="58.84" y2="65.06"/>
                      
            </g>
                  
            <line class="bond" id="mol1bnd16" x1="1.04" x2="1.04" y1="63.65" y2="78.89"/>
                  
            <g class="bond" id="mol1bnd17">
                        
                <line x1="1.04" x2="14.25" y1="78.89" y2="86.51"/>
                        
                <line x1="3.48" x2="14.25" y1="77.48" y2="83.69"/>
                      
            </g>
                  
            <line class="bond" id="mol1bnd18" x1="27.45" x2="14.25" y1="78.89" y2="86.51"/>
                  
            <line class="bond" id="mol1bnd19" x1="14.25" x2="14.25" y1="56.03" y2="44.71"/>
                  
            <path class="atom" d="M68.15 29.27h-.72l-2.62 -4.07h-.03q.01 .24 .03 .6q.02 .36 .02 .73v2.74h-.57v-4.9h.71l2.61 4.05h.03q-.01 -.11 -.02 -.33q-.01 -.22 -.02 -.48q-.01 -.26 -.01 -.48v-2.77h.58v4.9z" id="mol1atm4" stroke="none"/>
                  
            <g class="atom" id="mol1atm11">
                        
                <path d="M43.82 86.11h-.72l-2.62 -4.07h-.03q.01 .24 .03 .6q.02 .36 .02 .73v2.74h-.57v-4.9h.71l2.61 4.05h.03q-.01 -.11 -.02 -.33q-.01 -.22 -.02 -.48q-.01 -.26 -.01 -.48v-2.77h.58v4.9z" stroke="none"/>
                        
                <path d="M43.69 91.57h-.62v-2.29h-2.51v2.29h-.61v-4.9h.61v2.07h2.51v-2.07h.62v4.9z" stroke="none"/>
                      
            </g>
                  
            <g class="atom" id="mol1atm18">
                        
                <path d="M16.51 40.78q.0 .76 -.26 1.33q-.26 .57 -.76 .88q-.5 .32 -1.24 .32q-.76 .0 -1.26 -.32q-.51 -.32 -.76 -.89q-.24 -.57 -.24 -1.33q.0 -.75 .24 -1.31q.25 -.57 .76 -.88q.51 -.32 1.27 -.32q.73 .0 1.23 .32q.5 .31 .76 .88q.26 .57 .26 1.33zM12.64 40.78q.0 .92 .39 1.46q.39 .53 1.22 .53q.84 .0 1.22 -.53q.39 -.54 .39 -1.46q.0 -.93 -.39 -1.45q-.38 -.52 -1.21 -.52q-.83 .0 -1.23 .52q-.39 .52 -.39 1.45z" fill="#FF0D0D" stroke="none"/>
                        
                <path d="M20.81 43.24h-.62v-2.29h-2.51v2.29h-.61v-4.9h.61v2.07h2.51v-2.07h.62v4.9z" fill="#FF0D0D" stroke="none"/>
                      
            </g>
                
            <line class="hi" id="mol1bnd3" stroke="#3050F8" x1="69.52" x2="75.32" y1="26.12" y2="24.89"/>
            <line class="hi" id="mol1bnd4" stroke="#3050F8" x1="63.34" x2="59.68000000000001" y1="23.62" y2="19.555"/>
            <line class="hi" id="mol1bnd6" stroke="#3050F8" x1="64.98" x2="63.24" y1="30.6" y2="35.96"/>
            <line class="hi" id="mol1bnd10" stroke="#3050F8" x1="44.47" x2="47.644999999999996" y1="80.08" y2="75.675"/>
            <line class="hi" id="mol1bnd11" stroke="#3050F8" x1="38.61" x2="33.03" y1="82.58" y2="80.735"/>
            <line class="hi" id="mol1bnd19" stroke="#FF0D0D" x1="14.25" x2="14.25" y1="44.71" y2="50.370000000000005"/>
            <line class="hi" id="mol1bnd19" stroke="#FF0D0D" x1="14.25" x2="14.25" y1="44.71" y2="50.370000000000005"/>
        </g>
          
    </g>
    
</svg>
