<svg xmlns="http://www.w3.org/2000/svg" xmlns:xlink="http://www.w3.org/1999/xlink" height="65.59mm" version="1.2" viewBox="0 0 108.85 65.59" width="108.85mm">
      
    <desc>Generated by the Chemistry Development Kit (http://github.com/cdk)</desc>
      
    <g fill="#FF0D0D" stroke="#000000" stroke-linecap="round" stroke-linejoin="round" stroke-width=".7">
            
        <rect fill="#FFFFFF" height="66.0" stroke="none" width="109.0" x=".0" y=".0"/>
            
        <g class="mol" id="mol1">
                  
            <g class="bond" id="mol1bnd1">
                        
                <line x1="4.41" x2="10.61" y1="29.29" y2="43.2"/>
                        
                <line x1="7.21" x2="12.26" y1="29.58" y2="40.93"/>
                      
            </g>
                  
            <line class="bond" id="mol1bnd2" x1="10.61" x2="25.75" y1="43.2" y2="44.83"/>
                  
            <g class="bond" id="mol1bnd3">
                        
                <line x1="25.75" x2="34.69" y1="44.83" y2="32.43"/>
                        
                <line x1="24.6" x2="31.89" y1="42.25" y2="32.15"/>
                      
            </g>
                  
            <line class="bond" id="mol1bnd4" x1="34.69" x2="28.49" y1="32.43" y2="18.52"/>
                  
            <g class="bond" id="mol1bnd5">
                        
                <line x1="28.49" x2="13.35" y1="18.52" y2="16.99"/>
                        
                <line x1="26.84" x2="14.5" y1="20.8" y2="19.56"/>
                      
            </g>
                  
            <line class="bond" id="mol1bnd6" x1="4.41" x2="13.35" y1="29.29" y2="16.99"/>
                  
            <line class="bond" id="mol1bnd7" x1="13.35" x2="8.74" y1="16.99" y2="6.69"/>
                  
            <line class="bond" id="mol1bnd8" x1="34.69" x2="49.22" y1="32.43" y2="37.21"/>
                  
            <g class="bond" id="mol1bnd9">
                        
                <line x1="49.22" x2="49.22" y1="52.45" y2="37.21"/>
                        
                <line x1="46.78" x2="46.78" y1="50.67" y2="38.98"/>
                      
            </g>
                  
            <line class="bond" id="mol1bnd10" x1="49.22" x2="37.96" y1="52.45" y2="56.07"/>
                  
            <line class="bond" id="mol1bnd11" x1="25.75" x2="32.08" y1="44.83" y2="53.54"/>
                  
            <line class="bond" id="mol1bnd12" x1="49.22" x2="61.56" y1="37.21" y2="28.27"/>
                  
            <line class="bond" id="mol1bnd13" x1="61.56" x2="75.47" y1="28.27" y2="34.5"/>
                  
            <line class="bond" id="mol1bnd14" x1="75.47" x2="87.82" y1="34.5" y2="25.56"/>
                  
            <g class="bond" id="mol1bnd15">
                        
                <line x1="86.68" x2="85.44" y1="26.38" y2="14.44"/>
                        
                <line x1="89.1" x2="87.87" y1="26.13" y2="14.19"/>
                      
                <line class="hi" stroke="#FF0D0D" x1="85.44" x2="86.06" y1="14.44" y2="20.41"/>
                <line class="hi" stroke="#FF0D0D" x1="87.87" x2="88.485" y1="14.19" y2="20.16"/>
            </g>
                  
            <line class="bond" id="mol1bnd16" x1="87.82" x2="98.28" y1="25.56" y2="30.24"/>
                  
            <line class="bond" id="mol1bnd17" x1="75.47" x2="76.64" y1="34.5" y2="45.81"/>
                  
            <g class="atom" id="mol1atm7">
                        
                <path d="M9.38 3.08q.0 .76 -.26 1.33q-.26 .57 -.76 .88q-.5 .32 -1.24 .32q-.76 .0 -1.26 -.32q-.51 -.32 -.76 -.89q-.24 -.57 -.24 -1.33q.0 -.75 .24 -1.31q.25 -.57 .76 -.88q.51 -.32 1.27 -.32q.73 .0 1.23 .32q.5 .31 .76 .88q.26 .57 .26 1.33zM5.52 3.08q.0 .92 .39 1.46q.39 .53 1.22 .53q.84 .0 1.22 -.53q.39 -.54 .39 -1.46q.0 -.93 -.39 -1.45q-.38 -.52 -1.21 -.52q-.83 .0 -1.23 .52q-.39 .52 -.39 1.45z" stroke="none"/>
                        
                <path d="M4.3 5.53h-.62v-2.29h-2.51v2.29h-.61v-4.9h.61v2.07h2.51v-2.07h.62v4.9z" stroke="none"/>
                      
            </g>
                  
            <g class="atom" id="mol1atm10">
                        
                <path d="M36.63 59.57h-.72l-2.62 -4.07h-.03q.01 .24 .03 .6q.02 .36 .02 .73v2.74h-.57v-4.9h.71l2.61 4.05h.03q-.01 -.11 -.02 -.33q-.01 -.22 -.02 -.48q-.01 -.26 -.01 -.48v-2.77h.58v4.9z" fill="#3050F8" stroke="none"/>
                        
                <path d="M36.49 65.03h-.62v-2.29h-2.51v2.29h-.61v-4.9h.61v2.07h2.51v-2.07h.62v4.9z" fill="#3050F8" stroke="none"/>
                      
            </g>
                  
            <path class="atom" d="M88.51 10.4q.0 .76 -.26 1.33q-.26 .57 -.76 .88q-.5 .32 -1.24 .32q-.76 .0 -1.26 -.32q-.51 -.32 -.76 -.89q-.24 -.57 -.24 -1.33q.0 -.75 .24 -1.31q.25 -.57 .76 -.88q.51 -.32 1.27 -.32q.73 .0 1.23 .32q.5 .31 .76 .88q.26 .57 .26 1.33zM84.65 10.4q.0 .92 .39 1.46q.39 .53 1.22 .53q.84 .0 1.22 -.53q.39 -.54 .39 -1.46q.0 -.93 -.39 -1.45q-.38 -.52 -1.21 -.52q-.83 .0 -1.23 .52q-.39 .52 -.39 1.45z" id="mol1atm14" stroke="none"/>
                  
            <g class="atom" id="mol1atm15">
                        
                <path d="M103.99 31.78q.0 .76 -.26 1.33q-.26 .57 -.76 .88q-.5 .32 -1.24 .32q-.76 .0 -1.26 -.32q-.51 -.32 -.76 -.89q-.24 -.57 -.24 -1.33q.0 -.75 .24 -1.31q.25 -.57 .76 -.88q.51 -.32 1.27 -.32q.73 .0 1.23 .32q.5 .31 .76 .88q.26 .57 .26 1.33zM100.12 31.78q.0 .92 .39 1.46q.39 .53 1.22 .53q.84 .0 1.22 -.53q.39 -.54 .39 -1.46q.0 -.93 -.39 -1.45q-.38 -.52 -1.21 -.52q-.83 .0 -1.23 .52q-.39 .52 -.39 1.45z" stroke="none"/>
                        
                <path d="M108.29 34.23h-.62v-2.29h-2.51v2.29h-.61v-4.9h.61v2.07h2.51v-2.07h.62v4.9z" stroke="none"/>
                      
            </g>
                  
            <g class="atom" id="mol1atm16">
                        
                <path d="M78.98 52.1h-.72l-2.62 -4.07h-.03q.01 .24 .03 .6q.02 .36 .02 .73v2.74h-.57v-4.9h.71l2.61 4.05h.03q-.01 -.11 -.02 -.33q-.01 -.22 -.02 -.48q-.01 -.26 -.01 -.48v-2.77h.58v4.9z" fill="#3050F8" stroke="none"/>
                        
                <path d="M83.29 52.1h-.62v-2.29h-2.51v2.29h-.61v-4.9h.61v2.07h2.51v-2.07h.62v4.9z" fill="#3050F8" stroke="none"/>
                        
                <path d="M85.79 53.59h-1.94v-.3l.77 -.78q.22 -.22 .37 -.39q.15 -.18 .23 -.34q.08 -.17 .08 -.36q.0 -.24 -.15 -.37q-.14 -.13 -.37 -.13q-.21 .0 -.38 .08q-.16 .08 -.33 .21l-.19 -.24q.17 -.15 .39 -.25q.23 -.1 .51 -.1q.41 .0 .65 .21q.24 .21 .24 .58q.0 .23 -.1 .43q-.09 .2 -.26 .4q-.17 .2 -.39 .42l-.61 .6v.02h1.49v.33z" fill="#3050F8" stroke="none"/>
                      
            </g>
                
            <line class="hi" id="mol1bnd7" stroke="#FF0D0D" x1="8.74" x2="11.045" y1="6.690000000000001" y2="11.84"/>
            <line class="hi" id="mol1bnd7" stroke="#FF0D0D" x1="8.74" x2="11.045" y1="6.690000000000001" y2="11.84"/>
            <line class="hi" id="mol1bnd10" stroke="#3050F8" x1="37.96" x2="43.59" y1="56.07" y2="54.260000000000005"/>
            <line class="hi" id="mol1bnd11" stroke="#3050F8" x1="32.08" x2="28.915" y1="53.54" y2="49.185"/>
            <line class="hi" id="mol1bnd16" stroke="#FF0D0D" x1="98.28" x2="93.05" y1="30.24" y2="27.9"/>
            <line class="hi" id="mol1bnd17" stroke="#3050F8" x1="76.64" x2="76.055" y1="45.81" y2="40.155"/>
        </g>
          
    </g>
    
</svg>
