<svg xmlns="http://www.w3.org/2000/svg" xmlns:xlink="http://www.w3.org/1999/xlink" height="87.53mm" version="1.2" viewBox="0 0 118.89 87.53" width="118.89mm">
      
    <desc>Generated by the Chemistry Development Kit (http://github.com/cdk)</desc>
      
    <g fill="#FF0D0D" stroke="#000000" stroke-linecap="round" stroke-linejoin="round" stroke-width=".7">
            
        <rect fill="#FFFFFF" height="88.0" stroke="none" width="119.0" x=".0" y=".0"/>
            
        <g class="mol" id="mol1">
                  
            <line class="bond" id="mol1bnd1" x1="112.38" x2="107.66" y1="9.19" y2="23.68"/>
                  
            <line class="bond" id="mol1bnd2" x1="107.66" x2="117.84" y1="23.68" y2="35.02"/>
                  
            <line class="bond" id="mol1bnd3" x1="107.66" x2="96.06" y1="23.68" y2="26.13"/>
                  
            <line class="bond" id="mol1bnd4" x1="91.51" x2="88.02" y1="30.61" y2="41.32"/>
                  
            <line class="bond" id="mol1bnd5" x1="88.02" x2="73.11" y1="41.32" y2="44.47"/>
                  
            <line class="bond" id="mol1bnd6" x1="73.11" x2="68.38" y1="44.47" y2="58.95"/>
                  
            <g class="bond" id="mol1bnd7">
                        
                <line x1="77.32" x2="68.38" y1="71.25" y2="58.95"/>
                        
                <line x1="74.31" x2="67.45" y1="71.25" y2="61.82"/>
                      
            </g>
                  
            <line class="bond" id="mol1bnd8" x1="77.32" x2="70.7" y1="71.25" y2="80.36"/>
                  
            <line class="bond" id="mol1bnd9" x1="64.79" x2="53.85" y1="82.39" y2="78.87"/>
                  
            <g class="bond" id="mol1bnd10">
                        
                <line x1="53.85" x2="53.85" y1="78.87" y2="63.63"/>
                        
                <line x1="51.41" x2="51.41" y1="77.46" y2="65.04"/>
                      
            </g>
                  
            <line class="bond" id="mol1bnd11" x1="68.38" x2="53.85" y1="58.95" y2="63.63"/>
                  
            <line class="bond" id="mol1bnd12" x1="53.85" x2="40.64" y1="63.63" y2="56.01"/>
                  
            <g class="bond" id="mol1bnd13">
                        
                <line x1="40.64" x2="27.43" y1="56.01" y2="63.63"/>
                        
                <line x1="40.64" x2="29.87" y1="58.82" y2="65.04"/>
                      
            </g>
                  
            <line class="bond" id="mol1bnd14" x1="27.43" x2="27.43" y1="63.63" y2="78.87"/>
                  
            <g class="bond" id="mol1bnd15">
                        
                <line x1="27.43" x2="40.64" y1="78.87" y2="86.49"/>
                        
                <line x1="29.87" x2="40.64" y1="77.46" y2="83.67"/>
                      
            </g>
                  
            <line class="bond" id="mol1bnd16" x1="53.85" x2="40.64" y1="78.87" y2="86.49"/>
                  
            <line class="bond" id="mol1bnd17" x1="27.43" x2="17.51" y1="63.63" y2="57.9"/>
                  
            <line class="bond" id="mol1bnd18" x1="10.96" x2="1.04" y1="57.9" y2="63.62"/>
                  
            <line class="bond" id="mol1bnd19" x1="89.87" x2="82.56" y1="23.63" y2="15.49"/>
                  
            <line class="bond" id="mol1bnd20" x1="82.56" x2="87.29" y1="15.49" y2="1.0"/>
                  
            <line class="bond" id="mol1bnd21" x1="82.56" x2="67.65" y1="15.49" y2="18.64"/>
                  
            <path class="atom" d="M94.69 29.28h-.72l-2.62 -4.07h-.03q.01 .24 .03 .6q.02 .36 .02 .73v2.74h-.57v-4.9h.71l2.61 4.05h.03q-.01 -.11 -.02 -.33q-.01 -.22 -.02 -.48q-.01 -.26 -.01 -.48v-2.77h.58v4.9z" fill="#3050F8" id="mol1atm4" stroke="none"/>
                  
            <path class="atom" d="M70.64 83.54q.0 .76 -.26 1.33q-.26 .57 -.76 .88q-.5 .32 -1.24 .32q-.76 .0 -1.26 -.32q-.51 -.32 -.76 -.89q-.24 -.57 -.24 -1.33q.0 -.75 .24 -1.31q.25 -.57 .76 -.88q.51 -.32 1.27 -.32q.73 .0 1.23 .32q.5 .31 .76 .88q.26 .57 .26 1.33zM66.78 83.54q.0 .92 .39 1.46q.39 .53 1.22 .53q.84 .0 1.22 -.53q.39 -.54 .39 -1.46q.0 -.93 -.39 -1.45q-.38 -.52 -1.21 -.52q-.83 .0 -1.23 .52q-.39 .52 -.39 1.45z" id="mol1atm9" stroke="none"/>
                  
            <path class="atom" d="M16.5 56.0q.0 .76 -.26 1.33q-.26 .57 -.76 .88q-.5 .32 -1.24 .32q-.76 .0 -1.26 -.32q-.51 -.32 -.76 -.89q-.24 -.57 -.24 -1.33q.0 -.75 .24 -1.31q.25 -.57 .76 -.88q.51 -.32 1.27 -.32q.73 .0 1.23 .32q.5 .31 .76 .88q.26 .57 .26 1.33zM12.63 56.0q.0 .92 .39 1.46q.39 .53 1.22 .53q.84 .0 1.22 -.53q.39 -.54 .39 -1.46q.0 -.93 -.39 -1.45q-.38 -.52 -1.21 -.52q-.83 .0 -1.23 .52q-.39 .52 -.39 1.45z" id="mol1atm16" stroke="none"/>
                
            <line class="hi" id="mol1bnd3" stroke="#3050F8" x1="96.06" x2="101.86" y1="26.13" y2="24.905"/>
            <line class="hi" id="mol1bnd4" stroke="#3050F8" x1="91.51" x2="89.765" y1="30.61" y2="35.965"/>
            <line class="hi" id="mol1bnd8" stroke="#FF0D0D" x1="70.7" x2="74.00999999999999" y1="80.36" y2="75.805"/>
            <line class="hi" id="mol1bnd9" stroke="#FF0D0D" x1="64.79" x2="59.32000000000001" y1="82.39" y2="80.63"/>
            <line class="hi" id="mol1bnd17" stroke="#FF0D0D" x1="17.51" x2="22.47" y1="57.9" y2="60.765"/>
            <line class="hi" id="mol1bnd18" stroke="#FF0D0D" x1="10.96" x2="6.0" y1="57.9" y2="60.76"/>
            <line class="hi" id="mol1bnd19" stroke="#3050F8" x1="89.87" x2="86.215" y1="23.63" y2="19.56"/>
        </g>
          
    </g>
    
</svg>
