<svg xmlns="http://www.w3.org/2000/svg" xmlns:xlink="http://www.w3.org/1999/xlink" height="69.64mm" version="1.2" viewBox="0 0 124.23 69.64" width="124.23mm">
      
    <desc>Generated by the Chemistry Development Kit (http://github.com/cdk)</desc>
      
    <g fill="#3050F8" stroke="#000000" stroke-linecap="round" stroke-linejoin="round" stroke-width=".7">
            
        <rect fill="#FFFFFF" height="70.0" stroke="none" width="125.0" x=".0" y=".0"/>
            
        <g class="mol" id="mol1">
                  
            <line class="bond" id="mol1bnd1" x1="21.18" x2="17.34" y1="57.53" y2="46.97"/>
                  
            <line class="bond" id="mol1bnd2" x1="12.65" x2=".97" y1="42.62" y2="40.56"/>
                  
            <line class="bond" id="mol1bnd3" x1="18.81" x2="25.77" y1="39.82" y2="31.54"/>
                  
            <line class="bond" id="mol1bnd4" x1="25.77" x2="12.57" y1="31.54" y2="23.91"/>
                  
            <line class="bond" id="mol1bnd5" x1="12.57" x2="12.56" y1="23.91" y2="8.66"/>
                  
            <line class="bond" id="mol1bnd6" x1="12.56" x2="25.76" y1="8.66" y2="1.04"/>
                  
            <line class="bond" id="mol1bnd7" x1="25.76" x2="38.97" y1="1.04" y2="8.67"/>
                  
            <line class="bond" id="mol1bnd8" x1="38.97" x2="38.97" y1="8.67" y2="23.92"/>
                  
            <line class="bond" id="mol1bnd9" x1="25.77" x2="38.97" y1="31.54" y2="23.92"/>
                  
            <line class="bond" id="mol1bnd10" x1="25.77" x2="35.57" y1="31.54" y2="43.21"/>
                  
            <line class="bond" id="mol1bnd11" x1="35.57" x2="47.26" y1="43.21" y2="41.15"/>
                  
            <line class="bond" id="mol1bnd12" x1="53.42" x2="60.37" y1="43.95" y2="52.24"/>
                  
            <g class="bond" id="mol1bnd13">
                        
                <line x1="61.76" x2="57.67" y1="52.0" y2="63.23"/>
                        
                <line x1="59.47" x2="55.38" y1="51.16" y2="62.39"/>
                      
                <line class="hi" stroke="#FF0D0D" x1="57.67" x2="59.715" y1="63.23" y2="57.614999999999995"/>
                <line class="hi" stroke="#FF0D0D" x1="55.38" x2="57.425" y1="62.39" y2="56.775"/>
            </g>
                  
            <line class="bond" id="mol1bnd14" x1="60.37" x2="75.38" y1="52.24" y2="49.6"/>
                  
            <g class="bond" id="mol1bnd15">
                        
                <line x1="80.6" x2="75.38" y1="35.27" y2="49.6"/>
                        
                <line x1="82.41" x2="78.15" y1="37.43" y2="49.11"/>
                      
            </g>
                  
            <line class="bond" id="mol1bnd16" x1="80.6" x2="95.61" y1="35.27" y2="32.62"/>
                  
            <g class="bond" id="mol1bnd17">
                        
                <line x1="105.41" x2="95.61" y1="44.29" y2="32.62"/>
                        
                <line x1="102.64" x2="94.65" y1="44.78" y2="35.26"/>
                      
            </g>
                  
            <line class="bond" id="mol1bnd18" x1="105.41" x2="100.19" y1="44.29" y2="58.62"/>
                  
            <g class="bond" id="mol1bnd19">
                        
                <line x1="85.18" x2="100.19" y1="61.27" y2="58.62"/>
                        
                <line x1="86.14" x2="98.38" y1="58.62" y2="56.46"/>
                      
            </g>
                  
            <line class="bond" id="mol1bnd20" x1="75.38" x2="85.18" y1="49.6" y2="61.27"/>
                  
            <line class="bond" id="mol1bnd21" x1="105.41" x2="117.19" y1="44.29" y2="42.21"/>
                  
            <line class="bond" id="mol1bnd22" x1="95.61" x2="99.53" y1="32.62" y2="21.84"/>
                  
            <path class="atom" d="M17.91 45.66h-.72l-2.62 -4.07h-.03q.01 .24 .03 .6q.02 .36 .02 .73v2.74h-.57v-4.9h.71l2.61 4.05h.03q-.01 -.11 -.02 -.33q-.01 -.22 -.02 -.48q-.01 -.26 -.01 -.48v-2.77h.58v4.9z" id="mol1atm2" stroke="none"/>
                  
            <g class="atom" id="mol1atm11">
                        
                <path d="M52.52 43.02h-.72l-2.62 -4.07h-.03q.01 .24 .03 .6q.02 .36 .02 .73v2.74h-.57v-4.9h.71l2.61 4.05h.03q-.01 -.11 -.02 -.33q-.01 -.22 -.02 -.48q-.01 -.26 -.01 -.48v-2.77h.58v4.9z" stroke="none"/>
                        
                <path d="M52.38 37.55h-.62v-2.29h-2.51v2.29h-.61v-4.9h.61v2.07h2.51v-2.07h.62v4.9z" stroke="none"/>
                      
            </g>
                  
            <path class="atom" d="M57.42 66.56q.0 .76 -.26 1.33q-.26 .57 -.76 .88q-.5 .32 -1.24 .32q-.76 .0 -1.26 -.32q-.51 -.32 -.76 -.89q-.24 -.57 -.24 -1.33q.0 -.75 .24 -1.31q.25 -.57 .76 -.88q.51 -.32 1.27 -.32q.73 .0 1.23 .32q.5 .31 .76 .88q.26 .57 .26 1.33zM53.55 66.56q.0 .92 .39 1.46q.39 .53 1.22 .53q.84 .0 1.22 -.53q.39 -.54 .39 -1.46q.0 -.93 -.39 -1.45q-.38 -.52 -1.21 -.52q-.83 .0 -1.23 .52q-.39 .52 -.39 1.45z" fill="#FF0D0D" id="mol1atm13" stroke="none"/>
                  
            <path class="atom" d="M120.91 39.67q-.79 .0 -1.24 .53q-.45 .52 -.45 1.45q.0 .91 .42 1.45q.42 .53 1.27 .53q.32 .0 .61 -.05q.29 -.06 .57 -.14v.54q-.27 .1 -.57 .15q-.29 .05 -.7 .05q-.74 .0 -1.25 -.31q-.5 -.31 -.75 -.88q-.25 -.57 -.25 -1.34q.0 -.74 .27 -1.31q.27 -.57 .8 -.88q.53 -.32 1.28 -.32q.78 .0 1.35 .29l-.24 .52q-.23 -.1 -.51 -.18q-.27 -.08 -.61 -.08zM123.67 44.09h-.6v-5.21h.6v5.21z" fill="#1FF01F" id="mol1atm20" stroke="none"/>
                  
            <path class="atom" d="M101.32 16.32q-.79 .0 -1.24 .53q-.45 .52 -.45 1.45q.0 .91 .42 1.45q.42 .53 1.27 .53q.32 .0 .61 -.05q.29 -.06 .57 -.14v.54q-.27 .1 -.57 .15q-.29 .05 -.7 .05q-.74 .0 -1.25 -.31q-.5 -.31 -.75 -.88q-.25 -.57 -.25 -1.34q.0 -.74 .27 -1.31q.27 -.57 .8 -.88q.53 -.32 1.28 -.32q.78 .0 1.35 .29l-.24 .52q-.23 -.1 -.51 -.18q-.27 -.08 -.61 -.08zM104.07 20.74h-.6v-5.21h.6v5.21z" fill="#1FF01F" id="mol1atm21" stroke="none"/>
                
            <line class="hi" id="mol1bnd1" stroke="#3050F8" x1="17.34" x2="19.259999999999998" y1="46.97" y2="52.25"/>
            <line class="hi" id="mol1bnd2" stroke="#3050F8" x1="12.65" x2="6.8100000000000005" y1="42.62" y2="41.59"/>
            <line class="hi" id="mol1bnd3" stroke="#3050F8" x1="18.81" x2="22.29" y1="39.82" y2="35.68"/>
            <line class="hi" id="mol1bnd11" stroke="#3050F8" x1="47.26" x2="41.415" y1="41.15" y2="42.18"/>
            <line class="hi" id="mol1bnd11" stroke="#3050F8" x1="47.26" x2="41.415" y1="41.15" y2="42.18"/>
            <line class="hi" id="mol1bnd12" stroke="#3050F8" x1="53.42" x2="56.894999999999996" y1="43.95" y2="48.095"/>
            <line class="hi" id="mol1bnd12" stroke="#3050F8" x1="53.42" x2="56.894999999999996" y1="43.95" y2="48.095"/>
            <line class="hi" id="mol1bnd21" stroke="#1FF01F" x1="117.19" x2="111.3" y1="42.21" y2="43.25"/>
            <line class="hi" id="mol1bnd22" stroke="#1FF01F" x1="99.53" x2="97.57" y1="21.84" y2="27.229999999999997"/>
        </g>
          
    </g>
    
</svg>
