<svg xmlns="http://www.w3.org/2000/svg" xmlns:xlink="http://www.w3.org/1999/xlink" height="70.55mm" version="1.2" viewBox="0 0 129.13 70.55" width="129.13mm">
      
    <desc>Generated by the Chemistry Development Kit (http://github.com/cdk)</desc>
      
    <g fill="#FF0D0D" stroke="#000000" stroke-linecap="round" stroke-linejoin="round" stroke-width=".7">
            
        <rect fill="#FFFFFF" height="71.0" stroke="none" width="130.0" x=".0" y=".0"/>
            
        <g class="mol" id="mol1">
                  
            <line class="bond" id="mol1bnd1" x1="48.91" x2="58.82" y1="69.51" y2="63.78"/>
                  
            <line class="bond" id="mol1bnd2" x1="62.1" x2="62.1" y1="57.96" y2="46.64"/>
                  
            <g class="bond" id="mol1bnd3">
                        
                <line x1="48.9" x2="62.1" y1="39.02" y2="46.64"/>
                        
                <line x1="51.34" x2="62.1" y1="37.62" y2="43.83"/>
                      
            </g>
                  
            <line class="bond" id="mol1bnd4" x1="48.9" x2="48.91" y1="39.02" y2="23.78"/>
                  
            <g class="bond" id="mol1bnd5">
                        
                <line x1="62.11" x2="48.91" y1="16.15" y2="23.78"/>
                        
                <line x1="62.11" x2="51.34" y1="18.96" y2="25.18"/>
                      
            </g>
                  
            <line class="bond" id="mol1bnd6" x1="62.11" x2="75.31" y1="16.15" y2="23.77"/>
                  
            <g class="bond" id="mol1bnd7">
                        
                <line x1="75.3" x2="75.31" y1="39.02" y2="23.77"/>
                        
                <line x1="72.86" x2="72.87" y1="37.61" y2="25.18"/>
                      
            </g>
                  
            <line class="bond" id="mol1bnd8" x1="62.1" x2="75.3" y1="46.64" y2="39.02"/>
                  
            <line class="bond" id="mol1bnd9" x1="75.3" x2="85.22" y1="39.02" y2="44.74"/>
                  
            <line class="bond" id="mol1bnd10" x1="91.78" x2="101.7" y1="44.74" y2="39.02"/>
                  
            <line class="bond" id="mol1bnd11" x1="101.7" x2="114.9" y1="39.02" y2="46.64"/>
                  
            <g class="bond" id="mol1bnd12">
                        
                <line x1="114.9" x2="128.1" y1="46.64" y2="39.02"/>
                        
                <line x1="114.9" x2="126.88" y1="43.82" y2="36.9"/>
                      
            </g>
                  
            <line class="bond" id="mol1bnd13" x1="75.31" x2="85.23" y1="23.77" y2="18.04"/>
                  
            <line class="bond" id="mol1bnd14" x1="88.51" x2="88.51" y1="12.23" y2=".91"/>
                  
            <line class="bond" id="mol1bnd15" x1="48.91" x2="35.71" y1="23.78" y2="16.16"/>
                  
            <line class="bond" id="mol1bnd16" x1="35.71" x2="22.51" y1="16.16" y2="23.78"/>
                  
            <line class="bond" id="mol1bnd17" x1="22.51" x2="12.46" y1="23.78" y2="17.98"/>
                  
            <path class="atom" d="M64.36 61.88q.0 .76 -.26 1.33q-.26 .57 -.76 .88q-.5 .32 -1.24 .32q-.76 .0 -1.26 -.32q-.51 -.32 -.76 -.89q-.24 -.57 -.24 -1.33q.0 -.75 .24 -1.31q.25 -.57 .76 -.88q.51 -.32 1.27 -.32q.73 .0 1.23 .32q.5 .31 .76 .88q.26 .57 .26 1.33zM60.5 61.88q.0 .92 .39 1.46q.39 .53 1.22 .53q.84 .0 1.22 -.53q.39 -.54 .39 -1.46q.0 -.93 -.39 -1.45q-.38 -.52 -1.21 -.52q-.83 .0 -1.23 .52q-.39 .52 -.39 1.45z" id="mol1atm2" stroke="none"/>
                  
            <path class="atom" d="M90.76 46.63q.0 .76 -.26 1.33q-.26 .57 -.76 .88q-.5 .32 -1.24 .32q-.76 .0 -1.26 -.32q-.51 -.32 -.76 -.89q-.24 -.57 -.24 -1.33q.0 -.75 .24 -1.31q.25 -.57 .76 -.88q.51 -.32 1.27 -.32q.73 .0 1.23 .32q.5 .31 .76 .88q.26 .57 .26 1.33zM86.9 46.63q.0 .92 .39 1.46q.39 .53 1.22 .53q.84 .0 1.22 -.53q.39 -.54 .39 -1.46q.0 -.93 -.39 -1.45q-.38 -.52 -1.21 -.52q-.83 .0 -1.23 .52q-.39 .52 -.39 1.45z" id="mol1atm9" stroke="none"/>
                  
            <path class="atom" d="M90.77 16.15q.0 .76 -.26 1.33q-.26 .57 -.76 .88q-.5 .32 -1.24 .32q-.76 .0 -1.26 -.32q-.51 -.32 -.76 -.89q-.24 -.57 -.24 -1.33q.0 -.75 .24 -1.31q.25 -.57 .76 -.88q.51 -.32 1.27 -.32q.73 .0 1.23 .32q.5 .31 .76 .88q.26 .57 .26 1.33zM86.9 16.15q.0 .92 .39 1.46q.39 .53 1.22 .53q.84 .0 1.22 -.53q.39 -.54 .39 -1.46q.0 -.93 -.39 -1.45q-.38 -.52 -1.21 -.52q-.83 .0 -1.23 .52q-.39 .52 -.39 1.45z" id="mol1atm13" stroke="none"/>
                  
            <g class="atom" id="mol1atm17">
                        
                <path d="M11.25 18.61h-.72l-2.62 -4.07h-.03q.01 .24 .03 .6q.02 .36 .02 .73v2.74h-.57v-4.9h.71l2.61 4.05h.03q-.01 -.11 -.02 -.33q-.01 -.22 -.02 -.48q-.01 -.26 -.01 -.48v-2.77h.58v4.9z" fill="#3050F8" stroke="none"/>
                        
                <path d="M4.3 18.61h-.62v-2.29h-2.51v2.29h-.61v-4.9h.61v2.07h2.51v-2.07h.62v4.9z" fill="#3050F8" stroke="none"/>
                        
                <path d="M6.81 20.1h-1.94v-.3l.77 -.78q.22 -.22 .37 -.39q.15 -.18 .23 -.34q.08 -.17 .08 -.36q.0 -.24 -.15 -.37q-.14 -.13 -.37 -.13q-.21 .0 -.38 .08q-.16 .08 -.33 .21l-.19 -.24q.17 -.15 .39 -.25q.23 -.1 .51 -.1q.41 .0 .65 .21q.24 .21 .24 .58q.0 .23 -.1 .43q-.09 .2 -.26 .4q-.17 .2 -.39 .42l-.61 .6v.02h1.49v.33z" fill="#3050F8" stroke="none"/>
                      
            </g>
                
            <line class="hi" id="mol1bnd1" stroke="#FF0D0D" x1="58.82" x2="53.864999999999995" y1="63.78" y2="66.64500000000001"/>
            <line class="hi" id="mol1bnd2" stroke="#FF0D0D" x1="62.1" x2="62.1" y1="57.96" y2="52.3"/>
            <line class="hi" id="mol1bnd9" stroke="#FF0D0D" x1="85.22" x2="80.25999999999999" y1="44.74" y2="41.88"/>
            <line class="hi" id="mol1bnd10" stroke="#FF0D0D" x1="91.78" x2="96.74000000000001" y1="44.74" y2="41.88"/>
            <line class="hi" id="mol1bnd13" stroke="#FF0D0D" x1="85.23" x2="80.27000000000001" y1="18.04" y2="20.905"/>
            <line class="hi" id="mol1bnd14" stroke="#FF0D0D" x1="88.51" x2="88.51" y1="12.23" y2="6.57"/>
            <line class="hi" id="mol1bnd17" stroke="#3050F8" x1="12.46" x2="17.485" y1="17.98" y2="20.880000000000003"/>
            <line class="hi" id="mol1bnd17" stroke="#3050F8" x1="12.46" x2="17.485" y1="17.98" y2="20.880000000000003"/>
        </g>
          
    </g>
    
</svg>
