<svg xmlns="http://www.w3.org/2000/svg" xmlns:xlink="http://www.w3.org/1999/xlink" height="73.53mm" version="1.2" viewBox="0 0 101.56 73.53" width="101.56mm">
      
    <desc>Generated by the Chemistry Development Kit (http://github.com/cdk)</desc>
      
    <g fill="#3050F8" stroke="#000000" stroke-linecap="round" stroke-linejoin="round" stroke-width=".7">
            
        <rect fill="#FFFFFF" height="74.0" stroke="none" width="102.0" x=".0" y=".0"/>
            
        <g class="mol" id="mol1">
                  
            <line class="bond" id="mol1bnd1" x1="14.47" x2="14.69" y1="66.04" y2="50.8"/>
                  
            <g class="bond" id="mol1bnd2">
                        
                <line x1="5.56" x2="14.69" y1="43.95" y2="50.8"/>
                        
                <line x1="7.02" x2="14.74" y1="42.0" y2="47.79"/>
                      
                <line class="hi" stroke="#3050F8" x1="5.56" x2="10.125" y1="43.95" y2="47.375"/>
                <line class="hi" stroke="#3050F8" x1="7.02" x2="10.879999999999999" y1="42.0" y2="44.894999999999996"/>
            </g>
                  
            <line class="bond" id="mol1bnd3" x1="3.79" x2="6.14" y1="37.88" y2="31.01"/>
                  
            <g class="bond" id="mol1bnd4">
                        
                <line x1="22.66" x2="10.77" y1="27.47" y2="27.29"/>
                        
                <line x1="20.86" x2="10.73" y1="29.88" y2="29.73"/>
                      
                <line class="hi" stroke="#3050F8" x1="10.77" x2="16.715" y1="27.29" y2="27.38"/>
                <line class="hi" stroke="#3050F8" x1="10.73" x2="15.795" y1="29.73" y2="29.805"/>
            </g>
                  
            <line class="bond" id="mol1bnd5" x1="22.66" x2="25.99" y1="27.47" y2="38.24"/>
                  
            <line class="bond" id="mol1bnd6" x1="14.69" x2="24.07" y1="50.8" y2="44.2"/>
                  
            <line class="bond" id="mol1bnd7" x1="30.4" x2="41.34" y1="43.3" y2="47.6"/>
                  
            <g class="bond" id="mol1bnd8">
                        
                <line x1="54.54" x2="41.34" y1="39.98" y2="47.6"/>
                        
                <line x1="54.54" x2="43.78" y1="42.79" y2="49.0"/>
                      
            </g>
                  
            <line class="bond" id="mol1bnd9" x1="54.54" x2="67.74" y1="39.98" y2="47.6"/>
                  
            <g class="bond" id="mol1bnd10">
                        
                <line x1="67.74" x2="67.74" y1="62.84" y2="47.6"/>
                        
                <line x1="65.3" x2="65.3" y1="61.43" y2="49.0"/>
                      
            </g>
                  
            <line class="bond" id="mol1bnd11" x1="67.74" x2="54.54" y1="62.84" y2="70.46"/>
                  
            <g class="bond" id="mol1bnd12">
                        
                <line x1="41.34" x2="54.54" y1="62.84" y2="70.46"/>
                        
                <line x1="43.78" x2="54.54" y1="61.43" y2="67.64"/>
                      
            </g>
                  
            <line class="bond" id="mol1bnd13" x1="41.34" x2="41.34" y1="47.6" y2="62.84"/>
                  
            <line class="bond" id="mol1bnd14" x1="67.74" x2="77.99" y1="62.84" y2="68.76"/>
                  
            <line class="bond" id="mol1bnd15" x1="54.54" x2="56.81" y1="39.98" y2="24.91"/>
                  
            <g class="bond" id="mol1bnd16">
                        
                <line x1="56.81" x2="49.34" y1="24.91" y2="16.85"/>
                        
                <line x1="54.23" x2="47.55" y1="25.7" y2="18.51"/>
                      
                <line class="hi" stroke="#3050F8" x1="49.34" x2="53.075" y1="16.85" y2="20.880000000000003"/>
                <line class="hi" stroke="#3050F8" x1="47.55" x2="50.89" y1="18.51" y2="22.105"/>
            </g>
                  
            <line class="bond" id="mol1bnd17" x1="43.11" x2="31.25" y1="13.98" y2="14.87"/>
                  
            <line class="bond" id="mol1bnd18" x1="22.66" x2="31.25" y1="27.47" y2="14.87"/>
                  
            <line class="bond" id="mol1bnd19" x1="56.81" x2="71.38" y1="24.91" y2="20.41"/>
                  
            <g class="bond" id="mol1bnd20">
                        
                <line x1="74.76" x2="71.38" y1="5.55" y2="20.41"/>
                        
                <line x1="76.83" x2="74.07" y1="7.46" y2="19.58"/>
                      
            </g>
                  
            <line class="bond" id="mol1bnd21" x1="74.76" x2="89.33" y1="5.55" y2="1.05"/>
                  
            <g class="bond" id="mol1bnd22">
                        
                <line x1="100.5" x2="89.33" y1="11.43" y2="1.05"/>
                        
                <line x1="97.81" x2="88.7" y1="12.26" y2="3.8"/>
                      
            </g>
                  
            <line class="bond" id="mol1bnd23" x1="100.5" x2="97.11" y1="11.43" y2="26.3"/>
                  
            <g class="bond" id="mol1bnd24">
                        
                <line x1="82.55" x2="97.11" y1="30.79" y2="26.3"/>
                        
                <line x1="83.18" x2="95.05" y1="28.04" y2="24.38"/>
                      
            </g>
                  
            <line class="bond" id="mol1bnd25" x1="71.38" x2="82.55" y1="20.41" y2="30.79"/>
                  
            <path class="atom" d="M4.44 44.11h-.72l-2.62 -4.07h-.03q.01 .24 .03 .6q.02 .36 .02 .73v2.74h-.57v-4.9h.71l2.61 4.05h.03q-.01 -.11 -.02 -.33q-.01 -.22 -.02 -.48q-.01 -.26 -.01 -.48v-2.77h.58v4.9z" id="mol1atm3" stroke="none"/>
                  
            <path class="atom" d="M9.37 29.69h-.72l-2.62 -4.07h-.03q.01 .24 .03 .6q.02 .36 .02 .73v2.74h-.57v-4.9h.71l2.61 4.05h.03q-.01 -.11 -.02 -.33q-.01 -.22 -.02 -.48q-.01 -.26 -.01 -.48v-2.77h.58v4.9z" id="mol1atm4" stroke="none"/>
                  
            <path class="atom" d="M29.1 44.48h-.72l-2.62 -4.07h-.03q.01 .24 .03 .6q.02 .36 .02 .73v2.74h-.57v-4.9h.71l2.61 4.05h.03q-.01 -.11 -.02 -.33q-.01 -.22 -.02 -.48q-.01 -.26 -.01 -.48v-2.77h.58v4.9z" id="mol1atm6" stroke="none"/>
                  
            <path class="atom" d="M81.43 68.48q-.79 .0 -1.24 .53q-.45 .52 -.45 1.45q.0 .91 .42 1.45q.42 .53 1.27 .53q.32 .0 .61 -.05q.29 -.06 .57 -.14v.54q-.27 .1 -.57 .15q-.29 .05 -.7 .05q-.74 .0 -1.25 -.31q-.5 -.31 -.75 -.88q-.25 -.57 -.25 -1.34q.0 -.74 .27 -1.31q.27 -.57 .8 -.88q.53 -.32 1.28 -.32q.78 .0 1.35 .29l-.24 .52q-.23 -.1 -.51 -.18q-.27 -.08 -.61 -.08zM84.19 72.9h-.6v-5.21h.6v5.21z" fill="#1FF01F" id="mol1atm13" stroke="none"/>
                  
            <path class="atom" d="M48.39 16.18h-.72l-2.62 -4.07h-.03q.01 .24 .03 .6q.02 .36 .02 .73v2.74h-.57v-4.9h.71l2.61 4.05h.03q-.01 -.11 -.02 -.33q-.01 -.22 -.02 -.48q-.01 -.26 -.01 -.48v-2.77h.58v4.9z" id="mol1atm15" stroke="none"/>
                
            <line class="hi" id="mol1bnd3" stroke="#3050F8" x1="3.79" x2="4.965" y1="37.88" y2="34.445"/>
            <line class="hi" id="mol1bnd3" stroke="#3050F8" x1="6.14" x2="4.965" y1="31.01" y2="34.445"/>
            <line class="hi" id="mol1bnd5" stroke="#3050F8" x1="25.99" x2="24.325" y1="38.24" y2="32.855000000000004"/>
            <line class="hi" id="mol1bnd6" stroke="#3050F8" x1="24.07" x2="19.38" y1="44.2" y2="47.5"/>
            <line class="hi" id="mol1bnd7" stroke="#3050F8" x1="30.4" x2="35.870000000000005" y1="43.3" y2="45.45"/>
            <line class="hi" id="mol1bnd14" stroke="#1FF01F" x1="77.99" x2="72.865" y1="68.76" y2="65.80000000000001"/>
            <line class="hi" id="mol1bnd17" stroke="#3050F8" x1="43.11" x2="37.18" y1="13.98" y2="14.425"/>
        </g>
          
    </g>
    
</svg>
