<svg xmlns="http://www.w3.org/2000/svg" xmlns:xlink="http://www.w3.org/1999/xlink" height="112.43mm" version="1.2" viewBox="0 0 121.09 112.43" width="121.09mm">
      
    <desc>Generated by the Chemistry Development Kit (http://github.com/cdk)</desc>
      
    <g fill="#3050F8" stroke="#000000" stroke-linecap="round" stroke-linejoin="round" stroke-width=".7">
            
        <rect fill="#FFFFFF" height="113.0" stroke="none" width="122.0" x=".0" y=".0"/>
            
        <g class="mol" id="mol1">
                  
            <line class="bond" id="mol1bnd1" x1="62.03" x2="48.92" y1="94.11" y2="86.49"/>
                  
            <line class="bond" id="mol1bnd2" x1="48.92" x2="35.72" y1="86.49" y2="94.11"/>
                  
            <g class="bond" id="mol1bnd3">
                        
                <line x1="36.94" x2="36.94" y1="93.41" y2="105.43"/>
                        
                <line x1="34.5" x2="34.5" y1="93.41" y2="105.43"/>
                      
                <line class="hi" stroke="#FF0D0D" x1="36.94" x2="36.94" y1="105.43" y2="99.42"/>
                <line class="hi" stroke="#FF0D0D" x1="34.5" x2="34.5" y1="105.43" y2="99.42"/>
            </g>
                  
            <line class="bond" id="mol1bnd4" x1="35.72" x2="25.66" y1="94.11" y2="88.31"/>
                  
            <line class="bond" id="mol1bnd5" x1="22.51" x2="22.51" y1="82.64" y2="71.25"/>
                  
            <line class="bond" id="mol1bnd6" x1="22.51" x2="35.72" y1="71.25" y2="63.63"/>
                  
            <g class="bond" id="mol1bnd7">
                        
                <line x1="34.5" x2="34.5" y1="64.34" y2="52.31"/>
                        
                <line x1="36.94" x2="36.94" y1="64.34" y2="52.31"/>
                      
                <line class="hi" stroke="#FF0D0D" x1="34.5" x2="34.5" y1="52.31" y2="58.325"/>
                <line class="hi" stroke="#FF0D0D" x1="36.94" x2="36.94" y1="52.31" y2="58.325"/>
            </g>
                  
            <line class="bond" id="mol1bnd8" x1="35.72" x2="45.77" y1="63.63" y2="69.43"/>
                  
            <g class="bond" id="mol1bnd9">
                        
                <line stroke="#000000" x1="48.57" x2="49.27" y1="86.49" y2="86.49"/>
                        
                <line stroke="#3050F8" x1="48.32" x2="49.52" y1="84.32" y2="84.32"/>
                        
                <line stroke="#3050F8" x1="48.07" x2="49.77" y1="82.14" y2="82.14"/>
                        
                <line stroke="#3050F8" x1="47.82" x2="50.02" y1="79.96" y2="79.96"/>
                        
                <line stroke="#3050F8" x1="47.57" x2="50.27" y1="77.78" y2="77.78"/>
                        
                <line stroke="#3050F8" x1="47.32" x2="50.52" y1="75.61" y2="75.61"/>
                      
            </g>
                  
            <line class="bond" id="mol1bnd10" x1="52.08" x2="62.03" y1="69.42" y2="63.63"/>
                  
            <line class="bond" id="mol1bnd11" x1="62.03" x2="75.24" y1="63.63" y2="71.25"/>
                  
            <g class="bond" id="mol1bnd12">
                        
                <line x1="75.24" x2="75.24" y1="86.49" y2="71.25"/>
                        
                <line x1="72.8" x2="72.8" y1="85.08" y2="72.66"/>
                      
            </g>
                  
            <line class="bond" id="mol1bnd13" x1="62.03" x2="75.24" y1="94.11" y2="86.49"/>
                  
            <line class="bond" id="mol1bnd14" x1="75.24" x2="89.77" y1="86.49" y2="91.17"/>
                  
            <g class="bond" id="mol1bnd15">
                        
                <line x1="89.77" x2="95.97" y1="91.17" y2="105.09"/>
                        
                <line x1="92.57" x2="97.62" y1="91.46" y2="102.81"/>
                      
            </g>
                  
            <line class="bond" id="mol1bnd16" x1="95.97" x2="111.1" y1="105.09" y2="106.71"/>
                  
            <g class="bond" id="mol1bnd17">
                        
                <line x1="111.1" x2="120.04" y1="106.71" y2="94.32"/>
                        
                <line x1="109.96" x2="117.25" y1="104.14" y2="94.03"/>
                      
            </g>
                  
            <line class="bond" id="mol1bnd18" x1="120.04" x2="113.85" y1="94.32" y2="80.4"/>
                  
            <g class="bond" id="mol1bnd19">
                        
                <line x1="113.85" x2="98.71" y1="80.4" y2="78.87"/>
                        
                <line x1="112.2" x2="99.86" y1="82.68" y2="81.44"/>
                      
            </g>
                  
            <line class="bond" id="mol1bnd20" x1="89.77" x2="98.71" y1="91.17" y2="78.87"/>
                  
            <line class="bond" id="mol1bnd21" x1="98.71" x2="92.35" y1="78.87" y2="70.06"/>
                  
            <line class="bond" id="mol1bnd22" x1="75.24" x2="86.5" y1="71.25" y2="67.55"/>
                  
            <g class="bond" id="mol1bnd23">
                        
                <line x1="61.68" x2="62.38" y1="63.63" y2="63.63"/>
                        
                <line x1="61.39" x2="62.67" y1="61.09" y2="61.09"/>
                        
                <line x1="61.09" x2="62.96" y1="58.55" y2="58.55"/>
                        
                <line x1="60.79" x2="63.24" y1="56.01" y2="56.01"/>
                        
                <line x1="60.5" x2="63.53" y1="53.48" y2="53.47"/>
                        
                <line x1="60.2" x2="63.82" y1="50.94" y2="50.93"/>
                        
                <line x1="59.91" x2="64.11" y1="48.4" y2="48.39"/>
                      
            </g>
                  
            <g class="bond" id="mol1bnd24">
                        
                <line x1="62.01" x2="75.39" y1="48.39" y2="40.62"/>
                        
                <line x1="62.0" x2="72.94" y1="45.58" y2="39.23"/>
                      
            </g>
                  
            <line class="bond" id="mol1bnd25" x1="75.39" x2="75.24" y1="40.62" y2="25.41"/>
                  
            <g class="bond" id="mol1bnd26">
                        
                <line x1="75.24" x2="61.86" y1="25.41" y2="17.71"/>
                        
                <line x1="72.82" x2="61.85" y1="26.83" y2="20.51"/>
                      
            </g>
                  
            <line class="bond" id="mol1bnd27" x1="61.86" x2="48.62" y1="17.71" y2="25.21"/>
                  
            <g class="bond" id="mol1bnd28">
                        
                <line x1="48.62" x2="48.62" y1="25.21" y2="40.69"/>
                        
                <line x1="51.06" x2="51.06" y1="26.63" y2="39.28"/>
                      
            </g>
                  
            <line class="bond" id="mol1bnd29" x1="62.01" x2="48.62" y1="48.39" y2="40.69"/>
                  
            <line class="bond" id="mol1bnd30" x1="61.86" x2="64.22" y1="17.71" y2="7.04"/>
                  
            <line class="bond" id="mol1bnd31" x1="68.73" x2="79.32" y1="2.61" y2="1.03"/>
                  
            <line class="bond" id="mol1bnd32" x1="79.32" x2="84.59" y1="1.03" y2="11.53"/>
                  
            <line class="bond" id="mol1bnd33" x1="75.24" x2="83.5" y1="25.41" y2="17.72"/>
                  
            <line class="bond" id="mol1bnd34" x1="19.36" x2="12.46" y1="88.31" y2="92.29"/>
                  
            <path class="atom" d="M37.98 109.35q.0 .76 -.26 1.33q-.26 .57 -.76 .88q-.5 .32 -1.24 .32q-.76 .0 -1.26 -.32q-.51 -.32 -.76 -.89q-.24 -.57 -.24 -1.33q.0 -.75 .24 -1.31q.25 -.57 .76 -.88q.51 -.32 1.27 -.32q.73 .0 1.23 .32q.5 .31 .76 .88q.26 .57 .26 1.33zM34.11 109.35q.0 .92 .39 1.46q.39 .53 1.22 .53q.84 .0 1.22 -.53q.39 -.54 .39 -1.46q.0 -.93 -.39 -1.45q-.38 -.52 -1.21 -.52q-.83 .0 -1.23 .52q-.39 .52 -.39 1.45z" fill="#FF0D0D" id="mol1atm4" stroke="none"/>
                  
            <path class="atom" d="M24.45 88.94h-.72l-2.62 -4.07h-.03q.01 .24 .03 .6q.02 .36 .02 .73v2.74h-.57v-4.9h.71l2.61 4.05h.03q-.01 -.11 -.02 -.33q-.01 -.22 -.02 -.48q-.01 -.26 -.01 -.48v-2.77h.58v4.9z" id="mol1atm5" stroke="none"/>
                  
            <path class="atom" d="M37.98 48.39q.0 .76 -.26 1.33q-.26 .57 -.76 .88q-.5 .32 -1.24 .32q-.76 .0 -1.26 -.32q-.51 -.32 -.76 -.89q-.24 -.57 -.24 -1.33q.0 -.75 .24 -1.31q.25 -.57 .76 -.88q.51 -.32 1.27 -.32q.73 .0 1.23 .32q.5 .31 .76 .88q.26 .57 .26 1.33zM34.11 48.39q.0 .92 .39 1.46q.39 .53 1.22 .53q.84 .0 1.22 -.53q.39 -.54 .39 -1.46q.0 -.93 -.39 -1.45q-.38 -.52 -1.21 -.52q-.83 .0 -1.23 .52q-.39 .52 -.39 1.45z" fill="#FF0D0D" id="mol1atm8" stroke="none"/>
                  
            <path class="atom" d="M50.87 73.7h-.72l-2.62 -4.07h-.03q.01 .24 .03 .6q.02 .36 .02 .73v2.74h-.57v-4.9h.71l2.61 4.05h.03q-.01 -.11 -.02 -.33q-.01 -.22 -.02 -.48q-.01 -.26 -.01 -.48v-2.77h.58v4.9z" id="mol1atm9" stroke="none"/>
                  
            <g class="atom" id="mol1atm19">
                        
                <path d="M91.71 68.93h-.72l-2.62 -4.07h-.03q.01 .24 .03 .6q.02 .36 .02 .73v2.74h-.57v-4.9h.71l2.61 4.05h.03q-.01 -.11 -.02 -.33q-.01 -.22 -.02 -.48q-.01 -.26 -.01 -.48v-2.77h.58v4.9z" stroke="none"/>
                        
                <path d="M91.57 63.47h-.62v-2.29h-2.51v2.29h-.61v-4.9h.61v2.07h2.51v-2.07h.62v4.9z" stroke="none"/>
                      
            </g>
                  
            <path class="atom" d="M67.34 3.15q.0 .76 -.26 1.33q-.26 .57 -.76 .88q-.5 .32 -1.24 .32q-.76 .0 -1.26 -.32q-.51 -.32 -.76 -.89q-.24 -.57 -.24 -1.33q.0 -.75 .24 -1.31q.25 -.57 .76 -.88q.51 -.32 1.27 -.32q.73 .0 1.23 .32q.5 .31 .76 .88q.26 .57 .26 1.33zM63.48 3.15q.0 .92 .39 1.46q.39 .53 1.22 .53q.84 .0 1.22 -.53q.39 -.54 .39 -1.46q.0 -.93 -.39 -1.45q-.38 -.52 -1.21 -.52q-.83 .0 -1.23 .52q-.39 .52 -.39 1.45z" fill="#FF0D0D" id="mol1atm26" stroke="none"/>
                  
            <path class="atom" d="M88.62 15.05q.0 .76 -.26 1.33q-.26 .57 -.76 .88q-.5 .32 -1.24 .32q-.76 .0 -1.26 -.32q-.51 -.32 -.76 -.89q-.24 -.57 -.24 -1.33q.0 -.75 .24 -1.31q.25 -.57 .76 -.88q.51 -.32 1.27 -.32q.73 .0 1.23 .32q.5 .31 .76 .88q.26 .57 .26 1.33zM84.76 15.05q.0 .92 .39 1.46q.39 .53 1.22 .53q.84 .0 1.22 -.53q.39 -.54 .39 -1.46q.0 -.93 -.39 -1.45q-.38 -.52 -1.21 -.52q-.83 .0 -1.23 .52q-.39 .52 -.39 1.45z" fill="#FF0D0D" id="mol1atm28" stroke="none"/>
                  
            <g class="atom" id="mol1atm29">
                        
                <path d="M11.25 96.56h-.72l-2.62 -4.07h-.03q.01 .24 .03 .6q.02 .36 .02 .73v2.74h-.57v-4.9h.71l2.61 4.05h.03q-.01 -.11 -.02 -.33q-.01 -.22 -.02 -.48q-.01 -.26 -.01 -.48v-2.77h.58v4.9z" stroke="none"/>
                        
                <path d="M4.3 96.56h-.62v-2.29h-2.51v2.29h-.61v-4.9h.61v2.07h2.51v-2.07h.62v4.9z" stroke="none"/>
                        
                <path d="M6.81 98.05h-1.94v-.3l.77 -.78q.22 -.22 .37 -.39q.15 -.18 .23 -.34q.08 -.17 .08 -.36q.0 -.24 -.15 -.37q-.14 -.13 -.37 -.13q-.21 .0 -.38 .08q-.16 .08 -.33 .21l-.19 -.24q.17 -.15 .39 -.25q.23 -.1 .51 -.1q.41 .0 .65 .21q.24 .21 .24 .58q.0 .23 -.1 .43q-.09 .2 -.26 .4q-.17 .2 -.39 .42l-.61 .6v.02h1.49v.33z" stroke="none"/>
                      
            </g>
                
            <line class="hi" id="mol1bnd4" stroke="#3050F8" x1="25.66" x2="30.689999999999998" y1="88.31" y2="91.21000000000001"/>
            <line class="hi" id="mol1bnd5" stroke="#3050F8" x1="22.51" x2="22.51" y1="82.64" y2="76.945"/>
            <line class="hi" id="mol1bnd8" stroke="#3050F8" x1="45.77" x2="40.745000000000005" y1="69.43" y2="66.53"/>
            <line class="hi" id="mol1bnd10" stroke="#3050F8" x1="52.08" x2="57.055" y1="69.42" y2="66.525"/>
            <line class="hi" id="mol1bnd21" stroke="#3050F8" x1="92.35" x2="95.53" y1="70.06" y2="74.465"/>
            <line class="hi" id="mol1bnd21" stroke="#3050F8" x1="92.35" x2="95.53" y1="70.06" y2="74.465"/>
            <line class="hi" id="mol1bnd22" stroke="#3050F8" x1="86.5" x2="80.87" y1="67.55" y2="69.4"/>
            <line class="hi" id="mol1bnd22" stroke="#3050F8" x1="86.5" x2="80.87" y1="67.55" y2="69.4"/>
            <line class="hi" id="mol1bnd30" stroke="#FF0D0D" x1="64.22" x2="63.04" y1="7.039999999999999" y2="12.375"/>
            <line class="hi" id="mol1bnd31" stroke="#FF0D0D" x1="68.73" x2="74.025" y1="2.61" y2="1.8199999999999998"/>
            <line class="hi" id="mol1bnd32" stroke="#FF0D0D" x1="84.59" x2="81.955" y1="11.53" y2="6.279999999999999"/>
            <line class="hi" id="mol1bnd33" stroke="#FF0D0D" x1="83.5" x2="79.37" y1="17.72" y2="21.564999999999998"/>
            <line class="hi" id="mol1bnd34" stroke="#3050F8" x1="19.36" x2="15.91" y1="88.31" y2="90.30000000000001"/>
            <line class="hi" id="mol1bnd34" stroke="#3050F8" x1="12.46" x2="15.91" y1="92.29" y2="90.30000000000001"/>
        </g>
          
    </g>
    
</svg>
