<svg xmlns="http://www.w3.org/2000/svg" xmlns:xlink="http://www.w3.org/1999/xlink" height="64.66mm" version="1.2" viewBox="0 0 135.84 64.66" width="135.84mm">
      
    <desc>Generated by the Chemistry Development Kit (http://github.com/cdk)</desc>
      
    <g fill="#3050F8" stroke="#000000" stroke-linecap="round" stroke-linejoin="round" stroke-width=".7">
            
        <rect fill="#FFFFFF" height="65.0" stroke="none" width="136.0" x=".0" y=".0"/>
            
        <g class="mol" id="mol1">
                  
            <line class="bond" id="mol1bnd1" x1="65.85" x2="75.64" y1="63.61" y2="51.94"/>
                  
            <line class="bond" id="mol1bnd2" x1="75.64" x2="70.43" y1="51.94" y2="37.62"/>
                  
            <line class="bond" id="mol1bnd3" x1="70.43" x2="80.23" y1="37.62" y2="25.94"/>
                  
            <line class="bond" id="mol1bnd4" x1="80.23" x2="90.02" y1="25.94" y2="37.62"/>
                  
            <line class="bond" id="mol1bnd5" x1="80.23" x2="93.43" y1="25.94" y2="18.32"/>
                  
            <line class="bond" id="mol1bnd6" x1="93.43" x2="103.34" y1="18.32" y2="24.05"/>
                  
            <line class="bond" id="mol1bnd7" x1="109.9" x2="119.82" y1="24.05" y2="18.32"/>
                  
            <g class="bond" id="mol1bnd8">
                        
                <line x1="119.82" x2="130.35" y1="16.91" y2="22.99"/>
                        
                <line x1="118.6" x2="129.13" y1="19.03" y2="25.1"/>
                      
                <line class="hi" stroke="#FF0D0D" x1="130.35" x2="125.085" y1="22.99" y2="19.95"/>
                <line class="hi" stroke="#FF0D0D" x1="129.13" x2="123.865" y1="25.1" y2="22.065"/>
            </g>
                  
            <line class="bond" id="mol1bnd9" x1="119.82" x2="119.82" y1="18.32" y2="7.26"/>
                  
            <line class="bond" id="mol1bnd10" x1="80.23" x2="67.03" y1="25.94" y2="18.32"/>
                  
            <line class="bond" id="mol1bnd11" x1="67.03" x2="57.11" y1="18.32" y2="24.05"/>
                  
            <line class="bond" id="mol1bnd12" x1="50.55" x2="40.63" y1="24.05" y2="18.32"/>
                  
            <g class="bond" id="mol1bnd13">
                        
                <line x1="39.41" x2="39.41" y1="19.03" y2="7.0"/>
                        
                <line x1="41.85" x2="41.85" y1="19.03" y2="7.0"/>
                      
                <line class="hi" stroke="#FF0D0D" x1="39.41" x2="39.41" y1="7.0" y2="13.015"/>
                <line class="hi" stroke="#FF0D0D" x1="41.85" x2="41.85" y1="7.0" y2="13.015"/>
            </g>
                  
            <line class="bond" id="mol1bnd14" x1="40.63" x2="30.59" y1="18.32" y2="24.12"/>
                  
            <line class="bond" id="mol1bnd15" x1="24.28" x2="14.24" y1="24.12" y2="18.32"/>
                  
            <line class="bond" id="mol1bnd16" x1="14.24" x2="1.04" y1="18.32" y2="25.94"/>
                  
            <line class="bond" id="mol1bnd17" x1="14.24" x2="14.24" y1="18.32" y2="3.08"/>
                  
            <path class="atom" d="M108.88 25.94q.0 .76 -.26 1.33q-.26 .57 -.76 .88q-.5 .32 -1.24 .32q-.76 .0 -1.26 -.32q-.51 -.32 -.76 -.89q-.24 -.57 -.24 -1.33q.0 -.75 .24 -1.31q.25 -.57 .76 -.88q.51 -.32 1.27 -.32q.73 .0 1.23 .32q.5 .31 .76 .88q.26 .57 .26 1.33zM105.02 25.94q.0 .92 .39 1.46q.39 .53 1.22 .53q.84 .0 1.22 -.53q.39 -.54 .39 -1.46q.0 -.93 -.39 -1.45q-.38 -.52 -1.21 -.52q-.83 .0 -1.23 .52q-.39 .52 -.39 1.45z" fill="#FF0D0D" id="mol1atm7" stroke="none"/>
                  
            <path class="atom" d="M135.28 25.94q.0 .76 -.26 1.33q-.26 .57 -.76 .88q-.5 .32 -1.24 .32q-.76 .0 -1.26 -.32q-.51 -.32 -.76 -.89q-.24 -.57 -.24 -1.33q.0 -.75 .24 -1.31q.25 -.57 .76 -.88q.51 -.32 1.27 -.32q.73 .0 1.23 .32q.5 .31 .76 .88q.26 .57 .26 1.33zM131.42 25.94q.0 .92 .39 1.46q.39 .53 1.22 .53q.84 .0 1.22 -.53q.39 -.54 .39 -1.46q.0 -.93 -.39 -1.45q-.38 -.52 -1.21 -.52q-.83 .0 -1.23 .52q-.39 .52 -.39 1.45z" fill="#FF0D0D" id="mol1atm9" stroke="none"/>
                  
            <g class="atom" id="mol1atm10">
                        
                <path d="M121.76 5.53h-.72l-2.62 -4.07h-.03q.01 .24 .03 .6q.02 .36 .02 .73v2.74h-.57v-4.9h.71l2.61 4.05h.03q-.01 -.11 -.02 -.33q-.01 -.22 -.02 -.48q-.01 -.26 -.01 -.48v-2.77h.58v4.9z" stroke="none"/>
                        
                <path d="M126.07 5.53h-.62v-2.29h-2.51v2.29h-.61v-4.9h.61v2.07h2.51v-2.07h.62v4.9z" stroke="none"/>
                        
                <path d="M128.57 7.02h-1.94v-.3l.77 -.78q.22 -.22 .37 -.39q.15 -.18 .23 -.34q.08 -.17 .08 -.36q.0 -.24 -.15 -.37q-.14 -.13 -.37 -.13q-.21 .0 -.38 .08q-.16 .08 -.33 .21l-.19 -.24q.17 -.15 .39 -.25q.23 -.1 .51 -.1q.41 .0 .65 .21q.24 .21 .24 .58q.0 .23 -.1 .43q-.09 .2 -.26 .4q-.17 .2 -.39 .42l-.61 .6v.02h1.49v.33z" stroke="none"/>
                      
            </g>
                  
            <path class="atom" d="M56.09 25.94q.0 .76 -.26 1.33q-.26 .57 -.76 .88q-.5 .32 -1.24 .32q-.76 .0 -1.26 -.32q-.51 -.32 -.76 -.89q-.24 -.57 -.24 -1.33q.0 -.75 .24 -1.31q.25 -.57 .76 -.88q.51 -.32 1.27 -.32q.73 .0 1.23 .32q.5 .31 .76 .88q.26 .57 .26 1.33zM52.23 25.94q.0 .92 .39 1.46q.39 .53 1.22 .53q.84 .0 1.22 -.53q.39 -.54 .39 -1.46q.0 -.93 -.39 -1.45q-.38 -.52 -1.21 -.52q-.83 .0 -1.23 .52q-.39 .52 -.39 1.45z" fill="#FF0D0D" id="mol1atm12" stroke="none"/>
                  
            <path class="atom" d="M42.89 3.08q.0 .76 -.26 1.33q-.26 .57 -.76 .88q-.5 .32 -1.24 .32q-.76 .0 -1.26 -.32q-.51 -.32 -.76 -.89q-.24 -.57 -.24 -1.33q.0 -.75 .24 -1.31q.25 -.57 .76 -.88q.51 -.32 1.27 -.32q.73 .0 1.23 .32q.5 .31 .76 .88q.26 .57 .26 1.33zM39.03 3.08q.0 .92 .39 1.46q.39 .53 1.22 .53q.84 .0 1.22 -.53q.39 -.54 .39 -1.46q.0 -.93 -.39 -1.45q-.38 -.52 -1.21 -.52q-.83 .0 -1.23 .52q-.39 .52 -.39 1.45z" fill="#FF0D0D" id="mol1atm14" stroke="none"/>
                  
            <g class="atom" id="mol1atm15">
                        
                <path d="M29.38 28.39h-.72l-2.62 -4.07h-.03q.01 .24 .03 .6q.02 .36 .02 .73v2.74h-.57v-4.9h.71l2.61 4.05h.03q-.01 -.11 -.02 -.33q-.01 -.22 -.02 -.48q-.01 -.26 -.01 -.48v-2.77h.58v4.9z" stroke="none"/>
                        
                <path d="M29.24 33.85h-.62v-2.29h-2.51v2.29h-.61v-4.9h.61v2.07h2.51v-2.07h.62v4.9z" stroke="none"/>
                      
            </g>
                
            <line class="hi" id="mol1bnd6" stroke="#FF0D0D" x1="103.34" x2="98.385" y1="24.05" y2="21.185000000000002"/>
            <line class="hi" id="mol1bnd7" stroke="#FF0D0D" x1="109.9" x2="114.86" y1="24.05" y2="21.185000000000002"/>
            <line class="hi" id="mol1bnd9" stroke="#3050F8" x1="119.82" x2="119.82" y1="7.26" y2="12.79"/>
            <line class="hi" id="mol1bnd9" stroke="#3050F8" x1="119.82" x2="119.82" y1="7.26" y2="12.79"/>
            <line class="hi" id="mol1bnd11" stroke="#FF0D0D" x1="57.11" x2="62.07" y1="24.05" y2="21.185000000000002"/>
            <line class="hi" id="mol1bnd12" stroke="#FF0D0D" x1="50.55" x2="45.59" y1="24.05" y2="21.185000000000002"/>
            <line class="hi" id="mol1bnd14" stroke="#3050F8" x1="30.59" x2="35.61" y1="24.12" y2="21.22"/>
            <line class="hi" id="mol1bnd15" stroke="#3050F8" x1="24.28" x2="19.26" y1="24.12" y2="21.22"/>
        </g>
          
    </g>
    
</svg>
