<svg xmlns="http://www.w3.org/2000/svg" xmlns:xlink="http://www.w3.org/1999/xlink" height="127.36mm" version="1.2" viewBox="0 0 130.91 127.36" width="130.91mm">
      
    <desc>Generated by the Chemistry Development Kit (http://github.com/cdk)</desc>
      
    <g fill="#3050F8" stroke="#000000" stroke-linecap="round" stroke-linejoin="round" stroke-width=".7">
            
        <rect fill="#FFFFFF" height="128.0" stroke="none" width="131.0" x=".0" y=".0"/>
            
        <g class="mol" id="mol1">
                  
            <line class="bond" id="mol1bnd1" x1="116.66" x2="111.93" y1="9.19" y2="23.68"/>
                  
            <line class="bond" id="mol1bnd2" x1="111.93" x2="100.33" y1="23.68" y2="26.13"/>
                  
            <line class="bond" id="mol1bnd3" x1="94.14" x2="86.84" y1="23.63" y2="15.49"/>
                  
            <line class="bond" id="mol1bnd4" x1="86.84" x2="91.56" y1="15.49" y2="1.0"/>
                  
            <line class="bond" id="mol1bnd5" x1="95.79" x2="92.29" y1="30.61" y2="41.32"/>
                  
            <line class="bond" id="mol1bnd6" x1="92.29" x2="77.38" y1="41.32" y2="44.47"/>
                  
            <line class="bond" id="mol1bnd7" x1="77.38" x2="73.89" y1="44.47" y2="55.17"/>
                  
            <line class="bond" id="mol1bnd8" x1="69.38" x2="58.13" y1="60.01" y2="63.63"/>
                  
            <g class="bond" id="mol1bnd9">
                        
                <line x1="58.13" x2="58.13" y1="78.87" y2="63.63"/>
                        
                <line x1="55.69" x2="55.69" y1="77.46" y2="65.04"/>
                      
            </g>
                  
            <line class="bond" id="mol1bnd10" x1="58.13" x2="44.92" y1="78.87" y2="86.49"/>
                  
            <g class="bond" id="mol1bnd11">
                        
                <line x1="31.71" x2="44.92" y1="78.87" y2="86.49"/>
                        
                <line x1="34.15" x2="44.92" y1="77.46" y2="83.67"/>
                      
            </g>
                  
            <line class="bond" id="mol1bnd12" x1="31.71" x2="31.71" y1="78.87" y2="63.63"/>
                  
            <g class="bond" id="mol1bnd13">
                        
                <line x1="44.92" x2="31.71" y1="56.01" y2="63.63"/>
                        
                <line x1="44.92" x2="34.15" y1="58.82" y2="65.04"/>
                      
            </g>
                  
            <line class="bond" id="mol1bnd14" x1="58.13" x2="44.92" y1="63.63" y2="56.01"/>
                  
            <line class="bond" id="mol1bnd15" x1="31.71" x2="24.16" y1="78.87" y2="83.23"/>
                  
            <g class="bond" id="mol1bnd16">
                        
                <line x1="19.73" x2="19.73" y1="90.34" y2="97.81"/>
                        
                <line x1="17.29" x2="17.3" y1="90.34" y2="97.81"/>
                      
                <line class="hi" stroke="#3050F8" x1="19.73" x2="19.73" y1="90.34" y2="94.075"/>
                <line class="hi" stroke="#3050F8" x1="19.73" x2="19.73" y1="90.34" y2="94.075"/>
                <line class="hi" stroke="#FF0D0D" x1="19.73" x2="19.73" y1="97.81" y2="94.075"/>
                <line class="hi" stroke="#3050F8" x1="17.29" x2="17.295" y1="90.34" y2="94.075"/>
                <line class="hi" stroke="#FF0D0D" x1="17.3" x2="17.295" y1="97.81" y2="94.075"/>
            </g>
                  
            <line class="bond" id="mol1bnd17" x1="15.36" x2="8.59" y1="84.67" y2="80.76"/>
                  
            <line class="bond" id="mol1bnd18" x1="58.13" x2="69.38" y1="78.87" y2="82.49"/>
                  
            <g class="bond" id="mol1bnd19">
                        
                <line x1="75.26" x2="81.6" y1="79.96" y2="71.25"/>
                        
                <line x1="73.29" x2="78.58" y1="78.53" y2="71.25"/>
                      
                <line class="hi" stroke="#3050F8" x1="75.26" x2="78.43" y1="79.96" y2="75.60499999999999"/>
                <line class="hi" stroke="#3050F8" x1="73.29" x2="75.935" y1="78.53" y2="74.89"/>
            </g>
                  
            <line class="bond" id="mol1bnd20" x1="75.26" x2="81.6" y1="62.54" y2="71.25"/>
                  
            <line class="bond" id="mol1bnd21" x1="81.6" x2="96.84" y1="71.25" y2="71.25"/>
                  
            <line class="bond" id="mol1bnd22" x1="96.84" x2="104.46" y1="71.25" y2="84.45"/>
                  
            <g class="bond" id="mol1bnd23">
                        
                <line x1="104.46" x2="96.94" y1="84.45" y2="97.51"/>
                        
                <line x1="105.86" x2="99.75" y1="86.89" y2="97.52"/>
                      
            </g>
                  
            <line class="bond" id="mol1bnd24" x1="96.94" x2="104.49" y1="97.51" y2="110.75"/>
                  
            <g class="bond" id="mol1bnd25">
                        
                <line x1="104.49" x2="119.61" y1="110.75" y2="111.01"/>
                        
                <line x1="105.92" x2="118.22" y1="108.33" y2="108.54"/>
                      
            </g>
                  
            <line class="bond" id="mol1bnd26" x1="119.61" x2="127.35" y1="111.01" y2="97.7"/>
                  
            <g class="bond" id="mol1bnd27">
                        
                <line x1="127.35" x2="119.79" y1="97.7" y2="84.47"/>
                        
                <line x1="124.53" x2="118.37" y1="97.69" y2="86.9"/>
                      
            </g>
                  
            <line class="bond" id="mol1bnd28" x1="104.46" x2="119.79" y1="84.45" y2="84.47"/>
                  
            <line class="bond" id="mol1bnd29" x1="119.61" x2="125.29" y1="111.01" y2="121.07"/>
                  
            <path class="atom" d="M98.96 29.28h-.72l-2.62 -4.07h-.03q.01 .24 .03 .6q.02 .36 .02 .73v2.74h-.57v-4.9h.71l2.61 4.05h.03q-.01 -.11 -.02 -.33q-.01 -.22 -.02 -.48q-.01 -.26 -.01 -.48v-2.77h.58v4.9z" id="mol1atm3" stroke="none"/>
                  
            <path class="atom" d="M74.6 61.4h-.72l-2.62 -4.07h-.03q.01 .24 .03 .6q.02 .36 .02 .73v2.74h-.57v-4.9h.71l2.61 4.05h.03q-.01 -.11 -.02 -.33q-.01 -.22 -.02 -.48q-.01 -.26 -.01 -.48v-2.77h.58v4.9z" id="mol1atm8" stroke="none"/>
                  
            <g class="atom" id="mol1atm15">
                        
                <path d="M20.45 88.94h-.72l-2.62 -4.07h-.03q.01 .24 .03 .6q.02 .36 .02 .73v2.74h-.57v-4.9h.71l2.61 4.05h.03q-.01 -.11 -.02 -.33q-.01 -.22 -.02 -.48q-.01 -.26 -.01 -.48v-2.77h.58v4.9z" stroke="none"/>
                        
                <path d="M22.13 83.9h.82v.29h-.82v.85h-.3v-.85h-.82v-.29h.82v-.85h.3v.85z" stroke="none"/>
                      
            </g>
                  
            <path class="atom" d="M20.77 101.73q.0 .76 -.26 1.33q-.26 .57 -.76 .88q-.5 .32 -1.24 .32q-.76 .0 -1.26 -.32q-.51 -.32 -.76 -.89q-.24 -.57 -.24 -1.33q.0 -.75 .24 -1.31q.25 -.57 .76 -.88q.51 -.32 1.27 -.32q.73 .0 1.23 .32q.5 .31 .76 .88q.26 .57 .26 1.33zM16.91 101.73q.0 .92 .39 1.46q.39 .53 1.22 .53q.84 .0 1.22 -.53q.39 -.54 .39 -1.46q.0 -.93 -.39 -1.45q-.38 -.52 -1.21 -.52q-.83 .0 -1.23 .52q-.39 .52 -.39 1.45z" fill="#FF0D0D" id="mol1atm16" stroke="none"/>
                  
            <g class="atom" id="mol1atm17">
                        
                <path d="M7.57 78.87q.0 .76 -.26 1.33q-.26 .57 -.76 .88q-.5 .32 -1.24 .32q-.76 .0 -1.26 -.32q-.51 -.32 -.76 -.89q-.24 -.57 -.24 -1.33q.0 -.75 .24 -1.31q.25 -.57 .76 -.88q.51 -.32 1.27 -.32q.73 .0 1.23 .32q.5 .31 .76 .88q.26 .57 .26 1.33zM3.71 78.87q.0 .92 .39 1.46q.39 .53 1.22 .53q.84 .0 1.22 -.53q.39 -.54 .39 -1.46q.0 -.93 -.39 -1.45q-.38 -.52 -1.21 -.52q-.83 .0 -1.23 .52q-.39 .52 -.39 1.45z" fill="#FF0D0D" stroke="none"/>
                        
                <path d="M2.49 76.2v.29h-1.93v-.29h1.93z" fill="#FF0D0D" stroke="none"/>
                      
            </g>
                  
            <path class="atom" d="M74.6 85.99h-.72l-2.62 -4.07h-.03q.01 .24 .03 .6q.02 .36 .02 .73v2.74h-.57v-4.9h.71l2.61 4.05h.03q-.01 -.11 -.02 -.33q-.01 -.22 -.02 -.48q-.01 -.26 -.01 -.48v-2.77h.58v4.9z" id="mol1atm18" stroke="none"/>
                  
            <path class="atom" d="M127.59 122.31q-.79 .0 -1.24 .53q-.45 .52 -.45 1.45q.0 .91 .42 1.45q.42 .53 1.27 .53q.32 .0 .61 -.05q.29 -.06 .57 -.14v.54q-.27 .1 -.57 .15q-.29 .05 -.7 .05q-.74 .0 -1.25 -.31q-.5 -.31 -.75 -.88q-.25 -.57 -.25 -1.34q.0 -.74 .27 -1.31q.27 -.57 .8 -.88q.53 -.32 1.28 -.32q.78 .0 1.35 .29l-.24 .52q-.23 -.1 -.51 -.18q-.27 -.08 -.61 -.08zM130.35 126.73h-.6v-5.21h.6v5.21z" fill="#1FF01F" id="mol1atm27" stroke="none"/>
                
            <line class="hi" id="mol1bnd2" stroke="#3050F8" x1="100.33" x2="106.13" y1="26.13" y2="24.905"/>
            <line class="hi" id="mol1bnd3" stroke="#3050F8" x1="94.14" x2="90.49000000000001" y1="23.63" y2="19.56"/>
            <line class="hi" id="mol1bnd5" stroke="#3050F8" x1="95.79" x2="94.04" y1="30.61" y2="35.965"/>
            <line class="hi" id="mol1bnd7" stroke="#3050F8" x1="73.89" x2="75.63499999999999" y1="55.17" y2="49.82"/>
            <line class="hi" id="mol1bnd8" stroke="#3050F8" x1="69.38" x2="63.754999999999995" y1="60.01" y2="61.82"/>
            <line class="hi" id="mol1bnd15" stroke="#3050F8" x1="24.16" x2="27.935000000000002" y1="83.23" y2="81.05000000000001"/>
            <line class="hi" id="mol1bnd15" stroke="#3050F8" x1="24.16" x2="27.935000000000002" y1="83.23" y2="81.05000000000001"/>
            <line class="hi" id="mol1bnd17" stroke="#3050F8" x1="15.36" x2="11.975" y1="84.67" y2="82.715"/>
            <line class="hi" id="mol1bnd17" stroke="#3050F8" x1="15.36" x2="11.975" y1="84.67" y2="82.715"/>
            <line class="hi" id="mol1bnd17" stroke="#FF0D0D" x1="8.59" x2="11.975" y1="80.76" y2="82.715"/>
            <line class="hi" id="mol1bnd17" stroke="#FF0D0D" x1="8.59" x2="11.975" y1="80.76" y2="82.715"/>
            <line class="hi" id="mol1bnd18" stroke="#3050F8" x1="69.38" x2="63.754999999999995" y1="82.49" y2="80.68"/>
            <line class="hi" id="mol1bnd20" stroke="#3050F8" x1="75.26" x2="78.43" y1="62.54" y2="66.895"/>
            <line class="hi" id="mol1bnd29" stroke="#1FF01F" x1="125.29" x2="122.45" y1="121.07" y2="116.03999999999999"/>
        </g>
          
    </g>
    
</svg>
