<svg xmlns="http://www.w3.org/2000/svg" xmlns:xlink="http://www.w3.org/1999/xlink" height="96.68mm" version="1.2" viewBox="0 0 101.63 96.68" width="101.63mm">
      
    <desc>Generated by the Chemistry Development Kit (http://github.com/cdk)</desc>
      
    <g fill="#3050F8" stroke="#000000" stroke-linecap="round" stroke-linejoin="round" stroke-width=".7">
            
        <rect fill="#FFFFFF" height="97.0" stroke="none" width="102.0" x=".0" y=".0"/>
            
        <g class="mol" id="mol1">
                  
            <line class="bond" id="mol1bnd1" x1="14.47" x2="14.69" y1="73.94" y2="58.7"/>
                  
            <g class="bond" id="mol1bnd2">
                        
                <line x1="5.56" x2="14.69" y1="51.85" y2="58.7"/>
                        
                <line x1="7.02" x2="14.74" y1="49.9" y2="55.68"/>
                      
                <line class="hi" stroke="#3050F8" x1="5.56" x2="10.125" y1="51.85" y2="55.275000000000006"/>
                <line class="hi" stroke="#3050F8" x1="7.02" x2="10.879999999999999" y1="49.9" y2="52.79"/>
            </g>
                  
            <line class="bond" id="mol1bnd3" x1="3.79" x2="6.14" y1="45.78" y2="38.91"/>
                  
            <g class="bond" id="mol1bnd4">
                        
                <line x1="22.66" x2="10.77" y1="35.36" y2="35.19"/>
                        
                <line x1="20.86" x2="10.73" y1="37.77" y2="37.62"/>
                      
                <line class="hi" stroke="#3050F8" x1="10.77" x2="16.715" y1="35.19" y2="35.275"/>
                <line class="hi" stroke="#3050F8" x1="10.73" x2="15.795" y1="37.62" y2="37.695"/>
            </g>
                  
            <line class="bond" id="mol1bnd5" x1="22.66" x2="25.99" y1="35.36" y2="46.14"/>
                  
            <line class="bond" id="mol1bnd6" x1="14.69" x2="24.07" y1="58.7" y2="52.1"/>
                  
            <line class="bond" id="mol1bnd7" x1="30.4" x2="41.34" y1="51.2" y2="55.49"/>
                  
            <g class="bond" id="mol1bnd8">
                        
                <line x1="54.54" x2="41.34" y1="47.87" y2="55.49"/>
                        
                <line x1="54.54" x2="43.78" y1="50.69" y2="56.9"/>
                      
            </g>
                  
            <line class="bond" id="mol1bnd9" x1="54.54" x2="67.74" y1="47.87" y2="55.49"/>
                  
            <g class="bond" id="mol1bnd10">
                        
                <line x1="67.74" x2="67.74" y1="70.73" y2="55.49"/>
                        
                <line x1="65.3" x2="65.3" y1="69.33" y2="56.9"/>
                      
            </g>
                  
            <line class="bond" id="mol1bnd11" x1="67.74" x2="54.54" y1="70.73" y2="78.35"/>
                  
            <g class="bond" id="mol1bnd12">
                        
                <line x1="41.34" x2="54.54" y1="70.73" y2="78.35"/>
                        
                <line x1="43.78" x2="54.54" y1="69.33" y2="75.54"/>
                      
            </g>
                  
            <line class="bond" id="mol1bnd13" x1="41.34" x2="41.34" y1="55.49" y2="70.73"/>
                  
            <line class="bond" id="mol1bnd14" x1="67.74" x2="77.78" y1="70.73" y2="76.53"/>
                  
            <g class="bond" id="mol1bnd15">
                        
                <line x1="82.16" x2="82.16" y1="82.2" y2="89.67"/>
                        
                <line x1="79.72" x2="79.72" y1="82.2" y2="89.67"/>
                      
                <line class="hi" stroke="#3050F8" x1="82.16" x2="82.16" y1="82.2" y2="85.935"/>
                <line class="hi" stroke="#3050F8" x1="82.16" x2="82.16" y1="82.2" y2="85.935"/>
                <line class="hi" stroke="#FF0D0D" x1="82.16" x2="82.16" y1="89.67" y2="85.935"/>
                <line class="hi" stroke="#3050F8" x1="79.72" x2="79.72" y1="82.2" y2="85.935"/>
                <line class="hi" stroke="#FF0D0D" x1="79.72" x2="79.72" y1="89.67" y2="85.935"/>
            </g>
                  
            <line class="bond" id="mol1bnd16" x1="86.59" x2="90.86" y1="75.09" y2="72.63"/>
                  
            <line class="bond" id="mol1bnd17" x1="54.54" x2="56.81" y1="47.87" y2="32.8"/>
                  
            <g class="bond" id="mol1bnd18">
                        
                <line x1="56.81" x2="49.34" y1="32.8" y2="24.75"/>
                        
                <line x1="54.23" x2="47.55" y1="33.6" y2="26.41"/>
                      
                <line class="hi" stroke="#3050F8" x1="49.34" x2="53.075" y1="24.75" y2="28.775"/>
                <line class="hi" stroke="#3050F8" x1="47.55" x2="50.89" y1="26.41" y2="30.005000000000003"/>
            </g>
                  
            <line class="bond" id="mol1bnd19" x1="43.11" x2="31.25" y1="21.88" y2="22.77"/>
                  
            <line class="bond" id="mol1bnd20" x1="22.66" x2="31.25" y1="35.36" y2="22.77"/>
                  
            <line class="bond" id="mol1bnd21" x1="56.81" x2="71.38" y1="32.8" y2="28.31"/>
                  
            <g class="bond" id="mol1bnd22">
                        
                <line x1="71.38" x2="82.58" y1="28.31" y2="38.71"/>
                        
                <line x1="74.07" x2="83.19" y1="27.48" y2="35.96"/>
                      
            </g>
                  
            <line class="bond" id="mol1bnd23" x1="82.58" x2="97.1" y1="38.71" y2="34.09"/>
                  
            <g class="bond" id="mol1bnd24">
                        
                <line x1="97.1" x2="100.58" y1="34.09" y2="19.23"/>
                        
                <line x1="95.04" x2="97.88" y1="32.19" y2="20.06"/>
                      
            </g>
                  
            <line class="bond" id="mol1bnd25" x1="100.58" x2="89.28" y1="19.23" y2="8.86"/>
                  
            <g class="bond" id="mol1bnd26">
                        
                <line x1="89.28" x2="74.76" y1="8.86" y2="13.48"/>
                        
                <line x1="88.67" x2="76.82" y1="11.61" y2="15.38"/>
                      
            </g>
                  
            <line class="bond" id="mol1bnd27" x1="71.38" x2="74.76" y1="28.31" y2="13.48"/>
                  
            <line class="bond" id="mol1bnd28" x1="74.76" x2="64.87" y1="13.48" y2="4.39"/>
                  
            <path class="atom" d="M4.44 52.01h-.72l-2.62 -4.07h-.03q.01 .24 .03 .6q.02 .36 .02 .73v2.74h-.57v-4.9h.71l2.61 4.05h.03q-.01 -.11 -.02 -.33q-.01 -.22 -.02 -.48q-.01 -.26 -.01 -.48v-2.77h.58v4.9z" id="mol1atm3" stroke="none"/>
                  
            <path class="atom" d="M9.37 37.59h-.72l-2.62 -4.07h-.03q.01 .24 .03 .6q.02 .36 .02 .73v2.74h-.57v-4.9h.71l2.61 4.05h.03q-.01 -.11 -.02 -.33q-.01 -.22 -.02 -.48q-.01 -.26 -.01 -.48v-2.77h.58v4.9z" id="mol1atm4" stroke="none"/>
                  
            <path class="atom" d="M29.1 52.38h-.72l-2.62 -4.07h-.03q.01 .24 .03 .6q.02 .36 .02 .73v2.74h-.57v-4.9h.71l2.61 4.05h.03q-.01 -.11 -.02 -.33q-.01 -.22 -.02 -.48q-.01 -.26 -.01 -.48v-2.77h.58v4.9z" id="mol1atm6" stroke="none"/>
                  
            <g class="atom" id="mol1atm13">
                        
                <path d="M82.88 80.8h-.72l-2.62 -4.07h-.03q.01 .24 .03 .6q.02 .36 .02 .73v2.74h-.57v-4.9h.71l2.61 4.05h.03q-.01 -.11 -.02 -.33q-.01 -.22 -.02 -.48q-.01 -.26 -.01 -.48v-2.77h.58v4.9z" stroke="none"/>
                        
                <path d="M84.55 75.76h.82v.29h-.82v.85h-.3v-.85h-.82v-.29h.82v-.85h.3v.85z" stroke="none"/>
                      
            </g>
                  
            <path class="atom" d="M83.2 93.59q.0 .76 -.26 1.33q-.26 .57 -.76 .88q-.5 .32 -1.24 .32q-.76 .0 -1.26 -.32q-.51 -.32 -.76 -.89q-.24 -.57 -.24 -1.33q.0 -.75 .24 -1.31q.25 -.57 .76 -.88q.51 -.32 1.27 -.32q.73 .0 1.23 .32q.5 .31 .76 .88q.26 .57 .26 1.33zM79.33 93.59q.0 .92 .39 1.46q.39 .53 1.22 .53q.84 .0 1.22 -.53q.39 -.54 .39 -1.46q.0 -.93 -.39 -1.45q-.38 -.52 -1.21 -.52q-.83 .0 -1.23 .52q-.39 .52 -.39 1.45z" fill="#FF0D0D" id="mol1atm14" stroke="none"/>
                  
            <g class="atom" id="mol1atm15">
                        
                <path d="M96.4 70.73q.0 .76 -.26 1.33q-.26 .57 -.76 .88q-.5 .32 -1.24 .32q-.76 .0 -1.26 -.32q-.51 -.32 -.76 -.89q-.24 -.57 -.24 -1.33q.0 -.75 .24 -1.31q.25 -.57 .76 -.88q.51 -.32 1.27 -.32q.73 .0 1.23 .32q.5 .31 .76 .88q.26 .57 .26 1.33zM92.53 70.73q.0 .92 .39 1.46q.39 .53 1.22 .53q.84 .0 1.22 -.53q.39 -.54 .39 -1.46q.0 -.93 -.39 -1.45q-.38 -.52 -1.21 -.52q-.83 .0 -1.23 .52q-.39 .52 -.39 1.45z" fill="#FF0D0D" stroke="none"/>
                        
                <path d="M98.89 68.07v.29h-1.93v-.29h1.93z" fill="#FF0D0D" stroke="none"/>
                      
            </g>
                  
            <path class="atom" d="M48.39 24.08h-.72l-2.62 -4.07h-.03q.01 .24 .03 .6q.02 .36 .02 .73v2.74h-.57v-4.9h.71l2.61 4.05h.03q-.01 -.11 -.02 -.33q-.01 -.22 -.02 -.48q-.01 -.26 -.01 -.48v-2.77h.58v4.9z" id="mol1atm17" stroke="none"/>
                  
            <path class="atom" d="M61.08 1.35q-.79 .0 -1.24 .53q-.45 .52 -.45 1.45q.0 .91 .42 1.45q.42 .53 1.27 .53q.32 .0 .61 -.05q.29 -.06 .57 -.14v.54q-.27 .1 -.57 .15q-.29 .05 -.7 .05q-.74 .0 -1.25 -.31q-.5 -.31 -.75 -.88q-.25 -.57 -.25 -1.34q.0 -.74 .27 -1.31q.27 -.57 .8 -.88q.53 -.32 1.28 -.32q.78 .0 1.35 .29l-.24 .52q-.23 -.1 -.51 -.18q-.27 -.08 -.61 -.08zM63.84 5.77h-.6v-5.21h.6v5.21z" fill="#1FF01F" id="mol1atm25" stroke="none"/>
                
            <line class="hi" id="mol1bnd3" stroke="#3050F8" x1="3.79" x2="4.965" y1="45.78" y2="42.345"/>
            <line class="hi" id="mol1bnd3" stroke="#3050F8" x1="6.14" x2="4.965" y1="38.91" y2="42.345"/>
            <line class="hi" id="mol1bnd5" stroke="#3050F8" x1="25.99" x2="24.325" y1="46.14" y2="40.75"/>
            <line class="hi" id="mol1bnd6" stroke="#3050F8" x1="24.07" x2="19.38" y1="52.1" y2="55.400000000000006"/>
            <line class="hi" id="mol1bnd7" stroke="#3050F8" x1="30.4" x2="35.870000000000005" y1="51.2" y2="53.345"/>
            <line class="hi" id="mol1bnd14" stroke="#3050F8" x1="77.78" x2="72.75999999999999" y1="76.53" y2="73.63"/>
            <line class="hi" id="mol1bnd14" stroke="#3050F8" x1="77.78" x2="72.75999999999999" y1="76.53" y2="73.63"/>
            <line class="hi" id="mol1bnd16" stroke="#3050F8" x1="86.59" x2="88.725" y1="75.09" y2="73.86"/>
            <line class="hi" id="mol1bnd16" stroke="#3050F8" x1="86.59" x2="88.725" y1="75.09" y2="73.86"/>
            <line class="hi" id="mol1bnd16" stroke="#FF0D0D" x1="90.86" x2="88.725" y1="72.63" y2="73.86"/>
            <line class="hi" id="mol1bnd19" stroke="#3050F8" x1="43.11" x2="37.18" y1="21.88" y2="22.325"/>
            <line class="hi" id="mol1bnd28" stroke="#1FF01F" x1="64.87" x2="69.815" y1="4.390000000000001" y2="8.935"/>
        </g>
          
    </g>
    
</svg>
