<svg xmlns="http://www.w3.org/2000/svg" xmlns:xlink="http://www.w3.org/1999/xlink" height="74.24mm" version="1.2" viewBox="0 0 95.45 74.24" width="95.45mm">
      
    <desc>Generated by the Chemistry Development Kit (http://github.com/cdk)</desc>
      
    <g fill="#3050F8" stroke="#000000" stroke-linecap="round" stroke-linejoin="round" stroke-width=".7">
            
        <rect fill="#FFFFFF" height="75.0" stroke="none" width="96.0" x=".0" y=".0"/>
            
        <g class="mol" id="mol1">
                  
            <line class="bond" id="mol1bnd1" x1="46.35" x2="31.4" y1="73.2" y2="70.25"/>
                  
            <line class="bond" id="mol1bnd2" x1="31.4" x2="30.05" y1="70.25" y2="59.03"/>
                  
            <line class="bond" id="mol1bnd3" x1="33.0" x2="43.41" y1="53.54" y2="48.72"/>
                  
            <line class="bond" id="mol1bnd4" x1="43.41" x2="50.88" y1="48.72" y2="56.77"/>
                  
            <line class="bond" id="mol1bnd5" x1="46.35" x2="51.73" y1="73.2" y2="63.56"/>
                  
            <line class="bond" id="mol1bnd6" x1="57.11" x2="68.97" y1="59.64" y2="58.75"/>
                  
            <line class="bond" id="mol1bnd7" x1="68.97" x2="77.56" y1="58.75" y2="46.16"/>
                  
            <g class="bond" id="mol1bnd8">
                        
                <line x1="77.16" x2="89.16" y1="44.87" y2="46.67"/>
                        
                <line x1="76.79" x2="88.8" y1="47.28" y2="49.09"/>
                      
                <line class="hi" stroke="#FF0D0D" x1="89.16" x2="83.16" y1="46.67" y2="45.769999999999996"/>
                <line class="hi" stroke="#FF0D0D" x1="88.8" x2="82.795" y1="49.09" y2="48.185"/>
            </g>
                  
            <line class="bond" id="mol1bnd9" x1="77.56" x2="74.23" y1="46.16" y2="35.38"/>
                  
            <line class="bond" id="mol1bnd10" x1="69.82" x2="58.88" y1="30.32" y2="26.03"/>
                  
            <g class="bond" id="mol1bnd11">
                        
                <line x1="45.68" x2="58.88" y1="33.65" y2="26.03"/>
                        
                <line x1="45.68" x2="56.44" y1="30.83" y2="24.62"/>
                      
            </g>
                  
            <line class="bond" id="mol1bnd12" x1="43.41" x2="45.68" y1="48.72" y2="33.65"/>
                  
            <line class="bond" id="mol1bnd13" x1="45.68" x2="32.48" y1="33.65" y2="26.03"/>
                  
            <g class="bond" id="mol1bnd14">
                        
                <line x1="32.48" x2="32.48" y1="10.79" y2="26.03"/>
                        
                <line x1="34.92" x2="34.92" y1="12.2" y2="24.62"/>
                      
            </g>
                  
            <line class="bond" id="mol1bnd15" x1="32.48" x2="45.68" y1="10.79" y2="3.17"/>
                  
            <g class="bond" id="mol1bnd16">
                        
                <line x1="58.88" x2="45.68" y1="10.79" y2="3.17"/>
                        
                <line x1="56.44" x2="45.68" y1="12.2" y2="5.98"/>
                      
            </g>
                  
            <line class="bond" id="mol1bnd17" x1="58.88" x2="58.88" y1="26.03" y2="10.79"/>
                  
            <line class="bond" id="mol1bnd18" x1="32.48" x2="20.8" y1="10.79" y2="4.04"/>
                  
            <line class="bond" id="mol1bnd19" x1="43.41" x2="27.31" y1="48.72" y2="36.65"/>
                  
            <g class="bond" id="mol1bnd20">
                        
                <line x1="27.31" x2="29.14" y1="36.65" y2="21.47"/>
                        
                <line x1="25.06" x2="26.55" y1="34.96" y2="22.6"/>
                      
            </g>
                  
            <line class="bond" id="mol1bnd21" x1="29.14" x2="16.86" y1="21.47" y2="12.44"/>
                  
            <g class="bond" id="mol1bnd22">
                        
                <line x1="16.86" x2="2.8" y1="12.44" y2="18.37"/>
                        
                <line x1="16.54" x2="5.06" y1="15.23" y2="20.06"/>
                      
            </g>
                  
            <line class="bond" id="mol1bnd23" x1="2.8" x2="1.05" y1="18.37" y2="33.6"/>
                  
            <g class="bond" id="mol1bnd24">
                        
                <line x1="1.05" x2="13.33" y1="33.6" y2="42.63"/>
                        
                <line x1="3.63" x2="13.65" y1="32.48" y2="39.84"/>
                      
            </g>
                  
            <line class="bond" id="mol1bnd25" x1="27.31" x2="13.33" y1="36.65" y2="42.63"/>
                  
            <line class="bond" id="mol1bnd26" x1="13.33" x2="12.04" y1="42.63" y2="53.78"/>
                  
            <path class="atom" d="M31.84 55.12q.0 .76 -.26 1.33q-.26 .57 -.76 .88q-.5 .32 -1.24 .32q-.76 .0 -1.26 -.32q-.51 -.32 -.76 -.89q-.24 -.57 -.24 -1.33q.0 -.75 .24 -1.31q.25 -.57 .76 -.88q.51 -.32 1.27 -.32q.73 .0 1.23 .32q.5 .31 .76 .88q.26 .57 .26 1.33zM27.98 55.12q.0 .92 .39 1.46q.39 .53 1.22 .53q.84 .0 1.22 -.53q.39 -.54 .39 -1.46q.0 -.93 -.39 -1.45q-.38 -.52 -1.21 -.52q-.83 .0 -1.23 .52q-.39 .52 -.39 1.45z" fill="#FF0D0D" id="mol1atm3" stroke="none"/>
                  
            <path class="atom" d="M55.71 62.34h-.72l-2.62 -4.07h-.03q.01 .24 .03 .6q.02 .36 .02 .73v2.74h-.57v-4.9h.71l2.61 4.05h.03q-.01 -.11 -.02 -.33q-.01 -.22 -.02 -.48q-.01 -.26 -.01 -.48v-2.77h.58v4.9z" id="mol1atm5" stroke="none"/>
                  
            <path class="atom" d="M94.89 48.43q.0 .76 -.26 1.33q-.26 .57 -.76 .88q-.5 .32 -1.24 .32q-.76 .0 -1.26 -.32q-.51 -.32 -.76 -.89q-.24 -.57 -.24 -1.33q.0 -.75 .24 -1.31q.25 -.57 .76 -.88q.51 -.32 1.27 -.32q.73 .0 1.23 .32q.5 .31 .76 .88q.26 .57 .26 1.33zM91.02 48.43q.0 .92 .39 1.46q.39 .53 1.22 .53q.84 .0 1.22 -.53q.39 -.54 .39 -1.46q.0 -.93 -.39 -1.45q-.38 -.52 -1.21 -.52q-.83 .0 -1.23 .52q-.39 .52 -.39 1.45z" fill="#FF0D0D" id="mol1atm8" stroke="none"/>
                  
            <g class="atom" id="mol1atm9">
                        
                <path d="M75.01 34.04h-.72l-2.62 -4.07h-.03q.01 .24 .03 .6q.02 .36 .02 .73v2.74h-.57v-4.9h.71l2.61 4.05h.03q-.01 -.11 -.02 -.33q-.01 -.22 -.02 -.48q-.01 -.26 -.01 -.48v-2.77h.58v4.9z" stroke="none"/>
                        
                <path d="M79.31 34.04h-.62v-2.29h-2.51v2.29h-.61v-4.9h.61v2.07h2.51v-2.07h.62v4.9z" stroke="none"/>
                      
            </g>
                  
            <path class="atom" d="M16.83 1.35q-.79 .0 -1.24 .53q-.45 .52 -.45 1.45q.0 .91 .42 1.45q.42 .53 1.27 .53q.32 .0 .61 -.05q.29 -.06 .57 -.14v.54q-.27 .1 -.57 .15q-.29 .05 -.7 .05q-.74 .0 -1.25 -.31q-.5 -.31 -.75 -.88q-.25 -.57 -.25 -1.34q.0 -.74 .27 -1.31q.27 -.57 .8 -.88q.53 -.32 1.28 -.32q.78 .0 1.35 .29l-.24 .52q-.23 -.1 -.51 -.18q-.27 -.08 -.61 -.08zM19.58 5.77h-.6v-5.21h.6v5.21z" fill="#1FF01F" id="mol1atm16" stroke="none"/>
                  
            <path class="atom" d="M9.12 55.96q-.79 .0 -1.24 .53q-.45 .52 -.45 1.45q.0 .91 .42 1.45q.42 .53 1.27 .53q.32 .0 .61 -.05q.29 -.06 .57 -.14v.54q-.27 .1 -.57 .15q-.29 .05 -.7 .05q-.74 .0 -1.25 -.31q-.5 -.31 -.75 -.88q-.25 -.57 -.25 -1.34q.0 -.74 .27 -1.31q.27 -.57 .8 -.88q.53 -.32 1.28 -.32q.78 .0 1.35 .29l-.24 .52q-.23 -.1 -.51 -.18q-.27 -.08 -.61 -.08zM11.88 60.38h-.6v-5.21h.6v5.21z" fill="#1FF01F" id="mol1atm23" stroke="none"/>
                
            <line class="hi" id="mol1bnd2" stroke="#FF0D0D" x1="30.05" x2="30.725" y1="59.03" y2="64.64"/>
            <line class="hi" id="mol1bnd3" stroke="#FF0D0D" x1="33.0" x2="38.205" y1="53.54" y2="51.129999999999995"/>
            <line class="hi" id="mol1bnd4" stroke="#3050F8" x1="50.88" x2="47.144999999999996" y1="56.77" y2="52.745000000000005"/>
            <line class="hi" id="mol1bnd5" stroke="#3050F8" x1="51.73" x2="49.04" y1="63.56" y2="68.38"/>
            <line class="hi" id="mol1bnd6" stroke="#3050F8" x1="57.11" x2="63.04" y1="59.64" y2="59.195"/>
            <line class="hi" id="mol1bnd9" stroke="#3050F8" x1="74.23" x2="75.89500000000001" y1="35.38" y2="40.769999999999996"/>
            <line class="hi" id="mol1bnd9" stroke="#3050F8" x1="74.29464470181222" x2="75.89500000000001" y1="35.5892702358966" y2="40.769999999999996"/>
            <line class="hi" id="mol1bnd10" stroke="#3050F8" x1="69.82" x2="64.35" y1="30.32" y2="28.175"/>
            <line class="hi" id="mol1bnd18" stroke="#1FF01F" x1="20.8" x2="26.64" y1="4.04" y2="7.414999999999999"/>
            <line class="hi" id="mol1bnd26" stroke="#1FF01F" x1="12.04" x2="12.684999999999999" y1="53.78" y2="48.205"/>
        </g>
          
    </g>
    
</svg>
