<svg xmlns="http://www.w3.org/2000/svg" xmlns:xlink="http://www.w3.org/1999/xlink" height="96.35mm" version="1.2" viewBox="0 0 87.86 96.35" width="87.86mm">
      
    <desc>Generated by the Chemistry Development Kit (http://github.com/cdk)</desc>
      
    <g fill="#3050F8" stroke="#000000" stroke-linecap="round" stroke-linejoin="round" stroke-width=".7">
            
        <rect fill="#FFFFFF" height="97.0" stroke="none" width="88.0" x=".0" y=".0"/>
            
        <g class="mol" id="mol1">
                  
            <line class="bond" id="mol1bnd1" x1="70.33" x2="70.33" y1="95.44" y2="84.05"/>
                  
            <line class="bond" id="mol1bnd2" x1="73.48" x2="83.52" y1="78.38" y2="72.58"/>
                  
            <line class="bond" id="mol1bnd3" x1="67.17" x2="57.13" y1="78.38" y2="72.58"/>
                  
            <line class="bond" id="mol1bnd4" x1="57.13" x2="57.13" y1="72.58" y2="57.34"/>
                  
            <path class="bond" d="M57.13 57.34c.24 -.41 .06 -1.06 -.35 -1.3c-.41 -.24 -1.06 -.06 -1.3 .35c-.24 .41 -.89 .59 -1.3 .35c-.41 -.24 -.59 -.89 -.35 -1.3c.24 -.41 .06 -1.06 -.35 -1.3c-.41 -.24 -1.06 -.06 -1.3 .35c-.24 .41 -.89 .59 -1.3 .35c-.41 -.24 -.59 -.89 -.35 -1.3c.24 -.41 .06 -1.06 -.35 -1.3c-.41 -.24 -1.06 -.06 -1.3 .35c-.24 .41 -.89 .59 -1.3 .35c-.41 -.24 -.59 -.89 -.35 -1.3c.24 -.41 .06 -1.06 -.35 -1.3c-.41 -.24 -1.06 -.06 -1.3 .35c-.24 .41 -.89 .59 -1.3 .35c-.41 -.24 -.59 -.89 -.35 -1.3" fill="none" id="mol1bnd5" stroke="#000000" stroke-width=".7"/>
                  
            <g class="bond" id="mol1bnd6">
                        
                <line x1="43.93" x2="43.93" y1="49.72" y2="34.48"/>
                        
                <line x1="46.37" x2="46.37" y1="48.31" y2="36.01"/>
                      
            </g>
                  
            <line class="bond" id="mol1bnd7" x1="43.93" x2="57.65" y1="34.48" y2="27.87"/>
                  
            <g class="bond" id="mol1bnd8">
                        
                <line x1="57.65" x2="68.82" y1="27.87" y2="38.24"/>
                        
                <line x1="60.34" x2="69.44" y1="27.05" y2="35.49"/>
                      
            </g>
                  
            <line class="bond" id="mol1bnd9" x1="68.82" x2="83.35" y1="38.24" y2="33.67"/>
                  
            <g class="bond" id="mol1bnd10">
                        
                <line x1="83.35" x2="86.81" y1="33.67" y2="18.83"/>
                        
                <line x1="81.29" x2="84.11" y1="31.76" y2="19.66"/>
                      
            </g>
                  
            <line class="bond" id="mol1bnd11" x1="86.81" x2="75.63" y1="18.83" y2="8.47"/>
                  
            <g class="bond" id="mol1bnd12">
                        
                <line x1="75.63" x2="61.1" y1="8.47" y2="12.94"/>
                        
                <line x1="75.0" x2="63.16" y1="11.21" y2="14.86"/>
                      
            </g>
                  
            <line class="bond" id="mol1bnd13" x1="57.65" x2="61.1" y1="27.87" y2="12.94"/>
                  
            <line class="bond" id="mol1bnd14" x1="61.1" x2="51.55" y1="12.94" y2="1.05"/>
                  
            <g class="bond" id="mol1bnd15">
                        
                <line x1="51.55" x2="36.31" y1="1.05" y2="1.05"/>
                        
                <line x1="50.38" x2="37.48" y1="3.49" y2="3.49"/>
                      
            </g>
                  
            <line class="bond" id="mol1bnd16" x1="36.31" x2="26.76" y1="1.05" y2="12.94"/>
                  
            <g class="bond" id="mol1bnd17">
                        
                <line x1="26.76" x2="12.23" y1="12.94" y2="8.47"/>
                        
                <line x1="24.7" x2="12.86" y1="14.86" y2="11.21"/>
                      
            </g>
                  
            <line class="bond" id="mol1bnd18" x1="12.23" x2="1.05" y1="8.47" y2="18.83"/>
                  
            <g class="bond" id="mol1bnd19">
                        
                <line x1="1.05" x2="4.51" y1="18.83" y2="33.67"/>
                        
                <line x1="3.75" x2="6.57" y1="19.66" y2="31.76"/>
                      
            </g>
                  
            <line class="bond" id="mol1bnd20" x1="4.51" x2="19.04" y1="33.67" y2="38.24"/>
                  
            <g class="bond" id="mol1bnd21">
                        
                <line x1="19.04" x2="30.21" y1="38.24" y2="27.87"/>
                        
                <line x1="18.42" x2="27.52" y1="35.49" y2="27.05"/>
                      
            </g>
                  
            <line class="bond" id="mol1bnd22" x1="26.76" x2="30.21" y1="12.94" y2="27.87"/>
                  
            <line class="bond" id="mol1bnd23" x1="43.93" x2="30.21" y1="34.48" y2="27.87"/>
                  
            <path class="atom" d="M72.27 82.65h-.72l-2.62 -4.07h-.03q.01 .24 .03 .6q.02 .36 .02 .73v2.74h-.57v-4.9h.71l2.61 4.05h.03q-.01 -.11 -.02 -.33q-.01 -.22 -.02 -.48q-.01 -.26 -.01 -.48v-2.77h.58v4.9z" id="mol1atm2" stroke="none"/>
                
            <line class="hi" id="mol1bnd1" stroke="#3050F8" x1="70.33" x2="70.33" y1="84.05" y2="89.745"/>
            <line class="hi" id="mol1bnd2" stroke="#3050F8" x1="73.48" x2="78.5" y1="78.38" y2="75.47999999999999"/>
            <line class="hi" id="mol1bnd3" stroke="#3050F8" x1="67.17" x2="62.150000000000006" y1="78.38" y2="75.47999999999999"/>
        </g>
          
    </g>
    
</svg>
