<svg xmlns="http://www.w3.org/2000/svg" xmlns:xlink="http://www.w3.org/1999/xlink" height="97.48mm" version="1.2" viewBox="0 0 121.77 97.48" width="121.77mm">
      
    <desc>Generated by the Chemistry Development Kit (http://github.com/cdk)</desc>
      
    <g fill="#90E050" stroke="#000000" stroke-linecap="round" stroke-linejoin="round" stroke-width=".7">
            
        <rect fill="#FFFFFF" height="98.0" stroke="none" width="122.0" x=".0" y=".0"/>
            
        <g class="mol" id="mol1">
                  
            <line class="bond" id="mol1bnd1" x1="120.73" x2="110.68" y1="71.6" y2="65.8"/>
                  
            <line class="bond" id="mol1bnd2" x1="104.38" x2="94.33" y1="65.8" y2="71.6"/>
                  
            <g class="bond" id="mol1bnd3">
                        
                <line x1="95.55" x2="95.55" y1="70.9" y2="82.92"/>
                        
                <line x1="93.11" x2="93.11" y1="70.9" y2="82.92"/>
                      
                <line class="hi" stroke="#FF0D0D" x1="95.55" x2="95.55" y1="82.92" y2="76.91"/>
                <line class="hi" stroke="#FF0D0D" x1="93.11" x2="93.11" y1="82.92" y2="76.91"/>
            </g>
                  
            <line class="bond" id="mol1bnd4" x1="94.33" x2="81.13" y1="71.6" y2="63.98"/>
                  
            <line class="bond" id="mol1bnd5" x1="81.13" x2="70.63" y1="63.98" y2="70.05"/>
                  
            <g class="bond" id="mol1bnd6">
                        
                <line x1="69.16" x2="69.16" y1="75.52" y2="82.92"/>
                        
                <line x1="66.72" x2="66.72" y1="75.52" y2="82.92"/>
                      
                <line class="hi" stroke="#C6C62C" x1="69.16" x2="69.16" y1="75.52" y2="79.22"/>
                <line class="hi" stroke="#FF0D0D" x1="69.16" x2="69.16" y1="82.92" y2="79.22"/>
                <line class="hi" stroke="#C6C62C" x1="66.72" x2="66.72" y1="75.52" y2="79.22"/>
                <line class="hi" stroke="#FF0D0D" x1="66.72" x2="66.72" y1="82.92" y2="79.22"/>
            </g>
                  
            <line class="bond" id="mol1bnd7" x1="65.22" x2="54.74" y1="70.04" y2="63.99"/>
                  
            <line class="bond" id="mol1bnd8" x1="54.74" x2="41.54" y1="63.99" y2="71.61"/>
                  
            <g class="bond" id="mol1bnd9">
                        
                <line x1="41.54" x2="41.54" y1="86.85" y2="71.61"/>
                        
                <line x1="39.1" x2="39.1" y1="85.44" y2="73.02"/>
                      
            </g>
                  
            <line class="bond" id="mol1bnd10" x1="41.54" x2="28.33" y1="86.85" y2="94.47"/>
                  
            <g class="bond" id="mol1bnd11">
                        
                <line x1="15.12" x2="28.33" y1="86.85" y2="94.47"/>
                        
                <line x1="17.56" x2="28.33" y1="85.44" y2="91.65"/>
                      
            </g>
                  
            <line class="bond" id="mol1bnd12" x1="15.12" x2="15.12" y1="86.85" y2="71.61"/>
                  
            <g class="bond" id="mol1bnd13">
                        
                <line x1="28.33" x2="15.12" y1="63.99" y2="71.61"/>
                        
                <line x1="28.33" x2="17.56" y1="66.8" y2="73.02"/>
                      
            </g>
                  
            <line class="bond" id="mol1bnd14" x1="41.54" x2="28.33" y1="71.61" y2="63.99"/>
                  
            <line class="bond" id="mol1bnd15" x1="15.12" x2="4.44" y1="86.85" y2="93.02"/>
                  
            <line class="bond" id="mol1bnd16" x1="54.74" x2="54.73" y1="63.99" y2="48.75"/>
                  
            <g class="bond" id="mol1bnd17">
                        
                <line x1="41.54" x2="54.73" y1="41.13" y2="48.75"/>
                        
                <line x1="43.97" x2="54.73" y1="39.72" y2="45.93"/>
                      
            </g>
                  
            <line class="bond" id="mol1bnd18" x1="41.54" x2="41.54" y1="41.13" y2="25.88"/>
                  
            <g class="bond" id="mol1bnd19">
                        
                <line x1="54.74" x2="41.54" y1="18.25" y2="25.88"/>
                        
                <line x1="54.74" x2="43.98" y1="21.07" y2="27.29"/>
                      
            </g>
                  
            <line class="bond" id="mol1bnd20" x1="54.74" x2="67.94" y1="18.25" y2="25.87"/>
                  
            <g class="bond" id="mol1bnd21">
                        
                <line x1="67.94" x2="67.94" y1="41.12" y2="25.87"/>
                        
                <line x1="65.5" x2="65.5" y1="39.71" y2="27.28"/>
                      
            </g>
                  
            <line class="bond" id="mol1bnd22" x1="54.73" x2="67.94" y1="48.75" y2="41.12"/>
                  
            <line class="bond" id="mol1bnd23" x1="54.74" x2="54.74" y1="18.25" y2="6.07"/>
                  
            <g class="atom" id="mol1atm2">
                        
                <path d="M109.47 66.43h-.72l-2.62 -4.07h-.03q.01 .24 .03 .6q.02 .36 .02 .73v2.74h-.57v-4.9h.71l2.61 4.05h.03q-.01 -.11 -.02 -.33q-.01 -.22 -.02 -.48q-.01 -.26 -.01 -.48v-2.77h.58v4.9z" fill="#3050F8" stroke="none"/>
                        
                <path d="M109.33 60.97h-.62v-2.29h-2.51v2.29h-.61v-4.9h.61v2.07h2.51v-2.07h.62v4.9z" fill="#3050F8" stroke="none"/>
                      
            </g>
                  
            <path class="atom" d="M96.59 86.84q.0 .76 -.26 1.33q-.26 .57 -.76 .88q-.5 .32 -1.24 .32q-.76 .0 -1.26 -.32q-.51 -.32 -.76 -.89q-.24 -.57 -.24 -1.33q.0 -.75 .24 -1.31q.25 -.57 .76 -.88q.51 -.32 1.27 -.32q.73 .0 1.23 .32q.5 .31 .76 .88q.26 .57 .26 1.33zM92.73 86.84q.0 .92 .39 1.46q.39 .53 1.22 .53q.84 .0 1.22 -.53q.39 -.54 .39 -1.46q.0 -.93 -.39 -1.45q-.38 -.52 -1.21 -.52q-.83 .0 -1.23 .52q-.39 .52 -.39 1.45z" fill="#FF0D0D" id="mol1atm4" stroke="none"/>
                  
            <path class="atom" d="M69.48 72.74q.0 .65 -.48 1.02q-.47 .36 -1.27 .36q-.42 .0 -.77 -.07q-.35 -.06 -.58 -.17v-.59q.24 .11 .61 .2q.37 .09 .76 .09q.55 .0 .83 -.21q.28 -.21 .28 -.58q.0 -.24 -.11 -.4q-.1 -.17 -.35 -.31q-.25 -.14 -.7 -.3q-.63 -.23 -.95 -.55q-.32 -.33 -.32 -.9q.0 -.39 .2 -.67q.2 -.28 .55 -.43q.36 -.15 .82 -.15q.4 .0 .74 .08q.34 .07 .61 .2l-.2 .53q-.25 -.11 -.55 -.18q-.3 -.08 -.63 -.08q-.46 .0 -.69 .2q-.23 .2 -.23 .52q.0 .24 .1 .41q.11 .17 .34 .3q.23 .13 .63 .28q.43 .15 .73 .34q.3 .18 .45 .43q.15 .25 .15 .64z" fill="#C6C62C" id="mol1atm6" stroke="none"/>
                  
            <path class="atom" d="M70.2 86.84q.0 .76 -.26 1.33q-.26 .57 -.76 .88q-.5 .32 -1.24 .32q-.76 .0 -1.26 -.32q-.51 -.32 -.76 -.89q-.24 -.57 -.24 -1.33q.0 -.75 .24 -1.31q.25 -.57 .76 -.88q.51 -.32 1.27 -.32q.73 .0 1.23 .32q.5 .31 .76 .88q.26 .57 .26 1.33zM66.33 86.84q.0 .92 .39 1.46q.39 .53 1.22 .53q.84 .0 1.22 -.53q.39 -.54 .39 -1.46q.0 -.93 -.39 -1.45q-.38 -.52 -1.21 -.52q-.83 .0 -1.23 .52q-.39 .52 -.39 1.45z" fill="#FF0D0D" id="mol1atm7" stroke="none"/>
                  
            <path class="atom" d="M1.17 96.92h-.61v-4.9h2.73v.54h-2.12v1.74h1.99v.54h-1.99v2.08z" id="mol1atm15" stroke="none"/>
                  
            <path class="atom" d="M53.99 5.46h-.61v-4.9h2.73v.54h-2.12v1.74h1.99v.54h-1.99v2.08z" id="mol1atm22" stroke="none"/>
                
            <line class="hi" id="mol1bnd1" stroke="#3050F8" x1="110.68" x2="115.70500000000001" y1="65.8" y2="68.69999999999999"/>
            <line class="hi" id="mol1bnd1" stroke="#3050F8" x1="110.68" x2="115.70500000000001" y1="65.8" y2="68.69999999999999"/>
            <line class="hi" id="mol1bnd2" stroke="#3050F8" x1="104.38" x2="99.35499999999999" y1="65.8" y2="68.69999999999999"/>
            <line class="hi" id="mol1bnd2" stroke="#3050F8" x1="104.38" x2="99.35499999999999" y1="65.8" y2="68.69999999999999"/>
            <line class="hi" id="mol1bnd5" stroke="#C6C62C" x1="70.63" x2="75.88" y1="70.05" y2="67.015"/>
            <line class="hi" id="mol1bnd7" stroke="#C6C62C" x1="65.22" x2="59.980000000000004" y1="70.04" y2="67.015"/>
            <line class="hi" id="mol1bnd15" stroke="#90E050" x1="4.4399999999999995" x2="9.78" y1="93.02" y2="89.935"/>
            <line class="hi" id="mol1bnd23" stroke="#90E050" x1="54.74" x2="54.74" y1="6.07" y2="12.16"/>
        </g>
          
    </g>
    
</svg>
