<svg xmlns="http://www.w3.org/2000/svg" xmlns:xlink="http://www.w3.org/1999/xlink" height="32.57mm" version="1.2" viewBox="0 0 68.07 32.57" width="68.07mm">
      
    <desc>Generated by the Chemistry Development Kit (http://github.com/cdk)</desc>
      
    <g fill="#3050F8" stroke="#000000" stroke-linecap="round" stroke-linejoin="round" stroke-width=".7">
            
        <rect fill="#FFFFFF" height="33.0" stroke="none" width="69.0" x=".0" y=".0"/>
            
        <g class="mol" id="mol1">
                  
            <line class="bond" id="mol1bnd1" x1="1.04" x2="14.24" y1="1.05" y2="8.67"/>
                  
            <line class="bond" id="mol1bnd2" x1="14.24" x2="27.43" y1="8.67" y2="1.05"/>
                  
            <line class="bond" id="mol1bnd3" x1="27.43" x2="40.63" y1="1.05" y2="8.67"/>
                  
            <g class="bond" id="mol1bnd4">
                        
                <line x1="53.84" x2="40.63" y1="1.04" y2="8.67"/>
                        
                <line x1="53.84" x2="43.07" y1="3.85" y2="10.07"/>
                      
            </g>
                  
            <line class="bond" id="mol1bnd5" x1="53.84" x2="67.03" y1="1.04" y2="8.66"/>
                  
            <g class="bond" id="mol1bnd6">
                        
                <line x1="67.03" x2="67.03" y1="23.91" y2="8.66"/>
                        
                <line x1="64.59" x2="64.6" y1="22.5" y2="10.07"/>
                      
            </g>
                  
            <line class="bond" id="mol1bnd7" x1="67.03" x2="53.83" y1="23.91" y2="31.54"/>
                  
            <g class="bond" id="mol1bnd8">
                        
                <line x1="40.63" x2="53.83" y1="23.92" y2="31.54"/>
                        
                <line x1="43.07" x2="53.83" y1="22.51" y2="28.72"/>
                      
            </g>
                  
            <line class="bond" id="mol1bnd9" x1="40.63" x2="40.63" y1="8.67" y2="23.92"/>
                  
            <path class="bond" d="M14.59 8.67h-.7l-1.31 11.39h1.66h1.66z" fill="#000000" id="mol1bnd10" stroke="none"/>
                  
            <g class="atom" id="mol1atm10">
                        
                <path d="M16.18 26.36h-.72l-2.62 -4.07h-.03q.01 .24 .03 .6q.02 .36 .02 .73v2.74h-.57v-4.9h.71l2.61 4.05h.03q-.01 -.11 -.02 -.33q-.01 -.22 -.02 -.48q-.01 -.26 -.01 -.48v-2.77h.58v4.9z" stroke="none"/>
                        
                <path d="M20.48 26.36h-.62v-2.29h-2.51v2.29h-.61v-4.9h.61v2.07h2.51v-2.07h.62v4.9z" stroke="none"/>
                        
                <path d="M22.99 27.85h-1.94v-.3l.77 -.78q.22 -.22 .37 -.39q.15 -.18 .23 -.34q.08 -.17 .08 -.36q.0 -.24 -.15 -.37q-.14 -.13 -.37 -.13q-.21 .0 -.38 .08q-.16 .08 -.33 .21l-.19 -.24q.17 -.15 .39 -.25q.23 -.1 .51 -.1q.41 .0 .65 .21q.24 .21 .24 .58q.0 .23 -.1 .43q-.09 .2 -.26 .4q-.17 .2 -.39 .42l-.61 .6v.02h1.49v.33z" stroke="none"/>
                      
            </g>
                
        </g>
          
    </g>
    
</svg>
