<svg xmlns="http://www.w3.org/2000/svg" xmlns:xlink="http://www.w3.org/1999/xlink" height="96.93mm" version="1.2" viewBox="0 0 136.87 96.93" width="136.87mm">
      
    <desc>Generated by the Chemistry Development Kit (http://github.com/cdk)</desc>
      
    <g fill="#3050F8" stroke="#000000" stroke-linecap="round" stroke-linejoin="round" stroke-width=".7">
            
        <rect fill="#FFFFFF" height="97.0" stroke="none" width="137.0" x=".0" y=".0"/>
            
        <g class="mol" id="mol1">
                  
            <line class="bond" id="mol1bnd1" x1="135.84" x2="125.79" y1="51.19" y2="56.98"/>
                  
            <line class="bond" id="mol1bnd2" x1="122.63" x2="122.62" y1="62.65" y2="74.04"/>
                  
            <line class="bond" id="mol1bnd3" x1="119.48" x2="109.44" y1="56.98" y2="51.17"/>
                  
            <line class="bond" id="mol1bnd4" x1="109.44" x2="96.24" y1="51.17" y2="58.78"/>
                  
            <line class="bond" id="mol1bnd5" x1="96.24" x2="83.04" y1="58.78" y2="51.15"/>
                  
            <path class="bond" d="M69.66 58.46l.35 .61l15.63 -6.82l-2.25 -1.3l-1.97 -1.14z" fill="#000000" id="mol1bnd6" stroke="none"/>
                  
            <line class="bond" id="mol1bnd7" x1="69.84" x2="55.31" y1="58.77" y2="63.44"/>
                  
            <g class="bond" id="mol1bnd8">
                        
                <line x1="55.31" x2="55.31" y1="78.68" y2="63.44"/>
                        
                <line x1="52.87" x2="52.87" y1="77.27" y2="64.85"/>
                      
            </g>
                  
            <line class="bond" id="mol1bnd9" x1="55.31" x2="69.84" y1="78.68" y2="83.35"/>
                  
            <line class="bond" id="mol1bnd10" x1="69.84" x2="76.46" y1="83.35" y2="74.25"/>
                  
            <line class="bond" id="mol1bnd11" x1="69.84" x2="76.46" y1="58.77" y2="67.87"/>
                  
            <line class="bond" id="mol1bnd12" x1="55.31" x2="42.1" y1="78.68" y2="86.3"/>
                  
            <g class="bond" id="mol1bnd13">
                        
                <line x1="28.89" x2="42.1" y1="78.68" y2="86.3"/>
                        
                <line x1="31.33" x2="42.1" y1="77.27" y2="83.48"/>
                      
            </g>
                  
            <line class="bond" id="mol1bnd14" x1="28.89" x2="28.89" y1="78.68" y2="63.44"/>
                  
            <g class="bond" id="mol1bnd15">
                        
                <line x1="42.1" x2="28.89" y1="55.82" y2="63.44"/>
                        
                <line x1="42.1" x2="31.33" y1="58.63" y2="64.85"/>
                      
            </g>
                  
            <line class="bond" id="mol1bnd16" x1="55.31" x2="42.1" y1="63.44" y2="55.82"/>
                  
            <line class="bond" id="mol1bnd17" x1="28.89" x2="15.7" y1="78.68" y2="86.3"/>
                  
            <g class="bond" id="mol1bnd18">
                        
                <line x1="15.7" x2="5.65" y1="86.3" y2="92.1"/>
                        
                <line x1="16.92" x2="6.87" y1="88.41" y2="94.21"/>
                        
                <line x1="14.48" x2="4.43" y1="84.19" y2="89.99"/>
                      
                <line class="hi" stroke="#3050F8" x1="5.65" x2="10.675" y1="92.1" y2="89.19999999999999"/>
                <line class="hi" stroke="#3050F8" x1="6.870000000000001" x2="11.895000000000001" y1="94.21" y2="91.31"/>
                <line class="hi" stroke="#3050F8" x1="4.43" x2="9.455" y1="89.99" y2="87.09"/>
            </g>
                  
            <g class="bond" id="mol1bnd19">
                        
                <line x1="69.52" x2="70.16" y1="58.91" y2="58.62"/>
                        
                <line x1="68.41" x2="69.51" y1="57.02" y2="56.53"/>
                        
                <line x1="67.3" x2="68.85" y1="55.13" y2="54.44"/>
                        
                <line x1="66.19" x2="68.2" y1="53.24" y2="52.35"/>
                        
                <line x1="65.08" x2="67.55" y1="51.35" y2="50.26"/>
                        
                <line x1="63.97" x2="66.89" y1="49.46" y2="48.16"/>
                        
                <line x1="62.86" x2="66.24" y1="47.57" y2="46.07"/>
                        
                <line x1="61.75" x2="65.59" y1="45.68" y2="43.98"/>
                      
            </g>
                  
            <g class="bond" id="mol1bnd20">
                        
                <line x1="48.51" x2="63.67" y1="43.21" y2="44.83"/>
                        
                <line x1="50.17" x2="62.53" y1="40.93" y2="42.26"/>
                      
            </g>
                  
            <line class="bond" id="mol1bnd21" x1="48.51" x2="42.34" y1="43.21" y2="29.26"/>
                  
            <g class="bond" id="mol1bnd22">
                        
                <line x1="51.33" x2="42.34" y1="16.94" y2="29.26"/>
                        
                <line x1="52.47" x2="45.14" y1="19.52" y2="29.56"/>
                      
            </g>
                  
            <line class="bond" id="mol1bnd23" x1="51.33" x2="66.48" y1="16.94" y2="18.57"/>
                  
            <g class="bond" id="mol1bnd24">
                        
                <line x1="72.65" x2="66.48" y1="32.51" y2="18.57"/>
                        
                <line x1="69.85" x2="64.82" y1="32.21" y2="20.84"/>
                      
            </g>
                  
            <line class="bond" id="mol1bnd25" x1="63.67" x2="72.65" y1="44.83" y2="32.51"/>
                  
            <line class="bond" id="mol1bnd26" x1="51.33" x2="46.22" y1="16.94" y2="5.43"/>
                  
            <path class="atom" d="M124.57 61.25h-.72l-2.62 -4.07h-.03q.01 .24 .03 .6q.02 .36 .02 .73v2.74h-.57v-4.9h.71l2.61 4.05h.03q-.01 -.11 -.02 -.33q-.01 -.22 -.02 -.48q-.01 -.26 -.01 -.48v-2.77h.58v4.9z" id="mol1atm2" stroke="none"/>
                  
            <path class="atom" d="M81.04 71.06q.0 .76 -.26 1.33q-.26 .57 -.76 .88q-.5 .32 -1.24 .32q-.76 .0 -1.26 -.32q-.51 -.32 -.76 -.89q-.24 -.57 -.24 -1.33q.0 -.75 .24 -1.31q.25 -.57 .76 -.88q.51 -.32 1.27 -.32q.73 .0 1.23 .32q.5 .31 .76 .88q.26 .57 .26 1.33zM77.18 71.06q.0 .92 .39 1.46q.39 .53 1.22 .53q.84 .0 1.22 -.53q.39 -.54 .39 -1.46q.0 -.93 -.39 -1.45q-.38 -.52 -1.21 -.52q-.83 .0 -1.23 .52q-.39 .52 -.39 1.45z" fill="#FF0D0D" id="mol1atm11" stroke="none"/>
                  
            <path class="atom" d="M4.44 96.37h-.72l-2.62 -4.07h-.03q.01 .24 .03 .6q.02 .36 .02 .73v2.74h-.57v-4.9h.71l2.61 4.05h.03q-.01 -.11 -.02 -.33q-.01 -.22 -.02 -.48q-.01 -.26 -.01 -.48v-2.77h.58v4.9z" id="mol1atm17" stroke="none"/>
                  
            <path class="atom" d="M44.4 5.46h-.61v-4.9h2.73v.54h-2.12v1.74h1.99v.54h-1.99v2.08z" fill="#90E050" id="mol1atm24" stroke="none"/>
                
            <line class="hi" id="mol1bnd1" stroke="#3050F8" x1="125.79" x2="130.815" y1="56.98" y2="54.084999999999994"/>
            <line class="hi" id="mol1bnd2" stroke="#3050F8" x1="122.63" x2="122.625" y1="62.65" y2="68.345"/>
            <line class="hi" id="mol1bnd3" stroke="#3050F8" x1="119.48" x2="114.46000000000001" y1="56.98" y2="54.075"/>
            <line class="hi" id="mol1bnd10" stroke="#FF0D0D" x1="76.46" x2="73.15" y1="74.25" y2="78.8"/>
            <line class="hi" id="mol1bnd11" stroke="#FF0D0D" x1="76.46" x2="73.15" y1="67.87" y2="63.32000000000001"/>
            <line class="hi" id="mol1bnd26" stroke="#90E050" x1="46.22" x2="48.775" y1="5.43" y2="11.185"/>
        </g>
          
    </g>
    
</svg>
