<svg xmlns="http://www.w3.org/2000/svg" xmlns:xlink="http://www.w3.org/1999/xlink" height="73.62mm" version="1.2" viewBox="0 0 101.56 73.62" width="101.56mm">
      
    <desc>Generated by the Chemistry Development Kit (http://github.com/cdk)</desc>
      
    <g fill="#3050F8" stroke="#000000" stroke-linecap="round" stroke-linejoin="round" stroke-width=".7">
            
        <rect fill="#FFFFFF" height="74.0" stroke="none" width="102.0" x=".0" y=".0"/>
            
        <g class="mol" id="mol1">
                  
            <line class="bond" id="mol1bnd1" x1="70.31" x2="78.89" y1="58.75" y2="46.16"/>
                  
            <g class="bond" id="mol1bnd2">
                        
                <line x1="78.89" x2="90.79" y1="46.16" y2="46.34"/>
                        
                <line x1="80.7" x2="90.83" y1="43.75" y2="43.9"/>
                      
                <line class="hi" stroke="#3050F8" x1="90.79" x2="84.84" y1="46.34" y2="46.25"/>
                <line class="hi" stroke="#3050F8" x1="90.83" x2="85.765" y1="43.9" y2="43.825"/>
            </g>
                  
            <line class="bond" id="mol1bnd3" x1="95.42" x2="97.77" y1="42.61" y2="35.74"/>
                  
            <g class="bond" id="mol1bnd4">
                        
                <line x1="95.99" x2="86.86" y1="29.67" y2="22.82"/>
                        
                <line x1="94.53" x2="86.82" y1="31.62" y2="25.84"/>
                      
                <line class="hi" stroke="#3050F8" x1="95.99" x2="91.425" y1="29.67" y2="26.245"/>
                <line class="hi" stroke="#3050F8" x1="94.53" x2="90.675" y1="31.62" y2="28.73"/>
            </g>
                  
            <line class="bond" id="mol1bnd5" x1="86.86" x2="77.49" y1="22.82" y2="29.42"/>
                  
            <line class="bond" id="mol1bnd6" x1="78.89" x2="75.57" y1="46.16" y2="35.38"/>
                  
            <line class="bond" id="mol1bnd7" x1="71.16" x2="60.21" y1="30.32" y2="26.03"/>
                  
            <g class="bond" id="mol1bnd8">
                        
                <line x1="47.01" x2="60.21" y1="33.65" y2="26.03"/>
                        
                <line x1="47.01" x2="57.77" y1="30.83" y2="24.62"/>
                      
            </g>
                  
            <line class="bond" id="mol1bnd9" x1="47.01" x2="33.82" y1="33.65" y2="26.03"/>
                  
            <g class="bond" id="mol1bnd10">
                        
                <line x1="33.82" x2="33.82" y1="10.79" y2="26.03"/>
                        
                <line x1="36.26" x2="36.26" y1="12.2" y2="24.62"/>
                      
            </g>
                  
            <line class="bond" id="mol1bnd11" x1="33.82" x2="47.01" y1="10.79" y2="3.17"/>
                  
            <g class="bond" id="mol1bnd12">
                        
                <line x1="60.21" x2="47.01" y1="10.79" y2="3.17"/>
                        
                <line x1="57.77" x2="47.01" y1="12.2" y2="5.98"/>
                      
            </g>
                  
            <line class="bond" id="mol1bnd13" x1="60.21" x2="60.21" y1="26.03" y2="10.79"/>
                  
            <line class="bond" id="mol1bnd14" x1="33.82" x2="22.13" y1="10.79" y2="4.04"/>
                  
            <line class="bond" id="mol1bnd15" x1="47.01" x2="44.74" y1="33.65" y2="48.72"/>
                  
            <g class="bond" id="mol1bnd16">
                        
                <line x1="44.74" x2="52.22" y1="48.72" y2="56.77"/>
                        
                <line x1="47.33" x2="54.0" y1="47.92" y2="55.11"/>
                      
                <line class="hi" stroke="#3050F8" x1="52.22" x2="48.480000000000004" y1="56.77" y2="52.745000000000005"/>
            </g>
                  
            <line class="bond" id="mol1bnd17" x1="70.31" x2="58.45" y1="58.75" y2="59.64"/>
                  
            <line class="bond" id="mol1bnd18" x1="44.74" x2="30.18" y1="48.72" y2="53.21"/>
                  
            <g class="bond" id="mol1bnd19">
                        
                <line x1="26.79" x2="30.18" y1="68.08" y2="53.21"/>
                        
                <line x1="24.73" x2="27.49" y1="66.16" y2="54.04"/>
                      
            </g>
                  
            <line class="bond" id="mol1bnd20" x1="26.79" x2="12.23" y1="68.08" y2="72.57"/>
                  
            <g class="bond" id="mol1bnd21">
                        
                <line x1="1.05" x2="12.23" y1="62.19" y2="72.57"/>
                        
                <line x1="3.74" x2="12.86" y1="61.36" y2="69.82"/>
                      
            </g>
                  
            <line class="bond" id="mol1bnd22" x1="1.05" x2="4.44" y1="62.19" y2="47.33"/>
                  
            <g class="bond" id="mol1bnd23">
                        
                <line x1="19.01" x2="4.44" y1="42.83" y2="47.33"/>
                        
                <line x1="18.38" x2="6.51" y1="45.58" y2="49.24"/>
                      
            </g>
                  
            <line class="bond" id="mol1bnd24" x1="30.18" x2="19.01" y1="53.21" y2="42.83"/>
                  
            <path class="atom" d="M96.07 48.84h-.72l-2.62 -4.07h-.03q.01 .24 .03 .6q.02 .36 .02 .73v2.74h-.57v-4.9h.71l2.61 4.05h.03q-.01 -.11 -.02 -.33q-.01 -.22 -.02 -.48q-.01 -.26 -.01 -.48v-2.77h.58v4.9z" id="mol1atm3" stroke="none"/>
                  
            <path class="atom" d="M101.0 34.41h-.72l-2.62 -4.07h-.03q.01 .24 .03 .6q.02 .36 .02 .73v2.74h-.57v-4.9h.71l2.61 4.05h.03q-.01 -.11 -.02 -.33q-.01 -.22 -.02 -.48q-.01 -.26 -.01 -.48v-2.77h.58v4.9z" id="mol1atm4" stroke="none"/>
                  
            <path class="atom" d="M76.34 34.04h-.72l-2.62 -4.07h-.03q.01 .24 .03 .6q.02 .36 .02 .73v2.74h-.57v-4.9h.71l2.61 4.05h.03q-.01 -.11 -.02 -.33q-.01 -.22 -.02 -.48q-.01 -.26 -.01 -.48v-2.77h.58v4.9z" id="mol1atm6" stroke="none"/>
                  
            <path class="atom" d="M18.16 1.35q-.79 .0 -1.24 .53q-.45 .52 -.45 1.45q.0 .91 .42 1.45q.42 .53 1.27 .53q.32 .0 .61 -.05q.29 -.06 .57 -.14v.54q-.27 .1 -.57 .15q-.29 .05 -.7 .05q-.74 .0 -1.25 -.31q-.5 -.31 -.75 -.88q-.25 -.57 -.25 -1.34q.0 -.74 .27 -1.31q.27 -.57 .8 -.88q.53 -.32 1.28 -.32q.78 .0 1.35 .29l-.24 .52q-.23 -.1 -.51 -.18q-.27 -.08 -.61 -.08zM20.92 5.77h-.6v-5.21h.6v5.21z" fill="#1FF01F" id="mol1atm13" stroke="none"/>
                  
            <path class="atom" d="M57.05 62.34h-.72l-2.62 -4.07h-.03q.01 .24 .03 .6q.02 .36 .02 .73v2.74h-.57v-4.9h.71l2.61 4.05h.03q-.01 -.11 -.02 -.33q-.01 -.22 -.02 -.48q-.01 -.26 -.01 -.48v-2.77h.58v4.9z" id="mol1atm15" stroke="none"/>
                
            <line class="hi" id="mol1bnd3" stroke="#3050F8" x1="95.42" x2="96.595" y1="42.61" y2="39.175"/>
            <line class="hi" id="mol1bnd3" stroke="#3050F8" x1="97.77" x2="96.595" y1="35.74" y2="39.175"/>
            <line class="hi" id="mol1bnd5" stroke="#3050F8" x1="77.49" x2="82.175" y1="29.42" y2="26.12"/>
            <line class="hi" id="mol1bnd6" stroke="#3050F8" x1="75.57" x2="77.22999999999999" y1="35.38" y2="40.769999999999996"/>
            <line class="hi" id="mol1bnd7" stroke="#3050F8" x1="71.16" x2="65.685" y1="30.32" y2="28.175"/>
            <line class="hi" id="mol1bnd14" stroke="#1FF01F" x1="22.13" x2="27.975" y1="4.04" y2="7.414999999999999"/>
            <line class="hi" id="mol1bnd17" stroke="#3050F8" x1="58.45" x2="64.38" y1="59.64" y2="59.195"/>
        </g>
          
    </g>
    
</svg>
