<svg xmlns="http://www.w3.org/2000/svg" xmlns:xlink="http://www.w3.org/1999/xlink" height="126.96mm" version="1.2" viewBox="0 0 115.71 126.96" width="115.71mm">
      
    <desc>Generated by the Chemistry Development Kit (http://github.com/cdk)</desc>
      
    <g fill="#3050F8" stroke="#000000" stroke-linecap="round" stroke-linejoin="round" stroke-width=".7">
            
        <rect fill="#FFFFFF" height="127.0" stroke="none" width="116.0" x=".0" y=".0"/>
            
        <g class="mol" id="mol1">
                  
            <line class="bond" id="mol1bnd1" x1="55.43" x2="51.93" y1="1.0" y2="11.71"/>
                  
            <line class="bond" id="mol1bnd2" x1="53.58" x2="60.89" y1="18.69" y2="26.84"/>
                  
            <line class="bond" id="mol1bnd3" x1="60.89" x2="56.16" y1="26.84" y2="41.33"/>
                  
            <line class="bond" id="mol1bnd4" x1="56.16" x2="44.56" y1="41.33" y2="43.79"/>
                  
            <line class="bond" id="mol1bnd5" x1="38.38" x2="31.07" y1="41.28" y2="33.14"/>
                  
            <line class="bond" id="mol1bnd6" x1="31.07" x2="35.79" y1="33.14" y2="18.64"/>
                  
            <line class="bond" id="mol1bnd7" x1="47.39" x2="35.79" y1="16.19" y2="18.64"/>
                  
            <line class="bond" id="mol1bnd8" x1="40.02" x2="36.53" y1="48.27" y2="58.98"/>
                  
            <g class="bond" id="mol1bnd9">
                        
                <line x1="37.47" x2="25.5" y1="60.02" y2="62.55"/>
                        
                <line x1="36.96" x2="24.99" y1="57.64" y2="60.17"/>
                      
                <line class="hi" stroke="#FF0D0D" x1="25.5" x2="31.485" y1="62.55" y2="61.285"/>
                <line class="hi" stroke="#FF0D0D" x1="24.99" x2="30.975" y1="60.17" y2="58.905"/>
            </g>
                  
            <line class="bond" id="mol1bnd10" x1="36.53" x2="44.05" y1="58.98" y2="67.35"/>
                  
            <g class="bond" id="mol1bnd11">
                        
                <line stroke="#000000" x1="41.65" x2="42.32" y1="84.69" y2="84.91"/>
                        
                <line stroke="#FF0D0D" x1="42.16" x2="43.38" y1="82.19" y2="82.59"/>
                        
                <line stroke="#FF0D0D" x1="42.67" x2="44.45" y1="79.68" y2="80.26"/>
                        
                <line stroke="#FF0D0D" x1="43.18" x2="45.51" y1="77.18" y2="77.94"/>
                        
                <line stroke="#FF0D0D" x1="43.69" x2="46.58" y1="74.67" y2="75.61"/>
                      
            </g>
                  
            <line class="bond" id="mol1bnd12" x1="41.98" x2="27.45" y1="84.8" y2="89.48"/>
                  
            <g class="bond" id="mol1bnd13">
                        
                <line x1="27.45" x2="17.4" y1="89.48" y2="83.67"/>
                        
                <line x1="25.02" x2="16.18" y1="90.88" y2="85.79"/>
                      
                <line class="hi" stroke="#3050F8" x1="17.4" x2="22.424999999999997" y1="83.67" y2="86.575"/>
                <line class="hi" stroke="#3050F8" x1="16.18" x2="20.6" y1="85.79" y2="88.33500000000001"/>
            </g>
                  
            <line class="bond" id="mol1bnd14" x1="11.09" x2="1.04" y1="83.67" y2="89.48"/>
                  
            <g class="bond" id="mol1bnd15">
                        
                <line x1="1.04" x2="1.04" y1="89.48" y2="104.72"/>
                        
                <line x1="3.48" x2="3.48" y1="90.88" y2="103.31"/>
                      
            </g>
                  
            <line class="bond" id="mol1bnd16" x1="1.04" x2="11.09" y1="104.72" y2="110.52"/>
                  
            <g class="bond" id="mol1bnd17">
                        
                <line x1="17.4" x2="27.45" y1="110.52" y2="104.72"/>
                        
                <line x1="16.18" x2="25.02" y1="108.4" y2="103.31"/>
                      
                <line class="hi" stroke="#3050F8" x1="17.4" x2="22.424999999999997" y1="110.52" y2="107.62"/>
                <line class="hi" stroke="#3050F8" x1="16.18" x2="20.6" y1="108.4" y2="105.855"/>
            </g>
                  
            <line class="bond" id="mol1bnd18" x1="27.45" x2="27.45" y1="89.48" y2="104.72"/>
                  
            <line class="bond" id="mol1bnd19" x1="27.45" x2="41.98" y1="104.72" y2="109.39"/>
                  
            <g class="bond" id="mol1bnd20">
                        
                <line x1="42.87" x2="46.62" y1="108.17" y2="119.68"/>
                        
                <line x1="40.55" x2="44.31" y1="108.93" y2="120.44"/>
                      
                <line class="hi" stroke="#FF0D0D" x1="46.62" x2="44.745" y1="119.68" y2="113.92500000000001"/>
                <line class="hi" stroke="#FF0D0D" x1="44.31" x2="42.43" y1="120.44" y2="114.685"/>
            </g>
                  
            <line class="bond" id="mol1bnd21" x1="41.98" x2="48.32" y1="109.39" y2="100.68"/>
                  
            <line class="bond" id="mol1bnd22" x1="41.98" x2="48.32" y1="84.8" y2="93.51"/>
                  
            <line class="bond" id="mol1bnd23" x1="54.26" x2="66.16" y1="97.1" y2="97.1"/>
                  
            <g class="bond" id="mol1bnd24">
                        
                <line x1="66.16" x2="71.67" y1="97.1" y2="106.64"/>
                        
                <line x1="68.98" x2="73.79" y1="97.1" y2="105.42"/>
                      
                <line class="hi" stroke="#3050F8" x1="71.67" x2="68.91499999999999" y1="106.64" y2="101.87"/>
                <line class="hi" stroke="#3050F8" x1="73.79" x2="71.385" y1="105.42" y2="101.25999999999999"/>
            </g>
                  
            <line class="bond" id="mol1bnd25" x1="77.13" x2="89.04" y1="110.3" y2="110.31"/>
                  
            <g class="bond" id="mol1bnd26">
                        
                <line x1="89.04" x2="96.66" y1="110.31" y2="97.11"/>
                        
                <line x1="87.63" x2="93.84" y1="107.87" y2="97.11"/>
                      
            </g>
                  
            <line class="bond" id="mol1bnd27" x1="96.66" x2="89.03" y1="97.11" y2="83.91"/>
                  
            <g class="bond" id="mol1bnd28">
                        
                <line x1="89.03" x2="73.79" y1="83.91" y2="83.9"/>
                        
                <line x1="87.63" x2="75.19" y1="86.34" y2="86.34"/>
                      
            </g>
                  
            <line class="bond" id="mol1bnd29" x1="66.16" x2="73.79" y1="97.1" y2="83.9"/>
                  
            <line class="bond" id="mol1bnd30" x1="96.66" x2="108.65" y1="97.11" y2="97.11"/>
                  
            <path class="atom" d="M52.64 17.94h-.72l-2.62 -4.07h-.03q.01 .24 .03 .6q.02 .36 .02 .73v2.74h-.57v-4.9h.71l2.61 4.05h.03q-.01 -.11 -.02 -.33q-.01 -.22 -.02 -.48q-.01 -.26 -.01 -.48v-2.77h.58v4.9z" id="mol1atm2" stroke="none"/>
                  
            <path class="atom" d="M43.19 46.94h-.72l-2.62 -4.07h-.03q.01 .24 .03 .6q.02 .36 .02 .73v2.74h-.57v-4.9h.71l2.61 4.05h.03q-.01 -.11 -.02 -.33q-.01 -.22 -.02 -.48q-.01 -.26 -.01 -.48v-2.77h.58v4.9z" id="mol1atm5" stroke="none"/>
                  
            <path class="atom" d="M23.87 62.12q.0 .76 -.26 1.33q-.26 .57 -.76 .88q-.5 .32 -1.24 .32q-.76 .0 -1.26 -.32q-.51 -.32 -.76 -.89q-.24 -.57 -.24 -1.33q.0 -.75 .24 -1.31q.25 -.57 .76 -.88q.51 -.32 1.27 -.32q.73 .0 1.23 .32q.5 .31 .76 .88q.26 .57 .26 1.33zM20.01 62.12q.0 .92 .39 1.46q.39 .53 1.22 .53q.84 .0 1.22 -.53q.39 -.54 .39 -1.46q.0 -.93 -.39 -1.45q-.38 -.52 -1.21 -.52q-.83 .0 -1.23 .52q-.39 .52 -.39 1.45z" fill="#FF0D0D" id="mol1atm9" stroke="none"/>
                  
            <path class="atom" d="M48.97 70.31q.0 .76 -.26 1.33q-.26 .57 -.76 .88q-.5 .32 -1.24 .32q-.76 .0 -1.26 -.32q-.51 -.32 -.76 -.89q-.24 -.57 -.24 -1.33q.0 -.75 .24 -1.31q.25 -.57 .76 -.88q.51 -.32 1.27 -.32q.73 .0 1.23 .32q.5 .31 .76 .88q.26 .57 .26 1.33zM45.11 70.31q.0 .92 .39 1.46q.39 .53 1.22 .53q.84 .0 1.22 -.53q.39 -.54 .39 -1.46q.0 -.93 -.39 -1.45q-.38 -.52 -1.21 -.52q-.83 .0 -1.23 .52q-.39 .52 -.39 1.45z" fill="#FF0D0D" id="mol1atm10" stroke="none"/>
                  
            <path class="atom" d="M16.19 84.3h-.72l-2.62 -4.07h-.03q.01 .24 .03 .6q.02 .36 .02 .73v2.74h-.57v-4.9h.71l2.61 4.05h.03q-.01 -.11 -.02 -.33q-.01 -.22 -.02 -.48q-.01 -.26 -.01 -.48v-2.77h.58v4.9z" id="mol1atm13" stroke="none"/>
                  
            <path class="atom" d="M16.19 114.78h-.72l-2.62 -4.07h-.03q.01 .24 .03 .6q.02 .36 .02 .73v2.74h-.57v-4.9h.71l2.61 4.05h.03q-.01 -.11 -.02 -.33q-.01 -.22 -.02 -.48q-.01 -.26 -.01 -.48v-2.77h.58v4.9z" id="mol1atm16" stroke="none"/>
                  
            <path class="atom" d="M48.97 123.87q.0 .76 -.26 1.33q-.26 .57 -.76 .88q-.5 .32 -1.24 .32q-.76 .0 -1.26 -.32q-.51 -.32 -.76 -.89q-.24 -.57 -.24 -1.33q.0 -.75 .24 -1.31q.25 -.57 .76 -.88q.51 -.32 1.27 -.32q.73 .0 1.23 .32q.5 .31 .76 .88q.26 .57 .26 1.33zM45.11 123.87q.0 .92 .39 1.46q.39 .53 1.22 .53q.84 .0 1.22 -.53q.39 -.54 .39 -1.46q.0 -.93 -.39 -1.45q-.38 -.52 -1.21 -.52q-.83 .0 -1.23 .52q-.39 .52 -.39 1.45z" fill="#FF0D0D" id="mol1atm19" stroke="none"/>
                  
            <path class="atom" d="M52.86 99.54h-.72l-2.62 -4.07h-.03q.01 .24 .03 .6q.02 .36 .02 .73v2.74h-.57v-4.9h.71l2.61 4.05h.03q-.01 -.11 -.02 -.33q-.01 -.22 -.02 -.48q-.01 -.26 -.01 -.48v-2.77h.58v4.9z" id="mol1atm20" stroke="none"/>
                  
            <path class="atom" d="M75.73 112.75h-.72l-2.62 -4.07h-.03q.01 .24 .03 .6q.02 .36 .02 .73v2.74h-.57v-4.9h.71l2.61 4.05h.03q-.01 -.11 -.02 -.33q-.01 -.22 -.02 -.48q-.01 -.26 -.01 -.48v-2.77h.58v4.9z" id="mol1atm22" stroke="none"/>
                  
            <path class="atom" d="M112.39 95.13q-.79 .0 -1.24 .53q-.45 .52 -.45 1.45q.0 .91 .42 1.45q.42 .53 1.27 .53q.32 .0 .61 -.05q.29 -.06 .57 -.14v.54q-.27 .1 -.57 .15q-.29 .05 -.7 .05q-.74 .0 -1.25 -.31q-.5 -.31 -.75 -.88q-.25 -.57 -.25 -1.34q.0 -.74 .27 -1.31q.27 -.57 .8 -.88q.53 -.32 1.28 -.32q.78 .0 1.35 .29l-.24 .52q-.23 -.1 -.51 -.18q-.27 -.08 -.61 -.08zM115.15 99.56h-.6v-5.21h.6v5.21z" fill="#1FF01F" id="mol1atm27" stroke="none"/>
                
            <line class="hi" id="mol1bnd1" stroke="#3050F8" x1="51.93" x2="53.68" y1="11.71" y2="6.355"/>
            <line class="hi" id="mol1bnd2" stroke="#3050F8" x1="53.58" x2="57.235" y1="18.69" y2="22.765"/>
            <line class="hi" id="mol1bnd4" stroke="#3050F8" x1="44.56" x2="50.36" y1="43.79" y2="42.56"/>
            <line class="hi" id="mol1bnd5" stroke="#3050F8" x1="38.38" x2="34.725" y1="41.28" y2="37.21"/>
            <line class="hi" id="mol1bnd7" stroke="#3050F8" x1="47.39" x2="41.59" y1="16.19" y2="17.415"/>
            <line class="hi" id="mol1bnd8" stroke="#3050F8" x1="40.02" x2="38.275000000000006" y1="48.27" y2="53.625"/>
            <line class="hi" id="mol1bnd10" stroke="#FF0D0D" x1="44.05" x2="40.29" y1="67.35" y2="63.16499999999999"/>
            <line class="hi" id="mol1bnd14" stroke="#3050F8" x1="11.09" x2="6.0649999999999995" y1="83.67" y2="86.575"/>
            <line class="hi" id="mol1bnd16" stroke="#3050F8" x1="11.09" x2="6.0649999999999995" y1="110.52" y2="107.62"/>
            <line class="hi" id="mol1bnd21" stroke="#3050F8" x1="48.32" x2="45.15" y1="100.68" y2="105.035"/>
            <line class="hi" id="mol1bnd22" stroke="#3050F8" x1="48.32" x2="45.15" y1="93.51" y2="89.155"/>
            <line class="hi" id="mol1bnd23" stroke="#3050F8" x1="54.26" x2="60.209999999999994" y1="97.1" y2="97.1"/>
            <line class="hi" id="mol1bnd25" stroke="#3050F8" x1="77.13" x2="83.08500000000001" y1="110.3" y2="110.305"/>
            <line class="hi" id="mol1bnd30" stroke="#1FF01F" x1="108.65" x2="102.655" y1="97.11" y2="97.11"/>
        </g>
          
    </g>
    
</svg>
