<svg xmlns="http://www.w3.org/2000/svg" xmlns:xlink="http://www.w3.org/1999/xlink" height="81.46mm" version="1.2" viewBox="0 0 101.57 81.46" width="101.57mm">
      
    <desc>Generated by the Chemistry Development Kit (http://github.com/cdk)</desc>
      
    <g fill="#3050F8" stroke="#000000" stroke-linecap="round" stroke-linejoin="round" stroke-width=".7">
            
        <rect fill="#FFFFFF" height="82.0" stroke="none" width="102.0" x=".0" y=".0"/>
            
        <g class="mol" id="mol1">
                  
            <line class="bond" id="mol1bnd1" x1="87.1" x2="86.88" y1="7.58" y2="22.82"/>
                  
            <g class="bond" id="mol1bnd2">
                        
                <line x1="96.01" x2="86.88" y1="29.67" y2="22.82"/>
                        
                <line x1="94.55" x2="86.83" y1="31.62" y2="25.84"/>
                      
                <line class="hi" stroke="#3050F8" x1="96.01" x2="91.445" y1="29.67" y2="26.245"/>
                <line class="hi" stroke="#3050F8" x1="94.55" x2="90.69" y1="31.62" y2="28.73"/>
            </g>
                  
            <line class="bond" id="mol1bnd3" x1="97.78" x2="95.43" y1="35.74" y2="42.61"/>
                  
            <g class="bond" id="mol1bnd4">
                        
                <line x1="78.91" x2="90.8" y1="46.16" y2="46.34"/>
                        
                <line x1="80.71" x2="90.84" y1="43.75" y2="43.9"/>
                      
                <line class="hi" stroke="#3050F8" x1="90.8" x2="84.85499999999999" y1="46.34" y2="46.25"/>
                <line class="hi" stroke="#3050F8" x1="90.84" x2="85.775" y1="43.9" y2="43.825"/>
            </g>
                  
            <line class="bond" id="mol1bnd5" x1="78.91" x2="75.58" y1="46.16" y2="35.38"/>
                  
            <line class="bond" id="mol1bnd6" x1="86.88" x2="77.5" y1="22.82" y2="29.42"/>
                  
            <line class="bond" id="mol1bnd7" x1="71.17" x2="60.23" y1="30.32" y2="26.03"/>
                  
            <g class="bond" id="mol1bnd8">
                        
                <line x1="47.03" x2="60.23" y1="33.65" y2="26.03"/>
                        
                <line x1="47.03" x2="57.79" y1="30.83" y2="24.62"/>
                      
            </g>
                  
            <line class="bond" id="mol1bnd9" x1="47.03" x2="33.83" y1="33.65" y2="26.03"/>
                  
            <g class="bond" id="mol1bnd10">
                        
                <line x1="33.83" x2="33.83" y1="10.79" y2="26.03"/>
                        
                <line x1="36.27" x2="36.27" y1="12.2" y2="24.62"/>
                      
            </g>
                  
            <line class="bond" id="mol1bnd11" x1="33.83" x2="47.03" y1="10.79" y2="3.17"/>
                  
            <g class="bond" id="mol1bnd12">
                        
                <line x1="60.23" x2="47.03" y1="10.79" y2="3.17"/>
                        
                <line x1="57.79" x2="47.03" y1="12.2" y2="5.98"/>
                      
            </g>
                  
            <line class="bond" id="mol1bnd13" x1="60.23" x2="60.23" y1="26.03" y2="10.79"/>
                  
            <line class="bond" id="mol1bnd14" x1="33.83" x2="22.15" y1="10.79" y2="4.04"/>
                  
            <line class="bond" id="mol1bnd15" x1="47.03" x2="44.76" y1="33.65" y2="48.72"/>
                  
            <g class="bond" id="mol1bnd16">
                        
                <line x1="44.76" x2="52.23" y1="48.72" y2="56.77"/>
                        
                <line x1="47.34" x2="54.02" y1="47.92" y2="55.11"/>
                      
                <line class="hi" stroke="#3050F8" x1="52.23" x2="48.495" y1="56.77" y2="52.745000000000005"/>
            </g>
                  
            <line class="bond" id="mol1bnd17" x1="58.46" x2="70.32" y1="59.64" y2="58.75"/>
                  
            <line class="bond" id="mol1bnd18" x1="78.91" x2="70.32" y1="46.16" y2="58.75"/>
                  
            <line class="bond" id="mol1bnd19" x1="44.76" x2="30.2" y1="48.72" y2="53.21"/>
                  
            <g class="bond" id="mol1bnd20">
                        
                <line x1="30.2" x2="19.07" y1="53.21" y2="42.91"/>
                        
                <line x1="27.5" x2="18.44" y1="54.04" y2="45.66"/>
                      
            </g>
                  
            <line class="bond" id="mol1bnd21" x1="19.07" x2="4.5" y1="42.91" y2="47.38"/>
                  
            <g class="bond" id="mol1bnd22">
                        
                <line x1="4.5" x2="1.05" y1="47.38" y2="62.14"/>
                        
                <line x1="6.55" x2="3.75" y1="49.3" y2="61.32"/>
                      
            </g>
                  
            <line class="bond" id="mol1bnd23" x1="1.05" x2="12.21" y1="62.14" y2="72.54"/>
                  
            <g class="bond" id="mol1bnd24">
                        
                <line x1="12.21" x2="26.78" y1="72.54" y2="68.07"/>
                        
                <line x1="12.84" x2="24.72" y1="69.79" y2="66.15"/>
                      
            </g>
                  
            <line class="bond" id="mol1bnd25" x1="30.2" x2="26.78" y1="53.21" y2="68.07"/>
                  
            <line class="bond" id="mol1bnd26" x1="26.78" x2="35.55" y1="68.07" y2="76.23"/>
                  
            <path class="atom" d="M101.01 34.41h-.72l-2.62 -4.07h-.03q.01 .24 .03 .6q.02 .36 .02 .73v2.74h-.57v-4.9h.71l2.61 4.05h.03q-.01 -.11 -.02 -.33q-.01 -.22 -.02 -.48q-.01 -.26 -.01 -.48v-2.77h.58v4.9z" id="mol1atm3" stroke="none"/>
                  
            <path class="atom" d="M96.09 48.84h-.72l-2.62 -4.07h-.03q.01 .24 .03 .6q.02 .36 .02 .73v2.74h-.57v-4.9h.71l2.61 4.05h.03q-.01 -.11 -.02 -.33q-.01 -.22 -.02 -.48q-.01 -.26 -.01 -.48v-2.77h.58v4.9z" id="mol1atm4" stroke="none"/>
                  
            <path class="atom" d="M76.36 34.04h-.72l-2.62 -4.07h-.03q.01 .24 .03 .6q.02 .36 .02 .73v2.74h-.57v-4.9h.71l2.61 4.05h.03q-.01 -.11 -.02 -.33q-.01 -.22 -.02 -.48q-.01 -.26 -.01 -.48v-2.77h.58v4.9z" id="mol1atm6" stroke="none"/>
                  
            <path class="atom" d="M18.18 1.35q-.79 .0 -1.24 .53q-.45 .52 -.45 1.45q.0 .91 .42 1.45q.42 .53 1.27 .53q.32 .0 .61 -.05q.29 -.06 .57 -.14v.54q-.27 .1 -.57 .15q-.29 .05 -.7 .05q-.74 .0 -1.25 -.31q-.5 -.31 -.75 -.88q-.25 -.57 -.25 -1.34q.0 -.74 .27 -1.31q.27 -.57 .8 -.88q.53 -.32 1.28 -.32q.78 .0 1.35 .29l-.24 .52q-.23 -.1 -.51 -.18q-.27 -.08 -.61 -.08zM20.93 5.77h-.6v-5.21h.6v5.21z" fill="#1FF01F" id="mol1atm13" stroke="none"/>
                  
            <path class="atom" d="M57.07 62.34h-.72l-2.62 -4.07h-.03q.01 .24 .03 .6q.02 .36 .02 .73v2.74h-.57v-4.9h.71l2.61 4.05h.03q-.01 -.11 -.02 -.33q-.01 -.22 -.02 -.48q-.01 -.26 -.01 -.48v-2.77h.58v4.9z" id="mol1atm15" stroke="none"/>
                  
            <path class="atom" d="M37.19 80.9h-.61v-4.9h2.73v.54h-2.12v1.74h1.99v.54h-1.99v2.08z" fill="#90E050" id="mol1atm23" stroke="none"/>
                
            <line class="hi" id="mol1bnd3" stroke="#3050F8" x1="97.78" x2="96.605" y1="35.74" y2="39.175"/>
            <line class="hi" id="mol1bnd3" stroke="#3050F8" x1="95.43" x2="96.605" y1="42.61" y2="39.175"/>
            <line class="hi" id="mol1bnd5" stroke="#3050F8" x1="75.58" x2="77.245" y1="35.38" y2="40.769999999999996"/>
            <line class="hi" id="mol1bnd6" stroke="#3050F8" x1="77.5" x2="82.19" y1="29.42" y2="26.12"/>
            <line class="hi" id="mol1bnd7" stroke="#3050F8" x1="71.17" x2="65.7" y1="30.32" y2="28.175"/>
            <line class="hi" id="mol1bnd14" stroke="#1FF01F" x1="22.15" x2="27.99" y1="4.04" y2="7.414999999999999"/>
            <line class="hi" id="mol1bnd17" stroke="#3050F8" x1="58.46" x2="64.39" y1="59.64" y2="59.195"/>
            <line class="hi" id="mol1bnd26" stroke="#90E050" x1="35.55" x2="31.165" y1="76.23" y2="72.15"/>
        </g>
          
    </g>
    
</svg>
