<svg xmlns="http://www.w3.org/2000/svg" xmlns:xlink="http://www.w3.org/1999/xlink" height="81.88mm" version="1.2" viewBox="0 0 101.57 81.88" width="101.57mm">
      
    <desc>Generated by the Chemistry Development Kit (http://github.com/cdk)</desc>
      
    <g fill="#3050F8" stroke="#000000" stroke-linecap="round" stroke-linejoin="round" stroke-width=".7">
            
        <rect fill="#FFFFFF" height="82.0" stroke="none" width="102.0" x=".0" y=".0"/>
            
        <g class="mol" id="mol1">
                  
            <line class="bond" id="mol1bnd1" x1="87.1" x2="86.88" y1="8.0" y2="23.24"/>
                  
            <g class="bond" id="mol1bnd2">
                        
                <line x1="96.01" x2="86.88" y1="30.09" y2="23.24"/>
                        
                <line x1="94.55" x2="86.83" y1="32.04" y2="26.26"/>
                      
                <line class="hi" stroke="#3050F8" x1="96.01" x2="91.445" y1="30.09" y2="26.665"/>
                <line class="hi" stroke="#3050F8" x1="94.55" x2="90.69" y1="32.04" y2="29.15"/>
            </g>
                  
            <line class="bond" id="mol1bnd3" x1="97.78" x2="95.43" y1="36.16" y2="43.03"/>
                  
            <g class="bond" id="mol1bnd4">
                        
                <line x1="78.91" x2="90.8" y1="46.58" y2="46.76"/>
                        
                <line x1="80.71" x2="90.84" y1="44.17" y2="44.32"/>
                      
                <line class="hi" stroke="#3050F8" x1="90.8" x2="84.85499999999999" y1="46.76" y2="46.67"/>
                <line class="hi" stroke="#3050F8" x1="90.84" x2="85.775" y1="44.32" y2="44.245000000000005"/>
            </g>
                  
            <line class="bond" id="mol1bnd5" x1="78.91" x2="75.58" y1="46.58" y2="35.8"/>
                  
            <line class="bond" id="mol1bnd6" x1="86.88" x2="77.5" y1="23.24" y2="29.84"/>
                  
            <line class="bond" id="mol1bnd7" x1="71.17" x2="60.23" y1="30.74" y2="26.45"/>
                  
            <g class="bond" id="mol1bnd8">
                        
                <line x1="47.03" x2="60.23" y1="34.07" y2="26.45"/>
                        
                <line x1="47.03" x2="57.79" y1="31.25" y2="25.04"/>
                      
            </g>
                  
            <line class="bond" id="mol1bnd9" x1="47.03" x2="33.83" y1="34.07" y2="26.45"/>
                  
            <g class="bond" id="mol1bnd10">
                        
                <line x1="33.83" x2="33.83" y1="11.21" y2="26.45"/>
                        
                <line x1="36.27" x2="36.27" y1="12.61" y2="25.04"/>
                      
            </g>
                  
            <line class="bond" id="mol1bnd11" x1="33.83" x2="47.03" y1="11.21" y2="3.59"/>
                  
            <g class="bond" id="mol1bnd12">
                        
                <line x1="60.23" x2="47.03" y1="11.21" y2="3.59"/>
                        
                <line x1="57.79" x2="47.03" y1="12.61" y2="6.4"/>
                      
            </g>
                  
            <line class="bond" id="mol1bnd13" x1="60.23" x2="60.23" y1="26.45" y2="11.21"/>
                  
            <line class="bond" id="mol1bnd14" x1="33.83" x2="22.16" y1="11.21" y2="4.47"/>
                  
            <line class="bond" id="mol1bnd15" x1="47.03" x2="44.76" y1="34.07" y2="49.14"/>
                  
            <g class="bond" id="mol1bnd16">
                        
                <line x1="44.76" x2="52.23" y1="49.14" y2="57.19"/>
                        
                <line x1="47.34" x2="54.02" y1="48.34" y2="55.53"/>
                      
                <line class="hi" stroke="#3050F8" x1="52.23" x2="48.495" y1="57.19" y2="53.165"/>
            </g>
                  
            <line class="bond" id="mol1bnd17" x1="58.46" x2="70.32" y1="60.06" y2="59.17"/>
                  
            <line class="bond" id="mol1bnd18" x1="78.91" x2="70.32" y1="46.58" y2="59.17"/>
                  
            <line class="bond" id="mol1bnd19" x1="44.76" x2="30.2" y1="49.14" y2="53.63"/>
                  
            <g class="bond" id="mol1bnd20">
                        
                <line x1="30.2" x2="19.07" y1="53.63" y2="43.33"/>
                        
                <line x1="27.5" x2="18.44" y1="54.46" y2="46.07"/>
                      
            </g>
                  
            <line class="bond" id="mol1bnd21" x1="19.07" x2="4.5" y1="43.33" y2="47.8"/>
                  
            <g class="bond" id="mol1bnd22">
                        
                <line x1="4.5" x2="1.05" y1="47.8" y2="62.56"/>
                        
                <line x1="6.55" x2="3.75" y1="49.72" y2="61.74"/>
                      
            </g>
                  
            <line class="bond" id="mol1bnd23" x1="1.05" x2="12.21" y1="62.56" y2="72.96"/>
                  
            <g class="bond" id="mol1bnd24">
                        
                <line x1="12.21" x2="26.78" y1="72.96" y2="68.49"/>
                        
                <line x1="12.84" x2="24.72" y1="70.21" y2="66.57"/>
                      
            </g>
                  
            <line class="bond" id="mol1bnd25" x1="30.2" x2="26.78" y1="53.63" y2="68.49"/>
                  
            <line class="bond" id="mol1bnd26" x1="26.78" x2="35.55" y1="68.49" y2="76.65"/>
                  
            <path class="atom" d="M101.01 34.83h-.72l-2.62 -4.07h-.03q.01 .24 .03 .6q.02 .36 .02 .73v2.74h-.57v-4.9h.71l2.61 4.05h.03q-.01 -.11 -.02 -.33q-.01 -.22 -.02 -.48q-.01 -.26 -.01 -.48v-2.77h.58v4.9z" id="mol1atm3" stroke="none"/>
                  
            <path class="atom" d="M96.09 49.26h-.72l-2.62 -4.07h-.03q.01 .24 .03 .6q.02 .36 .02 .73v2.74h-.57v-4.9h.71l2.61 4.05h.03q-.01 -.11 -.02 -.33q-.01 -.22 -.02 -.48q-.01 -.26 -.01 -.48v-2.77h.58v4.9z" id="mol1atm4" stroke="none"/>
                  
            <path class="atom" d="M76.36 34.46h-.72l-2.62 -4.07h-.03q.01 .24 .03 .6q.02 .36 .02 .73v2.74h-.57v-4.9h.71l2.61 4.05h.03q-.01 -.11 -.02 -.33q-.01 -.22 -.02 -.48q-.01 -.26 -.01 -.48v-2.77h.58v4.9z" id="mol1atm6" stroke="none"/>
                  
            <path class="atom" d="M16.59 .56q.92 .0 1.39 .27q.47 .27 .47 .94q.0 .43 -.24 .72q-.24 .29 -.69 .36v.04q.31 .05 .56 .18q.25 .13 .39 .38q.15 .24 .15 .62q.0 .67 -.46 1.03q-.46 .36 -1.24 .36h-1.72v-4.9h1.4zM16.71 2.65q.63 .0 .86 -.2q.24 -.2 .24 -.6q.0 -.4 -.29 -.58q-.29 -.18 -.91 -.18h-.81v1.56h.9zM15.8 3.16v1.77h.99q.65 .0 .9 -.25q.26 -.26 .26 -.67q.0 -.38 -.27 -.62q-.26 -.24 -.94 -.24h-.94zM21.28 1.71q.1 .0 .22 .01q.13 .01 .21 .03l-.07 .55q-.09 -.02 -.2 -.03q-.11 -.02 -.2 -.02q-.28 .0 -.53 .15q-.24 .15 -.39 .43q-.15 .27 -.15 .65v1.96h-.6v-3.67h.49l.07 .67h.03q.18 -.3 .46 -.52q.28 -.22 .67 -.22z" fill="#A62929" id="mol1atm13" stroke="none"/>
                  
            <path class="atom" d="M57.07 62.76h-.72l-2.62 -4.07h-.03q.01 .24 .03 .6q.02 .36 .02 .73v2.74h-.57v-4.9h.71l2.61 4.05h.03q-.01 -.11 -.02 -.33q-.01 -.22 -.02 -.48q-.01 -.26 -.01 -.48v-2.77h.58v4.9z" id="mol1atm15" stroke="none"/>
                  
            <path class="atom" d="M37.19 81.32h-.61v-4.9h2.73v.54h-2.12v1.74h1.99v.54h-1.99v2.08z" fill="#90E050" id="mol1atm23" stroke="none"/>
                
            <line class="hi" id="mol1bnd3" stroke="#3050F8" x1="97.78" x2="96.605" y1="36.16" y2="39.595"/>
            <line class="hi" id="mol1bnd3" stroke="#3050F8" x1="95.43" x2="96.605" y1="43.03" y2="39.595"/>
            <line class="hi" id="mol1bnd5" stroke="#3050F8" x1="75.58" x2="77.245" y1="35.8" y2="41.19"/>
            <line class="hi" id="mol1bnd6" stroke="#3050F8" x1="77.5" x2="82.19" y1="29.84" y2="26.54"/>
            <line class="hi" id="mol1bnd7" stroke="#3050F8" x1="71.17" x2="65.7" y1="30.74" y2="28.595"/>
            <line class="hi" id="mol1bnd14" stroke="#A62929" x1="22.16" x2="27.994999999999997" y1="4.47" y2="7.84"/>
            <line class="hi" id="mol1bnd17" stroke="#3050F8" x1="58.46" x2="64.39" y1="60.06" y2="59.615"/>
            <line class="hi" id="mol1bnd26" stroke="#90E050" x1="35.55" x2="31.165" y1="76.65" y2="72.57"/>
        </g>
          
    </g>
    
</svg>
