<svg xmlns="http://www.w3.org/2000/svg" xmlns:xlink="http://www.w3.org/1999/xlink" height="73.23mm" version="1.2" viewBox="0 0 94.49 73.23" width="94.49mm">
      
    <desc>Generated by the Chemistry Development Kit (http://github.com/cdk)</desc>
      
    <g fill="#90E050" stroke="#000000" stroke-linecap="round" stroke-linejoin="round" stroke-width=".7">
            
        <rect fill="#FFFFFF" height="74.0" stroke="none" width="95.0" x=".0" y=".0"/>
            
        <g class="mol" id="mol1">
                  
            <line class="bond" id="mol1bnd1" x1="48.28" x2="33.04" y1="1.0" y2="1.0"/>
                  
            <line class="bond" id="mol1bnd2" x1="33.04" x2="28.36" y1="1.0" y2="15.53"/>
                  
            <line class="bond" id="mol1bnd3" x1="28.36" x2="37.59" y1="15.53" y2="22.24"/>
                  
            <line class="bond" id="mol1bnd4" x1="43.73" x2="52.95" y1="22.24" y2="15.53"/>
                  
            <line class="bond" id="mol1bnd5" x1="48.28" x2="52.95" y1="1.0" y2="15.53"/>
                  
            <line class="bond" id="mol1bnd6" x1="40.66" x2="40.66" y1="28.32" y2="39.71"/>
                  
            <line class="bond" id="mol1bnd7" x1="40.66" x2="53.86" y1="39.71" y2="47.33"/>
                  
            <line class="bond" id="mol1bnd8" x1="53.86" x2="67.06" y1="47.33" y2="39.71"/>
                  
            <g class="bond" id="mol1bnd9">
                        
                <line x1="67.06" x2="80.26" y1="39.71" y2="47.34"/>
                        
                <line x1="69.49" x2="80.26" y1="38.3" y2="44.52"/>
                      
            </g>
                  
            <line class="bond" id="mol1bnd10" x1="80.26" x2="93.46" y1="47.34" y2="39.72"/>
                  
            <g class="bond" id="mol1bnd11">
                        
                <line x1="93.46" x2="93.45" y1="39.72" y2="24.47"/>
                        
                <line x1="91.02" x2="91.01" y1="38.31" y2="25.88"/>
                      
            </g>
                  
            <line class="bond" id="mol1bnd12" x1="93.45" x2="80.25" y1="24.47" y2="16.84"/>
                  
            <g class="bond" id="mol1bnd13">
                        
                <line x1="80.25" x2="67.05" y1="16.84" y2="24.46"/>
                        
                <line x1="80.25" x2="69.49" y1="19.66" y2="25.87"/>
                      
            </g>
                  
            <line class="bond" id="mol1bnd14" x1="67.06" x2="67.05" y1="39.71" y2="24.46"/>
                  
            <line class="bond" id="mol1bnd15" x1="40.66" x2="27.46" y1="39.71" y2="47.33"/>
                  
            <g class="bond" id="mol1bnd16">
                        
                <line x1="27.46" x2="14.32" y1="47.33" y2="39.77"/>
                        
                <line x1="25.02" x2="14.32" y1="48.74" y2="42.58"/>
                      
            </g>
                  
            <line class="bond" id="mol1bnd17" x1="14.32" x2="1.11" y1="39.77" y2="47.37"/>
                  
            <g class="bond" id="mol1bnd18">
                        
                <line x1="1.11" x2="1.04" y1="47.37" y2="62.53"/>
                        
                <line x1="3.54" x2="3.48" y1="48.78" y2="61.13"/>
                      
            </g>
                  
            <line class="bond" id="mol1bnd19" x1="1.04" x2="14.23" y1="62.53" y2="70.18"/>
                  
            <g class="bond" id="mol1bnd20">
                        
                <line x1="14.23" x2="27.44" y1="70.18" y2="62.58"/>
                        
                <line x1="14.23" x2="25.0" y1="67.36" y2="61.17"/>
                      
            </g>
                  
            <line class="bond" id="mol1bnd21" x1="27.46" x2="27.44" y1="47.33" y2="62.58"/>
                  
            <line class="bond" id="mol1bnd22" x1="27.44" x2="38.05" y1="62.58" y2="68.72"/>
                  
            <path class="atom" d="M42.6 26.92h-.72l-2.62 -4.07h-.03q.01 .24 .03 .6q.02 .36 .02 .73v2.74h-.57v-4.9h.71l2.61 4.05h.03q-.01 -.11 -.02 -.33q-.01 -.22 -.02 -.48q-.01 -.26 -.01 -.48v-2.77h.58v4.9z" fill="#3050F8" id="mol1atm4" stroke="none"/>
                  
            <path class="atom" d="M39.87 72.67h-.61v-4.9h2.73v.54h-2.12v1.74h1.99v.54h-1.99v2.08z" id="mol1atm20" stroke="none"/>
                
            <line class="hi" id="mol1bnd3" stroke="#3050F8" x1="37.59" x2="32.975" y1="22.24" y2="18.884999999999998"/>
            <line class="hi" id="mol1bnd4" stroke="#3050F8" x1="43.73" x2="48.34" y1="22.24" y2="18.884999999999998"/>
            <line class="hi" id="mol1bnd6" stroke="#3050F8" x1="40.66" x2="40.66" y1="28.32" y2="34.015"/>
            <line class="hi" id="mol1bnd22" stroke="#90E050" x1="38.05" x2="32.745" y1="68.72" y2="65.65"/>
        </g>
          
    </g>
    
</svg>
