<svg xmlns="http://www.w3.org/2000/svg" xmlns:xlink="http://www.w3.org/1999/xlink" height="146.24mm" version="1.2" viewBox="0 0 82.49 146.24" width="82.49mm">
      
    <desc>Generated by the Chemistry Development Kit (http://github.com/cdk)</desc>
      
    <g fill="#3050F8" stroke="#000000" stroke-linecap="round" stroke-linejoin="round" stroke-width=".7">
            
        <rect fill="#FFFFFF" height="147.0" stroke="none" width="83.0" x=".0" y=".0"/>
            
        <g class="mol" id="mol1">
                  
            <line class="bond" id="mol1bnd1" x1="14.99" x2="11.6" y1="145.26" y2="130.4"/>
                  
            <line class="bond" id="mol1bnd2" x1="11.6" x2="19.81" y1="130.4" y2="122.79"/>
                  
            <line class="bond" id="mol1bnd3" x1="26.06" x2="37.34" y1="121.05" y2="124.54"/>
                  
            <line class="bond" id="mol1bnd4" x1="37.34" x2="40.72" y1="124.54" y2="139.4"/>
                  
            <line class="bond" id="mol1bnd5" x1="21.91" x2="19.39" y1="116.23" y2="105.18"/>
                  
            <line class="bond" id="mol1bnd6" x1="19.39" x2="30.57" y1="105.18" y2="94.82"/>
                  
            <line class="bond" id="mol1bnd7" x1="30.57" x2="28.05" y1="94.82" y2="83.78"/>
                  
            <line class="bond" id="mol1bnd8" x1="23.88" x2="12.35" y1="79.19" y2="76.51"/>
                  
            <g class="bond" id="mol1bnd9">
                        
                <line x1="13.66" x2="6.24" y1="76.81" y2="86.08"/>
                        
                <line x1="11.76" x2="4.34" y1="75.29" y2="84.56"/>
                      
                <line class="hi" stroke="#FF0D0D" x1="6.24" x2="9.95" y1="86.08" y2="81.445"/>
                <line class="hi" stroke="#FF0D0D" x1="4.34" x2="8.05" y1="84.56" y2="79.92500000000001"/>
            </g>
                  
            <line class="bond" id="mol1bnd10" x1="12.35" x2="5.74" y1="76.51" y2="62.79"/>
                  
            <line class="bond" id="mol1bnd11" x1="5.74" x2="10.56" y1="62.79" y2="52.79"/>
                  
            <g class="bond" id="mol1bnd12">
                        
                <line x1="27.18" x2="15.65" y1="45.62" y2="48.31"/>
                        
                <line x1="26.58" x2="16.21" y1="48.26" y2="50.68"/>
                      
                <line class="hi" stroke="#3050F8" x1="15.65" x2="21.415" y1="48.31" y2="46.965"/>
                <line class="hi" stroke="#3050F8" x1="16.21" x2="21.395" y1="50.68" y2="49.47"/>
            </g>
                  
            <line class="bond" id="mol1bnd13" x1="27.18" x2="39.07" y1="45.62" y2="55.17"/>
                  
            <g class="bond" id="mol1bnd14">
                        
                <line x1="39.07" x2="39.07" y1="55.17" y2="70.41"/>
                        
                <line x1="41.51" x2="41.51" y1="56.58" y2="69.0"/>
                      
            </g>
                  
            <line class="bond" id="mol1bnd15" x1="30.21" x2="39.07" y1="77.53" y2="70.41"/>
                  
            <line class="bond" id="mol1bnd16" x1="39.07" x2="52.28" y1="70.41" y2="78.03"/>
                  
            <g class="bond" id="mol1bnd17">
                        
                <line x1="52.28" x2="65.48" y1="78.03" y2="70.41"/>
                        
                <line x1="52.28" x2="63.05" y1="75.22" y2="69.0"/>
                      
            </g>
                  
            <line class="bond" id="mol1bnd18" x1="65.48" x2="65.48" y1="70.41" y2="55.17"/>
                  
            <g class="bond" id="mol1bnd19">
                        
                <line x1="65.48" x2="52.28" y1="55.17" y2="47.55"/>
                        
                <line x1="63.05" x2="52.28" y1="56.58" y2="50.37"/>
                      
            </g>
                  
            <line class="bond" id="mol1bnd20" x1="39.07" x2="52.28" y1="55.17" y2="47.55"/>
                  
            <line class="bond" id="mol1bnd21" x1="65.48" x2="75.73" y1="55.17" y2="49.26"/>
                  
            <line class="bond" id="mol1bnd22" x1="27.18" x2="30.57" y1="45.62" y2="30.76"/>
                  
            <g class="bond" id="mol1bnd23">
                        
                <line x1="30.57" x2="45.05" y1="30.76" y2="26.27"/>
                        
                <line x1="31.19" x2="42.98" y1="28.01" y2="24.35"/>
                      
            </g>
                  
            <line class="bond" id="mol1bnd24" x1="45.05" x2="48.46" y1="26.27" y2="11.41"/>
                  
            <g class="bond" id="mol1bnd25">
                        
                <line x1="48.46" x2="37.39" y1="11.41" y2="1.05"/>
                        
                <line x1="45.77" x2="36.75" y1="12.24" y2="3.8"/>
                      
            </g>
                  
            <line class="bond" id="mol1bnd26" x1="37.39" x2="22.81" y1="1.05" y2="5.53"/>
                  
            <g class="bond" id="mol1bnd27">
                        
                <line x1="22.81" x2="19.4" y1="5.53" y2="20.38"/>
                        
                <line x1="24.87" x2="22.09" y1="7.44" y2="19.55"/>
                      
            </g>
                  
            <line class="bond" id="mol1bnd28" x1="30.57" x2="19.4" y1="30.76" y2="20.38"/>
                  
            <line class="bond" id="mol1bnd29" x1="19.4" x2="7.45" y1="20.38" y2="24.05"/>
                  
            <path class="atom" d="M24.72 122.49h-.72l-2.62 -4.07h-.03q.01 .24 .03 .6q.02 .36 .02 .73v2.74h-.57v-4.9h.71l2.61 4.05h.03q-.01 -.11 -.02 -.33q-.01 -.22 -.02 -.48q-.01 -.26 -.01 -.48v-2.77h.58v4.9z" id="mol1atm3" stroke="none"/>
                  
            <path class="atom" d="M29.12 82.41h-.72l-2.62 -4.07h-.03q.01 .24 .03 .6q.02 .36 .02 .73v2.74h-.57v-4.9h.71l2.61 4.05h.03q-.01 -.11 -.02 -.33q-.01 -.22 -.02 -.48q-.01 -.26 -.01 -.48v-2.77h.58v4.9z" id="mol1atm8" stroke="none"/>
                  
            <path class="atom" d="M5.08 88.4q.0 .76 -.26 1.33q-.26 .57 -.76 .88q-.5 .32 -1.24 .32q-.76 .0 -1.26 -.32q-.51 -.32 -.76 -.89q-.24 -.57 -.24 -1.33q.0 -.75 .24 -1.31q.25 -.57 .76 -.88q.51 -.32 1.27 -.32q.73 .0 1.23 .32q.5 .31 .76 .88q.26 .57 .26 1.33zM1.21 88.4q.0 .92 .39 1.46q.39 .53 1.22 .53q.84 .0 1.22 -.53q.39 -.54 .39 -1.46q.0 -.93 -.39 -1.45q-.38 -.52 -1.21 -.52q-.83 .0 -1.23 .52q-.39 .52 -.39 1.45z" fill="#FF0D0D" id="mol1atm10" stroke="none"/>
                  
            <path class="atom" d="M14.29 51.53h-.72l-2.62 -4.07h-.03q.01 .24 .03 .6q.02 .36 .02 .73v2.74h-.57v-4.9h.71l2.61 4.05h.03q-.01 -.11 -.02 -.33q-.01 -.22 -.02 -.48q-.01 -.26 -.01 -.48v-2.77h.58v4.9z" id="mol1atm12" stroke="none"/>
                  
            <path class="atom" d="M79.18 45.57q-.79 .0 -1.24 .53q-.45 .52 -.45 1.45q.0 .91 .42 1.45q.42 .53 1.27 .53q.32 .0 .61 -.05q.29 -.06 .57 -.14v.54q-.27 .1 -.57 .15q-.29 .05 -.7 .05q-.74 .0 -1.25 -.31q-.5 -.31 -.75 -.88q-.25 -.57 -.25 -1.34q.0 -.74 .27 -1.31q.27 -.57 .8 -.88q.53 -.32 1.28 -.32q.78 .0 1.35 .29l-.24 .52q-.23 -.1 -.51 -.18q-.27 -.08 -.61 -.08zM81.93 50.0h-.6v-5.21h.6v5.21z" fill="#1FF01F" id="mol1atm20" stroke="none"/>
                  
            <path class="atom" d="M4.08 27.3h-.61v-4.9h2.73v.54h-2.12v1.74h1.99v.54h-1.99v2.08z" fill="#90E050" id="mol1atm27" stroke="none"/>
                
            <line class="hi" id="mol1bnd2" stroke="#3050F8" x1="19.81" x2="15.704999999999998" y1="122.79" y2="126.595"/>
            <line class="hi" id="mol1bnd3" stroke="#3050F8" x1="26.06" x2="31.700000000000003" y1="121.05" y2="122.795"/>
            <line class="hi" id="mol1bnd5" stroke="#3050F8" x1="21.91" x2="20.65" y1="116.23" y2="110.70500000000001"/>
            <line class="hi" id="mol1bnd7" stroke="#3050F8" x1="28.05" x2="29.310000000000002" y1="83.78" y2="89.3"/>
            <line class="hi" id="mol1bnd8" stroke="#3050F8" x1="23.88" x2="18.115" y1="79.19" y2="77.85"/>
            <line class="hi" id="mol1bnd11" stroke="#3050F8" x1="10.56" x2="8.15" y1="52.79" y2="57.79"/>
            <line class="hi" id="mol1bnd15" stroke="#3050F8" x1="30.21" x2="34.64" y1="77.53" y2="73.97"/>
            <line class="hi" id="mol1bnd21" stroke="#1FF01F" x1="75.73" x2="70.605" y1="49.26" y2="52.215"/>
            <line class="hi" id="mol1bnd29" stroke="#90E050" x1="7.449999999999999" x2="13.424999999999999" y1="24.05" y2="22.215"/>
        </g>
          
    </g>
    
</svg>
