<svg xmlns="http://www.w3.org/2000/svg" xmlns:xlink="http://www.w3.org/1999/xlink" height="74.24mm" version="1.2" viewBox="0 0 116.99 74.24" width="116.99mm">
      
    <desc>Generated by the Chemistry Development Kit (http://github.com/cdk)</desc>
      
    <g fill="#FF0D0D" stroke="#000000" stroke-linecap="round" stroke-linejoin="round" stroke-width=".7">
            
        <rect fill="#FFFFFF" height="75.0" stroke="none" width="117.0" x=".0" y=".0"/>
            
        <g class="mol" id="mol1">
                  
            <line class="bond" id="mol1bnd1" x1="46.25" x2="31.3" y1="73.2" y2="70.25"/>
                  
            <line class="bond" id="mol1bnd2" x1="31.3" x2="29.95" y1="70.25" y2="59.03"/>
                  
            <line class="bond" id="mol1bnd3" x1="32.9" x2="43.3" y1="53.54" y2="48.72"/>
                  
            <line class="bond" id="mol1bnd4" x1="43.3" x2="50.78" y1="48.72" y2="56.77"/>
                  
            <line class="bond" id="mol1bnd5" x1="46.25" x2="51.62" y1="73.2" y2="63.56"/>
                  
            <line class="bond" id="mol1bnd6" x1="57.01" x2="68.87" y1="59.64" y2="58.75"/>
                  
            <line class="bond" id="mol1bnd7" x1="68.87" x2="77.45" y1="58.75" y2="46.16"/>
                  
            <g class="bond" id="mol1bnd8">
                        
                <line x1="77.05" x2="89.06" y1="44.87" y2="46.67"/>
                        
                <line x1="76.69" x2="88.7" y1="47.28" y2="49.09"/>
                      
                <line class="hi" stroke="#FF0D0D" x1="89.06" x2="83.055" y1="46.67" y2="45.769999999999996"/>
                <line class="hi" stroke="#FF0D0D" x1="88.7" x2="82.695" y1="49.09" y2="48.185"/>
            </g>
                  
            <line class="bond" id="mol1bnd9" x1="77.45" x2="74.13" y1="46.16" y2="35.38"/>
                  
            <line class="bond" id="mol1bnd10" x1="69.72" x2="58.77" y1="30.32" y2="26.03"/>
                  
            <g class="bond" id="mol1bnd11">
                        
                <line x1="45.58" x2="58.77" y1="33.65" y2="26.03"/>
                        
                <line x1="45.58" x2="56.34" y1="30.83" y2="24.62"/>
                      
            </g>
                  
            <line class="bond" id="mol1bnd12" x1="43.3" x2="45.58" y1="48.72" y2="33.65"/>
                  
            <line class="bond" id="mol1bnd13" x1="45.58" x2="32.38" y1="33.65" y2="26.03"/>
                  
            <g class="bond" id="mol1bnd14">
                        
                <line x1="32.38" x2="32.38" y1="10.79" y2="26.03"/>
                        
                <line x1="34.82" x2="34.82" y1="12.2" y2="24.62"/>
                      
                <line class="hi" stroke="#90E050" x1="34.82" x2="34.82" y1="17.95" y2="18.41"/>
            </g>
                  
            <line class="bond" id="mol1bnd15" x1="32.38" x2="45.58" y1="10.79" y2="3.17"/>
                  
            <g class="bond" id="mol1bnd16">
                        
                <line x1="58.77" x2="45.58" y1="10.79" y2="3.17"/>
                        
                <line x1="56.34" x2="45.58" y1="12.2" y2="5.98"/>
                      
            </g>
                  
            <line class="bond" id="mol1bnd17" x1="58.77" x2="58.77" y1="26.03" y2="10.79"/>
                  
            <line class="bond" id="mol1bnd18" x1="32.38" x2="20.69" y1="10.79" y2="4.04"/>
                  
            <line class="bond" id="mol1bnd19" x1="75.93" x2="84.13" y1="28.84" y2="21.23"/>
                  
            <line class="bond" id="mol1bnd20" x1="84.13" x2="98.69" y1="21.23" y2="25.72"/>
                  
            <line class="bond" id="mol1bnd21" x1="98.69" x2="107.0" y1="25.72" y2="18.02"/>
                  
            <line class="bond" id="mol1bnd22" x1="43.3" x2="27.21" y1="48.72" y2="36.65"/>
                  
            <g class="bond" id="mol1bnd23">
                        
                <line x1="13.26" x2="27.21" y1="42.59" y2="36.65"/>
                        
                <line x1="13.59" x2="24.95" y1="39.8" y2="34.96"/>
                      
            </g>
                  
            <line class="bond" id="mol1bnd24" x1="13.26" x2="1.05" y1="42.59" y2="33.47"/>
                  
            <g class="bond" id="mol1bnd25">
                        
                <line x1="2.79" x2="1.05" y1="18.41" y2="33.47"/>
                        
                <line x1="5.05" x2="3.63" y1="20.09" y2="32.36"/>
                      
            </g>
                  
            <line class="bond" id="mol1bnd26" x1="2.79" x2="16.8" y1="18.41" y2="12.39"/>
                  
            <g class="bond" id="mol1bnd27">
                        
                <line x1="29.01" x2="16.8" y1="21.51" y2="12.39"/>
                        
                <line x1="26.42" x2="16.47" y1="22.62" y2="15.18"/>
                      
            </g>
                  
            <line class="bond" id="mol1bnd28" x1="27.21" x2="29.01" y1="36.65" y2="21.51"/>
                  
            <line class="bond" id="mol1bnd29" x1="29.01" x2="40.36" y1="21.51" y2="16.64"/>
                  
            <path class="atom" d="M31.74 55.12q.0 .76 -.26 1.33q-.26 .57 -.76 .88q-.5 .32 -1.24 .32q-.76 .0 -1.26 -.32q-.51 -.32 -.76 -.89q-.24 -.57 -.24 -1.33q.0 -.75 .24 -1.31q.25 -.57 .76 -.88q.51 -.32 1.27 -.32q.73 .0 1.23 .32q.5 .31 .76 .88q.26 .57 .26 1.33zM27.87 55.12q.0 .92 .39 1.46q.39 .53 1.22 .53q.84 .0 1.22 -.53q.39 -.54 .39 -1.46q.0 -.93 -.39 -1.45q-.38 -.52 -1.21 -.52q-.83 .0 -1.23 .52q-.39 .52 -.39 1.45z" id="mol1atm3" stroke="none"/>
                  
            <path class="atom" d="M55.61 62.34h-.72l-2.62 -4.07h-.03q.01 .24 .03 .6q.02 .36 .02 .73v2.74h-.57v-4.9h.71l2.61 4.05h.03q-.01 -.11 -.02 -.33q-.01 -.22 -.02 -.48q-.01 -.26 -.01 -.48v-2.77h.58v4.9z" fill="#3050F8" id="mol1atm5" stroke="none"/>
                  
            <path class="atom" d="M94.78 48.43q.0 .76 -.26 1.33q-.26 .57 -.76 .88q-.5 .32 -1.24 .32q-.76 .0 -1.26 -.32q-.51 -.32 -.76 -.89q-.24 -.57 -.24 -1.33q.0 -.75 .24 -1.31q.25 -.57 .76 -.88q.51 -.32 1.27 -.32q.73 .0 1.23 .32q.5 .31 .76 .88q.26 .57 .26 1.33zM90.92 48.43q.0 .92 .39 1.46q.39 .53 1.22 .53q.84 .0 1.22 -.53q.39 -.54 .39 -1.46q.0 -.93 -.39 -1.45q-.38 -.52 -1.21 -.52q-.83 .0 -1.23 .52q-.39 .52 -.39 1.45z" id="mol1atm8" stroke="none"/>
                  
            <path class="atom" d="M74.9 34.04h-.72l-2.62 -4.07h-.03q.01 .24 .03 .6q.02 .36 .02 .73v2.74h-.57v-4.9h.71l2.61 4.05h.03q-.01 -.11 -.02 -.33q-.01 -.22 -.02 -.48q-.01 -.26 -.01 -.48v-2.77h.58v4.9z" fill="#3050F8" id="mol1atm9" stroke="none"/>
                  
            <path class="atom" d="M16.72 1.35q-.79 .0 -1.24 .53q-.45 .52 -.45 1.45q.0 .91 .42 1.45q.42 .53 1.27 .53q.32 .0 .61 -.05q.29 -.06 .57 -.14v.54q-.27 .1 -.57 .15q-.29 .05 -.7 .05q-.74 .0 -1.25 -.31q-.5 -.31 -.75 -.88q-.25 -.57 -.25 -1.34q.0 -.74 .27 -1.31q.27 -.57 .8 -.88q.53 -.32 1.28 -.32q.78 .0 1.35 .29l-.24 .52q-.23 -.1 -.51 -.18q-.27 -.08 -.61 -.08zM19.48 5.77h-.6v-5.21h.6v5.21z" fill="#1FF01F" id="mol1atm16" stroke="none"/>
                  
            <g class="atom" id="mol1atm19">
                        
                <path d="M112.13 15.35q.0 .76 -.26 1.33q-.26 .57 -.76 .88q-.5 .32 -1.24 .32q-.76 .0 -1.26 -.32q-.51 -.32 -.76 -.89q-.24 -.57 -.24 -1.33q.0 -.75 .24 -1.31q.25 -.57 .76 -.88q.51 -.32 1.27 -.32q.73 .0 1.23 .32q.5 .31 .76 .88q.26 .57 .26 1.33zM108.26 15.35q.0 .92 .39 1.46q.39 .53 1.22 .53q.84 .0 1.22 -.53q.39 -.54 .39 -1.46q.0 -.93 -.39 -1.45q-.38 -.52 -1.21 -.52q-.83 .0 -1.23 .52q-.39 .52 -.39 1.45z" stroke="none"/>
                        
                <path d="M116.43 17.81h-.62v-2.29h-2.51v2.29h-.61v-4.9h.61v2.07h2.51v-2.07h.62v4.9z" stroke="none"/>
                      
            </g>
                  
            <path class="atom" d="M42.26 17.95h-.61v-4.9h2.73v.54h-2.12v1.74h1.99v.54h-1.99v2.08z" fill="#90E050" id="mol1atm26" stroke="none"/>
                
            <line class="hi" id="mol1bnd2" stroke="#FF0D0D" x1="29.95" x2="30.625" y1="59.03" y2="64.64"/>
            <line class="hi" id="mol1bnd3" stroke="#FF0D0D" x1="32.9" x2="38.099999999999994" y1="53.54" y2="51.129999999999995"/>
            <line class="hi" id="mol1bnd4" stroke="#3050F8" x1="50.78" x2="47.04" y1="56.77" y2="52.745000000000005"/>
            <line class="hi" id="mol1bnd5" stroke="#3050F8" x1="51.62" x2="48.935" y1="63.56" y2="68.38"/>
            <line class="hi" id="mol1bnd6" stroke="#3050F8" x1="57.01" x2="62.94" y1="59.64" y2="59.195"/>
            <line class="hi" id="mol1bnd9" stroke="#3050F8" x1="74.13" x2="75.78999999999999" y1="35.38" y2="40.769999999999996"/>
            <line class="hi" id="mol1bnd10" stroke="#3050F8" x1="69.72" x2="64.245" y1="30.32" y2="28.175"/>
            <line class="hi" id="mol1bnd18" stroke="#1FF01F" x1="20.69" x2="26.535000000000004" y1="4.04" y2="7.414999999999999"/>
            <line class="hi" id="mol1bnd19" stroke="#3050F8" x1="75.93" x2="80.03" y1="28.84" y2="25.035"/>
            <line class="hi" id="mol1bnd21" stroke="#FF0D0D" x1="107.0" x2="102.845" y1="18.02" y2="21.869999999999997"/>
            <line class="hi" id="mol1bnd29" stroke="#90E050" x1="40.36" x2="34.685" y1="16.64" y2="19.075000000000003"/>
        </g>
          
    </g>
    
</svg>
