<svg xmlns="http://www.w3.org/2000/svg" xmlns:xlink="http://www.w3.org/1999/xlink" height="96.58mm" version="1.2" viewBox="0 0 147.27 96.58" width="147.27mm">
      
    <desc>Generated by the Chemistry Development Kit (http://github.com/cdk)</desc>
      
    <g fill="#FF0D0D" stroke="#000000" stroke-linecap="round" stroke-linejoin="round" stroke-width=".7">
            
        <rect fill="#FFFFFF" height="97.0" stroke="none" width="148.0" x=".0" y=".0"/>
            
        <g class="mol" id="mol1">
                  
            <line class="bond" id="mol1bnd1" x1="67.04" x2="80.24" y1="54.4" y2="46.78"/>
                  
            <line class="bond" id="mol1bnd2" x1="80.24" x2="80.23" y1="46.78" y2="35.38"/>
                  
            <line class="bond" id="mol1bnd3" x1="77.08" x2="67.03" y1="29.7" y2="23.9"/>
                  
            <line class="bond" id="mol1bnd4" x1="67.03" x2="53.83" y1="23.9" y2="31.52"/>
                  
            <line class="bond" id="mol1bnd5" x1="53.83" x2="53.84" y1="31.52" y2="46.77"/>
                  
            <line class="bond" id="mol1bnd6" x1="67.04" x2="53.84" y1="54.4" y2="46.77"/>
                  
            <line class="bond" id="mol1bnd7" x1="53.84" x2="43.79" y1="46.77" y2="52.57"/>
                  
            <line class="bond" id="mol1bnd8" x1="37.48" x2="27.44" y1="52.57" y2="46.77"/>
                  
            <g class="bond" id="mol1bnd9">
                        
                <line x1="27.44" x2="27.44" y1="46.77" y2="31.52"/>
                        
                <line x1="25.0" x2="25.01" y1="45.36" y2="32.93"/>
                      
            </g>
                  
            <line class="bond" id="mol1bnd10" x1="27.44" x2="14.25" y1="31.52" y2="23.9"/>
                  
            <g class="bond" id="mol1bnd11">
                        
                <line x1="14.25" x2="1.04" y1="23.9" y2="31.53"/>
                        
                <line x1="14.25" x2="3.48" y1="26.71" y2="32.93"/>
                      
            </g>
                  
            <line class="bond" id="mol1bnd12" x1="1.04" x2="1.04" y1="31.53" y2="46.78"/>
                  
            <g class="bond" id="mol1bnd13">
                        
                <line x1="1.04" x2="14.24" y1="46.78" y2="54.4"/>
                        
                <line x1="3.48" x2="14.24" y1="45.37" y2="51.58"/>
                      
            </g>
                  
            <line class="bond" id="mol1bnd14" x1="27.44" x2="14.24" y1="46.77" y2="54.4"/>
                  
            <line class="bond" id="mol1bnd15" x1="40.64" x2="40.64" y1="58.24" y2="69.63"/>
                  
            <g class="bond" id="mol1bnd16">
                        
                <line x1="40.64" x2="51.16" y1="68.22" y2="74.29"/>
                        
                <line x1="39.42" x2="49.94" y1="70.33" y2="76.41"/>
                      
                <line class="hi" stroke="#FF0D0D" x1="51.16" x2="45.9" y1="74.29" y2="71.255"/>
                <line class="hi" stroke="#FF0D0D" x1="49.94" x2="44.68" y1="76.41" y2="73.37"/>
            </g>
                  
            <line class="bond" id="mol1bnd17" x1="40.64" x2="27.44" y1="69.63" y2="77.25"/>
                  
            <g class="bond" id="mol1bnd18">
                        
                <line x1="25.78" x2="27.44" y1="92.35" y2="77.25"/>
                        
                <line x1="23.55" x2="24.82" y1="90.34" y2="78.76"/>
                      
            </g>
                  
            <line class="bond" id="mol1bnd19" x1="25.78" x2="10.88" y1="92.35" y2="95.54"/>
                  
            <g class="bond" id="mol1bnd20">
                        
                <line x1="3.3" x2="10.88" y1="82.4" y2="95.54"/>
                        
                <line x1="6.29" x2="12.1" y1="82.72" y2="92.78"/>
                      
            </g>
                  
            <line class="bond" id="mol1bnd21" x1="3.3" x2="10.79" y1="82.4" y2="74.05"/>
                  
            <line class="bond" id="mol1bnd22" x1="27.44" x2="16.9" y1="77.25" y2="72.61"/>
                  
            <line class="bond" id="mol1bnd23" x1="83.39" x2="93.43" y1="29.71" y2="23.91"/>
                  
            <line class="bond" id="mol1bnd24" x1="93.43" x2="106.63" y1="23.91" y2="31.53"/>
                  
            <line class="bond" id="mol1bnd25" x1="106.63" x2="119.83" y1="31.53" y2="23.91"/>
                  
            <g class="bond" id="mol1bnd26">
                        
                <line x1="119.82" x2="119.83" y1="8.66" y2="23.91"/>
                        
                <line x1="122.26" x2="122.27" y1="10.07" y2="22.5"/>
                      
            </g>
                  
            <line class="bond" id="mol1bnd27" x1="119.82" x2="133.02" y1="8.66" y2="1.04"/>
                  
            <g class="bond" id="mol1bnd28">
                        
                <line x1="146.22" x2="133.02" y1="8.67" y2="1.04"/>
                        
                <line x1="143.79" x2="133.02" y1="10.07" y2="3.85"/>
                      
            </g>
                  
            <line class="bond" id="mol1bnd29" x1="146.22" x2="146.23" y1="8.67" y2="23.92"/>
                  
            <g class="bond" id="mol1bnd30">
                        
                <line x1="133.03" x2="146.23" y1="31.54" y2="23.92"/>
                        
                <line x1="133.03" x2="143.79" y1="28.72" y2="22.51"/>
                      
            </g>
                  
            <line class="bond" id="mol1bnd31" x1="119.83" x2="133.03" y1="23.91" y2="31.54"/>
                  
            <path class="atom" d="M82.17 33.98h-.72l-2.62 -4.07h-.03q.01 .24 .03 .6q.02 .36 .02 .73v2.74h-.57v-4.9h.71l2.61 4.05h.03q-.01 -.11 -.02 -.33q-.01 -.22 -.02 -.48q-.01 -.26 -.01 -.48v-2.77h.58v4.9z" fill="#3050F8" id="mol1atm3" stroke="none"/>
                  
            <path class="atom" d="M42.58 56.84h-.72l-2.62 -4.07h-.03q.01 .24 .03 .6q.02 .36 .02 .73v2.74h-.57v-4.9h.71l2.61 4.05h.03q-.01 -.11 -.02 -.33q-.01 -.22 -.02 -.48q-.01 -.26 -.01 -.48v-2.77h.58v4.9z" fill="#3050F8" id="mol1atm7" stroke="none"/>
                  
            <path class="atom" d="M56.1 77.24q.0 .76 -.26 1.33q-.26 .57 -.76 .88q-.5 .32 -1.24 .32q-.76 .0 -1.26 -.32q-.51 -.32 -.76 -.89q-.24 -.57 -.24 -1.33q.0 -.75 .24 -1.31q.25 -.57 .76 -.88q.51 -.32 1.27 -.32q.73 .0 1.23 .32q.5 .31 .76 .88q.26 .57 .26 1.33zM52.23 77.24q.0 .92 .39 1.46q.39 .53 1.22 .53q.84 .0 1.22 -.53q.39 -.54 .39 -1.46q.0 -.93 -.39 -1.45q-.38 -.52 -1.21 -.52q-.83 .0 -1.23 .52q-.39 .52 -.39 1.45z" id="mol1atm15" stroke="none"/>
                  
            <path class="atom" d="M15.71 71.09q.0 .76 -.26 1.33q-.26 .57 -.76 .88q-.5 .32 -1.24 .32q-.76 .0 -1.26 -.32q-.51 -.32 -.76 -.89q-.24 -.57 -.24 -1.33q.0 -.75 .24 -1.31q.25 -.57 .76 -.88q.51 -.32 1.27 -.32q.73 .0 1.23 .32q.5 .31 .76 .88q.26 .57 .26 1.33zM11.85 71.09q.0 .92 .39 1.46q.39 .53 1.22 .53q.84 .0 1.22 -.53q.39 -.54 .39 -1.46q.0 -.93 -.39 -1.45q-.38 -.52 -1.21 -.52q-.83 .0 -1.23 .52q-.39 .52 -.39 1.45z" id="mol1atm20" stroke="none"/>
                
            <line class="hi" id="mol1bnd2" stroke="#3050F8" x1="80.23" x2="80.235" y1="35.38" y2="41.08"/>
            <line class="hi" id="mol1bnd3" stroke="#3050F8" x1="77.08" x2="72.055" y1="29.7" y2="26.799999999999997"/>
            <line class="hi" id="mol1bnd7" stroke="#3050F8" x1="43.79" x2="48.815" y1="52.57" y2="49.67"/>
            <line class="hi" id="mol1bnd8" stroke="#3050F8" x1="37.48" x2="32.46" y1="52.57" y2="49.67"/>
            <line class="hi" id="mol1bnd15" stroke="#3050F8" x1="40.64" x2="40.64" y1="58.24" y2="63.935"/>
            <line class="hi" id="mol1bnd21" stroke="#FF0D0D" x1="10.79" x2="7.045" y1="74.05" y2="78.225"/>
            <line class="hi" id="mol1bnd22" stroke="#FF0D0D" x1="16.9" x2="22.17" y1="72.61" y2="74.93"/>
            <line class="hi" id="mol1bnd23" stroke="#3050F8" x1="83.39" x2="88.41" y1="29.71" y2="26.810000000000002"/>
        </g>
          
    </g>
    
</svg>
