<svg xmlns="http://www.w3.org/2000/svg" xmlns:xlink="http://www.w3.org/1999/xlink" height="64.95mm" version="1.2" viewBox="0 0 107.67 64.95" width="107.67mm">
      
    <desc>Generated by the Chemistry Development Kit (http://github.com/cdk)</desc>
      
    <g fill="#3050F8" stroke="#000000" stroke-linecap="round" stroke-linejoin="round" stroke-width=".7">
            
        <rect fill="#FFFFFF" height="65.0" stroke="none" width="108.0" x=".0" y=".0"/>
            
        <g class="mol" id="mol1">
                  
            <line class="bond" id="mol1bnd1" x1="106.63" x2="93.43" y1="39.01" y2="46.63"/>
                  
            <line class="bond" id="mol1bnd2" x1="93.43" x2="80.23" y1="46.63" y2="39.01"/>
                  
            <line class="bond" id="mol1bnd3" x1="80.23" x2="67.03" y1="39.01" y2="46.63"/>
                  
            <line class="bond" id="mol1bnd4" x1="67.03" x2="53.84" y1="46.63" y2="39.01"/>
                  
            <line class="bond" id="mol1bnd5" x1="53.84" x2="40.64" y1="39.01" y2="46.63"/>
                  
            <g class="bond" id="mol1bnd6">
                        
                <line x1="41.86" x2="41.86" y1="45.93" y2="57.95"/>
                        
                <line x1="39.42" x2="39.42" y1="45.93" y2="57.95"/>
                      
                <line class="hi" stroke="#FF0D0D" x1="41.86" x2="41.86" y1="57.95" y2="51.94"/>
                <line class="hi" stroke="#FF0D0D" x1="39.42" x2="39.42" y1="57.95" y2="51.94"/>
            </g>
                  
            <line class="bond" id="mol1bnd7" x1="40.64" x2="27.44" y1="46.63" y2="39.01"/>
                  
            <g class="bond" id="mol1bnd8">
                        
                <line x1="14.24" x2="27.44" y1="46.64" y2="39.01"/>
                        
                <line x1="14.24" x2="25.0" y1="43.82" y2="37.6"/>
                      
            </g>
                  
            <line class="bond" id="mol1bnd9" x1="14.24" x2="1.04" y1="46.64" y2="39.02"/>
                  
            <g class="bond" id="mol1bnd10">
                        
                <line x1="1.04" x2="1.04" y1="23.77" y2="39.02"/>
                        
                <line x1="3.48" x2="3.48" y1="25.18" y2="37.61"/>
                      
            </g>
                  
            <line class="bond" id="mol1bnd11" x1="1.04" x2="14.25" y1="23.77" y2="16.14"/>
                  
            <g class="bond" id="mol1bnd12">
                        
                <line x1="27.44" x2="14.25" y1="23.76" y2="16.14"/>
                        
                <line x1="25.01" x2="14.25" y1="25.17" y2="18.96"/>
                      
            </g>
                  
            <line class="bond" id="mol1bnd13" x1="27.44" x2="27.44" y1="39.01" y2="23.76"/>
                  
            <line class="bond" id="mol1bnd14" x1="53.84" x2="53.84" y1="39.01" y2="27.62"/>
                  
            <line class="bond" id="mol1bnd15" x1="56.99" x2="67.03" y1="21.95" y2="16.15"/>
                  
            <line class="bond" id="mol1bnd16" x1="67.03" x2="67.03" y1="16.15" y2=".91"/>
                  
            <path class="atom" d="M42.9 61.87q.0 .76 -.26 1.33q-.26 .57 -.76 .88q-.5 .32 -1.24 .32q-.76 .0 -1.26 -.32q-.51 -.32 -.76 -.89q-.24 -.57 -.24 -1.33q.0 -.75 .24 -1.31q.25 -.57 .76 -.88q.51 -.32 1.27 -.32q.73 .0 1.23 .32q.5 .31 .76 .88q.26 .57 .26 1.33zM39.03 61.87q.0 .92 .39 1.46q.39 .53 1.22 .53q.84 .0 1.22 -.53q.39 -.54 .39 -1.46q.0 -.93 -.39 -1.45q-.38 -.52 -1.21 -.52q-.83 .0 -1.23 .52q-.39 .52 -.39 1.45z" fill="#FF0D0D" id="mol1atm7" stroke="none"/>
                  
            <g class="atom" id="mol1atm14">
                        
                <path d="M55.78 26.22h-.72l-2.62 -4.07h-.03q.01 .24 .03 .6q.02 .36 .02 .73v2.74h-.57v-4.9h.71l2.61 4.05h.03q-.01 -.11 -.02 -.33q-.01 -.22 -.02 -.48q-.01 -.26 -.01 -.48v-2.77h.58v4.9z" stroke="none"/>
                        
                <path d="M51.33 26.22h-.62v-2.29h-2.51v2.29h-.61v-4.9h.61v2.07h2.51v-2.07h.62v4.9z" stroke="none"/>
                      
            </g>
                
            <line class="hi" id="mol1bnd14" stroke="#3050F8" x1="53.84" x2="53.84" y1="27.62" y2="33.315"/>
            <line class="hi" id="mol1bnd14" stroke="#3050F8" x1="53.84" x2="53.84" y1="27.62" y2="33.315"/>
            <line class="hi" id="mol1bnd15" stroke="#3050F8" x1="56.99" x2="62.010000000000005" y1="21.95" y2="19.049999999999997"/>
            <line class="hi" id="mol1bnd15" stroke="#3050F8" x1="56.99" x2="62.010000000000005" y1="21.95" y2="19.049999999999997"/>
        </g>
          
    </g>
    
</svg>
