<svg xmlns="http://www.w3.org/2000/svg" xmlns:xlink="http://www.w3.org/1999/xlink" height="101.15mm" version="1.2" viewBox="0 0 96.26 101.15" width="96.26mm">
      
    <desc>Generated by the Chemistry Development Kit (http://github.com/cdk)</desc>
      
    <g fill="#FF0D0D" stroke="#000000" stroke-linecap="round" stroke-linejoin="round" stroke-width=".7">
            
        <rect fill="#FFFFFF" height="102.0" stroke="none" width="97.0" x=".0" y=".0"/>
            
        <g class="mol" id="mol1">
                  
            <line class="bond" id="mol1bnd1" x1="42.42" x2="32.5" y1="100.11" y2="94.38"/>
                  
            <line class="bond" id="mol1bnd2" x1="29.22" x2="29.22" y1="88.57" y2="77.25"/>
                  
            <g class="bond" id="mol1bnd3">
                        
                <line x1="16.02" x2="29.22" y1="69.63" y2="77.25"/>
                        
                <line x1="18.45" x2="29.22" y1="68.22" y2="74.44"/>
                      
            </g>
                  
            <line class="bond" id="mol1bnd4" x1="16.02" x2="16.02" y1="69.63" y2="54.39"/>
                  
            <g class="bond" id="mol1bnd5">
                        
                <line x1="16.02" x2="5.48" y1="55.8" y2="49.72"/>
                        
                <line x1="17.24" x2="6.7" y1="53.69" y2="47.61"/>
                      
                <line class="hi" stroke="#FF0D0D" x1="5.48" x2="10.75" y1="49.72" y2="52.76"/>
                <line class="hi" stroke="#FF0D0D" x1="6.699999999999999" x2="11.969999999999999" y1="47.61" y2="50.65"/>
            </g>
                  
            <line class="bond" id="mol1bnd6" x1="16.02" x2="25.94" y1="54.39" y2="48.67"/>
                  
            <line class="bond" id="mol1bnd7" x1="32.5" x2="42.43" y1="48.66" y2="54.39"/>
                  
            <line class="bond" id="mol1bnd8" x1="42.43" x2="42.43" y1="54.39" y2="69.63"/>
                  
            <line class="bond" id="mol1bnd9" x1="29.22" x2="42.43" y1="77.25" y2="69.63"/>
                  
            <line class="bond" id="mol1bnd10" x1="42.43" x2="55.63" y1="54.39" y2="46.77"/>
                  
            <g class="bond" id="mol1bnd11">
                        
                <line x1="55.63" x2="55.63" y1="46.77" y2="31.53"/>
                        
                <line x1="53.19" x2="53.19" y1="45.36" y2="32.94"/>
                      
            </g>
                  
            <line class="bond" id="mol1bnd12" x1="55.63" x2="68.82" y1="31.53" y2="23.91"/>
                  
            <g class="bond" id="mol1bnd13">
                        
                <line x1="68.82" x2="68.82" y1="8.66" y2="23.91"/>
                        
                <line x1="71.26" x2="71.26" y1="10.07" y2="22.5"/>
                      
            </g>
                  
            <line class="bond" id="mol1bnd14" x1="68.82" x2="82.01" y1="8.66" y2="1.04"/>
                  
            <line class="bond" id="mol1bnd15" x1="82.01" x2="95.22" y1="1.04" y2="8.66"/>
                  
            <line class="bond" id="mol1bnd16" x1="95.22" x2="95.23" y1="8.66" y2="23.91"/>
                  
            <g class="bond" id="mol1bnd17">
                        
                <line x1="82.03" x2="95.23" y1="31.54" y2="23.91"/>
                        
                <line x1="82.03" x2="92.79" y1="28.72" y2="22.51"/>
                      
            </g>
                  
            <line class="bond" id="mol1bnd18" x1="68.82" x2="82.03" y1="23.91" y2="31.54"/>
                  
            <path class="atom" d="M31.48 92.49q.0 .76 -.26 1.33q-.26 .57 -.76 .88q-.5 .32 -1.24 .32q-.76 .0 -1.26 -.32q-.51 -.32 -.76 -.89q-.24 -.57 -.24 -1.33q.0 -.75 .24 -1.31q.25 -.57 .76 -.88q.51 -.32 1.27 -.32q.73 .0 1.23 .32q.5 .31 .76 .88q.26 .57 .26 1.33zM27.62 92.49q.0 .92 .39 1.46q.39 .53 1.22 .53q.84 .0 1.22 -.53q.39 -.54 .39 -1.46q.0 -.93 -.39 -1.45q-.38 -.52 -1.21 -.52q-.83 .0 -1.23 .52q-.39 .52 -.39 1.45z" id="mol1atm2" stroke="none"/>
                  
            <path class="atom" d="M5.08 46.77q.0 .76 -.26 1.33q-.26 .57 -.76 .88q-.5 .32 -1.24 .32q-.76 .0 -1.26 -.32q-.51 -.32 -.76 -.89q-.24 -.57 -.24 -1.33q.0 -.75 .24 -1.31q.25 -.57 .76 -.88q.51 -.32 1.27 -.32q.73 .0 1.23 .32q.5 .31 .76 .88q.26 .57 .26 1.33zM1.21 46.77q.0 .92 .39 1.46q.39 .53 1.22 .53q.84 .0 1.22 -.53q.39 -.54 .39 -1.46q.0 -.93 -.39 -1.45q-.38 -.52 -1.21 -.52q-.83 .0 -1.23 .52q-.39 .52 -.39 1.45z" id="mol1atm6" stroke="none"/>
                  
            <path class="atom" d="M31.48 46.77q.0 .76 -.26 1.33q-.26 .57 -.76 .88q-.5 .32 -1.24 .32q-.76 .0 -1.26 -.32q-.51 -.32 -.76 -.89q-.24 -.57 -.24 -1.33q.0 -.75 .24 -1.31q.25 -.57 .76 -.88q.51 -.32 1.27 -.32q.73 .0 1.23 .32q.5 .31 .76 .88q.26 .57 .26 1.33zM27.62 46.77q.0 .92 .39 1.46q.39 .53 1.22 .53q.84 .0 1.22 -.53q.39 -.54 .39 -1.46q.0 -.93 -.39 -1.45q-.38 -.52 -1.21 -.52q-.83 .0 -1.23 .52q-.39 .52 -.39 1.45z" id="mol1atm7" stroke="none"/>
                
            <line class="hi" id="mol1bnd1" stroke="#FF0D0D" x1="32.5" x2="37.46" y1="94.38" y2="97.245"/>
            <line class="hi" id="mol1bnd2" stroke="#FF0D0D" x1="29.22" x2="29.22" y1="88.57" y2="82.91"/>
            <line class="hi" id="mol1bnd6" stroke="#FF0D0D" x1="25.94" x2="20.98" y1="48.67" y2="51.53"/>
            <line class="hi" id="mol1bnd7" stroke="#FF0D0D" x1="32.5" x2="37.465" y1="48.66" y2="51.525"/>
        </g>
          
    </g>
    
</svg>
