<svg xmlns="http://www.w3.org/2000/svg" xmlns:xlink="http://www.w3.org/1999/xlink" height="83.59mm" version="1.2" viewBox="0 0 95.44 83.59" width="95.44mm">
      
    <desc>Generated by the Chemistry Development Kit (http://github.com/cdk)</desc>
      
    <g fill="#FF0D0D" stroke="#000000" stroke-linecap="round" stroke-linejoin="round" stroke-width=".7">
            
        <rect fill="#FFFFFF" height="84.0" stroke="none" width="96.0" x=".0" y=".0"/>
            
        <g class="mol" id="mol1">
                  
            <line class="bond" id="mol1bnd1" x1="13.35" x2="27.54" y1="72.64" y2="67.07"/>
                  
            <g class="bond" id="mol1bnd2">
                        
                <line x1="27.54" x2="39.45" y1="67.07" y2="76.57"/>
                        
                <line x1="30.16" x2="39.87" y1="66.04" y2="73.79"/>
                      
            </g>
                  
            <line class="bond" id="mol1bnd3" x1="39.45" x2="53.64" y1="76.57" y2="71.0"/>
                  
            <g class="bond" id="mol1bnd4">
                        
                <line x1="53.85" x2="63.3" y1="69.61" y2="77.15"/>
                        
                <line x1="52.33" x2="61.78" y1="71.52" y2="79.05"/>
                      
                <line class="hi" stroke="#FF0D0D" x1="63.3" x2="58.575" y1="77.15" y2="73.38"/>
                <line class="hi" stroke="#FF0D0D" x1="61.78" x2="57.055" y1="79.05" y2="75.285"/>
            </g>
                  
            <line class="bond" id="mol1bnd5" x1="53.64" x2="55.33" y1="71.0" y2="59.77"/>
                  
            <line class="bond" id="mol1bnd6" x1="59.22" x2="70.77" y1="55.18" y2="52.54"/>
                  
            <line class="bond" id="mol1bnd7" x1="70.77" x2="77.38" y1="52.54" y2="38.81"/>
                  
            <g class="bond" id="mol1bnd8">
                        
                <line x1="76.79" x2="88.96" y1="37.59" y2="37.59"/>
                        
                <line x1="76.79" x2="88.96" y1="40.03" y2="40.03"/>
                      
                <line class="hi" stroke="#FF0D0D" x1="88.96" x2="82.875" y1="37.59" y2="37.59"/>
                <line class="hi" stroke="#FF0D0D" x1="88.96" x2="82.875" y1="40.03" y2="40.03"/>
            </g>
                  
            <line class="bond" id="mol1bnd9" x1="77.38" x2="72.56" y1="38.81" y2="28.79"/>
                  
            <line class="bond" id="mol1bnd10" x1="67.46" x2="55.91" y1="24.33" y2="21.69"/>
                  
            <g class="bond" id="mol1bnd11">
                        
                <line x1="44.0" x2="55.91" y1="31.19" y2="21.69"/>
                        
                <line x1="43.58" x2="53.29" y1="28.41" y2="20.66"/>
                      
            </g>
                  
            <line class="bond" id="mol1bnd12" x1="44.0" x2="44.0" y1="31.19" y2="46.43"/>
                  
            <line class="bond" id="mol1bnd13" x1="52.88" x2="44.0" y1="53.51" y2="46.43"/>
                  
            <line class="bond" id="mol1bnd14" x1="44.0" x2="33.33" y1="46.43" y2="50.62"/>
                  
            <line class="bond" id="mol1bnd15" x1="27.54" x2="29.22" y1="67.07" y2="55.9"/>
                  
            <line class="bond" id="mol1bnd16" x1="44.0" x2="27.37" y1="46.43" y2="35.1"/>
                  
            <g class="bond" id="mol1bnd17">
                        
                <line x1="13.64" x2="27.37" y1="41.72" y2="35.1"/>
                        
                <line x1="13.85" x2="25.05" y1="38.91" y2="33.51"/>
                      
            </g>
                  
            <line class="bond" id="mol1bnd18" x1="13.64" x2="1.05" y1="41.72" y2="33.13"/>
                  
            <g class="bond" id="mol1bnd19">
                        
                <line x1="2.19" x2="1.05" y1="17.93" y2="33.13"/>
                        
                <line x1="4.52" x2="3.58" y1="19.52" y2="31.91"/>
                      
            </g>
                  
            <line class="bond" id="mol1bnd20" x1="2.19" x2="15.93" y1="17.93" y2="11.31"/>
                  
            <g class="bond" id="mol1bnd21">
                        
                <line x1="28.52" x2="15.93" y1="19.89" y2="11.31"/>
                        
                <line x1="25.98" x2="15.72" y1="21.12" y2="14.12"/>
                      
            </g>
                  
            <line class="bond" id="mol1bnd22" x1="27.37" x2="28.52" y1="35.1" y2="19.89"/>
                  
            <line class="bond" id="mol1bnd23" x1="44.0" x2="29.81" y1="31.19" y2="25.62"/>
                  
            <g class="bond" id="mol1bnd24">
                        
                <line x1="27.54" x2="29.81" y1="10.55" y2="25.62"/>
                        
                <line x1="30.16" x2="32.01" y1="11.58" y2="23.87"/>
                      
            </g>
                  
            <line class="bond" id="mol1bnd25" x1="27.54" x2="39.45" y1="10.55" y2="1.05"/>
                  
            <g class="bond" id="mol1bnd26">
                        
                <line x1="53.64" x2="39.45" y1="6.62" y2="1.05"/>
                        
                <line x1="51.44" x2="39.87" y1="8.38" y2="3.84"/>
                      
            </g>
                  
            <line class="bond" id="mol1bnd27" x1="55.91" x2="53.64" y1="21.69" y2="6.62"/>
                  
            <line class="bond" id="mol1bnd28" x1="27.54" x2="14.96" y1="10.55" y2="5.62"/>
                  
            <line class="bond" id="mol1bnd29" x1="73.58" x2="80.27" y1="21.55" y2="13.17"/>
                  
            <path class="atom" d="M67.81 80.5q.0 .76 -.26 1.33q-.26 .57 -.76 .88q-.5 .32 -1.24 .32q-.76 .0 -1.26 -.32q-.51 -.32 -.76 -.89q-.24 -.57 -.24 -1.33q.0 -.75 .24 -1.31q.25 -.57 .76 -.88q.51 -.32 1.27 -.32q.73 .0 1.23 .32q.5 .31 .76 .88q.26 .57 .26 1.33zM63.95 80.5q.0 .92 .39 1.46q.39 .53 1.22 .53q.84 .0 1.22 -.53q.39 -.54 .39 -1.46q.0 -.93 -.39 -1.45q-.38 -.52 -1.21 -.52q-.83 .0 -1.23 .52q-.39 .52 -.39 1.45z" id="mol1atm5" stroke="none"/>
                  
            <path class="atom" d="M57.85 58.38h-.72l-2.62 -4.07h-.03q.01 .24 .03 .6q.02 .36 .02 .73v2.74h-.57v-4.9h.71l2.61 4.05h.03q-.01 -.11 -.02 -.33q-.01 -.22 -.02 -.48q-.01 -.26 -.01 -.48v-2.77h.58v4.9z" fill="#3050F8" id="mol1atm6" stroke="none"/>
                  
            <path class="atom" d="M94.88 38.81q.0 .76 -.26 1.33q-.26 .57 -.76 .88q-.5 .32 -1.24 .32q-.76 .0 -1.26 -.32q-.51 -.32 -.76 -.89q-.24 -.57 -.24 -1.33q.0 -.75 .24 -1.31q.25 -.57 .76 -.88q.51 -.32 1.27 -.32q.73 .0 1.23 .32q.5 .31 .76 .88q.26 .57 .26 1.33zM91.02 38.81q.0 .92 .39 1.46q.39 .53 1.22 .53q.84 .0 1.22 -.53q.39 -.54 .39 -1.46q.0 -.93 -.39 -1.45q-.38 -.52 -1.21 -.52q-.83 .0 -1.23 .52q-.39 .52 -.39 1.45z" id="mol1atm9" stroke="none"/>
                  
            <path class="atom" d="M72.71 27.53h-.72l-2.62 -4.07h-.03q.01 .24 .03 .6q.02 .36 .02 .73v2.74h-.57v-4.9h.71l2.61 4.05h.03q-.01 -.11 -.02 -.33q-.01 -.22 -.02 -.48q-.01 -.26 -.01 -.48v-2.77h.58v4.9z" fill="#3050F8" id="mol1atm10" stroke="none"/>
                  
            <path class="atom" d="M32.07 52.0q.0 .76 -.26 1.33q-.26 .57 -.76 .88q-.5 .32 -1.24 .32q-.76 .0 -1.26 -.32q-.51 -.32 -.76 -.89q-.24 -.57 -.24 -1.33q.0 -.75 .24 -1.31q.25 -.57 .76 -.88q.51 -.32 1.27 -.32q.73 .0 1.23 .32q.5 .31 .76 .88q.26 .57 .26 1.33zM28.2 52.0q.0 .92 .39 1.46q.39 .53 1.22 .53q.84 .0 1.22 -.53q.39 -.54 .39 -1.46q.0 -.93 -.39 -1.45q-.38 -.52 -1.21 -.52q-.83 .0 -1.23 .52q-.39 .52 -.39 1.45z" id="mol1atm14" stroke="none"/>
                  
            <path class="atom" d="M10.9 3.17q-.79 .0 -1.24 .53q-.45 .52 -.45 1.45q.0 .91 .42 1.45q.42 .53 1.27 .53q.32 .0 .61 -.05q.29 -.06 .57 -.14v.54q-.27 .1 -.57 .15q-.29 .05 -.7 .05q-.74 .0 -1.25 -.31q-.5 -.31 -.75 -.88q-.25 -.57 -.25 -1.34q.0 -.74 .27 -1.31q.27 -.57 .8 -.88q.53 -.32 1.28 -.32q.78 .0 1.35 .29l-.24 .52q-.23 -.1 -.51 -.18q-.27 -.08 -.61 -.08zM13.65 7.59h-.6v-5.21h.6v5.21z" fill="#1FF01F" id="mol1atm25" stroke="none"/>
                
            <line class="hi" id="mol1bnd5" stroke="#3050F8" x1="55.33" x2="54.485" y1="59.77" y2="65.385"/>
            <line class="hi" id="mol1bnd6" stroke="#3050F8" x1="59.22" x2="64.995" y1="55.18" y2="53.86"/>
            <line class="hi" id="mol1bnd9" stroke="#3050F8" x1="72.56" x2="74.97" y1="28.79" y2="33.8"/>
            <line class="hi" id="mol1bnd10" stroke="#3050F8" x1="67.46" x2="61.684999999999995" y1="24.33" y2="23.009999999999998"/>
            <line class="hi" id="mol1bnd13" stroke="#3050F8" x1="52.88" x2="48.44" y1="53.51" y2="49.97"/>
            <line class="hi" id="mol1bnd14" stroke="#FF0D0D" x1="33.33" x2="38.665" y1="50.62" y2="48.525"/>
            <line class="hi" id="mol1bnd15" stroke="#FF0D0D" x1="29.22" x2="28.38" y1="55.9" y2="61.485"/>
            <line class="hi" id="mol1bnd28" stroke="#1FF01F" x1="14.96" x2="21.25" y1="5.62" y2="8.085"/>
            <line class="hi" id="mol1bnd29" stroke="#3050F8" x1="73.58" x2="76.925" y1="21.55" y2="17.36"/>
        </g>
          
    </g>
    
</svg>
