<svg xmlns="http://www.w3.org/2000/svg" xmlns:xlink="http://www.w3.org/1999/xlink" height="50.43mm" version="1.2" viewBox="0 0 78.42 50.43" width="78.42mm">
      
    <desc>Generated by the Chemistry Development Kit (http://github.com/cdk)</desc>
      
    <g fill="#3050F8" stroke="#000000" stroke-linecap="round" stroke-linejoin="round" stroke-width=".7">
            
        <rect fill="#FFFFFF" height="51.0" stroke="none" width="79.0" x=".0" y=".0"/>
            
        <g class="mol" id="mol1">
                  
            <line class="bond" id="mol1bnd1" x1="30.75" x2="42.44" y1=".97" y2="3.03"/>
                  
            <line class="bond" id="mol1bnd2" x1="47.13" x2="50.97" y1="7.38" y2="17.94"/>
                  
            <line class="bond" id="mol1bnd3" x1="50.97" x2="64.18" y1="17.94" y2="10.32"/>
                  
            <line class="bond" id="mol1bnd4" x1="64.18" x2="77.39" y1="10.32" y2="17.94"/>
                  
            <line class="bond" id="mol1bnd5" x1="77.39" x2="77.39" y1="17.94" y2="33.18"/>
                  
            <line class="bond" id="mol1bnd6" x1="77.39" x2="64.18" y1="33.18" y2="40.8"/>
                  
            <line class="bond" id="mol1bnd7" x1="64.18" x2="50.97" y1="40.8" y2="33.18"/>
                  
            <line class="bond" id="mol1bnd8" x1="50.97" x2="50.97" y1="17.94" y2="33.18"/>
                  
            <g class="bond" id="mol1bnd9">
                        
                <line x1="52.19" x2="41.66" y1="33.88" y2="39.96"/>
                        
                <line x1="50.97" x2="40.44" y1="31.77" y2="37.85"/>
                      
                <line class="hi" stroke="#FF0D0D" x1="41.66" x2="46.925" y1="39.96" y2="36.92"/>
                <line class="hi" stroke="#1FF01F" x1="41.66" x2="46.925" y1="39.96" y2="36.92"/>
                <line class="hi" stroke="#FF0D0D" x1="40.44" x2="45.705" y1="37.85" y2="34.81"/>
            </g>
                  
            <line class="bond" id="mol1bnd10" x1="50.97" x2="31.16" y1="17.94" y2="21.43"/>
                  
            <g class="bond" id="mol1bnd11">
                        
                <line x1="31.16" x2="21.34" y1="21.43" y2="9.71"/>
                        
                <line x1="28.39" x2="20.38" y1="21.92" y2="12.37"/>
                      
            </g>
                  
            <line class="bond" id="mol1bnd12" x1="21.34" x2="6.35" y1="9.71" y2="12.5"/>
                  
            <g class="bond" id="mol1bnd13">
                        
                <line x1="6.35" x2="1.05" y1="12.5" y2="26.81"/>
                        
                <line x1="8.16" x2="3.84" y1="14.64" y2="26.32"/>
                      
            </g>
                  
            <line class="bond" id="mol1bnd14" x1="1.05" x2="10.97" y1="26.81" y2="38.51"/>
                  
            <g class="bond" id="mol1bnd15">
                        
                <line x1="10.97" x2="25.96" y1="38.51" y2="35.72"/>
                        
                <line x1="11.92" x2="24.14" y1="35.85" y2="33.58"/>
                      
            </g>
                  
            <line class="bond" id="mol1bnd16" x1="31.16" x2="25.96" y1="21.43" y2="35.72"/>
                  
            <line class="bond" id="mol1bnd17" x1="25.96" x2="33.49" y1="35.72" y2="44.62"/>
                  
            <g class="atom" id="mol1atm2">
                        
                <path d="M47.7 6.06h-.72l-2.62 -4.07h-.03q.01 .24 .03 .6q.02 .36 .02 .73v2.74h-.57v-4.9h.71l2.61 4.05h.03q-.01 -.11 -.02 -.33q-.01 -.22 -.02 -.48q-.01 -.26 -.01 -.48v-2.77h.58v4.9z" stroke="none"/>
                        
                <path d="M52.01 6.06h-.62v-2.29h-2.51v2.29h-.61v-4.9h.61v2.07h2.51v-2.07h.62v4.9z" stroke="none"/>
                      
            </g>
                  
            <path class="atom" d="M40.03 40.8q.0 .76 -.26 1.33q-.26 .57 -.76 .88q-.5 .32 -1.24 .32q-.76 .0 -1.26 -.32q-.51 -.32 -.76 -.89q-.24 -.57 -.24 -1.33q.0 -.75 .24 -1.31q.25 -.57 .76 -.88q.51 -.32 1.27 -.32q.73 .0 1.23 .32q.5 .31 .76 .88q.26 .57 .26 1.33zM36.17 40.8q.0 .92 .39 1.46q.39 .53 1.22 .53q.84 .0 1.22 -.53q.39 -.54 .39 -1.46q.0 -.93 -.39 -1.45q-.38 -.52 -1.21 -.52q-.83 .0 -1.23 .52q-.39 .52 -.39 1.45z" fill="#FF0D0D" id="mol1atm9" stroke="none"/>
                  
            <path class="atom" d="M36.3 45.38q-.79 .0 -1.24 .53q-.45 .52 -.45 1.45q.0 .91 .42 1.45q.42 .53 1.27 .53q.32 .0 .61 -.05q.29 -.06 .57 -.14v.54q-.27 .1 -.57 .15q-.29 .05 -.7 .05q-.74 .0 -1.25 -.31q-.5 -.31 -.75 -.88q-.25 -.57 -.25 -1.34q.0 -.74 .27 -1.31q.27 -.57 .8 -.88q.53 -.32 1.28 -.32q.78 .0 1.35 .29l-.24 .52q-.23 -.1 -.51 -.18q-.27 -.08 -.61 -.08zM39.06 49.8h-.6v-5.21h.6v5.21z" fill="#1FF01F" id="mol1atm16" stroke="none"/>
                
            <line class="hi" id="mol1bnd1" stroke="#3050F8" x1="42.44" x2="36.595" y1="3.0299999999999994" y2="2.0"/>
            <line class="hi" id="mol1bnd2" stroke="#3050F8" x1="47.13" x2="49.05" y1="7.38" y2="12.66"/>
            <line class="hi" id="mol1bnd2" stroke="#3050F8" x1="47.275985401459856" x2="49.05" y1="7.781459854014595" y2="12.66"/>
            <line class="hi" id="mol1bnd17" stroke="#FF0D0D" x1="33.49" x2="29.725" y1="44.62" y2="40.17"/>
            <line class="hi" id="mol1bnd17" stroke="#1FF01F" x1="33.49" x2="29.725" y1="44.62" y2="40.17"/>
        </g>
          
    </g>
    
</svg>
