<svg xmlns="http://www.w3.org/2000/svg" xmlns:xlink="http://www.w3.org/1999/xlink" height="123.9mm" version="1.2" viewBox="0 0 92.15 123.9" width="92.15mm">
      
    <desc>Generated by the Chemistry Development Kit (http://github.com/cdk)</desc>
      
    <g fill="#3050F8" stroke="#000000" stroke-linecap="round" stroke-linejoin="round" stroke-width=".7">
            
        <rect fill="#FFFFFF" height="124.0" stroke="none" width="93.0" x=".0" y=".0"/>
            
        <g class="mol" id="mol1">
                  
            <path class="bond" d="M70.55 14.97l.61 -.35l-6.13 -14.06l-1.82 1.05l-1.82 1.05z" fill="#000000" id="mol1bnd1" stroke="none"/>
                  
            <line class="bond" id="mol1bnd2" x1="70.85" x2="85.58" y1="14.8" y2="18.72"/>
                  
            <line class="bond" id="mol1bnd3" x1="85.58" x2="81.66" y1="18.72" y2="33.45"/>
                  
            <line class="bond" id="mol1bnd4" x1="81.66" x2="70.22" y1="33.45" y2="30.4"/>
                  
            <line class="bond" id="mol1bnd5" x1="70.85" x2="67.94" y1="14.8" y2="25.72"/>
                  
            <line class="bond" id="mol1bnd6" x1="63.78" x2="53.74" y1="31.35" y2="37.17"/>
                  
            <g class="bond" id="mol1bnd7">
                        
                <line x1="53.74" x2="43.81" y1="37.17" y2="31.46"/>
                        
                <line x1="53.74" x2="45.03" y1="34.35" y2="29.34"/>
                      
                <line class="hi" stroke="#FF0D0D" x1="43.81" x2="48.775000000000006" y1="31.46" y2="34.315"/>
                <line class="hi" stroke="#FF0D0D" x1="45.03" x2="49.385000000000005" y1="29.34" y2="31.845"/>
            </g>
                  
            <path class="bond" d="M53.42 52.41h.7l1.87 -16.54l-2.25 1.3l-2.25 -1.29z" fill="#000000" id="mol1bnd8" stroke="none"/>
                  
            <line class="bond" id="mol1bnd9" x1="53.77" x2="66.98" y1="52.41" y2="59.93"/>
                  
            <line class="bond" id="mol1bnd10" x1="66.98" x2="66.98" y1="59.93" y2="71.32"/>
                  
            <g class="bond" id="mol1bnd11">
                        
                <line stroke="#000000" x1="53.59" x2="53.95" y1="82.59" y2="83.19"/>
                        
                <line stroke="#3050F8" x1="55.35" x2="55.96" y1="81.27" y2="82.3"/>
                        
                <line stroke="#3050F8" x1="57.11" x2="57.97" y1="79.95" y2="81.42"/>
                        
                <line stroke="#3050F8" x1="58.87" x2="59.99" y1="78.63" y2="80.53"/>
                        
                <line stroke="#3050F8" x1="60.64" x2="62.0" y1="77.31" y2="79.64"/>
                        
                <line stroke="#3050F8" x1="62.4" x2="64.01" y1="75.99" y2="78.75"/>
                      
            </g>
                  
            <line class="bond" id="mol1bnd12" x1="53.77" x2="53.77" y1="82.89" y2="98.13"/>
                  
            <line class="bond" id="mol1bnd13" x1="53.77" x2="40.66" y1="98.13" y2="105.65"/>
                  
            <g class="bond" id="mol1bnd14">
                        
                <line x1="40.66" x2="40.66" y1="120.89" y2="105.65"/>
                        
                <line x1="38.22" x2="38.22" y1="118.45" y2="107.06"/>
                      
            </g>
                  
            <line class="bond" id="mol1bnd15" x1="40.66" x2="17.59" y1="120.89" y2="120.89"/>
                  
            <line class="bond" id="mol1bnd16" x1="14.25" x2="14.25" y1="117.04" y2="105.65"/>
                  
            <g class="bond" id="mol1bnd17">
                        
                <line x1="1.04" x2="14.25" y1="98.13" y2="105.65"/>
                        
                <line x1="3.48" x2="14.25" y1="96.71" y2="102.84"/>
                      
            </g>
                  
            <line class="bond" id="mol1bnd18" x1="1.04" x2="1.04" y1="98.13" y2="82.89"/>
                  
            <g class="bond" id="mol1bnd19">
                        
                <line x1="14.25" x2="1.04" y1="75.17" y2="82.89"/>
                        
                <line x1="14.25" x2="3.48" y1="77.99" y2="84.29"/>
                      
            </g>
                  
            <line class="bond" id="mol1bnd20" x1="14.25" x2="27.45" y1="75.17" y2="82.89"/>
                  
            <g class="bond" id="mol1bnd21">
                        
                <line x1="27.45" x2="27.45" y1="98.13" y2="82.89"/>
                        
                <line x1="25.02" x2="25.02" y1="96.71" y2="84.29"/>
                      
            </g>
                  
            <line class="bond" id="mol1bnd22" x1="40.66" x2="27.45" y1="105.65" y2="98.13"/>
                  
            <line class="bond" id="mol1bnd23" x1="14.25" x2="27.45" y1="105.65" y2="98.13"/>
                  
            <line class="bond" id="mol1bnd24" x1="27.45" x2="40.66" y1="82.89" y2="75.17"/>
                  
            <line class="bond" id="mol1bnd25" x1="53.77" x2="40.66" y1="82.89" y2="75.17"/>
                  
            <g class="bond" id="mol1bnd26">
                        
                <line x1="40.66" x2="40.66" y1="59.93" y2="75.17"/>
                        
                <line x1="43.1" x2="43.1" y1="61.34" y2="73.77"/>
                      
            </g>
                  
            <line class="bond" id="mol1bnd27" x1="53.77" x2="40.66" y1="52.41" y2="59.93"/>
                  
            <line class="bond" id="mol1bnd28" x1="70.13" x2="80.2" y1="76.98" y2="82.75"/>
                  
            <g class="bond" id="mol1bnd29">
                        
                <line x1="81.96" x2="81.35" y1="33.27" y2="33.62"/>
                        
                <line x1="83.49" x2="82.38" y1="35.32" y2="35.97"/>
                        
                <line x1="85.01" x2="83.4" y1="37.37" y2="38.31"/>
                        
                <line x1="86.54" x2="84.42" y1="39.42" y2="40.65"/>
                        
                <line x1="88.06" x2="85.44" y1="41.48" y2="43.0"/>
                        
                <line x1="89.59" x2="86.46" y1="43.53" y2="45.34"/>
                        
                <line x1="91.12" x2="87.48" y1="45.58" y2="47.68"/>
                      
            </g>
                  
            <path class="atom" d="M68.87 31.98h-.72l-2.62 -4.07h-.03q.01 .24 .03 .6q.02 .36 .02 .73v2.74h-.57v-4.9h.71l2.61 4.05h.03q-.01 -.11 -.02 -.33q-.01 -.22 -.02 -.48q-.01 -.26 -.01 -.48v-2.77h.58v4.9z" id="mol1atm5" stroke="none"/>
                  
            <path class="atom" d="M43.4 28.51q.0 .76 -.26 1.33q-.26 .57 -.76 .88q-.5 .32 -1.24 .32q-.76 .0 -1.26 -.32q-.51 -.32 -.76 -.89q-.24 -.57 -.24 -1.33q.0 -.75 .24 -1.31q.25 -.57 .76 -.88q.51 -.32 1.27 -.32q.73 .0 1.23 .32q.5 .31 .76 .88q.26 .57 .26 1.33zM39.54 28.51q.0 .92 .39 1.46q.39 .53 1.22 .53q.84 .0 1.22 -.53q.39 -.54 .39 -1.46q.0 -.93 -.39 -1.45q-.38 -.52 -1.21 -.52q-.83 .0 -1.23 .52q-.39 .52 -.39 1.45z" fill="#FF0D0D" id="mol1atm7" stroke="none"/>
                  
            <path class="atom" d="M68.92 77.62h-.72l-2.62 -4.07h-.03q.01 .24 .03 .6q.02 .36 .02 .73v2.74h-.57v-4.9h.71l2.61 4.05h.03q-.01 -.11 -.02 -.33q-.01 -.22 -.02 -.48q-.01 -.26 -.01 -.48v-2.77h.58v4.9z" id="mol1atm10" stroke="none"/>
                  
            <g class="atom" id="mol1atm15">
                        
                <path d="M16.19 123.34h-.72l-2.62 -4.07h-.03q.01 .24 .03 .6q.02 .36 .02 .73v2.74h-.57v-4.9h.71l2.61 4.05h.03q-.01 -.11 -.02 -.33q-.01 -.22 -.02 -.48q-.01 -.26 -.01 -.48v-2.77h.58v4.9z" stroke="none"/>
                        
                <path d="M11.74 123.34h-.62v-2.29h-2.51v2.29h-.61v-4.9h.61v2.07h2.51v-2.07h.62v4.9z" stroke="none"/>
                      
            </g>
                
            <line class="hi" id="mol1bnd4" stroke="#3050F8" x1="70.22" x2="75.94" y1="30.4" y2="31.925"/>
            <line class="hi" id="mol1bnd5" stroke="#3050F8" x1="67.94" x2="69.395" y1="25.72" y2="20.259999999999998"/>
            <line class="hi" id="mol1bnd6" stroke="#3050F8" x1="63.78" x2="58.760000000000005" y1="31.35" y2="34.260000000000005"/>
            <line class="hi" id="mol1bnd10" stroke="#3050F8" x1="66.98" x2="66.98" y1="71.32" y2="65.625"/>
            <line class="hi" id="mol1bnd15" stroke="#3050F8" x1="17.59" x2="29.125" y1="120.89" y2="120.89"/>
            <line class="hi" id="mol1bnd15" stroke="#3050F8" x1="17.59" x2="29.125" y1="120.89" y2="120.89"/>
            <line class="hi" id="mol1bnd16" stroke="#3050F8" x1="14.25" x2="14.25" y1="117.04" y2="111.345"/>
            <line class="hi" id="mol1bnd16" stroke="#3050F8" x1="14.25" x2="14.25" y1="117.04" y2="111.345"/>
            <line class="hi" id="mol1bnd28" stroke="#3050F8" x1="70.13" x2="75.16499999999999" y1="76.98" y2="79.86500000000001"/>
        </g>
          
    </g>
    
</svg>
