<svg xmlns="http://www.w3.org/2000/svg" xmlns:xlink="http://www.w3.org/1999/xlink" height="32.56mm" version="1.2" viewBox="0 0 94.44 32.56" width="94.44mm">
      
    <desc>Generated by the Chemistry Development Kit (http://github.com/cdk)</desc>
      
    <g fill="#3050F8" stroke="#000000" stroke-linecap="round" stroke-linejoin="round" stroke-width=".7">
            
        <rect fill="#FFFFFF" height="33.0" stroke="none" width="95.0" x=".0" y=".0"/>
            
        <g class="mol" id="mol1">
                  
            <line class="bond" id="mol1bnd1" x1="1.04" x2="11.07" y1="31.52" y2="25.72"/>
                  
            <line class="bond" id="mol1bnd2" x1="17.38" x2="27.43" y1="25.72" y2="31.52"/>
                  
            <line class="bond" id="mol1bnd3" x1="27.43" x2="40.63" y1="31.52" y2="23.9"/>
                  
            <line class="bond" id="mol1bnd4" x1="40.63" x2="40.63" y1="23.9" y2="12.52"/>
                  
            <line class="bond" id="mol1bnd5" x1="37.48" x2="27.43" y1="6.85" y2="1.05"/>
                  
            <line class="bond" id="mol1bnd6" x1="27.43" x2="14.23" y1="1.05" y2="8.67"/>
                  
            <line class="bond" id="mol1bnd7" x1="14.23" x2="14.23" y1="20.05" y2="8.67"/>
                  
            <line class="bond" id="mol1bnd8" x1="43.78" x2="53.82" y1="6.85" y2="1.05"/>
                  
            <line class="bond" id="mol1bnd9" x1="53.82" x2="67.01" y1="1.05" y2="8.66"/>
                  
            <g class="bond" id="mol1bnd10">
                        
                <line x1="80.21" x2="67.01" y1="1.04" y2="8.66"/>
                        
                <line x1="80.21" x2="69.45" y1="3.85" y2="10.07"/>
                      
            </g>
                  
            <line class="bond" id="mol1bnd11" x1="80.21" x2="93.4" y1="1.04" y2="8.65"/>
                  
            <g class="bond" id="mol1bnd12">
                        
                <line x1="93.4" x2="93.4" y1="23.89" y2="8.65"/>
                        
                <line x1="90.96" x2="90.96" y1="22.48" y2="10.06"/>
                      
            </g>
                  
            <line class="bond" id="mol1bnd13" x1="93.4" x2="80.2" y1="23.89" y2="31.52"/>
                  
            <g class="bond" id="mol1bnd14">
                        
                <line x1="67.01" x2="80.2" y1="23.9" y2="31.52"/>
                        
                <line x1="69.45" x2="80.2" y1="22.5" y2="28.7"/>
                      
            </g>
                  
            <line class="bond" id="mol1bnd15" x1="67.01" x2="67.01" y1="8.66" y2="23.9"/>
                  
            <path class="atom" d="M16.17 26.35h-.72l-2.62 -4.07h-.03q.01 .24 .03 .6q.02 .36 .02 .73v2.74h-.57v-4.9h.71l2.61 4.05h.03q-.01 -.11 -.02 -.33q-.01 -.22 -.02 -.48q-.01 -.26 -.01 -.48v-2.77h.58v4.9z" id="mol1atm2" stroke="none"/>
                  
            <path class="atom" d="M42.57 11.12h-.72l-2.62 -4.07h-.03q.01 .24 .03 .6q.02 .36 .02 .73v2.74h-.57v-4.9h.71l2.61 4.05h.03q-.01 -.11 -.02 -.33q-.01 -.22 -.02 -.48q-.01 -.26 -.01 -.48v-2.77h.58v4.9z" id="mol1atm5" stroke="none"/>
                
            <line class="hi" id="mol1bnd1" stroke="#3050F8" x1="11.07" x2="6.055" y1="25.72" y2="28.619999999999997"/>
            <line class="hi" id="mol1bnd2" stroke="#3050F8" x1="17.38" x2="22.405" y1="25.72" y2="28.619999999999997"/>
            <line class="hi" id="mol1bnd4" stroke="#3050F8" x1="40.63" x2="40.63" y1="12.52" y2="18.21"/>
            <line class="hi" id="mol1bnd5" stroke="#3050F8" x1="37.48" x2="32.455" y1="6.85" y2="3.9499999999999997"/>
            <line class="hi" id="mol1bnd7" stroke="#3050F8" x1="14.23" x2="14.23" y1="20.05" y2="14.36"/>
            <line class="hi" id="mol1bnd8" stroke="#3050F8" x1="43.78" x2="48.8" y1="6.85" y2="3.9499999999999997"/>
        </g>
          
    </g>
    
</svg>
