<svg xmlns="http://www.w3.org/2000/svg" xmlns:xlink="http://www.w3.org/1999/xlink" height="99.17mm" version="1.2" viewBox="0 0 106.87 99.17" width="106.87mm">
      
    <desc>Generated by the Chemistry Development Kit (http://github.com/cdk)</desc>
      
    <g fill="#3050F8" stroke="#000000" stroke-linecap="round" stroke-linejoin="round" stroke-width=".7">
            
        <rect fill="#FFFFFF" height="100.0" stroke="none" width="107.0" x=".0" y=".0"/>
            
        <g class="mol" id="mol1">
                  
            <line class="bond" id="mol1bnd1" x1="53.39" x2="50.88" y1="94.95" y2="83.9"/>
                  
            <line class="bond" id="mol1bnd2" x1="46.7" x2="35.17" y1="79.32" y2="76.64"/>
                  
            <line class="bond" id="mol1bnd3" x1="35.17" x2="28.57" y1="76.64" y2="62.92"/>
                  
            <line class="bond" id="mol1bnd4" x1="28.57" x2="33.39" y1="62.92" y2="52.91"/>
                  
            <g class="bond" id="mol1bnd5">
                        
                <line x1="50.01" x2="38.48" y1="45.75" y2="48.43"/>
                        
                <line x1="49.41" x2="39.03" y1="48.39" y2="50.81"/>
                      
                <line class="hi" stroke="#3050F8" x1="38.48" x2="44.245" y1="48.43" y2="47.09"/>
                <line class="hi" stroke="#3050F8" x1="39.03" x2="44.22" y1="50.81" y2="49.6"/>
            </g>
                  
            <line class="bond" id="mol1bnd6" x1="50.01" x2="61.89" y1="45.75" y2="55.3"/>
                  
            <g class="bond" id="mol1bnd7">
                        
                <line x1="61.89" x2="61.89" y1="55.3" y2="70.54"/>
                        
                <line x1="64.33" x2="64.33" y1="56.71" y2="69.13"/>
                      
            </g>
                  
            <line class="bond" id="mol1bnd8" x1="53.04" x2="61.89" y1="77.65" y2="70.54"/>
                  
            <line class="bond" id="mol1bnd9" x1="61.89" x2="75.1" y1="70.54" y2="78.16"/>
                  
            <g class="bond" id="mol1bnd10">
                        
                <line x1="75.1" x2="88.31" y1="78.16" y2="70.54"/>
                        
                <line x1="75.1" x2="85.87" y1="75.34" y2="69.13"/>
                      
            </g>
                  
            <line class="bond" id="mol1bnd11" x1="88.31" x2="88.31" y1="70.54" y2="55.3"/>
                  
            <g class="bond" id="mol1bnd12">
                        
                <line x1="88.31" x2="75.1" y1="55.3" y2="47.68"/>
                        
                <line x1="85.87" x2="75.1" y1="56.71" y2="50.49"/>
                      
            </g>
                  
            <line class="bond" id="mol1bnd13" x1="61.89" x2="75.1" y1="55.3" y2="47.68"/>
                  
            <line class="bond" id="mol1bnd14" x1="88.31" x2="98.58" y1="55.3" y2="49.37"/>
                  
            <line class="bond" id="mol1bnd15" x1="50.01" x2="53.39" y1="45.75" y2="30.89"/>
                  
            <g class="bond" id="mol1bnd16">
                        
                <line x1="53.39" x2="68.0" y1="30.89" y2="26.38"/>
                        
                <line x1="54.02" x2="65.92" y1="28.14" y2="24.47"/>
                      
            </g>
                  
            <line class="bond" id="mol1bnd17" x1="68.0" x2="71.25" y1="26.38" y2="11.49"/>
                  
            <g class="bond" id="mol1bnd18">
                        
                <line x1="71.25" x2="60.11" y1="11.49" y2="1.05"/>
                        
                <line x1="68.57" x2="59.49" y1="12.33" y2="3.81"/>
                      
            </g>
                  
            <line class="bond" id="mol1bnd19" x1="60.11" x2="45.48" y1="1.05" y2="5.66"/>
                  
            <g class="bond" id="mol1bnd20">
                        
                <line x1="45.48" x2="42.23" y1="5.66" y2="20.55"/>
                        
                <line x1="47.57" x2="44.91" y1="7.56" y2="19.71"/>
                      
            </g>
                  
            <line class="bond" id="mol1bnd21" x1="53.39" x2="42.23" y1="30.89" y2="20.55"/>
                  
            <line class="bond" id="mol1bnd22" x1="42.23" x2="29.33" y1="20.55" y2="24.6"/>
                  
            <line class="bond" id="mol1bnd23" x1="35.17" x2="25.65" y1="76.64" y2="88.53"/>
                  
            <line class="bond" id="mol1bnd24" x1="25.65" x2="14.22" y1="88.53" y2="86.78"/>
                  
            <line class="bond" id="mol1bnd25" x1="8.11" x2="1.05" y1="89.31" y2="98.12"/>
                  
            <path class="atom" d="M51.95 82.54h-.72l-2.62 -4.07h-.03q.01 .24 .03 .6q.02 .36 .02 .73v2.74h-.57v-4.9h.71l2.61 4.05h.03q-.01 -.11 -.02 -.33q-.01 -.22 -.02 -.48q-.01 -.26 -.01 -.48v-2.77h.58v4.9z" id="mol1atm2" stroke="none"/>
                  
            <path class="atom" d="M37.11 51.65h-.72l-2.62 -4.07h-.03q.01 .24 .03 .6q.02 .36 .02 .73v2.74h-.57v-4.9h.71l2.61 4.05h.03q-.01 -.11 -.02 -.33q-.01 -.22 -.02 -.48q-.01 -.26 -.01 -.48v-2.77h.58v4.9z" id="mol1atm5" stroke="none"/>
                  
            <path class="atom" d="M101.2 45.23q.92 .0 1.39 .27q.47 .27 .47 .94q.0 .43 -.24 .72q-.24 .29 -.69 .36v.04q.31 .05 .56 .18q.25 .13 .39 .38q.15 .24 .15 .62q.0 .67 -.46 1.03q-.46 .36 -1.24 .36h-1.72v-4.9h1.4zM101.31 47.32q.63 .0 .86 -.2q.24 -.2 .24 -.6q.0 -.4 -.29 -.58q-.29 -.18 -.91 -.18h-.81v1.56h.9zM100.41 47.83v1.77h.99q.65 .0 .9 -.25q.26 -.26 .26 -.67q.0 -.38 -.27 -.62q-.26 -.24 -.94 -.24h-.94zM105.89 46.38q.1 .0 .22 .01q.13 .01 .21 .03l-.07 .55q-.09 -.02 -.2 -.03q-.11 -.02 -.2 -.02q-.28 .0 -.53 .15q-.24 .15 -.39 .43q-.15 .27 -.15 .65v1.96h-.6v-3.67h.49l.07 .67h.03q.18 -.3 .46 -.52q.28 -.22 .67 -.22z" fill="#A62929" id="mol1atm13" stroke="none"/>
                  
            <path class="atom" d="M25.24 23.3q-.79 .0 -1.24 .53q-.45 .52 -.45 1.45q.0 .91 .42 1.45q.42 .53 1.27 .53q.32 .0 .61 -.05q.29 -.06 .57 -.14v.54q-.27 .1 -.57 .15q-.29 .05 -.7 .05q-.74 .0 -1.25 -.31q-.5 -.31 -.75 -.88q-.25 -.57 -.25 -1.34q.0 -.74 .27 -1.31q.27 -.57 .8 -.88q.53 -.32 1.28 -.32q.78 .0 1.35 .29l-.24 .52q-.23 -.1 -.51 -.18q-.27 -.08 -.61 -.08zM28.0 27.72h-.6v-5.21h.6v5.21z" fill="#1FF01F" id="mol1atm20" stroke="none"/>
                  
            <path class="atom" d="M12.84 86.22q.0 .76 -.26 1.33q-.26 .57 -.76 .88q-.5 .32 -1.24 .32q-.76 .0 -1.26 -.32q-.51 -.32 -.76 -.89q-.24 -.57 -.24 -1.33q.0 -.75 .24 -1.31q.25 -.57 .76 -.88q.51 -.32 1.27 -.32q.73 .0 1.23 .32q.5 .31 .76 .88q.26 .57 .26 1.33zM8.98 86.22q.0 .92 .39 1.46q.39 .53 1.22 .53q.84 .0 1.22 -.53q.39 -.54 .39 -1.46q.0 -.93 -.39 -1.45q-.38 -.52 -1.21 -.52q-.83 .0 -1.23 .52q-.39 .52 -.39 1.45z" fill="#FF0D0D" id="mol1atm22" stroke="none"/>
                
            <line class="hi" id="mol1bnd1" stroke="#3050F8" x1="50.88" x2="52.135000000000005" y1="83.9" y2="89.42500000000001"/>
            <line class="hi" id="mol1bnd2" stroke="#3050F8" x1="46.7" x2="40.935" y1="79.32" y2="77.97999999999999"/>
            <line class="hi" id="mol1bnd4" stroke="#3050F8" x1="33.39" x2="30.98" y1="52.91" y2="57.915"/>
            <line class="hi" id="mol1bnd8" stroke="#3050F8" x1="53.04" x2="57.465" y1="77.65" y2="74.095"/>
            <line class="hi" id="mol1bnd14" stroke="#A62929" x1="98.58" x2="93.445" y1="49.37" y2="52.334999999999994"/>
            <line class="hi" id="mol1bnd22" stroke="#1FF01F" x1="29.33" x2="35.78" y1="24.6" y2="22.575000000000003"/>
            <line class="hi" id="mol1bnd24" stroke="#FF0D0D" x1="14.22" x2="19.935" y1="86.78" y2="87.655"/>
            <line class="hi" id="mol1bnd25" stroke="#FF0D0D" x1="8.11" x2="4.58" y1="89.31" y2="93.715"/>
        </g>
          
    </g>
    
</svg>
