<svg xmlns="http://www.w3.org/2000/svg" xmlns:xlink="http://www.w3.org/1999/xlink" height="40.0mm" version="1.2" viewBox="0 0 107.6 40.0" width="107.6mm">
      
    <desc>Generated by the Chemistry Development Kit (http://github.com/cdk)</desc>
      
    <g fill="#3050F8" stroke="#000000" stroke-linecap="round" stroke-linejoin="round" stroke-width=".7">
            
        <rect fill="#FFFFFF" height="40.0" stroke="none" width="108.0" x=".0" y=".0"/>
            
        <g class="mol" id="mol1">
                  
            <line class="bond" id="mol1bnd1" x1="80.17" x2="80.16" y1="31.33" y2="16.09"/>
                  
            <line class="bond" id="mol1bnd2" x1="80.16" x2="66.97" y1="16.09" y2="8.48"/>
                  
            <line class="bond" id="mol1bnd3" x1="66.97" x2="53.77" y1="8.48" y2="16.1"/>
                  
            <g class="bond" id="mol1bnd4">
                        
                <line x1="53.77" x2="40.56" y1="16.1" y2="8.48"/>
                        
                <line x1="51.33" x2="40.57" y1="17.51" y2="11.29"/>
                      
            </g>
                  
            <line class="bond" id="mol1bnd5" x1="40.56" x2="27.45" y1="8.48" y2="16.1"/>
                  
            <g class="bond" id="mol1bnd6">
                        
                <line x1="27.45" x2="14.25" y1="16.1" y2="8.48"/>
                        
                <line x1="25.02" x2="14.25" y1="17.51" y2="11.29"/>
                      
            </g>
                  
            <line class="bond" id="mol1bnd7" x1="14.25" x2="1.04" y1="8.48" y2="16.1"/>
                  
            <g class="bond" id="mol1bnd8">
                        
                <line x1="1.04" x2="1.04" y1="16.1" y2="31.34"/>
                        
                <line x1="3.48" x2="3.48" y1="17.51" y2="29.93"/>
                      
            </g>
                  
            <line class="bond" id="mol1bnd9" x1="1.04" x2="14.25" y1="31.34" y2="38.96"/>
                  
            <g class="bond" id="mol1bnd10">
                        
                <line x1="14.25" x2="27.45" y1="38.96" y2="31.34"/>
                        
                <line x1="14.25" x2="25.02" y1="36.14" y2="29.93"/>
                      
            </g>
                  
            <line class="bond" id="mol1bnd11" x1="27.45" x2="27.45" y1="16.1" y2="31.34"/>
                  
            <line class="bond" id="mol1bnd12" x1="27.45" x2="40.56" y1="31.34" y2="38.96"/>
                  
            <g class="bond" id="mol1bnd13">
                        
                <line x1="40.56" x2="53.77" y1="38.96" y2="31.34"/>
                        
                <line x1="40.57" x2="51.33" y1="36.14" y2="29.93"/>
                      
            </g>
                  
            <line class="bond" id="mol1bnd14" x1="53.77" x2="53.77" y1="16.1" y2="31.34"/>
                  
            <line class="bond" id="mol1bnd15" x1="80.16" x2="90.21" y1="16.09" y2="10.29"/>
                  
            <line class="bond" id="mol1bnd16" x1="96.52" x2="106.56" y1="10.29" y2="16.09"/>
                  
            <g class="atom" id="mol1atm14">
                        
                <path d="M95.3 10.92h-.72l-2.62 -4.07h-.03q.01 .24 .03 .6q.02 .36 .02 .73v2.74h-.57v-4.9h.71l2.61 4.05h.03q-.01 -.11 -.02 -.33q-.01 -.22 -.02 -.48q-.01 -.26 -.01 -.48v-2.77h.58v4.9z" stroke="none"/>
                        
                <path d="M95.17 5.46h-.62v-2.29h-2.51v2.29h-.61v-4.9h.61v2.07h2.51v-2.07h.62v4.9z" stroke="none"/>
                      
            </g>
                
            <line class="hi" id="mol1bnd15" stroke="#3050F8" x1="90.21" x2="85.185" y1="10.29" y2="13.19"/>
            <line class="hi" id="mol1bnd15" stroke="#3050F8" x1="90.21" x2="85.185" y1="10.29" y2="13.19"/>
            <line class="hi" id="mol1bnd16" stroke="#3050F8" x1="96.52" x2="101.53999999999999" y1="10.29" y2="13.19"/>
            <line class="hi" id="mol1bnd16" stroke="#3050F8" x1="96.52" x2="101.53999999999999" y1="10.29" y2="13.19"/>
        </g>
          
    </g>
    
</svg>
