<svg xmlns="http://www.w3.org/2000/svg" xmlns:xlink="http://www.w3.org/1999/xlink" height="80.33mm" version="1.2" viewBox="0 0 81.28 80.33" width="81.28mm">
      
    <desc>Generated by the Chemistry Development Kit (http://github.com/cdk)</desc>
      
    <g fill="#3050F8" stroke="#000000" stroke-linecap="round" stroke-linejoin="round" stroke-width=".7">
            
        <rect fill="#FFFFFF" height="81.0" stroke="none" width="82.0" x=".0" y=".0"/>
            
        <g class="mol" id="mol1">
                  
            <g class="bond" id="mol1bnd1">
                        
                <line x1="1.04" x2="14.25" y1="71.66" y2="79.29"/>
                        
                <line x1="3.48" x2="14.25" y1="70.25" y2="76.47"/>
                      
            </g>
                  
            <line class="bond" id="mol1bnd2" x1="14.25" x2="27.44" y1="79.29" y2="71.67"/>
                  
            <g class="bond" id="mol1bnd3">
                        
                <line x1="27.44" x2="27.44" y1="71.67" y2="56.42"/>
                        
                <line x1="25.01" x2="25.0" y1="70.26" y2="57.83"/>
                      
            </g>
                  
            <line class="bond" id="mol1bnd4" x1="27.44" x2="14.24" y1="56.42" y2="48.79"/>
                  
            <g class="bond" id="mol1bnd5">
                        
                <line x1="14.24" x2="1.04" y1="48.79" y2="56.41"/>
                        
                <line x1="14.24" x2="3.48" y1="51.61" y2="57.82"/>
                      
            </g>
                  
            <line class="bond" id="mol1bnd6" x1="1.04" x2="1.04" y1="71.66" y2="56.41"/>
                  
            <line class="bond" id="mol1bnd7" x1="27.44" x2="40.64" y1="56.42" y2="48.8"/>
                  
            <line class="bond" id="mol1bnd8" x1="40.64" x2="53.84" y1="48.8" y2="56.42"/>
                  
            <g class="bond" id="mol1bnd9">
                        
                <line x1="67.04" x2="53.84" y1="48.79" y2="56.42"/>
                        
                <line x1="67.04" x2="56.27" y1="51.61" y2="57.83"/>
                      
            </g>
                  
            <line class="bond" id="mol1bnd10" x1="67.04" x2="80.24" y1="48.79" y2="56.41"/>
                  
            <g class="bond" id="mol1bnd11">
                        
                <line x1="80.23" x2="80.24" y1="71.66" y2="56.41"/>
                        
                <line x1="77.79" x2="77.8" y1="70.25" y2="57.82"/>
                      
            </g>
                  
            <line class="bond" id="mol1bnd12" x1="80.23" x2="67.03" y1="71.66" y2="79.29"/>
                  
            <g class="bond" id="mol1bnd13">
                        
                <line x1="53.83" x2="67.03" y1="71.67" y2="79.29"/>
                        
                <line x1="56.27" x2="67.03" y1="70.26" y2="76.47"/>
                      
            </g>
                  
            <line class="bond" id="mol1bnd14" x1="53.84" x2="53.83" y1="56.42" y2="71.67"/>
                  
            <line class="bond" id="mol1bnd15" x1="40.64" x2="40.64" y1="48.8" y2="37.48"/>
                  
            <g class="bond" id="mol1bnd16">
                        
                <line x1="37.32" x2="30.11" y1="33.05" y2="28.89"/>
                        
                <line x1="38.54" x2="31.32" y1="30.94" y2="26.78"/>
                      
                <line class="hi" stroke="#C6C62C" x1="37.32" x2="33.715" y1="33.05" y2="30.97"/>
                <line class="hi" stroke="#FF0D0D" x1="30.11" x2="33.715" y1="28.89" y2="30.97"/>
                <line class="hi" stroke="#C6C62C" x1="38.54" x2="34.93" y1="30.94" y2="28.86"/>
                <line class="hi" stroke="#FF0D0D" x1="31.32" x2="34.93" y1="26.78" y2="28.86"/>
            </g>
                  
            <line class="bond" id="mol1bnd17" x1="43.33" x2="53.84" y1="32.0" y2="25.94"/>
                  
            <line class="bond" id="mol1bnd18" x1="53.84" x2="53.84" y1="25.94" y2="10.7"/>
                  
            <g class="bond" id="mol1bnd19">
                        
                <line x1="53.84" x2="43.3" y1="12.11" y2="6.03"/>
                        
                <line x1="55.06" x2="44.52" y1="10.0" y2="3.92"/>
                      
                <line class="hi" stroke="#FF0D0D" x1="43.3" x2="48.57" y1="6.03" y2="9.07"/>
                <line class="hi" stroke="#FF0D0D" x1="44.52" x2="49.790000000000006" y1="3.92" y2="6.96"/>
            </g>
                  
            <line class="bond" id="mol1bnd20" x1="53.84" x2="63.88" y1="10.7" y2="4.9"/>
                  
            <path class="atom" d="M42.18 34.7q.0 .65 -.48 1.02q-.47 .36 -1.27 .36q-.42 .0 -.77 -.07q-.35 -.06 -.58 -.17v-.59q.24 .11 .61 .2q.37 .09 .76 .09q.55 .0 .83 -.21q.28 -.21 .28 -.58q.0 -.24 -.11 -.4q-.1 -.17 -.35 -.31q-.25 -.14 -.7 -.3q-.63 -.23 -.95 -.55q-.32 -.33 -.32 -.9q.0 -.39 .2 -.67q.2 -.28 .55 -.43q.36 -.15 .82 -.15q.4 .0 .74 .08q.34 .07 .61 .2l-.2 .53q-.25 -.11 -.55 -.18q-.3 -.08 -.63 -.08q-.46 .0 -.69 .2q-.23 .2 -.23 .52q.0 .24 .1 .41q.11 .17 .34 .3q.23 .13 .63 .28q.43 .15 .73 .34q.3 .18 .45 .43q.15 .25 .15 .64z" fill="#C6C62C" id="mol1atm14" stroke="none"/>
                  
            <path class="atom" d="M29.7 25.94q.0 .76 -.26 1.33q-.26 .57 -.76 .88q-.5 .32 -1.24 .32q-.76 .0 -1.26 -.32q-.51 -.32 -.76 -.89q-.24 -.57 -.24 -1.33q.0 -.75 .24 -1.31q.25 -.57 .76 -.88q.51 -.32 1.27 -.32q.73 .0 1.23 .32q.5 .31 .76 .88q.26 .57 .26 1.33zM25.84 25.94q.0 .92 .39 1.46q.39 .53 1.22 .53q.84 .0 1.22 -.53q.39 -.54 .39 -1.46q.0 -.93 -.39 -1.45q-.38 -.52 -1.21 -.52q-.83 .0 -1.23 .52q-.39 .52 -.39 1.45z" fill="#FF0D0D" id="mol1atm15" stroke="none"/>
                  
            <path class="atom" d="M42.9 3.08q.0 .76 -.26 1.33q-.26 .57 -.76 .88q-.5 .32 -1.24 .32q-.76 .0 -1.26 -.32q-.51 -.32 -.76 -.89q-.24 -.57 -.24 -1.33q.0 -.75 .24 -1.31q.25 -.57 .76 -.88q.51 -.32 1.27 -.32q.73 .0 1.23 .32q.5 .31 .76 .88q.26 .57 .26 1.33zM39.03 3.08q.0 .92 .39 1.46q.39 .53 1.22 .53q.84 .0 1.22 -.53q.39 -.54 .39 -1.46q.0 -.93 -.39 -1.45q-.38 -.52 -1.21 -.52q-.83 .0 -1.23 .52q-.39 .52 -.39 1.45z" fill="#FF0D0D" id="mol1atm18" stroke="none"/>
                  
            <g class="atom" id="mol1atm19">
                        
                <path d="M68.97 5.53h-.72l-2.62 -4.07h-.03q.01 .24 .03 .6q.02 .36 .02 .73v2.74h-.57v-4.9h.71l2.61 4.05h.03q-.01 -.11 -.02 -.33q-.01 -.22 -.02 -.48q-.01 -.26 -.01 -.48v-2.77h.58v4.9z" stroke="none"/>
                        
                <path d="M73.28 5.53h-.62v-2.29h-2.51v2.29h-.61v-4.9h.61v2.07h2.51v-2.07h.62v4.9z" stroke="none"/>
                        
                <path d="M75.79 7.02h-1.94v-.3l.77 -.78q.22 -.22 .37 -.39q.15 -.18 .23 -.34q.08 -.17 .08 -.36q.0 -.24 -.15 -.37q-.14 -.13 -.37 -.13q-.21 .0 -.38 .08q-.16 .08 -.33 .21l-.19 -.24q.17 -.15 .39 -.25q.23 -.1 .51 -.1q.41 .0 .65 .21q.24 .21 .24 .58q.0 .23 -.1 .43q-.09 .2 -.26 .4q-.17 .2 -.39 .42l-.61 .6v.02h1.49v.33z" stroke="none"/>
                      
            </g>
                
            <line class="hi" id="mol1bnd15" stroke="#C6C62C" x1="40.64" x2="40.64" y1="37.48" y2="43.14"/>
            <line class="hi" id="mol1bnd17" stroke="#C6C62C" x1="43.33" x2="48.585" y1="32.0" y2="28.97"/>
            <line class="hi" id="mol1bnd20" stroke="#3050F8" x1="63.88" x2="58.86" y1="4.9" y2="7.8"/>
        </g>
          
    </g>
    
</svg>
