<svg xmlns="http://www.w3.org/2000/svg" xmlns:xlink="http://www.w3.org/1999/xlink" height="90.79mm" version="1.2" viewBox="0 0 145.88 90.79" width="145.88mm">
      
    <desc>Generated by the Chemistry Development Kit (http://github.com/cdk)</desc>
      
    <g fill="#FF0D0D" stroke="#000000" stroke-linecap="round" stroke-linejoin="round" stroke-width=".7">
            
        <rect fill="#FFFFFF" height="91.0" stroke="none" width="146.0" x=".0" y=".0"/>
            
        <g class="mol" id="mol1">
                  
            <line class="bond" id="mol1bnd1" x1="144.83" x2="135.03" y1="25.95" y2="37.62"/>
                  
            <line class="bond" id="mol1bnd2" x1="135.03" x2="123.66" y1="37.62" y2="35.62"/>
                  
            <line class="bond" id="mol1bnd3" x1="117.48" x2="110.23" y1="38.02" y2="46.66"/>
                  
            <g class="bond" id="mol1bnd4">
                        
                <line x1="111.14" x2="115.23" y1="45.58" y2="56.81"/>
                        
                <line x1="108.85" x2="112.94" y1="46.42" y2="57.64"/>
                      
                <line class="hi" stroke="#FF0D0D" x1="115.23" x2="113.185" y1="56.81" y2="51.195"/>
                <line class="hi" stroke="#FF0D0D" x1="112.94" x2="110.895" y1="57.64" y2="52.03"/>
            </g>
                  
            <line class="bond" id="mol1bnd5" x1="110.23" x2="95.22" y1="46.66" y2="44.02"/>
                  
            <line class="bond" id="mol1bnd6" x1="95.22" x2="82.02" y1="44.02" y2="36.39"/>
                  
            <line class="bond" id="mol1bnd7" x1="82.02" x2="68.82" y1="36.39" y2="44.01"/>
                  
            <line class="bond" id="mol1bnd8" x1="68.82" x2="68.83" y1="44.01" y2="55.41"/>
                  
            <line class="bond" id="mol1bnd9" x1="71.98" x2="82.03" y1="61.08" y2="66.89"/>
                  
            <line class="bond" id="mol1bnd10" x1="82.03" x2="95.23" y1="66.89" y2="59.27"/>
                  
            <line class="bond" id="mol1bnd11" x1="95.22" x2="95.23" y1="44.02" y2="59.27"/>
                  
            <line class="bond" id="mol1bnd12" x1="65.68" x2="55.63" y1="61.08" y2="66.88"/>
                  
            <line class="bond" id="mol1bnd13" x1="55.63" x2="42.43" y1="66.88" y2="59.27"/>
                  
            <line class="bond" id="mol1bnd14" x1="42.43" x2="32.39" y1="59.27" y2="65.07"/>
                  
            <line class="bond" id="mol1bnd15" x1="29.24" x2="29.24" y1="70.74" y2="82.13"/>
                  
            <line class="bond" id="mol1bnd16" x1="29.24" x2="16.03" y1="82.13" y2="89.75"/>
                  
            <line class="bond" id="mol1bnd17" x1="16.03" x2="6.1" y1="89.75" y2="84.02"/>
                  
            <line class="bond" id="mol1bnd18" x1="2.82" x2="2.82" y1="78.21" y2="66.89"/>
                  
            <line class="bond" id="mol1bnd19" x1="2.82" x2="16.03" y1="66.89" y2="59.27"/>
                  
            <line class="bond" id="mol1bnd20" x1="26.08" x2="16.03" y1="65.07" y2="59.27"/>
                  
            <line class="bond" id="mol1bnd21" x1="95.22" x2="100.43" y1="44.02" y2="29.7"/>
                  
            <g class="bond" id="mol1bnd22">
                        
                <line x1="90.63" x2="100.43" y1="18.02" y2="29.7"/>
                        
                <line x1="93.4" x2="101.4" y1="17.53" y2="27.05"/>
                      
            </g>
                  
            <line class="bond" id="mol1bnd23" x1="90.63" x2="95.84" y1="18.02" y2="3.7"/>
                  
            <g class="bond" id="mol1bnd24">
                        
                <line x1="110.86" x2="95.84" y1="1.05" y2="3.7"/>
                        
                <line x1="109.89" x2="97.65" y1="3.7" y2="5.85"/>
                      
            </g>
                  
            <line class="bond" id="mol1bnd25" x1="110.86" x2="120.66" y1="1.05" y2="12.73"/>
                  
            <g class="bond" id="mol1bnd26">
                        
                <line x1="115.45" x2="120.66" y1="27.05" y2="12.73"/>
                        
                <line x1="113.64" x2="117.89" y1="24.89" y2="13.22"/>
                      
            </g>
                  
            <line class="bond" id="mol1bnd27" x1="100.43" x2="115.45" y1="29.7" y2="27.05"/>
                  
            <path class="atom" d="M122.28 34.98q.0 .76 -.26 1.33q-.26 .57 -.76 .88q-.5 .32 -1.24 .32q-.76 .0 -1.26 -.32q-.51 -.32 -.76 -.89q-.24 -.57 -.24 -1.33q.0 -.75 .24 -1.31q.25 -.57 .76 -.88q.51 -.32 1.27 -.32q.73 .0 1.23 .32q.5 .31 .76 .88q.26 .57 .26 1.33zM118.42 34.98q.0 .92 .39 1.46q.39 .53 1.22 .53q.84 .0 1.22 -.53q.39 -.54 .39 -1.46q.0 -.93 -.39 -1.45q-.38 -.52 -1.21 -.52q-.83 .0 -1.23 .52q-.39 .52 -.39 1.45z" id="mol1atm3" stroke="none"/>
                  
            <path class="atom" d="M117.71 60.98q.0 .76 -.26 1.33q-.26 .57 -.76 .88q-.5 .32 -1.24 .32q-.76 .0 -1.26 -.32q-.51 -.32 -.76 -.89q-.24 -.57 -.24 -1.33q.0 -.75 .24 -1.31q.25 -.57 .76 -.88q.51 -.32 1.27 -.32q.73 .0 1.23 .32q.5 .31 .76 .88q.26 .57 .26 1.33zM113.84 60.98q.0 .92 .39 1.46q.39 .53 1.22 .53q.84 .0 1.22 -.53q.39 -.54 .39 -1.46q.0 -.93 -.39 -1.45q-.38 -.52 -1.21 -.52q-.83 .0 -1.23 .52q-.39 .52 -.39 1.45z" id="mol1atm5" stroke="none"/>
                  
            <path class="atom" d="M70.77 61.71h-.72l-2.62 -4.07h-.03q.01 .24 .03 .6q.02 .36 .02 .73v2.74h-.57v-4.9h.71l2.61 4.05h.03q-.01 -.11 -.02 -.33q-.01 -.22 -.02 -.48q-.01 -.26 -.01 -.48v-2.77h.58v4.9z" fill="#3050F8" id="mol1atm9" stroke="none"/>
                  
            <path class="atom" d="M31.18 69.34h-.72l-2.62 -4.07h-.03q.01 .24 .03 .6q.02 .36 .02 .73v2.74h-.57v-4.9h.71l2.61 4.05h.03q-.01 -.11 -.02 -.33q-.01 -.22 -.02 -.48q-.01 -.26 -.01 -.48v-2.77h.58v4.9z" fill="#3050F8" id="mol1atm14" stroke="none"/>
                  
            <path class="atom" d="M5.08 82.12q.0 .76 -.26 1.33q-.26 .57 -.76 .88q-.5 .32 -1.24 .32q-.76 .0 -1.26 -.32q-.51 -.32 -.76 -.89q-.24 -.57 -.24 -1.33q.0 -.75 .24 -1.31q.25 -.57 .76 -.88q.51 -.32 1.27 -.32q.73 .0 1.23 .32q.5 .31 .76 .88q.26 .57 .26 1.33zM1.21 82.12q.0 .92 .39 1.46q.39 .53 1.22 .53q.84 .0 1.22 -.53q.39 -.54 .39 -1.46q.0 -.93 -.39 -1.45q-.38 -.52 -1.21 -.52q-.83 .0 -1.23 .52q-.39 .52 -.39 1.45z" id="mol1atm17" stroke="none"/>
                
            <line class="hi" id="mol1bnd2" stroke="#FF0D0D" x1="123.66" x2="129.345" y1="35.62" y2="36.62"/>
            <line class="hi" id="mol1bnd3" stroke="#FF0D0D" x1="117.48" x2="113.855" y1="38.02" y2="42.34"/>
            <line class="hi" id="mol1bnd8" stroke="#3050F8" x1="68.83" x2="68.82499999999999" y1="55.41" y2="49.709999999999994"/>
            <line class="hi" id="mol1bnd9" stroke="#3050F8" x1="71.98" x2="77.005" y1="61.08" y2="63.985"/>
            <line class="hi" id="mol1bnd12" stroke="#3050F8" x1="65.68" x2="60.655" y1="61.08" y2="63.98"/>
            <line class="hi" id="mol1bnd14" stroke="#3050F8" x1="32.39" x2="37.41" y1="65.07" y2="62.17"/>
            <line class="hi" id="mol1bnd15" stroke="#3050F8" x1="29.24" x2="29.24" y1="70.74" y2="76.435"/>
            <line class="hi" id="mol1bnd17" stroke="#FF0D0D" x1="6.1" x2="11.065000000000001" y1="84.02" y2="86.88499999999999"/>
            <line class="hi" id="mol1bnd18" stroke="#FF0D0D" x1="2.82" x2="2.82" y1="78.21" y2="72.55"/>
            <line class="hi" id="mol1bnd20" stroke="#3050F8" x1="26.08" x2="21.055" y1="65.07" y2="62.17"/>
        </g>
          
    </g>
    
</svg>
