<svg xmlns="http://www.w3.org/2000/svg" xmlns:xlink="http://www.w3.org/1999/xlink" height="48.28mm" version="1.2" viewBox="0 0 105.44 48.28" width="105.44mm">
      
    <desc>Generated by the Chemistry Development Kit (http://github.com/cdk)</desc>
      
    <g fill="#3050F8" stroke="#000000" stroke-linecap="round" stroke-linejoin="round" stroke-width=".7">
            
        <rect fill="#FFFFFF" height="49.0" stroke="none" width="106.0" x=".0" y=".0"/>
            
        <g class="mol" id="mol1">
                  
            <line class="bond" id="mol1bnd1" x1="40.69" x2="27.48" y1="1.08" y2="8.68"/>
                  
            <g class="bond" id="mol1bnd2">
                        
                <line x1="27.45" x2="27.48" y1="23.92" y2="8.68"/>
                        
                <line x1="25.02" x2="25.04" y1="22.51" y2="10.09"/>
                      
            </g>
                  
            <line class="bond" id="mol1bnd3" x1="27.45" x2="14.23" y1="23.92" y2="31.52"/>
                  
            <g class="bond" id="mol1bnd4">
                        
                <line x1="1.04" x2="14.23" y1="23.87" y2="31.52"/>
                        
                <line x1="3.48" x2="14.24" y1="22.47" y2="28.7"/>
                      
            </g>
                  
            <line class="bond" id="mol1bnd5" x1="1.04" x2="1.07" y1="23.87" y2="8.63"/>
                  
            <g class="bond" id="mol1bnd6">
                        
                <line x1="14.29" x2="1.07" y1="1.04" y2="8.63"/>
                        
                <line x1="14.28" x2="3.5" y1="3.85" y2="10.05"/>
                      
            </g>
                  
            <line class="bond" id="mol1bnd7" x1="27.48" x2="14.29" y1="8.68" y2="1.04"/>
                  
            <line class="bond" id="mol1bnd8" x1="14.23" x2="14.21" y1="31.52" y2="46.76"/>
                  
            <line class="bond" id="mol1bnd9" x1="27.45" x2="37.49" y1="23.92" y2="29.74"/>
                  
            <line class="bond" id="mol1bnd10" x1="43.79" x2="53.85" y1="29.75" y2="23.97"/>
                  
            <g class="bond" id="mol1bnd11">
                        
                <line x1="52.63" x2="52.65" y1="24.68" y2="12.65"/>
                        
                <line x1="55.07" x2="55.09" y1="24.68" y2="12.66"/>
                      
                <line class="hi" stroke="#FF0D0D" x1="52.65" x2="52.64" y1="12.65" y2="18.665"/>
                <line class="hi" stroke="#FF0D0D" x1="55.09" x2="55.08" y1="12.66" y2="18.67"/>
            </g>
                  
            <line class="bond" id="mol1bnd12" x1="53.85" x2="67.03" y1="23.97" y2="31.62"/>
                  
            <line class="bond" id="mol1bnd13" x1="67.03" x2="77.09" y1="31.62" y2="25.84"/>
                  
            <line class="bond" id="mol1bnd14" x1="80.65" x2="81.84" y1="20.18" y2="8.91"/>
                  
            <line class="bond" id="mol1bnd15" x1="81.84" x2="96.76" y1="8.91" y2="5.69"/>
                  
            <line class="bond" id="mol1bnd16" x1="96.76" x2="104.38" y1="5.69" y2="18.89"/>
                  
            <line class="bond" id="mol1bnd17" x1="104.38" x2="94.19" y1="18.89" y2="30.29"/>
                  
            <line class="bond" id="mol1bnd18" x1="83.47" x2="94.19" y1="25.47" y2="30.29"/>
                  
            <g class="bond" id="mol1bnd19">
                        
                <line x1="95.19" x2="97.72" y1="29.16" y2="41.05"/>
                        
                <line x1="92.81" x2="95.34" y1="29.67" y2="41.56"/>
                      
                <line class="hi" stroke="#FF0D0D" x1="97.72" x2="96.455" y1="41.05" y2="35.105"/>
                <line class="hi" stroke="#FF0D0D" x1="95.34" x2="94.075" y1="41.56" y2="35.615"/>
            </g>
                  
            <g class="atom" id="mol1atm9">
                        
                <path d="M42.58 34.02h-.72l-2.62 -4.07h-.03q.01 .24 .03 .6q.02 .36 .02 .73v2.74h-.57v-4.9h.71l2.61 4.05h.03q-.01 -.11 -.02 -.33q-.01 -.22 -.02 -.48q-.01 -.26 -.01 -.48v-2.77h.58v4.9z" stroke="none"/>
                        
                <path d="M42.44 39.48h-.62v-2.29h-2.51v2.29h-.61v-4.9h.61v2.07h2.51v-2.07h.62v4.9z" stroke="none"/>
                      
            </g>
                  
            <path class="atom" d="M56.14 8.73q.0 .76 -.26 1.33q-.26 .57 -.76 .88q-.5 .32 -1.24 .32q-.76 .0 -1.26 -.32q-.51 -.32 -.76 -.89q-.24 -.57 -.24 -1.33q.0 -.75 .24 -1.31q.25 -.57 .76 -.88q.51 -.32 1.27 -.32q.73 .0 1.23 .32q.5 .31 .76 .88q.26 .57 .26 1.33zM52.28 8.73q.0 .92 .39 1.46q.39 .53 1.22 .53q.84 .0 1.22 -.53q.39 -.54 .39 -1.46q.0 -.93 -.39 -1.45q-.38 -.52 -1.21 -.52q-.83 .0 -1.23 .52q-.39 .52 -.39 1.45z" fill="#FF0D0D" id="mol1atm11" stroke="none"/>
                  
            <path class="atom" d="M82.19 26.47h-.72l-2.62 -4.07h-.03q.01 .24 .03 .6q.02 .36 .02 .73v2.74h-.57v-4.9h.71l2.61 4.05h.03q-.01 -.11 -.02 -.33q-.01 -.22 -.02 -.48q-.01 -.26 -.01 -.48v-2.77h.58v4.9z" id="mol1atm13" stroke="none"/>
                  
            <path class="atom" d="M99.62 45.19q.0 .76 -.26 1.33q-.26 .57 -.76 .88q-.5 .32 -1.24 .32q-.76 .0 -1.26 -.32q-.51 -.32 -.76 -.89q-.24 -.57 -.24 -1.33q.0 -.75 .24 -1.31q.25 -.57 .76 -.88q.51 -.32 1.27 -.32q.73 .0 1.23 .32q.5 .31 .76 .88q.26 .57 .26 1.33zM95.75 45.19q.0 .92 .39 1.46q.39 .53 1.22 .53q.84 .0 1.22 -.53q.39 -.54 .39 -1.46q.0 -.93 -.39 -1.45q-.38 -.52 -1.21 -.52q-.83 .0 -1.23 .52q-.39 .52 -.39 1.45z" fill="#FF0D0D" id="mol1atm18" stroke="none"/>
                
            <line class="hi" id="mol1bnd9" stroke="#3050F8" x1="37.49" x2="32.47" y1="29.74" y2="26.83"/>
            <line class="hi" id="mol1bnd10" stroke="#3050F8" x1="43.79" x2="48.82" y1="29.75" y2="26.86"/>
            <line class="hi" id="mol1bnd13" stroke="#3050F8" x1="77.09" x2="72.06" y1="25.84" y2="28.73"/>
            <line class="hi" id="mol1bnd14" stroke="#3050F8" x1="80.65" x2="81.245" y1="20.18" y2="14.545"/>
            <line class="hi" id="mol1bnd18" stroke="#3050F8" x1="83.47" x2="88.83" y1="25.47" y2="27.88"/>
        </g>
          
    </g>
    
</svg>
