<svg xmlns="http://www.w3.org/2000/svg" xmlns:xlink="http://www.w3.org/1999/xlink" height="64.17mm" version="1.2" viewBox="0 0 75.06 64.17" width="75.06mm">
      
    <desc>Generated by the Chemistry Development Kit (http://github.com/cdk)</desc>
      
    <g fill="#FF0D0D" stroke="#000000" stroke-linecap="round" stroke-linejoin="round" stroke-width=".7">
            
        <rect fill="#FFFFFF" height="65.0" stroke="none" width="76.0" x=".0" y=".0"/>
            
        <g class="mol" id="mol1">
                  
            <line class="bond" id="mol1bnd1" x1="53.85" x2="43.8" y1="63.13" y2="57.33"/>
                  
            <line class="bond" id="mol1bnd2" x1="37.5" x2="27.45" y1="57.33" y2="63.12"/>
                  
            <line class="bond" id="mol1bnd3" x1="40.65" x2="40.65" y1="51.66" y2="40.27"/>
                  
            <path class="bond" d="M27.63 32.34l-.35 .61l13.72 10.12v-2.6v-2.27z" fill="#000000" id="mol1bnd4" stroke="none"/>
                  
            <line class="bond" id="mol1bnd5" x1="27.45" x2="14.25" y1="32.64" y2="40.26"/>
                  
            <line class="bond" id="mol1bnd6" x1="14.25" x2="1.04" y1="40.26" y2="32.64"/>
                  
            <line class="bond" id="mol1bnd7" x1="1.04" x2="1.04" y1="32.64" y2="17.4"/>
                  
            <line class="bond" id="mol1bnd8" x1="1.04" x2="14.25" y1="17.4" y2="9.78"/>
                  
            <line class="bond" id="mol1bnd9" x1="14.25" x2="27.45" y1="9.78" y2="17.4"/>
                  
            <line class="bond" id="mol1bnd10" x1="27.45" x2="27.45" y1="32.64" y2="17.4"/>
                  
            <g class="bond" id="mol1bnd11">
                        
                <line x1="27.51" x2="27.39" y1="17.06" y2="17.75"/>
                        
                <line x1="30.07" x2="29.84" y1="17.21" y2="18.48"/>
                        
                <line x1="32.62" x2="32.3" y1="17.37" y2="19.2"/>
                        
                <line x1="35.17" x2="34.75" y1="17.52" y2="19.93"/>
                        
                <line x1="37.72" x2="37.2" y1="17.67" y2="20.66"/>
                        
                <line x1="40.28" x2="39.65" y1="17.83" y2="21.39"/>
                        
                <line x1="42.83" x2="42.1" y1="17.98" y2="22.12"/>
                      
            </g>
                  
            <g class="bond" id="mol1bnd12">
                        
                <line x1="42.46" x2="47.68" y1="20.05" y2="34.37"/>
                        
                <line x1="45.24" x2="49.49" y1="20.54" y2="32.21"/>
                      
            </g>
                  
            <line class="bond" id="mol1bnd13" x1="47.68" x2="62.7" y1="34.37" y2="37.01"/>
                  
            <g class="bond" id="mol1bnd14">
                        
                <line x1="62.7" x2="72.4" y1="37.01" y2="25.36"/>
                        
                <line x1="61.73" x2="69.63" y1="34.36" y2="24.88"/>
                      
            </g>
                  
            <line class="bond" id="mol1bnd15" x1="72.4" x2="67.19" y1="25.36" y2="11.04"/>
                  
            <g class="bond" id="mol1bnd16">
                        
                <line x1="67.19" x2="52.27" y1="11.04" y2="8.37"/>
                        
                <line x1="65.38" x2="53.23" y1="13.19" y2="11.02"/>
                      
            </g>
                  
            <line class="bond" id="mol1bnd17" x1="42.46" x2="52.27" y1="20.05" y2="8.37"/>
                  
            <line class="bond" id="mol1bnd18" x1="62.7" x2="66.56" y1="37.01" y2="47.57"/>
                  
            <path class="bond" d="M27.13 17.28l.66 .24l5.06 -10.13l-1.54 -.56l-1.54 -.56z" fill="#000000" id="mol1bnd19" stroke="none"/>
                  
            <path class="atom" d="M42.59 57.96h-.72l-2.62 -4.07h-.03q.01 .24 .03 .6q.02 .36 .02 .73v2.74h-.57v-4.9h.71l2.61 4.05h.03q-.01 -.11 -.02 -.33q-.01 -.22 -.02 -.48q-.01 -.26 -.01 -.48v-2.77h.58v4.9z" fill="#3050F8" id="mol1atm2" stroke="none"/>
                  
            <g class="atom" id="mol1atm17">
                        
                <path d="M70.2 51.31q.0 .76 -.26 1.33q-.26 .57 -.76 .88q-.5 .32 -1.24 .32q-.76 .0 -1.26 -.32q-.51 -.32 -.76 -.89q-.24 -.57 -.24 -1.33q.0 -.75 .24 -1.31q.25 -.57 .76 -.88q.51 -.32 1.27 -.32q.73 .0 1.23 .32q.5 .31 .76 .88q.26 .57 .26 1.33zM66.33 51.31q.0 .92 .39 1.46q.39 .53 1.22 .53q.84 .0 1.22 -.53q.39 -.54 .39 -1.46q.0 -.93 -.39 -1.45q-.38 -.52 -1.21 -.52q-.83 .0 -1.23 .52q-.39 .52 -.39 1.45z" stroke="none"/>
                        
                <path d="M74.5 53.77h-.62v-2.29h-2.51v2.29h-.61v-4.9h.61v2.07h2.51v-2.07h.62v4.9z" stroke="none"/>
                      
            </g>
                  
            <g class="atom" id="mol1atm18">
                        
                <path d="M34.92 3.08q.0 .76 -.26 1.33q-.26 .57 -.76 .88q-.5 .32 -1.24 .32q-.76 .0 -1.26 -.32q-.51 -.32 -.76 -.89q-.24 -.57 -.24 -1.33q.0 -.75 .24 -1.31q.25 -.57 .76 -.88q.51 -.32 1.27 -.32q.73 .0 1.23 .32q.5 .31 .76 .88q.26 .57 .26 1.33zM31.06 3.08q.0 .92 .39 1.46q.39 .53 1.22 .53q.84 .0 1.22 -.53q.39 -.54 .39 -1.46q.0 -.93 -.39 -1.45q-.38 -.52 -1.21 -.52q-.83 .0 -1.23 .52q-.39 .52 -.39 1.45z" stroke="none"/>
                        
                <path d="M39.23 5.53h-.62v-2.29h-2.51v2.29h-.61v-4.9h.61v2.07h2.51v-2.07h.62v4.9z" stroke="none"/>
                      
            </g>
                
            <line class="hi" id="mol1bnd1" stroke="#3050F8" x1="43.8" x2="48.825" y1="57.33" y2="60.230000000000004"/>
            <line class="hi" id="mol1bnd2" stroke="#3050F8" x1="37.5" x2="32.475" y1="57.33" y2="60.224999999999994"/>
            <line class="hi" id="mol1bnd3" stroke="#3050F8" x1="40.65" x2="40.65" y1="51.66" y2="45.965"/>
            <line class="hi" id="mol1bnd18" stroke="#FF0D0D" x1="66.56" x2="64.63" y1="47.57" y2="42.29"/>
        </g>
          
    </g>
    
</svg>
