<svg xmlns="http://www.w3.org/2000/svg" xmlns:xlink="http://www.w3.org/1999/xlink" height="58.25mm" version="1.2" viewBox="0 0 73.53 58.25" width="73.53mm">
      
    <desc>Generated by the Chemistry Development Kit (http://github.com/cdk)</desc>
      
    <g fill="#3050F8" stroke="#000000" stroke-linecap="round" stroke-linejoin="round" stroke-width=".7">
            
        <rect fill="#FFFFFF" height="59.0" stroke="none" width="74.0" x=".0" y=".0"/>
            
        <g class="mol" id="mol1">
                  
            <line class="bond" id="mol1bnd1" x1="52.88" x2="47.67" y1="57.24" y2="42.91"/>
                  
            <line class="bond" id="mol1bnd2" x1="47.67" x2="35.98" y1="42.91" y2="40.85"/>
                  
            <line class="bond" id="mol1bnd3" x1="31.29" x2="27.45" y1="36.5" y2="25.94"/>
                  
            <line class="bond" id="mol1bnd4" x1="27.45" x2="14.25" y1="25.94" y2="33.56"/>
                  
            <line class="bond" id="mol1bnd5" x1="14.25" x2="1.04" y1="33.56" y2="25.94"/>
                  
            <line class="bond" id="mol1bnd6" x1="1.04" x2="1.04" y1="25.94" y2="10.7"/>
                  
            <line class="bond" id="mol1bnd7" x1="1.04" x2="14.25" y1="10.7" y2="3.08"/>
                  
            <line class="bond" id="mol1bnd8" x1="14.25" x2="27.45" y1="3.08" y2="10.7"/>
                  
            <line class="bond" id="mol1bnd9" x1="27.45" x2="27.45" y1="25.94" y2="10.7"/>
                  
            <g class="bond" id="mol1bnd10">
                        
                <line x1="26.23" x2="36.76" y1="10.0" y2="3.92"/>
                        
                <line x1="27.45" x2="37.98" y1="12.11" y2="6.03"/>
                      
                <line class="hi" stroke="#FF0D0D" x1="36.76" x2="31.494999999999997" y1="3.92" y2="6.96"/>
                <line class="hi" stroke="#FF0D0D" x1="37.98" x2="32.714999999999996" y1="6.03" y2="9.07"/>
            </g>
                  
            <line class="bond" id="mol1bnd11" x1="27.45" x2="42.46" y1="25.94" y2="23.3"/>
                  
            <g class="bond" id="mol1bnd12">
                        
                <line x1="47.68" x2="42.46" y1="8.97" y2="23.3"/>
                        
                <line x1="49.49" x2="45.24" y1="11.13" y2="22.81"/>
                      
                <line class="hi" stroke="#FF0D0D" x1="47.68" x2="45.07" y1="8.97" y2="16.135"/>
            </g>
                  
            <line class="bond" id="mol1bnd13" x1="47.68" x2="62.68" y1="8.97" y2="6.32"/>
                  
            <g class="bond" id="mol1bnd14">
                        
                <line x1="72.48" x2="62.68" y1="18.01" y2="6.32"/>
                        
                <line x1="69.71" x2="61.72" y1="18.5" y2="8.97"/>
                      
            </g>
                  
            <line class="bond" id="mol1bnd15" x1="72.48" x2="67.27" y1="18.01" y2="32.34"/>
                  
            <g class="bond" id="mol1bnd16">
                        
                <line x1="52.26" x2="67.27" y1="34.98" y2="32.34"/>
                        
                <line x1="53.22" x2="65.46" y1="32.34" y2="30.18"/>
                      
            </g>
                  
            <line class="bond" id="mol1bnd17" x1="42.46" x2="52.26" y1="23.3" y2="34.98"/>
                  
            <g class="atom" id="mol1atm3">
                        
                <path d="M34.6 42.72h-.72l-2.62 -4.07h-.03q.01 .24 .03 .6q.02 .36 .02 .73v2.74h-.57v-4.9h.71l2.61 4.05h.03q-.01 -.11 -.02 -.33q-.01 -.22 -.02 -.48q-.01 -.26 -.01 -.48v-2.77h.58v4.9z" stroke="none"/>
                        
                <path d="M30.16 42.72h-.62v-2.29h-2.51v2.29h-.61v-4.9h.61v2.07h2.51v-2.07h.62v4.9z" stroke="none"/>
                      
            </g>
                  
            <path class="atom" d="M42.91 3.08q.0 .76 -.26 1.33q-.26 .57 -.76 .88q-.5 .32 -1.24 .32q-.76 .0 -1.26 -.32q-.51 -.32 -.76 -.89q-.24 -.57 -.24 -1.33q.0 -.75 .24 -1.31q.25 -.57 .76 -.88q.51 -.32 1.27 -.32q.73 .0 1.23 .32q.5 .31 .76 .88q.26 .57 .26 1.33zM39.05 3.08q.0 .92 .39 1.46q.39 .53 1.22 .53q.84 .0 1.22 -.53q.39 -.54 .39 -1.46q.0 -.93 -.39 -1.45q-.38 -.52 -1.21 -.52q-.83 .0 -1.23 .52q-.39 .52 -.39 1.45z" fill="#FF0D0D" id="mol1atm10" stroke="none"/>
                
            <line class="hi" id="mol1bnd2" stroke="#3050F8" x1="35.98" x2="41.825" y1="40.85" y2="41.879999999999995"/>
            <line class="hi" id="mol1bnd2" stroke="#3050F8" x1="35.98" x2="41.825" y1="40.85" y2="41.879999999999995"/>
            <line class="hi" id="mol1bnd3" stroke="#3050F8" x1="31.29" x2="29.369999999999997" y1="36.5" y2="31.22"/>
            <line class="hi" id="mol1bnd3" stroke="#3050F8" x1="31.29" x2="29.369999999999997" y1="36.5" y2="31.22"/>
            <line class="hi" id="mol1bnd13" stroke="#FF0D0D" x1="47.68" x2="55.18" y1="8.97" y2="7.6450000000000005"/>
        </g>
          
    </g>
    
</svg>
