<svg xmlns="http://www.w3.org/2000/svg" xmlns:xlink="http://www.w3.org/1999/xlink" height="95.39mm" version="1.2" viewBox="0 0 75.79 95.39" width="75.79mm">
      
    <desc>Generated by the Chemistry Development Kit (http://github.com/cdk)</desc>
      
    <g fill="#FF0D0D" stroke="#000000" stroke-linecap="round" stroke-linejoin="round" stroke-width=".7">
            
        <rect fill="#FFFFFF" height="96.0" stroke="none" width="76.0" x=".0" y=".0"/>
            
        <g class="mol" id="mol1">
                  
            <g class="bond" id="mol1bnd1">
                        
                <line x1="42.34" x2="29.14" y1="23.75" y2="16.13"/>
                        
                <line x1="39.9" x2="29.14" y1="25.16" y2="18.95"/>
                      
            </g>
                  
            <line class="bond" id="mol1bnd2" x1="29.14" x2="16.03" y1="16.13" y2="23.75"/>
                  
            <line class="bond" id="mol1bnd3" x1="16.03" x2="6.1" y1="23.75" y2="18.04"/>
                  
            <line class="bond" id="mol1bnd4" x1="2.81" x2="2.8" y1="12.23" y2=".91"/>
                  
            <g class="bond" id="mol1bnd5">
                        
                <line x1="16.03" x2="16.03" y1="23.75" y2="38.89"/>
                        
                <line x1="18.47" x2="18.47" y1="25.15" y2="37.5"/>
                      
            </g>
                  
            <line class="bond" id="mol1bnd6" x1="16.03" x2="29.14" y1="38.89" y2="46.61"/>
                  
            <g class="bond" id="mol1bnd7">
                        
                <line x1="28.79" x2="29.49" y1="61.85" y2="61.85"/>
                        
                <line x1="28.54" x2="29.74" y1="59.67" y2="59.67"/>
                        
                <line x1="28.29" x2="29.99" y1="57.5" y2="57.5"/>
                        
                <line x1="28.04" x2="30.24" y1="55.32" y2="55.32"/>
                        
                <line x1="27.79" x2="30.49" y1="53.14" y2="53.14"/>
                        
                <line x1="27.54" x2="30.74" y1="50.96" y2="50.96"/>
                        
                <line x1="27.29" x2="30.99" y1="48.79" y2="48.79"/>
                        
                <line x1="27.04" x2="31.24" y1="46.61" y2="46.61"/>
                      
            </g>
                  
            <line class="bond" id="mol1bnd8" x1="29.14" x2="16.03" y1="61.85" y2="69.37"/>
                  
            <g class="bond" id="mol1bnd9">
                        
                <line stroke="#000000" x1="15.73" x2="16.33" y1="69.55" y2="69.18"/>
                        
                <line stroke="#FF0D0D" x1="14.31" x2="15.28" y1="67.67" y2="67.08"/>
                        
                <line stroke="#FF0D0D" x1="12.9" x2="14.24" y1="65.8" y2="64.97"/>
                        
                <line stroke="#FF0D0D" x1="11.48" x2="13.19" y1="63.92" y2="62.86"/>
                        
                <line stroke="#FF0D0D" x1="10.06" x2="12.14" y1="62.04" y2="60.75"/>
                        
                <line stroke="#FF0D0D" x1="8.64" x2="11.1" y1="60.16" y2="58.64"/>
                        
                <line stroke="#FF0D0D" x1="7.22" x2="10.05" y1="58.28" y2="56.53"/>
                      
            </g>
                  
            <line class="bond" id="mol1bnd10" x1="16.03" x2="8.38" y1="38.89" y2="50.16"/>
                  
            <line class="bond" id="mol1bnd11" x1="16.03" x2="16.03" y1="69.37" y2="84.71"/>
                  
            <g class="bond" id="mol1bnd12">
                        
                <line x1="17.24" x2="6.71" y1="85.42" y2="91.48"/>
                        
                <line x1="16.03" x2="5.49" y1="83.3" y2="89.37"/>
                      
                <line class="hi" stroke="#FF0D0D" x1="6.710000000000001" x2="11.975" y1="91.48" y2="88.45"/>
                <line class="hi" stroke="#FF0D0D" x1="5.49" x2="10.760000000000002" y1="89.37" y2="86.33500000000001"/>
            </g>
                  
            <line class="bond" id="mol1bnd13" x1="16.03" x2="29.14" y1="84.71" y2="92.33"/>
                  
            <line class="bond" id="mol1bnd14" x1="29.14" x2="42.34" y1="92.33" y2="84.71"/>
                  
            <line class="bond" id="mol1bnd15" x1="42.34" x2="42.34" y1="84.71" y2="69.37"/>
                  
            <line class="bond" id="mol1bnd16" x1="29.14" x2="42.34" y1="61.85" y2="69.37"/>
                  
            <path class="bond" d="M42.52 69.07l-.35 .61l9.24 6.89l.84 -1.44l.84 -1.44z" fill="#000000" id="mol1bnd17" stroke="none"/>
                  
            <line class="bond" id="mol1bnd18" x1="42.34" x2="55.55" y1="69.37" y2="61.85"/>
                  
            <line class="bond" id="mol1bnd19" x1="55.55" x2="55.55" y1="61.85" y2="46.61"/>
                  
            <line class="bond" id="mol1bnd20" x1="55.55" x2="42.34" y1="46.61" y2="38.89"/>
                  
            <line class="bond" id="mol1bnd21" x1="42.34" x2="42.34" y1="23.75" y2="38.89"/>
                  
            <g class="bond" id="mol1bnd22">
                        
                <line x1="29.14" x2="42.34" y1="46.61" y2="38.89"/>
                        
                <line x1="29.14" x2="39.9" y1="43.78" y2="37.49"/>
                      
            </g>
                  
            <path class="bond" d="M55.72 61.55l-.35 .61l9.39 6.88l.83 -1.46l.83 -1.46z" fill="#000000" id="mol1bnd23" stroke="none"/>
                  
            <line class="bond" id="mol1bnd24" x1="70.36" x2="74.77" y1="73.11" y2="83.37"/>
                  
            <line class="bond" id="mol1bnd25" x1="68.84" x2="69.06" y1="65.52" y2="54.23"/>
                  
            <line class="bond" id="mol1bnd26" x1="69.06" x2="42.34" y1="54.23" y2="54.23"/>
                  
            <path class="bond" d="M28.96 61.55l.35 .61l18.89 -8.27h-5.25h-3.51z" fill="#000000" id="mol1bnd27" stroke="none"/>
                  
            <path class="atom" d="M5.08 16.15q.0 .76 -.26 1.33q-.26 .57 -.76 .88q-.5 .32 -1.24 .32q-.76 .0 -1.26 -.32q-.51 -.32 -.76 -.89q-.24 -.57 -.24 -1.33q.0 -.75 .24 -1.31q.25 -.57 .76 -.88q.51 -.32 1.27 -.32q.73 .0 1.23 .32q.5 .31 .76 .88q.26 .57 .26 1.33zM1.21 16.15q.0 .92 .39 1.46q.39 .53 1.22 .53q.84 .0 1.22 -.53q.39 -.54 .39 -1.46q.0 -.93 -.39 -1.45q-.38 -.52 -1.21 -.52q-.83 .0 -1.23 .52q-.39 .52 -.39 1.45z" id="mol1atm4" stroke="none"/>
                  
            <path class="atom" d="M8.43 53.41q.0 .76 -.26 1.33q-.26 .57 -.76 .88q-.5 .32 -1.24 .32q-.76 .0 -1.26 -.32q-.51 -.32 -.76 -.89q-.24 -.57 -.24 -1.33q.0 -.75 .24 -1.31q.25 -.57 .76 -.88q.51 -.32 1.27 -.32q.73 .0 1.23 .32q.5 .31 .76 .88q.26 .57 .26 1.33zM4.57 53.41q.0 .92 .39 1.46q.39 .53 1.22 .53q.84 .0 1.22 -.53q.39 -.54 .39 -1.46q.0 -.93 -.39 -1.45q-.38 -.52 -1.21 -.52q-.83 .0 -1.23 .52q-.39 .52 -.39 1.45z" id="mol1atm10" stroke="none"/>
                  
            <path class="atom" d="M5.08 92.31q.0 .76 -.26 1.33q-.26 .57 -.76 .88q-.5 .32 -1.24 .32q-.76 .0 -1.26 -.32q-.51 -.32 -.76 -.89q-.24 -.57 -.24 -1.33q.0 -.75 .24 -1.31q.25 -.57 .76 -.88q.51 -.32 1.27 -.32q.73 .0 1.23 .32q.5 .31 .76 .88q.26 .57 .26 1.33zM1.21 92.31q.0 .92 .39 1.46q.39 .53 1.22 .53q.84 .0 1.22 -.53q.39 -.54 .39 -1.46q.0 -.93 -.39 -1.45q-.38 -.52 -1.21 -.52q-.83 .0 -1.23 .52q-.39 .52 -.39 1.45z" id="mol1atm12" stroke="none"/>
                  
            <g class="atom" id="mol1atm16">
                        
                <path d="M57.78 77.03q.0 .76 -.26 1.33q-.26 .57 -.76 .88q-.5 .32 -1.24 .32q-.76 .0 -1.26 -.32q-.51 -.32 -.76 -.89q-.24 -.57 -.24 -1.33q.0 -.75 .24 -1.31q.25 -.57 .76 -.88q.51 -.32 1.27 -.32q.73 .0 1.23 .32q.5 .31 .76 .88q.26 .57 .26 1.33zM53.91 77.03q.0 .92 .39 1.46q.39 .53 1.22 .53q.84 .0 1.22 -.53q.39 -.54 .39 -1.46q.0 -.93 -.39 -1.45q-.38 -.52 -1.21 -.52q-.83 .0 -1.23 .52q-.39 .52 -.39 1.45z" stroke="none"/>
                        
                <path d="M62.08 79.48h-.62v-2.29h-2.51v2.29h-.61v-4.9h.61v2.07h2.51v-2.07h.62v4.9z" stroke="none"/>
                      
            </g>
                  
            <path class="atom" d="M70.7 71.82h-.72l-2.62 -4.07h-.03q.01 .24 .03 .6q.02 .36 .02 .73v2.74h-.57v-4.9h.71l2.61 4.05h.03q-.01 -.11 -.02 -.33q-.01 -.22 -.02 -.48q-.01 -.26 -.01 -.48v-2.77h.58v4.9z" fill="#3050F8" id="mol1atm20" stroke="none"/>
                
            <line class="hi" id="mol1bnd3" stroke="#FF0D0D" x1="6.1" x2="11.065000000000001" y1="18.04" y2="20.895"/>
            <line class="hi" id="mol1bnd4" stroke="#FF0D0D" x1="2.81" x2="2.8049999999999997" y1="12.23" y2="6.57"/>
            <line class="hi" id="mol1bnd10" stroke="#FF0D0D" x1="8.38" x2="12.205000000000002" y1="50.16" y2="44.525"/>
            <line class="hi" id="mol1bnd24" stroke="#3050F8" x1="70.36" x2="72.565" y1="73.11" y2="78.24000000000001"/>
            <line class="hi" id="mol1bnd25" stroke="#3050F8" x1="68.84" x2="68.95" y1="65.52" y2="59.875"/>
        </g>
          
    </g>
    
</svg>
