<svg xmlns="http://www.w3.org/2000/svg" xmlns:xlink="http://www.w3.org/1999/xlink" height="91.61mm" version="1.2" viewBox="0 0 84.54 91.61" width="84.54mm">
      
    <desc>Generated by the Chemistry Development Kit (http://github.com/cdk)</desc>
      
    <g fill="#3050F8" stroke="#000000" stroke-linecap="round" stroke-linejoin="round" stroke-width=".7">
            
        <rect fill="#FFFFFF" height="92.0" stroke="none" width="85.0" x=".0" y=".0"/>
            
        <g class="mol" id="mol1">
                  
            <line class="bond" id="mol1bnd1" x1="6.24" x2="12.84" y1="62.92" y2="76.64"/>
                  
            <g class="bond" id="mol1bnd2">
                        
                <line x1="14.16" x2="6.73" y1="76.94" y2="86.21"/>
                        
                <line x1="12.25" x2="4.83" y1="75.42" y2="84.68"/>
                      
                <line class="hi" stroke="#FF0D0D" x1="6.73" x2="10.445" y1="86.21" y2="81.57499999999999"/>
                <line class="hi" stroke="#FF0D0D" x1="4.83" x2="8.54" y1="84.68" y2="80.05000000000001"/>
            </g>
                  
            <line class="bond" id="mol1bnd3" x1="12.84" x2="24.37" y1="76.64" y2="79.32"/>
                  
            <line class="bond" id="mol1bnd4" x1="30.71" x2="39.56" y1="77.65" y2="70.54"/>
                  
            <g class="bond" id="mol1bnd5">
                        
                <line x1="39.56" x2="39.56" y1="55.3" y2="70.54"/>
                        
                <line x1="42.0" x2="42.0" y1="56.71" y2="69.13"/>
                      
            </g>
                  
            <line class="bond" id="mol1bnd6" x1="39.56" x2="52.77" y1="55.3" y2="47.68"/>
                  
            <g class="bond" id="mol1bnd7">
                        
                <line x1="65.98" x2="52.77" y1="55.3" y2="47.68"/>
                        
                <line x1="63.54" x2="52.77" y1="56.71" y2="50.49"/>
                      
            </g>
                  
            <line class="bond" id="mol1bnd8" x1="65.98" x2="65.98" y1="55.3" y2="70.54"/>
                  
            <g class="bond" id="mol1bnd9">
                        
                <line x1="52.77" x2="65.98" y1="78.16" y2="70.54"/>
                        
                <line x1="52.77" x2="63.54" y1="75.34" y2="69.13"/>
                      
            </g>
                  
            <line class="bond" id="mol1bnd10" x1="39.56" x2="52.77" y1="70.54" y2="78.16"/>
                  
            <line class="bond" id="mol1bnd11" x1="65.98" x2="76.25" y1="55.3" y2="49.37"/>
                  
            <line class="bond" id="mol1bnd12" x1="39.56" x2="27.67" y1="55.3" y2="45.75"/>
                  
            <g class="bond" id="mol1bnd13">
                        
                <line x1="27.67" x2="16.14" y1="45.75" y2="48.43"/>
                        
                <line x1="27.07" x2="16.7" y1="48.39" y2="50.81"/>
                      
                <line class="hi" stroke="#3050F8" x1="16.14" x2="21.905" y1="48.43" y2="47.09"/>
                <line class="hi" stroke="#3050F8" x1="16.7" x2="21.884999999999998" y1="50.81" y2="49.6"/>
            </g>
                  
            <line class="bond" id="mol1bnd14" x1="6.24" x2="11.05" y1="62.92" y2="52.91"/>
                  
            <line class="bond" id="mol1bnd15" x1="27.67" x2="31.06" y1="45.75" y2="30.89"/>
                  
            <g class="bond" id="mol1bnd16">
                        
                <line x1="31.06" x2="45.67" y1="30.89" y2="26.38"/>
                        
                <line x1="31.68" x2="43.59" y1="28.14" y2="24.47"/>
                      
            </g>
                  
            <line class="bond" id="mol1bnd17" x1="45.67" x2="48.92" y1="26.38" y2="11.49"/>
                  
            <g class="bond" id="mol1bnd18">
                        
                <line x1="48.92" x2="37.78" y1="11.49" y2="1.05"/>
                        
                <line x1="46.24" x2="37.15" y1="12.33" y2="3.81"/>
                      
            </g>
                  
            <line class="bond" id="mol1bnd19" x1="37.78" x2="23.15" y1="1.05" y2="5.66"/>
                  
            <g class="bond" id="mol1bnd20">
                        
                <line x1="23.15" x2="19.9" y1="5.66" y2="20.55"/>
                        
                <line x1="25.23" x2="22.58" y1="7.56" y2="19.71"/>
                      
            </g>
                  
            <line class="bond" id="mol1bnd21" x1="31.06" x2="19.9" y1="30.89" y2="20.55"/>
                  
            <line class="bond" id="mol1bnd22" x1="19.9" x2="7.0" y1="20.55" y2="24.6"/>
                  
            <path class="atom" d="M5.57 88.53q.0 .76 -.26 1.33q-.26 .57 -.76 .88q-.5 .32 -1.24 .32q-.76 .0 -1.26 -.32q-.51 -.32 -.76 -.89q-.24 -.57 -.24 -1.33q.0 -.75 .24 -1.31q.25 -.57 .76 -.88q.51 -.32 1.27 -.32q.73 .0 1.23 .32q.5 .31 .76 .88q.26 .57 .26 1.33zM1.71 88.53q.0 .92 .39 1.46q.39 .53 1.22 .53q.84 .0 1.22 -.53q.39 -.54 .39 -1.46q.0 -.93 -.39 -1.45q-.38 -.52 -1.21 -.52q-.83 .0 -1.23 .52q-.39 .52 -.39 1.45z" fill="#FF0D0D" id="mol1atm3" stroke="none"/>
                  
            <g class="atom" id="mol1atm4">
                        
                <path d="M29.61 82.54h-.72l-2.62 -4.07h-.03q.01 .24 .03 .6q.02 .36 .02 .73v2.74h-.57v-4.9h.71l2.61 4.05h.03q-.01 -.11 -.02 -.33q-.01 -.22 -.02 -.48q-.01 -.26 -.01 -.48v-2.77h.58v4.9z" stroke="none"/>
                        
                <path d="M29.48 88.0h-.62v-2.29h-2.51v2.29h-.61v-4.9h.61v2.07h2.51v-2.07h.62v4.9z" stroke="none"/>
                      
            </g>
                  
            <path class="atom" d="M78.86 45.23q.92 .0 1.39 .27q.47 .27 .47 .94q.0 .43 -.24 .72q-.24 .29 -.69 .36v.04q.31 .05 .56 .18q.25 .13 .39 .38q.15 .24 .15 .62q.0 .67 -.46 1.03q-.46 .36 -1.24 .36h-1.72v-4.9h1.4zM78.98 47.32q.63 .0 .86 -.2q.24 -.2 .24 -.6q.0 -.4 -.29 -.58q-.29 -.18 -.91 -.18h-.81v1.56h.9zM78.08 47.83v1.77h.99q.65 .0 .9 -.25q.26 -.26 .26 -.67q.0 -.38 -.27 -.62q-.26 -.24 -.94 -.24h-.94zM83.55 46.38q.1 .0 .22 .01q.13 .01 .21 .03l-.07 .55q-.09 -.02 -.2 -.03q-.11 -.02 -.2 -.02q-.28 .0 -.53 .15q-.24 .15 -.39 .43q-.15 .27 -.15 .65v1.96h-.6v-3.67h.49l.07 .67h.03q.18 -.3 .46 -.52q.28 -.22 .67 -.22z" fill="#A62929" id="mol1atm11" stroke="none"/>
                  
            <path class="atom" d="M14.78 51.65h-.72l-2.62 -4.07h-.03q.01 .24 .03 .6q.02 .36 .02 .73v2.74h-.57v-4.9h.71l2.61 4.05h.03q-.01 -.11 -.02 -.33q-.01 -.22 -.02 -.48q-.01 -.26 -.01 -.48v-2.77h.58v4.9z" id="mol1atm13" stroke="none"/>
                  
            <path class="atom" d="M2.91 23.3q-.79 .0 -1.24 .53q-.45 .52 -.45 1.45q.0 .91 .42 1.45q.42 .53 1.27 .53q.32 .0 .61 -.05q.29 -.06 .57 -.14v.54q-.27 .1 -.57 .15q-.29 .05 -.7 .05q-.74 .0 -1.25 -.31q-.5 -.31 -.75 -.88q-.25 -.57 -.25 -1.34q.0 -.74 .27 -1.31q.27 -.57 .8 -.88q.53 -.32 1.28 -.32q.78 .0 1.35 .29l-.24 .52q-.23 -.1 -.51 -.18q-.27 -.08 -.61 -.08zM5.66 27.72h-.6v-5.21h.6v5.21z" fill="#1FF01F" id="mol1atm20" stroke="none"/>
                
            <line class="hi" id="mol1bnd3" stroke="#3050F8" x1="24.37" x2="18.605" y1="79.32" y2="77.97999999999999"/>
            <line class="hi" id="mol1bnd4" stroke="#3050F8" x1="30.71" x2="35.135000000000005" y1="77.65" y2="74.095"/>
            <line class="hi" id="mol1bnd11" stroke="#A62929" x1="76.25" x2="71.11500000000001" y1="49.37" y2="52.334999999999994"/>
            <line class="hi" id="mol1bnd14" stroke="#3050F8" x1="11.05" x2="8.645" y1="52.91" y2="57.915"/>
            <line class="hi" id="mol1bnd22" stroke="#1FF01F" x1="7.0" x2="13.45" y1="24.6" y2="22.575000000000003"/>
        </g>
          
    </g>
    
</svg>
