<svg xmlns="http://www.w3.org/2000/svg" xmlns:xlink="http://www.w3.org/1999/xlink" height="51.81mm" version="1.2" viewBox="0 0 126.97 51.81" width="126.97mm">
      
    <desc>Generated by the Chemistry Development Kit (http://github.com/cdk)</desc>
      
    <g fill="#FF0D0D" stroke="#000000" stroke-linecap="round" stroke-linejoin="round" stroke-width=".7">
            
        <rect fill="#FFFFFF" height="52.0" stroke="none" width="127.0" x=".0" y=".0"/>
            
        <g class="mol" id="mol1">
                  
            <g class="bond" id="mol1bnd1">
                        
                <line x1="112.72" x2="125.93" y1="33.49" y2="25.87"/>
                        
                <line x1="112.72" x2="123.49" y1="30.67" y2="24.46"/>
                      
            </g>
                  
            <line class="bond" id="mol1bnd2" x1="112.72" x2="99.51" y1="33.49" y2="25.87"/>
                  
            <g class="bond" id="mol1bnd3">
                        
                <line x1="99.51" x2="99.51" y1="10.63" y2="25.87"/>
                        
                <line x1="101.95" x2="101.95" y1="12.04" y2="24.46"/>
                      
            </g>
                  
            <line class="bond" id="mol1bnd4" x1="99.51" x2="109.57" y1="10.63" y2="4.83"/>
                  
            <g class="bond" id="mol1bnd5">
                        
                <line x1="125.93" x2="115.87" y1="10.63" y2="4.83"/>
                        
                <line x1="123.49" x2="114.65" y1="12.04" y2="6.94"/>
                      
                <line class="hi" stroke="#3050F8" x1="115.87" x2="120.9" y1="4.83" y2="7.73"/>
                <line class="hi" stroke="#3050F8" x1="114.65" x2="119.07" y1="6.94" y2="9.49"/>
            </g>
                  
            <line class="bond" id="mol1bnd6" x1="125.93" x2="125.93" y1="25.87" y2="10.63"/>
                  
            <line class="bond" id="mol1bnd7" x1="99.51" x2="86.31" y1="25.87" y2="33.49"/>
                  
            <g class="bond" id="mol1bnd8">
                        
                <line x1="87.53" x2="87.54" y1="32.79" y2="44.81"/>
                        
                <line x1="85.1" x2="85.1" y1="32.79" y2="44.81"/>
                      
                <line class="hi" stroke="#FF0D0D" x1="87.54" x2="87.535" y1="44.81" y2="38.8"/>
                <line class="hi" stroke="#FF0D0D" x1="85.1" x2="85.1" y1="44.81" y2="38.8"/>
            </g>
                  
            <line class="bond" id="mol1bnd9" x1="86.31" x2="76.27" y1="33.49" y2="27.69"/>
                  
            <line class="bond" id="mol1bnd10" x1="69.96" x2="59.92" y1="27.7" y2="33.5"/>
                  
            <line class="bond" id="mol1bnd11" x1="59.92" x2="46.72" y1="33.5" y2="25.88"/>
                  
            <line class="bond" id="mol1bnd12" x1="46.72" x2="33.52" y1="25.88" y2="33.5"/>
                  
            <line class="bond" id="mol1bnd13" x1="33.52" x2="20.32" y1="33.5" y2="25.88"/>
                  
            <g class="bond" id="mol1bnd14">
                        
                <line x1="19.1" x2="19.1" y1="26.59" y2="14.56"/>
                        
                <line x1="21.54" x2="21.54" y1="26.59" y2="14.56"/>
                      
                <line class="hi" stroke="#FF0D0D" x1="19.1" x2="19.1" y1="14.56" y2="20.575"/>
                <line class="hi" stroke="#FF0D0D" x1="21.54" x2="21.54" y1="14.56" y2="20.575"/>
            </g>
                  
            <line class="bond" id="mol1bnd15" x1="20.32" x2="10.4" y1="25.88" y2="31.61"/>
                  
            <path class="atom" d="M114.66 5.46h-.72l-2.62 -4.07h-.03q.01 .24 .03 .6q.02 .36 .02 .73v2.74h-.57v-4.9h.71l2.61 4.05h.03q-.01 -.11 -.02 -.33q-.01 -.22 -.02 -.48q-.01 -.26 -.01 -.48v-2.77h.58v4.9z" fill="#3050F8" id="mol1atm5" stroke="none"/>
                  
            <path class="atom" d="M88.58 48.73q.0 .76 -.26 1.33q-.26 .57 -.76 .88q-.5 .32 -1.24 .32q-.76 .0 -1.26 -.32q-.51 -.32 -.76 -.89q-.24 -.57 -.24 -1.33q.0 -.75 .24 -1.31q.25 -.57 .76 -.88q.51 -.32 1.27 -.32q.73 .0 1.23 .32q.5 .31 .76 .88q.26 .57 .26 1.33zM84.71 48.73q.0 .92 .39 1.46q.39 .53 1.22 .53q.84 .0 1.22 -.53q.39 -.54 .39 -1.46q.0 -.93 -.39 -1.45q-.38 -.52 -1.21 -.52q-.83 .0 -1.23 .52q-.39 .52 -.39 1.45z" id="mol1atm8" stroke="none"/>
                  
            <g class="atom" id="mol1atm9">
                        
                <path d="M75.06 28.32h-.72l-2.62 -4.07h-.03q.01 .24 .03 .6q.02 .36 .02 .73v2.74h-.57v-4.9h.71l2.61 4.05h.03q-.01 -.11 -.02 -.33q-.01 -.22 -.02 -.48q-.01 -.26 -.01 -.48v-2.77h.58v4.9z" fill="#3050F8" stroke="none"/>
                        
                <path d="M74.92 22.86h-.62v-2.29h-2.51v2.29h-.61v-4.9h.61v2.07h2.51v-2.07h.62v4.9z" fill="#3050F8" stroke="none"/>
                      
            </g>
                  
            <path class="atom" d="M22.58 10.64q.0 .76 -.26 1.33q-.26 .57 -.76 .88q-.5 .32 -1.24 .32q-.76 .0 -1.26 -.32q-.51 -.32 -.76 -.89q-.24 -.57 -.24 -1.33q.0 -.75 .24 -1.31q.25 -.57 .76 -.88q.51 -.32 1.27 -.32q.73 .0 1.23 .32q.5 .31 .76 .88q.26 .57 .26 1.33zM18.72 10.64q.0 .92 .39 1.46q.39 .53 1.22 .53q.84 .0 1.22 -.53q.39 -.54 .39 -1.46q.0 -.93 -.39 -1.45q-.38 -.52 -1.21 -.52q-.83 .0 -1.23 .52q-.39 .52 -.39 1.45z" id="mol1atm14" stroke="none"/>
                  
            <g class="atom" id="mol1atm15">
                        
                <path d="M9.38 33.5q.0 .76 -.26 1.33q-.26 .57 -.76 .88q-.5 .32 -1.24 .32q-.76 .0 -1.26 -.32q-.51 -.32 -.76 -.89q-.24 -.57 -.24 -1.33q.0 -.75 .24 -1.31q.25 -.57 .76 -.88q.51 -.32 1.27 -.32q.73 .0 1.23 .32q.5 .31 .76 .88q.26 .57 .26 1.33zM5.52 33.5q.0 .92 .39 1.46q.39 .53 1.22 .53q.84 .0 1.22 -.53q.39 -.54 .39 -1.46q.0 -.93 -.39 -1.45q-.38 -.52 -1.21 -.52q-.83 .0 -1.23 .52q-.39 .52 -.39 1.45z" stroke="none"/>
                        
                <path d="M4.3 35.95h-.62v-2.29h-2.51v2.29h-.61v-4.9h.61v2.07h2.51v-2.07h.62v4.9z" stroke="none"/>
                      
            </g>
                
            <line class="hi" id="mol1bnd4" stroke="#3050F8" x1="109.57" x2="104.53999999999999" y1="4.83" y2="7.73"/>
            <line class="hi" id="mol1bnd9" stroke="#3050F8" x1="76.27" x2="81.28999999999999" y1="27.69" y2="30.590000000000003"/>
            <line class="hi" id="mol1bnd9" stroke="#3050F8" x1="76.27" x2="81.28999999999999" y1="27.69" y2="30.590000000000003"/>
            <line class="hi" id="mol1bnd10" stroke="#3050F8" x1="69.96" x2="64.94" y1="27.7" y2="30.6"/>
            <line class="hi" id="mol1bnd10" stroke="#3050F8" x1="69.96" x2="64.94" y1="27.7" y2="30.6"/>
            <line class="hi" id="mol1bnd15" stroke="#FF0D0D" x1="10.4" x2="15.36" y1="31.61" y2="28.744999999999997"/>
            <line class="hi" id="mol1bnd15" stroke="#FF0D0D" x1="10.4" x2="15.36" y1="31.61" y2="28.744999999999997"/>
        </g>
          
    </g>
    
</svg>
