<svg xmlns="http://www.w3.org/2000/svg" xmlns:xlink="http://www.w3.org/1999/xlink" height="80.27mm" version="1.2" viewBox="0 0 81.28 80.27" width="81.28mm">
      
    <desc>Generated by the Chemistry Development Kit (http://github.com/cdk)</desc>
      
    <g fill="#3050F8" stroke="#000000" stroke-linecap="round" stroke-linejoin="round" stroke-width=".7">
            
        <rect fill="#FFFFFF" height="81.0" stroke="none" width="82.0" x=".0" y=".0"/>
            
        <g class="mol" id="mol1">
                  
            <line class="bond" id="mol1bnd1" x1="14.26" x2="27.45" y1="31.5" y2="23.89"/>
                  
            <line class="bond" id="mol1bnd2" x1="27.45" x2="40.64" y1="23.89" y2="31.5"/>
                  
            <line class="bond" id="mol1bnd3" x1="40.64" x2="40.64" y1="31.5" y2="42.88"/>
                  
            <line class="bond" id="mol1bnd4" x1="43.79" x2="53.84" y1="48.55" y2="54.35"/>
                  
            <g class="bond" id="mol1bnd5">
                        
                <line x1="67.04" x2="53.84" y1="46.73" y2="54.35"/>
                        
                <line x1="67.04" x2="56.28" y1="49.55" y2="55.76"/>
                      
            </g>
                  
            <line class="bond" id="mol1bnd6" x1="67.04" x2="80.24" y1="46.73" y2="54.35"/>
                  
            <g class="bond" id="mol1bnd7">
                        
                <line x1="80.24" x2="80.24" y1="69.58" y2="54.35"/>
                        
                <line x1="77.8" x2="77.8" y1="68.17" y2="55.76"/>
                      
            </g>
                  
            <line class="bond" id="mol1bnd8" x1="80.24" x2="67.04" y1="69.58" y2="77.2"/>
                  
            <g class="bond" id="mol1bnd9">
                        
                <line x1="53.84" x2="67.04" y1="69.58" y2="77.2"/>
                        
                <line x1="56.28" x2="67.04" y1="68.17" y2="74.38"/>
                      
            </g>
                  
            <line class="bond" id="mol1bnd10" x1="53.84" x2="53.84" y1="54.35" y2="69.58"/>
                  
            <line class="bond" id="mol1bnd11" x1="53.84" x2="43.34" y1="69.58" y2="75.64"/>
                  
            <line class="bond" id="mol1bnd12" x1="37.93" x2="27.44" y1="75.63" y2="69.58"/>
                  
            <g class="bond" id="mol1bnd13">
                        
                <line x1="14.24" x2="27.44" y1="77.2" y2="69.58"/>
                        
                <line x1="14.24" x2="25.0" y1="74.38" y2="68.17"/>
                      
            </g>
                  
            <line class="bond" id="mol1bnd14" x1="14.24" x2="1.04" y1="77.2" y2="69.58"/>
                  
            <g class="bond" id="mol1bnd15">
                        
                <line x1="1.04" x2="1.04" y1="54.35" y2="69.58"/>
                        
                <line x1="3.48" x2="3.48" y1="55.76" y2="68.17"/>
                      
            </g>
                  
            <line class="bond" id="mol1bnd16" x1="1.04" x2="14.24" y1="54.35" y2="46.73"/>
                  
            <g class="bond" id="mol1bnd17">
                        
                <line x1="27.44" x2="14.24" y1="54.35" y2="46.73"/>
                        
                <line x1="25.0" x2="14.24" y1="55.76" y2="49.55"/>
                      
            </g>
                  
            <line class="bond" id="mol1bnd18" x1="27.44" x2="27.44" y1="69.58" y2="54.35"/>
                  
            <line class="bond" id="mol1bnd19" x1="37.49" x2="27.44" y1="48.55" y2="54.35"/>
                  
            <line class="bond" id="mol1bnd20" x1="27.45" x2="27.45" y1="23.89" y2="12.5"/>
                  
            <line class="bond" id="mol1bnd21" x1="24.3" x2="14.26" y1="6.83" y2="1.04"/>
                  
            <line class="bond" id="mol1bnd22" x1="30.6" x2="40.64" y1="6.83" y2="1.04"/>
                  
            <path class="atom" d="M42.58 49.18h-.72l-2.62 -4.07h-.03q.01 .24 .03 .6q.02 .36 .02 .73v2.74h-.57v-4.9h.71l2.61 4.05h.03q-.01 -.11 -.02 -.33q-.01 -.22 -.02 -.48q-.01 -.26 -.01 -.48v-2.77h.58v4.9z" id="mol1atm4" stroke="none"/>
                  
            <path class="atom" d="M42.18 78.33q.0 .65 -.48 1.02q-.47 .36 -1.27 .36q-.42 .0 -.77 -.07q-.35 -.06 -.58 -.17v-.59q.24 .11 .61 .2q.37 .09 .76 .09q.55 .0 .83 -.21q.28 -.21 .28 -.58q.0 -.24 -.11 -.4q-.1 -.17 -.35 -.31q-.25 -.14 -.7 -.3q-.63 -.23 -.95 -.55q-.32 -.33 -.32 -.9q.0 -.39 .2 -.67q.2 -.28 .55 -.43q.36 -.15 .82 -.15q.4 .0 .74 .08q.34 .07 .61 .2l-.2 .53q-.25 -.11 -.55 -.18q-.3 -.08 -.63 -.08q-.46 .0 -.69 .2q-.23 .2 -.23 .52q.0 .24 .1 .41q.11 .17 .34 .3q.23 .13 .63 .28q.43 .15 .73 .34q.3 .18 .45 .43q.15 .25 .15 .64z" fill="#C6C62C" id="mol1atm11" stroke="none"/>
                  
            <path class="atom" d="M29.39 11.1h-.72l-2.62 -4.07h-.03q.01 .24 .03 .6q.02 .36 .02 .73v2.74h-.57v-4.9h.71l2.61 4.05h.03q-.01 -.11 -.02 -.33q-.01 -.22 -.02 -.48q-.01 -.26 -.01 -.48v-2.77h.58v4.9z" id="mol1atm18" stroke="none"/>
                
            <line class="hi" id="mol1bnd3" stroke="#3050F8" x1="40.64" x2="40.64" y1="42.88" y2="37.19"/>
            <line class="hi" id="mol1bnd4" stroke="#3050F8" x1="43.79" x2="48.815" y1="48.55" y2="51.45"/>
            <line class="hi" id="mol1bnd11" stroke="#C6C62C" x1="43.34" x2="48.59" y1="75.64" y2="72.61"/>
            <line class="hi" id="mol1bnd12" stroke="#C6C62C" x1="37.93" x2="32.685" y1="75.63" y2="72.60499999999999"/>
            <line class="hi" id="mol1bnd19" stroke="#3050F8" x1="37.49" x2="32.465" y1="48.55" y2="51.45"/>
            <line class="hi" id="mol1bnd20" stroke="#3050F8" x1="27.45" x2="27.45" y1="12.5" y2="18.195"/>
            <line class="hi" id="mol1bnd21" stroke="#3050F8" x1="24.3" x2="19.28" y1="6.83" y2="3.935"/>
            <line class="hi" id="mol1bnd22" stroke="#3050F8" x1="30.6" x2="35.620000000000005" y1="6.83" y2="3.935"/>
        </g>
          
    </g>
    
</svg>
