<svg xmlns="http://www.w3.org/2000/svg" xmlns:xlink="http://www.w3.org/1999/xlink" height="119.37mm" version="1.2" viewBox="0 0 81.78 119.37" width="81.78mm">
      
    <desc>Generated by the Chemistry Development Kit (http://github.com/cdk)</desc>
      
    <g fill="#90E050" stroke="#000000" stroke-linecap="round" stroke-linejoin="round" stroke-width=".7">
            
        <rect fill="#FFFFFF" height="120.0" stroke="none" width="82.0" x=".0" y=".0"/>
            
        <g class="mol" id="mol1">
                  
            <line class="bond" id="mol1bnd1" x1="5.03" x2="11.63" y1="62.79" y2="76.51"/>
                  
            <g class="bond" id="mol1bnd2">
                        
                <line x1="12.95" x2="5.38" y1="76.81" y2="86.26"/>
                        
                <line x1="11.05" x2="3.48" y1="75.29" y2="84.74"/>
                      
                <line class="hi" stroke="#C6C62C" x1="5.38" x2="9.165" y1="86.26" y2="81.535"/>
                <line class="hi" stroke="#C6C62C" x1="3.4800000000000004" x2="7.265000000000001" y1="84.74" y2="80.015"/>
            </g>
                  
            <line class="bond" id="mol1bnd3" x1="11.63" x2="23.16" y1="76.51" y2="79.19"/>
                  
            <line class="bond" id="mol1bnd4" x1="29.5" x2="38.35" y1="77.53" y2="70.41"/>
                  
            <g class="bond" id="mol1bnd5">
                        
                <line x1="38.35" x2="38.35" y1="55.17" y2="70.41"/>
                        
                <line x1="40.79" x2="40.79" y1="56.58" y2="69.0"/>
                      
            </g>
                  
            <line class="bond" id="mol1bnd6" x1="38.35" x2="51.56" y1="55.17" y2="47.55"/>
                  
            <g class="bond" id="mol1bnd7">
                        
                <line x1="64.77" x2="51.56" y1="55.17" y2="47.55"/>
                        
                <line x1="62.33" x2="51.56" y1="56.58" y2="50.37"/>
                      
            </g>
                  
            <line class="bond" id="mol1bnd8" x1="64.77" x2="64.77" y1="55.17" y2="70.41"/>
                  
            <g class="bond" id="mol1bnd9">
                        
                <line x1="51.56" x2="64.77" y1="78.03" y2="70.41"/>
                        
                <line x1="51.56" x2="62.33" y1="75.22" y2="69.0"/>
                      
            </g>
                  
            <line class="bond" id="mol1bnd10" x1="38.35" x2="51.56" y1="70.41" y2="78.03"/>
                  
            <line class="bond" id="mol1bnd11" x1="64.77" x2="75.01" y1="55.17" y2="49.26"/>
                  
            <line class="bond" id="mol1bnd12" x1="38.35" x2="26.47" y1="55.17" y2="45.62"/>
                  
            <g class="bond" id="mol1bnd13">
                        
                <line x1="26.47" x2="14.94" y1="45.62" y2="48.31"/>
                        
                <line x1="25.86" x2="15.49" y1="48.26" y2="50.68"/>
                      
                <line class="hi" stroke="#3050F8" x1="14.94" x2="20.705" y1="48.31" y2="46.965"/>
                <line class="hi" stroke="#3050F8" x1="15.49" x2="20.675" y1="50.68" y2="49.47"/>
            </g>
                  
            <line class="bond" id="mol1bnd14" x1="5.03" x2="9.85" y1="62.79" y2="52.79"/>
                  
            <line class="bond" id="mol1bnd15" x1="26.47" x2="29.85" y1="45.62" y2="30.76"/>
                  
            <g class="bond" id="mol1bnd16">
                        
                <line x1="29.85" x2="44.33" y1="30.76" y2="26.27"/>
                        
                <line x1="30.48" x2="42.27" y1="28.01" y2="24.35"/>
                      
            </g>
                  
            <line class="bond" id="mol1bnd17" x1="44.33" x2="47.74" y1="26.27" y2="11.41"/>
                  
            <g class="bond" id="mol1bnd18">
                        
                <line x1="47.74" x2="36.67" y1="11.41" y2="1.05"/>
                        
                <line x1="45.05" x2="36.04" y1="12.24" y2="3.8"/>
                      
            </g>
                  
            <line class="bond" id="mol1bnd19" x1="36.67" x2="22.09" y1="1.05" y2="5.53"/>
                  
            <g class="bond" id="mol1bnd20">
                        
                <line x1="22.09" x2="18.68" y1="5.53" y2="20.38"/>
                        
                <line x1="24.16" x2="21.38" y1="7.44" y2="19.55"/>
                      
            </g>
                  
            <line class="bond" id="mol1bnd21" x1="29.85" x2="18.68" y1="30.76" y2="20.38"/>
                  
            <line class="bond" id="mol1bnd22" x1="18.68" x2="6.74" y1="20.38" y2="24.05"/>
                  
            <line class="bond" id="mol1bnd23" x1="27.34" x2="29.85" y1="83.78" y2="94.82"/>
                  
            <line class="bond" id="mol1bnd24" x1="29.85" x2="18.68" y1="94.82" y2="105.18"/>
                  
            <line class="bond" id="mol1bnd25" x1="18.68" x2="10.05" y1="105.18" y2="95.88"/>
                  
            <line class="bond" id="mol1bnd26" x1="18.68" x2="9.86" y1="105.18" y2="113.36"/>
                  
            <line class="bond" id="mol1bnd27" x1="18.68" x2="26.72" y1="105.18" y2="113.86"/>
                  
            <path class="atom" d="M3.65 89.54q.0 .65 -.48 1.02q-.47 .36 -1.27 .36q-.42 .0 -.77 -.07q-.35 -.06 -.58 -.17v-.59q.24 .11 .61 .2q.37 .09 .76 .09q.55 .0 .83 -.21q.28 -.21 .28 -.58q.0 -.24 -.11 -.4q-.1 -.17 -.35 -.31q-.25 -.14 -.7 -.3q-.63 -.23 -.95 -.55q-.32 -.33 -.32 -.9q.0 -.39 .2 -.67q.2 -.28 .55 -.43q.36 -.15 .82 -.15q.4 .0 .74 .08q.34 .07 .61 .2l-.2 .53q-.25 -.11 -.55 -.18q-.3 -.08 -.63 -.08q-.46 .0 -.69 .2q-.23 .2 -.23 .52q.0 .24 .1 .41q.11 .17 .34 .3q.23 .13 .63 .28q.43 .15 .73 .34q.3 .18 .45 .43q.15 .25 .15 .64z" fill="#C6C62C" id="mol1atm3" stroke="none"/>
                  
            <path class="atom" d="M28.41 82.41h-.72l-2.62 -4.07h-.03q.01 .24 .03 .6q.02 .36 .02 .73v2.74h-.57v-4.9h.71l2.61 4.05h.03q-.01 -.11 -.02 -.33q-.01 -.22 -.02 -.48q-.01 -.26 -.01 -.48v-2.77h.58v4.9z" fill="#3050F8" id="mol1atm4" stroke="none"/>
                  
            <path class="atom" d="M78.46 45.57q-.79 .0 -1.24 .53q-.45 .52 -.45 1.45q.0 .91 .42 1.45q.42 .53 1.27 .53q.32 .0 .61 -.05q.29 -.06 .57 -.14v.54q-.27 .1 -.57 .15q-.29 .05 -.7 .05q-.74 .0 -1.25 -.31q-.5 -.31 -.75 -.88q-.25 -.57 -.25 -1.34q.0 -.74 .27 -1.31q.27 -.57 .8 -.88q.53 -.32 1.28 -.32q.78 .0 1.35 .29l-.24 .52q-.23 -.1 -.51 -.18q-.27 -.08 -.61 -.08zM81.22 50.0h-.6v-5.21h.6v5.21z" fill="#1FF01F" id="mol1atm11" stroke="none"/>
                  
            <path class="atom" d="M13.57 51.53h-.72l-2.62 -4.07h-.03q.01 .24 .03 .6q.02 .36 .02 .73v2.74h-.57v-4.9h.71l2.61 4.05h.03q-.01 -.11 -.02 -.33q-.01 -.22 -.02 -.48q-.01 -.26 -.01 -.48v-2.77h.58v4.9z" fill="#3050F8" id="mol1atm13" stroke="none"/>
                  
            <path class="atom" d="M3.36 27.3h-.61v-4.9h2.73v.54h-2.12v1.74h1.99v.54h-1.99v2.08z" id="mol1atm20" stroke="none"/>
                  
            <path class="atom" d="M7.56 96.46h-.61v-4.9h2.73v.54h-2.12v1.74h1.99v.54h-1.99v2.08z" id="mol1atm23" stroke="none"/>
                  
            <path class="atom" d="M6.75 117.99h-.61v-4.9h2.73v.54h-2.12v1.74h1.99v.54h-1.99v2.08z" id="mol1atm24" stroke="none"/>
                  
            <path class="atom" d="M28.29 118.81h-.61v-4.9h2.73v.54h-2.12v1.74h1.99v.54h-1.99v2.08z" id="mol1atm25" stroke="none"/>
                
            <line class="hi" id="mol1bnd3" stroke="#3050F8" x1="23.16" x2="17.395" y1="79.19" y2="77.85"/>
            <line class="hi" id="mol1bnd4" stroke="#3050F8" x1="29.5" x2="33.925" y1="77.53" y2="73.97"/>
            <line class="hi" id="mol1bnd11" stroke="#1FF01F" x1="75.01" x2="69.89" y1="49.26" y2="52.215"/>
            <line class="hi" id="mol1bnd14" stroke="#3050F8" x1="9.85" x2="7.4399999999999995" y1="52.79" y2="57.79"/>
            <line class="hi" id="mol1bnd22" stroke="#90E050" x1="6.74" x2="12.71" y1="24.05" y2="22.215"/>
            <line class="hi" id="mol1bnd23" stroke="#3050F8" x1="27.34" x2="28.595" y1="83.78" y2="89.3"/>
            <line class="hi" id="mol1bnd25" stroke="#90E050" x1="10.05" x2="14.365" y1="95.88" y2="100.53"/>
            <line class="hi" id="mol1bnd26" stroke="#90E050" x1="9.86" x2="14.27" y1="113.36" y2="109.27000000000001"/>
            <line class="hi" id="mol1bnd27" stroke="#90E050" x1="26.72" x2="22.7" y1="113.86" y2="109.52000000000001"/>
        </g>
          
    </g>
    
</svg>
