<svg xmlns="http://www.w3.org/2000/svg" xmlns:xlink="http://www.w3.org/1999/xlink" height="118.37mm" version="1.2" viewBox="0 0 54.88 118.37" width="54.88mm">
      
    <desc>Generated by the Chemistry Development Kit (http://github.com/cdk)</desc>
      
    <g fill="#1FF01F" stroke="#000000" stroke-linecap="round" stroke-linejoin="round" stroke-width=".7">
            
        <rect fill="#FFFFFF" height="119.0" stroke="none" width="55.0" x=".0" y=".0"/>
            
        <g class="mol" id="mol1">
                  
            <line class="bond" id="mol1bnd1" x1="1.05" x2="11.09" y1="1.04" y2="6.83"/>
                  
            <g class="bond" id="mol1bnd2">
                        
                <line stroke="#000000" x1="13.89" x2="14.59" y1="23.89" y2="23.89"/>
                        
                <line stroke="#3050F8" x1="13.6" x2="14.88" y1="21.35" y2="21.35"/>
                        
                <line stroke="#3050F8" x1="13.31" x2="15.17" y1="18.81" y2="18.81"/>
                        
                <line stroke="#3050F8" x1="13.01" x2="15.46" y1="16.27" y2="16.27"/>
                        
                <line stroke="#3050F8" x1="12.72" x2="15.76" y1="13.73" y2="13.73"/>
                      
            </g>
                  
            <line class="bond" id="mol1bnd3" x1="14.24" x2="1.04" y1="23.89" y2="31.5"/>
                  
            <line class="bond" id="mol1bnd4" x1="1.04" x2="1.04" y1="31.5" y2="46.73"/>
                  
            <line class="bond" id="mol1bnd5" x1="1.04" x2="14.24" y1="46.73" y2="54.35"/>
                  
            <line class="bond" id="mol1bnd6" x1="14.24" x2="27.44" y1="54.35" y2="46.73"/>
                  
            <g class="bond" id="mol1bnd7">
                        
                <line x1="27.44" x2="40.64" y1="46.73" y2="54.35"/>
                        
                <line x1="29.88" x2="40.64" y1="45.32" y2="51.53"/>
                      
            </g>
                  
            <line class="bond" id="mol1bnd8" x1="40.64" x2="53.84" y1="54.35" y2="46.73"/>
                  
            <g class="bond" id="mol1bnd9">
                        
                <line x1="53.84" x2="53.84" y1="46.73" y2="31.5"/>
                        
                <line x1="51.4" x2="51.4" y1="45.32" y2="32.91"/>
                      
            </g>
                  
            <line class="bond" id="mol1bnd10" x1="53.84" x2="40.64" y1="31.5" y2="23.89"/>
                  
            <g class="bond" id="mol1bnd11">
                        
                <line x1="40.64" x2="27.44" y1="23.89" y2="31.5"/>
                        
                <line x1="40.64" x2="29.88" y1="26.7" y2="32.91"/>
                      
            </g>
                  
            <line class="bond" id="mol1bnd12" x1="14.24" x2="27.44" y1="23.89" y2="31.5"/>
                  
            <line class="bond" id="mol1bnd13" x1="27.44" x2="27.44" y1="46.73" y2="31.5"/>
                  
            <g class="bond" id="mol1bnd14">
                        
                <line x1="14.59" x2="13.89" y1="54.35" y2="54.35"/>
                        
                <line x1="14.88" x2="13.6" y1="56.89" y2="56.89"/>
                        
                <line x1="15.17" x2="13.31" y1="59.43" y2="59.43"/>
                        
                <line x1="15.46" x2="13.01" y1="61.96" y2="61.96"/>
                        
                <line x1="15.76" x2="12.72" y1="64.5" y2="64.5"/>
                        
                <line x1="16.05" x2="12.43" y1="67.04" y2="67.04"/>
                        
                <line x1="16.34" x2="12.14" y1="69.58" y2="69.58"/>
                      
            </g>
                  
            <g class="bond" id="mol1bnd15">
                        
                <line x1="27.44" x2="14.24" y1="77.2" y2="69.58"/>
                        
                <line x1="25.0" x2="14.24" y1="78.61" y2="72.4"/>
                      
            </g>
                  
            <line class="bond" id="mol1bnd16" x1="27.44" x2="27.44" y1="77.2" y2="92.44"/>
                  
            <g class="bond" id="mol1bnd17">
                        
                <line x1="14.25" x2="27.44" y1="100.06" y2="92.44"/>
                        
                <line x1="14.25" x2="25.0" y1="97.24" y2="91.04"/>
                      
            </g>
                  
            <line class="bond" id="mol1bnd18" x1="14.25" x2="1.06" y1="100.06" y2="92.44"/>
                  
            <g class="bond" id="mol1bnd19">
                        
                <line x1="1.05" x2="1.06" y1="77.2" y2="92.44"/>
                        
                <line x1="3.49" x2="3.49" y1="78.61" y2="91.03"/>
                      
            </g>
                  
            <line class="bond" id="mol1bnd20" x1="14.24" x2="1.05" y1="69.58" y2="77.2"/>
                  
            <line class="bond" id="mol1bnd21" x1="14.25" x2="14.25" y1="100.06" y2="111.35"/>
                  
            <line class="bond" id="mol1bnd22" x1="27.44" x2="37.69" y1="92.44" y2="98.35"/>
                  
            <g class="atom" id="mol1atm2">
                        
                <path d="M16.18 11.1h-.72l-2.62 -4.07h-.03q.01 .24 .03 .6q.02 .36 .02 .73v2.74h-.57v-4.9h.71l2.61 4.05h.03q-.01 -.11 -.02 -.33q-.01 -.22 -.02 -.48q-.01 -.26 -.01 -.48v-2.77h.58v4.9z" fill="#3050F8" stroke="none"/>
                        
                <path d="M20.49 11.1h-.62v-2.29h-2.51v2.29h-.61v-4.9h.61v2.07h2.51v-2.07h.62v4.9z" fill="#3050F8" stroke="none"/>
                      
            </g>
                  
            <path class="atom" d="M14.75 113.32q-.79 .0 -1.24 .53q-.45 .52 -.45 1.45q.0 .91 .42 1.45q.42 .53 1.27 .53q.32 .0 .61 -.05q.29 -.06 .57 -.14v.54q-.27 .1 -.57 .15q-.29 .05 -.7 .05q-.74 .0 -1.25 -.31q-.5 -.31 -.75 -.88q-.25 -.57 -.25 -1.34q.0 -.74 .27 -1.31q.27 -.57 .8 -.88q.53 -.32 1.28 -.32q.78 .0 1.35 .29l-.24 .52q-.23 -.1 -.51 -.18q-.27 -.08 -.61 -.08zM17.5 117.74h-.6v-5.21h.6v5.21z" id="mol1atm19" stroke="none"/>
                  
            <path class="atom" d="M41.13 98.08q-.79 .0 -1.24 .53q-.45 .52 -.45 1.45q.0 .91 .42 1.45q.42 .53 1.27 .53q.32 .0 .61 -.05q.29 -.06 .57 -.14v.54q-.27 .1 -.57 .15q-.29 .05 -.7 .05q-.74 .0 -1.25 -.31q-.5 -.31 -.75 -.88q-.25 -.57 -.25 -1.34q.0 -.74 .27 -1.31q.27 -.57 .8 -.88q.53 -.32 1.28 -.32q.78 .0 1.35 .29l-.24 .52q-.23 -.1 -.51 -.18q-.27 -.08 -.61 -.08zM43.89 102.5h-.6v-5.21h.6v5.21z" id="mol1atm20" stroke="none"/>
                
            <line class="hi" id="mol1bnd1" stroke="#3050F8" x1="11.09" x2="6.07" y1="6.83" y2="3.935"/>
            <line class="hi" id="mol1bnd21" stroke="#1FF01F" x1="14.25" x2="14.25" y1="111.35" y2="105.705"/>
            <line class="hi" id="mol1bnd22" stroke="#1FF01F" x1="37.69" x2="32.565" y1="98.35" y2="95.395"/>
        </g>
          
    </g>
    
</svg>
