<svg xmlns="http://www.w3.org/2000/svg" xmlns:xlink="http://www.w3.org/1999/xlink" height="67.47mm" version="1.2" viewBox="0 0 66.45 67.47" width="66.45mm">
      
    <desc>Generated by the Chemistry Development Kit (http://github.com/cdk)</desc>
      
    <g fill="#3050F8" stroke="#000000" stroke-linecap="round" stroke-linejoin="round" stroke-width=".7">
            
        <rect fill="#FFFFFF" height="68.0" stroke="none" width="67.0" x=".0" y=".0"/>
            
        <g class="mol" id="mol1">
                  
            <line class="bond" id="mol1bnd1" x1="13.08" x2="25.08" y1="1.05" y2="10.45"/>
                  
            <line class="bond" id="mol1bnd2" x1="25.08" x2="23.48" y1="10.45" y2="21.7"/>
                  
            <line class="bond" id="mol1bnd3" x1="25.98" x2="34.93" y1="27.92" y2="34.94"/>
                  
            <line class="bond" id="mol1bnd4" x1="34.93" x2="42.11" y1="34.94" y2="21.48"/>
                  
            <line class="bond" id="mol1bnd5" x1="42.11" x2="57.35" y1="21.48" y2="20.96"/>
                  
            <line class="bond" id="mol1bnd6" x1="57.35" x2="65.41" y1="20.96" y2="33.9"/>
                  
            <line class="bond" id="mol1bnd7" x1="65.41" x2="58.23" y1="33.9" y2="47.35"/>
                  
            <line class="bond" id="mol1bnd8" x1="58.23" x2="42.99" y1="47.35" y2="47.87"/>
                  
            <line class="bond" id="mol1bnd9" x1="34.93" x2="42.99" y1="34.94" y2="47.87"/>
                  
            <g class="bond" id="mol1bnd10">
                        
                <line x1="44.4" x2="38.75" y1="47.82" y2="58.42"/>
                        
                <line x1="42.25" x2="36.6" y1="46.68" y2="57.27"/>
                      
                <line class="hi" stroke="#FF0D0D" x1="38.75" x2="41.575" y1="58.42" y2="53.120000000000005"/>
                <line class="hi" stroke="#FF0D0D" x1="36.6" x2="39.425" y1="57.27" y2="51.975"/>
            </g>
                  
            <line class="bond" id="mol1bnd11" x1="34.93" x2="23.59" y1="34.94" y2="45.12"/>
                  
            <g class="bond" id="mol1bnd12">
                        
                <line x1="23.59" x2="8.67" y1="45.12" y2="41.9"/>
                        
                <line x1="21.35" x2="9.9" y1="47.13" y2="44.66"/>
                      
            </g>
                  
            <line class="bond" id="mol1bnd13" x1="8.67" x2="1.05" y1="41.9" y2="55.1"/>
                  
            <g class="bond" id="mol1bnd14">
                        
                <line x1="1.05" x2="11.3" y1="55.1" y2="66.41"/>
                        
                <line x1="4.05" x2="11.92" y1="54.78" y2="63.47"/>
                      
            </g>
                  
            <line class="bond" id="mol1bnd15" x1="11.3" x2="22.38" y1="66.41" y2="61.49"/>
                  
            <line class="bond" id="mol1bnd16" x1="23.59" x2="24.78" y1="45.12" y2="56.33"/>
                  
            <g class="atom" id="mol1atm3">
                        
                <path d="M24.88 27.99h-.72l-2.62 -4.07h-.03q.01 .24 .03 .6q.02 .36 .02 .73v2.74h-.57v-4.9h.71l2.61 4.05h.03q-.01 -.11 -.02 -.33q-.01 -.22 -.02 -.48q-.01 -.26 -.01 -.48v-2.77h.58v4.9z" stroke="none"/>
                        
                <path d="M20.43 27.99h-.62v-2.29h-2.51v2.29h-.61v-4.9h.61v2.07h2.51v-2.07h.62v4.9z" stroke="none"/>
                      
            </g>
                  
            <path class="atom" d="M38.08 61.32q.0 .76 -.26 1.33q-.26 .57 -.76 .88q-.5 .32 -1.24 .32q-.76 .0 -1.26 -.32q-.51 -.32 -.76 -.89q-.24 -.57 -.24 -1.33q.0 -.75 .24 -1.31q.25 -.57 .76 -.88q.51 -.32 1.27 -.32q.73 .0 1.23 .32q.5 .31 .76 .88q.26 .57 .26 1.33zM34.22 61.32q.0 .92 .39 1.46q.39 .53 1.22 .53q.84 .0 1.22 -.53q.39 -.54 .39 -1.46q.0 -.93 -.39 -1.45q-.38 -.52 -1.21 -.52q-.83 .0 -1.23 .52q-.39 .52 -.39 1.45z" fill="#FF0D0D" id="mol1atm10" stroke="none"/>
                  
            <path class="atom" d="M26.73 61.38q.0 .65 -.48 1.02q-.47 .36 -1.27 .36q-.42 .0 -.77 -.07q-.35 -.06 -.58 -.17v-.59q.24 .11 .61 .2q.37 .09 .76 .09q.55 .0 .83 -.21q.28 -.21 .28 -.58q.0 -.24 -.11 -.4q-.1 -.17 -.35 -.31q-.25 -.14 -.7 -.3q-.63 -.23 -.95 -.55q-.32 -.33 -.32 -.9q.0 -.39 .2 -.67q.2 -.28 .55 -.43q.36 -.15 .82 -.15q.4 .0 .74 .08q.34 .07 .61 .2l-.2 .53q-.25 -.11 -.55 -.18q-.3 -.08 -.63 -.08q-.46 .0 -.69 .2q-.23 .2 -.23 .52q.0 .24 .1 .41q.11 .17 .34 .3q.23 .13 .63 .28q.43 .15 .73 .34q.3 .18 .45 .43q.15 .25 .15 .64z" fill="#C6C62C" id="mol1atm15" stroke="none"/>
                
            <line class="hi" id="mol1bnd2" stroke="#3050F8" x1="23.48" x2="24.28" y1="21.7" y2="16.075"/>
            <line class="hi" id="mol1bnd2" stroke="#3050F8" x1="23.48" x2="24.28" y1="21.7" y2="16.075"/>
            <line class="hi" id="mol1bnd3" stroke="#3050F8" x1="25.98" x2="30.455" y1="27.92" y2="31.43"/>
            <line class="hi" id="mol1bnd3" stroke="#3050F8" x1="25.98" x2="30.455" y1="27.92" y2="31.43"/>
            <line class="hi" id="mol1bnd15" stroke="#C6C62C" x1="22.38" x2="16.84" y1="61.49" y2="63.95"/>
            <line class="hi" id="mol1bnd16" stroke="#C6C62C" x1="24.78" x2="24.185000000000002" y1="56.33" y2="50.724999999999994"/>
        </g>
          
    </g>
    
</svg>
