<svg xmlns="http://www.w3.org/2000/svg" xmlns:xlink="http://www.w3.org/1999/xlink" height="73.92mm" version="1.2" viewBox="0 0 83.14 73.92" width="83.14mm">
      
    <desc>Generated by the Chemistry Development Kit (http://github.com/cdk)</desc>
      
    <g fill="#000000" stroke="#000000" stroke-linecap="round" stroke-linejoin="round" stroke-width=".7">
            
        <rect fill="#FFFFFF" height="74.0" stroke="none" width="84.0" x=".0" y=".0"/>
            
        <g class="mol" id="mol1">
                  
            <line class="bond" id="mol1bnd1" x1="67.89" x2="52.88" y1="72.96" y2="70.31"/>
                  
            <line class="bond" id="mol1bnd2" x1="52.88" x2="49.04" y1="70.31" y2="59.73"/>
                  
            <line class="bond" id="mol1bnd3" x1="44.03" x2="32.66" y1="55.34" y2="53.33"/>
                  
            <g class="bond" id="mol1bnd4">
                        
                <line x1="32.66" x2="25.41" y1="53.33" y2="61.97"/>
                        
                <line x1="33.63" x2="27.28" y1="55.98" y2="63.54"/>
                      
                <line class="hi" stroke="#FF0D0D" x1="25.41" x2="29.034999999999997" y1="61.97" y2="57.65"/>
                <line class="hi" stroke="#FF0D0D" x1="27.28" x2="30.455000000000002" y1="63.54" y2="59.76"/>
            </g>
                  
            <g class="bond" id="mol1bnd5">
                        
                <line x1="27.78" x2="27.13" y1="38.89" y2="39.13"/>
                        
                <line x1="28.93" x2="27.72" y1="41.18" y2="41.62"/>
                        
                <line x1="30.07" x2="28.31" y1="43.47" y2="44.11"/>
                        
                <line x1="31.21" x2="28.91" y1="45.75" y2="46.59"/>
                        
                <line x1="32.35" x2="29.5" y1="48.04" y2="49.08"/>
                        
                <line x1="33.49" x2="30.1" y1="50.33" y2="51.57"/>
                        
                <line x1="34.64" x2="30.69" y1="52.62" y2="54.05"/>
                      
            </g>
                  
            <line class="bond" id="mol1bnd6" x1="27.45" x2="14.25" y1="39.01" y2="46.63"/>
                  
            <line class="bond" id="mol1bnd7" x1="14.25" x2="1.04" y1="46.63" y2="39.01"/>
                  
            <line class="bond" id="mol1bnd8" x1="1.04" x2="1.04" y1="39.01" y2="23.77"/>
                  
            <g class="bond" id="mol1bnd9">
                        
                <line x1="14.25" x2="1.04" y1="16.15" y2="23.77"/>
                        
                <line x1="14.25" x2="3.48" y1="18.97" y2="25.18"/>
                      
            </g>
                  
            <line class="bond" id="mol1bnd10" x1="14.25" x2="27.45" y1="16.15" y2="23.77"/>
                  
            <line class="bond" id="mol1bnd11" x1="27.45" x2="27.45" y1="39.01" y2="23.77"/>
                  
            <path class="bond" d="M27.28 23.47l.35 .61l10.71 -4.65l-.84 -1.46l-.84 -1.46z" id="mol1bnd12" stroke="none"/>
                  
            <line class="bond" id="mol1bnd13" x1="40.65" x2="40.65" y1="12.3" y2=".91"/>
                  
            <line class="bond" id="mol1bnd14" x1="43.66" x2="52.33" y1="18.68" y2="25.94"/>
                  
            <path class="bond" d="M27.39 38.67l.12 .69l26.18 -2.75l-1.62 -1.94l.86 -2.37z" id="mol1bnd15" stroke="none"/>
                  
            <g class="bond" id="mol1bnd16">
                        
                <line x1="57.28" x2="52.07" y1="20.34" y2="34.67"/>
                        
                <line x1="59.09" x2="54.84" y1="22.5" y2="34.19"/>
                      
            </g>
                  
            <line class="bond" id="mol1bnd17" x1="57.28" x2="72.29" y1="20.34" y2="17.7"/>
                  
            <g class="bond" id="mol1bnd18">
                        
                <line x1="82.09" x2="72.29" y1="29.39" y2="17.7"/>
                        
                <line x1="79.31" x2="71.33" y1="29.87" y2="20.35"/>
                      
            </g>
                  
            <line class="bond" id="mol1bnd19" x1="82.09" x2="76.87" y1="29.39" y2="43.72"/>
                  
            <g class="bond" id="mol1bnd20">
                        
                <line x1="61.87" x2="76.87" y1="46.36" y2="43.72"/>
                        
                <line x1="62.83" x2="75.06" y1="43.71" y2="41.56"/>
                      
            </g>
                  
            <line class="bond" id="mol1bnd21" x1="52.07" x2="61.87" y1="34.67" y2="46.36"/>
                  
            <path class="atom" d="M49.93 55.98q.0 .76 -.26 1.33q-.26 .57 -.76 .88q-.5 .32 -1.24 .32q-.76 .0 -1.26 -.32q-.51 -.32 -.76 -.89q-.24 -.57 -.24 -1.33q.0 -.75 .24 -1.31q.25 -.57 .76 -.88q.51 -.32 1.27 -.32q.73 .0 1.23 .32q.5 .31 .76 .88q.26 .57 .26 1.33zM46.07 55.98q.0 .92 .39 1.46q.39 .53 1.22 .53q.84 .0 1.22 -.53q.39 -.54 .39 -1.46q.0 -.93 -.39 -1.45q-.38 -.52 -1.21 -.52q-.83 .0 -1.23 .52q-.39 .52 -.39 1.45z" fill="#FF0D0D" id="mol1atm3" stroke="none"/>
                  
            <path class="atom" d="M26.06 65.79q.0 .76 -.26 1.33q-.26 .57 -.76 .88q-.5 .32 -1.24 .32q-.76 .0 -1.26 -.32q-.51 -.32 -.76 -.89q-.24 -.57 -.24 -1.33q.0 -.75 .24 -1.31q.25 -.57 .76 -.88q.51 -.32 1.27 -.32q.73 .0 1.23 .32q.5 .31 .76 .88q.26 .57 .26 1.33zM22.19 65.79q.0 .92 .39 1.46q.39 .53 1.22 .53q.84 .0 1.22 -.53q.39 -.54 .39 -1.46q.0 -.93 -.39 -1.45q-.38 -.52 -1.21 -.52q-.83 .0 -1.23 .52q-.39 .52 -.39 1.45z" fill="#FF0D0D" id="mol1atm5" stroke="none"/>
                  
            <path class="atom" d="M42.59 18.6h-.72l-2.62 -4.07h-.03q.01 .24 .03 .6q.02 .36 .02 .73v2.74h-.57v-4.9h.71l2.61 4.05h.03q-.01 -.11 -.02 -.33q-.01 -.22 -.02 -.48q-.01 -.26 -.01 -.48v-2.77h.58v4.9z" fill="#3050F8" id="mol1atm12" stroke="none"/>
                
            <line class="hi" id="mol1bnd2" stroke="#FF0D0D" x1="49.04" x2="50.96" y1="59.73" y2="65.02"/>
            <line class="hi" id="mol1bnd3" stroke="#FF0D0D" x1="44.03" x2="38.345" y1="55.34" y2="54.335"/>
            <line class="hi" id="mol1bnd13" stroke="#3050F8" x1="40.65" x2="40.65" y1="12.3" y2="6.605"/>
            <line class="hi" id="mol1bnd14" stroke="#3050F8" x1="43.66" x2="47.995" y1="18.68" y2="22.310000000000002"/>
        </g>
          
    </g>
    
</svg>
