<svg xmlns="http://www.w3.org/2000/svg" xmlns:xlink="http://www.w3.org/1999/xlink" height="123.34mm" version="1.2" viewBox="0 0 161.4 123.34" width="161.4mm">
      
    <desc>Generated by the Chemistry Development Kit (http://github.com/cdk)</desc>
      
    <g fill="#3050F8" stroke="#000000" stroke-linecap="round" stroke-linejoin="round" stroke-width=".7">
            
        <rect fill="#FFFFFF" height="124.0" stroke="none" width="162.0" x=".0" y=".0"/>
            
        <g class="mol" id="mol1">
                  
            <line class="bond" id="mol1bnd1" x1="111.88" x2="119.5" y1="56.26" y2="69.47"/>
                  
            <line class="bond" id="mol1bnd2" x1="119.5" x2="113.99" y1="69.47" y2="79.02"/>
                  
            <line class="bond" id="mol1bnd3" x1="108.54" x2="96.64" y1="82.68" y2="82.68"/>
                  
            <line class="bond" id="mol1bnd4" x1="96.64" x2="89.02" y1="82.68" y2="69.47"/>
                  
            <line class="bond" id="mol1bnd5" x1="89.02" x2="94.53" y1="69.47" y2="59.92"/>
                  
            <line class="bond" id="mol1bnd6" x1="111.88" x2="99.98" y1="56.26" y2="56.26"/>
                  
            <line class="bond" id="mol1bnd7" x1="94.53" x2="89.02" y1="52.6" y2="43.06"/>
                  
            <line class="bond" id="mol1bnd8" x1="89.02" x2="73.78" y1="43.06" y2="43.06"/>
                  
            <line class="bond" id="mol1bnd9" x1="73.78" x2="66.16" y1="43.06" y2="29.86"/>
                  
            <line class="bond" id="mol1bnd10" x1="66.16" x2="54.26" y1="29.86" y2="29.86"/>
                  
            <line class="bond" id="mol1bnd11" x1="48.32" x2="41.98" y1="26.28" y2="17.57"/>
                  
            <g class="bond" id="mol1bnd12">
                        
                <line x1="40.55" x2="44.31" y1="18.03" y2="6.52"/>
                        
                <line x1="42.87" x2="46.62" y1="18.79" y2="7.28"/>
                      
                <line class="hi" stroke="#FF0D0D" x1="44.31" x2="42.43" y1="6.52" y2="12.275"/>
                <line class="hi" stroke="#FF0D0D" x1="46.62" x2="44.745" y1="7.280000000000001" y2="13.035"/>
            </g>
                  
            <line class="bond" id="mol1bnd13" x1="41.98" x2="30.73" y1="17.57" y2="21.19"/>
                  
            <line class="bond" id="mol1bnd14" x1="24.3" x2="14.25" y1="20.42" y2="14.62"/>
                  
            <g class="bond" id="mol1bnd15">
                        
                <line x1="14.25" x2="1.04" y1="14.62" y2="22.24"/>
                        
                <line x1="14.25" x2="3.48" y1="17.44" y2="23.65"/>
                      
            </g>
                  
            <line class="bond" id="mol1bnd16" x1="1.04" x2="1.04" y1="22.24" y2="37.48"/>
                  
            <g class="bond" id="mol1bnd17">
                        
                <line x1="1.04" x2="14.25" y1="37.48" y2="45.1"/>
                        
                <line x1="3.48" x2="14.25" y1="36.07" y2="42.29"/>
                      
            </g>
                  
            <line class="bond" id="mol1bnd18" x1="14.25" x2="27.45" y1="45.1" y2="37.48"/>
                  
            <line class="bond" id="mol1bnd19" x1="27.45" x2="27.45" y1="26.09" y2="37.48"/>
                  
            <g class="bond" id="mol1bnd20">
                        
                <line x1="27.45" x2="38.71" y1="37.48" y2="41.1"/>
                        
                <line x1="29.89" x2="39.46" y1="35.71" y2="38.78"/>
                      
                <line class="hi" stroke="#3050F8" x1="38.71" x2="33.08" y1="41.1" y2="39.29"/>
                <line class="hi" stroke="#3050F8" x1="39.46" x2="34.675" y1="38.78" y2="37.245000000000005"/>
            </g>
                  
            <line class="bond" id="mol1bnd21" x1="48.32" x2="44.59" y1="33.45" y2="38.57"/>
                  
            <line class="bond" id="mol1bnd22" x1="113.99" x2="119.5" y1="86.34" y2="95.88"/>
                  
            <g class="bond" id="mol1bnd23">
                        
                <line x1="134.75" x2="119.5" y1="95.9" y2="95.88"/>
                        
                <line x1="133.34" x2="120.91" y1="98.33" y2="98.32"/>
                      
            </g>
                  
            <line class="bond" id="mol1bnd24" x1="134.75" x2="142.35" y1="95.9" y2="109.11"/>
                  
            <g class="bond" id="mol1bnd25">
                        
                <line x1="134.7" x2="142.35" y1="122.3" y2="109.11"/>
                        
                <line x1="133.29" x2="139.53" y1="119.85" y2="109.1"/>
                      
            </g>
                  
            <line class="bond" id="mol1bnd26" x1="134.7" x2="119.53" y1="122.3" y2="122.23"/>
                  
            <g class="bond" id="mol1bnd27">
                        
                <line x1="111.94" x2="119.53" y1="109.02" y2="122.23"/>
                        
                <line x1="114.75" x2="120.95" y1="109.02" y2="119.8"/>
                      
            </g>
                  
            <line class="bond" id="mol1bnd28" x1="119.5" x2="111.94" y1="95.88" y2="109.02"/>
                  
            <line class="bond" id="mol1bnd29" x1="142.35" x2="154.33" y1="109.11" y2="109.13"/>
                  
            <path class="atom" d="M113.82 85.13h-.72l-2.62 -4.07h-.03q.01 .24 .03 .6q.02 .36 .02 .73v2.74h-.57v-4.9h.71l2.61 4.05h.03q-.01 -.11 -.02 -.33q-.01 -.22 -.02 -.48q-.01 -.26 -.01 -.48v-2.77h.58v4.9z" id="mol1atm3" stroke="none"/>
                  
            <path class="atom" d="M98.58 58.71h-.72l-2.62 -4.07h-.03q.01 .24 .03 .6q.02 .36 .02 .73v2.74h-.57v-4.9h.71l2.61 4.05h.03q-.01 -.11 -.02 -.33q-.01 -.22 -.02 -.48q-.01 -.26 -.01 -.48v-2.77h.58v4.9z" id="mol1atm6" stroke="none"/>
                  
            <path class="atom" d="M52.86 32.31h-.72l-2.62 -4.07h-.03q.01 .24 .03 .6q.02 .36 .02 .73v2.74h-.57v-4.9h.71l2.61 4.05h.03q-.01 -.11 -.02 -.33q-.01 -.22 -.02 -.48q-.01 -.26 -.01 -.48v-2.77h.58v4.9z" id="mol1atm10" stroke="none"/>
                  
            <path class="atom" d="M48.97 3.08q.0 .76 -.26 1.33q-.26 .57 -.76 .88q-.5 .32 -1.24 .32q-.76 .0 -1.26 -.32q-.51 -.32 -.76 -.89q-.24 -.57 -.24 -1.33q.0 -.75 .24 -1.31q.25 -.57 .76 -.88q.51 -.32 1.27 -.32q.73 .0 1.23 .32q.5 .31 .76 .88q.26 .57 .26 1.33zM45.11 3.08q.0 .92 .39 1.46q.39 .53 1.22 .53q.84 .0 1.22 -.53q.39 -.54 .39 -1.46q.0 -.93 -.39 -1.45q-.38 -.52 -1.21 -.52q-.83 .0 -1.23 .52q-.39 .52 -.39 1.45z" fill="#FF0D0D" id="mol1atm12" stroke="none"/>
                  
            <path class="atom" d="M29.39 24.69h-.72l-2.62 -4.07h-.03q.01 .24 .03 .6q.02 .36 .02 .73v2.74h-.57v-4.9h.71l2.61 4.05h.03q-.01 -.11 -.02 -.33q-.01 -.22 -.02 -.48q-.01 -.26 -.01 -.48v-2.77h.58v4.9z" id="mol1atm13" stroke="none"/>
                  
            <path class="atom" d="M43.92 44.61h-.72l-2.62 -4.07h-.03q.01 .24 .03 .6q.02 .36 .02 .73v2.74h-.57v-4.9h.71l2.61 4.05h.03q-.01 -.11 -.02 -.33q-.01 -.22 -.02 -.48q-.01 -.26 -.01 -.48v-2.77h.58v4.9z" id="mol1atm19" stroke="none"/>
                  
            <path class="atom" d="M158.08 107.16q-.79 .0 -1.24 .53q-.45 .52 -.45 1.45q.0 .91 .42 1.45q.42 .53 1.27 .53q.32 .0 .61 -.05q.29 -.06 .57 -.14v.54q-.27 .1 -.57 .15q-.29 .05 -.7 .05q-.74 .0 -1.25 -.31q-.5 -.31 -.75 -.88q-.25 -.57 -.25 -1.34q.0 -.74 .27 -1.31q.27 -.57 .8 -.88q.53 -.32 1.28 -.32q.78 .0 1.35 .29l-.24 .52q-.23 -.1 -.51 -.18q-.27 -.08 -.61 -.08zM160.84 111.58h-.6v-5.21h.6v5.21z" fill="#1FF01F" id="mol1atm26" stroke="none"/>
                
            <line class="hi" id="mol1bnd2" stroke="#3050F8" x1="113.99" x2="116.745" y1="79.02" y2="74.245"/>
            <line class="hi" id="mol1bnd3" stroke="#3050F8" x1="108.54" x2="102.59" y1="82.68" y2="82.68"/>
            <line class="hi" id="mol1bnd5" stroke="#3050F8" x1="94.53" x2="91.775" y1="59.92" y2="64.695"/>
            <line class="hi" id="mol1bnd6" stroke="#3050F8" x1="99.98" x2="105.93" y1="56.26" y2="56.26"/>
            <line class="hi" id="mol1bnd7" stroke="#3050F8" x1="94.53" x2="91.775" y1="52.6" y2="47.83"/>
            <line class="hi" id="mol1bnd10" stroke="#3050F8" x1="54.26" x2="60.209999999999994" y1="29.86" y2="29.86"/>
            <line class="hi" id="mol1bnd11" stroke="#3050F8" x1="48.32" x2="45.15" y1="26.28" y2="21.925"/>
            <line class="hi" id="mol1bnd13" stroke="#3050F8" x1="30.73" x2="36.355" y1="21.19" y2="19.380000000000003"/>
            <line class="hi" id="mol1bnd14" stroke="#3050F8" x1="24.3" x2="19.275" y1="20.42" y2="17.52"/>
            <line class="hi" id="mol1bnd19" stroke="#3050F8" x1="27.45" x2="27.45" y1="26.09" y2="31.784999999999997"/>
            <line class="hi" id="mol1bnd21" stroke="#3050F8" x1="48.32" x2="46.455" y1="33.45" y2="36.010000000000005"/>
            <line class="hi" id="mol1bnd21" stroke="#3050F8" x1="44.59" x2="46.455" y1="38.57" y2="36.010000000000005"/>
            <line class="hi" id="mol1bnd22" stroke="#3050F8" x1="113.99" x2="116.745" y1="86.34" y2="91.11"/>
            <line class="hi" id="mol1bnd29" stroke="#1FF01F" x1="154.33" x2="148.34" y1="109.13" y2="109.12"/>
        </g>
          
    </g>
    
</svg>
